<svg width="100" height="57" viewBox="0 0 68 57" fill="none" xmlns="http://www.w3.org/2000/svg">
<path fill-rule="evenodd" clip-rule="evenodd" d="M62.6223 3.78799C61.1177 2.17953 59.225 1.23799 56.5316 0.757794C53.9293 0.294062 47.6569 0.297515 45.0825 0.764434C42.4722 1.23773 41.2393 2.03319 38.5127 5.00336C37.2362 6.39403 35.7571 7.80222 35.2254 8.13262L34.2592 8.73367L20.2489 8.82397L6.2387 8.91427V12.9753V17.0365L12.2699 17.1446C15.5869 17.2041 20.1785 17.1799 22.4733 17.0907C26.4514 16.9366 26.7242 16.8904 28.334 16.0979C29.6253 15.462 30.5366 14.7059 32.2096 12.8815C33.8 11.1471 34.8132 10.2919 35.9215 9.74772L37.4463 8.99927H46.0974H54.7486L55.8559 9.73205C57.6065 10.8903 58.3961 12.3022 58.3916 14.2668C58.3892 15.2493 58.2168 16.2315 57.9605 16.7215C57.6328 17.348 56.3032 18.761 55.3069 19.5419C55.2708 19.57 50.102 19.663 43.8207 19.7482C33.5219 19.8879 32.2964 19.9506 31.3461 20.3886C30.748 20.664 29.0245 22.1649 27.3621 23.8583C24.8305 26.4368 24.2626 26.8846 23.1856 27.1504C22.362 27.3539 18.8253 27.4582 12.761 27.4582H3.58273V31.2932V35.1279L4.82785 35.3146C6.52713 35.5696 14.2669 35.2748 16.0658 34.8867C18.2793 34.4094 19.7961 33.4743 20.8412 31.9426C21.9854 30.2659 23.2576 29.1374 24.8169 28.416C25.9872 27.8744 26.4559 27.8537 39.5711 27.7687C49.004 27.7076 53.5338 27.7725 54.4913 27.9828C56.2641 28.3716 57.8025 29.4991 58.7427 31.099C59.374 32.1731 59.4895 32.6618 59.4829 34.231C59.4715 36.9509 58.3371 38.8149 55.9053 40.1102C55.0365 40.5729 53.8913 40.6154 38.3759 40.7604C26.8065 40.8688 21.4269 41.0114 20.6237 41.2318C18.2097 41.8945 17.2501 42.6252 14.8998 45.5916C13.1378 47.8152 11.468 48.3273 5.10991 48.5944L0.926758 48.7703V52.7221V56.6739H2.24465C4.71842 56.6739 6.25463 55.8445 9.10927 52.9675C11.1884 50.8722 11.9666 50.2688 13.1562 49.8292C15.8472 48.8353 17.6814 48.6053 20.2675 48.9368C21.7883 49.132 28.326 49.2359 38.9252 49.2332C56.6716 49.229 57.0625 49.2011 60.1527 47.7113C63.171 46.2567 65.7088 42.9038 66.7183 39.0369C67.5645 35.7959 67.1031 29.9033 65.803 27.3502C65.2652 26.2936 63.1261 24.0448 62.2069 23.5694L61.4534 23.1798L62.7832 21.9312C63.6708 21.098 64.3972 20.0643 64.9661 18.8248C65.7212 17.1799 65.8323 16.6328 65.9361 14.0456C66.1165 9.56047 65.1112 6.44874 62.6223 3.78799Z" fill="white"/>
</svg>
