<svg width="250" height="212" viewBox="0 0 250 212" fill="none" xmlns="http://www.w3.org/2000/svg">
<path fill-rule="evenodd" clip-rule="evenodd" d="M232.29 12.8785C226.625 6.82181 219.499 3.27689 209.358 1.47025C199.56 -0.275846 175.944 -0.264127 166.251 1.49369C156.423 3.27689 151.781 6.27103 141.515 17.4546C139.133 20.0503 136.562 22.6617 134.333 24.7867C132.064 26.9488 130.147 28.6089 129.138 29.2359L125.5 31.4995L72.75 31.8394L20 32.1792V47.4702V62.7613L42.708 63.1675C55.1973 63.3921 72.4854 63.3003 81.125 62.9644C96.1025 62.3843 97.1299 62.2105 103.191 59.2261C108.053 56.8316 111.484 53.9859 117.783 47.1167C123.771 40.5874 127.586 37.3667 131.759 35.3179L137.5 32.4995H170.072H202.645L206.814 35.2593C213.405 39.6187 216.378 44.9351 216.361 52.3316C216.352 56.0308 215.703 59.73 214.738 61.5738C213.504 63.9331 208.498 69.2535 204.747 72.1929C204.611 72.3003 185.15 72.6499 161.5 72.9702C122.724 73.4956 118.11 73.732 114.532 75.3824C112.28 76.4195 105.791 82.0699 99.5322 88.4449C90 98.1538 87.8623 99.8394 83.8066 100.841C80.7061 101.607 67.3896 102 44.5566 102H10V116.439V130.876L14.6885 131.58C21.0859 132.539 50.2266 131.429 57 129.968C65.334 128.171 71.0449 124.65 74.9805 118.884C79.2881 112.57 84.0781 108.322 89.9492 105.605C94.3555 103.566 96.1201 103.488 145.5 103.169C181.016 102.939 198.071 103.183 201.676 103.974C208.351 105.439 214.143 109.683 217.683 115.707C220.06 119.751 220.495 121.591 220.47 127.5C220.427 137.74 216.156 144.759 207 149.636C203.729 151.378 199.417 151.537 141 152.084C97.4404 152.492 77.1846 153.029 74.1611 153.859C65.0723 156.353 61.459 159.105 52.6104 170.273C45.9756 178.646 39.6895 180.574 15.75 181.58L0 182.242V197.121V212H4.96191C14.2764 212 20.0596 208.876 30.8076 198.044C38.6357 190.156 41.5664 187.884 46.0449 186.228C56.1768 182.486 63.083 181.621 72.8203 182.869C78.5459 183.603 103.161 183.994 143.068 183.984C209.885 183.968 211.357 183.863 222.992 178.255C234.356 172.777 243.911 160.154 247.712 145.595C250.898 133.392 249.161 111.205 244.266 101.593C242.241 97.6148 234.188 89.148 230.726 87.357L227.889 85.8902L232.896 81.189C236.238 78.0523 238.973 74.1597 241.115 69.4937C243.958 63.3003 244.376 61.2398 244.767 51.4995C245.446 34.6128 241.661 22.896 232.29 12.8785Z" fill="white"/>
</svg>
