<svg width="400" height="400" viewBox="0 0 400 400" fill="none" xmlns="http://www.w3.org/2000/svg">
<path d="M331.997 210.488C327.618 217.058 323.332 218.947 316.702 217.224C311.76 215.939 309.048 212.71 308.899 207.581C308.769 203.1 308.734 198.607 308.902 194.131C308.999 191.563 308.154 190.428 305.534 190.739C303.288 191.005 302.128 190.338 302.104 187.721C302.08 184.984 303.255 184.21 305.675 184.467C308.094 184.724 309.156 183.716 308.875 181.259C308.75 180.178 308.967 179.059 308.831 177.983C308.476 175.182 309.471 174.171 312.454 174.144C315.572 174.114 316.372 175.141 316.309 178.119C316.168 184.949 315.212 184.456 322.546 184.467C323.535 184.467 324.53 184.532 325.513 184.453C327.919 184.264 329.187 184.995 329.138 187.729C329.092 190.303 327.897 190.899 325.635 190.772C323.443 190.65 321.24 190.802 319.043 190.731C317.157 190.672 316.182 191.306 316.217 193.359C316.296 197.952 316.198 202.547 316.266 207.139C316.296 209.158 317.163 210.77 319.319 211.274C321.295 211.734 323.484 211.512 324.085 209.467C325.275 205.43 327.859 206.419 330.528 207.161C331.043 207.305 331.509 207.624 331.999 207.865V210.493L331.997 210.488Z" fill="white"/>
<path d="M229.02 193.296C229.02 186.401 229.102 179.502 228.977 172.607C228.934 170.15 229.554 169.044 232.274 169.077C242.28 169.199 252.291 169.207 262.297 169.074C265.215 169.036 265.435 170.496 265.432 172.761C265.432 175.005 265.267 176.519 262.322 176.454C255.177 176.292 248.024 176.511 240.879 176.349C237.986 176.284 236.769 176.95 236.829 180.155C236.991 188.863 236.848 188.866 245.754 188.866C250.154 188.866 254.554 188.964 258.948 188.831C261.723 188.747 263.403 189.004 263.43 192.608C263.46 196.461 261.349 196.198 258.799 196.173C252.641 196.116 246.48 196.236 240.324 196.116C237.81 196.068 236.666 196.821 236.861 199.484C237.046 201.988 237.035 204.526 236.861 207.033C236.685 209.588 237.598 210.522 240.229 210.476C247.704 210.344 255.188 210.541 262.663 210.373C265.554 210.308 266.164 211.476 266.145 214.061C266.126 216.591 265.646 217.835 262.693 217.789C252.579 217.632 242.459 217.662 232.342 217.775C229.703 217.805 228.92 216.854 228.969 214.316C229.104 207.312 229.015 200.305 229.015 193.299L229.02 193.296Z" fill="white"/>
<path d="M118.858 193.204C118.858 186.2 118.923 179.194 118.821 172.193C118.788 169.936 119.541 169.074 121.855 169.093C131.53 169.175 141.206 169.212 150.881 169.077C153.902 169.034 153.85 170.703 153.915 172.851C153.986 175.206 153.555 176.52 150.718 176.452C143.796 176.292 136.865 176.49 129.94 176.354C127.344 176.303 126.353 177.181 126.54 179.766C126.71 182.161 126.74 184.591 126.534 186.983C126.298 189.709 127.491 190.338 129.997 190.278C136.15 190.137 142.314 190.351 148.467 190.181C151.439 190.097 151.832 191.481 151.883 193.976C151.94 196.64 151.184 197.745 148.372 197.683C142.108 197.542 135.838 197.705 129.571 197.607C127.287 197.572 126.466 198.385 126.534 200.677C126.672 205.269 126.434 209.875 126.629 214.462C126.759 217.524 125.139 217.795 122.727 217.768C120.406 217.741 118.709 217.703 118.796 214.538C118.991 207.429 118.856 200.314 118.856 193.199L118.858 193.204Z" fill="white"/>
<path d="M189.959 207.99C189.959 201.427 189.945 194.868 189.969 188.306C189.975 187.054 189.552 185.266 191.348 185.114C193.139 184.962 195.564 183.854 196.662 186.214C197.781 188.623 198.881 187.864 200.455 186.864C208.599 181.689 218.006 184.738 221.482 193.7C223.371 198.566 223.474 203.543 221.65 208.453C218.578 216.722 208.935 220.458 200.994 216.535C197.585 214.85 197.212 215.088 197.198 218.982C197.19 221.715 197.033 224.463 197.241 227.18C197.466 230.106 196.307 230.936 193.454 230.93C190.698 230.925 189.834 230.066 189.904 227.346C190.072 220.897 189.959 214.443 189.959 207.992V207.99ZM196.808 201.539C196.862 207.155 201.086 211.696 206.266 211.704C211.59 211.712 215.812 207.03 215.714 201.222C215.617 195.361 211.344 190.733 206.123 190.828C200.97 190.923 196.754 195.773 196.811 201.536L196.808 201.539Z" fill="white"/>
<path d="M300.148 205.38C300.154 208.111 300.189 210.845 300.137 213.573C300.113 214.806 300.658 216.667 298.902 216.846C297.011 217.038 294.524 218.182 293.223 215.863C292.202 214.039 291.438 214.551 290.172 215.38C286.022 218.095 281.575 218.577 277.026 216.548C273.149 214.817 271.204 211.725 271.301 207.444C271.396 203.31 273.577 200.172 277.533 198.68C281.578 197.151 285.707 197.347 289.844 198.308C290.785 198.528 291.803 199.118 292.624 198.249C293.497 197.322 293.09 196.19 292.711 195.168C291.627 192.234 289.5 190.494 286.387 190.156C283.212 189.809 280.538 190.822 278.687 193.548C276.956 196.098 274.894 196.572 272.285 195.052C271.515 194.602 271.15 194.055 271.369 193.19C271.448 192.879 271.624 192.589 271.743 192.285C274.005 186.441 281.172 183.201 288.94 184.512C296.033 185.71 299.848 189.755 300.124 196.534C300.243 199.479 300.143 202.432 300.148 205.383V205.38ZM284.304 211.66C288.693 211.725 291.947 209.823 292.806 206.965C293.109 205.952 293.597 204.754 292.009 204.28C288.725 203.299 285.385 202.551 281.971 203.418C280.261 203.852 279.132 205.022 279.018 206.927C278.907 208.783 279.73 210.143 281.383 210.864C282.467 211.338 283.689 211.5 284.306 211.66H284.304Z" fill="white"/>
<path d="M88.1399 211.227C82.7536 211.227 77.3646 211.138 71.981 211.265C69.1687 211.333 68.242 210.282 68.6647 207.531C70.079 198.349 78.7925 191.159 88.5734 191.229C98.2947 191.297 107.016 198.677 108.263 207.805C108.59 210.2 107.799 211.281 105.285 211.249C99.5708 211.176 93.854 211.227 88.1372 211.227H88.1399Z" fill="white"/>
<path d="M167.309 193.63C167.309 200.512 167.211 207.393 167.355 214.273C167.412 217.044 166.366 217.852 163.678 217.803C161.145 217.754 159.883 217.267 159.91 214.354C160.029 200.373 160.015 186.393 159.918 172.412C159.899 169.746 160.942 169.034 163.437 169.072C165.813 169.107 167.431 169.261 167.36 172.334C167.198 179.43 167.309 186.531 167.309 193.632V193.63Z" fill="white"/>
<path d="M181.636 201.284C181.636 205.765 181.52 210.249 181.682 214.725C181.78 217.372 180.488 217.833 178.258 217.762C176.171 217.695 174.316 217.882 174.351 214.828C174.459 205.649 174.467 196.466 174.345 187.287C174.307 184.32 175.976 184.25 178.157 184.247C180.263 184.247 181.777 184.423 181.68 187.187C181.514 191.879 181.634 196.586 181.634 201.284H181.636Z" fill="white"/>
<path d="M88.8064 213.904C94.6154 213.904 100.424 213.912 106.233 213.899C107.642 213.896 108.897 213.942 108.891 215.882C108.883 217.922 107.477 217.724 106.155 217.724C94.3173 217.724 82.48 217.724 70.6426 217.73C69.277 217.73 67.9603 217.83 68.0009 215.806C68.0388 213.806 69.3746 213.907 70.7212 213.904C76.7496 213.904 82.778 213.904 88.8064 213.904Z" fill="white"/>
<path d="M178.173 230.83C175.529 230.868 173.567 228.993 173.518 226.382C173.47 223.778 175.42 221.738 177.978 221.716C180.438 221.697 182.714 223.827 182.768 226.203C182.825 228.576 180.623 230.795 178.171 230.83H178.173Z" fill="white"/>
<path d="M85.1729 185.927C85.3598 183.908 86.5167 182.659 88.5244 182.681C90.3668 182.7 91.6402 183.897 91.67 185.786C91.7025 187.848 90.3505 189.086 88.3699 189.07C86.5519 189.053 85.4113 187.856 85.1729 185.927Z" fill="white"/>
</svg>
