<svg width="400" height="400" viewBox="0 0 400 400" fill="none" xmlns="http://www.w3.org/2000/svg">
<path fill-rule="evenodd" clip-rule="evenodd" d="M196.939 108.386C193.09 111.703 181.169 117.328 174.694 118.882C167.438 120.623 151.627 120.655 144.549 118.943C138.323 117.436 131.735 114.615 126.973 111.415C125.04 110.117 123.085 109.283 122.628 109.564C121.205 110.44 122.396 146.552 124.239 158.415C128.029 182.806 134.392 202.393 145.697 224.459C152.1 236.957 164.806 256.333 174.739 268.748C183.316 279.468 197.962 294 200.19 294C202.455 294 218.346 277.905 227.027 266.817C258.406 226.741 273.907 188.893 277.313 144.041C278.179 132.627 278.231 120.56 277.442 113.573L276.942 109.133L273.43 111.534C268.032 115.224 261.086 118.147 254.499 119.501C246.8 121.085 234.316 121.076 227.143 119.483C220.201 117.942 209.698 113.161 204.237 109.056C201.977 107.358 200.025 105.982 199.899 106C199.774 106.017 198.442 107.091 196.939 108.386ZM207.639 117.286C209.875 118.634 215.144 120.887 219.347 122.293C226.086 124.548 228.234 124.892 237.526 125.206C249.551 125.613 257.537 124.19 266.872 119.976C269.739 118.682 272.212 117.623 272.367 117.623C272.957 117.623 272.619 138.529 272.023 138.896C271.678 139.108 269.199 137.758 266.514 135.898C249.54 124.138 225.433 122.932 205.359 132.837L200.121 135.421L193.651 132.413C183.449 127.668 178.574 126.622 166.499 126.588C152.081 126.548 142.111 129.466 132.026 136.679C129.949 138.164 128.129 139.379 127.982 139.379C127.527 139.379 126.654 119.09 127.079 118.406C127.299 118.051 130.461 118.972 134.107 120.452C143.125 124.112 149.693 125.364 159.96 125.38C166.58 125.39 170.389 124.952 176.01 123.532C183.296 121.692 193.939 116.96 197.719 113.879C199.558 112.381 199.784 112.362 201.622 113.562C202.695 114.262 205.403 115.938 207.639 117.286ZM180.548 132.921C183.338 133.562 188.527 135.467 192.077 137.152L198.534 140.217L198.321 155.022L198.11 169.828L195.033 170.88C189.468 172.783 186.006 176.231 184.093 181.77L183.035 184.833L159.532 185.039L136.029 185.244L135.331 183.417C134.104 180.204 130.72 164.138 129.41 155.307L128.143 146.76L131.869 143.471C143.807 132.935 162.749 128.83 180.548 132.921ZM248.063 132.753C255.03 134.624 263.357 138.996 267.794 143.113L271.725 146.76L270.168 157.125C269.312 162.825 267.665 171.392 266.508 176.161L264.406 184.833H240.746H217.087L216.03 181.77C214.117 176.231 210.653 172.783 205.089 170.879L202.012 169.826V154.822V139.817L205.134 138.049C209.576 135.534 216.027 133.187 221.916 131.945C228.256 130.608 241.613 131.021 248.063 132.753ZM234.014 135.807C228.839 138.081 227.326 142.602 229.973 147.883C230.627 149.188 230.865 150.257 230.501 150.257C228.931 150.257 224.678 154.754 223.286 157.886C220.036 165.201 224.738 173.374 233.179 175.081C234.865 175.423 235.649 176.076 235.824 177.286C236.031 178.713 235.699 179.005 233.867 179.005C232.655 179.005 230.527 178.682 229.141 178.286C225.469 177.238 225.089 178.782 228.654 180.264C232.855 182.011 242.154 181.483 245.048 179.332C248.853 176.505 250.283 173.87 250.634 169.04C251.064 163.121 249.712 160.553 243.736 155.932C241.179 153.956 239.087 152.029 239.087 151.651C239.087 151.273 240.404 151.176 242.014 151.435C244.764 151.878 244.849 151.834 243.426 150.693C242.592 150.026 241.276 149.48 240.499 149.48C239.513 149.48 239.087 148.893 239.087 147.537C239.087 145.906 239.455 145.595 241.382 145.595C242.645 145.595 243.895 145.245 244.16 144.818C244.46 144.335 242.997 144.041 240.304 144.041C236.003 144.041 235.965 144.061 235.965 146.372C235.965 149.431 234.053 149.452 232.473 146.411C230.792 143.175 230.988 141.154 233.198 138.955C235.454 136.709 239.394 136.415 242.086 138.293C243.967 139.604 245.096 139.332 244.143 137.797C243.509 136.777 238.89 134.701 237.356 134.747C236.805 134.764 235.301 135.241 234.014 135.807ZM154.842 138.153C154.131 139.005 154.152 139.625 154.934 140.872C155.491 141.76 156.214 142.487 156.54 142.487C156.866 142.487 157.146 146.071 157.164 150.451C157.194 157.957 157.262 158.292 158.36 156.278C159 155.104 159.873 154.142 160.299 154.142C161.676 154.142 162.812 150.024 161.858 148.491C161.188 147.416 161.261 147.032 162.188 146.743C162.842 146.539 163.908 146.206 164.556 146.004C165.205 145.802 166.747 145.839 167.983 146.084C170.07 146.5 170.203 146.739 169.843 149.417C169.509 151.889 169.81 152.656 171.939 154.776C173.306 156.136 174.572 157.25 174.754 157.25C174.936 157.25 175.084 154.006 175.084 150.041C175.084 144.711 175.408 142.374 176.325 141.07C178.814 137.533 177.597 137.048 166.229 137.048C158.134 137.048 155.554 137.298 154.842 138.153ZM148.58 141.673C147.452 142.384 147.656 146.029 149.739 162.3L150.136 165.408L148.949 162.371C148.296 160.7 146.83 158.117 145.691 156.63C144.106 154.562 143.634 153.085 143.681 150.344C143.726 147.72 143.304 146.292 142.106 145.012C140.034 142.799 139.508 142.82 137.958 145.177C136.927 146.742 136.857 147.568 137.57 149.718C138.323 151.99 138.179 152.908 136.507 156.502C133.537 162.882 133.234 167.662 135.276 175.89L137.014 182.89H159.038H181.062L182.874 179.038C185.114 174.277 187.652 171.799 192.451 169.687L196.159 168.055V162.938C196.159 159.242 195.741 157.149 194.654 155.398C193.345 153.289 193.264 152.545 194.037 149.664C194.844 146.654 194.771 146.199 193.228 144.663C191.574 143.017 191.489 143.01 189.941 144.404C188.755 145.473 188.353 146.801 188.353 149.652C188.353 152.555 187.872 154.096 186.343 156.091C185.238 157.534 183.658 160.395 182.83 162.449C181.135 166.664 181.087 167.751 183.268 152.348C184.622 142.781 184.195 140.933 180.627 140.933C178.212 140.933 177.846 142.364 179.535 145.206L180.458 146.76L181.649 145.206C182.304 144.352 182.851 144.002 182.864 144.429C182.957 147.474 180.281 166.346 179.649 167.105C179.214 167.626 179.052 168.682 179.289 169.45C179.526 170.219 179.409 172.595 179.027 174.732C178.436 178.045 178.356 177.473 178.488 170.847C178.574 166.574 178.925 162.486 179.27 161.765C179.704 160.86 179.407 160.035 178.312 159.101C177.439 158.358 176.904 157.463 177.122 157.112C177.34 156.76 177.184 156.473 176.775 156.473C176.366 156.473 175.83 156.997 175.583 157.638C174.927 159.341 173.894 159.065 172.915 156.929C172.444 155.897 171.372 154.837 170.534 154.572C168.778 154.018 167.944 150.3 169.096 148.16C169.512 147.39 169.577 147.011 169.243 147.316C168.909 147.621 168.035 147.552 167.303 147.161C166.57 146.771 165.263 146.636 164.398 146.861C163.111 147.196 162.863 147.817 163.039 150.268C163.214 152.728 162.907 153.492 161.328 154.523C160.269 155.213 159.005 156.648 158.519 157.71C156.972 161.09 155.275 159.669 154.246 154.131L153.309 149.091L153.733 154.439C154.05 158.437 153.892 159.954 153.108 160.449C152.328 160.941 152.31 161.113 153.035 161.123C153.765 161.131 153.993 163.525 153.94 170.653C153.868 180.326 153.014 180.601 152.133 171.235C151.912 168.885 151.208 163.291 150.57 158.804C148.322 143.016 148.349 143.621 149.96 145.073C151.676 146.619 153.23 145.501 153.23 142.72C153.23 141.381 152.79 140.936 151.474 140.944C150.508 140.952 149.206 141.279 148.58 141.673ZM182.109 142.015C182.109 142.183 181.564 142.529 180.898 142.784C180.203 143.049 179.89 142.918 180.163 142.478C180.622 141.74 182.109 141.386 182.109 142.015ZM235.965 163.104C235.965 169.244 235.67 172.79 235.159 172.79C234.716 172.79 233.143 172.286 231.664 171.67C225.862 169.257 223.807 160.525 227.901 155.682C230.365 152.766 232.713 151.723 234.599 152.707C235.789 153.327 235.965 154.67 235.965 163.104ZM245.486 162.32C250.165 168.24 248.207 175.527 241.233 178.158C239.254 178.904 239.087 178.819 239.087 177.058C239.087 175.679 239.619 175.017 241.006 174.671C242.062 174.406 243.358 173.673 243.886 173.039C244.716 172.043 244.456 171.96 241.967 172.424L239.087 172.963V168.214C239.087 163.984 239.257 163.465 240.648 163.465C241.515 163.465 242.209 162.947 242.209 162.3C242.209 161.653 241.515 161.135 240.648 161.135C239.424 161.135 239.087 160.616 239.087 158.735V156.334L241.557 158.403C242.914 159.54 244.683 161.303 245.486 162.32ZM204.701 174.054C205.457 174.293 204.945 174.934 203.139 176.007C201.661 176.885 199.159 178.84 197.58 180.351C195.767 182.085 194.255 182.926 193.482 182.63C191.392 181.832 192.115 179.718 195.698 176.152C199.211 172.654 199.829 172.51 204.701 174.054ZM194.448 174.926C193.169 177.598 190.917 180.551 190.156 180.555C187.95 180.566 188.228 178.615 190.729 176.537C193.238 174.452 195.052 173.666 194.448 174.926ZM210.127 177.755L211.88 179.612L205.901 182.898C200.756 185.725 199.658 186.065 198.04 185.331C195.58 184.215 195.661 183.659 198.695 180.829C204.474 175.439 207.24 174.695 210.127 177.755ZM199.263 189.689C199.273 191.078 198.942 192.214 198.527 192.214C196.878 192.214 190.18 189.611 188.158 188.185C185.84 186.548 185.605 185.611 186.757 182.593L187.503 180.642L193.374 183.903C198.795 186.913 199.249 187.358 199.263 189.689ZM214.075 186.97C214.126 190.032 213.186 189.555 211.289 185.555C209.794 182.404 209.758 182.005 210.899 181.354C211.874 180.797 212.371 181.109 213.099 182.734C213.617 183.888 214.056 185.795 214.075 186.97ZM211.799 189.218C212.794 192.894 212.381 194.479 209.804 196.889L207.866 198.701V194.778C207.866 192.621 207.357 189.42 206.736 187.666C205.708 184.765 205.725 184.407 206.931 183.706C208.649 182.707 210.651 184.973 211.799 189.218ZM206.134 189.555C207.507 194.809 206.771 199.678 204.513 200.281C200.934 201.236 200.842 201.08 200.842 194.048C200.842 188.565 201.092 187.146 202.207 186.305C204.279 184.741 205.041 185.372 206.134 189.555ZM149.309 204.452L149.291 220.574L146.261 213.853C143.74 208.254 136.839 189.81 136.839 188.667C136.839 188.481 139.649 188.329 143.083 188.329H149.327L149.309 204.452ZM171.962 222.905C171.962 241.922 171.807 257.482 171.617 257.482C171.426 257.482 168.792 253.792 165.763 249.282L160.254 241.082V214.706V188.329H166.108H171.962V222.905ZM196.3 192.715C198.782 193.111 199.281 193.498 199.281 195.033C199.281 196.653 198.918 196.876 196.275 196.876C191.365 196.876 188.319 195.431 187.098 192.523C185.415 188.51 185.739 188.229 189.665 190.307C191.675 191.37 194.661 192.454 196.3 192.715ZM239.087 215.015V241.701L236.082 246.329C234.43 248.874 231.971 252.477 230.618 254.336L228.16 257.714V223.022V188.329H233.623H239.087V215.015ZM260.178 197.12C257.538 204.741 251.959 218.383 251.088 219.344C250.927 219.522 250.795 212.616 250.795 203.999V188.329H257.009H263.223L260.178 197.12ZM187.697 198.946C189.029 200.314 191.127 201.85 192.358 202.357L194.597 203.281V243.376V283.472L188.744 277.683L182.89 271.895L182.944 231.083C182.994 194.403 183.114 190.585 184.137 193.365C184.762 195.066 186.365 197.578 187.697 198.946ZM217.233 231.005V271.35L211.41 277.43L205.588 283.511L205.557 243.395L205.525 203.281L207.858 202.318C210.987 201.028 215.383 196.066 216.042 193.078C216.336 191.749 216.724 190.66 216.904 190.66C217.085 190.66 217.233 208.815 217.233 231.005ZM199.281 199.34C199.281 200.255 198.711 200.761 197.681 200.761C196.142 200.761 191.475 198.734 191.475 198.066C191.475 197.887 193.231 197.781 195.378 197.83C198.606 197.903 199.281 198.164 199.281 199.34Z" fill="white"/>
</svg>
