<svg width="400" height="400" viewBox="0 0 400 400" fill="none" xmlns="http://www.w3.org/2000/svg">
<path d="M277.994 145.786C277.847 152.329 277.534 158.543 276.949 164.745C275.472 180.375 272.392 195.662 267.259 210.514C261.631 226.802 253.774 241.913 243.28 255.609C234.175 267.495 223.579 277.835 211.111 286.185C207.642 288.509 204.066 290.646 200.18 292.223C199.746 292.399 199.395 292.389 198.994 292.197C195.946 290.734 193.009 289.077 190.171 287.247C178.733 279.873 168.857 270.748 160.187 260.296C148.062 245.679 139.137 229.266 132.873 211.373C129.294 201.15 126.711 190.672 124.946 179.992C124.039 174.506 123.359 168.991 122.895 163.449C122.464 158.298 122.197 153.144 122.078 147.977C122.012 145.084 122.038 142.19 122 139.297C121.994 138.884 122.099 138.607 122.448 138.352C136.336 128.211 150.219 118.065 164.092 107.9C164.597 107.531 164.85 107.579 165.281 108.002C167.105 109.798 168.787 111.742 170.835 113.303C174.593 116.169 178.757 118.249 183.215 119.768C189.63 121.953 196.239 122.722 202.977 122.385C211.747 121.947 219.971 119.674 227.405 114.85C229.291 113.629 230.919 112.116 232.514 110.553C233.35 109.734 234.229 108.957 235.042 108.117C235.411 107.734 235.646 107.738 236.069 108.043C240.838 111.47 245.534 114.995 250.249 118.494C258.297 124.467 266.342 130.443 274.382 136.428C275.498 137.259 276.563 138.155 277.665 139.004C277.948 139.223 278.002 139.476 278 139.805C277.99 141.903 277.994 144.002 277.994 145.782V145.786ZM129.195 148.471C129.258 148.471 129.32 148.471 129.384 148.471C129.384 149.53 129.354 150.589 129.388 151.649C129.619 158.892 130.255 166.099 131.248 173.278C132.303 180.911 133.794 188.455 135.777 195.901C139.725 210.737 145.494 224.81 153.453 237.956C162.29 252.549 173.251 265.284 186.742 275.784C190.545 278.742 194.519 281.444 198.725 283.806C199.349 284.157 199.841 284.215 200.467 283.82C201.735 283.021 203.073 282.333 204.341 281.535C215.407 274.56 224.933 265.838 233.336 255.858C244.227 242.922 252.502 228.448 258.575 212.691C262.681 202.041 265.626 191.07 267.619 179.839C268.74 173.513 269.539 167.147 270.058 160.74C270.526 154.947 270.777 149.149 270.825 143.338C270.827 142.989 270.777 142.738 270.456 142.501C259.226 134.225 248.003 125.934 236.785 117.639C236.464 117.403 236.274 117.387 235.959 117.67C233.427 119.933 230.598 121.769 227.598 123.344C221.175 126.717 214.335 128.693 207.132 129.473C201.925 130.037 196.727 129.979 191.544 129.283C186.606 128.619 181.819 127.355 177.222 125.41C172.477 123.404 168.048 120.876 164.212 117.397C163.867 117.084 163.694 117.268 163.442 117.451C152.183 125.651 140.923 133.852 129.655 142.042C129.312 142.291 129.181 142.55 129.185 142.973C129.207 144.805 129.195 146.639 129.195 148.473V148.471Z" fill="white"/>
<path d="M215.228 200.673C212.381 200.673 209.532 200.653 206.685 200.689C206.075 200.697 205.956 200.507 205.966 199.945C206 198.069 205.99 196.191 205.97 194.315C205.966 193.879 206.049 193.697 206.538 193.703C207.824 193.717 207.824 193.693 207.824 192.372C207.824 187.382 207.812 182.392 207.838 177.402C207.842 176.784 207.666 176.616 207.064 176.642C205.978 176.688 205.976 176.654 205.976 175.588C205.976 173.823 205.99 172.055 205.966 170.289C205.96 169.832 206.083 169.689 206.554 169.691C212.361 169.707 218.166 169.703 223.972 169.695C224.305 169.695 224.55 169.784 224.785 170.031C226.117 171.445 227.458 172.852 228.812 174.242C229.083 174.519 229.179 174.804 229.177 175.183C229.163 177.478 229.161 179.776 229.177 182.071C229.179 182.46 229.063 182.737 228.782 182.996C228.312 183.432 227.881 183.907 227.413 184.345C227.171 184.571 227.118 184.758 227.403 184.975C227.456 185.015 227.492 185.075 227.546 185.113C228.928 186.07 229.326 187.368 229.203 189.034C229.053 191.076 229.159 193.137 229.175 195.191C229.177 195.573 229.073 195.858 228.806 196.132C227.453 197.527 226.109 198.929 224.777 200.344C224.522 200.617 224.247 200.679 223.898 200.679C221.007 200.671 218.113 200.673 215.222 200.673H215.228ZM215.822 190.92C215.822 191.692 215.838 192.463 215.814 193.233C215.802 193.602 215.912 193.731 216.294 193.723C217.373 193.699 218.453 193.723 219.534 193.713C220.092 193.709 220.953 192.862 220.959 192.306C220.971 191.381 220.975 190.454 220.959 189.529C220.949 188.998 220.098 188.171 219.566 188.167C218.465 188.157 217.361 188.177 216.26 188.157C215.91 188.151 215.802 188.257 215.812 188.604C215.836 189.375 215.82 190.147 215.82 190.918L215.822 190.92ZM215.822 178.905C215.822 179.499 215.842 180.095 215.814 180.689C215.798 181.058 215.908 181.188 216.292 181.178C217.215 181.154 218.14 181.17 219.065 181.17C220.347 181.17 220.963 180.552 220.963 179.262C220.963 178.867 220.971 178.47 220.961 178.074C220.945 177.519 220.1 176.666 219.546 176.66C218.469 176.65 217.389 176.678 216.312 176.646C215.872 176.634 215.8 176.812 215.816 177.19C215.84 177.761 215.822 178.333 215.822 178.907V178.905Z" fill="white"/>
<path d="M193.238 176.655C194.165 178.982 195.043 181.192 195.922 183.401C197.202 186.617 198.494 189.827 199.744 193.054C199.947 193.575 200.196 193.746 200.744 193.73C202.056 193.69 202.056 193.718 202.056 195.016C202.056 196.717 202.044 198.417 202.064 200.118C202.068 200.54 201.962 200.686 201.516 200.684C197.917 200.666 194.317 200.668 190.717 200.684C190.3 200.684 190.136 200.586 190.142 200.134C190.164 198.168 190.176 196.202 190.142 194.237C190.126 193.349 190.822 193.9 191.127 193.654C191.127 193.654 191.139 193.63 191.135 193.609C190.968 192.717 190.433 192.271 189.532 192.271C187.521 192.271 185.511 192.311 183.502 192.249C182.774 192.227 182.335 192.43 182.092 193.1C182.026 193.28 181.917 193.447 181.835 193.605C181.923 193.764 182.05 193.726 182.142 193.712C182.666 193.632 182.81 193.842 182.802 194.364C182.772 196.262 182.772 198.164 182.802 200.062C182.81 200.574 182.641 200.686 182.16 200.684C178.605 200.666 175.049 200.664 171.494 200.684C170.99 200.688 170.866 200.542 170.874 200.052C170.902 198.13 170.894 196.21 170.878 194.288C170.876 193.898 170.922 193.611 171.397 193.718C172.479 193.961 172.89 193.391 173.263 192.454C175.278 187.395 177.363 182.365 179.423 177.325C179.696 176.659 179.692 176.619 178.946 176.665C178.38 176.699 178.249 176.504 178.259 175.963C178.294 174.087 178.287 172.209 178.261 170.331C178.255 169.857 178.356 169.685 178.875 169.687C184.022 169.707 189.166 169.705 194.313 169.687C194.785 169.687 194.901 169.825 194.895 170.28C194.871 172.203 194.867 174.125 194.897 176.045C194.905 176.549 194.764 176.719 194.271 176.657C193.968 176.619 193.657 176.651 193.238 176.651V176.655ZM186.263 181.591C185.615 183.322 185.029 184.891 184.415 186.533C185.661 186.533 186.805 186.533 187.951 186.533C188.157 186.533 188.31 186.499 188.199 186.232C187.575 184.737 186.953 183.242 186.265 181.591H186.263Z" fill="white"/>
<path d="M143.58 185.181C143.58 181.824 143.584 178.468 143.574 175.111C143.574 174.754 143.674 174.495 143.931 174.242C145.331 172.864 146.722 171.473 148.098 170.073C148.369 169.798 148.646 169.693 149.027 169.693C153.201 169.705 157.374 169.705 161.547 169.693C161.907 169.693 162.165 169.794 162.414 170.057C163.811 171.531 165.219 172.996 166.636 174.451C166.873 174.693 166.961 174.938 166.951 175.271C166.885 177.28 166.824 179.288 166.796 181.297C166.79 181.722 166.646 181.808 166.255 181.796C163.849 181.724 161.443 181.656 159.037 181.628C158.441 181.62 158.297 181.407 158.327 180.847C158.375 179.944 158.333 179.037 158.343 178.13C158.347 177.832 158.259 177.595 158.09 177.34C157.739 176.81 157.32 176.588 156.662 176.636C155.739 176.702 154.808 176.652 153.881 176.652C152.633 176.652 151.977 177.318 151.977 178.584C151.977 183.135 151.977 187.683 151.977 192.234C151.977 192.946 152.631 193.681 153.333 193.721C154.523 193.787 155.715 193.833 156.906 193.875C157.514 193.897 158.329 193.121 158.337 192.513C158.349 191.586 158.357 190.657 158.333 189.73C158.323 189.341 158.423 189.188 158.845 189.192C161.319 189.21 163.791 189.208 166.265 189.192C166.668 189.19 166.792 189.304 166.788 189.714C166.768 191.658 166.774 193.6 166.784 195.545C166.784 195.833 166.698 196.042 166.495 196.243C165.037 197.689 163.584 199.14 162.141 200.601C161.917 200.827 161.684 200.892 161.379 200.892C157.183 200.884 152.988 200.884 148.792 200.892C148.463 200.892 148.217 200.819 147.98 200.569C146.553 199.062 145.115 197.563 143.666 196.078C143.405 195.811 143.359 195.526 143.359 195.181C143.367 191.847 143.363 188.512 143.363 185.177C143.435 185.177 143.509 185.177 143.582 185.177L143.58 185.181Z" fill="white"/>
<path d="M246.003 184.819C246.003 182.323 245.985 179.827 246.017 177.331C246.023 176.763 245.847 176.599 245.305 176.645C244.801 176.689 244.29 176.641 243.782 176.659C243.457 176.671 243.302 176.591 243.304 176.224C243.318 174.191 243.32 172.159 243.304 170.126C243.3 169.614 243.625 169.701 243.924 169.701C246.354 169.701 248.784 169.701 251.214 169.701C252.827 169.701 254.438 169.715 256.051 169.693C256.485 169.687 256.677 169.759 256.657 170.259C256.577 172.223 256.529 174.187 256.497 176.153C256.491 176.573 256.332 176.661 255.947 176.663C254.625 176.675 254.625 176.689 254.625 178.024C254.625 183.788 254.619 189.555 254.635 195.319C254.635 195.779 254.498 196.098 254.173 196.415C252.783 197.773 251.412 199.151 250.05 200.536C249.797 200.793 249.542 200.895 249.183 200.893C245.694 200.881 242.205 200.883 238.714 200.893C238.36 200.893 238.096 200.813 237.839 200.552C236.368 199.057 234.881 197.574 233.389 196.1C233.152 195.865 233.047 195.628 233.049 195.291C233.063 193.17 233.067 191.049 233.049 188.929C233.045 188.499 233.162 188.365 233.601 188.369C236.097 188.389 238.593 188.389 241.089 188.369C241.543 188.365 241.701 188.477 241.687 188.951C241.653 190.054 241.675 191.16 241.677 192.263C241.677 192.913 242.337 193.652 242.987 193.726C243.294 193.762 243.603 193.78 243.91 193.816C245.339 193.989 246.007 193.403 246.007 191.974C246.007 189.589 246.007 187.203 246.007 184.817L246.003 184.819Z" fill="white"/>
<path d="M144.386 165.977C143.522 165.379 142.789 164.892 142.079 164.374C141.822 164.188 141.646 164.183 141.387 164.374C140.676 164.894 139.942 165.379 139.073 165.977C139.376 164.99 139.607 164.139 139.906 163.313C140.067 162.867 140.012 162.6 139.609 162.322C138.909 161.838 138.251 161.288 137.408 160.638C138.479 160.638 139.348 160.62 140.215 160.646C140.586 160.658 140.763 160.532 140.885 160.181C141.194 159.29 141.545 158.413 141.931 157.39C142.242 158.367 142.546 159.199 142.763 160.054C142.888 160.542 143.122 160.668 143.592 160.648C144.4 160.612 145.211 160.638 146.086 160.773C145.404 161.298 144.734 161.844 144.031 162.34C143.67 162.594 143.576 162.837 143.706 163.273C143.959 164.111 144.138 164.972 144.386 165.981V165.977Z" fill="white"/>
<path d="M258.1 157.39C258.425 158.419 258.712 159.266 258.953 160.125C259.059 160.51 259.232 160.658 259.641 160.642C260.494 160.61 261.348 160.632 262.412 160.632C261.561 161.292 260.875 161.854 260.155 162.372C259.832 162.604 259.757 162.819 259.89 163.2C260.191 164.067 260.439 164.952 260.752 165.967C259.926 165.397 259.206 164.934 258.523 164.416C258.2 164.172 257.968 164.198 257.651 164.406C256.956 164.864 256.236 165.283 255.439 165.771C255.688 164.753 255.889 163.83 256.148 162.924C256.244 162.582 256.166 162.404 255.899 162.209C255.177 161.677 254.472 161.124 253.595 160.45C254.619 160.45 255.443 160.423 256.268 160.46C256.709 160.48 256.934 160.355 257.085 159.92C257.36 159.121 257.711 158.347 258.1 157.388V157.39Z" fill="white"/>
<path d="M169.312 154.49C168.466 154.151 167.817 153.509 167.085 152.997C166.708 152.734 166.447 152.676 166.06 152.981C165.426 153.479 164.736 153.904 163.911 154.468C164.216 153.473 164.425 152.642 164.728 151.847C164.924 151.334 164.796 151.057 164.366 150.762C163.704 150.306 163.086 149.785 162.284 149.165C163.313 149.165 164.14 149.143 164.964 149.173C165.378 149.189 165.598 149.062 165.743 148.659C166.036 147.839 166.383 147.04 166.768 146.087C167.079 147.08 167.372 147.931 167.605 148.796C167.725 149.241 167.936 149.377 168.391 149.355C169.222 149.315 170.057 149.343 171.084 149.343C170.259 149.983 169.589 150.535 168.883 151.037C168.516 151.298 168.437 151.54 168.574 151.974C168.835 152.811 169.198 153.619 169.304 154.502L169.316 154.492L169.312 154.49Z" fill="white"/>
<path d="M262.476 154.492C261.697 154.117 261.081 153.511 260.413 152.983C260.036 152.686 259.809 152.714 259.464 153.003C258.792 153.563 258.078 154.073 257.285 154.677C257.54 153.637 257.745 152.716 257.997 151.807C258.084 151.494 258.015 151.334 257.767 151.149C257.024 150.6 256.302 150.024 255.421 149.341C256.386 149.341 257.187 149.293 257.979 149.358C258.581 149.406 258.83 149.173 258.999 148.631C259.243 147.837 259.572 147.066 259.94 146.083C260.255 147.088 260.538 147.907 260.76 148.744C260.883 149.203 261.083 149.384 261.577 149.358C262.404 149.311 263.234 149.346 264.264 149.346C263.425 149.992 262.755 150.545 262.044 151.043C261.669 151.306 261.621 151.553 261.749 151.98C262 152.817 262.38 153.621 262.46 154.504L262.47 154.492H262.476Z" fill="white"/>
<path d="M218.701 144.415C218.99 143.484 219.179 142.692 219.484 141.947C219.743 141.315 219.594 140.956 219.038 140.599C218.4 140.19 217.827 139.684 217.078 139.106C218.093 139.106 218.924 139.072 219.749 139.118C220.214 139.144 220.413 138.966 220.559 138.557C220.848 137.752 221.185 136.965 221.561 136.026C221.884 136.983 222.181 137.79 222.423 138.613C222.538 139 222.718 139.13 223.118 139.114C223.964 139.084 224.813 139.104 225.85 139.104C225.022 139.742 224.364 140.28 223.671 140.772C223.312 141.026 223.208 141.263 223.366 141.701C223.671 142.539 223.906 143.402 224.219 144.411C223.374 143.827 222.658 143.354 221.97 142.848C221.675 142.632 221.454 142.634 221.151 142.838C220.393 143.354 219.612 143.833 218.701 144.415Z" fill="white"/>
<path d="M142.406 154.495C141.631 154.109 141.009 153.508 140.343 152.978C139.97 152.681 139.743 152.707 139.388 152.978C138.744 153.471 138.056 153.909 137.219 154.483C137.516 153.534 137.711 152.735 138.016 151.983C138.263 151.373 138.1 151.026 137.584 150.682C136.962 150.269 136.391 149.78 135.807 149.168C136.533 149.168 137.261 149.119 137.982 149.182C138.638 149.24 138.983 149.037 139.175 148.389C139.396 147.655 139.733 146.956 140.08 146.096C140.395 147.087 140.692 147.938 140.929 148.804C141.041 149.214 141.21 149.376 141.649 149.356C142.486 149.32 143.325 149.346 144.252 149.469C143.8 149.816 143.385 150.231 142.889 150.498C141.866 151.05 141.617 151.766 142.067 152.847C142.277 153.353 142.476 153.917 142.398 154.507L142.408 154.495H142.406Z" fill="white"/>
<path d="M174.571 232.712C174.888 231.745 175.127 230.922 175.434 230.123C175.585 229.732 175.488 229.532 175.173 229.303C174.465 228.787 173.781 228.237 172.918 227.571C173.945 227.571 174.772 227.541 175.595 227.583C176.078 227.607 176.301 227.433 176.457 226.989C176.73 226.203 177.067 225.438 177.437 224.521C177.758 225.467 178.05 226.259 178.287 227.066C178.4 227.451 178.572 227.595 178.979 227.581C179.83 227.551 180.683 227.571 181.588 227.706C180.9 228.237 180.225 228.785 179.519 229.291C179.18 229.534 179.08 229.75 179.24 230.16C179.539 230.934 179.774 231.733 180.095 232.696C179.266 232.126 178.574 231.672 177.91 231.181C177.581 230.938 177.33 230.91 176.977 231.159C176.239 231.679 175.462 232.144 174.571 232.716V232.712Z" fill="white"/>
<path d="M182.77 155.508C181.903 154.91 181.199 154.456 180.532 153.951C180.205 153.702 179.981 153.738 179.674 153.965C179.001 154.46 178.301 154.92 177.442 155.512C177.713 154.645 177.95 153.955 178.147 153.252C178.496 152.004 178.648 152.406 177.641 151.601C177.091 151.162 176.532 150.74 175.998 150.166C176.841 150.166 177.683 150.144 178.524 150.176C178.947 150.193 179.148 150.064 179.26 149.639C179.493 148.768 179.79 147.915 180.103 146.918C180.414 147.893 180.709 148.734 180.944 149.591C181.062 150.022 181.235 150.203 181.708 150.178C182.537 150.134 183.368 150.166 184.254 150.299C183.606 150.804 182.974 151.334 182.3 151.804C181.877 152.099 181.736 152.376 181.933 152.891C182.238 153.688 182.457 154.516 182.768 155.512L182.77 155.508Z" fill="white"/>
<path d="M224.087 150.285C223.396 150.818 222.72 151.372 222.012 151.88C221.673 152.125 221.577 152.347 221.725 152.759C222.028 153.603 222.267 154.474 222.58 155.493C221.775 154.94 221.081 154.492 220.425 153.997C220.076 153.734 219.823 153.69 219.452 153.979C218.794 154.492 218.083 154.94 217.263 155.505C217.554 154.57 217.766 153.77 218.059 152.997C218.27 152.44 218.22 152.082 217.678 151.739C217.004 151.31 216.4 150.774 215.822 150.158C216.697 150.158 217.572 150.146 218.444 150.164C218.79 150.172 218.948 150.058 219.044 149.713C219.287 148.844 219.58 147.989 219.917 146.924C220.216 147.851 220.505 148.593 220.688 149.362C220.834 149.98 221.105 150.23 221.763 150.172C222.508 150.106 223.264 150.156 224.014 150.156C224.038 150.196 224.063 150.238 224.087 150.279V150.285Z" fill="white"/>
<path d="M209.249 155.505C208.4 154.919 207.682 154.447 206.994 153.938C206.697 153.719 206.496 153.703 206.191 153.934C205.525 154.435 204.821 154.887 204.002 155.288C204.239 154.507 204.429 153.711 204.726 152.954C204.943 152.401 204.837 152.08 204.349 151.755C203.677 151.305 203.059 150.779 202.258 150.163C203.256 150.163 204.058 150.131 204.859 150.176C205.382 150.206 205.647 150.067 205.778 149.521C205.976 148.691 206.277 147.886 206.584 146.915C206.913 147.954 207.206 148.835 207.463 149.728C207.559 150.067 207.724 150.182 208.071 150.172C208.944 150.151 209.817 150.165 210.74 150.292C210.106 150.783 209.494 151.309 208.827 151.755C208.346 152.076 208.215 152.389 208.432 152.944C208.733 153.721 208.946 154.532 209.253 155.509L209.249 155.505Z" fill="white"/>
<path d="M193.65 157.369C193.965 158.376 194.25 159.229 194.493 160.094C194.606 160.493 194.78 160.664 195.222 160.644C196.072 160.606 196.925 160.632 197.988 160.632C197.142 161.282 196.468 161.831 195.757 162.329C195.384 162.59 195.312 162.845 195.46 163.268C195.751 164.093 195.99 164.937 196.309 165.965C195.51 165.415 194.852 165 194.238 164.526C193.833 164.213 193.532 164.157 193.101 164.508C192.489 165.008 191.807 165.421 190.994 165.981C191.299 165.004 191.524 164.177 191.817 163.374C191.993 162.889 191.949 162.586 191.488 162.279C190.797 161.819 190.163 161.276 189.541 160.634C190.322 160.634 191.106 160.585 191.881 160.65C192.493 160.7 192.734 160.457 192.874 159.903C193.079 159.103 193.356 158.32 193.648 157.371L193.65 157.369Z" fill="white"/>
<path d="M223.625 160.633C222.774 161.293 222.1 161.845 221.394 162.353C221.059 162.594 220.953 162.806 221.105 163.224C221.412 164.068 221.649 164.939 221.968 165.969C221.129 165.393 220.407 164.921 219.717 164.41C219.418 164.187 219.217 164.179 218.914 164.408C218.234 164.919 217.515 165.381 216.657 165.971C216.968 164.959 217.198 164.115 217.495 163.292C217.658 162.838 217.554 162.574 217.172 162.305C216.478 161.813 215.816 161.275 214.985 160.635C216.031 160.635 216.879 160.609 217.726 160.645C218.156 160.663 218.354 160.523 218.469 160.112C218.709 159.245 218.996 158.392 219.311 157.379C219.636 158.402 219.935 159.263 220.174 160.14C220.284 160.539 220.475 160.655 220.87 160.643C221.719 160.617 222.57 160.635 223.629 160.635L223.625 160.633Z" fill="white"/>
<path d="M189.345 150.161C190.091 150.161 190.842 150.121 191.584 150.174C192.206 150.218 192.533 150.049 192.676 149.393C192.848 148.604 193.151 147.846 193.448 146.915C193.765 147.918 194.064 148.753 194.287 149.608C194.407 150.069 194.63 150.19 195.075 150.172C195.89 150.137 196.706 150.161 197.646 150.161C197.212 150.681 196.706 150.972 196.259 151.325C195.099 152.238 195.095 152.232 195.535 153.647C195.709 154.21 195.88 154.776 196.099 155.497C195.3 154.947 194.602 154.507 193.956 154.002C193.57 153.701 193.296 153.733 192.928 154.014C192.302 154.491 191.638 154.919 190.858 155.278C191.09 154.53 191.291 153.769 191.568 153.039C191.787 152.463 191.728 152.08 191.173 151.722C190.511 151.297 189.913 150.771 189.287 150.288C189.307 150.246 189.325 150.204 189.345 150.161Z" fill="white"/>
<path d="M202.297 160.634C203.153 160.634 204.01 160.616 204.867 160.642C205.248 160.654 205.407 160.512 205.509 160.155C205.76 159.274 206.055 158.405 206.38 157.378C206.691 158.377 206.976 159.23 207.218 160.093C207.331 160.49 207.503 160.664 207.947 160.644C208.798 160.604 209.65 160.632 210.714 160.632C209.867 161.282 209.195 161.832 208.483 162.33C208.107 162.591 208.037 162.846 208.186 163.269C208.474 164.09 208.709 164.928 208.848 165.843C208.218 165.408 207.566 164.996 206.962 164.525C206.554 164.206 206.251 164.164 205.824 164.509C205.208 165.004 204.528 165.422 203.729 165.972C204.01 165.051 204.191 164.252 204.496 163.506C204.755 162.876 204.616 162.518 204.06 162.159C203.418 161.746 202.838 161.234 202.232 160.765C202.254 160.721 202.275 160.677 202.297 160.632V160.634Z" fill="white"/>
<path d="M163.502 160.452C164.531 160.452 165.349 160.424 166.162 160.462C166.61 160.482 166.826 160.359 166.951 159.908C167.173 159.103 167.474 158.321 167.789 157.386C168.102 158.375 168.399 159.236 168.638 160.109C168.752 160.528 168.955 160.658 169.38 160.64C170.217 160.606 171.056 160.63 172.123 160.63C171.461 161.14 170.939 161.539 170.42 161.94C169.767 162.443 169.565 163.096 169.814 163.899C170.008 164.525 170.199 165.153 170.444 165.957C169.587 165.369 168.863 164.896 168.167 164.384C167.89 164.182 167.691 164.182 167.408 164.364C166.71 164.82 165.992 165.241 165.133 165.769C165.454 164.729 165.699 163.845 166.006 162.982C166.146 162.592 166.052 162.392 165.737 162.165C165.028 161.653 164.348 161.104 163.5 160.448L163.502 160.452Z" fill="white"/>
<path d="M160.237 139.104C161.048 139.104 161.861 139.076 162.669 139.116C163.121 139.138 163.341 139.002 163.466 138.559C163.693 137.758 163.981 136.976 164.301 136.022C164.632 137.072 164.929 137.951 165.183 138.842C165.28 139.179 165.438 139.299 165.785 139.289C166.658 139.267 167.531 139.281 168.454 139.411C167.748 139.957 167.053 140.519 166.333 141.043C166.034 141.259 165.956 141.446 166.084 141.809C166.389 142.68 166.638 143.569 166.961 144.616C166.144 144.054 165.442 143.597 164.772 143.093C164.441 142.844 164.192 142.818 163.841 143.059C163.189 143.503 162.499 143.892 161.72 144.369C161.869 143.496 162.117 142.774 162.392 142.072C162.655 141.402 162.593 140.95 161.929 140.551C161.311 140.18 160.771 139.68 160.195 139.237C160.209 139.193 160.223 139.149 160.237 139.102V139.104Z" fill="white"/>
<path d="M238.206 144.44C237.6 144.163 237.062 143.766 236.567 143.343C235.959 142.825 235.467 142.817 234.849 143.311C234.362 143.702 233.784 143.981 233.077 144.414C233.388 143.395 233.611 142.55 233.908 141.731C234.075 141.274 233.978 141.021 233.587 140.75C232.907 140.277 232.271 139.743 231.45 139.107C232.429 139.107 233.212 139.075 233.99 139.119C234.512 139.149 234.783 139.013 234.921 138.469C235.118 137.69 235.421 136.94 235.726 136.037C236.053 137.07 236.354 137.937 236.597 138.822C236.701 139.199 236.878 139.306 237.247 139.296C238.102 139.272 238.958 139.288 239.885 139.41C239.203 139.938 238.539 140.491 237.833 140.985C237.462 141.244 237.375 141.477 237.53 141.912C237.817 142.719 238.025 143.553 238.266 144.378C238.244 144.4 238.224 144.422 238.202 144.444L238.206 144.44Z" fill="white"/>
<path d="M175.942 144.3C175.994 143.387 176.397 142.57 176.654 141.713C176.78 141.29 176.742 141.039 176.365 140.776C175.679 140.299 175.035 139.763 174.383 139.105C175.151 139.105 175.922 139.061 176.684 139.119C177.28 139.163 177.541 138.958 177.685 138.383C177.868 137.65 178.159 136.944 178.466 136.041C178.797 137.086 179.09 137.929 179.322 138.788C179.431 139.187 179.621 139.306 180.017 139.293C180.865 139.265 181.716 139.285 182.772 139.285C181.951 139.924 181.307 140.477 180.609 140.951C180.175 141.244 180.125 141.529 180.294 141.992C180.591 142.813 180.821 143.658 181.122 144.625C180.282 144.043 179.553 143.555 178.845 143.04C178.574 142.841 178.371 142.835 178.08 143.013C177.372 143.451 176.7 143.952 175.932 144.29L175.94 144.302L175.942 144.3Z" fill="white"/>
<path d="M188.717 236.004C187.864 236.662 187.164 237.218 186.444 237.75C186.149 237.966 186.078 238.173 186.213 238.53C186.506 239.311 186.742 240.111 186.909 241.004C186.255 240.553 185.579 240.133 184.957 239.64C184.549 239.317 184.267 239.349 183.875 239.658C183.185 240.202 182.451 240.687 181.614 241.135C181.871 240.36 182.104 239.576 182.397 238.815C182.563 238.386 182.463 238.139 182.102 237.882C181.409 237.389 180.749 236.851 180.117 236.195C180.968 236.195 181.819 236.175 182.667 236.203C183.065 236.217 183.251 236.08 183.38 235.703C183.675 234.834 184.022 233.984 184.415 232.944C184.674 233.709 184.876 234.301 185.073 234.893C185.319 235.632 185.843 236.002 186.644 236.002C187.274 236.002 187.904 236.002 188.717 236.002V236.004Z" fill="white"/>
<path d="M147.426 143.611C147.502 142.702 147.893 141.879 148.148 141.022C148.265 140.629 148.192 140.423 147.879 140.194C147.169 139.676 146.481 139.13 145.622 138.468C146.653 138.468 147.498 138.448 148.341 138.476C148.758 138.49 148.965 138.384 149.079 137.947C149.306 137.08 149.607 136.235 149.93 135.216C150.229 136.153 150.54 136.927 150.714 137.732C150.853 138.37 151.164 138.518 151.762 138.478C152.522 138.426 153.291 138.466 154.24 138.466C153.487 139.052 152.901 139.584 152.243 139.995C151.657 140.362 151.583 140.754 151.818 141.36C152.095 142.072 152.288 142.816 152.394 143.665C151.832 143.276 151.238 142.925 150.718 142.485C150.181 142.032 149.753 141.988 149.186 142.459C148.65 142.905 148.082 143.33 147.438 143.627L147.424 143.609L147.426 143.611Z" fill="white"/>
<path d="M167.806 223.257C168.123 222.292 168.362 221.472 168.669 220.677C168.821 220.284 168.715 220.085 168.404 219.86C167.693 219.343 167.007 218.793 166.148 218.129C167.134 218.129 167.936 218.089 168.731 218.143C169.297 218.181 169.549 217.974 169.72 217.453C169.965 216.704 170.298 215.986 170.661 215.083C170.984 216.028 171.283 216.807 171.508 217.609C171.628 218.039 171.835 218.153 172.254 218.137C173.089 218.107 173.923 218.127 174.963 218.127C174.146 218.765 173.488 219.325 172.782 219.814C172.38 220.093 172.318 220.356 172.463 220.803C172.702 221.55 172.866 222.318 173.105 223.245C172.324 222.706 171.67 222.298 171.066 221.825C170.639 221.49 170.312 221.46 169.87 221.815C169.26 222.304 168.586 222.716 167.804 223.255L167.806 223.257Z" fill="white"/>
<path d="M254.406 138.468C253.569 139.115 252.909 139.67 252.201 140.156C251.792 140.435 251.762 140.712 251.912 141.137C252.197 141.942 252.43 142.764 252.578 143.675C251.884 143.198 251.18 142.736 250.503 142.239C250.207 142.02 249.998 142.008 249.693 142.235C249.007 142.748 248.284 143.218 247.44 143.8C247.759 142.762 248.007 141.861 248.316 140.983C248.445 140.617 248.361 140.431 248.066 140.218C247.343 139.694 246.647 139.137 245.78 138.468C246.866 138.468 247.741 138.452 248.613 138.476C248.961 138.486 249.119 138.37 249.215 138.037C249.474 137.136 249.767 136.245 250.09 135.21C250.395 136.163 250.7 136.968 250.899 137.798C251.035 138.366 251.31 138.511 251.854 138.48C252.64 138.434 253.431 138.468 254.406 138.468Z" fill="white"/>
<path d="M152.352 165.642C152.394 164.729 152.795 163.912 153.056 163.059C153.19 162.62 153.112 162.381 152.751 162.122C152.057 161.627 151.397 161.087 150.57 160.451C151.611 160.451 152.478 160.433 153.345 160.459C153.722 160.471 153.887 160.339 153.995 159.984C154.238 159.175 154.527 158.38 154.928 157.588C155.187 158.419 155.47 159.241 155.697 160.08C155.817 160.521 156.032 160.666 156.487 160.644C157.314 160.604 158.142 160.632 159.025 160.758C158.339 161.288 157.669 161.844 156.957 162.337C156.571 162.604 156.529 162.857 156.678 163.274C156.969 164.097 157.197 164.94 157.508 165.957C156.676 165.323 155.979 164.831 155.331 164.279C154.972 163.974 154.729 163.992 154.364 164.265C153.716 164.753 153.018 165.174 152.342 165.626L152.35 165.638L152.352 165.642Z" fill="white"/>
<path d="M182.491 222.163C182.733 221.409 182.952 220.646 183.225 219.902C183.369 219.511 183.327 219.276 182.966 219.023C182.252 218.524 181.578 217.968 180.733 217.318C181.724 217.318 182.533 217.274 183.333 217.334C183.883 217.374 184.112 217.163 184.278 216.676C184.539 215.913 184.868 215.173 185.235 214.256C185.57 215.247 185.867 216.06 186.116 216.888C186.219 217.225 186.377 217.338 186.722 217.328C187.597 217.306 188.472 217.32 189.531 217.32C188.741 217.934 188.115 218.473 187.432 218.931C186.963 219.246 186.881 219.565 187.055 220.085C187.292 220.783 187.442 221.511 187.681 222.422C186.808 221.822 186.092 221.357 185.406 220.849C185.125 220.64 184.932 220.658 184.658 220.853C183.977 221.337 183.271 221.784 182.577 222.246C182.551 222.215 182.521 222.189 182.491 222.163Z" fill="white"/>
<path d="M234.699 165.631C234.013 165.158 233.316 164.696 232.644 164.201C232.345 163.98 232.125 163.99 231.828 164.211C231.137 164.723 230.419 165.194 229.584 165.772C229.895 164.757 230.138 163.862 230.449 162.989C230.59 162.596 230.493 162.389 230.18 162.162C229.474 161.649 228.79 161.101 227.945 160.451C228.978 160.451 229.827 160.431 230.674 160.459C231.067 160.473 231.262 160.358 231.376 159.961C231.607 159.159 231.9 158.372 232.237 157.379C232.506 158.175 232.704 158.812 232.931 159.434C233.381 160.663 233.011 160.421 234.306 160.447C234.986 160.461 235.666 160.449 236.529 160.449C235.714 161.081 235.044 161.635 234.336 162.134C233.958 162.401 233.908 162.658 234.057 163.077C234.342 163.882 234.566 164.708 234.817 165.527L234.699 165.629V165.631Z" fill="white"/>
<path d="M247.827 165.968C247.1 165.413 246.462 165.007 245.927 164.492C245.365 163.952 244.927 163.99 244.364 164.47C243.848 164.909 243.254 165.254 242.568 165.577C242.823 164.757 243.047 163.928 243.342 163.121C243.513 162.658 243.459 162.379 243.027 162.088C242.337 161.625 241.701 161.083 240.876 160.447C241.886 160.447 242.71 160.411 243.529 160.461C244.027 160.491 244.215 160.294 244.342 159.849C244.566 159.068 244.851 158.306 245.164 157.381C245.481 158.382 245.782 159.233 246.013 160.102C246.127 160.531 246.332 160.651 246.753 160.637C247.586 160.607 248.419 160.629 249.324 160.762C248.66 161.273 248.015 161.813 247.325 162.283C246.91 162.566 246.808 162.834 246.982 163.312C247.283 164.133 247.516 164.977 247.825 165.966L247.827 165.968Z" fill="white"/>
<path d="M178.135 165.565C178.39 164.73 178.62 163.888 178.909 163.065C179.058 162.644 178.998 162.393 178.62 162.128C177.926 161.645 177.274 161.099 176.65 160.451C177.501 160.451 178.352 160.431 179.2 160.461C179.578 160.475 179.748 160.346 179.854 159.991C180.099 159.179 180.388 158.378 180.723 157.381C181.042 158.334 181.325 159.084 181.54 159.855C181.668 160.312 181.873 160.493 182.367 160.465C183.179 160.419 183.998 160.453 185.021 160.453C184.218 161.071 183.572 161.606 182.884 162.084C182.473 162.369 182.369 162.644 182.549 163.125C182.848 163.926 183.069 164.755 183.38 165.758C182.543 165.184 181.839 164.726 181.163 164.229C180.846 163.996 180.613 163.982 180.29 164.227C179.63 164.726 178.933 165.178 178.251 165.649C178.213 165.621 178.175 165.595 178.135 165.567V165.565Z" fill="white"/>
<path d="M204.698 145.098C204.718 144.205 205.119 143.408 205.38 142.582C205.535 142.088 205.432 141.825 205.029 141.542C204.349 141.067 203.705 140.537 202.894 139.913C203.942 139.913 204.81 139.895 205.679 139.921C206.05 139.931 206.225 139.819 206.333 139.452C206.572 138.641 206.865 137.847 207.2 136.859C207.531 137.845 207.82 138.643 208.065 139.454C208.173 139.813 208.344 139.935 208.719 139.923C209.588 139.893 210.461 139.913 211.506 139.913C210.651 140.571 209.951 141.131 209.229 141.659C208.932 141.876 208.872 142.09 208.978 142.443C209.241 143.322 209.636 144.165 209.72 145.096L209.728 145.084C208.972 144.715 208.33 144.173 207.646 143.697C207.323 143.473 207.102 143.447 206.771 143.687C206.097 144.181 205.386 144.62 204.69 145.084L204.698 145.098Z" fill="white"/>
<path d="M238.798 133.533C237.979 132.967 237.279 132.518 236.623 132.016C236.258 131.737 236.001 131.763 235.648 132.032C235.004 132.524 234.317 132.959 233.479 133.533C233.8 132.498 234.049 131.639 234.338 130.796C234.472 130.405 234.412 130.162 234.059 129.913C233.362 129.422 232.702 128.88 231.854 128.224C232.897 128.224 233.74 128.202 234.582 128.234C234.988 128.248 235.166 128.103 235.275 127.72C235.517 126.855 235.802 126.003 236.129 124.947C236.46 125.989 236.765 126.835 236.992 127.704C237.106 128.142 237.317 128.248 237.732 128.234C238.561 128.206 239.392 128.226 240.417 128.226C239.635 128.834 239.029 129.367 238.356 129.803C237.847 130.134 237.789 130.469 237.989 131.003C238.28 131.777 238.495 132.582 238.792 133.537L238.798 133.533Z" fill="white"/>
<path d="M159.828 128.222C160.655 128.222 161.481 128.196 162.306 128.232C162.743 128.252 162.928 128.089 163.042 127.686C163.283 126.827 163.568 125.979 163.891 124.945C164.228 126.009 164.525 126.874 164.77 127.752C164.872 128.12 165.043 128.242 165.416 128.232C166.271 128.208 167.125 128.224 168.175 128.224C167.346 128.866 166.67 129.412 165.97 129.921C165.633 130.166 165.546 130.393 165.695 130.804C166 131.647 166.232 132.514 166.547 133.535C165.731 132.971 165.033 132.524 164.379 132.02C164.013 131.739 163.757 131.767 163.403 132.034C162.759 132.522 162.075 132.957 161.25 133.523C161.511 132.658 161.718 131.97 161.927 131.282C162.308 130.02 162.404 130.417 161.377 129.59C160.855 129.169 160.313 128.77 159.782 128.362L159.828 128.226V128.222Z" fill="white"/>
<path d="M168.422 208.02C167.723 208.558 167.031 209.105 166.323 209.627C166.032 209.842 165.956 210.044 166.068 210.408C166.309 211.18 166.487 211.973 166.576 212.865C165.922 212.414 165.249 211.985 164.619 211.501C164.244 211.212 163.967 211.202 163.584 211.499C162.942 211.999 162.252 212.436 161.445 212.994C161.73 212.121 161.913 211.363 162.226 210.66C162.492 210.062 162.316 209.753 161.826 209.422C161.188 208.991 160.598 208.491 159.808 207.881C160.785 207.881 161.582 207.843 162.372 207.895C162.9 207.93 163.165 207.761 163.335 207.257C163.6 206.473 163.941 205.712 164.3 204.812C164.621 205.759 164.926 206.551 165.153 207.366C165.273 207.801 165.49 207.903 165.903 207.891C166.732 207.863 167.565 207.883 168.395 207.883C168.404 207.93 168.414 207.976 168.422 208.02Z" fill="white"/>
<path d="M192.832 136.855C193.139 137.76 193.44 138.539 193.661 139.341C193.791 139.815 194.024 139.947 194.491 139.923C195.3 139.885 196.113 139.913 197.126 139.913C196.283 140.569 195.597 141.129 194.881 141.647C194.564 141.876 194.477 142.076 194.614 142.459C194.915 143.304 195.158 144.169 195.491 145.234C194.688 144.683 194.022 144.281 193.426 143.794C192.979 143.429 192.65 143.483 192.226 143.81C191.62 144.277 190.97 144.689 190.18 145.234C190.507 144.167 190.759 143.27 191.064 142.389C191.181 142.052 191.107 141.876 190.836 141.677C190.111 141.145 189.407 140.587 188.528 139.913C189.56 139.913 190.404 139.889 191.245 139.923C191.662 139.939 191.869 139.825 191.987 139.402C192.218 138.583 192.519 137.782 192.832 136.855Z" fill="white"/>
<path d="M249.27 154.685C248.399 154.017 247.672 153.477 246.968 152.914C246.701 152.699 246.507 152.689 246.224 152.9C245.536 153.407 244.819 153.879 243.946 154.479C244.269 153.439 244.518 152.579 244.809 151.732C244.946 151.335 244.869 151.096 244.522 150.851C243.828 150.359 243.17 149.818 242.325 149.166C243.308 149.166 244.091 149.131 244.867 149.178C245.391 149.208 245.66 149.067 245.798 148.526C245.997 147.745 246.302 146.993 246.605 146.096C246.93 147.123 247.227 147.996 247.476 148.881C247.578 149.246 247.745 149.368 248.122 149.356C248.979 149.328 249.837 149.348 250.772 149.465C250.126 149.964 249.506 150.504 248.826 150.949C248.32 151.278 248.262 151.615 248.459 152.145C248.75 152.926 248.969 153.732 249.268 154.687L249.27 154.685Z" fill="white"/>
<path d="M155.923 154.494C155.331 154.191 154.856 153.727 154.33 153.332C153.425 152.654 153.431 152.646 152.47 153.306C151.965 153.653 151.459 154 150.781 154.468C151.086 153.461 151.308 152.624 151.599 151.811C151.758 151.368 151.712 151.099 151.304 150.82C150.62 150.351 149.98 149.815 149.348 149.167C150.167 149.167 150.989 149.135 151.806 149.179C152.272 149.203 152.47 149.032 152.595 148.605C152.827 147.81 153.11 147.032 153.423 146.091C153.752 147.128 154.051 147.993 154.294 148.87C154.396 149.237 154.555 149.365 154.932 149.353C155.791 149.327 156.652 149.345 157.589 149.345C157.276 149.841 156.796 150.066 156.405 150.375C155.065 151.428 155.071 151.418 155.574 153.065C155.719 153.537 156.008 153.98 155.913 154.51L155.923 154.496V154.494Z" fill="white"/>
<path d="M197.475 274.526C197.71 273.792 197.912 273.048 198.189 272.329C198.36 271.886 198.297 271.621 197.898 271.342C197.2 270.857 196.546 270.311 195.723 269.677C196.686 269.677 197.473 269.625 198.247 269.693C198.865 269.747 199.094 269.5 199.232 268.946C199.435 268.144 199.712 267.361 200.009 266.404C200.32 267.321 200.607 268.078 200.83 268.854C200.958 269.304 201.147 269.498 201.646 269.47C202.473 269.422 203.304 269.458 204.343 269.458C203.5 270.106 202.826 270.656 202.116 271.154C201.74 271.416 201.678 271.675 201.837 272.093C202.122 272.847 202.35 273.622 202.665 274.579C201.853 274.081 201.187 273.716 200.567 273.282C200.155 272.995 199.864 273.026 199.467 273.325C198.855 273.784 198.247 274.264 197.551 274.607C197.527 274.581 197.501 274.555 197.473 274.528L197.475 274.526Z" fill="white"/>
<path d="M225.086 232.583C224.396 232.107 223.691 231.65 223.019 231.15C222.694 230.907 222.463 230.934 222.146 231.164C221.472 231.658 220.762 232.103 220.068 232.569L220.076 232.579C220.13 231.71 220.533 230.942 220.79 230.133C220.91 229.75 220.858 229.533 220.535 229.3C219.823 228.787 219.139 228.237 218.268 227.567C219.303 227.567 220.144 227.535 220.981 227.579C221.45 227.603 221.643 227.426 221.767 227.001C221.992 226.226 222.269 225.464 222.586 224.507C222.893 225.422 223.186 226.144 223.37 226.893C223.511 227.464 223.806 227.607 224.349 227.577C225.13 227.535 225.914 227.567 226.747 227.693C226.059 228.225 225.383 228.775 224.676 229.282C224.337 229.525 224.231 229.746 224.402 230.157C224.644 230.745 224.813 231.365 225.008 231.973C225.072 232.173 225.224 232.366 225.08 232.593L225.088 232.581L225.086 232.583Z" fill="white"/>
<path d="M210.122 230.714C209.428 230.246 208.719 229.799 208.045 229.305C207.72 229.068 207.491 229.08 207.17 229.315C206.496 229.807 205.786 230.248 205.09 230.71L205.098 230.722C205.158 229.879 205.531 229.123 205.796 228.34C205.944 227.899 205.86 227.668 205.495 227.409C204.815 226.929 204.169 226.4 203.529 225.726C204.253 225.726 204.983 225.667 205.7 225.742C206.412 225.814 206.721 225.553 206.879 224.875C207.04 224.183 207.323 223.52 207.61 222.676C207.939 223.651 208.232 224.447 208.474 225.258C208.583 225.623 208.763 225.742 209.133 225.732C209.983 225.71 210.834 225.724 211.733 225.87C211.047 226.402 210.375 226.954 209.67 227.459C209.347 227.692 209.289 227.895 209.407 228.284C209.654 229.094 210.088 229.853 210.116 230.726L210.124 230.714H210.122Z" fill="white"/>
<path d="M179.333 246.383C178.64 246.919 177.962 247.479 177.246 247.982C176.891 248.233 176.843 248.468 176.989 248.859C177.28 249.636 177.521 250.43 177.834 251.379C177.021 250.82 176.331 250.386 175.691 249.889C175.304 249.588 175.029 249.624 174.66 249.905C174.03 250.384 173.361 250.81 172.535 251.377C172.838 250.444 173.044 249.672 173.341 248.938C173.536 248.45 173.42 248.187 173.01 247.902C172.326 247.425 171.682 246.889 170.857 246.251C171.857 246.251 172.675 246.221 173.49 246.263C173.985 246.287 174.236 246.157 174.371 245.643C174.573 244.86 174.876 244.106 175.183 243.205C175.51 244.182 175.801 245.011 176.06 245.848C176.154 246.151 176.307 246.263 176.628 246.257C177.507 246.239 178.388 246.251 179.266 246.251C179.289 246.295 179.309 246.339 179.331 246.383H179.333Z" fill="white"/>
<path d="M202.487 221.501C201.799 221.08 201.103 220.673 200.431 220.231C200.126 220.031 199.899 220.045 199.608 220.257C198.92 220.763 198.207 221.236 197.357 221.826C197.672 220.871 197.904 220.075 198.205 219.302C198.374 218.869 198.274 218.636 197.907 218.379C197.208 217.888 196.546 217.34 195.701 216.686C196.767 216.686 197.634 216.668 198.5 216.694C198.878 216.706 199.044 216.582 199.146 216.218C199.397 215.331 199.692 214.459 200.013 213.441C200.316 214.33 200.619 215.085 200.822 215.867C200.96 216.407 201.227 216.551 201.751 216.519C202.531 216.473 203.316 216.507 204.139 216.638C203.448 217.171 202.776 217.725 202.064 218.227C201.723 218.466 201.691 218.698 201.819 219.055C202.098 219.834 202.347 220.625 202.61 221.409C202.57 221.439 202.531 221.469 202.491 221.501H202.487Z" fill="white"/>
<path d="M219.133 258.815C218.372 258.51 217.73 258.001 217.036 257.585C216.749 257.415 216.551 257.399 216.274 257.602C215.583 258.107 214.869 258.579 213.992 259.181C214.307 258.213 214.532 257.419 214.827 256.65C214.984 256.239 214.887 256.01 214.552 255.768C213.846 255.254 213.166 254.706 212.323 254.056C213.286 254.056 214.069 254.016 214.845 254.068C215.423 254.106 215.71 253.954 215.846 253.352C216.029 252.545 216.332 251.765 216.635 250.806C216.966 251.783 217.263 252.589 217.508 253.412C217.616 253.779 217.795 253.894 218.164 253.884C219.017 253.859 219.871 253.876 220.925 253.876C220.09 254.52 219.414 255.067 218.71 255.573C218.364 255.822 218.31 256.053 218.447 256.458C218.706 257.224 219.053 257.967 219.159 258.781L219.131 258.815H219.133Z" fill="white"/>
<path d="M222.337 251.275C222.365 250.469 222.732 249.756 222.991 249.02C223.172 248.504 223.124 248.187 222.648 247.868C221.964 247.411 221.334 246.873 220.525 246.251C221.434 246.251 222.13 246.263 222.829 246.249C224.075 246.225 223.723 246.462 224.159 245.268C224.382 244.658 224.576 244.036 224.919 243.422C225.182 244.2 225.473 244.973 225.7 245.761C225.814 246.161 226.015 246.271 226.406 246.259C227.257 246.233 228.11 246.251 229.175 246.251C228.33 246.905 227.662 247.465 226.95 247.958C226.563 248.227 226.516 248.474 226.677 248.891C226.966 249.646 227.195 250.426 227.51 251.381C226.825 250.912 226.298 250.539 225.758 250.18C224.612 249.419 225.062 249.451 223.976 250.166C223.424 250.529 222.879 250.9 222.329 251.267L222.337 251.277V251.275Z" fill="white"/>
<path d="M202.473 257.006C201.855 256.629 201.211 256.288 200.627 255.864C200.174 255.537 199.837 255.575 199.413 255.906C198.807 256.38 198.155 256.791 197.369 257.335C197.646 256.48 197.806 255.76 198.111 255.104C198.418 254.444 198.243 254.08 197.674 253.709C197.04 253.296 196.466 252.792 195.707 252.204C196.791 252.204 197.664 252.188 198.536 252.212C198.886 252.222 199.042 252.1 199.136 251.765C199.389 250.876 199.682 249.999 200.009 248.96C200.318 249.865 200.617 250.629 200.83 251.418C200.966 251.921 201.215 252.066 201.715 252.04C202.501 251.998 203.292 252.028 204.295 252.028C203.46 252.676 202.794 253.23 202.088 253.725C201.727 253.978 201.685 254.217 201.829 254.606C202.11 255.365 202.345 256.139 202.599 256.906C202.557 256.94 202.517 256.972 202.475 257.006H202.473Z" fill="white"/>
<path d="M186.05 258.984C185.246 258.49 184.573 258.109 183.935 257.676C183.556 257.417 183.273 257.393 182.894 257.688C182.256 258.181 181.568 258.611 180.737 259.183C181.018 258.338 181.193 257.656 181.47 257.02C181.75 256.37 181.664 255.944 181.036 255.551C180.394 255.15 179.824 254.632 179.08 254.056C180.137 254.056 181.012 254.034 181.885 254.066C182.268 254.08 182.427 253.942 182.529 253.589C182.782 252.704 183.071 251.827 183.392 250.802C183.707 251.735 184.004 252.507 184.22 253.302C184.351 253.783 184.596 253.91 185.063 253.888C185.868 253.852 186.676 253.878 187.683 253.878C186.837 254.53 186.157 255.074 185.452 255.587C185.143 255.814 185.039 256.015 185.191 256.41C185.5 257.206 185.739 258.029 186.052 258.984H186.05Z" fill="white"/>
<path d="M158.536 223.247C157.783 222.729 157.157 222.358 156.604 221.901C156.102 221.485 155.719 221.437 155.197 221.887C154.635 222.37 153.981 222.745 153.235 223.259C153.548 222.304 153.788 221.487 154.089 220.693C154.234 220.314 154.166 220.099 153.845 219.866C153.13 219.351 152.442 218.801 151.569 218.131C152.599 218.131 153.439 218.102 154.274 218.143C154.734 218.165 154.934 218.016 155.057 217.573C155.275 216.79 155.566 216.028 155.883 215.091C156.188 215.984 156.491 216.724 156.688 217.493C156.824 218.032 157.085 218.173 157.609 218.141C158.411 218.094 159.218 218.129 160.203 218.129C159.403 218.747 158.764 219.276 158.084 219.748C157.657 220.045 157.529 220.324 157.739 220.837C158.038 221.562 158.239 222.324 158.538 223.245L158.536 223.247Z" fill="white"/>
<path d="M168.612 233.755C168.947 234.756 169.228 235.563 169.481 236.377C169.579 236.696 169.726 236.833 170.081 236.821C170.962 236.793 171.845 236.813 172.934 236.813C172.134 237.427 171.488 237.962 170.799 238.438C170.366 238.737 170.26 239.026 170.464 239.532C170.759 240.254 170.96 241.014 171.255 241.925C170.39 241.331 169.67 240.864 168.983 240.354C168.701 240.143 168.514 240.156 168.239 240.356C167.535 240.872 166.806 241.353 165.954 241.941C166.271 240.976 166.508 240.158 166.814 239.363C166.965 238.972 166.867 238.769 166.554 238.542C165.841 238.025 165.155 237.475 164.296 236.813C165.318 236.813 166.162 236.781 167.003 236.825C167.471 236.849 167.659 236.684 167.782 236.249C168.002 235.466 168.289 234.704 168.61 233.753L168.612 233.755Z" fill="white"/>
<path d="M195.085 266.583C194.367 266.087 193.761 265.752 193.255 265.3C192.639 264.751 192.17 264.807 191.596 265.359C191.095 265.842 190.495 266.225 189.826 266.585C190.087 265.804 190.33 265.016 190.617 264.243C190.763 263.85 190.687 263.609 190.344 263.364C189.646 262.869 188.98 262.327 188.32 261.657C189.114 261.657 189.911 261.619 190.701 261.671C191.245 261.707 191.478 261.528 191.61 261.001C191.817 260.172 192.116 259.363 192.421 258.404C192.74 259.349 193.037 260.156 193.278 260.981C193.392 261.372 193.585 261.484 193.976 261.472C194.825 261.442 195.677 261.464 196.715 261.464C195.882 262.112 195.212 262.668 194.501 263.168C194.152 263.412 194.07 263.633 194.223 264.034C194.518 264.813 194.76 265.609 195.085 266.585V266.583Z" fill="white"/>
<path d="M241.478 223.265C241.807 222.274 242.046 221.474 242.341 220.693C242.484 220.318 242.425 220.101 242.098 219.866C241.382 219.353 240.696 218.799 239.823 218.129C240.876 218.129 241.739 218.107 242.598 218.139C243.005 218.155 243.176 218.012 243.288 217.629C243.523 216.827 243.814 216.04 244.137 215.081C244.406 215.876 244.679 216.516 244.833 217.184C245.002 217.918 245.329 218.249 246.131 218.147C246.828 218.061 247.542 218.129 248.437 218.129C247.726 218.685 247.175 219.208 246.537 219.588C245.844 220.001 245.78 220.456 246.083 221.143C246.356 221.759 246.519 222.423 246.789 223.245C245.935 222.657 245.222 222.196 244.542 221.69C244.239 221.466 244.027 221.48 243.734 221.696C243.043 222.204 242.325 222.679 241.476 223.265H241.478Z" fill="white"/>
<path d="M196.568 225.858C195.862 226.404 195.17 226.966 194.445 227.485C194.14 227.704 194.078 227.901 194.209 228.252C194.504 229.048 194.75 229.863 195.075 230.85C194.259 230.286 193.577 229.855 192.941 229.363C192.555 229.064 192.286 229.082 191.921 229.393C191.285 229.933 190.603 230.421 189.768 231.063C190.085 230.104 190.318 229.323 190.603 228.563C190.756 228.155 190.733 227.907 190.336 227.638C189.628 227.156 188.972 226.598 188.123 225.94C189.14 225.94 189.981 225.906 190.816 225.954C191.289 225.98 191.462 225.804 191.578 225.378C191.815 224.512 192.108 223.659 192.419 222.678C192.736 223.613 193.033 224.415 193.272 225.234C193.386 225.625 193.579 225.75 193.974 225.736C194.823 225.707 195.673 225.728 196.522 225.728C196.536 225.772 196.552 225.816 196.566 225.86L196.568 225.858Z" fill="white"/>
<path d="M205.087 266.366C205.204 265.531 205.565 264.771 205.822 263.978C205.938 263.619 205.87 263.414 205.577 263.199C204.859 262.672 204.158 262.116 203.314 261.462C204.295 261.462 205.105 261.418 205.906 261.476C206.462 261.516 206.681 261.307 206.815 260.8C207.014 260.059 207.288 259.339 207.597 258.414C207.892 259.263 208.197 259.931 208.346 260.635C208.498 261.352 208.858 261.532 209.536 261.474C210.258 261.414 210.988 261.46 211.917 261.46C211.117 262.076 210.467 262.61 209.779 263.089C209.375 263.372 209.249 263.637 209.445 264.124C209.746 264.873 209.963 265.655 210.266 266.568C209.419 265.986 208.687 265.507 207.983 264.991C207.704 264.787 207.523 264.807 207.234 264.991C206.52 265.449 205.916 266.081 205.091 266.368L205.085 266.364L205.087 266.366Z" fill="white"/>
<path d="M210.872 249.321C210.019 248.733 209.319 248.281 208.657 247.78C208.332 247.533 208.107 247.559 207.794 247.79C207.11 248.295 206.396 248.761 205.569 249.331C205.89 248.353 206.139 247.513 206.446 246.694C206.572 246.357 206.498 246.178 206.229 245.978C205.509 245.444 204.804 244.888 203.94 244.22C204.859 244.22 205.601 244.16 206.327 244.238C207.048 244.316 207.339 244.034 207.497 243.369C207.664 242.665 207.945 241.989 208.223 241.156C208.534 242.077 208.833 242.866 209.06 243.674C209.187 244.122 209.399 244.254 209.851 244.232C210.663 244.194 211.48 244.222 212.521 244.222C211.727 244.836 211.105 245.366 210.433 245.819C209.963 246.134 209.879 246.437 210.093 246.957C210.384 247.661 210.577 248.404 210.876 249.321H210.872Z" fill="white"/>
<path d="M213.228 240.92C213.495 240.11 213.743 239.293 214.034 238.494C214.155 238.165 214.095 237.973 213.818 237.768C213.093 237.234 212.389 236.672 211.52 236.002C212.513 236.002 213.336 235.976 214.155 236.012C214.622 236.032 214.869 235.906 214.999 235.426C215.21 234.652 215.497 233.898 215.816 232.938C216.149 233.93 216.436 234.726 216.681 235.535C216.787 235.888 216.95 236.024 217.331 236.012C218.19 235.982 219.05 236.002 220.1 236.002C219.335 236.598 218.719 237.136 218.045 237.583C217.544 237.916 217.469 238.254 217.686 238.787C217.961 239.469 218.162 240.182 218.26 240.968C217.612 240.521 216.948 240.093 216.32 239.618C215.973 239.355 215.716 239.311 215.345 239.598C214.705 240.095 214.016 240.531 213.346 240.992C213.306 240.968 213.264 240.944 213.224 240.92H213.228Z" fill="white"/>
<path d="M217.269 222.243C216.568 221.91 215.956 221.436 215.355 220.967C214.915 220.623 214.62 220.674 214.217 220.989C213.613 221.458 212.963 221.869 212.21 222.223C212.467 221.438 212.712 220.652 212.989 219.873C213.117 219.514 213.087 219.279 212.746 219.04C212.028 218.535 211.344 217.975 210.493 217.319C211.518 217.319 212.381 217.299 213.242 217.329C213.637 217.343 213.83 217.221 213.942 216.833C214.183 216.015 214.472 215.21 214.791 214.251C215.12 215.222 215.417 216.035 215.664 216.863C215.772 217.229 215.946 217.341 216.318 217.329C217.174 217.301 218.033 217.321 219.083 217.321C218.272 217.951 217.608 218.501 216.908 219C216.546 219.257 216.438 219.486 216.605 219.923C216.885 220.662 217.088 221.428 217.325 222.184C217.307 222.205 217.287 222.225 217.269 222.245V222.243Z" fill="white"/>
<path d="M189.269 249.082C189.511 248.305 189.722 247.515 190.011 246.754C190.162 246.357 190.055 246.157 189.748 245.932C189.044 245.414 188.362 244.87 187.519 244.22C188.572 244.22 189.443 244.206 190.314 244.228C190.655 244.236 190.824 244.134 190.926 243.795C191.179 242.954 191.476 242.126 191.805 241.148C192.116 242.081 192.407 242.886 192.65 243.703C192.77 244.108 192.971 244.252 193.4 244.232C194.227 244.194 195.057 244.222 195.94 244.351C195.286 244.854 194.648 245.378 193.976 245.852C193.577 246.132 193.444 246.391 193.647 246.885C193.946 247.607 194.146 248.372 194.277 249.196C193.611 248.737 192.928 248.295 192.28 247.81C191.949 247.563 191.713 247.543 191.359 247.794C190.697 248.263 190.071 248.791 189.333 249.148C189.313 249.126 189.291 249.104 189.271 249.082H189.269Z" fill="white"/>
<path d="M235.73 236.813C234.877 237.471 234.183 238.041 233.453 238.558C233.12 238.795 233.083 239.024 233.214 239.381C233.499 240.161 233.748 240.954 234.077 241.939C233.234 241.357 232.542 240.91 231.886 240.416C231.548 240.161 231.308 240.155 230.975 240.43C230.298 240.994 229.586 241.512 228.758 242.15C229.079 241.173 229.329 240.334 229.632 239.517C229.755 239.186 229.701 239.004 229.422 238.799C228.701 238.271 228.001 237.714 227.134 237.043C228.16 237.043 228.986 237.023 229.813 237.051C230.23 237.066 230.439 236.955 230.555 236.522C230.79 235.635 231.097 234.766 231.416 233.755C231.727 234.688 232.014 235.494 232.263 236.311C232.373 236.674 232.534 236.841 232.947 236.823C233.806 236.787 234.667 236.811 235.73 236.811V236.813Z" fill="white"/>
<path d="M195.483 212.98C194.64 212.4 193.944 211.944 193.276 211.453C192.965 211.224 192.742 211.19 192.413 211.441C191.737 211.955 191.018 212.414 190.174 212.992C190.495 212.027 190.739 211.21 191.042 210.416C191.189 210.03 191.095 209.826 190.78 209.597C190.075 209.087 189.397 208.54 188.548 207.883C189.578 207.883 190.404 207.863 191.231 207.891C191.646 207.905 191.861 207.789 191.983 207.366C192.22 206.543 192.519 205.739 192.83 204.812C193.141 205.73 193.438 206.531 193.675 207.348C193.793 207.759 193.984 207.909 194.413 207.891C195.244 207.859 196.077 207.881 197.116 207.881C196.263 208.542 195.575 209.101 194.857 209.619C194.554 209.838 194.485 210.03 194.616 210.381C194.911 211.178 195.158 211.993 195.483 212.978V212.98Z" fill="white"/>
<path d="M233.19 212.821C233.298 212.007 233.655 211.266 233.904 210.496C234.039 210.079 234.019 209.826 233.629 209.557C232.933 209.077 232.281 208.534 231.659 207.884C232.508 207.884 233.358 207.861 234.207 207.894C234.592 207.908 234.755 207.759 234.861 207.414C235.112 206.597 235.395 205.791 235.722 204.808C236.047 205.763 236.34 206.547 236.573 207.348C236.691 207.759 236.878 207.912 237.309 207.894C238.144 207.859 238.978 207.884 240.01 207.884C239.205 208.508 238.551 209.043 237.867 209.533C237.49 209.802 237.387 210.044 237.546 210.516C237.801 211.274 238.212 211.995 238.214 212.827L238.222 212.815C237.46 212.432 236.801 211.888 236.107 211.405C235.822 211.206 235.632 211.224 235.355 211.405C234.632 211.876 234.002 212.496 233.178 212.809L233.19 212.819V212.821Z" fill="white"/>
<path d="M195.932 235.196C196.783 235.196 197.633 235.176 198.484 235.204C198.855 235.216 199.034 235.1 199.142 234.74C199.395 233.908 199.69 233.087 200.011 232.126C200.308 232.999 200.613 233.731 200.799 234.494C200.946 235.094 201.243 235.246 201.819 235.208C202.565 235.158 203.316 235.196 204.146 235.316C203.606 235.732 203.069 236.147 202.529 236.56C201.95 237.003 201.773 237.565 201.999 238.246C202.198 238.848 202.393 239.452 202.483 240.166C201.851 239.73 201.195 239.325 200.595 238.852C200.181 238.527 199.874 238.498 199.449 238.838C198.831 239.331 198.155 239.751 197.354 240.306C197.665 239.365 197.9 238.563 198.199 237.786C198.364 237.359 198.275 237.118 197.904 236.859C197.218 236.38 196.572 235.846 195.908 235.334C195.914 235.288 195.922 235.242 195.928 235.196H195.932Z" fill="white"/>
<path d="M181.146 212.863C180.466 212.394 179.776 211.94 179.114 211.447C178.799 211.212 178.574 211.194 178.247 211.441C177.565 211.957 176.843 212.42 176.01 212.994C176.277 212.191 176.449 211.509 176.73 210.873C177.033 210.183 176.953 209.725 176.267 209.316C175.653 208.951 175.119 208.449 174.387 207.883C175.424 207.883 176.271 207.861 177.115 207.893C177.517 207.907 177.697 207.777 177.812 207.39C178.055 206.567 178.349 205.761 178.67 204.812C178.981 205.739 179.272 206.539 179.513 207.356C179.634 207.761 179.83 207.912 180.26 207.893C181.088 207.859 181.917 207.883 182.798 208.012C182.128 208.529 181.476 209.069 180.781 209.553C180.41 209.812 180.32 210.05 180.486 210.48C180.777 211.232 181.004 212.009 181.257 212.775C181.221 212.805 181.185 212.833 181.146 212.863Z" fill="white"/>
<path d="M244.171 207.884C245.008 207.884 245.847 207.864 246.683 207.892C247.075 207.906 247.271 207.792 247.388 207.399C247.628 206.576 247.925 205.769 248.246 204.816C248.557 205.739 248.846 206.536 249.089 207.347C249.207 207.746 249.392 207.912 249.827 207.894C250.656 207.858 251.489 207.884 252.378 208.009C251.85 208.416 251.322 208.827 250.792 209.233C250.195 209.69 250.012 210.268 250.245 210.966C250.431 211.53 250.614 212.096 250.796 212.662C250.809 212.698 250.784 212.744 250.762 212.886C250.215 212.509 249.699 212.156 249.185 211.801C248.565 211.371 247.953 211.366 247.351 211.785C246.844 212.136 246.334 212.485 245.824 212.832C245.788 212.856 245.742 212.864 245.618 212.912C245.897 212.074 246.123 211.273 246.434 210.507C246.625 210.037 246.485 209.792 246.115 209.528C245.439 209.044 244.791 208.52 244.133 208.013C244.147 207.969 244.161 207.926 244.177 207.882L244.171 207.884Z" fill="white"/>
<path d="M225.305 218.354C226.115 218.354 226.926 218.324 227.732 218.366C228.192 218.39 228.401 218.235 228.521 217.798C228.758 216.937 229.045 216.093 229.362 215.073C229.691 216.046 229.978 216.829 230.21 217.625C230.323 218.007 230.489 218.155 230.901 218.139C231.753 218.105 232.61 218.129 233.684 218.129C232.829 218.787 232.137 219.343 231.418 219.863C231.097 220.093 231.017 220.3 231.165 220.685C231.468 221.48 231.705 222.298 232.016 223.248C231.222 222.702 230.535 222.262 229.889 221.773C229.516 221.49 229.249 221.466 228.874 221.789C228.244 222.331 227.558 222.808 226.785 223.244C226.994 222.603 227.142 221.933 227.427 221.329C227.769 220.609 227.586 220.176 226.94 219.77C226.348 219.399 225.818 218.926 225.262 218.496L225.305 218.354Z" fill="white"/>
<path d="M162.251 225.326C162.583 226.323 162.863 227.132 163.116 227.949C163.223 228.292 163.387 228.442 163.772 228.428C164.621 228.398 165.472 228.418 166.363 228.549C165.711 229.054 165.081 229.592 164.398 230.057C163.967 230.352 163.915 230.633 164.099 231.099C164.382 231.809 164.587 232.551 164.723 233.39C164.053 232.931 163.371 232.489 162.721 232.004C162.386 231.753 162.145 231.735 161.8 232C161.136 232.507 160.428 232.957 159.601 233.525C159.91 232.577 160.149 231.755 160.452 230.954C160.596 230.571 160.528 230.366 160.201 230.132C159.507 229.638 158.845 229.098 158.208 228.422C158.985 228.422 159.766 228.378 160.538 228.436C161.094 228.478 161.316 228.264 161.455 227.76C161.666 226.998 161.945 226.253 162.251 225.328V225.326Z" fill="white"/>
<path d="M218.866 212.81C218.902 211.961 219.315 211.219 219.56 210.43C219.679 210.049 219.642 209.836 219.313 209.602C218.605 209.092 217.927 208.54 217.076 207.884C218.116 207.884 218.962 207.862 219.807 207.894C220.214 207.91 220.387 207.768 220.499 207.383C220.738 206.568 221.033 205.769 221.354 204.82C221.645 205.673 221.944 206.381 222.122 207.122C222.277 207.766 222.604 207.944 223.228 207.898C223.95 207.844 224.681 207.886 225.491 208.011C224.935 208.438 224.408 208.913 223.814 209.283C223.146 209.696 222.945 210.141 223.304 210.888C223.585 211.474 223.728 212.126 223.822 212.858C223.17 212.409 222.5 211.983 221.874 211.498C221.49 211.201 221.219 211.229 220.838 211.506C220.2 211.969 219.584 212.471 218.868 212.82L218.862 212.812L218.866 212.81Z" fill="white"/>
<path d="M204.698 212.825C204.704 212.105 205.011 211.453 205.278 210.821C205.579 210.107 205.428 209.707 204.794 209.316C204.196 208.947 203.669 208.467 203.125 207.881C203.897 207.881 204.672 207.843 205.44 207.893C206.002 207.93 206.269 207.747 206.412 207.195C206.602 206.457 206.883 205.741 207.192 204.812C207.505 205.734 207.788 206.463 207.991 207.213C208.129 207.723 208.348 207.936 208.904 207.895C209.684 207.839 210.473 207.881 211.307 208.012C210.621 208.546 209.951 209.097 209.245 209.603C208.914 209.84 208.859 210.06 208.998 210.434C209.281 211.192 209.512 211.969 209.656 212.839C209 212.392 208.326 211.967 207.696 211.487C207.339 211.216 207.09 211.206 206.715 211.473C206.056 211.942 205.438 212.482 204.686 212.811L204.696 212.823L204.698 212.825Z" fill="white"/>
<path d="M149.29 212.81C149.326 211.961 149.741 211.219 149.986 210.43C150.105 210.049 150.066 209.837 149.739 209.602C149.031 209.092 148.353 208.54 147.502 207.882C148.542 207.882 149.388 207.86 150.233 207.892C150.64 207.908 150.813 207.766 150.925 207.381C151.164 206.566 151.459 205.767 151.78 204.818C152.071 205.671 152.372 206.381 152.548 207.12C152.703 207.764 153.03 207.942 153.654 207.896C154.376 207.842 155.107 207.884 155.917 208.009C155.361 208.436 154.834 208.912 154.24 209.281C153.572 209.694 153.371 210.139 153.73 210.886C154.011 211.472 154.154 212.124 154.248 212.856C153.596 212.407 152.924 211.981 152.3 211.496C151.916 211.199 151.646 211.227 151.264 211.504C150.626 211.967 150.01 212.469 149.294 212.818L149.288 212.81H149.29Z" fill="white"/>
<path d="M237.779 225.346C238.09 226.273 238.38 227.077 238.623 227.894C238.744 228.301 238.948 228.446 239.374 228.428C240.198 228.394 241.027 228.418 242.056 228.418C241.256 229.042 240.644 229.573 239.976 230.017C239.494 230.338 239.438 230.647 239.649 231.16C239.935 231.861 240.13 232.601 240.425 233.512C239.715 233.02 239.133 232.693 238.643 232.262C238.045 231.734 237.558 231.71 236.948 232.248C236.438 232.695 235.834 233.034 235.128 233.52C235.413 232.647 235.591 231.891 235.907 231.193C236.175 230.595 235.999 230.286 235.511 229.955C234.883 229.527 234.301 229.034 233.748 228.418C234.572 228.418 235.399 228.396 236.224 228.428C236.627 228.444 236.805 228.307 236.92 227.92C237.163 227.097 237.46 226.291 237.779 225.344V225.346Z" fill="white"/>
<path d="M235.72 154.51C235.096 153.99 234.456 153.489 233.854 152.945C233.567 152.686 233.36 152.696 233.061 152.915C232.389 153.409 231.693 153.87 230.9 154.416C231.049 153.459 231.364 152.672 231.627 151.878C231.787 151.392 231.769 151.087 231.304 150.778C230.63 150.331 230.014 149.799 229.394 149.161C230.212 149.161 231.033 149.129 231.849 149.173C232.325 149.199 232.506 149.025 232.606 148.583C232.782 147.797 233.015 147.024 233.268 146.081C233.591 147.112 233.878 147.985 234.133 148.87C234.233 149.217 234.386 149.364 234.773 149.35C235.648 149.315 236.524 149.34 237.594 149.34C236.731 150.004 236.025 150.58 235.283 151.107C234.969 151.33 234.931 151.533 235.048 151.874C235.337 152.722 235.589 153.583 235.856 154.44C235.812 154.462 235.77 154.484 235.726 154.506L235.72 154.51Z" fill="white"/>
<path d="M175.934 144.289C175.924 144.303 175.916 144.317 175.904 144.329C175.898 144.333 175.884 144.329 175.874 144.329C175.896 144.319 175.92 144.311 175.942 144.303L175.934 144.291V144.289Z" fill="white"/>
<path d="M205.087 230.709C205.077 230.725 205.069 230.745 205.055 230.757C205.049 230.763 205.033 230.757 205.021 230.757C205.047 230.745 205.071 230.733 205.097 230.723L205.089 230.711L205.087 230.709Z" fill="white"/>
<path d="M210.114 230.725C210.14 230.733 210.166 230.739 210.192 230.747C210.182 230.749 210.168 230.757 210.162 230.753C210.148 230.743 210.136 230.727 210.122 230.713L210.114 230.725Z" fill="white"/>
<path d="M217.325 222.184C217.385 222.228 217.417 222.276 217.343 222.336C217.317 222.306 217.293 222.274 217.267 222.244C217.285 222.224 217.305 222.204 217.323 222.184H217.325Z" fill="white"/>
<path d="M220.069 232.571L220.019 232.613C220.037 232.603 220.057 232.591 220.075 232.581L220.067 232.571H220.069Z" fill="white"/>
<path d="M225.08 232.597C225.108 232.593 225.136 232.591 225.164 232.587C225.156 232.593 225.146 232.603 225.14 232.603C225.122 232.599 225.104 232.591 225.088 232.585L225.08 232.599V232.597Z" fill="white"/>
<path d="M147.44 143.629C147.416 143.657 147.39 143.686 147.366 143.716C147.358 143.698 147.338 143.663 147.342 143.661C147.368 143.641 147.398 143.629 147.426 143.613L147.438 143.631L147.44 143.629Z" fill="white"/>
<path d="M182.575 222.246C182.539 222.268 182.503 222.288 182.467 222.311C182.475 222.262 182.483 222.214 182.491 222.164C182.521 222.19 182.549 222.216 182.575 222.246Z" fill="white"/>
<path d="M238.27 144.371C238.326 144.419 238.357 144.469 238.282 144.524C238.28 144.526 238.232 144.467 238.206 144.437C238.228 144.415 238.248 144.393 238.27 144.371Z" fill="white"/>
<path d="M204.69 145.084C204.664 145.106 204.64 145.13 204.614 145.152C204.614 145.134 204.614 145.116 204.612 145.098C204.64 145.098 204.67 145.098 204.698 145.098L204.69 145.084Z" fill="white"/>
<path d="M238.214 212.827C238.25 212.775 238.284 212.775 238.308 212.833C238.314 212.85 238.302 212.874 238.3 212.894C238.274 212.868 238.248 212.842 238.222 212.813L238.214 212.825V212.827Z" fill="white"/>
<path d="M233.178 212.81C233.164 212.83 233.15 212.852 233.136 212.872C233.136 212.86 233.136 212.844 233.142 212.838C233.156 212.828 233.174 212.826 233.19 212.82L233.178 212.81Z" fill="white"/>
<path d="M218.872 212.817C218.846 212.845 218.82 212.873 218.796 212.9C218.79 212.879 218.774 212.859 218.776 212.841C218.786 212.779 218.82 212.771 218.866 212.809L218.872 212.817Z" fill="white"/>
<path d="M204.688 212.814L204.624 212.902C204.618 212.882 204.61 212.864 204.604 212.844C204.636 212.838 204.666 212.83 204.698 212.824L204.688 212.812V212.814Z" fill="white"/>
<path d="M149.296 212.818C149.27 212.846 149.244 212.874 149.22 212.9C149.214 212.88 149.198 212.86 149.2 212.842C149.21 212.782 149.244 212.772 149.29 212.81L149.296 212.818Z" fill="white"/>
<path d="M189.331 249.148C189.305 249.178 189.278 249.208 189.254 249.24C189.184 249.18 189.212 249.13 189.27 249.084C189.291 249.106 189.313 249.128 189.333 249.15L189.331 249.148Z" fill="white"/>
<path d="M262.466 154.504C262.488 154.52 262.512 154.536 262.534 154.552C262.52 154.552 262.5 154.552 262.496 154.546C262.486 154.53 262.484 154.51 262.478 154.492L262.468 154.504H262.466Z" fill="white"/>
<path d="M209.718 145.094C209.74 145.106 209.764 145.118 209.787 145.13C209.777 145.13 209.76 145.134 209.754 145.13C209.742 145.118 209.736 145.1 209.726 145.084L209.716 145.096L209.718 145.094Z" fill="white"/>
<path d="M222.327 251.265C222.311 251.275 222.295 251.285 222.279 251.295C222.297 251.287 222.315 251.281 222.335 251.275L222.327 251.265Z" fill="white"/>
<path d="M142.398 154.506C142.428 154.512 142.46 154.518 142.49 154.524C142.484 154.542 142.478 154.562 142.472 154.58C142.45 154.552 142.43 154.522 142.408 154.494L142.398 154.506Z" fill="white"/>
<path d="M152.344 165.63C152.332 165.646 152.322 165.662 152.306 165.674C152.3 165.678 152.284 165.67 152.274 165.668C152.3 165.66 152.326 165.65 152.352 165.642L152.344 165.63Z" fill="white"/>
<path d="M219.161 258.781C219.185 258.805 219.213 258.829 219.231 258.857C219.235 258.864 219.211 258.888 219.199 258.906C219.177 258.876 219.155 258.845 219.133 258.815L219.161 258.781Z" fill="white"/>
<path d="M155.913 154.508C155.949 154.456 155.984 154.456 156.01 154.512C156.016 154.528 156.004 154.553 156.002 154.575C155.976 154.548 155.949 154.52 155.925 154.494L155.915 154.508H155.913Z" fill="white"/>
<path d="M205.092 266.369C205.08 266.399 205.068 266.427 205.055 266.458C205.039 266.448 205.023 266.437 205.007 266.427C205.033 266.407 205.061 266.385 205.088 266.365L205.094 266.369H205.092Z" fill="white"/>
<path d="M169.3 154.5C169.316 154.504 169.336 154.506 169.35 154.516C169.356 154.52 169.354 154.54 169.356 154.552C169.342 154.532 169.328 154.51 169.312 154.49L169.3 154.5Z" fill="white"/>
<path d="M197.553 274.603C197.517 274.625 197.481 274.645 197.445 274.667C197.455 274.619 197.465 274.573 197.475 274.524C197.501 274.548 197.527 274.575 197.551 274.603H197.553Z" fill="white"/>
</svg>
