<svg width="400" height="400" viewBox="0 0 400 400" fill="none" xmlns="http://www.w3.org/2000/svg">
<path fill-rule="evenodd" clip-rule="evenodd" d="M151.567 152.5L104 200L151.567 247.5C177.728 273.625 199.382 295 199.686 295C199.988 295 221.784 273.626 248.118 247.502L296 200.002L248.129 152.502C221.8 126.376 200.005 105 199.696 105C199.387 105 177.728 126.375 151.567 152.5ZM245.705 155.07L290.857 200.006L245.691 244.935C220.85 269.646 200.212 289.865 199.83 289.865C199.447 289.865 178.886 269.645 154.139 244.932L109.143 200L154.139 155.067C178.886 130.355 199.453 110.135 199.843 110.135C200.234 110.135 220.871 130.356 245.705 155.07ZM168.71 157.576L137.424 188.75L168.518 220.102L199.612 251.455L216.264 235.356L232.917 219.257L223.328 209.628C215.361 201.628 213.304 200 211.169 200C208.729 200 209.092 200.495 218.236 209.651L227.875 219.303L213.626 232.916L199.378 246.528L170.807 217.488L142.236 188.446L171.116 160.084L199.997 131.723L228.856 160.298C253.089 184.293 258.104 188.874 260.139 188.874C262.27 188.874 258.807 185.124 231.284 157.635C214.081 140.454 200.001 126.4 200.001 126.4C200.001 126.4 185.918 140.431 168.71 157.576ZM162.796 236.588C183.133 256.71 199.902 273.176 200.059 273.176C200.216 273.176 216.888 256.71 237.109 236.588C269.336 204.515 273.574 200 271.45 200C269.407 200 263.598 205.366 234.512 234.126L199.997 268.254L165.282 234.155C136.654 206.036 130.15 200.052 128.193 200.028C126.153 200.004 131.01 205.136 162.796 236.588Z" fill="white"/>
</svg>
