<svg width="400" height="400" viewBox="0 0 400 400" fill="none" xmlns="http://www.w3.org/2000/svg">
<path fill-rule="evenodd" clip-rule="evenodd" d="M235.937 136.179C231.79 136.707 229.007 138.137 226.436 141.062C223.574 144.317 222.181 149.136 222.46 154.811C222.532 156.273 222.726 158.043 222.891 158.745C223.057 159.447 223.273 160.392 223.371 160.845C223.649 162.13 225.074 164.799 226.263 166.259C229.115 169.762 232.432 171.253 237.802 171.449C243.746 171.665 247.578 170.124 250.795 166.225C253.452 163.003 254.8 158.018 254.516 152.462C254.447 151.112 254.255 149.433 254.09 148.731C253.924 148.029 253.74 147.189 253.679 146.865C253.46 145.687 251.823 142.563 250.714 141.205C248.305 138.256 245.288 136.716 240.852 136.171C238.977 135.941 237.793 135.943 235.937 136.179ZM102.291 136.349C101.423 136.43 100.524 136.598 100.291 136.722C100.059 136.847 99.6556 136.948 99.3953 136.948C99.1351 136.948 98.0265 137.412 96.9311 137.979C92.6381 140.202 90.0305 143.811 88.7501 149.302C88.2738 151.346 88.2738 156.916 88.7501 158.959C89.2358 161.041 89.5179 161.852 90.3551 163.567C91.3796 165.667 94.1242 168.553 96.0934 169.602C100.116 171.743 104.96 172.086 109.134 170.524C110.245 170.109 112.649 168.378 113.191 167.602C113.35 167.375 113.589 167.189 113.722 167.189C114.012 167.189 114.372 168.389 114.374 169.359C114.376 170.441 114.581 170.528 117.164 170.528H119.481V161.614C119.481 153.667 119.447 152.687 119.17 152.581C119 152.515 115.924 152.462 112.336 152.462C107.524 152.462 105.751 152.523 105.577 152.697C105.419 152.856 105.341 153.744 105.341 155.407C105.341 157.07 105.419 157.959 105.577 158.117C105.743 158.283 106.851 158.353 109.308 158.353H112.804V158.848C112.804 159.575 111.791 161.686 111.019 162.565C109.5 164.297 107.33 165.226 104.803 165.226C102.799 165.226 101.566 164.86 99.8307 163.75C97.032 161.959 95.719 158.888 95.719 154.131C95.719 147.977 98.1261 143.878 102.524 142.543C105.135 141.751 108.453 142.521 110.343 144.357C111.138 145.13 112.018 146.593 112.018 147.142C112.018 147.252 112.189 147.434 112.398 147.546C112.868 147.797 118.683 147.813 119.077 147.564C119.685 147.179 118.665 143.908 117.334 141.976C115.885 139.871 113.832 138.324 110.938 137.156C109.207 136.457 105.17 136.081 102.291 136.349ZM126.289 137.079C126.217 137.151 126.158 144.707 126.158 153.869V170.528H129.595C133.026 170.528 133.032 170.527 133.037 170.086C133.04 169.843 133.038 167.079 133.032 163.945C133.024 159.529 133.079 158.166 133.279 157.892C133.518 157.566 133.872 157.545 137.851 157.617C142.557 157.702 143.282 157.832 144.21 158.761C145.059 159.609 145.217 160.362 145.42 164.538C145.52 166.59 145.714 168.755 145.851 169.349L146.1 170.429L150.072 170.483L154.045 170.536V170.028C154.045 169.748 153.836 169.238 153.581 168.894C152.893 167.968 152.843 167.655 152.671 163.164C152.481 158.219 152.31 157.574 150.783 156.047C150.215 155.479 149.611 155.014 149.442 155.014C148.903 155.014 149.112 154.419 149.773 154.072C151.147 153.353 152.403 151.657 153.272 149.347C153.601 148.476 153.592 144.928 153.26 143.92C152.73 142.314 151.952 141.022 150.861 139.94C149.121 138.214 147.65 137.563 144.555 137.152C142.882 136.93 126.503 136.865 126.289 137.079ZM159.482 137.075C159.253 137.304 159.323 160.363 159.556 161.529C160.134 164.415 160.451 165.219 161.696 166.967C164.022 170.231 169.219 171.942 174.977 171.339C179.958 170.817 183.257 168.879 184.972 165.465C186.251 162.919 186.438 160.634 186.443 147.444C186.447 139.904 186.39 137.361 186.212 137.184C185.964 136.935 179.906 136.834 179.296 137.068C179.018 137.174 178.986 138.363 178.986 148.478C178.986 161.559 178.961 161.806 177.485 163.447C176.327 164.735 174.998 165.229 172.733 165.215C169.447 165.194 167.674 163.85 166.944 160.827C166.835 160.375 166.698 154.988 166.633 148.534L166.515 137.047L163.066 136.993C161.17 136.964 159.557 137 159.482 137.075ZM193.16 137.201C192.983 137.415 192.939 141.437 192.977 153.956L193.027 170.429L196.513 170.483L199.998 170.537L200.006 170.09C200.01 169.845 200.014 167.335 200.015 164.514C200.017 160.8 200.083 159.294 200.256 159.057C200.464 158.773 201.097 158.72 205.14 158.648C211.464 158.535 213.266 158.107 215.637 156.154C217.638 154.505 218.452 152.427 218.604 148.58C218.72 145.631 218.434 143.916 217.516 142.067C216.403 139.827 214.018 138.102 211.067 137.404C209.134 136.946 193.519 136.769 193.16 137.201ZM240.816 142.572C243.458 143.337 245.266 145.178 246.573 148.436C247.254 150.134 247.562 154.956 247.115 156.926C246.073 161.523 244.367 163.804 241.155 164.896C239.872 165.333 237.118 165.335 235.825 164.9C231.892 163.58 229.653 159.568 229.653 153.844C229.653 147.963 231.747 144.224 235.936 142.625C237.092 142.184 239.39 142.159 240.816 142.572ZM209.187 143.752C210.546 144.428 211.198 145.492 211.341 147.262C211.469 148.869 211.139 150.065 210.29 151.056C209.188 152.343 208.491 152.521 204.189 152.616C200.543 152.696 200.42 152.686 200.21 152.293C199.891 151.698 199.956 144.047 200.284 143.527C200.52 143.153 200.716 143.136 204.34 143.185C208.008 143.233 208.187 143.254 209.187 143.752ZM143.878 143.602C144.781 143.989 145.7 144.918 146.027 145.774C146.132 146.05 146.227 146.824 146.238 147.494C146.27 149.559 145.479 150.732 143.604 151.393C142.989 151.61 141.685 151.676 138.036 151.676C133.871 151.676 133.255 151.637 133.151 151.365C133.085 151.195 133.032 149.435 133.032 147.454C133.032 145.474 133.085 143.714 133.151 143.543C133.255 143.271 133.881 143.232 138.142 143.232C142.479 143.232 143.11 143.273 143.878 143.602ZM350.526 154.855C350.47 154.997 350.406 179.236 350.379 208.721L350.33 262.33L296.718 262.428L243.105 262.527V263.214V263.901L296.79 263.95L350.475 264L351.238 263.213L352 262.427L351.952 208.574L351.901 154.72L351.263 154.658C350.866 154.62 350.584 154.695 350.526 154.855ZM247.185 177.45C246.514 178.178 243.209 183.535 243.32 183.714C243.376 183.806 244.501 183.881 245.819 183.881H248.215L251.509 180.582C253.322 178.768 254.742 177.222 254.666 177.146C254.59 177.07 252.967 177.008 251.06 177.008C247.715 177.008 247.578 177.023 247.185 177.45ZM244.381 186.545C243.247 186.691 242.116 186.901 241.868 187.014C241.62 187.127 241.257 187.219 241.061 187.219C240.516 187.219 238.115 188.534 237.017 189.435C234.731 191.309 232.98 193.825 232.136 196.448C231.189 199.389 231.125 199.891 231.146 204.205C231.164 207.965 231.21 208.493 231.665 210.194C233.216 215.988 236.927 219.968 242.004 221.284C243.93 221.783 246.963 221.983 249.19 221.758C253.359 221.336 255.79 220.245 258.342 217.649C260.473 215.481 261.726 213.168 262.538 209.9C263.029 207.924 263.074 207.421 263.071 204.008C263.069 200.594 263.023 200.102 262.536 198.216C262.229 197.027 261.605 195.357 261.063 194.274C260.291 192.729 259.81 192.076 258.361 190.605C255.714 187.918 253.9 187.094 249.389 186.533C246.706 186.2 247.086 186.199 244.381 186.545ZM209.229 187.044C205.381 188.065 203.149 189.411 201.132 191.927C200.093 193.223 198.707 195.8 198.384 197.037C197.566 200.174 197.446 201.137 197.446 204.563C197.446 207.821 197.506 208.319 198.274 211.372C199.114 214.712 201.829 218.25 204.863 219.959C208.193 221.835 213.55 222.386 217.471 221.257C222.126 219.916 225.874 215.74 226.929 210.718C227.131 209.753 227.125 209.545 226.889 209.396C226.735 209.298 225.175 209.217 223.422 209.215C220.331 209.212 220.227 209.226 219.949 209.654C219.792 209.897 219.601 210.35 219.525 210.66C219.448 210.971 219.18 211.589 218.928 212.035C217.609 214.37 215.624 215.496 212.829 215.496C209.162 215.496 206.218 212.88 205.192 208.708C204.684 206.641 204.606 203.545 205.007 201.294C205.203 200.195 205.437 199.212 205.528 199.109C205.619 199.007 205.694 198.779 205.694 198.604C205.694 198.032 206.843 196.147 207.801 195.149C209.175 193.717 210.313 193.226 212.454 193.139C214.288 193.065 215.255 193.248 216.628 193.929C217.784 194.502 218.334 195.145 219.292 197.046L220.128 198.706L223.172 198.763C224.846 198.794 226.405 198.772 226.636 198.715C227.254 198.563 227.334 198.125 226.988 196.774C226.172 193.586 223.995 190.604 221.307 188.994C220.442 188.476 219.382 187.941 218.95 187.805C218.518 187.668 217.943 187.483 217.673 187.393C216.07 186.857 210.761 186.637 209.229 187.044ZM48.6845 187.363C48.4685 187.417 48.2267 187.561 48.1474 187.684C48.068 187.806 48.0019 195.252 48.0001 204.23C47.9977 217.765 48.0429 220.592 48.2646 220.776C48.4584 220.936 51.9488 220.983 60.9805 220.947L73.4289 220.896V217.852V214.809L64.4934 214.711C59.5789 214.656 55.4476 214.541 55.3124 214.453C55.1308 214.336 55.067 213.358 55.067 210.689C55.067 208.707 55.1206 206.945 55.1862 206.774C55.292 206.498 56.1736 206.463 63.1005 206.463C68.9015 206.463 70.9558 206.403 71.1312 206.227C71.3792 205.98 71.4778 201.286 71.2477 200.686C71.1418 200.41 70.2602 200.376 63.3334 200.376C57.5324 200.376 55.478 200.315 55.3026 200.14C54.9672 199.805 54.9758 194.29 55.3124 193.835C55.5352 193.535 56.3478 193.5 64.1006 193.454L72.6433 193.404L72.698 190.584C72.7351 188.671 72.6799 187.676 72.5267 187.491C72.3384 187.264 70.3684 187.223 60.689 187.242C54.3025 187.254 48.9005 187.309 48.6845 187.363ZM79.2224 187.355C79.0602 187.421 78.8663 187.569 78.7911 187.684C78.541 188.07 78.5966 220.42 78.8482 220.722C79.0358 220.948 81.0271 220.994 90.6415 220.994H102.209L102.353 220.553C102.432 220.31 102.452 218.918 102.397 217.46L102.297 214.809L94.2457 214.711L86.1938 214.613L86.0957 201.128C86.0416 193.712 85.9241 187.571 85.8342 187.481C85.6453 187.291 79.662 187.178 79.2224 187.355ZM119.814 187.361C119.618 187.409 119.375 187.668 119.274 187.936C119.009 188.631 119.026 220.119 119.292 220.615C119.48 220.966 119.732 220.994 122.689 220.994C124.911 220.994 125.955 220.923 126.119 220.759C126.292 220.585 126.355 218.878 126.355 214.3C126.355 208.806 126.391 208.062 126.665 207.957C127.291 207.717 133.9 207.834 135.212 208.109C136.847 208.451 137.368 208.794 137.914 209.888C138.297 210.654 138.376 211.273 138.562 214.945C138.713 217.911 138.869 219.386 139.1 220.013L139.426 220.896L143.126 220.95C145.722 220.987 146.908 220.935 147.101 220.775C147.426 220.505 147.286 219.894 146.769 219.325C146.082 218.57 145.947 217.765 145.796 213.532C145.632 208.926 145.481 208.193 144.417 206.849C144.087 206.433 143.49 205.896 143.089 205.655C142.688 205.414 142.336 205.2 142.306 205.181C142.108 205.048 142.585 204.494 143.07 204.294C144.046 203.889 145.514 202.056 146.077 200.538C147.404 196.958 146.713 193.141 144.258 190.501C142.365 188.465 140.629 187.75 136.775 187.421C134.461 187.223 120.569 187.174 119.814 187.361ZM152.193 187.393C152.048 187.628 152.041 220.575 152.186 220.81C152.362 221.094 158.627 221.047 158.915 220.759C159.094 220.579 159.151 216.606 159.151 204.074C159.151 188.013 159.142 187.621 158.771 187.422C158.306 187.174 152.345 187.147 152.193 187.393ZM165.582 187.431C165.259 187.619 165.239 188.627 165.239 204.194C165.239 219.115 165.269 220.768 165.549 220.875C165.72 220.941 167.167 220.994 168.765 220.994C171.007 220.994 171.723 220.932 171.898 220.721C172.063 220.522 172.119 217.541 172.105 209.628C172.095 203.678 172.145 198.714 172.217 198.597C172.289 198.482 172.943 199.431 173.671 200.707C174.4 201.983 175.452 203.813 176.009 204.773C176.566 205.734 177.022 206.549 177.022 206.586C177.022 206.622 177.331 207.135 177.709 207.726C178.087 208.317 178.396 208.838 178.396 208.883C178.396 208.929 179.156 210.281 180.085 211.887C181.013 213.494 181.973 215.162 182.217 215.594C183.83 218.448 184.965 220.355 185.229 220.655C185.504 220.967 185.888 220.998 188.986 220.95L192.438 220.896L192.488 204.324C192.525 192.244 192.478 187.68 192.317 187.486C191.97 187.068 186.394 187.105 185.971 187.527C185.698 187.801 185.662 189.076 185.662 198.59C185.662 204.504 185.602 209.404 185.528 209.477C185.454 209.551 185.162 209.147 184.878 208.578C184.594 208.009 183.153 205.441 181.675 202.871C180.197 200.302 178.714 197.706 178.378 197.103C178.043 196.5 177.521 195.587 177.218 195.074C176.915 194.561 176.402 193.666 176.077 193.085C173.658 188.764 172.857 187.504 172.451 187.386C171.729 187.175 165.957 187.213 165.582 187.431ZM268.487 187.431C268.164 187.619 268.144 188.627 268.144 204.194C268.144 219.115 268.175 220.768 268.455 220.875C269.059 221.107 274.337 221.007 274.585 220.759C274.763 220.581 274.821 217.826 274.821 209.566C274.821 200.811 274.872 198.608 275.072 198.608C275.209 198.608 276.859 201.281 278.737 204.549C280.615 207.816 283.515 212.853 285.181 215.742L288.211 220.994H291.59C293.957 220.994 295.041 220.924 295.206 220.759C295.547 220.417 295.547 187.796 295.206 187.455C295.044 187.293 294.068 187.219 292.087 187.219C289.646 187.219 289.164 187.269 288.935 187.544C288.715 187.809 288.66 189.811 288.634 198.486C288.613 205.492 288.534 209.125 288.402 209.169C288.292 209.206 287.726 208.413 287.144 207.408C286.147 205.687 283.188 200.512 282.336 199.001C278.955 193.004 276.049 188.012 275.736 187.661C275.357 187.236 275.218 187.219 272.087 187.225C270.243 187.228 268.682 187.318 268.487 187.431ZM248.996 192.788C251.047 193.337 252.715 194.536 253.952 196.35C255.376 198.439 256.16 202.565 255.778 205.966C255.385 209.471 254.59 211.44 252.821 213.284C249.74 216.497 244.045 216.352 241.042 212.984C239.388 211.129 238.628 209.134 238.314 205.825C237.892 201.375 238.978 197.369 241.231 195.067C243.334 192.917 246.265 192.058 248.996 192.788ZM136.82 193.814C137.77 194.137 138.786 195.101 139.156 196.028C139.269 196.313 139.362 197.197 139.362 197.991C139.361 199.263 139.293 199.534 138.796 200.25C138.438 200.765 137.876 201.233 137.262 201.527C136.356 201.96 135.998 201.998 131.843 202.095C129.396 202.153 127.16 202.141 126.874 202.069L126.355 201.939V197.852C126.355 195.604 126.413 193.706 126.485 193.634C126.557 193.562 128.707 193.503 131.262 193.503C134.985 193.503 136.088 193.564 136.82 193.814Z" fill="white"/>
</svg>
