<svg width="400" height="400" viewBox="0 0 400 400" fill="none" xmlns="http://www.w3.org/2000/svg">
<mask id="mask0_557_5840" style="mask-type:luminance" maskUnits="userSpaceOnUse" x="67" y="142" width="266" height="116">
<path d="M332.992 142.143H67.0088V257.857H332.992V142.143Z" fill="white"/>
</mask>
<g mask="url(#mask0_557_5840)">
<path d="M165.117 162.311H153.29V160.297C153.29 160.134 153.285 159.972 153.269 159.782C153.169 150.053 145.133 142.143 135.336 142.143H118.587C108.515 142.143 100.326 150.284 100.326 160.297V160.791H94.8382C88.8959 160.791 84.0637 165.301 84.0637 170.841V181.905H80.6959C73.1463 181.905 67.0029 188.013 67.0029 195.519V209.211C67.0029 214.751 71.8351 219.261 77.7776 219.261H123.636V217.158H77.7829C73.0088 217.158 69.123 213.595 69.123 209.211V195.519C69.123 189.169 74.32 184.008 80.7012 184.008H86.1838V170.841C86.1838 166.457 90.0696 162.894 94.8435 162.894H102.446V160.297C102.446 151.446 109.689 144.245 118.592 144.245H135.341C143.991 144.245 151.085 151.241 151.159 159.835V159.898C151.17 160.045 151.181 160.171 151.181 160.297V164.413H165.122C170.721 164.413 175.278 168.944 175.278 174.51V207.025C175.278 212.606 170.71 217.153 165.09 217.153H129.98V219.256H165.085C171.868 219.256 177.388 213.768 177.388 207.025V174.51C177.388 167.782 171.884 162.311 165.117 162.311Z" fill="white"/>
<path d="M144.637 228.953C144.785 229.016 144.838 229.142 144.795 229.336L144.314 231.77C144.293 231.986 144.166 232.049 143.928 231.959C143.606 231.854 143.252 231.802 142.866 231.802C142.585 231.802 142.384 231.812 142.252 231.833C141.417 231.896 140.719 232.275 140.159 232.969C139.598 233.662 139.323 234.488 139.323 235.449V244.695C139.323 244.91 139.218 245.016 139.001 245.016H136.553C136.336 245.016 136.23 244.91 136.23 244.695V229.053C136.23 228.837 136.336 228.732 136.553 228.732H139.001C139.212 228.732 139.323 228.837 139.323 229.053V231.103C139.323 231.166 139.339 231.202 139.371 231.213C139.403 231.223 139.429 231.213 139.45 231.166C140.222 229.436 141.401 228.574 142.992 228.574C143.637 228.574 144.182 228.701 144.631 228.958L144.637 228.953Z" fill="white"/>
<path d="M157.975 242.088C158.477 241.736 158.858 241.252 159.117 240.632C159.18 240.443 159.307 240.364 159.503 240.406L161.692 240.884C161.903 240.947 161.982 241.074 161.919 241.268C161.512 242.529 160.804 243.507 159.794 244.211C158.784 244.916 157.552 245.268 156.093 245.268C154.417 245.268 153.069 244.853 152.038 244.022C151.007 243.192 150.351 242.051 150.077 240.601C149.971 240.001 149.897 239.37 149.865 238.698C149.833 238.025 149.817 237.137 149.817 236.028C149.817 234.918 149.87 234.078 149.981 233.436C150.172 231.944 150.806 230.745 151.879 229.836C152.952 228.932 154.306 228.475 155.934 228.475C157.716 228.475 159.154 228.974 160.248 229.978C161.343 230.982 161.956 232.301 162.083 233.946C162.146 234.672 162.178 236.007 162.178 237.946C162.178 238.162 162.072 238.267 161.856 238.267H153.037C152.952 238.267 152.91 238.309 152.91 238.393C152.91 238.992 152.942 239.513 153.005 239.959C153.111 240.748 153.444 241.389 154.005 241.878C154.56 242.367 155.268 242.614 156.13 242.614C156.86 242.614 157.473 242.44 157.98 242.088H157.975ZM153.952 231.865C153.428 232.353 153.111 232.995 153.005 233.783C152.942 234.362 152.91 234.987 152.91 235.67C152.91 235.754 152.952 235.796 153.037 235.796H158.958C159.043 235.796 159.085 235.754 159.085 235.67C159.043 234.819 159.001 234.199 158.958 233.815C158.853 233.026 158.53 232.38 157.991 231.88C157.452 231.381 156.78 231.129 155.961 231.129C155.141 231.129 154.475 231.376 153.952 231.865Z" fill="white"/>
<path d="M176.579 242.088C177.082 241.736 177.462 241.252 177.721 240.632C177.785 240.443 177.912 240.364 178.107 240.406L180.296 240.884C180.508 240.947 180.587 241.074 180.524 241.268C180.116 242.529 179.408 243.507 178.398 244.211C177.388 244.916 176.156 245.268 174.697 245.268C173.021 245.268 171.673 244.853 170.642 244.022C169.611 243.192 168.956 242.051 168.681 240.601C168.575 240.001 168.501 239.37 168.469 238.698C168.438 238.025 168.422 237.137 168.422 236.028C168.422 234.918 168.475 234.078 168.586 233.436C168.776 231.944 169.411 230.745 170.484 229.836C171.557 228.932 172.911 228.475 174.539 228.475C176.32 228.475 177.758 228.974 178.853 229.978C179.947 230.982 180.56 232.301 180.687 233.946C180.751 234.672 180.782 236.007 180.782 237.946C180.782 238.162 180.677 238.267 180.46 238.267H171.641C171.557 238.267 171.515 238.309 171.515 238.393C171.515 238.992 171.546 239.513 171.61 239.959C171.716 240.748 172.048 241.389 172.609 241.878C173.164 242.367 173.872 242.614 174.735 242.614C175.464 242.614 176.077 242.44 176.585 242.088H176.579ZM172.556 231.865C172.033 232.353 171.716 232.995 171.61 233.783C171.546 234.362 171.515 234.987 171.515 235.67C171.515 235.754 171.557 235.796 171.641 235.796H177.563C177.647 235.796 177.69 235.754 177.69 235.67C177.647 234.819 177.605 234.199 177.563 233.815C177.457 233.026 177.135 232.38 176.595 231.88C176.056 231.381 175.385 231.129 174.565 231.129C173.746 231.129 173.08 231.376 172.556 231.865Z" fill="white"/>
<path d="M188.195 243.99C187.132 243.181 186.604 242.135 186.604 240.852V240.532C186.604 240.316 186.709 240.211 186.926 240.211H189.21C189.427 240.211 189.532 240.316 189.532 240.532V240.721C189.532 241.299 189.813 241.799 190.368 242.224C190.928 242.65 191.61 242.866 192.43 242.866C193.249 242.866 193.905 242.666 194.407 242.256C194.909 241.851 195.163 241.352 195.163 240.753C195.163 240.285 195.02 239.901 194.729 239.601C194.439 239.302 194.084 239.065 193.667 238.881C193.249 238.703 192.631 238.471 191.816 238.193C190.806 237.872 189.955 237.536 189.257 237.184C188.559 236.832 187.962 236.332 187.471 235.681C186.979 235.029 186.73 234.203 186.73 233.199C186.73 231.77 187.238 230.64 188.258 229.809C189.279 228.979 190.632 228.563 192.329 228.563C194.026 228.563 195.422 228.989 196.463 229.841C197.505 230.692 198.023 231.812 198.023 233.199V233.263C198.023 233.478 197.917 233.583 197.701 233.583H195.449C195.232 233.583 195.126 233.478 195.126 233.263V233.137C195.126 232.516 194.867 232.006 194.354 231.602C193.841 231.197 193.165 230.992 192.324 230.992C191.531 230.992 190.891 231.186 190.41 231.57C189.929 231.954 189.686 232.443 189.686 233.042C189.686 233.489 189.823 233.856 190.103 234.146C190.383 234.435 190.733 234.671 191.15 234.866C191.568 235.06 192.186 235.291 193.001 235.57C194.074 235.933 194.957 236.285 195.655 236.627C196.353 236.968 196.955 237.457 197.473 238.098C197.986 238.739 198.245 239.56 198.245 240.563C198.245 241.993 197.722 243.123 196.67 243.954C195.618 244.784 194.201 245.199 192.424 245.199C190.648 245.199 189.252 244.795 188.195 243.985V243.99Z" fill="white"/>
<path d="M217.219 244.453C216.178 243.906 215.374 243.139 214.803 242.151C214.238 241.157 213.952 240.012 213.952 238.713V228.889C213.952 226.908 214.581 225.321 215.834 224.138C217.087 222.955 218.747 222.361 220.809 222.361C222.871 222.361 224.521 222.95 225.763 224.122C227.005 225.294 227.629 226.85 227.629 228.795V229.053C227.629 229.158 227.598 229.242 227.534 229.31C227.471 229.373 227.397 229.405 227.307 229.405L224.859 229.531C224.642 229.531 224.537 229.426 224.537 229.21V228.732C224.537 227.623 224.193 226.729 223.505 226.046C222.818 225.363 221.919 225.021 220.804 225.021C219.688 225.021 218.779 225.363 218.087 226.046C217.389 226.729 217.04 227.623 217.04 228.732V238.908C217.04 240.017 217.389 240.916 218.087 241.594C218.784 242.277 219.688 242.619 220.804 242.619C221.919 242.619 222.818 242.277 223.505 241.594C224.193 240.91 224.537 240.017 224.537 238.908V238.461C224.537 238.246 224.642 238.14 224.859 238.14L227.307 238.267C227.518 238.267 227.629 238.372 227.629 238.587V238.813C227.629 240.09 227.344 241.226 226.778 242.203C226.207 243.186 225.409 243.943 224.378 244.474C223.347 245.005 222.157 245.273 220.809 245.273C219.461 245.273 218.261 245 217.219 244.458V244.453Z" fill="white"/>
<path d="M236.062 243.975C234.989 243.113 234.344 241.931 234.132 240.438C233.958 239.371 233.873 238.178 233.873 236.853C233.873 235.529 233.958 234.325 234.132 233.3C234.349 231.828 234.989 230.656 236.062 229.779C237.135 228.906 238.51 228.47 240.181 228.47C241.851 228.47 243.193 228.906 244.268 229.779C245.341 230.651 245.985 231.818 246.196 233.268C246.371 234.188 246.456 235.381 246.456 236.853C246.456 238.325 246.371 239.518 246.196 240.438C245.98 241.931 245.346 243.108 244.284 243.975C243.22 244.837 241.851 245.274 240.181 245.274C238.51 245.274 237.135 244.843 236.062 243.975ZM242.195 241.878C242.739 241.389 243.078 240.737 243.209 239.928C243.315 238.966 243.368 237.947 243.368 236.858C243.368 235.77 243.315 234.735 243.209 233.82C243.083 233.011 242.745 232.359 242.195 231.871C241.645 231.382 240.968 231.134 240.149 231.134C239.329 231.134 238.684 231.382 238.14 231.871C237.59 232.359 237.257 233.011 237.125 233.82C237.04 234.567 236.998 235.581 236.998 236.858C236.998 238.136 237.04 239.182 237.125 239.928C237.251 240.737 237.59 241.389 238.14 241.878C238.689 242.367 239.366 242.614 240.186 242.614C241.005 242.614 241.65 242.367 242.195 241.878Z" fill="white"/>
<path d="M253.187 244.695V222.94C253.187 222.724 253.292 222.619 253.509 222.619H255.952C256.169 222.619 256.275 222.724 256.275 222.94V244.695C256.275 244.91 256.169 245.016 255.952 245.016H253.509C253.292 245.016 253.187 244.91 253.187 244.695Z" fill="white"/>
<path d="M263.644 225.595C263.259 225.211 263.068 224.722 263.068 224.123C263.068 223.524 263.259 223.009 263.644 222.636C264.03 222.263 264.522 222.073 265.124 222.073C265.726 222.073 266.218 222.263 266.605 222.651C266.991 223.035 267.181 223.524 267.181 224.123C267.181 224.722 266.986 225.211 266.584 225.595C266.181 225.979 265.7 226.173 265.119 226.173C264.537 226.173 264.025 225.984 263.639 225.595H263.644ZM263.549 244.696V229.053C263.549 228.838 263.655 228.733 263.872 228.733H266.318C266.53 228.733 266.642 228.838 266.642 229.053V244.696C266.642 244.911 266.535 245.016 266.318 245.016H263.872C263.655 245.016 263.549 244.911 263.549 244.696Z" fill="white"/>
<path d="M277.51 244.759L272.879 229.079L272.848 228.985C272.848 228.817 272.953 228.728 273.17 228.728H275.872C276.084 228.728 276.205 228.822 276.226 229.016L279.187 240.501C279.208 240.543 279.229 240.564 279.251 240.564C279.272 240.564 279.293 240.543 279.314 240.501L282.244 229.016C282.286 228.827 282.402 228.728 282.597 228.728L285.298 228.759C285.405 228.759 285.49 228.79 285.543 228.854C285.596 228.917 285.611 229.001 285.59 229.111L280.989 244.753C280.926 244.927 280.804 245.011 280.635 245.011H277.872C277.695 245.011 277.579 244.927 277.516 244.753L277.51 244.759Z" fill="white"/>
<path d="M291.897 225.595C291.511 225.211 291.32 224.722 291.32 224.123C291.32 223.524 291.511 223.009 291.897 222.636C292.282 222.263 292.774 222.073 293.378 222.073C293.98 222.073 294.472 222.263 294.857 222.651C295.243 223.035 295.433 223.524 295.433 224.123C295.433 224.722 295.238 225.211 294.836 225.595C294.435 225.979 293.954 226.173 293.372 226.173C292.79 226.173 292.277 225.984 291.891 225.595H291.897ZM291.801 244.696V229.053C291.801 228.838 291.907 228.733 292.124 228.733H294.572C294.783 228.733 294.895 228.838 294.895 229.053V244.696C294.895 244.911 294.789 245.016 294.572 245.016H292.124C291.907 245.016 291.801 244.911 291.801 244.696Z" fill="white"/>
<path d="M312.86 229.947C313.726 230.909 314.165 232.228 314.165 233.915V244.696C314.165 244.911 314.059 245.016 313.843 245.016H311.394C311.177 245.016 311.072 244.911 311.072 244.696V234.362C311.072 233.379 310.818 232.601 310.316 232.028C309.814 231.45 309.133 231.166 308.271 231.166C307.408 231.166 306.689 231.461 306.161 232.044C305.633 232.633 305.373 233.416 305.373 234.393V244.696C305.373 244.911 305.268 245.016 305.051 245.016H302.603C302.386 245.016 302.28 244.911 302.28 244.696V229.053C302.28 228.838 302.386 228.733 302.603 228.733H305.051C305.263 228.733 305.373 228.838 305.373 229.053V230.047C305.373 230.11 305.389 230.146 305.421 230.157C305.453 230.167 305.49 230.141 305.532 230.078C306.367 229.032 307.593 228.512 309.201 228.512C310.808 228.512 311.986 228.99 312.855 229.952L312.86 229.947Z" fill="white"/>
<path d="M330.22 228.732H332.668C332.884 228.732 332.991 228.837 332.991 229.053V244.38C332.991 249.115 330.438 251.481 325.33 251.481C324.882 251.481 324.539 251.47 324.3 251.449C324.084 251.428 323.977 251.313 323.977 251.097L324.04 248.952C324.04 248.847 324.073 248.763 324.137 248.711C324.201 248.658 324.274 248.642 324.363 248.663C326.377 248.748 327.806 248.437 328.646 247.733C329.48 247.029 329.899 245.836 329.899 244.148V243.539C329.899 243.497 329.881 243.465 329.851 243.444C329.818 243.423 329.782 243.433 329.739 243.476C328.905 244.5 327.733 245.01 326.23 245.01C324.834 245.01 323.662 244.6 322.708 243.781C321.752 242.96 321.17 241.815 320.953 240.343C320.826 239.66 320.758 238.498 320.758 236.853C320.758 235.081 320.832 233.846 320.985 233.142C321.175 231.712 321.729 230.577 322.639 229.736C323.55 228.895 324.707 228.475 326.098 228.475C327.641 228.475 328.851 228.974 329.734 229.978C329.777 230.02 329.813 230.03 329.846 230.01C329.876 229.988 329.894 229.957 329.894 229.915V229.053C329.894 228.837 329.998 228.732 330.214 228.732H330.22ZM329.899 236.827C329.899 235.633 329.866 234.619 329.802 233.789C329.719 233.021 329.416 232.385 328.905 231.886C328.391 231.386 327.738 231.134 326.942 231.134C326.148 231.134 325.52 231.386 324.997 231.886C324.475 232.385 324.157 233.021 324.051 233.789C323.926 234.619 323.857 235.633 323.857 236.827C323.857 237.936 323.908 238.919 324.02 239.77C324.127 240.559 324.447 241.2 324.986 241.689C325.52 242.177 326.187 242.424 326.98 242.424C327.773 242.424 328.429 242.177 328.94 241.689C329.454 241.2 329.754 240.569 329.841 239.802C329.881 238.693 329.904 237.699 329.904 236.827H329.899Z" fill="white"/>
<path d="M170.997 254.703H128.395V205.973H163.146C164.023 205.973 164.732 205.268 164.732 204.396C164.732 203.524 164.023 202.819 163.146 202.819H154.116V194.846H155.041C156.215 194.846 156.664 193.153 155.681 192.449L152.001 189.81L145.62 185.237C145.228 184.959 144.732 184.959 144.34 185.237L137.959 189.81L134.279 192.449C133.296 193.153 133.745 194.846 134.919 194.846H135.844V202.819H128.401V170.646C128.401 169.774 127.692 169.069 126.814 169.069C125.936 169.069 125.228 169.774 125.228 170.646V186.315H98.5664C97.6889 186.315 96.9805 187.019 96.9805 187.892C96.9805 188.764 97.6889 189.469 98.5664 189.469H125.223V257.856H170.997C171.874 257.856 172.583 257.152 172.583 256.28C172.583 255.407 171.874 254.703 170.997 254.703Z" fill="white"/>
<path d="M123.636 191.045H98.566C96.816 191.045 95.3941 189.631 95.3941 187.892C95.3941 186.152 96.816 184.738 98.566 184.738H123.636V170.646C123.636 168.906 125.059 167.492 126.809 167.492C128.559 167.492 129.981 168.906 129.981 170.646V201.242H134.252V196.344C133.343 196.118 132.614 195.434 132.302 194.472C131.9 193.237 132.323 191.907 133.349 191.172L143.409 183.96C144.345 183.293 145.604 183.287 146.539 183.96L156.6 191.172C157.631 191.907 158.049 193.237 157.647 194.472C157.335 195.434 156.6 196.118 155.696 196.344V201.242H163.14C164.89 201.242 166.312 202.656 166.312 204.396C166.312 206.136 164.89 207.55 163.14 207.55H129.975V214.483H135.891H165.08C169.22 214.483 172.577 211.145 172.577 207.029V174.509C172.577 170.41 169.236 167.088 165.112 167.088H148.485V160.297C148.485 160.186 148.474 160.081 148.464 159.971C148.464 152.765 142.585 146.92 135.336 146.92H118.587C111.154 146.92 105.132 152.912 105.132 160.297V165.569H94.844C91.5451 165.569 88.8753 167.929 88.8753 170.841V186.677H80.707C75.7955 186.677 71.8145 190.635 71.8145 195.518V209.211C71.8145 212.122 74.4896 214.483 77.7833 214.483H123.636V191.051V191.045Z" fill="white"/>
</g>
</svg>
