<svg width="400" height="400" viewBox="0 0 400 400" fill="none" xmlns="http://www.w3.org/2000/svg">
<path d="M257.116 274.552H146.996C150.411 273.368 153.827 272.184 157.789 270.81V210.602C152.688 210.602 147.792 210.852 142.926 210.559C124.173 209.427 109.594 194.842 109.023 176.845C108.404 157.333 120.437 142.507 139.937 140.323C149.584 139.242 159.085 138.233 168.333 135.123C178.457 131.722 188.691 128.659 198.879 125.449C199.937 125.449 200.997 125.449 202.055 125.449C220.344 130.191 238.452 135.903 256.974 139.384C273.727 142.534 285.236 150.157 289.407 164.651C289.937 166.493 290.469 168.335 290.999 170.179V180.828C290.733 181.28 290.327 181.701 290.219 182.19C286.715 198.014 276.414 206.939 261.106 209.796C254.924 210.949 248.352 209.985 241.48 209.985C241.48 212.248 241.48 214.166 241.48 216.087C241.48 231.478 241.42 246.869 241.5 262.26C241.56 273.716 240.059 271.885 251.213 272.274C253.204 272.345 255.149 273.757 257.116 274.549V274.552ZM157.87 142.204C153.507 142.204 149.65 142.012 145.816 142.239C134.471 142.911 129.036 147.16 126.452 158.251C123.725 169.954 123.682 181.847 126.491 193.563C128.628 202.476 134.694 207.743 143.6 208.399C148.239 208.742 152.961 207.96 157.87 207.673V142.202V142.204ZM242.705 142.563C242.311 143.268 241.991 143.575 241.989 143.883C241.896 164.082 241.797 184.281 241.853 204.48C241.855 205.508 243.035 207.222 243.953 207.448C254.714 210.113 266.656 209.303 271.864 195.374C276.988 181.67 276.542 167.551 271.976 153.695C269.764 146.987 264.501 143.384 257.719 142.664C252.692 142.13 247.562 142.559 242.705 142.559V142.563ZM212.56 204.309C212.727 203.375 212.952 202.709 212.952 202.042C212.981 183.097 213.01 164.152 212.946 145.209C212.941 143.895 212.587 142.245 211.76 141.331C208.249 137.45 204.499 133.786 200.692 129.894C197.393 132.978 194.599 135.948 191.439 138.452C187.895 141.257 186.981 144.642 187.054 149.054C187.301 164.276 187.148 179.506 187.148 194.732V204.309H212.56ZM212.597 271.887V207.244H187.559V271.887H212.597ZM173.271 143.384C172.976 143.396 172.679 143.408 172.384 143.421V271.274C172.679 271.274 172.976 271.274 173.271 271.274V143.384ZM226.942 269.841C227.134 269.841 227.328 269.841 227.52 269.838V144.258C227.328 144.258 227.134 144.258 226.942 144.26V269.838V269.841Z" fill="white"/>
</svg>
