<svg width="100" height="100" viewBox="0 0 400 400" fill="none" xmlns="http://www.w3.org/2000/svg">
<path d="M69.6017 184.007L76.5335 207.899L83.267 186.092H87.1431L94.2663 207.995L101.629 184.007H108.075L97.2674 215.46H91.2584L85.3452 197.727L79.4799 215.46H73.4709L63.1963 184.007H69.5949H69.6017ZM114.036 184.007H119.751V215.46H114.036V184.007ZM135.406 184.007L149.263 206.299V184.007H154.978V215.46H149.16L134.866 192.395V215.46H129.151V184.007H135.399H135.406ZM164.439 184.007H184.694V188.949H170.154V197.235H183.771V202.177H170.154V210.463H184.694V215.453H164.439V184V184.007ZM204.314 184.444C207.574 184.444 210.2 185.258 212.189 186.892C214.178 188.525 215.539 190.645 216.284 193.263L212.162 194.09C211.512 192.183 210.507 190.672 209.133 189.558C207.759 188.443 206.153 187.883 204.314 187.883C201.764 187.883 199.645 188.949 197.963 191.082C196.281 193.215 195.44 196.182 195.44 199.976C195.44 203.77 196.192 206.819 197.696 209.109C199.2 211.406 201.402 212.548 204.314 212.548C206.734 212.548 208.648 211.912 210.056 210.633C211.464 209.355 212.162 207.667 212.162 205.568H216.284C216.284 208.767 215.197 211.303 213.016 213.176C210.835 215.05 207.848 215.986 204.054 215.986C200.26 215.986 197.19 214.53 194.846 211.625C192.501 208.719 191.332 204.823 191.332 199.949C191.332 195.074 192.542 191.267 194.969 188.539C197.389 185.812 200.506 184.444 204.321 184.444H204.314ZM244.681 193.7C244.681 196.223 244.011 198.253 242.671 199.805C241.331 201.357 239.349 202.355 236.737 202.806L245.46 215.453H240.518L232.622 202.997H227.29V215.453H223.462V184.971H234.071C237.496 184.971 240.121 185.798 241.946 187.445C243.772 189.093 244.688 191.178 244.688 193.694L244.681 193.7ZM233.777 200.338C236.067 200.338 237.804 199.778 238.986 198.663C240.162 197.549 240.757 196.079 240.757 194.254C240.757 192.429 240.183 190.973 239.034 189.893C237.886 188.813 236.231 188.273 234.064 188.273H227.283V200.338H233.777ZM256.316 184.978V204.46C256.316 207.304 257.027 209.355 258.449 210.613C259.871 211.871 261.744 212.5 264.068 212.5C266.392 212.5 268.265 211.871 269.687 210.613C271.109 209.355 271.82 207.304 271.82 204.46V184.978H275.648V204.46C275.648 208.275 274.596 211.146 272.497 213.088C270.398 215.029 267.582 215.993 264.041 215.993C260.499 215.993 257.69 215.022 255.612 213.088C253.527 211.146 252.488 208.275 252.488 204.46V184.978H256.316ZM301.085 192.395C300.538 189.421 298.358 187.938 294.543 187.938C292.506 187.938 290.941 188.382 289.84 189.271C288.739 190.159 288.193 191.226 288.193 192.47C288.193 193.714 288.534 194.657 289.211 195.307C289.888 195.956 290.988 196.517 292.506 197.002L298.857 199.183C301.024 199.928 302.74 200.947 304.018 202.239C305.296 203.531 305.932 205.349 305.932 207.687C305.932 210.025 304.927 212.001 302.931 213.6C300.928 215.2 298.248 216 294.885 216C291.522 216 288.774 215.152 286.62 213.457C284.474 211.761 283.366 209.376 283.298 206.306H287.03C287.03 208.309 287.734 209.84 289.136 210.907C290.544 211.973 292.349 212.506 294.564 212.506C296.779 212.506 298.529 212.014 299.821 211.03C301.113 210.045 301.762 208.883 301.762 207.543C301.762 206.204 301.366 205.144 300.573 204.372C299.78 203.599 298.611 202.95 297.059 202.43L291.679 200.441C289.156 199.6 287.249 198.602 285.964 197.44C284.672 196.278 284.023 194.575 284.023 192.326C284.023 190.077 284.925 188.204 286.736 186.707C288.548 185.203 291.084 184.451 294.345 184.451C297.606 184.451 300.101 185.169 301.831 186.605C303.56 188.04 304.551 189.975 304.811 192.395H301.079H301.085ZM318.005 184.978V198.404H332.976V184.978H336.804V215.46H332.976V201.699H318.005V215.46H314.176V184.978H318.005Z" fill="white"/>
</svg>
