<svg width="400" height="400" viewBox="0 0 400 400" fill="none" xmlns="http://www.w3.org/2000/svg">
<path fill-rule="evenodd" clip-rule="evenodd" d="M280.292 130.48C276.066 125.963 270.75 123.319 263.185 121.971C255.875 120.668 238.257 120.678 231.026 121.989C223.694 123.319 220.231 125.552 212.573 133.894C208.987 137.799 204.833 141.754 203.339 142.682L200.625 144.369L161.273 144.623L121.92 144.877V156.281V167.686L138.861 167.99C148.178 168.157 161.075 168.089 167.521 167.838C178.694 167.406 179.461 167.276 183.982 165.05C187.609 163.265 190.169 161.141 194.868 156.018C199.335 151.147 202.181 148.745 205.294 147.217L209.577 145.115H233.877H258.176L261.287 147.173C266.204 150.426 268.422 154.391 268.409 159.908C268.402 162.667 267.918 165.426 267.198 166.802C266.278 168.561 262.543 172.529 259.745 174.722C259.643 174.801 245.125 175.062 227.482 175.302C198.554 175.694 195.112 175.87 192.443 177.1C190.763 177.873 185.922 182.088 181.252 186.844C174.142 194.085 172.546 195.343 169.521 196.089C167.208 196.661 157.274 196.954 140.24 196.954H114.46V207.723V218.492L117.958 219.017C122.731 219.733 144.47 218.905 149.523 217.815C155.74 216.475 160.001 213.849 162.936 209.547C166.15 204.838 169.724 201.669 174.103 199.643C177.391 198.122 178.707 198.064 215.545 197.826C242.041 197.654 254.764 197.836 257.454 198.427C262.433 199.519 266.754 202.685 269.395 207.178C271.168 210.194 271.493 211.567 271.474 215.974C271.442 223.612 268.256 228.847 261.425 232.484C258.985 233.784 255.768 233.903 212.188 234.31C179.692 234.615 164.581 235.015 162.325 235.634C155.545 237.495 152.85 239.547 146.248 247.878C141.299 254.122 136.609 255.56 118.75 256.31L107 256.804V267.902V279H110.702C117.65 279 121.965 276.671 129.983 268.591C135.823 262.707 138.009 261.013 141.35 259.778C148.909 256.987 154.061 256.341 161.325 257.272C165.597 257.82 183.96 258.112 213.731 258.104C263.578 258.092 264.676 258.014 273.356 253.83C281.834 249.745 288.962 240.329 291.797 229.47C294.174 220.368 292.878 203.82 289.226 196.65C287.716 193.683 281.707 187.368 279.126 186.033L277.009 184.939L280.744 181.432C283.237 179.092 285.278 176.189 286.876 172.708C288.997 168.089 289.309 166.553 289.6 159.287C290.107 146.691 287.283 137.953 280.292 130.48Z" fill="white"/>
</svg>
