<svg width="400" height="400" viewBox="0 0 400 400" fill="none" xmlns="http://www.w3.org/2000/svg">
<path fill-rule="evenodd" clip-rule="evenodd" d="M61.86 182.137C61.831 182.212 61.8073 182.453 61.8073 182.673C61.8073 182.893 61.7289 183.716 61.633 184.502C61.5372 185.287 61.3599 186.766 61.2393 187.787C60.8792 190.835 60.4804 193.949 60.1057 196.641C59.4755 201.166 59.3549 202.003 58.9858 204.414C58.8622 205.222 58.6815 206.408 58.5843 207.049C58.3578 208.544 58.1142 210.114 57.8474 211.8C57.7309 212.536 57.556 213.644 57.4589 214.261C57.3618 214.879 57.2107 215.792 57.1233 216.291C57.0359 216.79 56.9827 217.217 57.0051 217.241C57.0274 217.265 57.8241 217.298 58.7753 217.315L60.5048 217.346L60.5045 217.142C60.5025 215.734 60.8401 211.02 61.249 206.747C61.6217 202.85 62.3267 196.585 62.7649 193.272C62.8592 192.559 62.9364 191.861 62.9363 191.72C62.9362 191.477 62.9429 191.473 63.0537 191.633C63.2273 191.885 63.8934 193.15 65.2811 195.863C66.9224 199.073 69.0037 203.127 70.1583 205.365C71.0454 207.084 73.7842 212.536 75.365 215.73C76.0052 217.023 76.1186 217.201 76.3174 217.224C76.5269 217.248 76.5728 217.184 76.9613 216.317C78.2469 213.449 80.9008 207.999 82.2102 205.537C82.4629 205.062 82.865 204.304 83.1037 203.853C84.1155 201.941 84.4288 201.359 84.7527 200.787C84.941 200.454 85.1509 200.065 85.219 199.923C85.287 199.78 85.4011 199.567 85.4721 199.448C85.5815 199.265 86.1851 198.166 87.7255 195.345C88.1279 194.608 88.393 194.132 89.1922 192.711L89.8967 191.458L90.0022 192.02C90.0602 192.328 90.1091 192.717 90.1111 192.883C90.1129 193.05 90.1911 193.788 90.2846 194.524C90.6523 197.416 90.9897 200.731 91.4143 205.624C91.5092 206.716 91.6851 208.718 91.8052 210.072C91.9255 211.426 92.1031 213.428 92.2001 214.52C92.2971 215.613 92.3757 216.692 92.375 216.917L92.3735 217.328H94.7884H97.2033L97.0531 216.399C96.9706 215.888 96.8194 214.79 96.717 213.959C96.6147 213.128 96.4384 211.709 96.3254 210.806C96.0848 208.885 95.8366 206.829 95.5905 204.717C95.4934 203.885 95.3178 202.389 95.2001 201.391C94.9767 199.497 94.7579 197.567 94.4608 194.87C94.3641 193.991 94.1892 192.417 94.072 191.372C93.9549 190.327 93.7765 188.714 93.6757 187.787C93.5748 186.861 93.4185 185.5 93.3284 184.764C93.2383 184.028 93.1396 183.15 93.1092 182.814C93.0402 182.057 92.9945 181.98 92.6307 182.015C92.3756 182.04 92.3096 182.104 92.0681 182.561C91.7613 183.142 91.4644 183.686 90.3934 185.628C89.9874 186.364 89.4999 187.258 89.3102 187.614C89.1207 187.971 88.8574 188.457 88.7255 188.694C88.5936 188.932 88.2987 189.476 88.0702 189.903C87.2247 191.485 87.0435 191.818 86.6733 192.47C86.4653 192.837 86.2949 193.152 86.2949 193.172C86.2949 193.192 86.1253 193.514 85.918 193.888C85.7107 194.262 85.3448 194.937 85.1047 195.388C84.8647 195.84 84.5516 196.423 84.409 196.684C84.2664 196.945 83.9633 197.509 83.7355 197.936C83.5075 198.364 83.2131 198.908 83.0812 199.146C82.9493 199.383 82.6544 199.927 82.4258 200.355C81.5804 201.937 81.3992 202.27 81.029 202.922C80.821 203.288 80.6506 203.603 80.6506 203.621C80.6506 203.64 80.2404 204.403 79.7388 205.317C79.2374 206.232 78.8272 206.997 78.8272 207.017C78.8272 207.038 78.6522 207.362 78.4383 207.736C78.2245 208.111 77.9336 208.644 77.7918 208.921C77.65 209.198 77.4798 209.497 77.4138 209.587C77.2802 209.767 77.2634 209.744 76.522 208.388C76.3401 208.055 75.9248 207.303 75.5989 206.716C75.2729 206.128 75.0063 205.633 75.0063 205.614C75.0063 205.596 74.8168 205.241 74.5851 204.825C74.1606 204.063 73.618 203.061 72.984 201.866C72.795 201.51 72.524 201.005 72.382 200.744C72.2399 200.482 71.9474 199.938 71.7317 199.534C71.5161 199.13 71.1922 198.528 71.012 198.195C70.8318 197.863 70.4593 197.163 70.1842 196.641C69.9091 196.118 69.5287 195.399 69.3388 195.043C68.1112 192.738 63.18 182.99 62.9051 182.324C62.776 182.011 62.7565 182 62.342 182C62.0307 182 61.8982 182.038 61.86 182.137ZM132.381 182.497C131.523 184.439 130.231 187.382 129.888 188.176C129.561 188.935 128.358 191.654 127.977 192.495C127.934 192.59 127.823 192.842 127.731 193.056C127.4 193.821 124.738 199.763 124.45 200.38C124.288 200.726 124.155 201.028 124.155 201.051C124.155 201.074 124.034 201.354 123.886 201.674C123.738 201.994 123.546 202.41 123.46 202.601C123.264 203.032 123.037 203.529 122.631 204.414C122.457 204.794 121.806 206.233 121.185 207.61C119.658 211.001 119.56 211.216 119.465 211.386C119.419 211.467 119.034 212.303 118.609 213.243C118.184 214.183 117.622 215.399 117.361 215.946C117.1 216.492 116.859 217.026 116.825 217.133L116.763 217.328H118.624H120.485L120.625 216.831C120.806 216.192 121.369 214.502 121.769 213.397C121.941 212.922 122.116 212.417 122.157 212.275C122.228 212.03 122.739 210.633 123.105 209.683C123.197 209.446 123.374 208.979 123.5 208.647C123.626 208.314 123.805 207.858 123.898 207.632C124.219 206.858 124.404 206.4 124.813 205.365C125.18 204.436 125.633 203.338 126.168 202.082C126.269 201.845 126.4 201.534 126.459 201.391C126.518 201.249 126.667 200.899 126.79 200.614C126.913 200.329 127.247 199.552 127.531 198.886C127.816 198.221 128.379 196.919 128.783 195.993C129.48 194.396 129.587 194.148 129.846 193.531C130.049 193.049 130.853 191.205 131.345 190.098C131.613 189.492 131.858 188.996 131.888 188.996C131.918 188.996 132.041 189.201 132.163 189.45C132.387 189.909 132.427 189.999 132.926 191.156C133.356 192.153 133.378 192.204 134.231 194.136C135.145 196.21 135.293 196.542 135.524 197.051C135.714 197.471 136.18 198.503 136.352 198.886C136.556 199.339 137.279 201.031 137.441 201.434C137.583 201.787 137.684 202.034 138.228 203.356C138.321 203.582 138.479 203.971 138.58 204.22C138.681 204.47 138.817 204.802 138.884 204.958C138.95 205.114 139.126 205.561 139.274 205.951C139.422 206.341 139.672 206.991 139.829 207.394C140.095 208.076 140.411 208.908 140.848 210.072C140.946 210.333 141.115 210.78 141.223 211.065C141.332 211.35 141.505 211.817 141.608 212.102C141.711 212.387 141.867 212.815 141.954 213.052C142.042 213.29 142.296 214.009 142.52 214.65C142.884 215.694 143.084 216.25 143.365 217.004L143.454 217.241H146.092C147.543 217.241 148.73 217.227 148.73 217.21C148.73 217.192 148.596 216.911 148.433 216.583C147.918 215.553 147.08 213.783 147.08 213.727C147.08 213.698 146.979 213.456 146.855 213.19C146.731 212.924 146.553 212.532 146.459 212.318C146.365 212.104 146.234 211.813 146.169 211.67C146.058 211.43 144.861 208.714 144.607 208.129C144.545 207.986 144.292 207.403 144.045 206.833C143.797 206.263 143.42 205.388 143.206 204.89C142.992 204.391 142.765 203.866 142.702 203.723C142.447 203.153 142.042 202.211 141.7 201.391C141.501 200.916 141.287 200.411 141.224 200.268C141.03 199.831 140.696 199.047 139.916 197.202C139.503 196.228 139.073 195.218 138.958 194.956C138.843 194.695 138.591 194.093 138.396 193.618C138.202 193.142 137.95 192.54 137.835 192.279C137.636 191.825 136.71 189.621 136.256 188.521C136.138 188.236 135.969 187.828 135.88 187.614C135.79 187.401 135.573 186.876 135.396 186.448C135.22 186.021 134.969 185.418 134.838 185.11C134.708 184.801 134.433 184.14 134.229 183.641C134.024 183.142 133.786 182.569 133.7 182.367L133.543 182H133.072H132.601L132.381 182.497ZM184.723 182.057C183.961 182.118 181.919 182.365 181.51 182.446C180.367 182.671 179.812 182.798 179.253 182.964C176.222 183.862 174.221 184.908 172.263 186.616C169.375 189.137 167.65 192.341 166.868 196.641C166.703 197.546 166.679 197.984 166.681 200.096C166.682 202.158 166.71 202.686 166.872 203.68C167.514 207.645 168.87 210.473 171.334 212.981C172.972 214.65 174.505 215.615 177.038 216.574C179.841 217.635 183.375 218.088 187.575 217.926C189.038 217.87 189.651 217.798 192.712 217.323C195.034 216.963 196.892 216.517 198.715 215.882L199.073 215.758L199.127 208.963C199.156 205.226 199.205 201.999 199.234 201.792L199.288 201.416L198.909 201.49C198.422 201.585 195.821 201.586 195.153 201.492L194.641 201.419L194.693 202.053C194.906 204.666 194.984 213.937 194.798 214.404C194.766 214.482 194.675 214.567 194.595 214.591C194.515 214.616 194.172 214.752 193.833 214.893C193.027 215.229 191.683 215.571 190.281 215.796C189.344 215.947 188.753 215.979 186.807 215.983C184.709 215.988 184.353 215.968 183.421 215.791C179.942 215.13 177.151 213.609 175.2 211.312C174.304 210.256 173.89 209.622 173.3 208.401C172.523 206.791 172.144 205.518 171.813 203.411C171.654 202.393 171.618 201.803 171.615 200.139C171.61 197.313 171.875 195.43 172.584 193.272C173.037 191.891 174.137 189.825 174.89 188.94C175.678 188.014 176.013 187.659 176.43 187.308C176.693 187.088 177.001 186.83 177.114 186.734C177.826 186.134 179.46 185.259 180.603 184.866C182.736 184.132 183.897 183.948 186.373 183.95C187.991 183.952 188.423 183.981 189.195 184.139C190.918 184.494 192.022 184.872 193.424 185.59C194.666 186.226 195.464 186.798 196.622 187.883C197.587 188.787 197.969 189.028 198.151 188.847C198.197 188.8 198.269 188.533 198.309 188.253C198.402 187.607 198.781 186.297 199.093 185.545C199.377 184.861 199.464 184.966 198.117 184.364C194.952 182.949 192.728 182.411 188.674 182.084C187.744 182.008 185.516 181.993 184.723 182.057ZM238.778 182.049C234.54 182.533 232.755 183.035 229.763 184.581C229.634 184.647 229.179 184.935 228.749 185.221C225.293 187.523 222.884 191.125 221.948 195.388C221.069 199.395 221.373 204.005 222.742 207.438C223.44 209.187 224.626 211.156 225.625 212.222C225.874 212.489 226.171 212.809 226.285 212.935C226.703 213.398 227.774 214.309 228.427 214.757C230.544 216.207 232.702 217.029 236.13 217.689C237.108 217.877 237.376 217.889 240.472 217.889C243.553 217.889 243.84 217.876 244.813 217.691C249.808 216.74 252.916 215.048 255.635 211.8C256.015 211.345 256.689 210.394 256.892 210.029C258.236 207.589 258.793 206.014 259.208 203.464C259.482 201.774 259.481 198.513 259.203 196.77C258.661 193.369 257.402 190.487 255.445 188.176C252.087 184.209 247.221 182.182 240.732 182.049C239.825 182.03 238.945 182.03 238.778 182.049ZM283.283 183.188C283.376 184.896 283.349 199.763 283.247 203.032C283.133 206.651 282.767 213.033 282.507 215.946C282.445 216.635 282.412 217.217 282.433 217.241C282.483 217.299 285.816 217.297 285.874 217.24C285.899 217.215 285.884 216.107 285.84 214.778C285.632 208.368 285.57 204.023 285.597 197.582C285.613 193.723 285.656 190.536 285.692 190.499C285.782 190.411 286.144 190.765 288.303 193.056C289.309 194.125 290.53 195.408 291.016 195.906C292.58 197.516 300.028 205.484 302.4 208.085C303.287 209.059 304.256 210.109 304.552 210.418C305.071 210.96 307.456 213.639 309.244 215.687C309.721 216.233 310.273 216.855 310.472 217.069C310.67 217.282 310.925 217.561 311.038 217.687C311.192 217.858 311.349 217.927 311.667 217.958L312.09 218L312.037 217.167C312.007 216.709 311.958 211.923 311.928 206.531C311.882 198.006 311.894 196.4 312.019 194.222C312.099 192.844 312.2 190.823 312.244 189.731C312.289 188.638 312.405 186.639 312.503 185.289C312.601 183.939 312.651 182.807 312.613 182.773C312.576 182.739 312.206 182.769 311.793 182.839C311.129 182.951 310.943 182.951 310.229 182.838C309.784 182.768 309.39 182.737 309.354 182.769C309.32 182.802 309.327 183.235 309.374 183.731C309.544 185.572 309.633 190.069 309.685 199.534L309.737 209.252L307.622 207.135C306.459 205.971 304.377 203.814 302.994 202.341C301.612 200.869 300.164 199.333 299.775 198.93C299.385 198.526 298.35 197.418 297.475 196.468C296.598 195.518 295.563 194.41 295.173 194.006C294.415 193.222 291.299 189.862 289.459 187.845C288.427 186.715 285.868 183.973 284.549 182.586C284.022 182.033 283.969 182 283.604 182H283.218L283.283 183.188ZM337.985 183.179C338.498 188.333 338.498 212.364 337.985 216.874L337.932 217.328H340.467H343L342.947 217.044C342.919 216.888 342.857 215.576 342.81 214.129C342.765 212.681 342.682 210.255 342.627 208.736C342.513 205.554 342.57 191.405 342.707 188.78C342.756 187.878 342.82 186.138 342.854 184.913L342.912 182.687L342.404 182.754C341.72 182.843 339.165 182.839 338.483 182.747L337.935 182.673L337.985 183.179ZM243.294 184.149C245.921 184.607 248.002 185.582 249.758 187.179C252.084 189.293 253.583 192.333 254.209 196.209C254.405 197.427 254.434 202.38 254.25 203.68C253.335 210.184 249.833 214.464 244.293 215.846C240.985 216.671 236.783 216.303 234.002 214.945C232.409 214.167 230.908 212.986 229.895 211.713C229.649 211.404 229.425 211.132 229.397 211.109C229.369 211.085 229.165 210.774 228.945 210.418C227.615 208.28 226.724 205.32 226.537 202.436C226.301 198.805 226.558 195.885 227.323 193.445C227.718 192.184 227.815 191.942 228.358 190.854C230.184 187.192 233.455 184.833 237.693 184.122C238.123 184.05 238.553 183.972 238.648 183.949C239.098 183.843 242.336 183.982 243.294 184.149Z" fill="white"/>
</svg>
