<svg width="400" height="400" viewBox="0 0 400 400" fill="none" xmlns="http://www.w3.org/2000/svg">
<path d="M81.2354 213.04L101.077 190.668V190.419H81.4523V182.401H112.942V190.568L93.5674 212.441V212.666H113.935V220.833H81.2354V213.04Z" fill="white"/>
<path d="M118.966 182.401H129.195V220.833H118.966V182.401Z" fill="white"/>
<path d="M133.551 182.401H138.891V170.408H148.903V182.401H155.495V189.146H148.887V209.522C148.887 212.366 150.464 213.339 152.716 213.339C154.001 213.339 155.728 213.264 155.728 213.264V220.749C155.728 220.749 153.401 220.899 149.337 220.899C144.331 220.899 138.891 218.953 138.891 211.684V189.146H133.551V182.401Z" fill="white"/>
<path d="M162.387 225.407H165.991C170.055 225.407 171.707 223.311 171.707 220.159C171.707 218.064 170.956 215.594 168.778 209.747L158.398 182.401H169.154L174.861 199.709C176.062 203.227 177.364 208.1 177.364 208.1H177.514C177.514 208.1 178.565 203.227 179.767 199.709L185.182 182.401H195.461L182.003 221.806C179.074 230.356 176.212 233.45 168.394 233.45H162.387V225.407Z" fill="white"/>
<path d="M209.095 187.417H209.32C212.098 183.375 215.261 181.354 220.517 181.354C228.485 181.354 233.825 187.342 233.825 195.734V220.834H223.604V197.239C223.604 193.081 221.193 190.195 216.929 190.195C212.415 190.195 209.111 193.788 209.111 199.036V220.834H198.882V167.266H209.103L209.095 187.417Z" fill="white"/>
<path d="M264.49 220.833V216.342H264.264C261.636 219.86 258.632 221.889 253.217 221.889C244.648 221.889 239.867 216.417 239.867 208.025V182.401H250.022V206.304C250.022 210.795 252.049 213.265 256.405 213.265C261.219 213.265 264.148 209.672 264.148 204.574V182.401H274.377V220.833H264.49Z" fill="white"/>
<path d="M290.955 216.043H290.805V220.834H280.951V167.266H291.181V187.043H291.406C292.53 185.229 294.117 183.747 296.006 182.747C297.894 181.747 300.016 181.266 302.153 181.354C311.848 181.354 318.765 189.671 318.765 201.655C318.765 214.131 312.148 221.965 302.453 221.965C297.038 221.965 293.208 219.636 290.955 216.043ZM308.394 201.655C308.394 194.536 305.532 189.596 299.825 189.596C293.358 189.596 290.955 194.761 290.955 201.88C290.955 208.999 294.485 213.415 300.2 213.415C305.457 213.415 308.394 209.074 308.394 201.655Z" fill="white"/>
<path d="M124.081 177.112C127.007 177.112 129.379 174.748 129.379 171.831C129.379 168.914 127.007 166.55 124.081 166.55C121.154 166.55 118.782 168.914 118.782 171.831C118.782 174.748 121.154 177.112 124.081 177.112Z" fill="white"/>
</svg>
