<svg width="400" height="400" viewBox="0 0 400 400" fill="none" xmlns="http://www.w3.org/2000/svg">
<g clip-path="url(#clip0_601_1524)">
<path d="M97.7758 233.101C93.5337 233.844 89.217 234.067 84.7515 234.66L71.1312 194.879V236.367C66.8891 236.813 63.0191 237.406 59 238V162H70.313L85.7933 205.122V162H97.7758V233.101ZM121.22 189.832C125.835 189.832 132.905 189.609 137.147 189.609V201.484C131.863 201.484 125.686 201.484 121.22 201.707V219.371C128.216 218.926 135.212 218.332 142.283 218.109V229.538L109.312 232.136V162H142.283V173.875H121.22V189.832ZM186.566 173.875H174.211V228.5C170.192 228.5 166.173 228.5 162.304 228.648V173.875H149.949V162H186.566L186.566 173.875ZM205.916 189.016H222.216V200.891H205.916V227.832H194.231V162H227.5V173.875H205.916V189.016ZM246.851 217.441C253.624 217.589 260.471 218.11 267.095 218.48V230.207C256.452 229.539 245.809 228.871 234.943 228.648V162H246.851V217.441ZM277.142 231.023C280.938 231.246 284.957 231.469 288.827 231.914V162H277.142V231.023ZM341 162L325.891 198.145L341 238C336.534 237.406 332.069 236.59 327.603 235.847L319.044 213.879L310.337 234.067C306.02 233.324 301.852 233.101 297.536 232.508L312.867 197.699L299.024 162H311.825L319.639 181.965L327.975 162L341 162Z" fill="white"/>
</g>
<defs>
<clipPath id="clip0_601_1524">
<rect width="282" height="76" fill="white" transform="translate(59 162)"/>
</clipPath>
</defs>
</svg>
