<svg width="400" height="400" viewBox="0 0 400 400" fill="none" xmlns="http://www.w3.org/2000/svg">
<g clip-path="url(#clip0_557_5795)">
<path d="M87.56 183.537C87.56 183.481 87.5051 183.424 87.45 183.424C74.9902 183.306 72.1675 183.383 70.6537 184.58C69.1449 185.773 68.7752 187.669 68.0109 193.834C67.9559 193.891 67.846 193.834 67.846 193.778C68.3956 190.33 68.7802 186.831 69.0001 183.327C69.055 183.214 69.11 183.101 69.3298 183.101C74.001 183.157 77.8429 183.214 80.9754 183.214C84.1078 183.214 87.1803 183.198 90.6425 183.101C90.6974 183.101 90.7524 183.157 90.7524 183.214C82.0944 197.652 74.9802 209.794 69.8794 218.637C69.7545 218.822 69.7694 218.976 69.9893 218.976C71.528 218.919 76.404 218.919 78.3025 218.919C85.8165 218.919 88.1395 218.503 89.5183 217.285C90.8973 216.078 91.5818 213.807 91.9614 207.395C92.0163 207.338 92.1262 207.395 92.1262 207.507C91.7765 210.755 91.6117 214.47 91.4668 219.032C91.4668 219.146 91.4118 219.202 91.3019 219.202C87.7848 219.13 83.4582 219.089 78.8321 219.089C76.469 219.089 71.8578 219.146 66.7469 219.202C66.637 219.202 66.582 219.146 66.582 219.089C73.3365 207.585 81.43 194.04 87.56 183.537Z" fill="white"/>
<path d="M122.631 219.032C124.72 219.032 126.643 219.074 126.918 218.807C127.193 218.539 128.162 216.15 128.732 214.398C129.296 212.646 130.82 207.955 132.743 202.138C134.502 196.881 136.92 189.708 139.497 182.705C139.518 182.664 139.548 182.648 139.583 182.648C139.617 182.648 139.648 182.659 139.668 182.705C143.035 193.495 144.414 198.022 147.431 207.718C150.453 217.409 150.963 218.601 151.333 218.791C151.703 218.976 152.357 219.089 155.484 219.032C155.595 219.146 155.485 219.202 155.375 219.202C152.392 219.146 150.583 219.089 149.085 219.089C146.992 219.089 144.294 219.104 142.48 219.202C142.48 219.146 142.59 219.032 142.7 219.032C145.943 219.032 147.886 219.032 147.886 218.735C147.886 218.488 147.731 217.722 147.042 215.338C146.347 212.954 145.423 210.231 143.804 205.031C143.804 204.974 143.694 204.917 143.64 204.917C142.815 204.974 140.182 204.989 137.724 204.989C135.266 204.989 133.377 204.897 132.153 204.897C132.098 204.897 131.954 204.954 131.954 205.067C130.635 209.193 127.637 218.026 127.637 218.688C127.637 218.971 128.312 219.084 132.488 219.028C132.653 219.028 132.763 219.084 132.708 219.197C131.664 219.14 128.791 219.084 127.088 219.084C125.384 219.084 123.296 219.14 122.581 219.197C122.471 219.197 122.526 219.084 122.636 219.028L122.631 219.032ZM132.403 204.733L143.52 204.748C143.575 204.748 143.684 204.692 143.684 204.635C142.021 199.209 140.387 193.793 138.279 186.954C138.243 186.826 138.188 186.805 138.134 186.939C135.771 193.773 133.592 199.985 132.109 204.62C132.109 204.733 132.163 204.733 132.399 204.733H132.403Z" fill="white"/>
<path d="M212.878 208.171C212.368 208.828 212.234 211.392 211.894 214.547C211.839 214.773 211.729 214.979 211.523 215.184C208.971 218.139 204.565 219.937 199.739 219.937C196.546 219.937 193.739 219.146 191.246 217.486C186.409 214.306 183.632 208.515 183.632 201.681C183.632 190.623 190.921 182.371 200.698 182.371C203.171 182.371 205.348 182.895 208.002 184.288C208.826 184.724 209.775 185.007 210.341 185.007C211.124 185.007 211.605 184.483 211.809 183.111H211.864L211.919 183.167C211.384 186.61 210.885 191.723 211.15 193.984C211.15 194.04 211.039 194.097 210.985 193.984C211.044 186.929 207.223 182.551 200.773 182.551C192.15 182.551 186.525 190.294 186.525 202.21C186.525 206.48 187.254 210.004 188.733 212.841C191.031 217.255 195.013 219.778 199.759 219.778C201.567 219.778 203.57 219.423 205.339 218.616C208.462 217.204 209.871 214.783 209.871 210.087C209.871 207.929 209.435 207.62 205.339 207.62C205.055 207.62 203.956 207.62 203.791 207.677C203.735 207.677 203.626 207.564 203.681 207.508C206.603 207.451 209.281 207.395 211.319 207.338C212.789 207.281 215.027 207.225 217.355 207.112C217.409 207.168 217.409 207.225 217.299 207.281C214.606 207.246 213.383 207.523 212.869 208.186L212.878 208.171Z" fill="white"/>
<path d="M243.863 219.032C245.951 219.032 247.875 219.074 248.15 218.807C248.424 218.539 249.393 216.15 249.963 214.398C250.527 212.646 252.051 207.955 253.974 202.138C255.733 196.881 258.152 189.708 260.73 182.705C260.749 182.664 260.778 182.648 260.814 182.648C260.849 182.648 260.879 182.659 260.899 182.705C264.266 193.495 265.645 198.022 268.663 207.718C271.686 217.409 272.195 218.601 272.565 218.791C272.935 218.976 273.588 219.089 276.716 219.032C276.827 219.146 276.716 219.202 276.606 219.202C273.624 219.146 271.816 219.089 270.316 219.089C268.223 219.089 265.526 219.104 263.712 219.202C263.712 219.146 263.822 219.032 263.932 219.032C267.174 219.032 269.117 219.032 269.117 218.735C269.117 218.488 268.963 217.722 268.273 215.338C267.579 212.954 266.654 210.231 265.036 205.031C265.036 204.974 264.926 204.917 264.871 204.917C264.047 204.974 261.414 204.989 258.956 204.989C256.498 204.989 254.609 204.897 253.385 204.897C253.33 204.897 253.185 204.954 253.185 205.067C251.866 209.193 248.87 218.026 248.87 218.688C248.87 218.971 249.544 219.084 253.72 219.028C253.885 219.028 253.994 219.084 253.94 219.197C252.896 219.14 250.023 219.084 248.319 219.084C246.616 219.084 244.527 219.14 243.812 219.197C243.703 219.197 243.758 219.084 243.868 219.028L243.863 219.032ZM253.634 204.733L264.75 204.748C264.806 204.748 264.915 204.692 264.915 204.635C263.252 199.209 261.619 193.793 259.51 186.954C259.475 186.826 259.42 186.805 259.366 186.939C257.003 193.773 254.824 199.985 253.341 204.62C253.341 204.733 253.395 204.733 253.63 204.733H253.634Z" fill="white"/>
<path d="M311.314 218.581C311.728 218.144 311.787 216.489 311.843 214.27C311.898 210.277 312.008 199.708 312.227 191.07C312.392 184.904 312.338 184.077 312.062 183.702C311.787 183.322 310.799 183.265 307.667 183.265C307.611 183.209 307.687 183.111 307.851 183.096C309.28 183.168 311.707 183.209 313.986 183.209C316.264 183.209 318.457 183.168 320.211 183.096C320.336 183.137 320.321 183.209 320.211 183.265C316.585 183.265 315.321 183.322 315.1 183.661C314.879 184 314.99 185.922 314.66 204.517C314.606 207.05 314.495 213.206 314.385 218.575C314.385 218.689 314.441 218.802 314.66 218.802C315.759 218.858 319.571 218.914 322.279 218.914C328.014 218.914 329.393 218.632 330.408 217.877C332.416 216.453 333.115 213.874 333.26 207.919C333.315 207.862 333.425 207.919 333.425 208.032C333.15 211.649 332.986 215.41 333.04 219.028C333.04 219.141 332.931 219.197 332.821 219.197C329.469 219.084 322.329 219.084 317.823 219.084C313.316 219.084 309.146 219.084 306.837 219.197C306.781 219.141 306.781 219.084 306.947 219.028C309.59 219.028 310.883 219.012 311.308 218.575L311.314 218.581Z" fill="white"/>
<path d="M153.404 143.409H155.471C156.311 143.409 156.876 143.836 156.876 144.736C156.876 145.636 156.311 146.063 155.471 146.063H153.404V143.409ZM152.803 149.372H153.404V146.591H155.604C156.735 146.591 157.477 145.909 157.477 144.736C157.477 143.564 156.735 142.882 155.604 142.882H152.803V149.372Z" fill="white"/>
<path d="M160.224 146.127C160.224 144.709 160.931 143.272 162.601 143.272C164.262 143.272 164.969 144.709 164.969 146.127C164.969 147.545 164.262 148.981 162.601 148.981C160.931 148.981 160.224 147.545 160.224 146.127ZM159.623 146.127C159.623 147.908 160.613 149.508 162.601 149.508C164.58 149.508 165.569 147.908 165.569 146.127C165.569 144.345 164.58 142.745 162.601 142.745C160.613 142.745 159.623 144.345 159.623 146.127Z" fill="white"/>
<path d="M168.099 149.372H172.234V148.845H168.699V142.882H168.099V149.372Z" fill="white"/>
<path d="M174.435 149.372H178.57V148.845H175.035V142.882H174.435V149.372Z" fill="white"/>
<path d="M181.037 146.127C181.037 144.709 181.743 143.272 183.413 143.272C185.075 143.272 185.781 144.709 185.781 146.127C185.781 147.545 185.075 148.981 183.413 148.981C181.743 148.981 181.037 147.545 181.037 146.127ZM180.436 146.127C180.436 147.908 181.425 149.508 183.413 149.508C185.393 149.508 186.382 147.908 186.382 146.127C186.382 144.345 185.393 142.745 183.413 142.745C181.425 142.745 180.436 144.345 180.436 146.127Z" fill="white"/>
<path d="M194.834 143.364C195.293 143.364 195.673 143.654 195.673 144.2C195.673 144.836 195.143 145.218 194.701 145.509C194.418 145.163 193.994 144.654 193.994 144.2C193.994 143.654 194.375 143.364 194.834 143.364ZM197.105 149.372H197.803L196.743 148.054C197.034 147.5 197.114 146.863 197.114 146.5H196.557C196.557 147 196.521 147.272 196.371 147.591L194.993 145.882C195.62 145.473 196.23 145.009 196.23 144.2C196.23 143.409 195.603 142.882 194.834 142.882C194.065 142.882 193.438 143.409 193.438 144.2C193.438 144.827 193.871 145.309 194.215 145.763C193.509 146.154 192.669 146.772 192.669 147.691C192.669 148.863 193.491 149.509 194.578 149.509C195.32 149.509 195.974 149.118 196.433 148.527L197.105 149.372ZM196.089 148.1C195.735 148.618 195.231 149.027 194.595 149.027C193.888 149.027 193.226 148.509 193.226 147.745C193.226 146.963 193.906 146.472 194.516 146.136L196.089 148.1Z" fill="white"/>
<path d="M209.215 144.845C209.048 143.491 207.881 142.745 206.679 142.745C204.691 142.745 203.702 144.345 203.702 146.127C203.702 147.908 204.691 149.508 206.679 149.508C208.154 149.508 209.136 148.499 209.303 146.899H208.702C208.587 148.054 207.846 148.981 206.679 148.981C205.009 148.981 204.302 147.545 204.302 146.127C204.302 144.709 205.009 143.272 206.679 143.272C207.598 143.272 208.402 143.845 208.615 144.845H209.215Z" fill="white"/>
<path d="M213.97 143.5L215.189 146.827H212.707L213.97 143.5ZM211.117 149.372H211.761L212.521 147.354H215.392L216.162 149.372H216.806L214.333 142.882H213.661L211.117 149.372Z" fill="white"/>
<path d="M219.571 143.409H221.816C222.725 143.409 223.176 143.9 223.176 144.7C223.176 145.491 222.548 145.963 221.816 145.963H219.571V143.409ZM218.97 149.372H219.571V146.491H221.851C222.981 146.445 223.07 147.454 223.113 148.363C223.141 148.636 223.141 149.127 223.281 149.372H223.944C223.679 149.054 223.679 148.154 223.652 147.709C223.609 146.927 223.371 146.363 222.548 146.245V146.227C223.361 146.054 223.777 145.4 223.777 144.573C223.777 143.4 222.893 142.882 221.859 142.882H218.97V149.372Z" fill="white"/>
<path d="M227.055 143.409H229.123C230.069 143.409 230.546 143.818 230.546 144.627C230.546 145.236 230.077 145.727 229.123 145.727H227.055V143.409ZM226.454 149.372H229.123C231.173 149.372 231.385 148.145 231.385 147.527C231.385 146.682 230.863 146.054 230.051 145.945V145.927C230.705 145.782 231.147 145.154 231.147 144.473C231.147 143.264 230.184 142.882 229.123 142.882H226.454V149.372ZM227.055 146.254H229.123C230.184 146.254 230.783 146.672 230.783 147.509C230.783 148.563 230.016 148.845 229.123 148.845H227.055V146.254Z" fill="white"/>
<path d="M234.202 146.127C234.202 144.709 234.91 143.273 236.58 143.273C238.241 143.273 238.948 144.709 238.948 146.127C238.948 147.545 238.241 148.981 236.58 148.981C234.91 148.981 234.202 147.545 234.202 146.127ZM233.602 146.127C233.602 147.909 234.592 149.508 236.58 149.508C238.559 149.508 239.549 147.909 239.549 146.127C239.549 144.345 238.559 142.745 236.58 142.745C234.592 142.745 233.602 144.345 233.602 146.127ZM237.967 141H237.278L236.35 142.282H236.801L237.967 141Z" fill="white"/>
<path d="M242.069 149.372H242.67V143.882H242.688L246.363 149.372H247.034V142.882H246.435V148.372H246.416L242.741 142.882H242.069V149.372Z" fill="white"/>
<path d="M181.025 259H181.626V253.391H181.644L183.809 259H184.374L186.53 253.391H186.548V259H187.149V252.51H186.265L184.091 258.2L181.909 252.51H181.025V259Z" fill="white"/>
<path d="M191.929 253.128L193.148 256.455H190.666L191.929 253.128ZM189.075 259H189.72L190.48 256.982H193.351L194.12 259H194.765L192.291 252.51H191.62L189.075 259Z" fill="white"/>
<path d="M196.708 259H198.891C200.799 258.955 201.789 257.9 201.789 255.755C201.789 253.609 200.799 252.555 198.891 252.51H196.708V259ZM197.309 253.037H198.59C200.401 253.037 201.188 253.81 201.188 255.755C201.188 257.7 200.401 258.473 198.59 258.473H197.309V253.037Z" fill="white"/>
<path d="M204.727 253.037H206.972C207.881 253.037 208.332 253.528 208.332 254.327C208.332 255.118 207.704 255.591 206.972 255.591H204.727V253.037ZM204.126 259H204.727V256.118H207.006C208.137 256.073 208.226 257.082 208.27 257.991C208.297 258.264 208.297 258.754 208.439 259H209.101C208.835 258.682 208.835 257.782 208.81 257.337C208.765 256.555 208.527 255.991 207.704 255.873V255.855C208.517 255.682 208.933 255.028 208.933 254.201C208.933 253.028 208.049 252.51 207.015 252.51H204.126V259Z" fill="white"/>
<path d="M211.434 259H212.034V252.51H211.434V259Z" fill="white"/>
<path d="M214.717 259H216.9C218.809 258.955 219.798 257.9 219.798 255.755C219.798 253.609 218.809 252.555 216.9 252.51H214.717V259ZM215.318 253.037H216.599C218.411 253.037 219.197 253.81 219.197 255.755C219.197 257.7 218.411 258.473 216.599 258.473H215.318V253.037Z" fill="white"/>
<path d="M308.834 224.275H310.47V229.002H311.026V222.64H310.576C310.408 223.803 309.807 223.839 308.834 223.867V224.275Z" fill="white"/>
<path d="M318.913 228.476H315.476C315.618 227.63 316.732 227.049 317.333 226.639C318.145 226.103 318.886 225.439 318.886 224.376C318.886 223.194 318.047 222.585 316.97 222.585C315.626 222.585 314.964 223.53 314.99 224.839H315.546C315.521 223.903 315.927 223.067 316.943 223.067C317.694 223.067 318.33 223.54 318.33 224.367C318.33 224.876 318.162 225.212 317.817 225.567C316.775 226.639 314.875 227.112 314.84 229.003H318.913V228.476Z" fill="white"/>
<path d="M323.522 222.585C321.719 222.585 321.366 224.376 321.366 225.867C321.366 227.349 321.719 229.139 323.522 229.139C325.325 229.139 325.679 227.349 325.679 225.858C325.679 224.376 325.325 222.585 323.522 222.585ZM323.522 223.067C324.936 223.067 325.122 224.757 325.122 225.858C325.122 226.967 324.936 228.658 323.522 228.658C322.109 228.658 321.922 226.967 321.922 225.858C321.922 224.757 322.109 223.067 323.522 223.067Z" fill="white"/>
<path d="M330.067 222.585C328.264 222.585 327.911 224.376 327.911 225.867C327.911 227.349 328.264 229.139 330.067 229.139C331.869 229.139 332.223 227.349 332.223 225.858C332.223 224.376 331.869 222.585 330.067 222.585ZM330.067 223.067C331.481 223.067 331.666 224.757 331.666 225.858C331.666 226.967 331.481 228.658 330.067 228.658C328.654 228.658 328.467 226.967 328.467 225.858C328.467 224.757 328.654 223.067 330.067 223.067Z" fill="white"/>
</g>
<defs>
<clipPath id="clip0_557_5795">
<rect width="267" height="118" fill="white" transform="translate(66.5 141)"/>
</clipPath>
</defs>
</svg>
