<svg width="400" height="400" viewBox="0 0 400 400" fill="none" xmlns="http://www.w3.org/2000/svg">
<path fill-rule="evenodd" clip-rule="evenodd" d="M198.383 111.266C198.406 111.413 198.406 112.291 198.383 113.218L198.341 114.903H196.561H194.781V116.5V118.097H196.561C198.303 118.097 198.341 118.119 198.341 119.166C198.341 119.923 198.005 120.534 197.192 121.259C196.161 122.177 195.97 122.231 195.333 121.786C194.125 120.942 191.788 121.159 190.507 122.234C189.888 122.754 189.244 123.539 189.076 123.98C188.857 124.553 188.568 124.729 188.062 124.597C187.672 124.496 186.776 124.603 186.069 124.836C184.881 125.227 184.716 125.19 183.87 124.347C182.84 123.32 181.125 122.881 179.519 123.232C178.433 123.47 176.273 125.552 176.273 126.361C176.273 126.652 175.774 126.76 174.761 126.688C172.8 126.551 171.156 127.548 170.539 129.249C170.216 130.138 169.862 130.516 169.35 130.518C168.386 130.521 166.648 131.686 166.077 132.712C165.826 133.163 165.615 134.032 165.608 134.644C165.599 135.44 165.334 135.927 164.676 136.357C163.509 137.119 162.779 138.874 163.008 140.365C163.106 141.001 163 141.744 162.774 142.016C161.917 143.046 161.684 144.74 162.223 146.025C162.585 146.889 162.634 147.452 162.388 147.911C161.761 149.077 161.984 150.978 162.872 152.044C163.332 152.596 163.816 153.49 163.949 154.032C164.081 154.574 164.489 155.315 164.855 155.68C165.54 156.363 168.385 157.128 170.24 157.128C171.092 157.128 171.291 157.279 171.292 157.926C171.293 158.958 172.47 160.875 173.408 161.376C174.123 161.758 174.112 161.806 172.893 163.612C172.207 164.626 171.646 165.647 171.646 165.88C171.646 166.8 172.782 167.418 174.475 167.418H176.186L176.008 168.991C175.868 170.223 176.019 170.901 176.703 172.122L177.577 173.68L175.412 175.025L173.248 176.372L170.579 173.543C166.475 169.194 155.208 157.383 151.197 153.225C135.003 136.437 134.986 136.418 134.986 134.669C134.986 131.593 132.413 129.896 129.203 130.855C128.297 131.125 127.083 131.967 125.937 133.118C121.926 137.148 122.046 142.701 126.16 143.47L127.377 143.698L126.191 148.018C122.866 160.123 122.209 171.706 124.275 181.807C125.256 186.599 125.821 193.221 125.545 196.691C125.421 198.252 124.834 201.605 124.241 204.142C122.979 209.547 122.785 214.495 123.699 218.004C124.008 219.188 125.306 222.222 126.584 224.746C127.861 227.27 129.242 230.612 129.652 232.174C130.098 233.869 130.789 235.499 131.369 236.22C131.903 236.884 134.356 238.88 136.821 240.655C144.713 246.339 147.52 249.193 150.462 254.528C152.379 258.005 156.148 262.962 159.035 265.806C161.044 267.784 162.243 268.586 165.762 270.305C168.118 271.455 171.56 273.395 173.412 274.616C176.66 276.756 177.833 277.811 182.547 282.833C184.977 285.422 187.494 287.026 190.69 288.024C202.499 291.713 222.782 284.795 244.121 269.802L247.369 267.52L249.821 270.072C251.17 271.476 255.066 275.549 258.479 279.126C261.893 282.701 264.983 285.785 265.345 285.978C266.371 286.526 268.574 286.427 269.835 285.776C271.963 284.68 272.972 281.888 271.915 280.022C271.678 279.602 267.909 275.5 263.541 270.906C259.174 266.312 255.586 262.424 255.569 262.267C255.552 262.108 257.124 261.068 259.062 259.955C262.744 257.838 268.893 255.275 273.441 253.96C276.443 253.091 277 252.763 277 251.861C277 251.515 274.476 248.7 271.391 245.606C268.306 242.512 263.541 237.65 260.802 234.802C257.892 231.775 254.679 228.826 253.072 227.705L250.322 225.787L250.581 224.013C251.08 220.591 250.846 211.423 250.178 208.223C248.732 201.288 245.654 194.107 241.821 188.722C238.349 183.844 232.355 178.256 227.348 175.228C225.978 174.399 224.805 173.675 224.742 173.618C224.678 173.562 224.898 172.992 225.23 172.352C225.677 171.491 225.785 170.658 225.648 169.146L225.462 167.103L226.543 166.994C227.137 166.934 227.835 166.566 228.093 166.176C228.503 165.556 228.433 165.259 227.546 163.839L226.53 162.212L227.765 161.767C229.136 161.273 230.37 159.577 230.372 158.185C230.374 157.368 230.57 157.253 232.598 156.871C234.329 156.545 235.04 156.21 235.802 155.365C236.34 154.767 236.78 154.046 236.78 153.763C236.78 153.481 237.099 153.079 237.489 152.872C238.615 152.271 239.371 150.479 239.119 149.008C238.856 147.468 238.857 147.149 239.132 144.968C239.294 143.678 239.194 143.046 238.711 142.311C238.279 141.653 238.106 140.803 238.168 139.636C238.251 138.08 238.144 137.816 236.986 136.728C236.156 135.948 235.713 135.207 235.713 134.602C235.713 132.645 233.635 130.516 231.726 130.516C231.453 130.516 231.022 129.946 230.769 129.249C230.189 127.649 228.537 126.616 226.557 126.614C225.242 126.612 224.983 126.477 224.493 125.532C223.783 124.164 221.998 123.067 220.479 123.066C219.128 123.064 217.388 123.865 216.917 124.705C216.637 125.203 216.414 125.222 215.274 124.847C214.548 124.608 213.636 124.496 213.246 124.597C212.741 124.729 212.451 124.553 212.233 123.98C211.365 121.704 208.313 120.643 206.038 121.826C205.05 122.34 204.968 122.315 203.635 121.114C202.875 120.43 202.094 119.871 201.899 119.871C201.704 119.871 201.544 119.472 201.544 118.984C201.544 118.145 201.651 118.097 203.502 118.097H205.459V116.518V114.94L203.59 114.833L201.722 114.726L201.771 112.863L201.821 111H200.081C199.124 111 198.359 111.12 198.383 111.266ZM201.502 121.683C203.765 122.47 204.253 125.477 202.358 126.963C201.039 127.998 199.556 127.879 198.313 126.64C196.703 125.034 196.994 122.913 198.972 121.843C200.163 121.199 200.117 121.202 201.502 121.683ZM194.4 123.228C195.494 123.792 195.849 124.416 195.849 125.77C195.849 126.942 194.347 128.387 193.13 128.387C190.69 128.387 189.522 124.955 191.448 123.445C192.56 122.572 193.057 122.536 194.4 123.228ZM209.924 123.58C212.46 126.108 209.211 129.858 206.397 127.651C204.893 126.472 205.246 123.77 206.995 123.067C208.296 122.544 209.011 122.669 209.924 123.58ZM182.947 125.758C185.061 128.117 182.514 131.561 179.569 130.326C177.303 129.377 177.112 126.472 179.229 125.168C180.607 124.32 181.831 124.514 182.947 125.758ZM221.604 124.972C223.172 125.625 223.877 127.245 223.25 128.755C222.709 130.055 221.933 130.516 220.279 130.516C218.05 130.516 216.797 127.856 218.133 125.956C218.59 125.305 219.529 124.685 220.33 124.506C220.385 124.494 220.958 124.703 221.604 124.972ZM189.073 126.605C189.95 127.073 190.563 128.913 190.178 129.923C189.043 132.896 184.815 132.235 184.815 129.084C184.815 126.81 187.035 125.518 189.073 126.605ZM215.669 127.029C217.249 128.509 216.468 131.295 214.342 131.761C212.457 132.174 210.505 130.308 210.954 128.522C211.503 126.344 214.07 125.531 215.669 127.029ZM207.044 129.756C207.767 129.955 208.55 130.045 208.783 129.956C209.016 129.867 209.516 130.368 209.895 131.069C210.274 131.771 211.04 132.58 211.599 132.868C212.343 133.251 212.557 133.569 212.402 134.056C212.134 134.898 213.096 137.233 213.96 137.836C214.413 138.152 214.616 138.737 214.616 139.721C214.616 140.507 214.822 141.395 215.073 141.697C215.455 142.155 215.389 142.395 214.677 143.151C214.043 143.823 213.823 144.458 213.823 145.616V147.175L212.283 147.406C210.396 147.688 208.213 147.414 206.43 146.671C205.217 146.166 205.126 146.039 205.492 145.357C205.717 144.938 205.81 143.955 205.701 143.147C205.57 142.173 205.674 141.465 206.016 141.004C206.731 140.039 206.652 138.2 205.853 137.216C205.192 136.402 205.192 136.37 205.853 135.532C206.88 134.23 206.728 132.436 205.486 131.198C204.914 130.627 204.108 130.161 203.696 130.161C202.557 130.161 202.352 129.117 203.344 128.371C204.164 127.754 204.208 127.759 204.958 128.565C205.381 129.021 206.32 129.557 207.044 129.756ZM176.33 128.987C177.22 129.764 177.424 131.101 176.828 132.25C175.937 133.968 173.928 134.242 172.52 132.838C171.407 131.729 171.376 130.175 172.447 129.203C173.837 127.942 175.057 127.874 176.33 128.987ZM197.133 128.593C197.014 128.902 196.917 129.299 196.917 129.475C196.917 129.652 196.396 130.016 195.76 130.285C193.32 131.314 192.52 133.623 193.885 135.7C194.446 136.553 194.444 136.649 193.849 137.304C193.073 138.159 193.077 140.148 193.857 141.335C194.171 141.812 194.399 142.726 194.365 143.367C194.331 144.007 194.421 144.94 194.564 145.44C194.779 146.19 194.673 146.418 193.959 146.742C192.607 147.357 189.955 147.651 188.174 147.385C186.596 147.149 186.556 147.113 186.781 146.094C186.944 145.352 186.794 144.68 186.267 143.788C185.59 142.646 185.571 142.46 186.058 141.766C186.354 141.346 186.595 140.424 186.595 139.717C186.595 138.861 186.845 138.206 187.343 137.756C188.431 136.775 189.176 135.163 188.991 134.194C188.865 133.537 189.085 133.193 189.994 132.633C190.635 132.239 191.331 131.423 191.542 130.821C191.811 130.05 192.088 129.789 192.476 129.938C193.221 130.222 195.901 129.27 196.286 128.583C196.693 127.86 197.412 127.868 197.133 128.593ZM228.861 129.322C229.302 129.805 229.662 130.598 229.662 131.084C229.662 132.329 228.166 133.709 226.814 133.709C225.489 133.709 223.967 132.337 223.967 131.143C223.967 130.102 224.88 128.782 225.874 128.387C226.921 127.97 227.911 128.28 228.861 129.322ZM201.188 130.28C201.188 131.783 199.609 132.499 198.7 131.407C198.126 130.718 198.521 129.188 199.32 129.007C200.292 128.786 201.188 129.397 201.188 130.28ZM180.586 132.29C181.185 132.29 181.225 132.394 180.875 133.047C180.646 133.474 180.562 134.385 180.683 135.138C180.845 136.152 180.765 136.523 180.349 136.683C179.635 136.956 178.675 139.257 178.935 140.072C179.05 140.434 178.888 140.911 178.555 141.187C177.652 141.934 175.206 145.841 175.206 146.537C175.206 146.879 175.389 147.561 175.614 148.052C176.127 149.174 175.609 149.883 173.634 150.766C172.293 151.366 172.193 151.363 170.979 150.715C169.315 149.826 168.591 147.717 169.397 146.107C169.748 145.406 169.849 144.592 169.698 143.697C169.531 142.715 169.614 142.226 170.001 141.906C170.293 141.664 170.641 140.975 170.773 140.374C170.906 139.774 171.636 138.692 172.398 137.97C173.159 137.248 173.782 136.426 173.782 136.144C173.782 135.835 174.421 135.46 175.386 135.202C176.615 134.875 177.22 134.444 177.967 133.367C178.517 132.573 179.149 132.031 179.417 132.124C179.677 132.215 180.204 132.29 180.586 132.29ZM186.369 132.67C187.599 133.634 187.622 135.201 186.425 136.395C184.896 137.919 182.319 136.808 182.329 134.63C182.336 133.363 182.578 132.919 183.57 132.359C184.615 131.768 185.318 131.846 186.369 132.67ZM197.967 132.446C199.313 134.062 197.059 136.363 195.504 134.96C194.698 134.233 194.558 133.009 195.209 132.361C195.797 131.774 197.45 131.826 197.967 132.446ZM204.544 132.492C205.274 133.22 205.25 133.804 204.451 134.788C203.14 136.402 200.53 134.534 201.52 132.689C202.009 131.778 203.716 131.667 204.544 132.492ZM218.046 132.67C219.126 133.517 219.28 134.904 218.43 136.114C218.019 136.699 217.519 136.902 216.493 136.902C214.915 136.902 214.001 135.972 214.001 134.365C214.001 133.323 215.424 131.935 216.493 131.935C216.831 131.935 217.531 132.266 218.046 132.67ZM222.544 132.262C222.544 133.068 224.485 134.79 225.789 135.139C226.732 135.393 227.306 135.791 227.515 136.34C227.687 136.791 228.382 137.622 229.059 138.185C229.774 138.779 230.392 139.682 230.533 140.338C230.666 140.958 231.004 141.655 231.284 141.887C231.642 142.183 231.728 142.707 231.576 143.656C231.432 144.557 231.548 145.381 231.927 146.137C232.329 146.941 232.392 147.457 232.145 147.917C231.954 148.274 231.798 148.895 231.798 149.298C231.798 149.701 231.595 150.031 231.347 150.031C231.1 150.031 230.296 150.352 229.562 150.745C228.236 151.453 228.215 151.453 226.874 150.77C224.86 149.747 224.537 149.229 225.012 147.792C225.486 146.362 225.333 145.879 223.55 143.175C222.629 141.779 222.187 140.71 222.187 139.876C222.187 138.512 221.319 136.548 220.715 136.548C220.469 136.548 220.41 136.113 220.554 135.349C220.678 134.69 220.623 133.742 220.433 133.242C220.119 132.42 220.177 132.32 221.048 132.187C221.577 132.107 222.129 132.017 222.277 131.988C222.423 131.959 222.544 132.082 222.544 132.262ZM133.047 133.155C133.397 133.688 133.571 134.562 133.5 135.434C133.385 136.837 133.446 136.913 141.749 145.652C146.349 150.494 155.018 159.573 161.012 165.829L171.911 177.202L169.516 179.2L167.121 181.197L161.854 175.638C158.958 172.58 155.205 168.642 153.514 166.885C151.824 165.129 145.692 158.725 139.887 152.653L129.334 141.615L127.582 141.783C126.047 141.93 125.757 141.848 125.247 141.122C124.36 139.86 124.535 138.025 125.742 135.928C127.067 133.624 128.926 132.339 130.974 132.311C132.188 132.294 132.588 132.456 133.047 133.155ZM171.646 132.999C172.042 133.394 172.358 134.182 172.358 134.773C172.358 137.222 169.507 138.2 167.82 136.331C166.825 135.228 166.809 134.426 167.757 133.225C168.681 132.053 170.586 131.943 171.646 132.999ZM233.551 133.225C234.505 134.434 234.483 135.219 233.459 136.406C231.834 138.288 228.95 137.219 228.95 134.734C228.95 132.398 232.087 131.369 233.551 133.225ZM200.816 135.286C201.051 135.568 201.19 136.167 201.126 136.617C200.913 138.117 198.341 137.75 198.341 136.22C198.341 134.915 199.989 134.293 200.816 135.286ZM168.364 137.81C168.916 138.195 169.155 138.724 169.155 139.564C169.155 141.637 166.715 142.631 165.24 141.16C163.181 139.108 165.958 136.13 168.364 137.81ZM184.548 138.392C185.787 139.82 184.848 141.87 182.955 141.87C180.611 141.87 179.681 139.405 181.49 137.986C182.564 137.144 183.583 137.279 184.548 138.392ZM197.549 137.81C198.902 138.754 198.258 141.16 196.652 141.16C195.792 141.16 194.781 140.088 194.781 139.174C194.781 138.485 195.921 137.257 196.561 137.257C196.67 137.257 197.114 137.506 197.549 137.81ZM204.784 138.596C205.568 140.651 202.901 142.117 201.7 140.291C201.006 139.234 201.307 138.031 202.363 137.642C203.48 137.23 204.402 137.593 204.784 138.596ZM219.826 137.993C221.553 139.347 220.658 141.87 218.45 141.87C216.28 141.87 215.442 139.692 217.011 138.128C218.076 137.066 218.611 137.04 219.826 137.993ZM236.055 138.034C236.976 139.019 236.981 140.25 236.068 141.16C234.634 142.59 232.153 141.639 232.153 139.66C232.153 137.431 234.556 136.43 236.055 138.034ZM200.652 139.967C200.977 140.091 201.386 140.57 201.562 141.031C201.752 141.528 202.173 141.87 202.595 141.87C203.636 141.87 204.549 143.397 204.056 144.315C203.844 144.71 203.392 145.201 203.052 145.406C202.496 145.741 202.558 145.886 203.659 146.835C205.519 148.437 207.83 149.063 211.264 148.895C212.939 148.812 214.775 148.491 215.58 148.14C216.97 147.533 216.975 147.524 216.203 146.986C214.597 145.865 215.476 143.644 217.525 143.644C217.922 143.644 218.419 143.325 218.628 142.935C219.359 141.573 221.832 142.205 221.832 143.753C221.832 144.125 222.232 144.743 222.721 145.127C223.717 145.908 223.887 147.232 223.077 147.902C222.312 148.535 222.41 149.017 223.558 150.27C224.712 151.53 226.429 152.5 228.22 152.905C229.218 153.13 229.535 153.057 229.918 152.512C230.306 151.959 230.73 151.867 232.345 151.984C234.722 152.157 235.001 152.31 235.001 153.441C235.001 154.643 233.222 155.354 230.211 155.354C226.148 155.354 222.836 153.604 220.744 150.354L219.616 148.603L218.437 149.33C217.788 149.729 216.411 150.343 215.377 150.693L213.496 151.331L216.863 152.143C218.715 152.59 221.832 153.528 223.789 154.228C228.764 156.007 229.866 157.291 228.212 159.386C227.677 160.065 227.147 160.321 226.279 160.321C225.421 160.321 225.023 160.51 224.871 160.988C224.647 161.69 223.322 162.095 221.253 162.095C220.593 162.095 220.052 162.182 220.052 162.288C220.052 162.394 220.669 163.312 221.424 164.328C222.178 165.344 222.905 166.415 223.039 166.708C223.173 167.001 223.515 167.639 223.798 168.127C224.523 169.377 224.446 170.715 223.585 171.805C222.66 172.978 221.76 172.983 219.149 171.832C218.016 171.332 215.233 170.434 212.965 169.836C209.368 168.887 208.064 168.725 202.77 168.572C195.295 168.356 191.035 168.944 185.172 171.004C179.536 172.985 179.38 173.004 178.46 171.838C177.638 170.796 177.454 168.888 178.065 167.749C178.374 167.175 178.315 167.063 177.709 167.063C176.716 167.063 176.777 166.876 178.409 164.934C179.192 164.001 179.833 163.08 179.833 162.886C179.833 162.42 178.588 162.106 176.718 162.1C175.165 162.095 174.981 161.933 175.536 161.059C175.772 160.687 175.562 160.41 174.73 159.995C173.164 159.214 172.478 157.717 173.189 156.635C173.844 155.639 178.963 153.631 183.833 152.461C185.739 152.003 187.301 151.526 187.303 151.401C187.305 151.277 186.76 151.072 186.09 150.947C185.421 150.822 183.944 150.252 182.809 149.681C181.316 148.931 180.679 148.762 180.507 149.071C177.977 153.623 174.522 155.57 169.484 155.279C166.388 155.1 165.506 154.633 165.666 153.255C165.764 152.423 165.969 152.311 167.901 152.044C169.804 151.78 170.089 151.824 170.606 152.461C171.079 153.043 171.407 153.124 172.395 152.901C174.232 152.486 175.694 151.62 176.932 150.214C178.203 148.771 178.267 148.521 177.519 147.902C176.766 147.279 176.856 145.876 177.697 145.159C178.088 144.824 178.409 144.319 178.409 144.037C178.409 143.217 179.513 142.225 180.425 142.225C180.886 142.225 181.537 142.544 181.873 142.935C182.208 143.325 182.836 143.644 183.268 143.644C185.033 143.644 185.842 145.974 184.422 146.966C183.68 147.484 183.686 147.497 184.866 148.115C186.664 149.057 191.826 149.235 193.992 148.431C196.111 147.644 198.321 146.057 197.605 145.837C195.661 145.24 195.269 143.23 196.915 142.297C197.501 141.965 197.981 141.545 197.982 141.366C197.986 140.861 199.109 139.741 199.612 139.741C199.86 139.741 200.328 139.843 200.652 139.967ZM167.436 142.812C168.856 144.093 167.723 146.838 165.773 146.838C165.284 146.838 164.563 146.518 164.172 146.128C162.097 144.059 165.259 140.847 167.436 142.812ZM236.638 142.496C237.56 143.11 237.922 144.385 237.477 145.455C236.596 147.574 233.509 147.057 233.285 144.753C233.213 144.006 233.395 143.331 233.785 142.901C234.401 142.223 235.906 142.009 236.638 142.496ZM199.497 143.184C198.762 143.456 198.964 144.709 199.743 144.709C200.123 144.709 200.543 144.534 200.675 144.32C200.981 143.827 200.088 142.966 199.497 143.184ZM180.426 145.3C179.904 145.82 180.204 146.838 180.879 146.838C181.788 146.838 182.138 146.227 181.599 145.58C181.129 145.016 180.792 144.935 180.426 145.3ZM218.866 145.3C218.352 145.812 218.643 146.838 219.302 146.838C220.116 146.838 220.506 146.013 219.953 145.462C219.496 145.006 219.204 144.963 218.866 145.3ZM146.37 161.744C154.849 170.657 159.729 175.753 163.244 179.369L166.067 182.273L164.218 184.289C163.201 185.398 161.626 187.365 160.717 188.659C159.809 189.954 158.934 191.164 158.774 191.348C157.799 192.465 146.951 178.296 141.674 169.014C139.421 165.051 137.82 161.818 135.868 157.293C134.372 153.825 132.126 147.743 132.146 147.214C132.155 146.968 137.707 152.639 146.37 161.744ZM198.671 148.355C197.973 148.984 197.092 149.689 196.714 149.921C196.159 150.263 196.847 150.344 200.298 150.344C203.748 150.344 204.438 150.263 203.886 149.921C203.51 149.689 202.609 148.98 201.885 148.346C201.161 147.711 200.427 147.197 200.255 147.202C200.083 147.207 199.371 147.726 198.671 148.355ZM167.501 148.523C168.1 149.69 167.758 150.866 166.65 151.457C165.521 152.06 164.325 151.61 163.819 150.393C163.176 148.846 164.067 147.547 165.773 147.547C166.754 147.547 167.101 147.743 167.501 148.523ZM237.439 148.741C237.874 149.648 237.851 149.858 237.229 150.693C236.247 152.01 234.919 152.087 233.968 150.882C232.69 149.263 233.642 147.447 235.68 147.618C236.678 147.702 237.058 147.944 237.439 148.741ZM193.18 152.535C188.504 153.016 184.4 153.82 180.366 155.042C175.32 156.572 174.555 157.17 175.681 158.705C176.138 159.328 176.267 159.318 178.973 158.434C187.178 155.754 193.74 154.845 202.968 155.111C210.994 155.342 215.564 156.111 222.645 158.42C224.169 158.917 225.65 159.233 225.937 159.124C226.231 159.011 226.459 158.471 226.459 157.887C226.459 157.01 226.241 156.763 225.049 156.288C222.533 155.284 215.691 153.599 211.864 153.042C207.207 152.362 197.427 152.097 193.18 152.535ZM198.253 157.964C197.519 158.382 196.918 158.833 196.918 158.966C196.917 159.098 197.612 159.553 198.463 159.976L200.008 160.746L201.728 159.875L203.447 159.004L201.842 158.066C199.971 156.973 199.992 156.973 198.253 157.964ZM187.129 159.267C182.946 160.143 182.324 160.441 182.324 161.566C182.324 162.074 182.578 162.569 182.9 162.693C183.472 162.912 190.12 161.539 191.311 160.956C192.029 160.604 192.129 159.593 191.507 158.973C190.983 158.45 191.055 158.446 187.129 159.267ZM208.539 159.075C207.222 160.389 208.028 160.954 212.693 161.986C216.066 162.733 216.936 162.82 217.376 162.456C217.972 161.962 218.051 161.436 217.626 160.77C217.473 160.529 216.074 160.021 214.518 159.64C209.759 158.476 209.194 158.423 208.539 159.075ZM226.039 164.215C226.466 164.79 226.814 165.346 226.814 165.452C226.814 165.557 226.204 165.644 225.458 165.644C224.367 165.644 223.948 165.438 223.322 164.593C222.894 164.016 222.544 163.483 222.544 163.409C222.544 163.336 223.156 163.252 223.904 163.223C225.029 163.179 225.398 163.35 226.039 164.215ZM176.985 164.579C176.358 165.457 175.976 165.644 174.805 165.644H173.386L174.016 164.579C174.563 163.656 174.852 163.515 176.196 163.515H177.745L176.985 164.579ZM196.027 164.255C191.827 164.585 188.14 165.318 184.46 166.556C180.254 167.97 179.315 168.519 179.186 169.638C179.014 171.131 179.799 171.158 183.646 169.795C195.386 165.632 208.223 165.779 219.376 170.202C220.824 170.777 222.129 171.174 222.277 171.086C222.712 170.822 222.58 168.954 222.099 168.557C221.408 167.987 218.059 166.781 214.535 165.833C209 164.344 202.24 163.767 196.027 164.255ZM139.815 169.813C141.127 172.106 142.597 174.667 143.081 175.505C143.894 176.911 143.929 177.154 143.539 178.698C142.656 182.186 142.697 186.09 143.674 191.656C144.74 197.736 144.862 202.924 144.066 208.4C142.821 216.969 143.628 222.277 147.604 231.682L149.161 235.367L150.952 235.768C151.937 235.988 153.803 236.237 155.099 236.318C157.109 236.446 157.429 236.387 157.278 235.918C157.18 235.615 156.693 234.292 156.195 232.977C154.981 229.774 153.859 224.127 153.609 219.964C153.351 215.669 154.023 209.262 154.913 207.522C157.07 203.308 163.012 198.718 167.187 198.043L168.329 197.858L168.163 200.724C168.022 203.15 168.146 204.067 168.969 206.699C170.891 212.844 174.549 218.816 179.562 223.993C181.273 225.761 182.672 227.286 182.67 227.383C182.669 227.481 181.269 228.396 179.56 229.417C169.753 235.271 163.431 237.153 153.672 237.125C148.612 237.11 147.586 237.001 144.465 236.146C137.834 234.33 135.022 232.273 129.805 225.423C126.623 221.246 126.693 221.2 130.566 224.919C135.08 229.254 138.959 231.931 142.853 233.399L144.774 234.123L143.528 233.16C136.49 227.717 134.981 220.667 137.887 206.803C138.947 201.748 139.04 200.774 139.04 194.739L139.039 188.175L137.554 182.636C135.672 175.619 135.419 173.085 136.213 169.179C136.792 166.331 137.002 165.644 137.296 165.644C137.369 165.644 138.503 167.52 139.815 169.813ZM202.078 170.701C198.191 173.531 194.448 178.228 192.464 182.77C191.508 184.956 191.315 185.174 190.165 185.365C186.343 186.002 180.359 187.853 177.341 189.331C174.686 190.632 173.434 191.519 171.51 193.461C169.519 195.471 168.82 195.956 167.773 196.057C164.747 196.347 161.277 198.062 157.984 200.897C155.439 203.086 155.467 202.85 158.473 196.691C166.335 180.587 182.638 170.166 200.298 169.957L203.146 169.924L202.078 170.701ZM212.844 171.386C214.46 171.788 215.78 172.218 215.779 172.34C215.779 172.462 214.698 173.118 213.377 173.796C210.583 175.231 205.842 179.717 204.126 182.549L203.02 184.376L206.642 186.768C211.375 189.894 218.881 195.514 221.973 198.247C223.324 199.44 224.559 200.417 224.719 200.417C224.878 200.417 226.192 199.068 227.638 197.419C231.439 193.084 233.916 188.012 233.929 184.538C233.931 183.904 234.061 183.385 234.217 183.385C234.59 183.385 236.631 185.536 238.689 188.098L240.336 190.15L239.047 192.711C237.048 196.678 233.679 201.363 230.549 204.524L227.699 207.404L224.142 207.834C220.263 208.303 214.392 209.592 210.885 210.744L208.659 211.475L207.148 210.37C202.787 207.181 197.514 200.932 195.353 196.391C192.489 190.374 192.341 187.432 194.66 182.64C197.093 177.615 200.077 174.217 204.595 171.329C206.599 170.047 207.495 170.053 212.844 171.386ZM222.196 174.873C224.826 176.191 225.003 176.349 224.594 177.002C224.059 177.855 223.665 177.883 222.606 177.144C220.93 175.973 220.065 177.463 221.684 178.732C222.616 179.464 222.599 179.765 221.554 180.979C221.063 181.55 220.929 181.518 219.502 180.497C218.662 179.896 217.802 179.51 217.59 179.641C216.835 180.106 217.224 181.177 218.448 182.009C219.956 183.033 219.987 183.404 218.686 184.855L217.676 185.982L216.041 184.861C214.172 183.578 213.289 183.437 213.289 184.419C213.289 184.957 214.58 186.223 216.443 187.513C216.513 187.562 216.205 188.13 215.757 188.775C215.31 189.421 214.913 189.994 214.877 190.049C214.839 190.104 213.14 188.986 211.1 187.566C209.06 186.144 206.998 184.724 206.517 184.408C205.689 183.865 205.671 183.783 206.174 182.826C206.466 182.271 207.853 180.668 209.257 179.265C211.213 177.307 212.571 176.331 215.076 175.081C216.874 174.183 218.572 173.45 218.85 173.45C219.128 173.45 220.634 174.09 222.196 174.873ZM229.589 179.349L232.249 181.344L232.063 184.05C231.77 188.306 229.63 192.628 225.76 196.783L224.683 197.939L220.677 194.72C218.474 192.95 216.631 191.392 216.584 191.258C216.536 191.123 216.873 190.544 217.334 189.97L218.171 188.927L220.008 190.272C221.044 191.03 222.075 191.528 222.373 191.415C223.22 191.091 222.98 189.974 221.92 189.32C221.382 188.987 220.568 188.397 220.112 188.01L219.282 187.305L220.29 185.885C220.844 185.104 221.419 184.461 221.568 184.457C221.716 184.453 222.501 184.928 223.311 185.514C224.443 186.331 224.896 186.485 225.266 186.18C226.038 185.541 225.824 185.047 224.316 183.983C222.701 182.844 222.655 182.7 223.558 181.588L224.216 180.778L225.525 181.583C227.86 183.022 228.818 181.697 226.639 180.04C225.433 179.123 225.413 179.069 225.968 178.224C226.283 177.744 226.628 177.353 226.735 177.353C226.841 177.353 228.126 178.251 229.589 179.349ZM191.222 188.998C191.222 192.351 193.48 197.793 196.801 202.441C198.595 204.953 202.88 209.469 205.226 211.322L206.594 212.403L202.378 214.585C200.06 215.786 195.152 218.837 191.472 221.366C187.792 223.895 184.638 225.964 184.464 225.964C183.825 225.964 178.417 220.228 176.527 217.547C172.887 212.382 170.326 206.447 169.978 202.368C169.538 197.219 172.937 193.085 180.028 190.142C182.843 188.974 188.678 187.359 190.243 187.315C191.179 187.289 191.222 187.363 191.222 188.998ZM243.7 195.981C247.368 203.115 249.106 211.103 248.783 219.338C248.677 222.036 248.51 224.325 248.41 224.424C247.931 224.902 235.16 215.44 231.289 211.738L228.466 209.041L231.051 206.609C234.118 203.725 237.538 199.281 239.845 195.183C240.763 193.553 241.636 192.348 241.786 192.503C241.936 192.66 242.797 194.225 243.7 195.981ZM238.804 219.666L241.586 221.884L236.78 222.11C228.902 222.482 223.375 223.682 216.333 226.55C210.088 229.093 206.685 231.12 199.052 236.838C196.41 238.818 192.902 241.27 191.257 242.287C188.101 244.237 181.429 247.609 180.726 247.609C180.497 247.609 179.041 246.885 177.491 246.001C175.94 245.117 174.311 244.301 173.871 244.189C173.43 244.076 173.072 243.881 173.074 243.756C173.077 243.631 174.238 243.068 175.655 242.506C178.381 241.423 183.336 238.778 186.595 236.665C188.428 235.477 190.936 233.656 196.027 229.814C205.156 222.927 217.987 218.494 230.73 217.826C233.568 217.678 235.92 217.532 235.956 217.502C235.992 217.473 237.274 218.446 238.804 219.666ZM256.418 232.602L258.932 234.628L254.094 235.233C241.016 236.869 235.269 239.121 219.082 248.95C209.57 254.726 197.666 260.155 192.104 261.255C191.073 261.459 190.982 261.372 189.88 259.144C189.248 257.866 188.731 256.744 188.731 256.65C188.731 256.556 189.038 256.479 189.414 256.479C190.339 256.479 195.961 254.483 198.163 253.373C201.323 251.779 205.121 249.382 212.933 244.051C221.479 238.219 224.984 236.15 229.397 234.328C235.61 231.765 241.409 230.664 248.99 230.611L253.903 230.577L256.418 232.602ZM268.104 244.745C269.309 246.097 270.286 247.325 270.276 247.475C270.255 247.766 269.992 247.805 266.144 248.087C255.94 248.832 243.589 254.069 233.399 261.97C223.441 269.692 212.918 275.167 203.425 277.566C200.029 278.424 192.755 279.415 192.406 279.067C192.319 278.981 192.458 277.436 192.714 275.633L193.18 272.355L197.807 271.186C209.658 268.194 218.155 264.335 229.564 256.764C243.086 247.791 249.402 244.651 257.246 243.008C259.008 242.638 261.678 242.325 263.181 242.311L265.912 242.286L268.104 244.745ZM166.967 243.869C182.067 247.054 192.478 260.714 190.836 275.187C190.527 277.909 189.148 282.983 188.406 284.128C187.895 284.918 186.609 283.924 181.79 279.021C176.995 274.142 174.203 272.157 167.384 268.787C164.104 267.165 162.356 266.043 160.688 264.489C157.868 261.863 154.484 257.394 152.011 253.033C150.967 251.191 149.333 248.811 148.379 247.743C147.426 246.676 146.734 245.714 146.841 245.607C147.229 245.22 153.011 243.682 155.274 243.363C158.283 242.939 163.666 243.172 166.967 243.869ZM166.948 245.196C167.661 245.907 167.435 246.189 166.155 246.189C164.826 246.189 163.816 246.942 163.816 247.932C163.816 249.44 166.03 252.887 168.583 255.355C171.524 258.198 173.761 259.395 177.341 260.044C180.943 260.696 182.517 261.37 184.422 263.077C186.545 264.981 188.172 267.949 187.638 268.944C186.852 270.408 183.927 269.306 179.563 265.901C178.15 264.799 177.08 264.105 177.184 264.358C177.288 264.611 179.621 267.053 182.369 269.785C185.796 273.193 187.18 274.381 186.776 273.568C186.058 272.122 186.285 271.382 187.448 271.382C192.892 271.382 185.348 258.954 177.74 255.389C176.878 254.985 174.914 254.434 173.375 254.164C169.853 253.547 168.377 252.849 166.865 251.088C165.448 249.437 165.157 248.567 165.752 247.756C166.131 247.239 166.363 247.217 167.504 247.593C168.228 247.83 169.641 248.576 170.645 249.25C173.492 251.16 173.453 251.058 170.1 247.815C168.369 246.14 166.855 244.77 166.737 244.77C166.618 244.77 166.713 244.962 166.948 245.196ZM157.083 245.302C157.079 245.498 157.311 245.967 157.598 246.346C158.373 247.367 158.248 247.609 156.943 247.609C155.09 247.609 154.409 248.306 154.674 249.931C154.991 251.878 156.989 254.576 160.821 258.228C164.368 261.608 166.938 263.242 171.393 264.947C172.917 265.53 174.857 266.413 175.704 266.907C177.569 267.997 179.477 270.086 179.477 271.04C179.477 272.59 176.435 271.504 172.638 268.598C171.324 267.592 170.128 266.769 169.98 266.769C169.832 266.769 171.132 268.086 172.868 269.697C175.868 272.48 177.029 273.378 176.48 272.493C176.183 272.014 176.372 272.008 178.231 272.438C180.141 272.879 181.431 272.124 181.089 270.767C180.534 268.562 176.538 264.23 173.07 262.075C171.993 261.405 169.431 260.254 167.375 259.517C162.94 257.925 160.906 256.713 158.67 254.33C157.051 252.605 155.883 250.546 156.216 250.007C156.308 249.859 156.8 249.738 157.31 249.738C158.658 249.738 161.031 251.194 166.197 255.191C168.257 256.785 166.983 255.209 162.212 250.261C159.395 247.338 157.087 245.107 157.083 245.302ZM263.55 273.231C267.212 277.026 270.379 280.577 270.586 281.122C271.351 283.128 268.934 285.332 266.613 284.746C265.81 284.543 248.882 267.086 248.882 266.46C248.882 266.288 249.963 265.398 251.284 264.482L253.687 262.818L255.289 264.575C256.169 265.541 259.887 269.436 263.55 273.231Z" fill="white"/>
</svg>
