<svg width="400" height="400" viewBox="0 0 400 400" fill="none" xmlns="http://www.w3.org/2000/svg">
<mask id="mask0_557_3149" style="mask-type:luminance" maskUnits="userSpaceOnUse" x="47" y="167" width="306" height="66">
<path d="M353 167.647H47V232.352H353V167.647Z" fill="white"/>
</mask>
<g mask="url(#mask0_557_3149)">
<mask id="mask1_557_3149" style="mask-type:luminance" maskUnits="userSpaceOnUse" x="47" y="167" width="306" height="66">
<path d="M353 167.648H47V232.131H353V167.648Z" fill="white"/>
</mask>
<g mask="url(#mask1_557_3149)">
<path fill-rule="evenodd" clip-rule="evenodd" d="M87.6942 184.183H94.0858L96.6218 231.56H90.2328L87.6942 184.183ZM48.9734 184.183H55.9287L76.6994 225.946L73.5969 232.131H72.7513L48.9734 184.183ZM47 231.56C49.3507 225.851 51.0408 221.38 52.4504 217.29H53.2962L52.6397 231.56H47Z" fill="white"/>
<path fill-rule="evenodd" clip-rule="evenodd" d="M116.992 184.506C121.508 182.371 125.403 180.326 131.068 177.569L132.572 181.394C126.199 183.083 123.544 183.439 117.17 185.128L116.992 184.506ZM116.018 206.737L132.041 205.847C132.041 199 129.652 193.932 125.845 193.31V192.597C133.901 193.31 137.619 199.445 137.619 207.448H116.018V206.737ZM106.546 210.827C106.546 200.067 115.134 193.31 122.482 192.597V193.31C115.398 195.175 112.478 202.379 112.478 209.049C112.478 220.785 118.762 225.943 126.464 225.943C131.688 225.943 135.406 223.987 137.973 221.585V222.476C136.114 226.032 131.334 230.478 123.986 230.478C113.541 230.478 106.546 222.565 106.546 210.827Z" fill="white"/>
<path fill-rule="evenodd" clip-rule="evenodd" d="M145.866 220.459V194.054H139.627V192.043H145.866V181.327L152.008 179.223V192.043H164.579V194.054H152.008V219.598C152.008 224.477 152.954 228.879 158.625 228.879C161.649 228.879 164.674 228.018 166.092 227.252V228.113C164.863 229.548 160.894 232.131 155.317 232.131C148.417 232.131 145.866 227.826 145.866 220.459Z" fill="white"/>
<mask id="mask2_557_3149" style="mask-type:alpha" maskUnits="userSpaceOnUse" x="167" y="192" width="41" height="41">
<path d="M167.746 192.45H207.443V232.132H167.746V192.45Z" fill="black"/>
</mask>
<g mask="url(#mask2_557_3149)">
<path fill-rule="evenodd" clip-rule="evenodd" d="M189.594 231.389C191.546 231.017 193.219 230.365 194.429 229.345C199.356 225.719 201.028 219.306 201.028 212.337C201.028 205.461 199.356 198.955 194.429 195.238C193.219 194.402 191.546 193.658 189.594 193.194V192.45C199.914 193.472 207.443 202.208 207.443 212.337C207.443 222.374 199.914 231.11 189.594 232.132V231.389ZM185.595 232.132C175.091 231.11 167.746 222.374 167.746 212.337C167.746 202.208 175.091 193.472 185.595 192.45V193.194C183.644 193.658 182.063 194.307 180.669 195.238C175.74 198.862 174.161 205.554 174.161 212.337C174.161 219.306 175.74 225.719 180.669 229.345C182.063 230.365 183.644 231.017 185.595 231.389V232.132Z" fill="white"/>
</g>
<path fill-rule="evenodd" clip-rule="evenodd" d="M241.291 195.813C239.763 194.609 238.412 193.961 235.442 193.311V192.571C237.872 192.849 239.492 193.033 241.291 193.405V168.666L247.14 167.648V231.204L241.291 231.853V195.813ZM212.405 212.953C212.405 201.001 222.034 193.033 231.572 192.571V193.311C224.014 194.053 218.435 201.188 218.435 210.822C218.435 222.774 223.834 228.705 231.393 228.705C234.633 228.705 237.331 226.943 239.041 225.368V226.11C237.691 228.705 234.273 232.131 228.514 232.131C219.245 232.131 212.405 225.09 212.405 212.953Z" fill="white"/>
<mask id="mask3_557_3149" style="mask-type:alpha" maskUnits="userSpaceOnUse" x="253" y="192" width="41" height="41">
<path d="M253.757 192.45H293.454V232.132H253.757V192.45Z" fill="black"/>
</mask>
<g mask="url(#mask3_557_3149)">
<path fill-rule="evenodd" clip-rule="evenodd" d="M275.604 231.389C277.558 231.017 279.23 230.365 280.44 229.345C285.368 225.719 287.04 219.306 287.04 212.337C287.04 205.461 285.368 198.955 280.44 195.238C279.23 194.402 277.558 193.658 275.604 193.194V192.45C285.924 193.472 293.454 202.208 293.454 212.337C293.454 222.374 285.924 231.11 275.604 232.132V231.389ZM271.607 232.132C261.101 231.11 253.757 222.374 253.757 212.337C253.757 202.208 261.101 193.472 271.607 192.45V193.194C269.654 193.658 268.074 194.307 266.678 195.238C261.751 198.862 260.171 205.554 260.171 212.337C260.171 219.306 261.751 225.719 266.678 229.345C268.074 230.365 269.654 231.017 271.607 231.389V232.132Z" fill="white"/>
</g>
<mask id="mask4_557_3149" style="mask-type:alpha" maskUnits="userSpaceOnUse" x="321" y="184" width="32" height="47">
<path d="M321.573 184.183H353V230.478H321.573V184.183Z" fill="black"/>
</mask>
<g mask="url(#mask4_557_3149)">
<path fill-rule="evenodd" clip-rule="evenodd" d="M346.751 230.478C341.543 222.761 336.766 216.068 331.557 208.26C338.415 206.865 343.364 202.96 343.364 196.175C343.364 189.016 339.978 185.856 331.383 185.02V184.183C339.978 184.461 349.354 186.32 349.354 196.361C349.354 203.239 343.538 206.679 337.634 208.446L353 230.011V230.478H346.751ZM321.573 230.478H327.476V184.183H321.573V230.478Z" fill="white"/>
</g>
</g>
</g>
</svg>
