<svg width="400" height="400" viewBox="0 0 400 400" fill="none" xmlns="http://www.w3.org/2000/svg">
<mask id="mask0_557_5238" style="mask-type:luminance" maskUnits="userSpaceOnUse" x="157" y="126" width="114" height="106">
<path d="M184.093 231.349C175.665 226.031 168.775 218.555 164.124 209.678C159.472 200.801 157.224 190.838 157.606 180.799C157.989 170.76 160.989 161.002 166.302 152.513C171.615 144.024 179.053 137.106 187.861 132.461C196.67 127.815 206.536 125.606 216.461 126.058C226.386 126.51 236.016 129.607 244.376 135.035C252.736 140.462 259.529 148.028 264.066 156.966C268.603 165.904 270.723 175.895 270.211 185.928L261.65 185.482C262.084 176.975 260.286 168.503 256.44 160.925C252.593 153.346 246.833 146.931 239.745 142.329C232.656 137.727 224.491 135.101 216.076 134.717C207.66 134.334 199.294 136.207 191.825 140.146C184.357 144.086 178.05 149.951 173.545 157.149C169.04 164.347 166.496 172.621 166.172 181.133C165.848 189.645 167.754 198.093 171.698 205.62C175.642 213.147 181.484 219.485 188.631 223.994L184.093 231.349Z" fill="white"/>
</mask>
<g mask="url(#mask0_557_5238)">
<path d="M184.093 231.349L167.097 258.621L194.388 275.838L211.338 248.365L184.093 231.349ZM270.211 185.928L268.616 218.096L300.577 219.762L302.215 187.642L270.211 185.928ZM261.65 185.482L229.646 183.768L228.004 215.978L260.056 217.649L261.65 185.482ZM188.631 223.994L215.875 241.01L232.672 213.784L205.626 196.722L188.631 223.994ZM201.089 204.076C197.472 201.794 194.492 198.571 192.471 194.714L135.776 224.643C143.058 238.539 153.856 250.268 167.097 258.621L201.089 204.076ZM192.471 194.714C190.449 190.854 189.461 186.502 189.629 182.098L125.583 179.501C124.986 195.175 128.495 210.748 135.776 224.643L192.471 194.714ZM189.629 182.098C189.797 177.694 191.113 173.417 193.436 169.706L139.167 135.321C130.863 148.587 126.18 163.827 125.583 179.501L189.629 182.098ZM193.436 169.706C195.758 165.995 198.995 162.995 202.797 160.99L172.925 103.931C159.11 111.218 147.471 122.053 139.167 135.321L193.436 169.706ZM202.797 160.99C206.597 158.985 210.833 158.042 215.076 158.236L217.846 93.8798C202.239 93.169 186.742 96.6438 172.925 103.931L202.797 160.99ZM215.076 158.236C219.318 158.429 223.44 159.752 227.027 162.081L261.725 107.988C248.592 99.4613 233.453 94.5907 217.846 93.8798L215.076 158.236ZM227.027 162.081C230.615 164.411 233.554 167.674 235.526 171.559L292.604 142.373C285.503 128.383 274.856 116.514 261.725 107.988L227.027 162.081ZM235.526 171.559C237.5 175.446 238.431 179.812 238.207 184.214L302.215 187.642C303.014 171.978 299.705 156.361 292.604 142.373L235.526 171.559ZM271.805 153.76L263.245 153.314L260.056 217.649L268.616 218.096L271.805 153.76ZM293.654 187.196C294.375 173.058 291.389 158.96 284.978 146.331L227.9 175.518C229.183 178.045 229.793 180.892 229.646 183.768L293.654 187.196ZM284.978 146.331C278.567 133.701 268.954 122.983 257.093 115.282L222.395 169.375C224.712 170.88 226.618 172.992 227.9 175.518L284.978 146.331ZM257.093 115.282C245.232 107.581 231.558 103.182 217.46 102.539L214.69 166.895C217.423 167.02 220.08 167.872 222.395 169.375L257.093 115.282ZM217.46 102.539C203.363 101.897 189.367 105.036 176.89 111.617L206.761 168.676C209.222 167.378 211.957 166.771 214.69 166.895L217.46 102.539ZM176.89 111.617C164.414 118.197 153.906 127.98 146.41 139.957L200.679 174.341C202.194 171.922 204.299 169.974 206.761 168.676L176.89 111.617ZM146.41 139.957C138.915 151.932 134.688 165.688 134.149 179.834L198.194 182.432C198.304 179.554 199.165 176.762 200.679 174.341L146.41 139.957ZM134.149 179.834C133.61 193.982 136.777 208.039 143.35 220.584L200.045 190.655C198.73 188.146 198.085 185.308 198.194 182.432L134.149 179.834ZM143.35 220.584C149.925 233.13 159.676 243.722 171.634 251.267L205.626 196.722C203.291 195.249 201.359 193.163 200.045 190.655L143.35 220.584ZM161.386 206.979L156.849 214.333L211.338 248.365L215.875 241.01L161.386 206.979Z" fill="url(#paint0_linear_557_5238)"/>
</g>
<mask id="mask1_557_5238" style="mask-type:luminance" maskUnits="userSpaceOnUse" x="130" y="166" width="113" height="108">
<path d="M213.511 166.926C222.241 171.722 229.562 178.766 234.732 187.344C239.903 195.923 242.739 205.731 242.954 215.775C243.169 225.819 240.754 235.742 235.955 244.538C231.156 253.334 224.143 260.692 215.626 265.864C207.109 271.037 197.392 273.842 187.458 273.994C177.525 274.145 167.728 271.639 159.06 266.729C150.393 261.819 143.163 254.68 138.103 246.034C133.043 237.388 130.333 227.544 130.248 217.498L138.819 217.423C138.892 225.941 141.19 234.288 145.48 241.619C149.77 248.95 155.901 255.003 163.25 259.167C170.599 263.33 178.906 265.455 187.329 265.326C195.751 265.197 203.991 262.82 211.212 258.433C218.434 254.048 224.38 247.809 228.449 240.351C232.518 232.892 234.566 224.478 234.384 215.962C234.202 207.446 231.797 199.129 227.413 191.855C223.028 184.582 216.821 178.609 209.419 174.543L213.511 166.926Z" fill="white"/>
</mask>
<g mask="url(#mask1_557_5238)">
<path d="M213.511 166.926L228.848 138.66L200.598 123.141L185.315 151.59L213.511 166.926ZM130.248 217.498L129.931 185.284L97.9331 185.563L98.2072 217.735L130.248 217.498ZM138.819 217.423L170.86 217.186L170.585 184.93L138.503 185.209L138.819 217.423ZM209.419 174.543L181.223 159.207L166.066 187.419L194.082 202.809L209.419 174.543ZM198.174 195.192C201.922 197.252 205.088 200.289 207.335 204.016L262.129 170.673C254.035 157.243 242.559 146.192 228.848 138.66L198.174 195.192ZM207.335 204.016C209.582 207.745 210.825 212.027 210.92 216.428L274.988 215.122C274.653 199.436 270.223 184.101 262.129 170.673L207.335 204.016ZM210.92 216.428C211.014 220.831 209.955 225.176 207.858 229.019L264.052 260.058C271.554 246.308 275.324 230.807 274.988 215.122L210.92 216.428ZM207.858 229.019C205.762 232.861 202.711 236.052 199.034 238.285L232.218 293.445C245.575 285.333 256.55 273.809 264.052 260.058L207.858 229.019ZM199.034 238.285C195.358 240.517 191.183 241.717 186.932 241.782L187.984 306.206C203.601 305.967 218.86 301.558 232.218 293.445L199.034 238.285ZM186.932 241.782C182.682 241.847 178.485 240.776 174.764 238.668L143.357 294.792C156.97 302.504 172.367 306.444 187.984 306.206L186.932 241.782ZM174.764 238.668C171.041 236.559 167.913 233.479 165.714 229.722L110.493 262.347C118.413 275.881 129.745 287.08 143.357 294.792L174.764 238.668ZM165.714 229.722C163.514 225.963 162.326 221.664 162.288 217.261L98.2072 217.735C98.3409 233.424 102.573 248.814 110.493 262.347L165.714 229.722ZM130.564 249.712L139.136 249.637L138.503 185.209L129.931 185.284L130.564 249.712ZM106.779 217.66C106.9 231.821 110.719 245.714 117.87 257.932L173.091 225.307C171.661 222.863 170.885 220.061 170.86 217.186L106.779 217.66ZM117.87 257.932C125.021 270.151 135.253 280.265 147.547 287.229L178.953 231.105C176.549 229.743 174.52 227.749 173.091 225.307L117.87 257.932ZM147.547 287.229C159.842 294.194 173.748 297.754 187.855 297.538L186.803 233.115C184.063 233.157 181.357 232.467 178.953 231.105L147.547 287.229ZM187.855 297.538C201.96 297.323 215.742 293.34 227.804 286.014L194.62 230.854C192.24 232.3 189.543 233.073 186.803 233.115L187.855 297.538ZM227.804 286.014C239.865 278.688 249.774 268.284 256.546 255.871L200.352 224.831C198.986 227.336 197.002 229.408 194.62 230.854L227.804 286.014ZM256.546 255.871C263.318 243.459 266.721 229.467 266.418 215.309L202.35 216.616C202.411 219.49 201.719 222.326 200.352 224.831L256.546 255.871ZM266.418 215.309C266.115 201.151 262.117 187.308 254.81 175.184L200.015 208.528C201.476 210.951 202.288 213.741 202.35 216.616L266.418 215.309ZM254.81 175.184C247.502 163.059 237.139 153.08 224.756 146.277L194.082 202.809C196.503 204.139 198.555 206.105 200.015 208.528L254.81 175.184ZM237.615 189.88L241.707 182.263L185.315 151.59L181.223 159.207L237.615 189.88Z" fill="url(#paint1_linear_557_5238)"/>
</g>
<mask id="mask2_557_5238" style="mask-type:luminance" maskUnits="userSpaceOnUse" x="124" y="142" width="69" height="100">
<path d="M192.024 240.596C179.876 243.175 167.227 241.628 156.038 236.193C144.85 230.758 135.748 221.741 130.147 210.54C124.545 199.339 122.756 186.582 125.059 174.248C127.361 161.914 133.625 150.694 142.879 142.328L148.592 148.791C140.745 155.884 135.434 165.398 133.482 175.856C131.53 186.314 133.046 197.131 137.796 206.628C142.546 216.125 150.263 223.771 159.75 228.379C169.237 232.987 179.962 234.3 190.262 232.112L192.024 240.596Z" fill="white"/>
</mask>
<g mask="url(#mask2_557_5238)">
<path d="M192.024 240.596C179.876 243.175 167.227 241.628 156.038 236.193C144.85 230.758 135.748 221.741 130.147 210.54C124.545 199.339 122.756 186.582 125.059 174.248C127.361 161.914 133.625 150.694 142.879 142.328L148.592 148.791C140.745 155.884 135.434 165.398 133.482 175.856C131.53 186.314 133.046 197.131 137.796 206.628C142.546 216.125 150.263 223.771 159.75 228.379C169.237 232.987 179.962 234.3 190.262 232.112L192.024 240.596Z" stroke="white" stroke-width="26"/>
</g>
<mask id="mask3_557_5238" style="mask-type:luminance" maskUnits="userSpaceOnUse" x="124" y="127" width="105" height="115">
<path d="M228.926 213.695C223.876 222.347 216.654 229.495 207.993 234.416C199.331 239.336 189.538 241.854 179.604 241.714C169.67 241.574 159.949 238.781 151.426 233.619C142.904 228.456 135.882 221.107 131.072 212.317C126.263 203.526 123.837 193.606 124.04 183.562C124.242 173.518 127.067 163.706 132.228 155.121C137.388 146.537 144.701 139.484 153.425 134.678C162.149 129.872 171.975 127.483 181.906 127.753L181.675 136.418C173.255 136.189 164.924 138.215 157.526 142.29C150.129 146.365 143.929 152.345 139.553 159.624C135.177 166.903 132.782 175.222 132.61 183.739C132.438 192.255 134.495 200.667 138.573 208.12C142.651 215.574 148.605 221.805 155.831 226.183C163.058 230.56 171.3 232.928 179.723 233.047C188.146 233.165 196.45 231.03 203.794 226.858C211.139 222.686 217.262 216.625 221.544 209.289L228.926 213.695Z" fill="white"/>
</mask>
<g mask="url(#mask3_557_5238)">
<path d="M228.926 213.695C223.876 222.347 216.654 229.495 207.993 234.416C199.331 239.336 189.538 241.854 179.604 241.714C169.67 241.574 159.949 238.781 151.426 233.619C142.904 228.456 135.882 221.107 131.072 212.317C126.263 203.526 123.837 193.606 124.04 183.562C124.242 173.518 127.067 163.706 132.228 155.121C137.388 146.537 144.701 139.484 153.425 134.678C162.149 129.872 171.975 127.483 181.906 127.753L181.675 136.418C173.255 136.189 164.924 138.215 157.526 142.29C150.129 146.365 143.929 152.345 139.553 159.624C135.177 166.903 132.782 175.222 132.61 183.739C132.438 192.255 134.495 200.667 138.573 208.12C142.651 215.574 148.605 221.805 155.831 226.183C163.058 230.56 171.3 232.928 179.723 233.047C188.146 233.165 196.45 231.03 203.794 226.858C211.139 222.686 217.262 216.625 221.544 209.289L228.926 213.695Z" stroke="url(#paint2_linear_557_5238)" stroke-width="26"/>
</g>
<mask id="mask4_557_5238" style="mask-type:luminance" maskUnits="userSpaceOnUse" x="194" y="158" width="82" height="89">
<path d="M194.075 164.335C205.148 158.664 217.763 156.848 229.961 159.17C242.16 161.491 253.259 167.819 261.537 177.172C269.814 186.525 274.807 198.38 275.74 210.896C276.673 223.412 273.494 235.889 266.697 246.392L259.524 241.645C265.288 232.74 267.984 222.16 267.192 211.548C266.401 200.935 262.168 190.883 255.149 182.953C248.13 175.022 238.719 169.657 228.376 167.688C218.033 165.72 207.337 167.26 197.948 172.068L194.075 164.335Z" fill="white"/>
</mask>
<g mask="url(#mask4_557_5238)">
<path d="M194.075 164.335C205.148 158.664 217.763 156.848 229.961 159.17C242.16 161.491 253.259 167.819 261.537 177.172C269.814 186.525 274.807 198.38 275.74 210.896C276.673 223.412 273.494 235.889 266.697 246.392L259.524 241.645C265.288 232.74 267.984 222.16 267.192 211.548C266.401 200.935 262.168 190.883 255.149 182.953C248.13 175.022 238.719 169.657 228.376 167.688C218.033 165.72 207.337 167.26 197.948 172.068L194.075 164.335Z" stroke="white" stroke-width="26"/>
</g>
<mask id="mask5_557_5238" style="mask-type:luminance" maskUnits="userSpaceOnUse" x="167" y="158" width="109" height="114">
<path d="M167.056 194.673C170.644 185.304 176.617 177.062 184.37 170.78C192.123 164.498 201.381 160.4 211.204 158.901C221.028 157.403 231.069 158.556 240.309 162.246C249.55 165.935 257.662 172.029 263.824 179.909C269.985 187.79 273.977 197.178 275.396 207.121C276.814 217.065 275.608 227.211 271.899 236.531C268.191 245.851 262.112 254.014 254.279 260.194C246.446 266.374 237.137 270.349 227.295 271.719L226.126 263.131C234.471 261.97 242.365 258.599 249.006 253.36C255.648 248.12 260.802 241.198 263.947 233.295C267.091 225.393 268.114 216.79 266.911 208.359C265.709 199.928 262.324 191.968 257.099 185.286C251.875 178.604 244.996 173.437 237.161 170.309C229.326 167.18 220.812 166.202 212.483 167.473C204.153 168.744 196.304 172.218 189.73 177.545C183.157 182.871 178.092 189.86 175.049 197.803L167.056 194.673Z" fill="white"/>
</mask>
<g mask="url(#mask5_557_5238)">
<path d="M167.056 194.673C170.644 185.304 176.617 177.062 184.37 170.78C192.123 164.498 201.381 160.4 211.204 158.901C221.028 157.403 231.069 158.556 240.309 162.246C249.55 165.935 257.662 172.029 263.824 179.909C269.985 187.79 273.977 197.178 275.396 207.121C276.814 217.065 275.608 227.211 271.899 236.531C268.191 245.851 262.112 254.014 254.279 260.194C246.446 266.374 237.137 270.349 227.295 271.719L226.126 263.131C234.471 261.97 242.365 258.599 249.006 253.36C255.648 248.12 260.802 241.198 263.947 233.295C267.091 225.393 268.114 216.79 266.911 208.359C265.709 199.928 262.324 191.968 257.099 185.286C251.875 178.604 244.996 173.437 237.161 170.309C229.326 167.18 220.812 166.202 212.483 167.473C204.153 168.744 196.304 172.218 189.73 177.545C183.157 182.871 178.092 189.86 175.049 197.803L167.056 194.673Z" stroke="url(#paint3_linear_557_5238)" stroke-width="26"/>
</g>
<defs>
<linearGradient id="paint0_linear_557_5238" x1="182.61" y1="193.314" x2="195.057" y2="213.538" gradientUnits="userSpaceOnUse">
<stop stop-color="white"/>
<stop offset="0.521548" stop-color="#FFFEFE" stop-opacity="0.478452"/>
<stop offset="1" stop-color="#FFFDFD" stop-opacity="0"/>
</linearGradient>
<linearGradient id="paint1_linear_557_5238" x1="221.132" y1="212.865" x2="201.737" y2="185.883" gradientUnits="userSpaceOnUse">
<stop stop-color="white"/>
<stop offset="0.451436" stop-color="#FFFEFE" stop-opacity="0.478452"/>
<stop offset="1" stop-color="#FFFDFD" stop-opacity="0"/>
</linearGradient>
<linearGradient id="paint2_linear_557_5238" x1="176.592" y1="190.583" x2="198.444" y2="178.37" gradientUnits="userSpaceOnUse">
<stop stop-color="white"/>
<stop offset="0.521548" stop-color="#FFFEFE" stop-opacity="0.478452"/>
<stop offset="1" stop-color="#FFFDFD" stop-opacity="0"/>
</linearGradient>
<linearGradient id="paint3_linear_557_5238" x1="222.415" y1="208.853" x2="202.801" y2="224.477" gradientUnits="userSpaceOnUse">
<stop stop-color="white"/>
<stop offset="0.521548" stop-color="#FFFEFE" stop-opacity="0.478452"/>
<stop offset="1" stop-color="#FFFDFD" stop-opacity="0"/>
</linearGradient>
</defs>
</svg>
