<svg width="400" height="400" viewBox="0 0 400 400" fill="none" xmlns="http://www.w3.org/2000/svg">
<path d="M199.869 240.237H193.65V168.248H227.246V174.467H199.869V240.237Z" fill="white"/>
<path d="M200 276C158.093 276 124 241.907 124 200C124 158.093 158.093 124 200 124C241.907 124 276 158.093 276 200C276 241.907 241.907 276 200 276ZM200 130.219C161.523 130.219 130.219 161.523 130.219 200C130.219 238.477 161.523 269.781 200 269.781C238.477 269.781 269.781 238.477 269.781 200C269.781 161.523 238.477 130.219 200 130.219Z" fill="white"/>
</svg>
