<svg width="400" height="400" viewBox="0 0 400 400" fill="none" xmlns="http://www.w3.org/2000/svg">
<path fill-rule="evenodd" clip-rule="evenodd" d="M162.33 157.818C158.486 159.9 158.214 165.921 161.857 168.361C164.637 170.224 169.633 169.53 170.938 167.099C171.208 166.597 171.429 165.425 171.429 164.494V162.802H168.572C166.032 162.802 165.715 162.907 165.715 163.751C165.715 164.545 166.032 164.7 167.654 164.7C169.243 164.7 169.566 164.85 169.44 165.53C169.355 165.987 168.499 166.744 167.537 167.213C165.957 167.983 165.627 167.998 164.123 167.372C162.155 166.552 161.429 165.388 161.429 163.049C161.429 159.556 165.822 157.603 168.35 159.97C169.301 160.86 169.432 160.874 170.032 160.153C170.599 159.473 170.513 159.225 169.363 158.239C167.822 156.918 164.373 156.711 162.33 157.818ZM178.572 163.223C178.572 169.129 178.62 169.445 179.524 169.445C180.349 169.445 180.477 169.129 180.477 167.073C180.477 164.863 180.558 164.7 181.658 164.7C182.521 164.7 183.318 165.339 184.617 167.073C185.867 168.742 186.725 169.445 187.511 169.445C188.74 169.445 188.721 169.384 186.569 166.401C185.229 164.545 185.229 164.542 186.186 163.654C186.821 163.064 187.143 162.157 187.143 160.959C187.143 158.29 185.918 157.414 181.87 157.186L178.572 157V163.223ZM194.762 161.156C194.762 167.525 195.977 169.445 200.006 169.445C201.551 169.445 202.28 169.145 203.37 168.058C204.725 166.709 204.762 166.542 204.762 161.889C204.762 157.424 204.7 157.107 203.81 157.107C202.926 157.107 202.857 157.424 202.857 161.542C202.857 166.672 202.25 167.73 199.46 167.462C197.296 167.254 196.683 165.838 196.674 161.022C196.668 157.426 196.589 157.107 195.715 157.107C194.836 157.107 194.762 157.424 194.762 161.156ZM212.858 163.223C212.858 169.129 212.906 169.445 213.81 169.445C214.635 169.445 214.762 169.129 214.762 167.073V164.7H216.927C220.741 164.7 222.759 161.222 220.534 158.483C219.784 157.561 219.089 157.351 216.248 157.191L212.858 157V163.223ZM230.747 158.031C228.84 159.284 228.132 160.728 228.112 163.412C228.084 167.219 230.362 169.445 234.286 169.445C238.254 169.445 240.477 167.134 240.477 163.007C240.477 161.067 240.247 160.563 238.628 158.949C236.985 157.313 236.521 157.108 234.461 157.111C232.973 157.112 231.643 157.442 230.747 158.031ZM184.949 160.073C185.798 161.423 184.739 162.541 182.452 162.71L180.477 162.856V160.904V158.951L182.452 159.097C183.696 159.189 184.62 159.55 184.949 160.073ZM219.048 159.955C219.915 161.569 218.877 162.802 216.65 162.802C214.765 162.802 214.762 162.799 214.762 160.904C214.762 159.008 214.765 159.005 216.65 159.005C218.051 159.005 218.67 159.25 219.048 159.955ZM237.339 160.466C239.92 163.522 238.122 167.499 234.146 167.532C231.616 167.553 230.001 165.894 230.001 163.276C230.001 160.633 231.609 159.005 234.222 159.005C235.741 159.005 236.345 159.288 237.339 160.466ZM116.056 195.189C113.271 201.519 109.603 209.847 107.903 213.697L104.813 220.696H108.84H112.866L113.94 218.442L115.013 216.188L122.293 216.057L129.573 215.926L130.62 218.3L131.667 220.674L135.777 220.685L139.888 220.696L131.76 202.189C124.014 184.554 123.572 183.682 122.375 183.682C121.192 183.682 120.827 184.346 116.056 195.189ZM319.615 184.987C319.351 185.704 315.71 194.033 311.524 203.494L303.913 220.696L308.029 220.685L312.144 220.674L313.19 218.3L314.237 215.926L321.518 216.057L328.797 216.188L329.871 218.442L330.945 220.696H334.966H338.987L335.29 212.273C321.592 181.067 322.86 183.682 321.414 183.682C320.408 183.682 319.981 183.992 319.615 184.987ZM159.524 187.953V191.749H200H240.477V187.953V184.156H200H159.524V187.953ZM67.1429 202.664V220.696H78.8096H90.4762V217.375V214.053H82.6191H74.762V199.342V184.631H70.9524H67.1429V202.664ZM266.191 202.664V220.696H277.858H289.524V217.375V214.053H281.668H273.809V199.342V184.631H270.001H266.191V202.664ZM124.92 204.443L127.064 209.782H122.377H117.691L119.615 204.918C120.673 202.243 121.65 199.666 121.786 199.192C122.155 197.9 122.576 198.604 124.92 204.443ZM323.873 204.087L326.08 209.782H321.429H316.778L318.985 204.1C320.199 200.974 321.298 198.412 321.429 198.405C321.56 198.398 322.66 200.956 323.873 204.087ZM215.58 217.493C212.796 223.823 209.127 232.15 207.427 236L204.337 243H208.4H212.463L213.469 240.627L214.475 238.254H221.905H229.335L230.341 240.627L231.347 243H235.405H239.463L235.765 234.577C222.12 203.489 223.328 205.985 221.927 205.985C220.707 205.985 220.39 206.56 215.58 217.493ZM166.667 224.967V243H178.334H190V239.678V236.356H182.143H174.286V221.645V206.934H170.476H166.667V224.967ZM224.35 226.391L226.557 232.085H221.886H217.215L219.14 227.221C220.198 224.546 221.171 221.984 221.302 221.527C221.433 221.07 221.676 220.696 221.842 220.696C222.008 220.697 223.136 223.259 224.35 226.391ZM60 239.441V243H100.476H140.953V239.441V235.882H100.476H60V239.441ZM259.048 239.441V243H299.524H340V239.441V235.882H299.524H259.048V239.441Z" fill="white"/>
</svg>
