<svg width="400" height="400" viewBox="0 0 400 400" fill="none" xmlns="http://www.w3.org/2000/svg">
<path d="M146.278 125C146.638 125.465 147.221 125.456 147.685 125.496C149.185 125.632 149.464 126.429 149.368 127.792C146.784 164.788 155.049 199.379 172.521 231.93C179.825 245.541 188.378 258.331 197.79 270.562C198.196 271.089 199.026 271.619 198.577 272.372C197.979 273.367 197.198 274.309 196.188 274.916C195.667 275.229 195.276 274.582 194.905 274.25C189.202 269.165 183.349 264.262 177.268 259.632C158.898 245.64 139.132 234.152 117.284 226.448C103.748 221.676 89.9141 218.022 75.6526 216.175C66.9879 215.053 58.2766 214.685 49.5406 214.933C47.0335 215.004 45.7691 213.38 46.4788 210.966C46.6802 210.284 47.2814 210.225 47.7927 210.042C56.2251 207.021 64.4436 203.503 72.4142 199.416C88.6374 191.095 103.41 180.745 116.277 167.794C128.211 155.782 137.88 142.178 144.878 126.723C145.163 126.094 145.405 125.437 145.99 125.003H146.272L146.278 125Z" fill="white"/>
<path d="M294.196 183.633C296.932 182.13 299.759 180.909 302.92 180.584C309.57 179.902 314.584 182.822 315.105 190.55C315.387 194.756 314.274 198.772 313.586 202.844C312.75 207.806 311.742 212.739 310.893 217.701C310.732 218.637 310.373 218.822 309.524 218.813C305.985 218.776 302.446 218.757 298.91 218.822C297.85 218.841 297.645 218.509 297.825 217.539C299.21 210.096 300.54 202.64 301.934 195.199C302.579 191.759 301.776 190.758 298.274 190.935C296.802 191.009 295.426 191.499 294.038 191.973C293.282 192.23 293.214 192.797 293.108 193.386C291.748 200.833 290.381 208.28 289.049 215.733C288.503 218.791 288.54 218.798 285.389 218.798C282.417 218.798 279.445 218.767 276.473 218.816C275.562 218.832 275.376 218.615 275.546 217.698C277.728 206.045 279.891 194.393 281.989 182.725C282.225 181.421 282.634 180.956 284.022 181.027C286.656 181.164 289.303 181.068 291.946 181.068C294.143 181.068 294.304 181.26 293.948 183.429C293.945 183.547 293.942 183.664 293.939 183.779C294.026 183.73 294.115 183.683 294.202 183.633H294.196Z" fill="white"/>
<path d="M337.291 216.308C334.437 217.814 331.725 219.094 328.648 219.317C326.847 219.447 325.065 219.354 323.327 218.865C318.905 217.613 316.633 213.544 317.436 208.368C318.539 201.256 321.883 198.064 329.45 196.856C332.394 196.385 335.357 196.146 338.326 196.338C339.696 196.425 340.179 195.935 340.216 194.699C340.229 194.277 340.312 193.856 340.309 193.434C340.294 191.987 339.655 191.135 338.19 190.893C335.332 190.419 332.453 190.741 329.587 190.831C328.034 190.878 326.485 191.011 324.941 191.181C324.133 191.271 323.996 191.017 324.133 190.27C324.588 187.773 324.979 185.262 325.412 182.758C325.49 182.315 325.539 181.9 326.19 181.782C332.37 180.648 338.565 179.644 344.837 180.936C351.459 182.3 354.574 186.719 353.514 193.348C352.206 201.523 350.731 209.667 349.352 217.83C349.225 218.586 348.915 218.824 348.15 218.815C344.896 218.775 341.639 218.741 338.388 218.827C337.173 218.862 336.752 218.583 337.173 217.383C337.263 217.129 337.241 216.835 337.297 216.308H337.291ZM336.59 202.806C336.169 202.806 335.744 202.796 335.323 202.806C331.889 202.88 330.166 204.625 330.064 208.055C330.027 209.338 330.631 210.067 331.806 210.435C333.259 210.891 334.691 210.618 336.113 210.315C337.433 210.033 338.468 209.512 338.41 207.851C338.382 207.073 338.688 206.289 338.825 205.505C339.137 203.705 338.393 202.806 336.594 202.806H336.59Z" fill="white"/>
<path d="M218.1 216.29C215.225 217.814 212.507 219.082 209.429 219.314C208.01 219.42 206.594 219.407 205.206 219.122C200.269 218.112 197.765 214.69 198.131 209.345C198.279 207.185 198.673 205.059 199.708 203.097C201.629 199.465 205.007 198.046 208.717 197.172C212.225 196.344 215.81 196.193 219.399 196.317C220.344 196.348 220.756 196.174 220.93 195.111C221.45 191.894 220.549 190.711 217.282 190.692C213.464 190.667 209.643 190.723 205.847 191.175C204.899 191.29 204.741 190.996 204.905 190.143C205.37 187.692 205.77 185.232 206.203 182.777C206.281 182.337 206.259 181.922 206.941 181.795C213.12 180.648 219.315 179.632 225.588 180.936C232.374 182.346 235.414 186.902 234.246 193.751C232.879 201.774 231.466 209.788 230.131 217.814C229.979 218.732 229.551 218.815 228.807 218.809C225.646 218.784 222.482 218.738 219.324 218.828C218.02 218.865 217.496 218.561 217.958 217.232C218.032 217.021 218.029 216.782 218.1 216.293V216.29ZM220.877 202.806C219.47 202.806 218.153 202.778 216.839 202.812C213.489 202.899 211.778 204.693 211.692 208.071C211.658 209.379 212.271 210.113 213.452 210.439C215.46 210.99 217.366 210.532 219.235 209.775C219.641 209.611 219.789 209.298 219.854 208.911C220.189 206.918 220.521 204.926 220.877 202.809V202.806Z" fill="white"/>
<path d="M261.926 203.419C258.669 203.419 255.412 203.45 252.158 203.398C251.315 203.382 251.033 203.627 250.928 204.461C250.556 207.333 251.83 208.895 254.882 209.007C259.221 209.165 263.559 208.963 267.882 208.607C269.159 208.502 269.41 208.774 269.169 209.964C268.738 212.084 268.422 214.229 268.044 216.361C267.948 216.894 267.944 217.414 267.182 217.613C261.201 219.168 255.139 220.092 249.019 218.905C241.522 217.452 237.175 211.179 238.21 203.636C238.829 199.124 239.372 194.575 241.476 190.413C244.312 184.807 248.917 181.692 255.053 180.756C258.331 180.258 261.641 180.059 264.895 180.84C271.815 182.504 275.757 188.715 274.768 196.285C274.542 198.012 274.226 199.725 273.969 201.448C273.758 202.843 273.002 203.457 271.558 203.432C268.35 203.376 265.14 203.413 261.929 203.413L261.926 203.419ZM257.237 196.437C258.747 196.437 260.256 196.447 261.765 196.431C262.112 196.428 262.472 196.524 262.695 196.031C264.024 193.106 262.004 189.926 258.802 189.768C254.675 189.567 252.939 192.681 252.143 195.79C251.954 196.524 252.437 196.431 252.855 196.434C254.318 196.44 255.778 196.434 257.241 196.434L257.237 196.437Z" fill="white"/>
<path d="M294.196 183.632C294.109 183.682 294.019 183.728 293.933 183.778C293.936 183.66 293.939 183.542 293.942 183.428C294.026 183.496 294.112 183.564 294.196 183.632Z" fill="white"/>
</svg>
