<svg width="400" height="400" viewBox="0 0 400 400" fill="none" xmlns="http://www.w3.org/2000/svg">
<path fill-rule="evenodd" clip-rule="evenodd" d="M188.892 113.995C191.459 122.386 192.054 122.896 199.285 122.896C202.825 122.896 205.751 122.501 206.527 121.917C207.629 121.089 211.729 110.646 211.729 108.667C211.729 107.438 208.084 108.027 206.795 109.464C206.084 110.257 204.69 113.34 203.698 116.314C202.265 120.608 201.539 121.774 200.172 121.978C197.591 122.361 196.578 121.063 195.069 115.439C193.642 110.122 191.852 108.021 188.749 108.021H187.065L188.892 113.995ZM176.434 114.258C175.294 116.484 175.363 116.822 178.088 122.378C182.536 131.447 180.589 133.426 171.739 128.831C166.245 125.979 166.041 125.937 163.695 127.161C162.372 127.852 161.295 128.671 161.302 128.984C161.325 129.947 171.995 135.422 173.85 135.422C176.312 135.422 184.569 127.071 184.569 124.58C184.569 122.578 179.223 111.936 178.218 111.936C177.892 111.936 177.089 112.981 176.434 114.258ZM219.362 113.603C216.339 118.261 213.962 123.972 214.367 125.6C214.964 128 222.919 135.422 224.894 135.422C227.311 135.422 237.492 130.022 237.139 128.927C236.972 128.408 235.923 127.536 234.808 126.987C232.986 126.091 232.189 126.287 226.909 128.922L221.038 131.853L219.423 130.224L217.808 128.595L220.589 123.024C223.776 116.64 223.885 115.884 221.968 113.494L220.566 111.748L219.362 113.603ZM157.409 139.792C157.409 142.585 159.816 144.539 165.1 146.034C170.32 147.512 171.618 148.596 171.243 151.164C171.04 152.547 169.885 153.272 165.557 154.728C162.569 155.734 159.514 157.301 158.767 158.211C157.368 159.916 156.916 162.823 158.049 162.823C159.363 162.823 170.065 158.9 171.088 158.042C172.492 156.867 172.568 144.873 171.183 143.07C170.65 142.376 167.333 140.927 163.811 139.853L157.409 137.898V139.792ZM235.009 139.864C227.514 142.162 226.473 143.432 226.473 150.278C226.473 157.186 227.818 158.987 234.355 160.838C237.017 161.592 239.651 162.384 240.206 162.599C241.604 163.14 241.552 158.598 240.147 157.422C239.559 156.929 236.678 155.741 233.745 154.782C228.551 153.083 228.413 152.969 228.413 150.4C228.413 147.836 228.55 147.723 233.457 146.225C239.321 144.437 241.448 142.699 241.085 139.994L240.829 138.08L235.009 139.864ZM166.769 168.422L160.996 171.651L162.78 173.109C165.206 175.09 165.93 174.988 172.251 171.777C177.479 169.12 177.812 169.051 179.215 170.332C181.176 172.123 181.1 172.74 178.264 178.023C176.93 180.507 175.839 183.387 175.839 184.422C175.839 186.358 177.255 188.659 178.446 188.659C179.463 188.659 184.569 178.002 184.569 175.879C184.569 173.661 176.143 165.167 173.956 165.182C173.178 165.188 169.944 166.646 166.769 168.422ZM219.453 169.577C216.935 171.999 214.676 174.617 214.431 175.396C214.081 176.507 218.449 186.924 219.963 188.589C220.625 189.315 223.367 185.945 223.351 184.427C223.342 183.525 222.141 180.556 220.685 177.828C217.949 172.707 217.878 171.158 220.318 169.841C221.411 169.251 222.884 169.708 226.693 171.82C229.417 173.33 232.348 174.567 233.207 174.567C234.669 174.567 237.966 171.777 237.268 171.131C236.452 170.375 225.637 165.172 224.883 165.172C224.414 165.172 221.97 167.154 219.453 169.577ZM192.581 178.861C191.15 179.872 187.673 188.979 187.673 191.716C187.673 193.082 191.196 192.708 192.497 191.203C193.148 190.449 194.459 187.435 195.411 184.505C197.098 179.308 197.201 179.183 199.585 179.416C201.868 179.64 202.143 180.01 203.758 185.035C205.866 191.591 206.62 192.573 209.548 192.573C211.367 192.573 211.749 192.294 211.416 191.203C211.185 190.449 210.27 187.439 209.381 184.513C208.108 180.324 207.351 179.034 205.817 178.446C202.754 177.271 194.463 177.531 192.581 178.861ZM130.012 226.041C129.831 226.364 131.798 241.337 134.384 259.314L139.085 292H144.74C149.973 292 150.424 291.868 150.784 290.238C151.289 287.95 159.743 227.718 159.74 226.433C159.738 225.782 158.445 225.454 155.872 225.454C152.489 225.454 151.961 225.674 151.64 227.216C151.439 228.185 150.024 239.723 148.496 252.855C146.968 265.988 145.462 277.937 145.148 279.408C144.733 281.352 143.668 274.527 141.242 254.392C139.407 239.163 137.734 226.421 137.524 226.078C137.039 225.287 130.452 225.255 130.012 226.041ZM164.946 225.941C164.642 226.247 164.393 241.236 164.393 259.249V292H168.67H172.946L172.744 258.923L172.541 225.846L169.02 225.614C167.083 225.486 165.25 225.634 164.946 225.941ZM178.361 227.002C178.361 228.645 186.66 287.246 187.316 290.238C187.673 291.867 188.126 292 193.314 292L198.925 291.999L203.501 259.706C206.016 241.944 208.111 227.059 208.156 226.629C208.291 225.325 200.92 225.182 200.427 226.48C200.194 227.091 198.508 239.705 196.682 254.511C194.765 270.042 193.152 280.603 192.869 279.474C192.599 278.397 191.131 266.947 189.605 254.03C185.841 222.147 186.703 225.454 182.155 225.454C178.893 225.454 178.361 225.671 178.361 227.002ZM213.281 258.727V292H223.798H234.315L234.08 287.89L233.845 283.78L227.443 283.552L221.041 283.325V254.39V225.454H217.161H213.281V258.727ZM248.977 225.831C248.977 226.038 246.882 240.723 244.321 258.466C241.76 276.207 239.665 291.029 239.665 291.402C239.665 291.776 241.499 291.976 243.739 291.845L247.813 291.608L248.502 285.15L249.191 278.691H254.463C260.485 278.691 260.217 278.364 261.048 286.715L261.574 292H265.787H270L269.556 289.456C269.312 288.056 267.206 273.411 264.877 256.91C262.547 240.41 260.44 226.582 260.195 226.182C259.751 225.455 248.977 225.118 248.977 225.831ZM256.736 250.898C257.631 258.649 258.559 266.135 258.8 267.535L259.238 270.079H254.884C251.916 270.079 250.53 269.767 250.532 269.1C250.534 268.563 251.406 261.252 252.469 252.855C253.532 244.459 254.432 237.061 254.467 236.415C254.611 233.792 255.191 237.492 256.736 250.898Z" fill="white"/>
</svg>
