<svg width="400" height="400" viewBox="0 0 400 400" fill="none" xmlns="http://www.w3.org/2000/svg">
<path fill-rule="evenodd" clip-rule="evenodd" d="M156.679 238.469L133.818 190.734L110.957 143H101.842C96.828 143 92.7269 143.272 92.7269 143.602C92.7269 144.386 146.019 256.139 146.793 256.979C147.117 257.33 149.474 253.308 152.032 248.043L156.679 238.469ZM203.213 202.698C201.836 175.099 200.697 150.377 200.68 147.759C200.652 143.206 200.28 143 192.085 143H183.52V150.178C183.52 160.98 186.882 232.293 187.975 244.66L188.931 255.475H197.361C201.997 255.475 205.773 254.89 205.752 254.177C205.731 253.464 204.589 230.298 203.213 202.698ZM245.19 255.475V199.238V143H236.625H228.059V199.238V255.475H236.625H245.19ZM299.152 172.43C299.152 160.107 295.544 154.254 284.485 148.641C279.945 146.336 272.342 144.419 265.73 143.912L254.612 143.061L262.544 145.668C272.866 149.062 278.761 154.751 281.12 163.598C284.872 177.668 279.299 190.433 266.818 196.358C262.48 198.417 258.124 200.103 257.137 200.103C255.251 200.103 261.877 210.521 281.619 238.604L293.48 255.475H302.739C307.832 255.475 312 255.129 312 254.707C312 254.283 303.467 242.061 293.036 227.545L274.072 201.153L281.473 197.326C285.543 195.221 291.186 191.041 294.013 188.035C298.523 183.24 299.152 181.331 299.152 172.43ZM94.1556 255.475C97.9689 255.475 101.328 254.89 101.619 254.177C101.911 253.464 101.748 246.261 101.256 238.171C100.619 227.67 99.9338 224.453 98.8614 226.924C98.034 228.827 95.4832 235.057 93.1929 240.767C90.9008 246.477 88.6207 252.123 88.1239 253.312C87.4883 254.837 89.2682 255.475 94.1556 255.475Z" fill="white"/>
</svg>
