<svg width="400" height="400" viewBox="0 0 400 400" fill="none" xmlns="http://www.w3.org/2000/svg">
<path d="M180.62 119C184.361 122.476 186.301 126.68 187.536 131.253C188.26 133.93 188.837 136.653 189.327 139.384C190.387 145.276 193.818 148.728 199.548 150.252C210.503 153.165 219.185 159.254 224.602 169.463C228.247 176.333 230.308 183.612 229.066 191.52C227.051 204.348 212.528 211.128 202.195 204.073C197.584 200.926 195.795 196.962 197.199 191.509C198.854 185.077 200.215 178.695 199.365 171.985C198.947 168.68 197.899 165.695 196.092 162.948C195.601 162.202 195.137 161.028 194.063 161.53C193 162.024 193.537 163.231 193.808 164.021C195.564 169.123 196.365 174.336 195.935 179.734C195.552 184.555 194.292 189.069 191.431 193.03C188.538 197.033 184.823 199.257 179.689 199.027C175.145 198.823 170.771 198.059 166.603 196.259C161.261 193.951 159.061 189.359 160.385 183.591C161.347 179.403 163.668 175.96 166.312 172.73C171.227 166.726 175.705 160.47 179.205 153.484C184.459 143.005 184.606 132.388 180.798 121.501C180.588 120.898 179.962 120.345 180.618 119H180.62Z" fill="white"/>
<path d="M112.118 145.635C117.278 145.801 120.804 147.754 123.288 151.384C132.502 164.849 140.429 179.068 147.362 193.841C149.223 197.804 148.13 201.819 146.479 205.597C140.06 220.269 121.679 227.411 107.181 220.925C92.938 214.555 86.4865 197.01 92.9194 182.143C96.7557 173.275 104.314 169.904 113.082 168.381C115.457 167.968 117.88 167.558 120.274 167.591C123.335 167.633 123.666 166.077 123.232 163.644C122.499 159.536 120.509 156.057 117.969 152.856C116.187 150.611 114.361 148.4 112.118 145.637V145.635ZM124.392 177.456C124.493 176.164 124.796 174.807 122.574 175.445C116.867 177.086 110.78 186.393 111.637 192.348C111.837 193.75 112.216 195.189 113.542 195.845C115.067 196.6 116.124 195.369 117.117 194.453C122.05 189.889 123.979 184 124.392 177.456Z" fill="white"/>
<path d="M194.754 235.831C194.053 243.392 192.925 249.718 187.17 254.026C182.764 257.321 178.012 257.954 173.291 255.113C167.633 251.71 162.045 251.563 156.187 254.293C154.942 254.874 153.609 255.291 152.283 255.659C143.272 258.156 135.712 255.366 132.074 248.237C127.436 239.148 129.08 230.263 136.641 224.246C140.891 220.864 145.542 218.021 150.338 215.556C156.6 212.335 156.196 209.002 152.654 203.138C151.849 201.802 149.427 200.879 151.258 198.868C152.829 197.145 154.921 196.576 157.254 197.375C158.499 197.802 159.414 198.657 160.336 199.536C170.615 209.328 180.903 219.113 191.181 228.906C193.43 231.048 195.181 233.424 194.751 235.831H194.754ZM158.414 216.54C153.233 219.788 149.922 223.552 148.453 227.466C147.816 229.166 148.047 229.892 150.002 230.225C156.22 231.287 159.103 228.957 159.169 222.521C159.19 220.574 159.285 218.6 158.414 216.54Z" fill="white"/>
<path d="M309.355 261.582C309.116 265.672 308.4 269.401 306.627 272.863C302.597 280.736 294.873 283.199 287.198 278.919C282.423 276.257 277.618 275.952 272.612 278.019C269.625 279.252 266.59 280.354 263.372 280.759C255.804 281.708 249.619 278.38 246.642 271.829C242.869 263.525 244.017 255.489 249.937 250.105C254.579 245.882 260.154 243.018 265.478 239.811C270.744 236.64 271.514 232.661 267.687 227.617C266.73 226.354 264.488 225.261 266.223 223.309C267.888 221.434 270.244 221.007 272.562 222.064C273.676 222.573 274.627 223.518 275.542 224.385C285.683 233.997 295.807 243.625 305.92 253.267C308.346 255.58 310.237 258.147 309.357 261.582H309.355ZM274.073 245.42C274.036 244.757 273.973 243.491 273.891 242.225C273.809 240.934 273.321 240.571 272.17 241.398C268.285 244.187 264.976 247.443 263.192 252.034C262.62 253.508 262.728 254.23 264.54 254.65C271.007 256.15 274.162 253.372 274.071 245.42H274.073Z" fill="white"/>
<path d="M237.415 264.234C237.415 267.475 237.375 270.714 237.429 273.956C237.468 276.41 236.275 277.748 233.915 277.652C228.876 277.446 223.79 277.821 218.835 276.403C208.993 273.588 203.67 265.914 202.929 253.399C202.474 245.667 202.528 237.881 201.012 230.252C199.308 221.676 195.773 213.78 191.684 206.114C191.18 205.169 189.657 204.145 190.662 203.153C191.724 202.101 193.001 203.423 194.008 204.046C196.41 205.535 198.077 207.771 199.569 210.126C204.139 217.342 208.65 224.599 213.243 231.801C218.191 239.559 224.017 246.213 233.485 248.521C236.163 249.175 237.169 251.547 237.244 254.165C237.34 257.519 237.268 260.878 237.268 264.232C237.317 264.232 237.368 264.232 237.417 264.232L237.415 264.234Z" fill="white"/>
<path d="M249.498 178.56C249.747 180.13 249.722 181.349 249.143 182.565C243.712 193.977 245.743 204.475 252.622 214.644C258.317 223.065 253.946 233.136 244.034 235.192C237.923 236.46 230.316 230.987 228 223.632C227.224 221.174 226.792 218.612 227.29 216.088C229.06 207.104 231.142 198.212 235.983 190.26C238.173 186.662 240.949 183.599 244.081 180.831C245.587 179.5 247.24 178.525 249.495 178.557L249.498 178.56Z" fill="white"/>
<path d="M267.652 158.68C266.688 160.087 267.739 160.982 268.778 162.161C270.51 164.123 269.824 166.443 267.237 167.296C265.985 167.708 265.397 167.969 265.317 169.455C265.231 171.067 263.846 172.703 262.396 172.171C260.143 171.341 258.625 171.791 256.904 173.148C255.849 173.978 254.317 173.516 253.885 172.497C252.891 170.146 250.852 169.541 248.919 168.475C247.058 167.451 246.586 165.318 247.966 163.715C249.327 162.133 249.825 160.926 249.344 158.744C248.718 155.898 251.868 153.618 254.439 155.003C256.015 155.851 256.262 155.118 257.047 154.201C259.209 151.675 260.906 151.762 262.499 154.682C263.171 155.917 263.792 155.469 264.659 155.486C266.774 155.528 267.645 156.463 267.65 158.68H267.652Z" fill="white"/>
</svg>
