<svg width="400" height="400" viewBox="0 0 400 400" fill="none" xmlns="http://www.w3.org/2000/svg">
<path fill-rule="evenodd" clip-rule="evenodd" d="M191.12 123.19C189.887 123.647 153.792 145.62 152.906 146.452C152.344 146.981 151.586 147.966 151.222 148.642C150.563 149.867 150.56 149.96 150.56 169.702V189.532H157.754H164.948L165.038 172.623L165.13 155.714L179.199 147.259C186.937 142.609 193.439 138.849 193.648 138.905C193.857 138.96 200.257 142.765 207.869 147.359L221.709 155.714L221.72 173.315L221.732 190.916H211.171H200.61V184.306C200.61 180.67 200.713 177.696 200.84 177.698C200.966 177.699 202.214 178.617 203.614 179.738C205.048 180.886 206.27 181.658 206.414 181.504C207.544 180.297 215.098 170.311 214.962 170.205C214.897 170.155 213.191 168.801 211.171 167.196C200.761 158.924 196.999 156.046 196.105 155.668C194.681 155.067 191.772 155.139 190.496 155.807C188.782 156.704 170.756 170.039 170.841 170.347C171.002 170.932 178.941 181.693 179.211 181.693C179.368 181.693 180.811 180.716 182.42 179.523C184.028 178.33 185.536 177.28 185.77 177.19C186.127 177.052 186.209 178.884 186.285 188.659C186.373 199.954 186.395 200.329 187.046 201.552C187.907 203.168 189.573 204.632 191.039 205.06C191.837 205.293 198.226 205.369 211.807 205.304L231.423 205.212L232.916 204.285C234.002 203.61 234.641 202.91 235.264 201.713L236.119 200.069L236.113 174.971C236.106 151.325 236.073 149.801 235.546 148.635C235.238 147.955 234.587 147.023 234.099 146.564C233.001 145.532 197.176 123.837 195.741 123.335C194.686 122.965 191.957 122.88 191.12 123.19ZM247.292 216.107C244.824 216.713 242.547 218.566 241.373 220.923C240.177 223.324 240.075 225.311 240.165 244.411L240.252 262.704L245.073 262.789L249.894 262.873V251.49V240.107H255.514H261.133L265.356 250.176C267.678 255.713 269.567 260.452 269.552 260.705C269.537 260.959 268.207 264.679 266.597 268.971C264.987 273.263 263.67 276.826 263.67 276.888C263.67 276.949 265.848 277 268.51 277H273.35L281.678 254.787C286.257 242.57 290.003 232.402 290 232.19C289.997 231.899 288.816 231.806 285.131 231.806C280.782 231.806 280.243 231.863 280.053 232.344C279.937 232.64 278.68 236.202 277.26 240.261C275.839 244.319 274.594 247.847 274.493 248.1C274.255 248.695 273.909 247.893 270.556 238.954L267.875 231.806H258.884H249.894V229.336C249.894 224.318 251.174 223.414 256.181 224.895C256.748 225.063 256.87 224.811 257.51 222.143C257.898 220.528 258.283 218.947 258.366 218.629C258.673 217.449 253.932 215.807 250.354 215.854C249.175 215.869 247.798 215.983 247.292 216.107ZM110 224.12V228.731H115.816H121.632V245.641V262.55H126.989H132.346V245.641V228.731H138.163H143.979V224.12V219.508H126.989H110V224.12ZM150.464 231.524C145.322 232.416 140.778 236.979 139.433 242.602C138.385 246.976 138.875 251.854 140.742 255.647C143.362 260.972 149.162 263.966 155.234 263.129C157.469 262.821 159.136 262.038 160.829 260.503L162.039 259.404V261.131V262.858H166.631H171.223V247.332V231.806H166.325H161.427V233.343C161.427 234.189 161.315 234.88 161.178 234.88C161.042 234.88 160.546 234.478 160.077 233.986C158.186 232.004 153.951 230.919 150.464 231.524ZM185.3 231.516C182.886 231.873 180.93 232.806 179.212 234.421C177.306 236.211 176.409 238.248 176.389 240.828C176.35 245.986 178.71 248.733 185.176 251.053C189.248 252.514 190.144 252.968 190.371 253.686C190.734 254.833 189.72 255.479 187.556 255.479C185.277 255.479 182.966 254.688 181.291 253.337C180.656 252.824 180.015 252.405 179.867 252.405C179.719 252.405 178.6 253.804 177.38 255.514L175.162 258.624L175.829 259.338C176.197 259.73 177.411 260.533 178.528 261.121C182.004 262.951 186.323 263.718 190.115 263.177C196.29 262.298 199.592 259.23 199.93 254.058C200.27 248.86 197.992 246.249 190.883 243.684C186.129 241.97 184.859 240.905 186.091 239.667C187.197 238.557 190.708 239.299 193.262 241.182L194.727 242.262L196.903 238.866C198.1 236.998 199.079 235.366 199.079 235.24C199.079 234.892 195.983 233.08 194.279 232.43C192.873 231.893 188.65 231.144 187.501 231.229C187.219 231.249 186.228 231.378 185.3 231.516ZM214.261 231.499C205.988 232.982 200.914 242.626 203.358 252.225C204.476 256.614 206.887 259.844 210.357 261.603C212.742 262.812 214.362 263.206 216.994 263.216C220.184 263.229 222.257 262.538 224.146 260.832L225.711 259.419V261.138V262.858H230.303H234.895V247.324V231.79L230.073 231.875L225.252 231.96L225.16 233.403L225.067 234.846L223.476 233.634C220.93 231.695 217.546 230.911 214.261 231.499ZM157.929 240.689C160.37 241.802 161.733 244.282 161.733 247.608C161.733 254.032 154.594 256.992 150.472 252.277C149.376 251.024 148.881 249.498 148.878 247.367C148.873 243.176 151.584 240.12 155.305 240.12C156.062 240.12 157.243 240.376 157.929 240.689ZM222.564 241.123C226.782 244.059 226.465 251.504 222.021 253.864C219.778 255.055 216.573 254.643 214.742 252.928C212.996 251.292 212.12 247.747 212.82 245.15C213.306 243.347 214.72 241.541 216.265 240.753C218.15 239.792 220.882 239.952 222.564 241.123Z" fill="white"/>
</svg>
