<svg width="400" height="400" viewBox="0 0 400 400" fill="none" xmlns="http://www.w3.org/2000/svg">
<path d="M284.583 222.18H296.154C296.442 226.735 295.357 230.865 293.297 234.686C288.046 244.427 279.808 249.72 268.739 249.863C252.401 250.076 236.059 250.003 219.718 249.892C204.676 249.79 192.433 237.311 192.406 222.239C192.379 207.399 192.381 192.559 192.406 177.716C192.431 162.431 204.676 150.093 219.921 150.048C236.355 149.998 252.789 149.968 269.223 150.057C283.648 150.136 295.859 162.127 296.276 176.447C296.288 176.804 296.179 177.165 296.104 177.678H285.282C283.754 174.24 282.785 170.857 280.896 168.103C278.037 163.934 273.684 161.966 268.544 161.968C252.766 161.97 236.99 161.968 221.212 161.968C211.279 161.968 204.388 168.441 204.279 178.332C204.118 192.795 204.095 207.263 204.288 221.726C204.417 231.449 211.39 237.976 221.113 237.983C235.95 237.995 250.788 237.988 265.626 237.985C277.172 237.985 282.474 233.606 284.583 222.178V222.18Z" fill="white"/>
<path d="M89.2288 164.182V152.522H186.403V163.993H143.892V249.865H131.994V164.182H89.2288Z" fill="white"/>
<path d="M302.729 205.822V194.614C306.314 196.699 306.982 200.509 309.9 203.419V195.289C310.19 195.289 310.481 195.289 310.771 195.289V206.426C307.234 204.539 306.685 200.633 303.801 197.714V206.008C303.444 205.946 303.086 205.885 302.729 205.822Z" fill="white"/>
<path d="M226.469 200.451C226.53 196.92 228.53 194.856 231.795 194.951C234.951 195.045 236.868 197.333 236.736 200.85C236.611 204.199 234.613 206.259 231.527 206.218C228.315 206.177 226.407 204.002 226.469 200.448V200.451ZM235.142 200.685C235.194 198.019 233.784 196.3 231.555 196.316C229.489 196.332 228.004 198.039 227.949 200.464C227.892 203.007 229.418 204.812 231.621 204.808C233.775 204.803 235.09 203.264 235.14 200.682L235.142 200.685Z" fill="white"/>
<path d="M290.144 200.456C290.21 196.941 292.228 194.861 295.482 194.954C298.62 195.043 300.559 197.354 300.429 200.848C300.307 204.179 298.288 206.261 295.221 206.221C292.019 206.18 290.078 203.973 290.144 200.456ZM298.838 200.687C298.878 198.013 297.473 196.307 295.241 196.316C293.195 196.326 291.697 198.049 291.633 200.467C291.567 202.978 293.123 204.811 295.316 204.811C297.475 204.811 298.799 203.258 298.84 200.687H298.838Z" fill="white"/>
<path d="M263.183 200.962C261.748 201.089 260.316 201.216 258.735 201.355V204.536C260.929 204.676 262.963 204.806 264.997 204.937C264.991 205.189 264.984 205.439 264.977 205.691H257.328V195.354H264.773C264.798 195.651 264.82 195.948 264.845 196.244C262.881 196.359 260.917 196.475 258.735 196.602C258.669 197.613 258.61 198.505 258.54 199.584C260.245 199.77 261.796 199.94 263.347 200.11C263.292 200.394 263.238 200.678 263.183 200.962Z" fill="white"/>
<path d="M224.582 198.219C222.711 196.746 220.854 195.293 218.674 197.2C216.31 199.268 217.334 204.52 220.243 204.668C221.828 204.747 223.474 203.646 225.338 202.992C223.905 205.91 221.648 206.854 219.028 205.925C216.558 205.049 215.307 202.109 216.013 198.832C216.581 196.198 218.826 194.664 221.669 194.968C223.794 195.195 224.596 195.987 224.58 198.217L224.582 198.219Z" fill="white"/>
<path d="M274.432 198.133C272.626 196.282 270.712 195.34 268.637 197.513C267.145 199.073 267.25 202.649 268.869 203.956C271.142 205.791 272.987 204.683 274.59 202.619C274.847 202.819 275.101 203.021 275.358 203.221C274.931 203.934 274.647 204.819 274.048 205.326C272.431 206.688 269.373 206.493 267.786 205.085C265.951 203.459 265.483 199.565 266.843 197.252C268.017 195.253 270.649 194.289 272.99 195.26C273.891 195.635 274.538 196.623 275.303 197.329C275.013 197.597 274.722 197.865 274.432 198.133Z" fill="white"/>
<path d="M280.251 205.95V196.832C278.593 196.548 277.456 196.355 276.318 196.16C276.323 195.96 276.327 195.762 276.33 195.562H285.049C285.085 195.749 285.121 195.937 285.158 196.123C283.986 196.303 282.817 196.482 281.227 196.725V205.937C280.9 205.941 280.576 205.946 280.249 205.95H280.251Z" fill="white"/>
<path d="M240.072 204.591C242.581 204.706 244.461 204.795 246.338 204.884C246.338 205.142 246.338 205.401 246.338 205.658H239.222V195.245C239.504 195.245 239.788 195.247 240.069 195.25V204.591H240.072Z" fill="white"/>
<path d="M249.251 195.285V204.733H255.548C255.559 205.017 255.568 205.3 255.579 205.584H248.318V195.292C248.629 195.29 248.94 195.287 249.254 195.285H249.251Z" fill="white"/>
<path d="M287.875 206.255C286.025 204.366 286.077 196.619 287.875 195.041V206.255Z" fill="white"/>
</svg>
