<svg width="400" height="400" viewBox="0 0 400 400" fill="none" xmlns="http://www.w3.org/2000/svg">
<mask id="mask0_557_5333" style="mask-type:luminance" maskUnits="userSpaceOnUse" x="99" y="113" width="202" height="174">
<path d="M300.839 113H99.1611V287H300.839V113Z" fill="white"/>
</mask>
<g mask="url(#mask0_557_5333)">
<path d="M133.961 258.377C134.012 254.323 134.671 249.519 136.216 244.852C136.374 244.372 136.461 243.877 136.548 243.386C136.611 243.04 136.595 242.709 136.239 242.528C135.896 242.355 135.69 242.611 135.461 242.811C132.574 245.367 129.411 247.479 125.595 248.355C121.528 249.287 117.44 249.247 113.439 247.998C108.526 246.46 105.101 243.118 102.609 238.75C100.951 235.844 100.204 232.639 99.5642 229.392C97.8067 220.475 102.033 209.446 108.174 203.627C111.069 200.883 114.237 198.516 118.091 197.297C123.569 195.563 128.684 196.499 133.281 199.876C135.596 201.579 136.792 204.079 137.408 206.836C138.53 211.864 137.649 216.508 134.395 220.558C131.776 223.817 128.348 225.853 124.174 226.49C122.282 226.782 120.394 226.648 118.593 225.905C117.325 225.382 116.358 224.504 115.627 223.364C115.465 223.113 115.342 222.842 115.279 222.546C115.153 221.957 115.362 221.493 115.892 221.203C116.184 221.041 116.504 220.962 116.832 220.896C119.324 220.365 121.591 218.017 121.907 215.513C122.14 213.665 121.429 212.081 120.165 210.759C117.929 208.428 114.667 207.889 111.488 209.265C108.451 210.579 106.409 212.863 105.062 215.816C102.759 220.864 102.751 225.909 105.149 230.925C106.689 234.146 109.355 235.962 112.752 236.839C117.606 238.089 122.096 237.149 126.318 234.61C129.296 232.821 131.911 230.576 134.391 228.166C139.04 223.648 142.969 218.529 146.804 213.335C150.861 207.838 154.62 202.141 158.408 196.46C160.786 192.894 163.302 189.442 166.264 186.324C170.719 181.633 175.806 177.792 181.54 174.784C182.224 174.426 182.919 174.088 183.582 173.695C184.447 173.184 184.451 172.319 183.555 171.867C182.346 171.257 181.094 170.73 179.811 170.298C179.029 170.034 178.329 170.396 177.694 170.856C176.722 171.556 175.739 172.236 174.688 172.818C173.073 173.707 171.382 174.379 169.526 174.548C164.214 175.028 161.378 170.793 161.836 167.109C161.955 166.142 162.314 165.257 162.725 164.392C163.428 162.91 163.179 162.324 161.627 161.837C157.35 160.488 153.041 160.319 148.72 161.593C144.948 162.706 141.867 166.476 141.461 170.38C141.322 171.717 141.224 173.074 141.788 174.328C142.725 176.404 144.49 177.391 146.678 177.489C148.823 177.587 150.339 176.427 151.39 174.627C151.67 174.151 151.836 173.624 151.99 173.093C152.101 172.716 152.211 172.342 152.346 171.973C152.492 171.568 152.741 171.265 153.207 171.19C153.7 171.112 154.012 171.363 154.269 171.737C154.921 172.684 155.331 173.734 155.533 174.859C155.92 177.009 156.256 179.164 155.983 181.366C155.264 187.173 150.785 192.548 144.292 193.373C139.04 194.042 134.885 192.182 131.915 187.81C129.608 184.417 128.348 180.689 128.518 176.553C128.645 173.416 129.584 170.506 131.137 167.789C133.412 163.81 136.386 160.492 140.442 158.235C143.601 156.474 147.018 155.636 150.624 155.53C155.45 155.385 160.087 156.415 164.664 157.787C168.152 158.833 171.426 160.378 174.629 162.084C176.212 162.93 176.868 162.678 177.461 160.98C178.586 157.74 179.301 154.39 180.134 151.075C181.153 147.01 182.145 142.941 183.574 138.993C185.332 134.145 187.994 129.801 191.019 125.661C193.424 122.366 196.177 119.389 199.459 116.928C202.157 114.907 205.139 113.555 208.515 113.15C212.303 112.698 215.822 113.327 218.812 115.863C221.075 117.781 222.323 120.294 222.742 123.18C223.311 127.084 223.208 130.976 222.134 134.81C220.937 139.08 218.698 142.724 215.443 145.724C212.122 148.787 208.543 151.516 204.519 153.623C202.576 154.642 200.569 155.511 198.409 155.974C198.18 156.026 197.947 156.084 197.714 156.088C197.212 156.096 196.888 155.825 196.707 155.377C196.529 154.936 196.726 154.598 197.058 154.347C197.595 153.934 198.156 153.556 198.717 153.171C203.448 149.919 207.292 145.878 209.918 140.747C211.624 137.413 212.674 133.878 213.207 130.182C213.437 128.594 213.626 127.005 213.587 125.397C213.547 123.73 213.243 122.122 212.536 120.6C211.11 117.526 207.915 116.511 204.985 118.23C202.604 119.629 200.984 121.693 199.842 124.166C198.705 126.636 198.049 129.258 197.485 131.896C196.466 136.654 195.415 141.399 193.796 146.007C191.588 152.294 188.74 158.255 184.842 163.689C184.495 164.176 184.112 164.636 183.78 165.131C183.108 166.138 183.247 166.72 184.305 167.333C186.244 168.458 188.353 169.051 190.569 169.319C191.525 169.433 192.489 169.468 193.428 169.688C193.768 169.767 194.088 169.901 194.38 170.093C195.553 170.86 195.743 172.319 194.799 173.349C193.776 174.465 192.461 175.091 191.047 175.543C185.956 177.167 181.248 179.526 176.991 182.761C171.947 186.599 167.919 191.329 164.573 196.668C161.856 201.005 159.613 205.593 157.298 210.142C155.26 214.145 153.286 218.183 151.311 222.217C151.133 222.578 150.936 222.941 151.299 223.294C151.678 223.66 152.089 223.538 152.472 223.31C153.973 222.413 155.501 221.564 157.101 220.844C161.038 219.076 165.13 217.955 169.49 217.974C169.806 217.974 170.122 217.998 170.438 217.966C171.434 217.868 171.817 217.216 171.406 216.311C171.074 215.583 170.754 214.849 170.478 214.098C169.099 210.343 169.348 206.584 170.541 202.861C172.682 196.177 177.192 191.714 183.724 189.206C184.874 188.765 186.019 188.301 187.275 188.286C189.728 188.254 191.489 189.477 192.848 191.396C193.658 192.54 194.206 193.798 194.463 195.178C194.53 195.532 194.629 195.882 194.787 196.208C195.119 196.888 195.616 197.104 196.343 196.892C196.71 196.786 197.042 196.609 197.37 196.416C200.624 194.521 203.164 191.891 205.257 188.805C206.88 186.41 208.27 183.902 208.966 181.071C209.471 179.011 209.732 176.931 209.219 174.827C208.93 173.656 208.342 172.645 207.445 171.827C206.454 170.919 205.309 170.565 203.997 171.013C203.283 171.257 202.552 171.281 201.809 171.316C200.435 171.387 199.886 169.771 200.474 168.886C200.838 168.344 201.327 167.962 201.908 167.695C204.005 166.74 206.027 165.651 207.919 164.325C211.549 161.782 214.61 158.648 217.457 155.278C219.728 152.589 221.62 149.632 223.618 146.751C224.942 144.848 226.458 143.133 228.536 142.005C229.918 141.254 231.38 140.782 232.979 140.967C235.344 141.238 236.798 142.685 237.718 144.753C238.358 146.192 238.69 147.733 239.164 149.231C239.673 150.836 240.258 152.404 241.162 153.843C243.418 157.425 247.292 158.837 251.253 157.331C255.617 155.672 259.132 152.931 261.364 148.752C262.79 146.082 263.469 143.208 263.501 140.196C263.521 138.51 263.063 136.933 262.091 135.533C261.076 134.071 259.705 133.162 257.865 133.316C255.946 133.477 254.586 134.554 253.769 136.261C253.007 137.845 253.11 139.43 254.014 140.947C254.247 141.34 254.515 141.71 254.768 142.087C254.962 142.374 255.144 142.669 255.254 143C255.563 143.931 255.226 144.647 254.298 144.997C253.462 145.311 252.573 145.371 251.692 145.398C246.048 145.579 241.873 142.229 240.685 136.603C240.084 133.772 240.155 130.988 241.206 128.263C242.548 124.788 245.1 122.484 248.445 121.013C253.876 118.627 258.848 119.708 263.382 123.219C266.282 125.468 267.96 128.523 268.726 132.085C269.401 135.211 269.634 138.356 269.219 141.541C268.734 145.311 267.371 148.736 265.128 151.803C262.699 155.121 259.776 157.917 256.04 159.749C252.604 161.436 248.959 162.073 245.147 161.577C243.014 161.298 241.139 160.409 239.488 159.033C238.943 158.581 238.406 158.117 237.841 157.689C237.046 157.091 236.597 157.166 236.044 157.995C235.179 159.289 234.384 160.634 233.35 161.805C231.763 163.602 229.894 164.959 227.493 165.489C224.835 166.079 222.149 165.006 220.656 162.737C220.364 162.289 220.08 161.833 219.751 161.412C219.263 160.779 218.868 160.732 218.219 161.208C217.355 161.845 216.604 162.611 215.798 163.315C213.804 165.061 211.722 166.692 209.46 168.08C209.337 168.155 209.219 168.23 209.112 168.324C208.962 168.462 208.981 168.599 209.151 168.709C209.23 168.761 209.318 168.8 209.404 168.831C211.458 169.602 212.816 171.08 213.748 173.011C215.439 176.51 215.21 180.005 213.721 183.493C212.955 185.282 211.952 186.961 211.269 188.789C210.613 190.546 210.001 192.312 209.89 194.199C209.756 196.503 211.256 197.482 213.338 196.464C214.748 195.772 215.941 194.781 216.9 193.558C219.325 190.472 221.549 187.255 223.216 183.685C223.682 182.687 224.065 181.661 224.393 180.611C225.116 178.303 226.987 177.119 229.31 176.762C230.147 176.632 230.775 177.241 230.839 178.118C230.89 178.826 230.665 179.486 230.478 180.147C229.649 183.119 228.425 185.946 227.279 188.801C222.959 199.558 218.157 210.103 213.2 220.581C210.218 226.884 207.2 233.167 204.199 239.461C204.143 239.575 204.093 239.69 204.044 239.803C203.65 240.763 203.773 241.313 204.585 241.958C205.316 242.536 206.071 243.074 206.817 243.629C209.819 245.85 212.829 248.072 216.17 249.774C221.367 252.42 226.834 254.174 232.719 254.323C239.097 254.489 244.978 252.908 250.08 248.976C254.117 245.862 256.637 241.686 258.212 236.914C259.678 232.475 259.871 227.98 258.58 223.467C257.881 221.017 256.64 218.863 254.788 217.097C252.193 214.621 249.058 213.866 245.597 214.585C241.877 215.363 239.132 217.554 237.327 220.853C236.537 222.292 236.273 223.868 236.786 225.499C237.414 227.504 239.318 228.936 241.352 228.901C243.334 228.869 245.203 227.434 245.736 225.531C245.822 225.213 245.866 224.882 245.964 224.572C246.222 223.754 247.09 223.538 247.722 224.128C247.849 224.246 247.967 224.38 248.054 224.525C249.302 226.687 250.057 229.007 250.037 231.512C250.009 234.913 248.722 237.845 246.431 240.338C243.959 243.027 240.838 244.372 237.213 244.518C233.627 244.659 230.373 243.731 227.675 241.262C225.676 239.434 224.57 237.106 223.966 234.507C222.639 228.787 223.539 223.467 226.909 218.615C228.749 215.965 231.241 214.082 234.12 212.666C238.228 210.645 242.552 209.517 247.15 209.509C249.563 209.509 251.921 209.914 254.259 210.472C254.504 210.531 254.757 210.559 255.005 210.563C255.333 210.571 255.582 210.398 255.728 210.115C255.875 209.828 255.783 209.564 255.598 209.324C255.357 209.014 255.104 208.711 254.867 208.397C252.964 205.864 251.735 203.038 251.119 199.939C251.111 199.908 251.111 199.876 251.107 199.845C250.807 198.433 249.919 198.107 248.793 199.023C247.027 200.454 245.206 201.803 243.141 202.786C241.491 203.572 239.788 204.178 237.916 204.056C235.313 203.891 233.473 202.519 232.154 200.368C230.523 197.71 230.048 194.844 230.941 191.86C232.438 186.835 235.297 182.797 239.957 180.178C241.806 179.14 243.745 178.389 245.921 178.441C247.059 178.468 248.138 178.724 249.184 179.144C249.476 179.262 249.773 179.372 250.076 179.443C250.897 179.636 251.471 179.278 251.582 178.456C251.842 176.502 251.258 174.894 249.575 173.754C249.156 173.471 248.698 173.255 248.311 172.924C247.26 172.028 247.32 170.671 248.461 169.889C249.571 169.13 250.748 169.291 251.901 169.747C253.402 170.345 254.345 171.532 255.084 172.905C256.076 174.752 256.345 176.766 256.419 178.822C256.518 181.519 256.135 184.181 255.804 186.847C255.357 190.425 255.061 194.006 255.57 197.6C256.051 201.017 257.11 204.225 259.484 206.832C262.198 209.812 265.676 211.267 269.642 210.701C279.039 209.352 285.784 204.398 289.378 195.504C290.69 192.257 291.302 188.868 291.084 185.364C290.914 182.636 290.448 179.946 289.074 177.536C287.491 174.752 284.982 173.349 281.787 173.184C280.874 173.136 279.994 173.376 279.204 173.84C276.289 175.547 274.276 177.929 273.711 181.338C273.395 183.261 273.458 185.132 274.67 186.799C275.479 187.912 276.57 188.62 277.889 188.989C278.825 189.253 279.701 189.072 280.528 188.588C281.183 188.203 281.775 187.739 282.269 187.149C282.565 186.796 282.9 186.52 283.414 186.74C283.904 186.953 284.153 187.342 284.062 187.92C283.675 190.373 283.067 192.768 281.59 194.82C279.136 198.233 275.713 199.9 271.55 199.931C268.138 199.959 265.029 197.447 264.002 193.955C262.632 189.304 263.051 184.735 265.049 180.351C267.533 174.902 271.601 171.147 277.443 169.472C281.274 168.375 285.152 168.163 289.015 169.331C294.892 171.112 298.533 175.024 299.978 180.953C300.732 184.039 301.045 187.169 300.777 190.346C300.365 195.186 298.62 199.503 295.563 203.258C290.472 209.513 283.927 213.41 275.985 214.959C273.391 215.466 270.768 215.713 268.125 215.6C267.103 215.557 266.084 215.403 265.065 215.297C264.677 215.257 264.342 215.313 264.121 215.674C263.888 216.059 264.082 216.362 264.303 216.661C266.463 219.598 268.237 222.736 269.09 226.306C270.57 232.483 269.867 238.466 267.162 244.172C264.022 250.797 258.781 255.283 252.079 258.114C247.573 260.017 242.825 260.905 237.935 261.015C233.065 261.125 228.37 260.194 223.788 258.621C220.965 257.649 218.086 257.024 215.084 257.024C210.392 257.024 206.727 260.032 205.818 264.612C205.511 266.158 205.483 267.668 206.186 269.126C207.221 271.285 209.902 272.716 212.122 272.292C214.637 271.804 216.391 268.847 215.585 266.429C215.379 265.82 215.119 265.23 214.882 264.633C214.823 264.487 214.76 264.341 214.713 264.192C214.337 263.028 215.029 262.144 216.245 262.27C217.987 262.451 219.401 263.284 220.613 264.503C226.218 270.133 225.301 280.045 218.726 284.461C215.669 286.513 212.225 287.205 208.579 286.938C205.688 286.725 203.152 285.702 201.126 283.58C199.629 282.015 198.666 280.139 197.931 278.126C196.829 275.094 196.347 271.993 196.786 268.776C197.244 265.407 198.646 262.434 200.668 259.742C202.63 257.13 204.886 254.827 207.73 253.133C209.033 252.354 209.041 251.572 207.781 250.703C206.134 249.563 204.46 248.469 202.729 247.462C201.347 246.661 200.759 246.802 199.953 248.178C196.209 254.579 191.892 260.571 186.979 266.13C182.184 271.56 176.88 276.42 170.671 280.238C166.785 282.629 162.618 284.346 158.084 285.054C151.939 286.013 146.378 284.76 141.666 280.552C138.933 278.111 137.175 275.04 135.991 271.611C134.6 267.589 133.98 263.449 133.992 258.365L133.961 258.377ZM140.781 254.854C140.738 256.906 140.849 258.943 141.362 260.933C142.685 266.056 145.706 269.716 150.75 271.584C153.842 272.728 157.049 272.638 160.245 272.237C163.945 271.776 167.401 270.514 170.683 268.765C175.178 266.367 179.044 263.15 182.65 259.603C186.268 256.046 189.388 252.078 192.208 247.872C193.101 246.539 193.997 245.205 194.752 243.79C195.265 242.823 195.111 242.214 194.266 241.513C194.12 241.392 193.969 241.282 193.812 241.176C192.469 240.268 191.086 239.414 189.633 238.686C188.223 237.983 186.781 237.343 185.241 236.965C183.977 236.658 183.239 237.13 182.923 238.385C182.891 238.506 182.867 238.628 182.848 238.754C182.275 242.551 181.232 246.208 179.447 249.625C177.188 253.946 174.202 257.658 170.051 260.323C166.71 262.47 163.108 263.865 159.036 263.504C155.45 263.186 152.527 261.629 150.635 258.507C148.392 254.807 147.796 250.793 148.925 246.629C150.351 241.36 153.53 237.252 158.013 234.213C163.329 230.603 169.297 229.188 175.703 229.541C176.141 229.565 176.58 229.648 177.026 229.573C177.749 229.451 178.124 228.96 178.033 228.236C177.99 227.89 177.848 227.576 177.698 227.261C176.682 225.149 174.961 223.887 172.753 223.255C169.111 222.213 165.513 222.508 161.955 223.684C158.704 224.756 155.888 226.601 153.195 228.642C149.996 231.063 147.239 233.901 145.355 237.467C142.484 242.901 140.931 248.694 140.789 254.846L140.781 254.854ZM201.059 202.68C201.059 202.349 201.075 202.019 201.059 201.693C200.996 200.667 200.202 200.218 199.286 200.667C198.255 201.174 197.26 201.775 196.154 202.102C194.7 202.526 193.776 203.458 193.255 204.838C191.837 208.625 189.657 211.904 186.687 214.672C184.309 216.889 181.643 218.529 178.357 219.012C178.16 219.04 177.966 219.138 177.792 219.236C177.259 219.551 177.196 219.941 177.615 220.389C177.871 220.663 178.156 220.915 178.436 221.167C180.442 222.948 181.872 225.099 182.54 227.698C182.986 229.432 184.029 230.587 185.668 231.275C189.017 232.679 192.212 234.382 195.324 236.237C195.893 236.576 196.43 236.969 197.046 237.22C197.733 237.507 198.203 237.405 198.709 236.867C199.064 236.485 199.337 236.041 199.586 235.584C202.334 230.587 205.079 225.59 207.832 220.597C209.42 217.718 210.854 214.77 212.023 211.695C212.204 211.216 212.279 210.756 211.829 210.358C211.383 209.961 210.925 210.02 210.427 210.252C210.012 210.445 209.586 210.614 209.151 210.752C206.217 211.676 203.792 210.705 202.307 208.023C201.387 206.36 201.055 204.551 201.055 202.676L201.059 202.68ZM167.674 250.537C168.242 250.537 169.182 250.396 170.039 249.96C175.49 247.172 178.104 242.548 178.661 236.63C178.772 235.459 178.085 234.763 176.892 234.712C175.521 234.653 174.147 234.668 172.78 234.834C167.2 235.502 162.867 239.595 161.943 245.064C161.615 246.994 162.421 248.705 164.123 249.696C165.099 250.262 166.161 250.522 167.674 250.537ZM249.705 186.52C249.646 185.081 249.12 183.862 247.964 182.962C247.138 182.325 246.206 182.046 245.167 182.337C241.652 183.316 240.028 188.073 242.209 190.987C243.184 192.292 244.867 192.764 246.34 192.115C248.454 191.183 249.773 188.958 249.705 186.524V186.52ZM226.063 151.783C226.063 151.893 226.063 152.003 226.063 152.113C226.127 154.815 228.686 156.25 231.02 154.881C232.667 153.914 233.776 152.526 234.334 150.694C234.752 149.322 234.725 147.997 233.963 146.747C233.078 145.292 231.569 144.8 230.053 145.567C227.513 146.849 226.245 148.984 226.063 151.787V151.783ZM183.499 207.017C184.574 206.961 185.616 206.604 186.525 205.892C187.003 205.519 187.401 205.078 187.611 204.496C187.848 203.824 187.674 203.191 187.042 202.876C185.557 202.137 184.297 201.099 183.006 200.089C182.322 199.554 181.825 199.613 181.236 200.262C180.494 201.08 180.233 202.086 180.071 203.14C179.763 205.145 181.398 207.048 183.499 207.02V207.017ZM171.043 165.855C169.751 165.843 168.799 166.472 168.021 167.432C167.847 167.644 167.768 167.899 167.824 168.183C167.978 168.937 168.795 169.736 169.577 169.755C171.074 169.787 172.346 169.22 173.314 168.084C173.776 167.542 173.669 166.968 173.108 166.527C172.504 166.052 171.797 165.867 171.039 165.859L171.043 165.855ZM190.53 196.676C190.53 195.74 189.795 194.38 189.005 193.869C188.622 193.621 188.243 193.613 187.868 193.896C187.528 194.152 187.307 194.482 187.208 194.895C186.959 195.929 187.646 197.195 188.685 197.8C189.57 198.316 190.589 197.407 190.533 196.676H190.53Z" fill="white"/>
</g>
</svg>
