<svg width="400" height="400" viewBox="0 0 400 400" fill="none" xmlns="http://www.w3.org/2000/svg">
<path d="M42 178.946H51.1027L66.4152 209.742L81.9352 178.946H86.0831L64.7974 221.304H63.0877L42 178.946Z" fill="white"/>
<path d="M64.0416 200.645L66.0061 204.774L79.0851 178.803L74.888 178.72L64.0416 200.645Z" fill="white"/>
<path d="M104.314 178.946H98.0264V221.304H104.314V178.946Z" fill="white"/>
<path d="M106.248 178.946H108.538L108.332 221.304H106.248V178.946Z" fill="white"/>
<path d="M121.146 221.059L124.224 221.211L144.749 178.946H141.847L121.146 221.059Z" fill="white"/>
<path d="M126.66 221.059H132.464L135.849 213.995H150.554L147.111 207.865H139.139L144.749 196.679L156.164 221.059L165.564 221.078L145.716 182.072L126.66 221.059Z" fill="white"/>
<path d="M177.543 221.06L185.959 220.912V198.261L177.543 191.66V221.06Z" fill="white"/>
<path d="M210.971 221.059L213.465 221.061L213.327 178.946H210.971V221.059Z" fill="white"/>
<path d="M208.886 215.177V178.946H202.501V200.079L177.543 178.946V188.554L208.886 215.177Z" fill="white"/>
<path d="M227.265 178.946H233.456V215.176C251.321 217.578 272.977 208.114 261.22 186.521C273.044 198.981 264.063 221.556 246.128 221.057C246.129 221.059 227.265 221.147 227.265 221.147V178.946Z" fill="white"/>
<path d="M235.631 178.804V212.917C270.198 218.375 271.533 174.253 235.631 178.804ZM249.525 209.24C248.364 209.826 247.123 210.222 245.794 210.418C243.501 210.757 241.182 210.578 238.874 210.603V189.81C238.874 189.58 244.32 189.822 244.807 189.874C246.768 190.085 248.743 190.537 250.485 191.489C251.197 191.877 251.863 192.349 252.453 192.904C253.043 193.459 253.71 194.199 254.035 194.946C254.448 195.892 254.677 197.002 254.856 198.02C255.016 198.926 255.108 199.848 255.092 200.769C255.066 202.422 254.675 204.066 253.796 205.478C253.318 206.245 252.687 207.044 251.991 207.617C251.214 208.261 250.392 208.803 249.525 209.24Z" fill="white"/>
<path d="M294.062 178.803H296.971L275.707 221.148H272.586L294.062 178.803Z" fill="white"/>
<path d="M297.979 181.806L278.38 221.048L284.485 221.148L287.76 214.091L302.913 214.309L299.38 207.634H290.942L296.529 196.897L308.427 221.309H318.076L297.979 181.806Z" fill="white"/>
<path d="M351.289 181.806C340.823 172.961 322.403 182.47 327.799 196.752C331.795 205.759 345.386 201.67 346.445 207.633C345.545 210.997 342.78 211.446 338.681 209.811C347.56 221.288 366.15 201.796 347.749 197.259C326.933 195.772 333.343 172.974 351.289 181.806Z" fill="white"/>
<path d="M346.154 193.342L354.28 191.456C353.991 177.592 330.537 179.43 337.436 193.343C337.437 193.342 338.39 194.029 338.39 194.029C336.996 187.12 345.741 188.125 346.154 193.342Z" fill="white"/>
<path d="M354.28 200.67C362.985 206.639 354.934 220.612 345.293 221.309C335.84 223.284 325.067 215.343 325.985 206.473L334.837 206.329C337.302 222.527 364.544 214.685 354.28 200.67Z" fill="white"/>
</svg>
