<svg width="400" height="400" viewBox="0 0 400 400" fill="none" xmlns="http://www.w3.org/2000/svg">
<path fill-rule="evenodd" clip-rule="evenodd" d="M181.056 128.721C171.587 129.127 170.093 129.593 172.536 131.378C174.08 132.506 174.485 135.159 175.311 149.549C176.21 165.235 176.153 166.49 174.481 167.711C173.493 168.433 172.905 169.242 173.173 169.509C173.44 169.777 179.494 169.569 186.626 169.049C193.757 168.527 200.606 168.088 201.846 168.071C203.8 168.046 204.084 167.541 203.982 164.288C203.917 162.224 203.536 159.183 203.137 157.531C202.494 154.873 202.326 154.758 201.672 156.53C201.265 157.631 200.535 159.527 200.052 160.744C198.923 163.578 192.151 167.041 187.738 167.041H184.32L183.614 158.943C183.224 154.488 183.16 150.591 183.47 150.281C185.04 148.712 190.719 150.071 192.828 152.522L195.083 155.141V148.578C195.083 142.29 193.868 139.959 192.626 143.865C191.994 145.857 188.104 148.021 185.156 148.021C183.712 148.021 183.209 146.942 182.707 142.766C182.359 139.876 182.071 135.758 182.067 133.617L182.058 129.723L187.013 130.309C193.314 131.055 197.633 133.287 199.527 136.772C200.99 139.467 201.015 139.418 201.054 133.756L201.094 128L194.832 128.199C191.389 128.308 185.189 128.543 181.056 128.721ZM217.125 128.547C217.125 128.95 217.868 129.823 218.775 130.486C220.302 131.602 220.265 132.901 218.293 147.93C217.12 156.863 215.9 164.591 215.582 165.105C215.264 165.62 214.354 166.04 213.56 166.04C212.765 166.04 212.116 166.459 212.116 166.969C212.116 167.48 214.709 168.193 217.877 168.553C221.045 168.913 224.427 169.426 225.391 169.693C227.526 170.286 227.75 168.489 225.642 167.68C224.009 167.054 223.769 164.01 224.776 156.67C225.356 152.444 225.658 152.025 228.128 152.025C232.053 152.025 233.859 154.64 235.183 162.242C235.826 165.935 236.939 169.442 237.654 170.036C238.37 170.629 241.37 171.369 244.322 171.68L249.688 172.246L247.004 169.893C245.12 168.243 243.988 165.869 243.207 161.931C242.594 158.845 241.217 155.381 240.148 154.234C238.286 152.239 238.281 152.124 240.03 151.569C243.831 150.364 246.485 146.27 246.586 141.455C246.719 135.058 242.938 131.668 234.031 130.198C222.819 128.347 217.125 127.792 217.125 128.547ZM233.823 132.067C235.363 132.652 236.963 133.665 237.378 134.32C238.679 136.363 238.236 143.981 236.637 147.07C235.279 149.693 234.591 150.023 230.487 150.023H225.866L226.537 143.487C227.883 130.355 228.163 129.917 233.823 132.067ZM151.197 132.991C147.01 133.982 146.41 134.605 147.906 136.406C149.848 138.742 152.969 153.114 151.63 153.55C140.189 157.273 139.584 157.067 137.642 148.772C136.707 144.78 135.949 140.452 135.956 139.154C135.967 137.105 135.621 136.879 133.347 137.45C131.905 137.811 129.425 138.367 127.836 138.684C124.864 139.279 123.802 141.014 126.412 141.014C127.974 141.014 128.034 141.194 133.071 161.418C135.642 171.741 136.051 174.689 135.116 176.184C133.698 178.453 134.915 178.6 141.49 176.945C145.685 175.89 145.828 175.736 144.503 173.691C143.273 171.791 139.787 158.889 140.352 158.323C140.473 158.202 143.397 157.445 146.848 156.64C151.555 155.543 153.221 155.472 153.521 156.355C155.31 161.643 156.893 170.183 156.347 171.604C155.777 173.091 156.089 173.244 158.464 172.648C159.997 172.264 162.551 171.69 164.14 171.373C167.411 170.719 167.66 170.237 165.543 168.653C163.442 167.081 155.997 136.033 157.175 133.756C158.195 131.787 156.957 131.629 151.197 132.991ZM266.22 136.795C266.22 137.346 266.896 138.056 267.723 138.373C269.922 139.216 269.619 141.714 265.665 155.302C260.935 171.556 260.303 173.048 258.143 173.048C257.14 173.048 256.083 173.43 255.793 173.898C255.266 174.751 270.276 179.34 271.054 178.563C271.282 178.335 270.739 177.419 269.846 176.527C268.954 175.637 268.224 174.756 268.224 174.569C268.224 173.444 276.622 145.202 277.385 143.767C277.896 142.804 279.2 142.015 280.282 142.015C284.409 142.015 281.982 140.238 275.488 138.506C271.768 137.513 268.162 136.497 267.473 136.248C266.784 135.998 266.22 136.245 266.22 136.795ZM296.872 147.771C297.276 149.815 295.762 154.005 290.994 164.038C284.442 177.823 283.267 179.519 279.746 180.263C278.297 180.571 279.652 181.57 284.644 183.875C291.949 187.249 294.51 187.898 292.471 185.861C290.317 183.709 291.247 180.764 298.576 166.541C304.839 154.385 306.096 152.558 308.051 152.764C312.032 153.186 310.475 151.538 303.774 148.236C300.182 146.467 297.037 145.018 296.785 145.018C296.534 145.018 296.573 146.257 296.872 147.771ZM101.402 149.198C95.7613 151.111 82.8664 157.344 82.8664 158.158C82.8664 158.604 83.4586 158.742 84.182 158.465C86.297 157.654 88.369 160.781 94.1822 173.548C100.965 188.449 101.382 189.782 99.8393 191.639C97.5188 194.432 99.6207 194.103 107.267 190.475C115.262 186.682 116.889 185.12 112.116 185.819C108.842 186.3 107.786 185.259 105.028 178.831L103.028 174.17L108.508 171.081C113.926 168.025 117.923 163.216 117.93 159.744C117.937 156.579 114.169 150.455 111.455 149.219C108.351 147.806 105.525 147.8 101.402 149.198ZM107.622 156.53C108.868 158.733 109.894 162.23 109.903 164.303C109.916 167.489 109.415 168.379 106.662 170.056C104.871 171.146 103.01 171.909 102.526 171.749C102.042 171.591 99.9144 167.651 97.7973 162.994C94.2263 155.14 94.073 154.434 95.6712 153.233C96.619 152.52 99.1871 152.07 101.377 152.232C104.852 152.488 105.647 153.037 107.622 156.53ZM316.801 157.012C319.351 159.827 317.659 161.517 307.55 166.262C303.004 168.395 299.284 170.344 299.284 170.593C299.284 173.918 302.808 190.132 303.899 191.827C304.699 193.071 309.061 195.914 313.591 198.145C318.121 200.377 322.256 202.624 322.779 203.142C323.302 203.658 324.396 204.081 325.209 204.081C326.287 204.081 326.072 203.428 324.402 201.652C322.006 199.103 322.155 198.208 325.621 194.36L327.612 192.147L329.551 194.611C332.887 198.846 337.359 197.256 337.359 191.836C337.359 189.87 336.713 188.761 335.253 188.223C333.264 187.487 333.349 187.271 336.862 184.189C338.904 182.398 340.79 181.148 341.053 181.411C341.316 181.674 340.808 186.544 339.927 192.234C337.497 207.896 337.441 208.085 335.216 208.085C334.124 208.085 333.484 208.492 333.792 208.991C334.807 210.629 345.514 216.214 346.709 215.728C347.543 215.387 347.519 215.227 346.624 215.171C344.832 215.058 345.039 210.99 347.878 190.65C349.256 180.786 350.196 172.527 349.965 172.297C349.734 172.067 343.326 176.924 335.725 183.091C328.122 189.259 320.408 195.017 318.583 195.887C315.444 197.383 315.152 197.357 313.208 195.414C311.796 194.002 310.56 190.265 309.252 183.454C308.207 178.006 307.116 172.576 306.828 171.388C306.371 169.495 307.269 168.822 314.066 165.967C319.064 163.868 323.523 162.697 326.587 162.68C329.206 162.665 331.346 162.519 331.346 162.356C331.346 161.79 317.359 155.029 316.188 155.029C315.484 155.029 315.734 155.834 316.801 157.012ZM62.3058 170.403C49.952 176.15 46.2779 185.625 54.138 191.465C56.6248 193.313 58.3522 193.569 68.3084 193.569C78.0512 193.569 79.9428 193.838 81.7574 195.476C85.2592 198.64 84.3634 203.256 79.7885 205.619C75.5273 207.821 70.8022 207.42 66.4889 204.492C64.3898 203.067 62.4561 202.116 62.1916 202.38C61.9281 202.644 63.1935 204.959 65.004 207.525C67.8194 211.518 68.66 212.103 70.8212 211.581C79.9027 209.387 88.878 201.539 88.878 195.792C88.878 188.022 83.3564 185.06 68.8715 185.06C60.1556 185.06 58.5536 184.794 56.8162 183.058C54.4196 180.664 54.3114 179.213 56.3182 176.35C59.6577 171.587 68.111 171.268 73.0325 175.718C74.363 176.921 74.8511 177.01 74.8511 176.05C74.8511 174.203 69.9866 168.04 68.5378 168.053C67.8776 168.058 65.0731 169.115 62.3058 170.403ZM198.394 188.281C196.254 191.039 196.218 193.179 198.252 196.625L200.355 200.185L201.688 197.878C204.31 193.339 204.417 192.723 203.015 190.239C201.306 187.212 199.74 186.547 198.394 188.281ZM192.277 196.272C190.611 197.937 190.773 201.583 192.578 203.08C193.809 204.101 194.081 204.032 194.081 202.701C194.081 201.808 194.727 201.077 195.517 201.077C197.308 201.077 198.817 205.34 197.213 205.874C195.155 206.559 197.142 208.085 200.092 208.085C202.934 208.085 205.051 206.574 203.131 205.918C201.321 205.3 203.237 201.077 205.327 201.077C206.687 201.077 207.137 201.554 206.743 202.579C205.877 204.835 207.875 204.385 209.13 202.041C210.557 199.378 209.539 196.343 206.943 195.519C204.082 194.613 202.056 196.955 201.387 201.94C200.726 206.866 199.091 207.478 199.091 202.802C199.091 197.123 195.179 193.373 192.277 196.272ZM181.401 209.629C181.075 210.48 181.032 211.398 181.305 211.672C181.58 211.945 182.044 211.249 182.337 210.127C182.963 207.742 182.268 207.373 181.401 209.629ZM194.76 210.247C193.768 210.802 192.353 211.024 191.614 210.741C190.849 210.447 190.053 211.057 189.765 212.158C189.167 214.443 186.251 214.737 185.428 212.596C185.112 211.773 184.428 211.362 183.908 211.684C183.346 212.03 183.456 212.861 184.178 213.73C185.145 214.895 185.063 215.522 183.775 216.808C182.408 218.173 181.907 218.216 180.536 217.078C179.643 216.339 179.134 214.887 179.405 213.854C179.804 212.327 179.63 212.195 178.478 213.151C177.697 213.798 176.154 214.091 175.048 213.802C173.942 213.514 173.29 213.686 173.599 214.184C173.908 214.684 173.736 215.092 173.217 215.092C172.697 215.092 172.038 214.193 171.75 213.095C170.701 209.09 164.928 209.843 165.088 213.963C165.13 215.031 165.474 214.791 166.086 213.266C167.16 210.588 170.326 210.643 170.847 213.349C171.071 214.506 170.237 215.429 168.354 216.111C162.93 218.076 160.496 219.604 157.634 222.844C156.048 224.636 154.244 226.097 153.626 226.089C152.808 226.078 152.812 225.873 153.642 225.338C154.47 224.805 154.401 224.247 153.392 223.312C152.239 222.243 152.048 222.329 152.279 223.813C152.433 224.798 152.901 226.15 153.317 226.819C153.759 227.524 153.222 228.887 152.036 230.072C150.914 231.193 150.447 232.11 150.998 232.11C151.549 232.11 152 233.477 152 235.146C152 237.331 151.369 238.46 149.745 239.178L147.491 240.175L149.745 239.74C151.221 239.455 152 239.792 152 240.713C152 241.487 151.231 242.121 150.291 242.121C149.163 242.121 150.44 243.889 154.049 247.323C159.761 252.758 163.564 254.416 162.477 250.995C162.07 249.715 162.378 249.128 163.455 249.128C164.319 249.128 165.025 249.669 165.025 250.33C165.025 251.251 165.3 251.256 166.203 250.354C167.792 248.766 164.537 245.124 161.53 245.124C158.341 245.124 157.912 246.032 159.58 249.256C160.399 250.837 160.813 252.131 160.499 252.131C159.318 252.131 154.006 239.493 154.005 236.681C154.004 232.164 157.676 225.607 161.81 222.745C166.008 219.838 171.834 217.557 172.742 218.465C173.072 218.795 173.903 218.301 174.586 217.367C175.637 215.931 176.079 215.875 177.441 217.004C178.327 217.739 179.052 218.975 179.052 219.751C179.052 221.664 176.33 222.58 174.689 221.22C172.815 219.666 171.926 220.946 173.325 223.184C174.929 225.751 172.792 228.07 170.28 226.486C168.93 225.636 168.207 225.882 166.8 227.669C164.73 230.298 164.579 232.894 166.185 238.251C167.402 242.306 168.692 243.171 169.682 240.593C170.161 239.349 170.549 239.299 171.788 240.326C173.106 241.419 172.992 241.66 170.924 242.147C168.008 242.836 167.372 245.323 169.555 247.506C171.289 249.237 173.545 249.753 172.583 248.196C171.34 246.189 174.089 246.171 176.093 248.174C179.258 251.336 179.432 249.97 176.432 245.53C174.636 242.872 174.405 242.171 175.712 243.34C177.555 244.988 177.684 244.932 178.794 241.993C179.827 239.257 179.692 238.665 177.544 236.519C174.989 233.966 171.046 233.268 171.022 235.364C171.01 236.205 170.765 236.263 170.27 235.541C169.865 234.95 168.713 234.164 167.71 233.794C165.164 232.854 165.837 228.607 168.532 228.607C169.847 228.607 170.646 229.38 170.856 230.859C171.339 234.261 173.739 233.56 175.033 229.641C176.67 224.686 191.419 211.951 195.902 211.621C196.848 211.55 198.198 211.138 198.901 210.705C199.611 210.266 200.841 210.462 201.663 211.143C202.884 212.156 203.033 212.084 202.513 210.729C201.778 208.816 198.096 208.49 198.074 210.337C198.062 211.27 197.867 211.289 197.31 210.414C196.786 209.59 196.025 209.541 194.76 210.247ZM204.1 210.473C204.1 210.707 206.086 212.06 208.513 213.482C215.173 217.381 223.898 225.795 225.299 229.67C225.985 231.563 227.116 233.111 227.812 233.111C229.509 233.111 231.212 236.46 230.902 239.192C230.764 240.406 231.163 241.582 231.79 241.805C233.002 242.238 235.16 237.137 235.16 233.84C235.16 232.198 234.907 232.075 233.657 233.111C232.458 234.105 231.851 234.105 230.652 233.111C228.535 231.357 228.784 229.015 231.153 228.397C233.317 227.831 233.761 226.594 232.155 225.603C231.603 225.263 231.153 225.462 231.153 226.045C231.153 227.686 227.155 227.295 226.501 225.59C226.18 224.757 226.441 223.446 227.082 222.676C227.877 221.718 227.913 221.073 227.194 220.628C226.616 220.272 226.143 220.457 226.143 221.04C226.143 222.767 222.406 222.246 221.704 220.42C220.799 218.064 223.693 215.247 225.334 216.887C225.999 217.552 227.468 218.099 228.598 218.104C231.779 218.12 240.737 223.682 243.245 227.201C246.666 232.003 246.869 238.446 243.812 245.282C242.418 248.398 240.691 251.309 239.973 251.75C239.222 252.213 239.43 251.389 240.462 249.812C242.534 246.646 241.999 245.124 238.808 245.124C236.026 245.124 234.158 246.893 234.158 249.529C234.158 251.086 234.426 251.264 235.361 250.33C237.134 248.558 238.468 248.869 237.929 250.928C236.983 254.542 240.926 252.943 246.254 247.554C249.758 244.008 251.05 242.121 249.972 242.121C248.026 242.121 247.742 236.524 249.57 234.17C250.426 233.068 250.394 232.905 249.438 233.479C248.749 233.892 248.185 233.753 248.185 233.17C248.185 232.588 248.722 232.11 249.379 232.11C250.035 232.11 249.768 231.524 248.787 230.806C247.487 229.857 247.138 228.628 247.507 226.295C247.798 224.448 247.617 223.333 247.08 223.664C246.568 223.982 246.408 224.66 246.726 225.172C247.927 227.115 245.91 225.987 243.021 223.101C240.291 220.373 240.161 219.598 242.498 220.003C242.953 220.083 243.066 219.728 242.748 219.216C242.431 218.703 241.271 218.519 240.171 218.806C239.07 219.094 237.108 218.634 235.809 217.784C234.511 216.934 231.81 215.931 229.805 215.556C227.8 215.18 226.382 214.514 226.654 214.075C226.925 213.636 226.243 213.514 225.137 213.802C224.031 214.091 222.514 213.82 221.766 213.199C220.672 212.292 220.495 212.536 220.86 214.441C221.163 216.032 220.759 217.023 219.629 217.457C217.174 218.399 215.87 217.198 216.391 214.475C216.918 211.719 216.799 211.661 214.046 213.34C212.342 214.379 211.791 214.322 210.802 213.006C209.726 211.573 204.1 209.447 204.1 210.473ZM229.708 210.995C229.398 211.493 230.048 211.667 231.151 211.378C233.491 210.767 233.787 210.087 231.713 210.087C230.918 210.087 230.016 210.495 229.708 210.995ZM160.015 213.474C160.015 213.685 160.918 214.093 162.02 214.382C163.123 214.67 163.773 214.497 163.464 213.998C162.925 213.126 160.015 212.684 160.015 213.474ZM195.756 218.838C193.349 226.496 192.971 229.014 193.669 232.733L194.328 236.24L196.371 232.923C198.039 230.218 199.015 224.947 198.051 223.852C197.356 223.063 197.542 217.413 198.295 216.433C198.826 215.742 198.795 215.028 198.221 214.673C197.688 214.344 196.579 216.218 195.756 218.838ZM202.487 216.344C202.874 217.981 202.72 219.097 202.108 219.097C201.474 219.097 201.565 219.919 202.339 221.23C203.358 222.954 203.351 223.452 202.305 223.83C201.311 224.188 201.282 224.622 202.178 225.7C202.946 226.626 203.012 227.532 202.372 228.356C201.704 229.216 202.103 230.623 203.647 232.854C205.413 235.404 206.025 235.762 206.501 234.524C207.543 231.81 207.167 226.676 205.512 221.031C203.819 215.253 201.315 211.374 202.487 216.344ZM157.575 218.803C157.032 220.23 157.146 220.345 158.136 219.364C158.821 218.684 159.129 217.876 158.82 217.569C158.512 217.261 157.951 217.816 157.575 218.803ZM283.493 229.841C279.546 231.22 280.211 238.117 284.29 238.117C285.373 238.117 286.259 238.597 286.259 239.185C286.259 239.783 285.412 239.986 284.339 239.645C281.384 238.708 280.806 240.961 283.668 242.264C287.646 244.075 289.427 241.945 289.061 235.812C288.827 231.891 288.337 230.676 286.76 230.114C285.658 229.721 284.187 229.598 283.493 229.841ZM296.518 229.774C292.58 231.358 293.226 238.117 297.315 238.117C298.398 238.117 299.284 238.562 299.284 239.106C299.284 239.65 298.495 239.988 297.531 239.857C295.064 239.521 294.434 241.187 296.529 242.507C299.561 244.418 301.746 242.082 302.103 236.546C302.344 232.809 302.008 231.378 300.66 230.392C298.787 229.024 298.49 228.98 296.518 229.774ZM92.0863 236.365C92.3809 242.541 92.422 242.621 95.3074 242.621C96.9146 242.621 98.4174 242.059 98.6469 241.37C98.8915 240.636 98.2021 240.119 96.9767 240.119C95.7894 240.119 94.8897 239.471 94.8897 238.617C94.8897 237.791 95.5661 237.116 96.3925 237.116C97.2192 237.116 97.8953 236.665 97.8953 236.115C97.8953 235.564 97.2192 235.113 96.3925 235.113C95.5661 235.113 94.8897 234.438 94.8897 233.612C94.8897 232.778 95.7804 232.11 96.8936 232.11C97.9957 232.11 98.8973 231.66 98.8973 231.109C98.8973 230.559 97.2983 230.108 95.3425 230.108H91.7886L92.0863 236.365ZM103.565 231.557C102.691 233.833 103.691 235.695 106.467 236.959C109.737 238.447 109.695 240.531 106.412 239.707C104.574 239.247 103.907 239.479 103.907 240.581C103.907 241.407 105.04 242.367 106.425 242.714C112.008 244.114 114.236 237.315 108.917 235.113C105.39 233.654 104.92 231.908 108.165 232.323C109.405 232.481 110.645 232.16 110.921 231.61C111.197 231.057 109.795 230.472 107.792 230.305C105.232 230.092 103.986 230.461 103.565 231.557ZM114.928 231.109C114.928 231.66 115.605 232.11 116.431 232.11C117.585 232.11 117.934 233.39 117.934 237.616C117.934 240.644 118.385 243.122 118.936 243.122C119.487 243.122 119.938 240.644 119.938 237.616C119.938 233.39 120.287 232.11 121.441 232.11C122.267 232.11 122.944 231.66 122.944 231.109C122.944 230.559 121.14 230.108 118.936 230.108C116.732 230.108 114.928 230.559 114.928 231.109ZM197.727 232.539C195.594 235.791 195.652 236.611 198.259 240.135L200.433 243.073L201.727 240.845C204.303 236.408 204.413 235.76 203.015 233.284C201.053 229.807 199.649 229.609 197.727 232.539ZM272.9 230.776C271.837 231.837 272.127 234.296 273.234 233.612C273.851 233.23 274.236 234.936 274.236 238.058C274.236 240.843 274.686 243.122 275.238 243.122C275.803 243.122 276.24 240.286 276.24 236.615C276.24 231.86 275.88 230.108 274.904 230.108C274.169 230.108 273.267 230.409 272.9 230.776ZM306.298 231.109C306.298 231.66 307.199 232.11 308.301 232.11C310.702 232.11 310.764 232.771 308.802 237.462C307.05 241.652 306.917 243.122 308.288 243.122C309.382 243.122 312.127 237.147 313.001 232.861C313.529 230.261 313.359 230.108 309.929 230.108C307.932 230.108 306.298 230.559 306.298 231.109ZM286.814 233.199C287.846 234.868 285.524 236.782 284.142 235.401C282.985 234.246 283.709 232.11 285.257 232.11C285.743 232.11 286.443 232.6 286.814 233.199ZM299.839 233.199C300.871 234.868 298.549 236.782 297.167 235.401C296.011 234.246 296.734 232.11 298.282 232.11C298.768 232.11 299.468 232.6 299.839 233.199ZM148.807 233.795C149.529 234.084 150.394 234.048 150.726 233.716C151.059 233.384 150.468 233.147 149.412 233.191C148.244 233.239 148.007 233.476 148.807 233.795ZM223.161 235.893C221.335 237.372 221.075 238.292 221.639 241.293L222.318 244.911L225.678 242.765C229.487 240.332 230.457 238.656 229.605 235.973C228.858 233.622 226.013 233.587 223.161 235.893ZM146.067 236.698C146.115 237.864 146.353 238.102 146.673 237.304C146.962 236.581 146.926 235.717 146.593 235.385C146.261 235.052 146.024 235.643 146.067 236.698ZM127.398 240.206C126.366 241.876 128.688 243.79 130.07 242.408C131.227 241.253 130.503 239.118 128.955 239.118C128.469 239.118 127.769 239.607 127.398 240.206ZM191.079 240.614C190.073 241.826 190.187 242.638 191.673 244.869C193.19 247.145 193.574 247.32 193.869 245.875C194.372 243.418 196.573 243.694 197.868 246.375C198.929 248.574 198.956 248.561 199.023 245.809C199.061 244.259 198.624 242.119 198.054 241.054C196.821 238.753 192.834 238.502 191.079 240.614ZM202.071 241.686C201.535 243.098 201.119 245.237 201.147 246.441L201.2 248.628L202.772 246.375C204.58 243.785 206.104 243.441 206.104 245.625C206.104 247.784 207.852 247.474 209.13 245.086C210.868 241.842 209.446 239.118 206.012 239.118C203.753 239.118 202.817 239.728 202.071 241.686ZM180.254 241.32C178.942 242.631 178.709 245.068 179.66 247.545C180.264 249.118 182.166 249.813 181.939 248.378C181.613 246.312 182.205 245.124 183.561 245.124C184.387 245.124 185.064 245.827 185.064 246.685C185.064 247.543 185.515 247.967 186.066 247.627C187.684 246.628 187.243 241.401 185.482 240.726C183.104 239.814 181.589 239.987 180.254 241.32ZM214.173 241.556C213.399 242.487 213.156 244.139 213.557 245.735C214.17 248.173 214.318 248.238 215.52 246.596C216.236 245.619 217.341 245.139 217.975 245.53C219.736 246.618 219.355 249.642 217.125 252.271L215.122 254.634L213.118 252.271C212.016 250.971 211.112 249.169 211.11 248.266C211.108 247.305 210.257 248.018 209.052 249.993C207.242 252.957 206.628 253.288 203.923 252.747C201.273 252.218 201.021 252.339 202.098 253.634C203.165 254.919 202.858 255.124 199.964 255.056C198.107 255.012 197.15 254.749 197.838 254.472C200.298 253.48 199.037 252.193 196.167 252.766C193.609 253.277 193.023 252.928 191.486 249.988L189.729 246.626L188.898 249.772C187.843 253.769 185.584 254.653 183.005 252.077C181.484 250.557 180.571 250.31 179.271 251.068C177.71 251.976 177.738 252.073 179.562 252.102C180.67 252.117 182.139 253.033 182.827 254.134C183.959 255.945 183.828 256.136 181.458 256.136C179.567 256.136 178.995 255.727 179.402 254.668C179.848 253.507 179.337 253.326 176.96 253.801C174.654 254.262 173.346 253.846 171.334 252.016C169.135 250.014 168.821 249.932 169.39 251.508C170.219 253.801 168.417 256.221 166.444 255.464C165.436 255.078 165.188 255.397 165.622 256.525C165.963 257.412 165.742 258.138 165.132 258.138C164.522 258.138 164.023 257.687 164.023 257.137C164.023 256.586 163.633 256.136 163.158 256.136C162.682 256.136 162.344 257.149 162.407 258.388C162.507 260.384 165.574 262.694 170.536 264.508C171.087 264.709 170.298 265.868 168.782 267.084C167.266 268.3 166.027 269.943 166.027 270.737C166.027 271.969 171.005 272.141 200.26 271.916C236.312 271.638 239.026 271.255 232.244 267.399C230.548 266.435 229.159 265.37 229.155 265.031C229.152 264.693 231.17 263.645 233.64 262.703C237.329 261.295 238.096 260.569 237.936 258.634C237.828 257.34 237.386 256.499 236.952 256.767C236.518 257.036 236.162 256.81 236.162 256.268C236.162 255.725 236.726 255.088 237.415 254.851C238.104 254.614 237.765 254.61 236.663 254.842C232.1 255.801 231.653 255.627 231.327 252.779L230.999 249.924L228.615 252.163C226.759 253.904 225.527 254.261 223.058 253.767C220.319 253.22 220.056 253.338 221.134 254.635C222.198 255.916 221.902 256.136 219.096 256.136C215.876 256.136 215.848 256.097 217.626 254.134C218.623 253.033 220.159 252.125 221.038 252.117C222.048 252.107 222.232 251.83 221.539 251.366C220.936 250.961 220.485 248.378 220.537 245.625C220.626 240.958 220.457 240.599 218.041 240.318C216.607 240.152 214.88 240.704 214.173 241.556ZM224.595 244.578C223.242 245.93 222.135 247.816 222.135 248.771C222.135 250.264 222.425 250.196 224.199 248.293C226.179 246.17 228.857 246.169 227.543 248.292C227.178 248.884 227.657 249.173 228.672 248.974C230.991 248.519 232.634 245.816 231.845 243.759C230.924 241.362 227.416 241.76 224.595 244.578ZM198.089 250.13C198.089 250.68 198.99 251.13 200.092 251.13C201.195 251.13 202.096 250.68 202.096 250.13C202.096 249.579 201.195 249.128 200.092 249.128C198.99 249.128 198.089 249.579 198.089 250.13ZM192.789 255.335C192.122 255.758 195.322 256.112 199.901 256.121C204.491 256.129 207.98 255.737 207.677 255.248C207.376 254.76 207.814 253.792 208.651 253.098C209.906 252.057 210.418 252.168 211.558 253.724C212.318 254.763 212.728 255.955 212.468 256.375C211.582 257.81 224.569 257.127 226.541 255.635C227.587 254.845 228.826 254.435 229.296 254.725C230.856 255.688 230.182 256.992 227.896 257.431C226.656 257.67 227.671 257.934 230.151 258.017C234.619 258.167 238.172 259.467 236.52 260.347C236.048 260.599 232.28 260.496 228.147 260.121C217.251 259.131 184.049 259.065 173.541 260.012C168.582 260.458 164.103 260.592 163.588 260.309C162.165 259.526 166.037 258.299 170.536 258.109C173.546 257.981 173.99 257.776 172.319 257.287C170.829 256.852 170.359 256.212 170.896 255.351C171.74 253.998 175.044 254.708 175.044 256.243C175.044 256.735 178.05 257.137 181.724 257.137C185.397 257.137 188.101 256.836 187.733 256.467C187.365 256.099 187.787 254.999 188.673 254.021C189.969 252.589 190.642 252.47 192.141 253.405C193.493 254.249 193.67 254.775 192.789 255.335ZM161.832 254.817C162.554 255.107 163.419 255.071 163.751 254.738C164.084 254.406 163.493 254.17 162.437 254.213C161.27 254.261 161.032 254.498 161.832 254.817ZM181.045 262.63C183.088 265.088 181.495 267.148 177.549 267.148C173.849 267.148 172.313 265.479 173.403 262.643C174.151 260.695 179.431 260.686 181.045 262.63ZM191.141 262.177C195.544 264.532 190.83 268.118 185.974 266.108C182.577 264.703 182.454 264.323 184.813 262.534C186.953 260.912 188.599 260.819 191.141 262.177ZM204.918 263.894C204.634 266.359 204.154 266.679 200.334 266.955C197.192 267.183 195.909 266.852 195.468 265.704C194.255 262.547 195.846 261.141 200.629 261.141C205.063 261.141 205.223 261.244 204.918 263.894ZM215.188 262.177C217.783 263.565 217.628 264.595 214.621 265.964C212.747 266.817 211.484 266.817 209.611 265.964C206.517 264.556 206.462 263.76 209.36 262.362C212.284 260.954 212.865 260.936 215.188 262.177ZM227.145 262.643C228.991 264.866 226.676 267.148 222.573 267.148C218.658 267.148 217.624 265.954 219.118 263.164C220.419 260.737 225.298 260.42 227.145 262.643ZM176.297 262.916C172.536 263.528 173.552 266.146 177.549 266.146C179.478 266.146 181.056 265.751 181.056 265.267C181.056 263.735 178.631 262.537 176.297 262.916ZM186.269 262.997C184.436 264.157 187.228 266.407 189.445 265.556C191.514 264.763 191.533 263.533 189.49 262.75C187.576 262.016 187.849 261.995 186.269 262.997ZM196.586 263.143C195.481 264.93 197.128 266.146 200.653 266.146C203.432 266.146 204.1 265.759 204.1 264.144C204.1 262.53 203.432 262.142 200.653 262.142C198.756 262.142 196.926 262.593 196.586 263.143ZM210.613 263.143C209.946 264.222 210.794 266.156 211.925 266.131C212.305 266.122 213.293 265.672 214.12 265.13C215.455 264.253 215.455 264.035 214.12 263.158C212.201 261.9 211.384 261.896 210.613 263.143ZM220.831 262.779C219.139 264.468 220.289 266.146 223.137 266.146C225.141 266.146 226.143 265.646 226.143 264.645C226.143 263.819 225.729 263.143 225.223 263.143C224.717 263.143 223.679 262.904 222.917 262.612C222.153 262.319 221.215 262.394 220.831 262.779ZM165.025 265.145C165.025 265.696 165.927 266.146 167.029 266.146C168.131 266.146 169.033 265.696 169.033 265.145C169.033 264.595 168.131 264.144 167.029 264.144C165.927 264.144 165.025 264.595 165.025 265.145ZM231.153 265.145C231.153 265.696 232.054 266.146 233.157 266.146C234.259 266.146 235.16 265.696 235.16 265.145C235.16 264.595 234.259 264.144 233.157 264.144C232.054 264.144 231.153 264.595 231.153 265.145ZM233.157 270.151C233.157 270.797 221.467 271.152 200.092 271.152C178.718 271.152 167.029 270.797 167.029 270.151C167.029 269.504 178.718 269.15 200.092 269.15C221.467 269.15 233.157 269.504 233.157 270.151Z" fill="white"/>
</svg>
