<svg width="400" height="400" viewBox="0 0 400 400" fill="none" xmlns="http://www.w3.org/2000/svg">
<path d="M186.109 304.06L185.481 303.904C184.383 303.749 183.755 304.06 183.441 304.532L183.127 305.002H182.971V304.846L183.755 303.435V303.279L185.011 301.239H185.167V301.395L184.383 302.493C184.069 303.121 184.383 303.276 185.325 303.435L185.953 303.59C187.05 301.237 187.992 298.567 189.562 297.939L186.109 297.469L186.264 297.313L191.758 298.097L191.602 298.253L190.346 298.097C187.52 299.981 190.19 304.377 189.718 307.986C189.562 309.556 188.306 310.654 186.423 310.498C183.283 310.028 184.383 307.83 182.185 307.516L179.359 307.202L180.771 304.691H181.085V304.846L180.301 306.258C179.987 306.886 180.301 307.042 181.399 307.2L182.497 307.356C184.066 307.825 185.164 306.1 186.106 304.06H186.109ZM190.19 298.409C188.465 299.351 186.736 307.042 183.441 307.828C185.639 308.456 185.167 310.34 186.736 310.654C187.992 310.809 188.776 309.87 189.09 308.456C189.56 304.374 187.678 300.293 190.188 298.409H190.19Z" fill="white"/>
<path d="M177.004 306.572V306.728L174.178 306.1V305.786H174.334C174.962 305.941 175.431 305.63 175.589 304.53L177.159 298.095C177.473 296.997 176.845 295.741 175.748 295.583C174.65 295.269 173.55 296.053 173.236 297.153L171.666 303.588C171.352 304.686 171.51 305.158 172.294 305.313V305.627H172.138L169.94 305.158V304.844C170.568 305 171.038 304.688 171.196 303.588L172.766 297.153C173.08 295.741 174.492 294.955 175.906 295.269C177.318 295.583 178.104 296.994 177.79 298.409L176.22 304.844C176.064 305.941 176.22 306.414 177.004 306.569V306.572Z" fill="white"/>
<path d="M166.959 303.901V304.057H166.803L165.392 303.587L164.294 293.698L161.782 300.606C161.468 301.703 161.468 302.176 162.252 302.331L162.722 302.487V302.801H162.566L159.898 301.859V301.545H160.054C160.682 301.701 161.152 301.545 161.466 300.447L164.606 291.814H164.761L166.017 302.49L168.685 295.112C168.999 294.015 168.999 293.543 168.215 293.387L167.745 293.231V292.917H167.901L170.569 293.859V294.173H170.413C169.785 294.017 169.315 294.173 169.001 295.271L166.489 302.178C166.175 303.12 166.334 303.59 166.959 303.904V303.901Z" fill="white"/>
<path d="M157.226 300.292V300.448H157.07L153.461 298.722C150.793 297.466 149.693 294.171 150.949 291.501C152.205 288.833 155.5 287.733 158.17 288.989L161.78 290.714V290.87H161.624C160.996 290.556 160.526 290.87 160.054 291.812L156.914 298.406C156.445 299.503 156.6 299.975 157.228 300.289L157.226 300.292ZM159.424 289.933L158.012 289.305C155.814 288.208 152.988 289.461 151.732 291.973C150.477 294.64 151.263 297.466 153.616 298.566L155.028 299.194C155.342 299.35 155.656 299.194 155.812 298.88L159.735 290.561C159.891 290.405 159.735 290.091 159.421 289.933H159.424Z" fill="white"/>
<path d="M152.202 286.166C152.202 286.269 152.202 286.269 152.202 286.166C151.574 285.852 150.946 286.01 150.162 286.794L144.511 292.131C144.197 293.073 144.355 293.701 144.98 294.015V294.171H144.825L143.255 293.229L145.922 284.282C146.236 283.184 146.078 282.712 145.608 282.398V282.242H145.764L148.276 283.812V283.968H148.12C147.337 283.498 147.023 283.812 146.709 284.751L146.239 286.477L148.592 287.889L149.848 286.633C150.632 285.849 150.632 285.535 150.004 285.063V284.907H150.16L152.199 286.163L152.202 286.166ZM146.236 286.635L144.667 291.659L148.434 288.049L146.236 286.638V286.635Z" fill="white"/>
<path d="M140.43 278.003C142.783 279.887 143.255 283.34 141.527 285.694C139.643 288.048 136.19 288.52 133.836 286.792C131.797 285.222 131.169 282.71 131.952 280.512L132.58 280.982C131.638 283.18 131.952 285.219 133.836 286.633C136.034 288.359 138.701 287.889 140.744 285.222C142.783 282.554 142.627 279.884 140.274 278.159C138.39 276.747 136.192 276.903 134.467 278.314L133.839 277.845C135.722 276.433 138.39 276.433 140.432 278L140.43 278.003Z" fill="white"/>
<path d="M127.715 281.298V281.454H127.559L125.52 279.57V279.414H125.675C126.145 279.884 126.617 279.728 127.401 278.944L132.266 273.607C133.05 272.823 133.05 272.351 132.58 271.881V271.726H132.736L134.776 273.609V273.765H134.62C134.15 273.295 133.678 273.451 132.894 274.235L128.029 279.572C127.245 280.356 127.087 280.828 127.715 281.298Z" fill="white"/>
<path d="M127.087 273.765C124.889 275.805 121.28 275.649 119.238 273.451C117.198 271.253 117.354 267.644 119.552 265.602C121.749 263.562 125.359 263.718 127.401 265.916C129.441 268.269 129.285 271.723 127.087 273.765ZM127.245 266.072C125.361 264.032 122.536 264.032 120.182 266.227C117.829 268.425 117.515 271.093 119.398 273.291C121.282 275.33 124.108 275.33 126.462 273.135C128.815 270.939 129.129 268.269 127.245 266.072Z" fill="white"/>
<path d="M113.744 266.386V266.542H113.588L112.646 265.286L117.356 256.495L111.39 260.732C110.448 261.36 110.293 261.83 110.762 262.458L111.076 262.927V263.083H110.92L109.351 260.885V260.73H109.506C109.976 261.358 110.448 261.199 111.232 260.574L118.767 255.236L118.923 255.392L113.744 264.811L120.023 260.26C120.965 259.632 121.121 259.162 120.651 258.534L120.337 258.065V257.909H120.493L122.063 260.107V260.262H121.907C121.437 259.634 120.965 259.793 120.181 260.418L114.216 264.656C113.588 265.283 113.432 265.753 113.746 266.381L113.744 266.386Z" fill="white"/>
<path d="M106.053 252.887C106.209 252.731 106.367 252.417 106.367 252.259C104.797 251.631 103.227 250.533 102.443 248.964C101.346 246.61 101.974 244.254 104.169 243.156L104.483 243.94C102.285 245.038 107.465 248.805 107.309 251.945C108.72 252.101 110.29 251.789 111.39 251.161C113.43 250.064 114.216 248.18 113.116 246.138C112.174 244.254 109.821 242.842 107.937 242.684L107.781 242.37C109.979 242.684 112.332 243.94 113.274 245.98C114.53 248.333 113.588 250.845 111.39 251.945C110.135 252.573 108.565 252.729 106.995 252.415C106.995 252.571 106.839 252.729 106.681 253.043C105.897 254.299 104.169 254.768 102.913 253.985C100.246 252.259 102.129 250.689 100.401 249.589L100.557 249.433C103.225 251.159 101.655 252.887 103.069 253.829C104.325 254.457 105.422 253.829 106.05 252.887H106.053ZM103.855 244.41C102.443 245.507 101.971 247.077 102.757 248.961C103.541 250.531 104.955 251.473 106.525 251.787C106.995 248.961 103.23 245.98 103.858 244.41H103.855Z" fill="white"/>
<path d="M110.135 240.017C109.821 239.389 109.351 239.075 108.251 239.234L100.56 240.175C99.7759 240.803 99.4619 241.273 99.7759 242.059V242.215H99.4619L98.834 240.489L106.369 234.996C107.311 234.368 107.467 233.898 107.311 233.271H107.625L108.723 236.096V236.252H108.409C108.095 235.468 107.625 235.468 106.839 236.096L105.427 237.194L106.525 239.861L108.409 239.706C109.507 239.55 109.821 239.236 109.507 238.45V238.294H109.821L110.135 240.02C110.238 240.02 110.238 240.02 110.135 240.02V240.017ZM105.111 236.877L100.874 240.017L106.053 239.389L105.111 236.877Z" fill="white"/>
<path d="M102.599 226.516C104.169 226.046 105.739 226.83 106.367 228.714C106.681 229.97 106.523 231.067 105.897 231.539L103.544 231.695V231.539L104.641 231.384C105.897 231.228 106.525 230.128 106.053 228.716C105.583 227.304 104.327 226.518 102.913 226.991C100.087 227.774 101.816 232.328 98.6759 233.112C97.2642 233.581 95.8501 232.798 95.3804 231.228C95.0664 230.13 95.2246 229.188 95.8501 228.716L98.2037 228.56V228.716L97.106 228.872C96.1641 229.028 95.2222 229.814 95.5361 231.07C95.8501 232.326 97.106 232.795 98.2037 232.481C101.343 231.853 99.4596 227.458 102.599 226.516Z" fill="white"/>
<path d="M104.798 224.163C104.642 223.535 104.17 223.221 103.072 223.065L95.3809 222.595C94.4389 223.065 94.125 223.537 94.2832 224.321H94.1274L93.8135 222.437L102.133 218.2C103.074 217.73 103.388 217.258 103.23 216.63H103.386L104.014 219.611V219.767H103.858C103.702 218.983 103.23 218.825 102.288 219.297L100.718 220.081L101.346 222.907L103.23 223.063C104.328 223.063 104.642 222.907 104.486 222.121V221.965H104.642L104.798 224.163ZM100.402 220.081L95.6924 222.435L100.872 222.749L100.402 220.081Z" fill="white"/>
<path d="M92.083 212.076C92.083 212.18 92.083 212.18 92.083 212.076C91.9792 212.18 91.9272 212.18 91.9272 212.076L91.6133 208.152C91.4575 205.171 93.6528 202.659 96.6368 202.501C99.6183 202.345 102.13 204.541 102.288 207.525L102.602 211.448H102.447C102.447 210.82 101.977 210.506 100.877 210.664L93.6553 211.134C92.3994 211.134 92.0855 211.448 92.0855 212.076H92.083ZM102.286 209.092L102.13 207.522C101.974 205.01 99.6183 203.126 96.6368 203.44C93.8111 203.596 91.6133 205.794 91.7715 208.306L91.9272 209.876C91.9272 210.19 92.083 210.345 92.5552 210.345L101.816 209.717C102.13 209.562 102.286 209.403 102.286 209.089V209.092Z" fill="white"/>
<path d="M91.4546 199.675C91.2988 199.831 91.2988 199.675 91.2988 199.675L91.4546 194.023H91.6103L94.2779 193.709V193.865L92.708 194.021C92.0801 194.177 91.7661 194.491 91.6103 195.591V197.161C91.6103 197.475 91.7661 197.63 92.0801 197.789L95.5337 197.944V197.475C95.5337 196.377 95.2198 195.905 94.5918 195.749L93.9639 195.593V195.438L95.5337 195.751H95.6895L98.043 196.221L96.7872 195.907C96.1592 195.752 95.8452 196.221 95.8452 197.163V197.633L101.497 197.789C101.811 197.789 101.966 197.633 102.125 197.319V195.593C102.125 194.496 101.811 194.023 101.183 193.868L98.985 193.398V193.242L102.125 194.026H102.28L102.125 199.677H101.969C101.969 199.049 101.655 198.735 100.557 198.735L93.3359 198.421C91.9243 198.735 91.4521 198.891 91.4521 199.677L91.4546 199.675Z" fill="white"/>
<path d="M93.9666 176.285L102.444 180.681C103.386 181.15 103.856 181.15 103.856 180.525H104.011L103.542 183.507H103.386V183.351C103.542 182.567 103.23 181.939 102.288 181.467L99.1484 179.897C99.3042 182.565 102.758 184.448 102.758 187.588C103.542 185.549 105.27 186.018 105.584 184.448H105.739C105.27 187.588 103.072 186.332 102.6 188.53H102.444C103.072 184.607 93.3387 179.897 93.9666 176.285ZM98.832 179.895L94.2806 177.541C95.2225 180.367 101.344 183.82 102.444 187.116C101.974 184.29 98.9902 182.406 98.8345 179.895H98.832Z" fill="white"/>
<path d="M94.9087 173.618H94.7529V173.462L95.6948 170.167H95.8506V170.323L95.6948 170.951C95.5391 171.579 95.8506 172.048 96.9507 172.362L104.956 174.56C105.27 174.716 105.584 174.56 105.584 174.246L106.053 172.676C106.367 171.579 106.209 171.106 105.584 170.792L103.544 169.695V169.539H103.7L106.526 170.951H106.681L105.112 176.444H104.798V176.288C104.953 175.66 104.642 175.191 103.542 174.877L96.4785 172.837C95.5366 172.681 95.0669 172.837 94.9087 173.621V173.618Z" fill="white"/>
<path d="M97.5757 164.827H97.4199V164.671L98.5176 161.69C99.1455 160.12 100.243 159.336 101.499 159.964C102.441 160.278 102.911 161.062 102.755 162.162C103.539 160.592 105.109 159.964 106.837 160.592C108.72 161.376 109.348 163.104 108.562 164.988L107.151 168.441H106.837V168.286C107.151 167.658 106.837 167.188 105.739 166.874L98.9898 164.206C98.2061 164.051 97.7339 164.051 97.5781 164.834L97.5757 164.827ZM102.443 163.257C102.913 162.159 102.443 161.217 101.346 160.745C100.09 160.276 99.3062 160.589 98.834 161.843L98.5201 162.627C98.3643 162.941 98.5201 163.255 98.834 163.255L101.974 164.51L102.443 163.255V163.257ZM107.937 166.239L108.406 164.983C109.034 163.413 108.406 162.157 106.523 161.373C104.639 160.589 103.383 161.217 102.755 162.785L102.127 164.51L107.306 166.55C107.62 166.706 107.934 166.55 107.934 166.236L107.937 166.239Z" fill="white"/>
<path d="M110.449 160.275C110.763 159.647 110.605 159.019 109.665 158.391L103.858 153.368C102.76 153.212 102.288 153.368 101.974 153.996H101.818V153.84L102.602 152.114L111.863 153.998C112.961 154.154 113.433 153.998 113.747 153.528H113.903L112.491 156.196H112.335V156.04C112.649 155.256 112.491 154.942 111.393 154.784L109.668 154.47L108.412 156.982L109.823 158.238C110.607 159.022 111.079 159.022 111.393 158.238H111.549V158.394L110.607 160.278H110.451L110.449 160.275ZM109.507 154.465L104.328 153.368L108.251 156.821L109.507 154.468V154.465Z" fill="white"/>
<path d="M115.942 138.455L116.412 137.827C117.039 136.885 117.195 136.257 116.725 135.788L116.57 135.16V135.004H116.884L117.667 136.416V136.571L118.765 138.611V138.767H118.609L117.981 137.669C117.667 137.041 117.353 137.199 116.725 138.139L116.256 138.609C117.826 140.648 119.709 142.846 119.551 144.416L121.591 141.59L121.747 141.746L118.451 146.297L118.137 146.141L118.921 145.044C118.607 141.59 113.428 141.904 110.444 139.706C109.188 138.764 108.718 137.039 109.816 135.625C111.699 133.113 113.111 135.155 114.367 133.427L116.093 131.073L117.504 133.585V133.741H117.348L116.407 132.329C116.093 131.701 115.779 131.859 114.995 132.799L114.525 133.583C113.583 134.838 114.681 136.564 115.937 138.448L115.942 138.455ZM118.923 144.735C118.923 142.851 112.958 137.513 113.9 134.218C112.174 135.788 110.76 134.532 109.818 135.788C109.034 136.885 109.504 137.986 110.602 138.927C114.055 141.281 118.451 141.595 118.921 144.735H118.923Z" fill="white"/>
<path d="M118.14 129.194C118.14 129.298 118.14 129.298 118.14 129.194H117.984V129.039L119.868 126.999H120.024V127.155C119.554 127.625 119.71 128.097 120.494 128.88L125.359 133.432C126.143 134.216 127.557 134.216 128.341 133.432C129.124 132.648 128.968 131.234 128.185 130.45L123.319 125.899C122.536 125.115 122.064 125.115 121.594 125.585H121.438V125.429L123.008 123.859H123.164V124.015C122.694 124.485 122.85 124.957 123.633 125.741L128.499 130.292C129.596 131.234 129.596 132.96 128.654 133.902C127.713 134.999 125.987 134.999 125.045 134.057L120.18 129.506C119.082 128.722 118.61 128.722 118.14 129.192V129.194Z" fill="white"/>
<path d="M125.361 121.66C125.361 121.815 125.205 121.815 125.361 121.66H125.205V121.504L126.303 120.406L135.564 124.174L130.698 118.681C129.915 117.897 129.442 117.739 128.973 118.211L128.503 118.525H128.347V118.369L130.387 116.485H130.543V116.641C130.073 117.111 130.073 117.583 130.857 118.367L136.978 125.274L136.82 125.744L126.931 121.662L132.11 127.469C132.894 128.253 133.366 128.411 133.836 127.939L134.305 127.625H134.461V127.781L132.421 129.665H132.266V129.509C132.735 129.039 132.735 128.567 131.952 127.783L127.086 122.29C126.303 121.348 125.831 121.192 125.361 121.662V121.66Z" fill="white"/>
<path d="M133.208 114.91H133.052V114.754L136.347 112.401C138.701 110.675 142.154 111.145 143.883 113.657C145.608 116.01 145.138 119.464 142.627 121.192L139.331 123.546H139.175V123.39C139.803 122.92 139.645 122.448 139.02 121.664L134.782 115.699C134.313 114.601 133.84 114.443 133.212 114.915L133.208 114.91ZM141.215 121.818L142.471 120.876C144.511 119.464 144.824 116.48 143.099 114.126C141.373 111.773 138.548 111.145 136.505 112.557L135.25 113.498C134.936 113.654 134.936 113.968 135.094 114.282L140.431 121.818C140.587 121.973 140.901 122.131 141.215 121.818Z" fill="white"/>
<path d="M147.965 117.263C148.593 116.794 148.749 116.321 148.435 115.224L146.395 107.847C145.611 107.063 145.139 106.905 144.511 107.377H144.355V107.221L146.081 106.279L152.674 113.028C153.458 113.812 153.93 113.97 154.558 113.656V113.812L151.891 115.382H151.735V115.226C152.519 114.757 152.363 114.443 151.579 113.656L150.323 112.401L147.812 113.812L148.281 115.538C148.595 116.635 148.909 116.794 149.693 116.48H149.849V116.635L147.965 117.263C147.965 117.367 147.965 117.367 147.965 117.263ZM150.318 111.77L146.709 108.161L148.121 113.184L150.318 111.773V111.77Z" fill="white"/>
<path d="M160.835 110.828C158.009 112.084 154.714 110.828 153.614 108.003C152.358 105.177 153.614 101.881 156.44 100.781C158.793 99.8394 161.305 100.467 162.875 102.193L162.091 102.507C160.679 100.623 158.637 99.9951 156.44 100.937C153.772 102.035 152.986 104.705 154.242 107.686C155.498 110.668 158.009 111.768 160.677 110.668C162.875 109.726 163.817 107.842 163.344 105.488L164.128 105.174C164.442 107.528 163.186 109.884 160.833 110.826L160.835 110.828Z" fill="white"/>
<path d="M164.133 98.1143C164.029 98.1143 164.029 98.1143 164.133 98.1143L163.978 97.9585L166.645 97.0166H166.801V97.3306C166.173 97.4863 166.017 97.9585 166.331 99.0562L168.685 105.964C168.999 107.061 169.468 107.375 170.096 107.061H170.252V107.375L167.585 108.317H167.429V108.003C168.057 107.847 168.212 107.375 167.898 106.278L165.545 99.3702C165.075 98.2725 164.761 97.9585 164.133 98.1143Z" fill="white"/>
<path d="M170.882 101.253C170.254 98.2715 171.98 95.2876 174.964 94.6596C177.945 94.0317 180.929 95.7573 181.557 98.7413C182.185 101.723 180.46 104.707 177.476 105.335C174.65 105.963 171.668 104.237 170.882 101.253ZM177.476 105.176C180.301 104.549 181.557 102.195 180.771 98.897C179.987 95.7573 177.79 94.1874 174.964 94.8154C172.138 95.4433 170.882 97.7969 171.668 101.095C172.61 104.235 174.808 105.804 177.476 105.176Z" fill="white"/>
<path d="M183.911 93.2485C183.807 93.2485 183.807 93.2485 183.911 93.2485C183.807 93.1447 183.807 93.0927 183.911 93.0927L185.481 92.937L190.974 101.414L190.19 94.1929C190.035 93.0952 189.721 92.7812 189.093 92.7812H188.465V92.6255L191.29 92.3115V92.4673C190.663 92.623 190.349 92.937 190.507 94.0371L191.604 103.142H191.449L185.641 94.0371L186.583 101.728C186.739 102.826 187.053 103.14 187.681 103.14H188.309V103.296L185.483 103.61V103.454C186.111 103.298 186.425 102.984 186.267 101.884L185.483 94.6626C184.855 93.5649 184.541 93.0927 183.913 93.251L183.911 93.2485Z" fill="white"/>
<path d="M199.293 92.9345C199.449 93.0902 199.607 93.4042 199.763 93.5624C201.019 92.4648 202.744 91.6786 204.472 91.6786C206.984 91.6786 208.71 93.5624 208.868 95.916H208.084C208.084 93.4042 202.277 96.23 199.765 94.5043C198.981 95.7602 198.509 97.1719 198.354 98.4278C198.354 100.626 199.609 102.351 201.963 102.351C204.161 102.351 206.359 101.095 207.456 99.5254H207.77C206.514 101.409 204.161 102.665 201.963 102.665C199.295 102.665 197.567 100.626 197.567 98.1138C197.567 96.7022 198.195 95.288 199.293 94.0322C199.137 93.8764 198.979 93.7182 198.979 93.5624C198.351 92.3065 198.665 90.5809 200.077 89.7948C202.902 88.3831 203.372 90.7367 205.256 89.639L205.412 89.7948C202.586 91.3646 201.802 89.0111 200.232 89.9505C198.821 90.5785 198.821 91.9901 199.291 92.932L199.293 92.9345ZM207.926 94.9741C207.612 93.2485 206.514 91.9926 204.472 91.8343C202.747 91.8343 201.333 92.618 200.235 93.8739C202.433 95.7578 206.828 93.7182 207.926 94.9716V94.9741Z" fill="white"/>
<path d="M208.712 102.665C209.496 102.665 209.968 102.351 210.282 101.409L213.264 94.3457C213.108 93.2481 212.794 92.9341 212.008 92.7759V92.6201L213.892 92.9341L215.148 102.195C215.303 103.293 215.617 103.765 216.245 103.765V103.921L213.264 103.607V103.451H213.42C214.203 103.607 214.517 103.137 214.361 102.039L214.047 100.155L211.222 99.8415L210.594 101.567C210.124 102.509 210.28 102.979 211.064 103.137V103.293H210.908L208.71 102.665C208.71 102.769 208.71 102.769 208.71 102.665H208.712ZM213.892 99.8415L213.264 94.6622L211.224 99.5275L213.892 99.8415Z" fill="white"/>
<path d="M224.094 102.665C223.78 104.391 222.21 105.333 220.326 104.863C219.07 104.549 218.128 103.921 217.973 103.137L218.915 101.098H219.229V101.253L218.759 102.351C218.289 103.449 219.073 104.549 220.329 104.863C221.74 105.177 222.996 104.393 223.31 102.979C223.938 99.9976 219.229 99.5254 219.856 96.3857C220.17 94.974 221.426 94.0321 222.996 94.5019C224.094 94.6576 224.88 95.4438 225.036 96.2275L224.094 98.267H223.78V98.1113L224.25 97.0136C224.719 96.0717 224.405 94.8158 222.994 94.5019C221.738 94.1879 220.796 94.9716 220.64 96.0717C220.17 98.8975 224.878 99.3672 224.094 102.665Z" fill="white"/>
<path d="M225.195 105.49C225.978 105.646 226.451 105.335 226.92 104.393L231.002 97.7993C231.002 96.7017 230.688 96.2295 230.06 96.0737V95.7598H230.216L232.1 96.3877L231.786 105.807C231.786 106.905 231.941 107.377 232.569 107.532V107.688L229.744 106.746V106.432H229.899C230.683 106.746 230.997 106.277 230.997 105.335V103.451L228.33 102.667L227.388 104.237C226.76 105.179 226.918 105.649 227.702 105.807V106.121H227.546L225.192 105.807C225.192 105.651 225.037 105.651 225.192 105.493L225.195 105.49ZM230.846 103.607L231.002 98.4273L228.176 102.823L230.844 103.607H230.846Z" fill="white"/>
<path d="M241.832 100.312V100.156H241.988L245.597 101.882C248.265 103.138 249.365 106.277 248.109 108.945C246.853 111.613 243.714 112.713 241.046 111.457L237.437 109.731V109.417H237.592C238.22 109.731 238.69 109.417 239.162 108.475L242.302 101.882C242.458 101.098 242.458 100.626 241.832 100.312ZM239.634 110.673L241.046 111.301C243.244 112.399 246.07 111.145 247.325 108.475C248.581 105.808 247.795 102.982 245.442 101.882L244.03 101.254C243.716 101.098 243.402 101.254 243.246 101.568L239.323 109.887C239.167 110.201 239.323 110.515 239.637 110.671L239.634 110.673Z" fill="white"/>
<path d="M252.978 105.805V105.649H253.133L257.999 108.475V108.631L257.057 111.143H256.901V110.987L257.529 109.417C257.843 108.789 257.529 108.319 256.587 107.691L255.331 106.908C255.017 106.752 254.703 106.752 254.548 107.064L252.822 110.045L253.292 110.359C254.234 110.987 254.703 110.829 255.175 110.359L255.489 109.889H255.645V110.045L254.703 111.301V111.457L253.133 113.34H252.978V113.185L253.761 112.087C254.231 111.617 253.917 111.145 253.133 110.517L252.664 110.203L249.838 114.913C249.682 115.227 249.682 115.541 249.994 115.697L251.405 116.48C252.347 117.108 252.817 116.95 253.289 116.48L254.701 114.91H254.857V115.066L252.659 117.42L252.503 117.575L247.638 114.594V114.438H247.793C248.421 114.752 248.891 114.594 249.363 113.654L253.131 107.375C253.601 106.747 253.601 106.119 252.975 105.805H252.978Z" fill="white"/>
<path d="M272.285 119.147L264.436 124.485C263.494 125.113 263.339 125.427 263.966 125.896V126.052H263.811L261.299 124.168V124.013H261.455C262.083 124.482 262.711 124.482 263.652 124.013L266.634 121.973C264.122 120.875 260.982 122.915 258.157 121.503C259.568 123.229 258.312 124.485 259.568 125.427L259.413 125.582C256.901 123.543 258.943 122.287 257.373 120.873L257.529 120.717C260.51 123.229 269.46 116.949 272.283 119.147H272.285ZM266.792 121.817L271.03 118.991C268.204 118.522 262.083 122.131 258.629 121.503C261.455 122.445 264.436 120.72 266.792 121.817Z" fill="white"/>
<path d="M274.325 121.345C274.221 121.345 274.221 121.345 274.325 121.345V121.189H274.481L276.834 123.543V123.699H276.678L276.209 123.229C275.739 122.759 275.267 122.915 274.483 123.543L268.676 129.35C268.362 129.664 268.362 129.82 268.676 130.134L269.773 131.232C270.557 132.015 271.029 132.174 271.657 131.701L273.541 130.445H273.697V130.601L271.029 132.327L270.874 132.483L266.792 128.401V128.245H266.948C267.417 128.715 267.89 128.559 268.673 127.931L273.853 122.752C274.636 122.282 274.795 121.81 274.322 121.34L274.325 121.345Z" fill="white"/>
<path d="M280.605 127.939C280.605 127.835 280.605 127.835 280.605 127.939V127.783H280.76L282.8 130.295C283.898 131.551 283.898 132.963 282.956 133.904C282.172 134.532 281.23 134.532 280.444 134.06C281.386 135.63 281.228 137.2 279.816 138.298C278.246 139.553 276.362 139.395 275.106 137.67L272.753 134.844V134.688H272.909C273.378 135.158 273.851 135.158 274.634 134.532L280.128 129.823C280.911 128.881 281.069 128.411 280.597 127.939H280.605ZM274.325 136.416L275.267 137.514C276.365 138.77 277.779 138.77 279.349 137.514C280.919 136.258 281.074 134.846 279.977 133.59L278.565 132.021L274.328 135.63C274.172 135.786 274.014 136.1 274.328 136.414L274.325 136.416ZM279.663 132.804C280.446 133.746 281.388 133.746 282.33 132.96C283.272 132.174 283.428 131.234 282.644 130.293L282.175 129.665C282.019 129.351 281.705 129.351 281.391 129.665L278.723 131.862L279.665 132.804H279.663Z" fill="white"/>
<path d="M278.407 141.281C278.877 141.909 279.505 141.909 280.447 141.595L287.668 138.927C288.296 138.144 288.452 137.516 287.982 137.043V136.888H288.138L289.235 138.458L283.114 145.679C282.486 146.463 282.33 147.091 282.644 147.563V147.718H282.489L280.763 145.207V145.051H280.919C281.388 145.679 281.861 145.679 282.489 144.737L283.744 143.325L282.175 140.972L280.449 141.6C279.351 141.914 279.193 142.383 279.665 143.011V143.167H279.51L278.412 141.283C278.308 141.387 278.308 141.387 278.412 141.283L278.407 141.281ZM284.058 143.32L287.512 139.239L282.647 140.964L284.058 143.318V143.32Z" fill="white"/>
<path d="M294.889 156.822L295.203 157.45C295.673 158.392 296.145 158.861 296.928 158.861H297.556V159.017H293.475V158.861H294.731C295.359 158.861 295.359 158.547 295.045 157.45L294.731 156.822C292.219 157.136 289.393 157.764 287.981 156.822L289.393 159.962H289.237L286.884 154.938H287.04L287.509 156.036C290.649 157.447 292.847 152.74 296.3 151.17C297.712 150.542 299.44 151.015 300.068 152.582C301.324 155.408 298.97 155.722 299.912 157.761L301.168 160.273L298.343 160.429V160.273H300.068C300.696 160.273 300.852 159.803 300.382 158.861L299.912 157.919C299.129 156.35 297.087 156.508 294.889 156.822ZM287.981 156.35C289.707 157.292 297.087 154.624 299.598 157.133C298.97 154.935 300.854 154.308 300.226 152.738C299.757 151.64 298.343 151.326 297.087 151.954C293.319 153.68 290.807 157.292 287.981 156.35Z" fill="white"/>
<path d="M301.952 163.101L302.108 162.945L303.05 165.613V165.769H302.736C302.58 165.141 302.108 164.985 301.01 165.299L294.731 167.338C293.633 167.652 293.005 168.908 293.319 170.006C293.633 171.104 294.889 171.576 295.987 171.262L302.266 169.222C303.364 168.908 303.678 168.439 303.364 167.811V167.655H303.678L304.306 169.853V170.008H303.992C303.836 169.381 303.364 169.225 302.266 169.539L295.987 171.578C294.575 172.048 293.161 171.264 292.691 170.008C292.222 168.597 293.005 167.183 294.261 166.713L300.541 164.673C301.797 164.204 302.111 163.89 301.952 163.104V163.101Z" fill="white"/>
<path d="M304.936 172.99L305.092 172.834L305.406 174.404L297.557 180.683L304.62 179.113C305.718 178.799 306.031 178.485 305.876 177.858L305.72 177.23H305.876L306.504 179.897H306.348C306.192 179.269 305.72 179.113 304.622 179.269L295.675 181.309V181.153L303.994 174.404L296.459 176.129C295.361 176.443 295.047 176.757 295.203 177.385L295.359 178.013H295.203L294.575 175.346H294.731C294.887 175.974 295.359 176.129 296.457 175.974L303.52 174.404C304.776 174.09 305.09 173.776 304.931 172.992L304.936 172.99Z" fill="white"/>
<path d="M307.134 183.193C307.237 183.089 307.289 183.089 307.289 183.193L307.759 187.117C308.073 190.098 306.033 192.768 303.049 193.082C300.065 193.396 297.398 191.356 297.084 188.372L296.614 184.449H296.77C296.926 185.077 297.24 185.391 298.34 185.233L305.561 184.291C306.817 184.291 307.287 183.977 307.131 183.193H307.134ZM297.242 186.803L297.398 188.372C297.712 190.884 300.224 192.61 303.049 192.14C305.875 191.67 307.915 189.628 307.601 187.117L307.445 185.547C307.445 185.233 307.131 185.077 306.817 185.077L297.712 186.175C297.398 186.175 297.242 186.489 297.242 186.803Z" fill="white"/>
<path d="M298.029 194.966C298.029 195.75 298.498 196.063 299.598 196.377L307.134 198.261C308.076 197.947 308.545 197.478 308.545 196.85H308.701V198.733L299.754 201.245C298.656 201.559 298.342 202.029 298.342 202.657H298.187V199.675H298.342C298.342 200.459 298.812 200.617 299.754 200.303L301.48 199.834V197.008L299.754 196.538C298.656 196.224 298.342 196.382 298.342 197.322H298.187L298.031 194.968C297.927 194.968 297.927 194.968 298.031 194.968L298.029 194.966ZM301.638 199.675L306.662 198.264L301.638 197.008V199.675Z" fill="white"/>
<path d="M297.4 209.406C297.714 206.425 300.382 204.069 303.366 204.383C306.347 204.697 308.703 207.364 308.389 210.348C308.234 212.86 306.35 214.744 303.994 215.213V214.43C306.347 214.116 307.917 212.704 308.075 210.348C308.389 207.522 306.506 205.483 303.21 205.169C299.915 204.855 297.717 206.425 297.559 209.25C297.403 211.604 298.656 213.332 300.854 214.116V214.899C298.656 214.116 297.086 211.918 297.4 209.406Z" fill="white"/>
<path d="M306.975 218.353C307.131 218.197 306.975 218.197 306.975 218.353H307.131L306.661 221.178H306.506C306.661 220.55 306.192 220.081 305.25 219.922L298.028 218.667C296.931 218.511 296.458 218.667 296.458 219.294H296.303L296.772 216.469H296.928C296.772 217.097 297.242 217.566 298.184 217.725L305.405 218.981C306.503 219.136 306.975 218.981 306.975 218.353Z" fill="white"/>
<path d="M301.01 222.906C303.991 223.69 305.719 226.83 304.933 229.655C304.15 232.637 301.01 234.365 298.184 233.579C295.358 232.795 293.474 229.655 294.261 226.83C295.044 223.69 298.028 221.964 301.01 222.906ZM294.419 226.674C293.635 229.5 295.203 231.697 298.342 232.639C301.482 233.581 303.994 232.325 304.777 229.658C305.561 226.99 303.994 224.634 300.854 223.692C297.714 222.75 295.203 224.006 294.419 226.674Z" fill="white"/>
<path d="M301.796 237.975H301.952V238.13L301.324 239.542L291.276 240.17L298.026 242.996C298.968 243.465 299.595 243.31 299.751 242.682L299.907 242.212H300.063V242.368L298.965 244.88H298.651V244.724C298.965 244.096 298.651 243.626 297.553 243.312L289.076 239.858L289.232 239.703L299.907 238.919L292.686 235.938C291.744 235.468 291.116 235.624 290.96 236.252L290.804 236.721H290.49V236.565L291.588 234.054H291.902V234.209C291.588 234.837 291.902 235.307 293 235.621L299.749 238.447C301.005 238.761 301.633 238.761 301.788 237.977L301.796 237.975Z" fill="white"/>
<path d="M294.575 251.789H293.947C294.261 253.515 294.102 255.243 293.319 256.813C292.063 259.011 289.551 259.638 287.512 258.538L287.981 257.755C290.179 259.011 290.493 252.575 293.161 251.161C292.533 249.905 291.435 248.808 290.335 248.021C288.451 246.924 286.411 247.238 285.156 249.119C284.058 251.003 284.214 253.515 285 255.399L284.844 255.554C283.902 253.515 283.746 250.845 285 248.961C286.411 246.763 288.923 246.135 290.965 247.391C292.221 248.175 293.163 249.431 293.633 250.845H294.261C295.672 250.845 297.086 251.942 297.086 253.512C297.086 256.652 294.733 255.866 294.733 258.064H294.577C294.577 254.924 296.931 255.238 296.931 253.512C296.775 252.415 295.675 251.787 294.577 251.787L294.575 251.789ZM288.609 258.224C290.335 258.852 291.905 258.38 293.005 256.654C293.947 255.085 293.947 253.515 293.319 251.945C290.651 253.043 290.179 257.91 288.609 258.224Z" fill="white"/>
<path d="M281.546 255.241C281.232 255.869 281.232 256.497 282.016 257.281L286.881 263.246C287.823 263.56 288.451 263.56 288.765 262.932H288.921V263.088L287.823 264.658L279.032 261.204C278.09 260.734 277.462 260.89 277.148 261.36H276.992V261.204L278.718 258.85H278.874V259.006C278.404 259.634 278.56 260.104 279.657 260.418L281.383 261.046L283.108 258.848L282.011 257.436C281.383 256.653 280.913 256.494 280.441 257.122H280.285V256.967L281.541 255.241C281.437 255.137 281.437 255.137 281.541 255.241H281.546ZM281.39 261.206L286.256 263.09L282.96 259.009L281.39 261.206Z" fill="white"/>
<path d="M274.169 268.742C272.913 267.644 272.757 265.916 274.013 264.346C274.797 263.404 275.897 262.934 276.681 263.248L278.092 265.132V265.288H277.937L277.309 264.346C276.525 263.404 275.269 263.562 274.327 264.502C273.385 265.599 273.543 267.169 274.483 268.111C276.681 269.995 279.506 266.227 282.018 268.267C283.116 269.209 283.274 270.779 282.174 272.035C281.39 272.818 280.448 273.291 279.82 272.977L278.409 271.093V270.937H278.565L279.192 271.879C279.82 272.663 281.076 272.977 281.86 272.035C282.644 271.093 282.488 269.837 281.546 269.053C279.348 267.014 276.681 270.937 274.169 268.739V268.742Z" fill="white"/>
<path d="M271.029 268.27C270.56 268.898 270.56 269.367 271.029 270.309L274.797 277.058C275.739 277.528 276.209 277.528 276.837 277.058H276.992V277.214L275.581 278.47L267.576 273.605C266.634 272.977 266.006 272.977 265.692 273.449H265.536V273.293L267.734 271.254H267.89V271.409C267.262 272.037 267.42 272.351 268.359 272.979L269.929 273.921L271.969 272.037L271.027 270.467C270.557 269.526 270.085 269.37 269.457 269.998H269.301V269.842L271.027 268.272C271.027 268.116 270.871 268.116 271.027 268.272L271.029 268.27ZM269.929 274.079L274.481 276.747L271.969 272.196L269.929 274.079Z" fill="white"/>
<path d="M267.576 285.38C267.68 285.38 267.68 285.38 267.576 285.38H267.732V285.535L264.592 287.889C262.238 289.615 258.785 289.145 257.057 286.791C255.331 284.438 255.801 280.984 258.154 279.256L261.294 276.902H261.45V277.058C260.822 277.528 260.98 278 261.605 278.784L265.843 284.749C266.627 285.691 267.099 285.847 267.568 285.377L267.576 285.38ZM259.727 278.472L258.471 279.414C256.431 280.826 256.117 283.965 257.843 286.163C259.568 288.517 262.552 289.145 264.436 287.733L265.692 286.791C266.006 286.635 266.006 286.322 265.848 286.008L260.355 278.63C260.199 278.316 259.885 278.316 259.727 278.475V278.472Z" fill="white"/>
<path d="M257.529 292.601H257.684V292.757L252.819 295.583L252.663 295.427L250.938 293.387V293.232H251.093L252.191 294.488C252.661 294.957 253.133 295.115 254.075 294.488L255.331 293.704C255.645 293.548 255.645 293.234 255.487 292.92L253.761 289.939L253.291 290.253C252.349 290.722 252.035 291.35 252.349 291.978L252.505 292.448V292.604H252.191L251.563 291.192V291.036L250.621 288.838V288.683H250.777L251.247 289.939C251.561 290.567 252.03 290.567 252.817 290.094L253.286 289.78L250.461 284.915C250.305 284.601 249.991 284.601 249.677 284.759L248.265 285.543C247.323 286.013 247.009 286.641 247.323 287.269L248.107 289.308V289.464H247.793L246.695 286.482V286.327L251.719 283.501H251.875V283.657C251.247 283.971 251.247 284.44 251.875 285.382L255.484 291.662C256.426 292.759 256.896 292.918 257.524 292.604L257.529 292.601Z" fill="white"/>
<path d="M236.339 303.118L235.556 293.699C235.4 292.601 235.242 292.288 234.614 292.601H234.458V292.288L237.284 291.19H237.44V291.504C236.656 291.818 236.342 292.446 236.498 293.388L236.812 296.997C239.009 295.427 238.695 291.504 241.363 289.776C239.165 290.245 238.695 288.52 237.126 289.148V288.992C239.951 287.736 240.265 290.248 242.149 289.462V289.618C238.54 290.715 239.796 301.704 236.342 303.116L236.339 303.118ZM236.809 296.997L237.279 302.176C239.004 299.823 238.849 292.915 241.046 290.09C238.849 291.974 238.849 295.427 236.809 296.997Z" fill="white"/>
<path d="M233.514 303.746C233.618 303.746 233.618 303.746 233.514 303.746L233.67 303.902L230.374 304.844H230.218V304.53L230.846 304.374C231.474 304.218 231.63 303.746 231.316 302.648L228.962 294.643C228.807 294.329 228.648 294.173 228.335 294.329L226.765 294.799C225.667 295.113 225.353 295.583 225.353 296.21L225.509 298.408H225.353L225.039 295.269V295.113L230.532 293.543H230.688V293.857C230.06 294.013 229.904 294.485 230.218 295.583L232.258 302.646C232.414 303.588 232.886 303.902 233.514 303.743V303.746Z" fill="white"/>
<path d="M224.723 306.099L224.878 306.255L221.739 306.883C220.013 307.197 218.913 306.569 218.599 305.313C218.443 304.371 218.755 303.588 219.697 302.96C217.971 303.115 216.557 302.176 216.243 300.292C215.773 298.252 216.871 296.838 219.069 296.369L222.678 295.585V295.741C222.05 295.896 221.736 296.369 222.05 297.466L223.462 304.688C223.618 305.944 224.09 306.258 224.718 306.099H224.723ZM220.327 296.524L219.071 296.838C217.346 297.152 216.718 298.408 217.032 300.292C217.346 302.176 218.601 303.118 220.171 302.804L222.055 302.49L220.957 296.997C220.957 296.527 220.802 296.369 220.33 296.527L220.327 296.524ZM220.799 302.804C219.543 303.118 219.074 303.902 219.388 305.157C219.702 306.413 220.485 307.041 221.585 306.727L222.369 306.572C222.683 306.572 222.839 306.258 222.839 305.944L222.211 302.648L220.799 302.804Z" fill="white"/>
<path d="M214.049 297.625C213.266 297.781 212.952 298.253 212.794 299.35L211.538 307.042C211.852 307.983 212.321 308.297 213.108 308.297V308.453L211.224 308.609L207.928 299.818C207.614 298.876 207.145 298.406 206.517 298.562V298.406L209.498 298.092H209.654V298.248C208.87 298.404 208.712 298.718 209.026 299.818L209.654 301.543L212.48 301.229L212.794 299.345C212.949 298.248 212.794 297.934 211.852 297.934H211.696V297.778L214.049 297.62C214.049 297.516 214.049 297.516 214.049 297.62V297.625ZM209.654 301.548L211.538 306.414L212.321 301.234L209.654 301.548Z" fill="white"/>
<path d="M196.625 226.047C192.702 225.891 185.794 225.891 178.887 225.577C171.196 225.263 163.505 224.635 156.125 222.437C154.714 221.968 153.299 221.495 152.044 220.712C150.16 219.614 150.004 217.886 151.73 216.474C152.827 215.691 154.241 215.063 155.653 214.591C160.677 213.021 166.014 212.393 171.193 211.923C184.064 210.667 196.937 210.667 209.807 210.981C217.812 211.137 225.661 211.923 233.666 212.551C237.904 212.865 241.986 213.963 246.067 215.377C246.537 215.532 247.009 215.846 247.479 216.16C249.363 217.73 249.204 219.456 247.165 220.712C244.497 222.437 241.513 222.91 238.374 223.537C225.345 225.735 212.475 225.891 196.62 226.049L196.625 226.047ZM154.086 218.197V218.511C154.555 218.667 155.028 218.981 155.497 219.139C158.793 219.923 162.091 220.865 165.386 221.337C174.177 222.749 183.124 223.221 192.071 223.221C204.472 223.377 216.873 223.221 229.273 221.809C233.825 221.34 238.22 220.554 242.616 219.298C243.4 218.984 244.186 218.67 244.969 218.356C244.5 217.886 244.028 217.728 243.558 217.572C239.948 216.788 236.495 215.846 232.883 215.218C223.622 213.807 214.203 213.335 204.786 213.335C196.623 213.335 188.618 213.49 180.613 213.804C173.705 214.118 166.8 214.902 160.049 216.316C157.851 216.944 155.967 217.572 154.083 218.2L154.086 218.197Z" fill="white"/>
<path d="M150.162 211.761C149.534 210.82 148.906 209.878 148.436 208.78C148.28 208.624 148.592 207.996 148.75 207.838C149.378 207.368 150.162 206.896 150.948 206.582C154.243 205.798 157.541 204.698 160.995 204.229C176.849 202.189 192.704 202.031 208.714 202.345C215.463 202.5 222.212 202.814 228.964 203.287C234.615 203.601 240.267 204.229 245.76 205.798C247.172 206.268 248.586 206.896 249.842 207.524C250.47 207.838 250.784 208.308 249.997 208.936C249.369 209.564 249.055 210.506 248.741 211.289C249.055 209.878 248.741 208.463 247.958 207.208C247.174 205.952 245.446 205.638 244.504 206.738C242.934 208.777 242.464 211.134 243.092 213.645C240.581 213.176 238.069 212.548 235.243 211.92C237.127 210.978 238.697 210.036 240.422 209.094C239.167 207.996 238.069 206.896 236.969 205.798C235.713 204.543 234.143 204.387 232.573 205.17C231.475 205.64 230.375 206.268 229.119 206.896L228.964 207.21C230.848 208.78 232.731 210.35 234.615 212.075C223.626 210.82 212.795 210.35 201.965 210.35C201.965 210.506 202.12 210.506 202.12 210.664C203.062 210.194 204.16 210.036 204.946 209.408C206.358 208.31 206.672 206.896 206.044 205.326C205.416 203.756 204.16 202.814 202.59 202.814C200.236 202.659 198.039 202.659 195.683 202.814C193.485 202.814 191.915 204.698 191.915 206.582C191.915 208.622 193.641 210.35 195.838 210.35H196.936C185.791 210.506 174.802 210.664 163.657 212.075C165.541 210.506 167.425 208.936 169.309 207.21C168.995 207.054 168.839 206.896 168.681 206.896C167.111 206.112 165.541 205.326 163.971 204.698C163.657 204.543 163.03 204.698 162.716 204.854C161.304 206.11 159.89 207.522 158.478 208.777C157.85 209.247 158.008 209.561 158.634 209.875C160.204 210.659 161.615 211.445 163.185 212.229C160.36 212.857 157.848 213.326 155.18 213.954C155.964 211.443 155.336 209.245 153.924 207.205C152.982 205.949 151.257 206.263 150.471 207.519C149.843 208.775 149.843 210.187 150.157 211.756L150.162 211.761ZM179.673 210.506C181.556 210.661 183.44 208.936 183.44 206.896C183.596 204.857 181.87 203.128 179.673 202.973C177.633 202.973 175.905 204.543 175.905 206.426C175.749 208.78 177.316 210.35 179.673 210.508V210.506ZM219.384 210.506C221.582 210.506 223.151 208.78 223.151 206.738C223.151 204.54 221.426 202.97 219.228 202.97C217.188 202.97 215.46 204.696 215.619 206.894C215.619 208.933 217.344 210.503 219.386 210.503L219.384 210.506Z" fill="white"/>
<path d="M147.965 209.25C146.553 208.78 145.925 207.366 146.553 206.11C147.337 204.698 148.437 203.912 149.848 203.442C152.988 202.501 156.128 201.717 159.423 201.089C171.51 199.049 183.755 198.891 195.842 198.735C203.847 198.735 212.01 198.735 220.015 199.205C227.706 199.519 235.397 199.989 242.933 201.717C245.286 202.187 247.484 202.973 249.682 203.756C251.252 204.226 252.349 205.326 252.663 207.052C252.819 208.15 252.194 208.936 251.093 209.25C251.563 207.838 250.465 207.052 249.524 206.738C247.012 205.796 244.344 204.854 241.674 204.384C234.139 202.973 226.292 202.345 218.598 202.187C209.493 202.031 200.546 201.717 191.444 201.873C183.28 202.028 175.12 202.501 166.956 202.97C162.247 203.284 157.537 203.912 153.144 205.168C151.732 205.482 150.476 206.11 149.221 206.738C148.279 207.208 147.337 207.836 147.965 209.25Z" fill="white"/>
<path d="M202.276 178.483C202.432 178.483 202.432 178.327 202.59 178.327C204.788 178.327 206.2 177.071 207.456 175.502C208.239 174.404 209.339 173.932 210.595 173.618H211.223C211.693 175.188 211.379 175.971 209.967 177.227C208.712 178.325 208.556 178.483 208.556 179.581C209.339 179.895 210.126 179.581 210.754 179.111C212.009 178.169 212.951 178.169 214.207 179.425C214.677 179.895 215.149 180.523 215.619 180.995C214.677 181.779 213.735 182.406 212.951 183.193C212.168 183.821 211.382 183.976 210.598 183.193C209.97 182.565 209.028 182.565 208.086 183.193L209.812 184.918C210.126 185.232 210.44 185.388 210.595 185.702C210.751 186.33 210.751 186.958 210.595 187.428C210.595 187.583 209.812 187.583 209.498 187.742C208.086 187.742 207.144 187.114 206.202 185.858C205.26 184.446 204.163 184.132 202.435 184.76C203.218 185.388 204.004 185.858 204.788 186.486C206.2 187.583 206.828 188.839 206.672 190.567C206.516 191.195 206.672 191.823 206.672 192.607C204.318 192.137 201.807 191.665 199.765 189.939C199.609 189.784 199.137 189.784 198.981 189.939C196.941 191.665 194.429 191.979 192.073 192.607C191.29 188.997 192.857 186.486 196.311 184.916C194.585 184.288 193.329 184.602 192.543 185.858C191.759 186.955 190.818 187.742 189.403 187.742C188.934 187.742 188.148 187.586 188.148 187.428C188.148 186.8 188.303 186.016 188.462 185.388C188.617 184.918 189.245 184.76 189.559 184.446L190.815 183.19C189.873 182.562 189.089 182.562 188.303 183.19C187.517 183.818 186.733 183.66 186.106 183.19C185.164 182.406 184.222 181.779 183.124 180.837C183.908 180.209 184.694 179.581 185.478 178.953C186.42 178.325 187.047 178.325 187.989 178.953C188.773 179.422 189.401 179.895 190.501 179.581C190.657 178.325 189.717 177.697 188.931 177.069C187.675 176.127 187.52 175.029 187.675 173.615C188.931 173.615 190.029 174.085 190.815 174.871C191.285 175.341 191.757 175.813 192.227 176.441C193.483 177.853 195.052 178.325 196.778 178.481C196.464 178.795 196.308 179.264 195.994 179.578C195.052 179.264 193.955 179.109 193.169 178.636C192.385 178.167 191.757 177.225 191.129 176.597C190.973 176.597 190.973 176.752 190.815 176.752C190.971 176.908 190.971 177.222 191.129 177.38C192.071 179.264 193.797 179.892 195.839 180.048C195.683 180.518 195.683 180.99 195.525 181.46C193.485 181.615 191.443 181.146 189.559 180.676C188.776 180.52 187.989 180.362 187.206 180.206C186.892 180.206 186.578 180.362 186.264 180.52L186.42 180.676C189.559 181.146 192.541 181.774 195.525 182.246C194.897 182.56 193.955 182.874 193.013 183.343C190.973 184.285 190.815 184.441 190.659 185.227C190.973 185.072 191.287 184.913 191.601 184.758C192.857 184.13 194.113 183.502 195.369 183.032C195.525 182.876 195.997 183.032 196.153 183.188C196.622 183.816 197.25 184.444 197.878 185.385C197.25 187.111 195.994 188.839 194.111 190.409C194.425 190.565 194.739 190.565 194.894 190.409C195.522 189.939 196.15 189.311 196.62 188.683C197.404 187.586 198.032 186.33 198.818 185.074H200.388C202.271 188.997 203.527 190.412 205.097 190.567C204.155 189.625 203.372 188.842 202.744 187.9C202.116 186.958 201.488 185.86 201.018 185.074C201.96 184.29 202.744 183.662 203.53 182.876C205.1 183.66 206.825 184.446 208.553 185.23C208.553 185.074 208.709 185.074 208.709 184.916C207.297 183.66 205.414 183.032 203.685 182.248C205.255 182.092 206.825 181.934 208.237 181.62C209.807 181.306 211.218 181.151 212.788 180.837C212.788 180.837 212.944 180.681 213.102 180.367C212.319 180.367 211.691 180.211 211.218 180.211C210.435 180.367 209.648 180.681 208.865 180.839C207.139 181.153 205.569 181.623 203.685 181.309C203.685 180.839 203.686 180.367 203.53 180.053C204.472 179.739 205.569 179.425 206.356 178.955C207.297 178.327 208.081 177.071 207.925 176.288C207.297 176.916 206.983 177.699 206.356 178.172C205.414 178.641 204.472 179.113 203.374 179.269C203.218 179.427 202.746 178.641 202.276 178.486V178.483Z" fill="white"/>
<path d="M237.123 194.808C235.553 196.692 233.983 198.103 231.785 199.203C231.471 199.359 230.843 199.359 230.529 199.359C228.804 199.203 227.076 199.203 225.506 198.889C224.878 198.734 224.094 198.575 223.622 198.106C222.052 196.694 221.268 194.652 220.796 192.612C220.796 192.298 220.64 192.143 220.64 191.67C220.013 192.454 219.543 193.24 219.071 193.868C218.129 194.966 217.031 195.908 215.931 196.85C214.675 197.947 213.105 198.575 211.38 198.261C209.968 198.106 208.554 198.106 207.142 198.106C206.2 198.106 205.417 197.792 204.63 197.322C202.591 195.752 201.021 193.868 199.921 191.515C199.765 191.359 199.765 191.045 199.607 190.731C199.137 191.515 198.823 192.301 198.351 192.929C197.567 194.027 196.781 195.127 195.839 196.069C194.583 197.324 193.172 198.266 191.13 197.952C189.718 197.797 188.462 198.108 187.048 197.952C186.106 197.952 185.164 197.638 184.536 197.324C182.338 196.227 180.768 194.499 179.357 192.459C179.043 192.145 178.887 191.675 178.573 191.203C178.103 192.459 178.103 193.243 177.789 193.871C177.475 194.813 177.006 195.91 176.534 196.852C175.75 198.264 174.65 199.206 172.766 199.206C171.354 199.206 169.94 199.52 168.37 199.52C167.901 199.52 167.428 199.52 166.959 199.206C164.919 198.108 163.191 196.694 161.621 194.968C162.719 194.968 165.545 195.91 166.331 196.38C167.742 197.322 169.156 198.106 170.882 197.792C173.236 197.478 174.65 195.908 175.433 193.868C176.375 191.357 176.531 188.689 176.061 185.863C175.906 185.08 176.217 184.607 177.003 184.452C177.789 184.296 178.101 184.766 178.259 185.549C179.201 189.945 181.713 193.24 185.322 195.596C188.932 197.794 193.327 196.852 195.997 193.085C196.939 191.829 198.509 191.515 199.607 190.573C199.763 190.417 199.921 190.573 200.077 190.729C201.332 191.67 202.902 192.298 204 193.71C206.981 197.478 211.535 197.792 215.303 194.808C217.97 192.61 220.013 189.942 220.954 186.489C221.11 186.175 221.11 185.861 221.11 185.547C221.11 184.763 221.58 184.449 222.366 184.605C223.152 184.761 223.308 185.233 223.15 185.861C222.836 188.528 222.68 191.04 223.619 193.552C224.403 195.75 225.659 197.475 228.171 197.789C229.741 197.945 231.152 197.475 232.408 196.533C233.664 195.277 235.548 195.436 237.118 194.808H237.123Z" fill="white"/>
<path d="M196.625 178.325C196.625 177.227 196.155 176.6 195.369 176.127C194.427 175.499 193.329 174.871 192.229 174.402C191.601 174.088 190.973 173.774 190.189 173.304C191.131 172.676 191.759 172.206 192.387 171.734C192.232 170.009 191.918 168.125 191.759 166.397C193.485 165.455 194.271 165.455 195.841 166.711C195.841 163.729 197.411 161.531 199.295 159.489C201.178 161.529 202.748 163.727 202.748 167.025C204.004 165.141 205.26 165.613 206.83 166.241C206.674 168.125 206.36 169.85 206.202 171.734C206.83 172.204 207.458 172.676 208.4 173.304C207.616 173.774 207.144 174.088 206.516 174.402C205.418 175.03 204.318 175.499 203.376 176.127C202.593 176.597 201.965 177.383 201.965 178.639C201.495 178.325 200.867 178.011 200.239 177.697C201.023 174.716 202.437 171.89 204.162 169.378C201.651 171.576 200.553 174.557 199.611 177.541C199.507 177.541 199.403 177.49 199.297 177.386V161.69H198.827C198.827 167.027 198.672 172.206 198.672 177.544C197.574 174.562 196.474 171.578 194.12 169.381C194.748 170.792 195.69 172.048 196.318 173.304C196.946 174.716 197.416 176.286 198.044 177.7C197.73 177.855 197.26 178.169 196.632 178.328L196.625 178.325Z" fill="white"/>
<path d="M140.115 190.256C140.585 189.942 141.057 189.628 141.527 189.314C141.682 189.314 141.682 189.158 141.841 189C143.724 187.116 144.352 187.116 146.392 188.686C146.706 188.842 146.706 189.314 146.862 189.628C148.745 192.923 150.943 195.907 153.925 198.419C154.395 198.889 155.181 199.203 155.809 199.517C156.751 199.987 157.378 199.673 157.848 198.889C158.162 198.575 158.318 198.105 158.476 197.633C158.946 196.377 159.574 195.121 160.046 193.865C160.988 193.865 161.302 194.179 161.144 194.963C160.83 196.533 160.674 197.944 160.36 199.514C160.204 200.142 159.732 200.456 158.948 200.612C157.851 200.768 156.595 201.082 155.495 201.24C155.025 201.24 154.239 201.24 153.925 200.926C152.827 200.298 151.885 199.356 150.785 198.728C150.941 199.67 151.099 200.768 151.255 201.71C151.411 202.179 151.255 202.493 150.785 202.652C149.843 202.966 148.901 203.594 147.959 203.908H147.49C147.804 203.594 147.959 203.28 148.118 202.966C148.273 202.496 148.273 202.024 148.587 201.554C148.901 200.77 148.743 199.984 148.273 199.356C147.645 198.572 147.017 197.631 146.234 196.689C147.804 196.375 147.49 197.945 148.432 198.414C147.49 196.216 146.706 194.177 145.92 192.293H141.996V192.607C143.252 194.019 145.606 194.019 146.548 195.902C145.292 196.216 144.194 195.902 143.252 195.275C142.469 194.647 141.527 194.333 140.426 194.961C140.112 194.491 139.799 194.019 139.643 193.705C139.643 193.705 139.643 193.549 139.799 193.549C141.054 193.863 142.466 194.333 143.722 194.805V194.491C141.996 193.235 140.112 193.235 138.384 192.607C140.268 191.823 141.994 191.195 143.722 190.567C143.878 190.567 144.036 190.412 144.192 190.253C144.036 190.098 143.722 189.939 143.564 189.939C142.936 190.095 142.152 190.409 141.524 190.567C140.582 190.881 139.799 191.195 138.857 191.665C138.073 191.979 137.601 191.821 137.445 191.195C138.073 190.253 138.701 189.47 139.171 188.528V187.9C139.015 188.056 138.857 188.214 138.701 188.37C138.231 188.998 137.603 189.781 137.131 190.567C136.189 189.939 136.033 189.312 136.033 188.528C136.033 186.174 136.033 183.976 136.975 181.779C136.975 181.623 136.975 181.465 136.819 181.151C135.564 182.876 135.408 184.918 135.25 186.958C134.936 185.388 134.622 183.818 134.152 182.248C133.682 180.837 133.054 179.423 132.268 178.167C131.484 177.069 130.384 176.441 129.442 175.655C131.168 174.713 133.838 176.283 135.878 179.737C136.661 179.423 137.133 178.325 138.231 178.953C138.075 180.209 137.917 181.62 137.603 182.876C137.447 183.504 137.447 183.974 138.231 184.132C138.545 184.132 138.701 184.446 139.015 184.446C138.387 186.33 135.875 187.272 136.661 189.784C137.603 189.628 137.917 189 138.231 188.372C138.545 187.588 138.859 186.646 139.487 186.019C139.957 185.391 140.743 185.077 141.527 184.449C141.682 185.86 141.841 186.96 140.743 187.902C139.959 188.216 139.959 189.158 140.115 190.256Z" fill="white"/>
<path d="M260.826 178.798C261.924 178.328 262.396 179.267 263.18 179.74C264.591 177.072 266.475 175.188 269.929 175.658V175.972C267.261 176.914 266.005 178.953 265.219 181.623C264.591 183.507 264.277 185.547 263.808 187.589C263.808 185.391 263.494 183.351 262.238 181.468C262.238 181.623 262.082 181.937 262.082 182.096C263.18 184.449 263.18 186.961 263.024 189.317C263.024 189.787 262.554 190.259 262.396 190.887C262.24 190.887 262.082 191.043 262.082 191.043C261.454 190.101 260.67 189.317 260.042 188.375C259.887 189.787 260.826 190.573 261.768 191.357C261.454 192.14 260.984 192.454 260.356 192.14C259.415 191.826 258.631 191.512 257.689 191.043C257.061 190.729 256.433 190.573 255.805 190.415C255.491 190.415 255.177 190.57 255.021 190.729C256.905 191.512 258.789 192.14 260.829 193.082C259.103 193.866 257.219 193.71 255.805 194.966V195.28C257.061 194.81 258.473 194.496 259.728 194.024C259.728 194.18 259.884 194.18 259.884 194.18C259.57 194.65 259.415 194.963 259.101 195.436C258.003 194.966 257.217 195.28 256.275 195.905C255.333 196.533 254.235 196.847 252.979 196.219C253.607 195.75 254.391 195.122 255.019 194.649C255.647 194.177 256.431 194.022 257.058 193.552C257.214 193.396 257.372 193.238 257.372 193.082C257.217 192.926 257.058 192.768 256.903 192.768H255.647C255.019 192.768 254.391 192.924 253.449 192.924C252.665 194.808 251.723 196.847 250.782 199.203C251.879 198.734 251.409 197.164 253.135 197.319C252.507 198.261 252.037 198.889 251.409 199.517C250.626 200.459 250.312 201.243 250.782 202.343C251.095 202.971 251.096 203.599 251.409 204.227C250.312 203.913 249.526 203.443 248.584 203.129C247.956 202.973 247.956 202.659 247.956 202.187C248.112 201.245 248.27 200.303 248.584 199.206C247.642 199.834 246.858 200.462 246.072 201.09C245.288 201.718 244.346 202.032 243.246 201.559C242.304 201.245 241.362 201.09 240.42 200.931C239.637 200.776 239.165 200.462 239.009 199.834C238.695 198.264 238.539 196.694 238.381 195.124C238.381 194.81 238.851 194.496 239.009 194.182H239.323C239.792 195.438 240.42 196.694 240.893 197.95C241.048 198.264 241.048 198.42 241.207 198.734C241.835 200.145 242.776 200.459 244.032 199.676C245.444 198.734 246.858 197.636 247.956 196.222C249.681 194.024 251.096 191.826 252.507 189.473C253.291 188.217 255.803 187.589 256.745 188.845C257.214 189.314 257.686 189.942 258.314 190.256C258.784 190.57 259.256 190.412 259.098 189.787C259.098 189.159 258.942 188.531 258.628 188.061C257.686 186.649 257.531 186.649 257.845 184.607C259.101 184.921 260.042 185.705 260.512 186.961C260.826 187.589 260.982 188.373 261.296 188.845C261.452 189.159 261.924 189.473 262.394 189.942C262.708 188.531 262.549 187.589 261.766 186.803C261.296 186.333 260.824 185.705 260.354 185.077C259.884 184.607 260.04 184.135 260.668 184.135C261.61 183.979 261.452 183.507 261.296 182.723C261.14 181.468 261.14 180.212 260.826 178.8V178.798Z" fill="white"/>
<path d="M153.302 189.629C153.458 189.315 153.616 188.845 153.772 188.531C154.399 188.687 155.027 188.845 155.655 189.001C156.125 190.571 156.439 192.296 156.911 193.866C157.067 193.866 157.225 193.866 157.381 193.71C157.381 193.396 157.381 193.082 157.225 192.768C156.911 191.826 156.755 190.729 156.442 189.787C156.442 189.473 156.442 189.159 156.597 188.689C158.637 190.887 161.463 191.985 164.288 192.771C162.091 191.201 159.109 190.731 157.381 188.533C157.695 187.905 158.165 187.278 158.637 186.494C160.835 186.338 163.032 187.122 165.072 188.064C164.288 186.966 163.188 186.652 162.091 186.338C160.993 186.024 159.893 185.868 158.795 185.71C162.249 184.926 165.702 184.14 169.312 183.357V183.043C168.528 183.043 167.586 183.043 166.8 183.198C164.602 183.668 162.563 184.296 160.365 184.768C159.737 184.924 159.109 184.924 158.481 184.924C158.481 184.768 158.325 184.768 158.325 184.61C158.639 184.454 158.795 184.14 159.109 184.14C161.149 183.671 162.405 182.256 163.346 180.531V180.217C163.346 180.217 163.346 180.061 163.191 179.903C162.407 180.687 161.779 181.628 160.993 182.256C160.207 182.884 159.109 183.354 158.167 183.826C157.697 183.357 157.539 182.884 157.069 182.57C157.539 182.415 158.011 182.256 158.481 182.101C159.893 181.631 160.993 180.845 161.621 179.589C162.249 178.333 163.505 177.863 164.761 177.549C165.388 177.394 166.016 177.235 166.644 177.235C166.958 178.647 166.644 179.589 165.702 180.375C165.075 180.845 164.447 181.473 163.819 182.101C163.505 182.415 163.505 182.884 163.349 183.198C163.349 183.354 163.505 183.354 163.505 183.512C164.447 183.198 165.388 183.043 166.172 182.415C168.526 180.845 168.998 180.689 171.665 182.57C171.979 182.884 172.293 183.04 172.607 183.198C171.665 183.982 170.724 184.768 169.782 185.71C168.998 186.494 168.212 186.652 167.27 186.18C166.642 185.866 165.858 185.866 165.23 185.866C165.075 185.866 164.761 186.18 164.761 186.18C164.761 186.336 164.916 186.65 165.075 186.65C165.858 186.964 166.644 187.433 167.272 187.747C168.214 188.217 168.998 188.689 169.312 189.787C167.9 190.257 166.486 189.943 165.075 189.473C163.819 189.003 162.407 188.531 161.151 188.217C160.523 188.061 159.895 188.061 159.267 187.903C159.267 188.007 159.215 188.111 159.112 188.217C159.267 188.373 159.581 188.531 159.739 188.687C160.837 189.156 161.937 189.47 163.035 189.943C164.605 190.571 165.861 191.668 166.489 193.396C166.644 193.866 166.958 194.494 167.272 194.966C164.291 195.28 161.621 194.338 159.267 193.082C158.484 194.18 157.697 195.28 156.914 196.378C155.658 194.18 153.932 192.296 154.56 189.629C153.618 189.473 153.462 189.629 153.462 190.571V192.296C152.365 191.668 152.207 190.884 152.051 189.943C151.895 189.315 152.207 188.373 150.795 188.373C150.167 188.373 149.697 187.589 149.069 187.117C149.225 186.961 149.225 186.803 149.383 186.647C150.167 186.803 150.953 186.333 151.895 187.117C152.679 187.901 152.051 188.842 152.209 189.629C152.993 189.629 153.151 189.629 153.307 189.629H153.302Z" fill="white"/>
<path d="M241.99 182.406C241.676 182.876 241.362 183.19 241.048 183.504C238.536 183.348 237.28 181.464 235.869 179.581L235.555 179.895V180.364C236.653 182.09 237.908 183.504 239.95 183.974C240.106 183.974 240.264 184.288 240.578 184.443C240.264 184.599 240.109 184.757 239.795 184.757C238.383 184.443 236.813 184.288 235.399 183.974C233.829 183.66 232.259 183.346 230.69 183.032C230.376 183.032 230.062 183.032 229.748 183.188V183.502C233.201 184.285 236.811 185.071 240.264 185.855C238.067 186.169 235.713 186.325 233.829 187.895C233.829 187.999 233.881 188.103 233.985 188.209C234.299 188.053 234.613 188.053 234.927 187.895C236.497 187.425 238.222 186.953 239.792 186.639C240.262 186.483 240.576 186.639 240.734 187.267C240.89 187.736 241.362 188.209 241.676 188.678C239.95 190.876 237.125 191.504 234.769 192.76C234.924 192.916 234.924 193.074 235.083 193.23C237.75 192.132 240.576 191.346 242.618 188.834C243.088 190.874 242.148 192.444 241.99 194.172C242.932 192.76 243.402 191.19 243.402 189.462C244.03 189.306 244.813 189.148 245.441 188.992C245.597 189.306 245.755 189.776 246.069 190.404C246.539 189.306 245.6 188.52 246.539 187.578C247.323 186.795 248.265 187.109 249.206 187.109C248.579 187.736 248.265 188.834 247.167 188.834C247.011 188.834 246.697 189.462 246.697 189.776C246.541 190.874 246.383 191.66 245.441 192.444C244.499 191.816 245.911 190.09 244.185 189.618C244.813 192.444 243.088 194.483 241.832 196.681C241.048 195.583 240.42 194.641 239.478 193.386C237.125 194.641 234.455 195.583 231.629 195.269C232.571 191.032 236.025 189.776 239.948 188.834C239.948 188.678 239.792 188.52 239.792 188.364C239.164 188.364 238.536 188.364 237.908 188.52C236.183 188.99 234.613 189.618 233.043 190.09C231.945 190.404 230.845 190.246 229.748 190.404C230.062 188.992 231.004 188.52 231.787 188.05C232.571 187.737 233.357 187.267 233.985 186.953C234.141 186.797 234.455 186.639 234.299 186.483C234.143 186.327 233.985 186.013 233.829 186.013C233.201 186.013 232.573 186.013 231.945 186.169C230.534 186.797 230.22 186.639 229.12 185.541C228.336 184.757 227.394 183.971 226.452 183.188C226.766 183.032 227.08 182.718 227.394 182.404C229.906 180.52 230.062 180.678 232.732 182.248C233.36 182.562 234.143 182.876 234.929 183.032H235.557C235.557 182.876 235.713 182.562 235.557 182.404C235.088 181.776 234.46 181.148 233.832 180.678C232.576 179.895 232.106 178.794 232.42 177.225C234.618 177.539 236.816 177.853 237.913 180.05C238.541 181.148 239.639 181.776 240.739 182.09C240.895 182.09 241.367 182.248 241.995 182.404L241.99 182.406Z" fill="white"/>
<path d="M247.483 166.083C246.699 167.495 246.699 169.065 247.327 172.204C247.641 172.204 247.797 172.049 248.269 171.89V176.442C248.269 176.911 248.269 177.384 248.425 177.698C248.895 178.639 248.739 179.423 247.955 180.051C247.172 180.835 246.699 181.777 246.858 183.033C247.172 183.033 247.327 183.033 247.641 183.188C247.486 183.502 247.327 183.658 247.172 183.816C246.544 183.188 246.074 182.56 246.388 181.463C247.016 179.579 247.486 177.539 247.958 175.497C248.114 175.183 248.114 174.869 247.958 174.555C246.86 175.967 246.702 177.695 246.074 179.421V176.753C245.918 175.028 245.76 173.144 245.76 171.416C245.76 170.16 246.074 168.748 246.23 167.334C246.23 167.02 246.385 166.864 246.385 166.706C246.282 166.706 246.177 166.654 246.071 166.55C245.916 166.864 245.602 167.02 245.602 167.334C245.446 168.904 245.288 170.474 245.288 172.199V180.677C245.288 180.991 245.132 181.305 244.974 181.774C244.504 178.321 242.776 175.495 240.108 173.455C239.953 173.455 239.953 173.611 239.795 173.611C239.95 173.925 240.108 174.081 240.422 174.239C242.306 175.965 243.718 177.848 244.19 180.518C244.19 180.832 244.346 181.146 244.346 181.46C243.718 181.616 243.248 181.774 242.62 181.93C242.465 180.204 241.209 179.418 239.795 178.79C238.697 178.321 237.597 177.693 236.341 177.065V176.751C237.125 176.437 238.066 176.123 238.694 175.967C238.38 174.241 238.066 172.358 237.752 170.316C239.478 170.471 241.206 170.629 242.776 170.785C243.56 167.176 244.974 165.762 247.486 166.076L247.483 166.083Z" fill="white"/>
<path d="M152.988 166.71C152.988 166.866 152.833 167.024 152.988 167.18C153.772 168.906 153.458 170.634 153.458 172.517C153.302 174.871 153.144 177.227 153.144 179.267C152.988 178.639 152.674 177.697 152.516 176.913C152.202 176.129 151.888 175.187 151.732 174.401C151.577 174.401 151.418 174.401 151.418 174.557C151.418 174.871 151.418 175.185 151.574 175.499C152.044 177.383 152.516 179.108 153.144 180.837C153.458 181.778 153.614 182.72 152.516 183.662C152.36 183.507 152.202 183.348 152.046 183.034C152.36 183.034 152.674 182.879 152.83 182.879C152.986 181.623 152.516 180.681 151.574 179.897C150.79 179.269 150.79 178.641 151.104 177.699C151.418 176.757 151.26 175.66 151.26 174.718C151.26 173.776 151.26 172.992 151.416 171.892C151.73 172.048 151.886 172.206 152.358 172.362C152.202 170.164 153.3 168.124 152.202 166.241C154.4 165.771 155.812 167.024 157.067 171.264C157.851 171.108 158.637 170.95 159.421 170.794H162.089C161.775 172.52 161.461 174.248 161.147 176.132C161.775 176.288 162.558 176.602 163.658 177.074C162.875 177.544 162.247 178.016 161.619 178.33C160.991 178.644 160.207 178.958 159.579 179.427C158.323 179.897 157.381 180.839 157.226 182.409C156.598 182.253 156.128 182.095 155.656 181.939C155.656 180.369 156.284 178.799 157.226 177.544C158.009 176.288 159.109 175.19 160.051 173.934C157.07 175.818 155.5 178.644 155.028 182.097H154.714C154.558 181.314 154.4 180.527 154.4 179.744C154.4 177.232 154.556 174.72 154.714 172.053C154.714 170.641 154.558 169.227 154.4 167.971C154.4 167.657 154.086 167.343 154.086 167.029L152.988 166.715V166.71Z" fill="white"/>
<path d="M199.607 203.754H202.747C204.158 203.754 205.414 204.852 205.572 206.266C205.728 207.522 204.789 208.933 203.374 209.091C201.021 209.247 198.509 209.247 196.153 209.091C194.741 208.936 193.8 207.522 193.955 206.266C194.111 204.854 195.211 203.912 196.623 203.754H199.604H199.607Z" fill="white"/>
<path d="M157.226 185.705C157.226 186.961 156.442 187.902 155.342 187.902C154.086 187.902 152.83 186.647 152.83 185.077C152.83 183.821 153.614 182.879 154.714 182.879C155.97 182.879 157.226 184.291 157.226 185.705Z" fill="white"/>
<path d="M241.832 185.705C241.832 184.135 242.93 182.879 244.344 182.879C245.441 182.879 246.228 183.821 246.228 185.077C246.228 186.488 244.972 187.902 243.716 187.902C242.618 187.902 241.832 186.961 241.832 185.705Z" fill="white"/>
<path d="M244.814 212.076C245.284 210.82 245.756 209.564 246.226 208.466C246.695 207.524 247.323 207.524 247.951 208.466C249.049 210.192 247.951 213.018 246.067 213.49C245.284 213.646 244.97 213.176 244.812 212.078L244.814 212.076Z" fill="white"/>
<path d="M154.086 211.918C153.772 212.546 153.772 213.329 153.458 213.329C153.144 213.485 152.516 213.174 152.046 213.015C150.476 211.918 150.007 209.72 150.948 208.306C151.576 207.522 152.204 207.364 152.518 208.306C153.302 209.562 153.774 210.817 154.088 211.915L154.086 211.918Z" fill="white"/>
<path d="M258.629 195.749C256.903 197.005 255.489 197.947 254.077 199.044C254.233 199.2 254.233 199.358 254.391 199.358C255.333 199.358 255.647 198.103 256.431 198.103C255.175 199.986 253.291 201.398 252.035 200.614C253.447 198.261 255.331 196.219 258.629 195.749Z" fill="white"/>
<path d="M144.667 199.203C144.511 198.889 144.511 198.575 144.197 198.419C143.413 197.792 142.627 197.322 141.843 196.85C141.374 196.536 141.06 196.222 140.432 195.752C142.785 196.066 144.355 197.164 146.867 200.617C145.455 201.559 143.727 199.989 142.629 198.106C143.257 198.575 143.727 199.047 144.355 199.361C144.511 199.361 144.669 199.206 144.669 199.206L144.667 199.203Z" fill="white"/>
<path d="M147.965 210.662C148.593 212.546 149.22 214.116 149.69 215.841C148.748 215.997 147.806 215.372 147.337 214.116C146.709 213.018 146.867 211.604 147.965 210.662Z" fill="white"/>
<path d="M249.367 216C249.995 214.116 250.623 212.39 251.251 210.662C252.193 211.446 252.349 212.546 252.193 213.644C251.723 214.899 250.781 215.841 249.367 215.997V216Z" fill="white"/>
<path d="M263.651 190.884C264.907 192.609 262.868 195.279 260.67 194.965C261.768 193.554 262.71 192.298 263.651 190.884Z" fill="white"/>
<path d="M138.231 194.965C136.192 195.279 133.994 192.926 135.25 190.884C136.348 192.14 137.29 193.551 138.231 194.965Z" fill="white"/>
<path d="M150.162 211.762C150.946 213.017 152.046 214.115 153.616 214.587C152.832 215.057 152.046 215.371 151.262 215.843C150.948 214.432 150.479 213.017 150.165 211.762H150.162Z" fill="white"/>
<path d="M248.896 211.448C248.582 212.86 248.112 214.274 247.798 215.686C246.856 215.216 246.072 214.902 245.286 214.43C247.012 214.116 248.112 213.018 248.896 211.448Z" fill="white"/>
<path d="M152.988 206.894C154.714 207.836 155.028 209.406 155.342 211.131C155.656 212.387 155.342 213.015 154.714 213.485C155.028 211.131 154.4 208.934 152.988 206.892V206.894Z" fill="white"/>
<path d="M244.344 213.646C242.932 212.076 244.344 207.525 246.228 207.053C244.658 208.937 244.03 211.134 244.344 213.646Z" fill="white"/>
<path d="M247.797 183.821C247.953 184.135 247.953 184.449 248.111 184.763C248.425 184.607 248.895 184.449 249.367 184.293C249.523 184.921 249.523 185.549 249.681 186.177C248.739 186.177 248.111 186.022 247.169 186.022C247.325 185.238 246.699 184.296 247.797 183.824V183.821Z" fill="white"/>
<path d="M149.689 184.291C150.159 184.605 150.631 184.76 151.259 185.074V183.977H151.415C152.357 184.446 151.885 185.232 152.043 186.016C151.259 186.016 150.473 186.172 149.531 186.172C149.531 185.544 149.531 184.916 149.687 184.288L149.689 184.291Z" fill="white"/>
<path d="M164.132 208.15C163.19 209.248 162.249 209.406 161.307 208.778C162.249 207.68 163.19 207.522 164.132 208.15Z" fill="white"/>
<path d="M237.594 208.623C236.653 209.25 235.764 209.041 234.927 207.995C235.868 207.472 236.757 207.681 237.594 208.623Z" fill="white"/>
<path d="M148.748 209.72L150.945 216.313C150.79 216.313 150.631 216.469 150.631 216.469C149.848 214.271 149.22 212.073 148.434 209.875C148.434 209.875 148.589 209.72 148.748 209.72Z" fill="white"/>
<path d="M248.268 216.313C249.051 214.115 249.679 211.918 250.465 209.72L250.935 209.875C250.151 212.073 249.523 214.271 248.737 216.469C248.423 216.313 248.268 216.313 248.268 216.313Z" fill="white"/>
<path d="M166.016 207.681C165.074 207.525 164.132 207.211 163.19 207.053C163.504 206.583 163.504 206.269 163.818 205.955C164.602 206.425 165.544 206.897 166.33 207.211C166.016 207.367 166.016 207.525 166.016 207.681Z" fill="white"/>
<path d="M232.727 207.366C233.668 206.897 234.452 206.424 235.238 206.11C235.394 206.424 235.552 206.58 235.708 206.894C234.924 207.522 233.982 207.992 232.727 207.364V207.366Z" fill="white"/>
<path d="M163.505 210.661C163.349 210.192 163.191 209.878 163.349 209.878C164.132 209.25 164.605 208.152 166.175 208.308C165.233 209.092 164.449 209.72 163.507 210.661H163.505Z" fill="white"/>
<path d="M235.397 210.506C234.455 209.722 233.671 208.936 232.885 208.152C233.827 208.152 235.552 209.094 235.711 209.722C235.711 210.036 235.555 210.192 235.397 210.506Z" fill="white"/>
<path d="M135.719 189.942C136.817 191.512 138.073 193.082 139.173 194.807L139.017 194.963C137.761 193.393 136.664 191.823 135.563 190.253C135.563 190.098 135.719 189.939 135.719 189.939V189.942Z" fill="white"/>
<path d="M263.493 190.098C262.396 191.668 261.295 193.08 260.198 194.649L259.884 194.494C260.981 192.924 262.082 191.512 263.179 189.942C263.335 189.942 263.493 189.942 263.493 190.098Z" fill="white"/>
<path d="M196.625 222.748V214.115H202.277V222.748H196.625Z" fill="white"/>
<path d="M205.886 222.748H203.219V214.115H205.886V222.748Z" fill="white"/>
<path d="M195.838 214.115V222.592H193.171V214.115H195.838Z" fill="white"/>
<path d="M192.543 222.592H190.659V214.273H192.543V222.592Z" fill="white"/>
<path d="M208.398 222.592H206.514V214.273H208.398V222.592Z" fill="white"/>
<path d="M188.462 214.273H189.874V222.592H188.462V214.273Z" fill="white"/>
<path d="M209.182 214.273H210.593V222.592H209.182V214.273Z" fill="white"/>
<path d="M186.422 214.429C186.892 214.429 187.206 214.273 187.678 214.273V222.592H186.422V214.429Z" fill="white"/>
<path d="M212.635 222.592H211.379V214.273C211.849 214.273 212.163 214.273 212.635 214.429V222.592Z" fill="white"/>
<path d="M213.421 214.429H214.677V222.434C214.363 222.434 213.893 222.434 213.421 222.59V214.427V214.429Z" fill="white"/>
<path d="M185.636 222.434C185.166 222.434 184.852 222.434 184.38 222.278V214.273H185.636V222.437V222.434Z" fill="white"/>
<path d="M183.752 214.587V222.437H182.497V215.529C182.341 214.587 182.652 214.273 183.752 214.587Z" fill="white"/>
<path d="M216.561 222.435H215.305V214.43C215.774 214.43 216.088 214.585 216.561 214.585V222.435Z" fill="white"/>
<path d="M180.771 222.278V214.743H181.712V222.434C181.398 222.278 181.084 222.278 180.771 222.278Z" fill="white"/>
<path d="M218.287 222.278C217.973 222.278 217.659 222.434 217.189 222.434V214.743H218.287V222.278Z" fill="white"/>
<path d="M179.987 222.121H179.045V214.744C179.359 214.744 179.673 214.588 179.987 214.588V222.123V222.121Z" fill="white"/>
<path d="M220.013 222.12H218.915V214.585C219.699 214.429 220.013 214.741 220.013 215.527V222.12Z" fill="white"/>
<path d="M177.476 214.899H178.418V222.121H177.476V214.899Z" fill="white"/>
<path d="M220.799 214.744H221.741V221.807C221.427 221.807 221.271 221.963 220.799 221.963C220.799 222.118 220.799 214.741 220.799 214.741V214.744Z" fill="white"/>
<path d="M176.848 221.964C176.22 222.12 175.906 221.964 176.064 221.337V215.685C176.064 215.057 176.378 214.901 177.006 215.057V221.964H176.85H176.848Z" fill="white"/>
<path d="M224.094 214.899C224.25 215.213 224.564 215.369 224.564 215.683V221.963C224.094 221.649 223.622 221.493 223.622 221.335V214.899C223.778 215.055 223.936 214.899 224.092 214.899H224.094Z" fill="white"/>
<path d="M169.468 221.337C169.312 221.023 168.998 220.867 168.998 220.709V216.313C168.998 215.999 169.312 215.843 169.468 215.529C169.624 215.529 169.624 215.685 169.782 215.685V221.178C169.626 221.178 169.468 221.334 169.468 221.334V221.337Z" fill="white"/>
<path d="M222.524 214.899C222.68 215.213 222.994 215.369 222.994 215.683V221.49C222.994 221.804 222.68 221.96 222.524 222.118C222.368 222.118 222.368 221.963 222.21 221.963V215.055C222.366 214.899 222.524 214.899 222.524 214.899Z" fill="white"/>
<path d="M174.964 221.965C174.808 221.651 174.494 221.495 174.494 221.181V215.688C174.494 215.374 174.808 215.06 174.964 214.904C175.12 214.904 175.12 215.06 175.278 215.06V221.653C175.174 221.757 175.069 221.862 174.964 221.967V221.965Z" fill="white"/>
<path d="M225.978 215.058V221.179C225.978 221.335 225.664 221.649 225.508 221.807C225.353 221.807 225.353 221.651 225.194 221.651V215.53C225.194 215.374 225.508 215.216 225.978 215.06V215.058Z" fill="white"/>
<path d="M227.078 221.651C226.922 221.495 226.608 221.337 226.608 221.181V215.53C226.764 215.53 226.764 215.374 226.922 215.374C227.078 215.53 227.392 215.688 227.392 216.002V221.653H227.078V221.651Z" fill="white"/>
<path d="M228.334 221.492C228.178 221.337 227.864 221.178 227.864 220.864V215.527C228.02 215.527 228.02 215.371 228.178 215.371C228.334 215.527 228.648 215.841 228.648 215.999V221.337C228.648 221.337 228.492 221.492 228.334 221.492Z" fill="white"/>
<path d="M229.589 215.527C229.745 215.841 230.059 215.997 230.059 216.155V220.551C230.059 220.707 229.745 221.021 229.589 221.179C229.434 221.179 229.434 221.023 229.434 221.023V215.53C229.434 215.686 229.434 215.53 229.589 215.53V215.527Z" fill="white"/>
<path d="M230.688 221.023V216.313C230.688 216.158 230.843 215.999 231.001 215.844C231.157 215.999 231.315 216.158 231.315 216.313V220.709C231.315 220.865 231.001 221.023 231.001 221.179C230.846 221.179 230.846 221.023 230.688 221.023Z" fill="white"/>
<path d="M164.132 220.395C163.504 220.551 163.19 220.395 163.19 219.767V216.627C163.504 216.627 163.66 216.472 163.974 216.472L164.13 220.395H164.132Z" fill="white"/>
<path d="M232.099 216C233.196 215.844 232.882 216.628 232.882 217.097C232.882 221.493 233.038 220.707 232.099 220.865V216Z" fill="white"/>
<path d="M173.393 221.806C173.237 221.492 173.079 221.337 173.079 221.178V215.841C173.079 215.685 173.235 215.527 173.393 215.213C173.549 215.369 173.707 215.527 173.707 215.683V221.648C173.707 221.648 173.551 221.804 173.393 221.804V221.806Z" fill="white"/>
<path d="M166.959 216.155V221.02C166.959 221.02 166.803 221.176 166.645 221.176C166.489 220.862 166.175 220.706 166.175 220.392V216.783C166.175 216.469 166.489 216.313 166.645 215.999C166.748 215.999 166.853 216.051 166.959 216.155Z" fill="white"/>
<path d="M234.925 220.395V216.472C235.553 216.472 235.867 216.627 235.867 217.414V219.767C235.711 220.395 235.553 220.551 234.925 220.395Z" fill="white"/>
<path d="M172.451 218.511V221.178C172.451 221.334 172.295 221.492 172.137 221.648C171.981 221.492 171.823 221.334 171.823 221.178V215.999C171.823 215.843 172.137 215.685 172.293 215.529C172.449 215.685 172.607 215.843 172.607 215.999C172.451 216.783 172.451 217.569 172.451 218.511Z" fill="white"/>
<path d="M233.513 220.551V216.155C234.455 216.311 234.455 216.625 234.296 219.923C234.296 220.237 233.982 220.393 233.827 220.707C233.723 220.707 233.618 220.655 233.513 220.551Z" fill="white"/>
<path d="M165.544 216.155V220.55C165.544 220.55 165.389 220.706 165.23 220.706C165.075 220.392 164.761 220.236 164.761 219.922V216.783C164.761 216.469 165.075 216.313 165.23 215.999C165.334 216.103 165.439 216.155 165.544 216.155Z" fill="white"/>
<path d="M171.037 215.527V221.021C171.037 221.176 170.723 221.335 170.723 221.49C170.567 221.335 170.409 221.176 170.409 221.021V215.997C170.409 215.841 170.723 215.683 170.879 215.369C170.879 215.369 170.879 215.525 171.035 215.525L171.037 215.527Z" fill="white"/>
<path d="M168.214 215.686V221.023C168.214 221.023 168.058 221.179 167.9 221.179C167.744 221.023 167.586 220.865 167.43 220.551C167.275 218.667 167.586 216 168.214 215.686Z" fill="white"/>
<path d="M162.563 216.783V220.078C162.041 220.078 161.779 219.189 161.779 217.411C161.779 217.097 161.779 216.627 162.563 216.783Z" fill="white"/>
<path d="M236.653 216.627C236.809 216.783 237.123 217.097 237.123 217.255C237.437 219.453 237.278 220.081 236.339 220.081V216.785C236.495 216.785 236.653 216.785 236.653 216.629V216.627Z" fill="white"/>
<path d="M237.908 219.767V216.941C238.692 217.255 238.85 217.411 238.536 219.295C238.536 219.451 238.222 219.765 238.066 219.923C238.066 219.923 237.911 219.923 237.911 219.767H237.908Z" fill="white"/>
<path d="M239.32 219.608V217.411C239.32 217.411 239.476 217.255 239.634 217.255C239.79 217.569 240.262 217.725 240.262 218.039C240.106 218.508 240.576 219.45 239.32 219.608Z" fill="white"/>
<path d="M159.737 217.411V219.608C158.481 219.608 158.953 218.666 158.953 218.197C158.797 217.727 158.953 217.255 159.737 217.413V217.411Z" fill="white"/>
<path d="M161.148 216.941V219.453C161.148 219.609 160.993 219.767 160.834 219.767L160.521 219.611V217.1C160.521 217.1 160.834 217.1 161.148 216.944V216.941Z" fill="white"/>
<path d="M158.323 217.725V219.136C157.853 219.136 157.381 218.98 157.381 218.353C157.381 217.883 157.695 217.725 158.323 217.725Z" fill="white"/>
<path d="M241.048 217.569C241.204 217.883 241.518 218.039 241.676 218.353C241.832 218.981 241.362 219.137 240.734 219.137V217.725C240.838 217.725 240.943 217.673 241.048 217.569Z" fill="white"/>
<path d="M181.869 206.895C181.869 208.306 180.771 209.562 179.357 209.562C177.943 209.562 176.689 208.464 176.689 206.895C176.689 205.483 177.787 204.227 179.201 204.227C180.771 204.071 181.869 205.325 181.869 206.895Z" fill="white"/>
<path d="M217.189 206.739C217.189 205.327 218.444 204.071 219.856 204.071C221.268 204.071 222.368 205.327 222.368 206.739C222.368 208.309 221.27 209.406 219.7 209.406C218.13 209.406 217.033 208.309 217.189 206.739Z" fill="white"/>
<path d="M202.276 181.309C202.276 182.72 201.021 183.82 199.609 183.82C198.197 183.82 196.941 182.723 196.941 181.309C196.941 179.895 198.197 178.797 199.609 178.797C201.179 178.797 202.276 179.895 202.276 181.309Z" fill="white"/>
<path d="M175.277 92.7764L174.022 94.1905H173.863L174.649 92.9346L175.277 92.7764Z" fill="#1E1E1C"/>
<path d="M305.877 232.638L304.936 231.068V230.912L305.877 232.168V232.638Z" fill="#1E1E1C"/>
<path d="M118.14 275.805L118.609 274.079L118.768 273.921L118.454 275.649L118.14 275.805Z" fill="#1E1E1C"/>
</svg>
