<svg width="400" height="400" viewBox="0 0 400 400" fill="none" xmlns="http://www.w3.org/2000/svg">
<path d="M280.814 188.667H293.594C293.651 189.774 293.705 190.785 293.781 192.259C296.808 189.265 300.257 188.028 304.225 188.327C308.192 188.626 311.301 190.44 313.656 193.918C316.977 189.809 321.043 187.802 326.226 188.395C332.25 189.083 336.688 192.634 337.167 198.702C337.746 206.072 337.306 213.524 337.306 221.084H324.668C324.668 219.384 324.668 217.687 324.668 215.993C324.668 212.099 324.725 208.201 324.641 204.307C324.573 201.193 322.832 199.452 320.066 199.488C317.257 199.526 315.674 201.258 315.655 204.427C315.625 209.102 315.655 213.777 315.641 218.451C315.641 219.292 315.563 220.129 315.516 221.095H302.631C302.631 216.423 302.631 211.865 302.631 207.307C302.631 206.181 302.661 205.055 302.62 203.932C302.517 201.125 300.95 199.542 298.271 199.496C295.497 199.447 293.749 201.098 293.713 204.016C293.651 209.036 293.697 214.057 293.689 219.08C293.689 219.675 293.629 220.274 293.586 221.049H280.817V188.669L280.814 188.667Z" fill="white"/>
<path d="M203.067 192.193V188.739H215.873V221.045H203.26C203.173 220.072 203.08 219.074 202.955 217.681C200.312 220.61 197.13 221.905 193.445 221.652C187.854 221.268 184.068 218.222 182.083 213.134C179.888 207.518 179.98 201.791 182.254 196.18C185.705 187.668 196.695 185.256 203.07 192.191L203.067 192.193ZM203.089 204.839C203.075 201.655 201.141 199.463 198.365 199.485C195.613 199.506 193.709 201.739 193.722 204.929C193.736 208.084 195.719 210.338 198.454 210.306C201.188 210.273 203.102 208.016 203.089 204.839Z" fill="white"/>
<path d="M240.059 188.683H253.078C253.078 194.486 253.04 200.173 253.091 205.859C253.124 209.653 256.067 211.788 259.314 210.466C261.386 209.623 261.998 207.899 262.006 205.865C262.025 201.193 262.014 196.518 262.014 191.845C262.014 190.899 262.014 189.955 262.014 188.786H274.859V221.024H262.172C262.08 219.803 261.99 218.633 261.876 217.11C259.14 219.727 256.276 221.416 252.594 221.426C246.045 221.448 241.5 218.089 240.611 211.639C239.991 207.127 240.181 202.501 240.078 197.926C240.01 194.913 240.065 191.9 240.065 188.685L240.059 188.683Z" fill="white"/>
<path d="M141.115 188.688H154.898C156.568 195.098 158.219 201.424 159.867 207.75C160.003 207.755 160.139 207.761 160.272 207.766C161.915 201.418 163.557 195.071 165.216 188.658H178.757C178.613 189.352 178.542 189.996 178.344 190.6C175.178 200.11 171.95 209.599 168.858 219.134C168.344 220.714 167.688 221.323 165.991 221.271C161.923 221.146 157.846 221.29 153.778 221.174C153.03 221.152 151.839 220.572 151.635 219.98C148.072 209.618 144.632 199.216 141.118 188.685L141.115 188.688Z" fill="white"/>
<path d="M103.024 170.353C106.01 173.51 108.784 176.444 111.702 179.534C98.5282 191.938 85.4905 204.217 72.238 216.697C69.3254 213.637 66.5459 210.719 63.5381 207.559C76.7036 195.155 89.7304 182.882 103.024 170.355V170.353Z" fill="white"/>
<path d="M115.225 183.29C118.178 186.404 120.963 189.341 123.911 192.45C110.737 204.862 97.7079 217.138 84.4391 229.64C81.5617 226.602 78.7388 223.624 75.75 220.472C88.8801 208.106 101.91 195.833 115.225 183.293V183.29Z" fill="white"/>
<path d="M221.911 178.386H234.598V221.002H221.911V178.386Z" fill="white"/>
<path d="M71.178 193.276C68.2653 190.216 65.4913 187.301 62.5352 184.192C68.3279 178.734 73.9547 173.428 79.7147 168C82.6492 171.084 85.3742 173.948 88.344 177.07C82.6138 182.479 76.9897 187.79 71.1807 193.276H71.178Z" fill="white"/>
<path d="M99.1104 222.892C104.971 217.376 110.565 212.109 116.301 206.713C119.246 209.827 122.02 212.761 124.916 215.821C119.146 221.252 113.551 226.52 107.729 232C104.849 228.956 102.088 226.038 99.1104 222.892Z" fill="white"/>
</svg>
