<svg width="400" height="400" viewBox="0 0 400 400" fill="none" xmlns="http://www.w3.org/2000/svg">
<mask id="mask0_557_3549" style="mask-type:luminance" maskUnits="userSpaceOnUse" x="94" y="135" width="212" height="130">
<path d="M305.877 135H94.1234V265H305.877V135Z" fill="white"/>
</mask>
<g mask="url(#mask0_557_3549)">
<path d="M107.419 262.072H101.024L99.8956 265H94.1234L101.481 248.195H107.059L114.417 265H108.551L107.422 262.072H107.419ZM105.855 257.991L104.22 253.766L102.585 257.991H105.855Z" fill="white"/>
<path d="M126.002 248.195H131.677V260.607H139.275V265H126.005V248.195H126.002Z" fill="white"/>
<path d="M157.183 252.47V255.352H164.202V259.626H157.183V265.003H151.507V248.198H165.187V252.473H157.183V252.47Z" fill="white"/>
<path d="M188.532 262.072H182.138L181.009 265H175.24L182.598 248.195H188.176L195.533 265H189.667L188.539 262.072H188.532ZM186.969 257.991L185.334 253.766L183.698 257.991H186.969Z" fill="white"/>
<path d="M214.329 260.776H212.79V265H207.115V248.195H215.217C219.904 248.195 222.887 250.643 222.887 254.534C222.887 256.96 221.733 258.784 219.713 259.817L223.246 265.004H217.187L214.326 260.779L214.329 260.776ZM214.857 252.564H212.79V256.501H214.857C216.421 256.501 217.165 255.758 217.165 254.534C217.165 253.31 216.421 252.567 214.857 252.567V252.564Z" fill="white"/>
<path d="M249.694 260.729V265.003H235.701V248.198H249.381V252.473H241.279V254.44H248.396V258.521H241.279V260.729H249.694Z" fill="white"/>
<path d="M274.02 262.072H267.626L266.497 265H260.728L268.085 248.195H273.663L281.021 265H275.155L274.026 262.072H274.02ZM272.457 257.991L270.822 253.766L269.186 257.991H272.457Z" fill="white"/>
<path d="M292.606 248.195H298.282V260.607H305.879V265H292.61V248.195H292.606Z" fill="white"/>
<path d="M243.83 174.774L244.153 157.766C244.163 157.291 243.909 156.851 243.492 156.617L231.736 150.035C231.699 150.013 231.661 149.994 231.621 149.979C231.583 149.963 231.542 149.944 231.508 149.922L205.702 135.441C205.636 135.403 205.567 135.384 205.499 135.359V154.004L230.42 166.846C230.857 167.071 231.126 167.521 231.117 168.014L230.974 176.822C230.967 177.269 230.732 177.675 230.348 177.906C230.148 178.028 229.916 178.09 229.682 178.09C229.478 178.09 229.278 178.04 229.097 177.95L205.649 166.044C205.599 166.019 205.545 166.006 205.495 165.988V211.472L213.378 215.369C213.56 215.46 213.757 215.503 213.95 215.503C214.185 215.503 214.419 215.438 214.629 215.313C215.007 215.079 215.239 214.667 215.242 214.223L215.373 192.472C215.373 192.023 215.608 191.614 215.989 191.379C216.192 191.255 216.424 191.189 216.661 191.189C216.862 191.189 217.062 191.236 217.243 191.326L230.585 198.04C231.02 198.258 231.293 198.698 231.295 199.185L231.414 223.113C231.414 223.6 231.696 224.047 232.133 224.262L241.958 229.117C242.139 229.208 242.336 229.252 242.53 229.252C242.767 229.252 243.002 229.186 243.208 229.058C243.586 228.824 243.818 228.412 243.821 227.965L243.921 199.832C243.928 198.371 243.415 196.947 242.474 195.826L240.382 193.325C240.323 193.253 240.269 193.178 240.241 193.137L240.175 193.037C240.135 192.969 240.044 192.809 240.044 192.806C240.009 192.738 239.978 192.669 239.957 192.619C239.957 192.619 239.882 192.4 239.869 192.36L239.84 192.257C239.831 192.213 239.822 192.172 239.803 192.082L239.791 192.01C239.781 191.951 239.775 191.891 239.769 191.816V191.763C239.769 191.729 239.765 191.576 239.769 191.52V191.451C239.779 191.389 239.797 191.229 239.797 191.229L239.807 191.17C239.819 191.101 239.835 191.036 239.838 191.02L239.869 190.908C239.885 190.858 239.901 190.805 239.934 190.702L239.95 190.661C239.976 190.599 240 190.536 240.035 190.464L240.066 190.396L240.11 190.315C240.145 190.249 240.185 190.183 240.248 190.102C240.272 190.068 240.342 189.977 240.351 189.965C240.454 189.834 240.569 189.715 240.682 189.621C240.703 189.603 240.779 189.543 240.797 189.528L240.985 189.394C242.826 188.16 243.928 186.205 243.928 184.16V175.511C243.928 175.389 243.909 175.267 243.877 175.152C243.84 175.027 243.825 174.899 243.827 174.768L243.83 174.774Z" fill="white"/>
<path d="M205.299 135.081L167.442 156.323C167.035 156.551 166.785 156.979 166.782 157.444L166.71 229.017C166.71 229.467 166.945 229.885 167.332 230.119C167.539 230.244 167.77 230.307 168.001 230.307C168.205 230.307 168.411 230.257 168.599 230.16L178.051 225.236C178.476 225.014 178.745 224.574 178.745 224.093V197.518C178.745 197.034 179.011 196.597 179.439 196.375L193.754 188.95C193.939 188.856 194.142 188.806 194.348 188.806C194.583 188.806 194.814 188.869 195.014 188.99C195.396 189.218 195.637 189.64 195.64 190.083L195.846 214.935C195.849 215.388 196.09 215.806 196.484 216.034C196.684 216.153 196.912 216.212 197.137 216.212C197.35 216.212 197.563 216.159 197.757 216.056L205.499 211.837V135C205.43 135.025 205.361 135.044 205.295 135.081H205.299ZM194.602 171.801L180.224 179.686C180.034 179.788 179.821 179.845 179.602 179.845C179.374 179.845 179.152 179.785 178.955 179.67C178.567 179.445 178.32 179.027 178.314 178.577L178.167 169.444C178.161 168.963 178.417 168.52 178.842 168.289L193.066 160.604C193.254 160.504 193.467 160.448 193.679 160.448C193.904 160.448 194.126 160.507 194.32 160.62C194.711 160.845 194.952 161.244 194.967 161.694L195.271 170.624C195.286 171.111 195.03 171.561 194.602 171.798V171.801Z" fill="white"/>
</g>
</svg>
