<svg width="400" height="400" viewBox="0 0 400 400" fill="none" xmlns="http://www.w3.org/2000/svg">
<path d="M207.708 201.773L168.512 162.316V140.59C168.512 139.201 167.973 137.899 166.983 136.909L148.748 118.674C147.272 117.215 144.997 116.746 143.069 117.545C141.124 118.361 139.857 120.237 139.857 122.355V141.007H121.205C119.086 141.007 117.193 142.275 116.394 144.22C115.595 146.165 116.03 148.406 117.523 149.899L135.758 168.134C136.748 169.124 138.051 169.662 139.44 169.662H161.131L199.806 208.598C199.476 209.606 199.303 210.63 199.303 211.638C199.303 217.16 203.783 221.641 209.306 221.641C214.829 221.641 219.309 217.16 219.309 211.638C219.309 205.594 213.891 200.749 207.691 201.773H207.708ZM158.092 142.761V159.26H141.593L133.778 151.445H145.067C147.932 151.445 150.277 149.1 150.277 146.235V134.946L158.092 142.761Z" fill="white"/>
<path d="M213.005 140.8H187.042C182.093 140.8 177.317 141.616 172.853 143.11V154.294C177.195 152.331 181.988 151.22 187.042 151.22H213.005C246.419 151.22 273.598 178.399 273.598 211.83C273.598 245.26 246.419 272.422 213.005 272.422H159.985C155.799 272.422 152.413 269.018 152.413 264.849V185.849C152.413 181.559 153.229 177.478 154.653 173.692H143.66C142.566 177.565 141.976 181.629 141.976 185.849V264.849C141.976 274.767 150.051 282.842 159.967 282.842H212.988C252.15 282.842 284 250.991 284 211.83C284 172.668 252.167 140.8 213.005 140.8Z" fill="white"/>
<path d="M193.902 167.249C189.734 167.249 185.792 168.274 182.319 170.062L190.325 178.121C191.471 177.843 192.669 177.669 193.902 177.669H213.005C231.831 177.669 247.148 192.986 247.148 211.812C247.148 230.637 231.831 245.955 213.005 245.955H178.863V193.681L169.797 184.564C168.929 187.134 168.443 189.86 168.443 192.709V250.8C168.443 253.874 170.943 256.374 174.017 256.374H213.023C237.597 256.374 257.586 236.386 257.586 211.812C257.586 187.238 237.597 167.249 213.023 167.249H193.902Z" fill="white"/>
</svg>
