<svg width="400" height="400" viewBox="0 0 400 400" fill="none" xmlns="http://www.w3.org/2000/svg">
<mask id="mask0_557_5298" style="mask-type:luminance" maskUnits="userSpaceOnUse" x="48" y="181" width="303" height="38">
<path d="M351 181.158H48.9995V218.842H351V181.158Z" fill="white"/>
</mask>
<g mask="url(#mask0_557_5298)">
<path d="M49.0432 183.502C49.3237 183.606 49.5718 183.673 49.801 183.783C51.1064 184.402 52.463 184.898 53.8304 185.353C55.0737 185.768 56.344 186.111 57.617 186.43C58.6364 186.687 59.6748 186.885 60.7131 187.064C61.4953 187.198 62.2909 187.255 63.0784 187.359C64.2947 187.522 65.5192 187.573 66.7436 187.63C67.4961 187.664 68.2459 187.726 69.0011 187.721C69.1305 187.721 69.2653 187.739 69.3894 187.713C70.0717 187.563 70.7649 187.64 71.4499 187.595C72.0918 187.552 72.731 187.469 73.3729 187.394C73.799 187.346 74.2251 187.281 74.6513 187.222C76.1265 187.019 77.5748 186.7 78.9719 186.181C79.7594 185.889 80.5361 185.573 81.3102 185.243C82.9554 184.544 84.5844 183.81 86.2349 183.127C87.988 182.401 89.7977 181.847 91.6613 181.472C93.1447 181.172 94.6496 181.113 96.1599 181.185C96.5456 181.204 96.9313 181.268 97.3088 181.343C98.5171 181.59 99.6795 181.97 100.804 182.476C101.314 182.707 101.832 182.923 102.33 183.173C103.507 183.762 104.618 184.458 105.642 185.286C105.726 185.353 105.823 185.404 105.907 185.471C106.212 185.714 106.474 185.988 106.676 186.328C107.102 187.048 107.525 187.769 107.903 188.514C108.793 190.26 109.48 192.076 109.953 193.975C109.982 194.093 109.953 194.24 110.152 194.294C110.228 194.093 110.19 193.884 110.19 193.68C110.19 191.259 110.19 188.838 110.193 186.416C110.193 186.186 110.155 185.948 110.268 185.69C110.389 185.672 110.51 185.637 110.635 185.637C112.814 185.634 114.993 185.634 117.172 185.637C117.278 185.637 117.383 185.661 117.517 185.68C117.547 185.806 117.593 185.923 117.601 186.044C117.615 186.237 117.607 186.43 117.607 186.622C117.607 189.88 117.607 193.137 117.607 196.394C117.607 196.627 117.607 196.862 117.607 197.079C117.769 197.178 117.827 197.063 117.89 196.994C118.37 196.471 118.847 195.946 119.319 195.419C119.851 194.827 120.371 194.229 120.902 193.637C121.919 192.502 122.936 191.366 123.956 190.233C124.443 189.689 124.942 189.156 125.431 188.613C126.048 187.927 126.658 187.233 127.281 186.55C127.556 186.25 127.855 185.974 128.144 185.685C128.53 185.666 128.915 185.631 129.301 185.631C131.48 185.626 133.659 185.629 135.838 185.631C136.07 185.631 136.311 185.591 136.537 185.677C136.588 185.891 136.44 186.004 136.332 186.127C135.992 186.515 135.647 186.896 135.299 187.279C134.748 187.881 134.193 188.479 133.646 189.084C133.098 189.689 132.561 190.303 132.017 190.911C131.588 191.39 131.156 191.87 130.722 192.346C130.172 192.949 129.616 193.546 129.069 194.152C128.273 195.025 127.483 195.901 126.693 196.779C126.566 196.921 126.461 197.085 126.323 197.269C127.219 198.66 128.184 199.996 129.096 201.368C129.999 202.726 130.916 204.076 131.83 205.425C132.756 206.794 133.686 208.16 134.611 209.529C135.523 210.876 136.432 212.229 137.349 213.59C137.146 213.756 136.95 213.699 136.769 213.699C134.59 213.705 132.411 213.702 130.231 213.702C129.864 213.702 129.498 213.702 129.131 213.702C128.403 213.702 128.521 213.699 128.189 213.215C127.246 211.832 126.304 210.448 125.368 209.06C124.179 207.3 122.992 205.535 121.803 203.776C121.622 203.51 121.433 203.251 121.258 203.004C121.091 202.959 121.056 203.09 120.989 203.159C119.956 204.282 118.934 205.412 117.89 206.526C117.66 206.77 117.601 207.025 117.604 207.341C117.612 209.183 117.607 211.026 117.607 212.869C117.607 213.102 117.607 213.338 117.607 213.509C117.461 213.718 117.302 213.699 117.153 213.699C116.463 213.702 115.772 213.699 115.082 213.699C113.701 213.699 112.32 213.699 110.939 213.699C110.726 213.699 110.516 213.686 110.333 213.678C110.133 213.461 110.195 213.239 110.195 213.032C110.19 211.447 110.193 209.861 110.193 208.275C110.193 208.064 110.193 207.852 110.193 207.638C110.006 207.63 109.993 207.742 109.966 207.841C109.651 209.001 109.248 210.132 108.677 211.195C108.218 212.047 107.666 212.826 107.048 213.579C106.244 214.562 105.254 215.309 104.183 215.947C103.016 216.643 101.759 217.165 100.443 217.522C99.6553 217.736 98.8623 217.939 98.0613 218.1C97.325 218.247 96.5753 218.333 95.8309 218.44C95.278 218.521 94.7251 218.588 94.1695 218.663C94.148 218.665 94.1264 218.671 94.1048 218.671C93.3955 218.719 92.6889 218.799 91.9796 218.813C90.7281 218.837 89.4767 218.826 88.2253 218.823C87.7102 218.823 87.1951 218.823 86.6799 218.721C86.2403 218.638 85.7845 218.644 85.3341 218.585C83.8157 218.387 82.327 218.06 80.8517 217.655C78.4649 216.999 76.2668 215.92 74.1146 214.733C73.0547 214.149 72.0487 213.498 71.0912 212.765C70.7298 212.486 70.4197 212.162 70.1797 211.776C70.123 211.685 70.069 211.591 70.0286 211.492C69.9153 211.222 70.034 211.007 70.3252 210.994C70.6489 210.981 70.978 210.965 71.2935 211.013C72.0379 211.128 72.7769 211.273 73.5131 211.425C75.1987 211.774 76.879 212.14 78.5646 212.481C79.0258 212.574 79.5005 212.609 79.9698 212.663C80.7169 212.746 81.4639 212.834 82.2137 212.893C82.6425 212.928 83.0767 212.907 83.5083 212.915C84.5439 212.936 85.5661 212.81 86.5936 212.69C88.0365 212.521 89.4255 212.154 90.7821 211.656C92.144 211.152 93.4063 210.469 94.5822 209.62C95.4722 208.977 96.3163 208.275 97.0796 207.491C98.1287 206.411 99.07 205.243 99.7119 203.861C99.9384 203.371 100.106 202.868 100.235 202.348C100.338 201.933 100.432 201.515 100.534 201.1C100.664 200.58 100.804 200.063 101.066 199.589C101.095 199.538 101.098 199.474 101.128 199.367C100.915 199.394 100.826 199.56 100.694 199.64C100.567 199.718 100.451 199.817 100.338 199.916C98.7545 201.311 97.0553 202.551 95.2429 203.636C94.4122 204.134 93.5762 204.622 92.7185 205.069C90.4746 206.237 88.1066 207.084 85.6335 207.638C84.5844 207.874 83.5244 208.042 82.4564 208.176C81.7687 208.262 81.0755 208.216 80.3959 208.31C79.5329 208.431 78.6752 208.388 77.8148 208.396C77.537 208.396 77.2593 208.348 76.9815 208.321C76.8736 208.31 76.7684 208.294 76.6606 208.289C74.7807 208.2 72.9495 207.844 71.1424 207.33C69.438 206.845 67.7981 206.194 66.2231 205.391C64.8611 204.694 63.5612 203.893 62.3394 202.972C61.3604 202.235 60.4246 201.451 59.5372 200.602C58.9007 199.993 58.3128 199.343 57.6925 198.721C57.3634 198.392 57.0856 198.009 56.7782 197.642C56.9535 197.511 57.0856 197.626 57.2124 197.671C57.8597 197.907 58.5016 198.153 59.1488 198.397C60.7428 198.994 62.3826 199.45 64.0385 199.835C65.1281 200.09 66.2231 200.304 67.3316 200.457C68.2027 200.577 69.0765 200.703 69.9477 200.819C70.1176 200.84 70.2929 200.824 70.4655 200.837C70.7649 200.861 71.0643 200.899 71.3636 200.926C71.5794 200.944 71.7925 200.958 72.0082 200.958C73.3028 200.96 74.5973 200.963 75.8919 200.958C76.3018 200.958 76.7118 200.982 77.111 200.859C77.1703 200.84 77.2404 200.84 77.3025 200.84C78.3165 200.845 79.3144 200.652 80.3177 200.551C81.1079 200.47 81.89 200.307 82.6668 200.146C83.0659 200.066 83.4516 199.921 83.8373 199.787C84.5708 199.533 85.3045 199.284 86.0272 199.002C87.1924 198.552 88.3494 198.084 89.5064 197.615C90.0458 197.398 90.5798 197.168 91.1084 196.927C92.1711 196.442 93.1716 195.869 94.005 195.028C94.7224 194.302 95.1647 193.455 95.4075 192.47C95.5423 191.921 95.2483 191.401 94.8033 191.184C94.5552 191.063 94.2801 190.975 94.0104 190.927C93.3739 190.817 92.7455 190.796 92.0901 190.887C91.2136 191.01 90.3506 191.168 89.4929 191.377C87.8558 191.773 86.2781 192.349 84.7192 192.976C83.0417 193.654 81.3587 194.318 79.6299 194.851C78.1088 195.32 76.5688 195.727 74.9857 195.946C74.1335 196.064 73.2839 196.187 72.4317 196.3C72.2617 196.321 72.0864 196.316 71.9138 196.316C70.684 196.319 69.4541 196.316 68.2243 196.327C67.1239 196.335 66.0343 196.244 64.9448 196.083C64.1572 195.968 63.3616 195.92 62.5794 195.786C61.0098 195.518 59.4375 195.263 57.9298 194.725C56.3521 194.162 54.8741 193.415 53.6065 192.33C52.3281 191.238 51.2062 189.997 50.451 188.463C49.9143 187.381 49.4423 186.258 49.1969 185.053C49.1214 184.699 49.054 184.34 49.0054 183.981C48.9865 183.842 49.027 183.695 49.0432 183.499V183.502Z" fill="white"/>
<path d="M175.525 185.685C175.716 185.666 175.862 185.639 176.01 185.639C180.754 185.639 185.501 185.629 190.245 185.661C192.009 185.672 193.705 186.081 195.316 186.799C196.167 187.177 196.952 187.68 197.611 188.337C198.746 189.472 199.388 190.838 199.434 192.464C199.461 193.466 199.307 194.428 198.886 195.338C198.185 196.849 197.012 197.872 195.488 198.52C195.312 198.595 195.132 198.66 194.959 198.727C194.97 198.906 195.102 198.887 195.197 198.917C196.405 199.297 197.505 199.862 198.396 200.781C199.315 201.732 199.908 202.851 200.192 204.14C200.396 205.072 200.421 206.02 200.302 206.952C200.124 208.34 199.544 209.574 198.576 210.614C197.71 211.543 196.656 212.194 195.485 212.673C194.261 213.174 192.99 213.458 191.675 213.606C190.962 213.686 190.256 213.71 189.546 213.71C185.126 213.715 180.703 213.71 176.283 213.71C176.048 213.71 175.813 213.702 175.554 213.697C175.519 213.547 175.479 213.426 175.468 213.306C175.455 213.134 175.463 212.963 175.463 212.791C175.463 204.051 175.463 195.311 175.463 186.572C175.463 186.296 175.433 186.017 175.525 185.682V185.685ZM183.02 202.182C182.995 202.313 182.963 202.412 182.963 202.514C182.96 204.225 182.96 205.937 182.963 207.649C182.963 207.748 183.004 207.847 183.031 207.973C183.249 207.986 183.438 208.007 183.627 208.007C185.199 208.01 186.771 208.018 188.344 208.002C188.837 207.997 189.333 207.946 189.819 207.868C190.264 207.796 190.701 207.673 191.105 207.461C191.887 207.051 192.438 206.449 192.618 205.573C192.764 204.86 192.715 204.158 192.241 203.559C191.847 203.063 191.359 202.696 190.744 202.487C190.105 202.267 189.446 202.16 188.783 202.15C187.017 202.126 185.25 202.142 183.486 202.144C183.341 202.144 183.195 202.168 183.022 202.182H183.02ZM183.025 196.685C183.16 196.707 183.263 196.734 183.368 196.734C185.242 196.734 187.116 196.739 188.991 196.718C189.328 196.715 189.681 196.648 190.002 196.538C190.517 196.367 190.97 196.088 191.302 195.633C191.839 194.896 191.893 194.079 191.693 193.244C191.494 192.405 190.887 191.902 190.099 191.61C189.568 191.414 189.004 191.369 188.449 191.361C186.79 191.342 185.131 191.353 183.473 191.355C183.327 191.355 183.184 191.39 183.022 191.412C183.001 191.54 182.974 191.642 182.969 191.744C182.914 192.992 182.952 196.139 183.031 196.68L183.025 196.685Z" fill="white"/>
<path d="M296.577 185.666C296.806 185.656 296.998 185.64 297.19 185.64C298.959 185.64 300.728 185.64 302.497 185.64C302.541 185.64 302.584 185.645 302.627 185.64C302.966 185.597 303.198 185.758 303.39 186.02C303.654 186.384 303.932 186.741 304.205 187.099C306.823 190.555 309.445 194.007 312.063 197.463C313.191 198.949 314.318 200.438 315.448 201.925C315.524 202.024 315.575 202.155 315.775 202.158C315.782 201.952 315.796 201.745 315.796 201.539C315.796 199.268 315.796 196.997 315.796 194.725C315.796 191.961 315.796 189.197 315.796 186.433C315.796 186.2 315.769 185.964 315.864 185.704C315.988 185.683 316.112 185.645 316.233 185.645C318.261 185.642 320.29 185.642 322.318 185.645C322.442 185.645 322.563 185.68 322.698 185.701C322.725 185.806 322.76 185.883 322.765 185.966C322.776 186.159 322.774 186.352 322.774 186.545C322.774 195.309 322.774 204.073 322.774 212.837C322.774 213.092 322.762 213.346 322.757 213.627C322.603 213.662 322.482 213.713 322.363 213.713C320.443 213.718 318.523 213.713 316.602 213.721C316.308 213.721 316.123 213.603 315.955 213.381C314.372 211.294 312.786 209.213 311.198 207.129C309.599 205.029 307.996 202.932 306.394 200.832C305.51 199.672 304.622 198.513 303.738 197.35C303.7 197.299 303.665 197.248 303.644 197.219C303.46 197.224 303.498 197.337 303.492 197.406C303.482 197.599 303.487 197.792 303.487 197.985C303.487 202.935 303.487 207.885 303.487 212.834C303.487 213.089 303.479 213.343 303.474 213.558C303.255 213.775 303.026 213.708 302.818 213.71C301.178 213.716 299.539 213.713 297.899 213.713C297.597 213.713 297.295 213.716 296.993 213.713C296.866 213.713 296.739 213.692 296.583 213.678C296.553 213.552 296.51 213.434 296.499 213.314C296.486 213.142 296.494 212.971 296.494 212.8C296.494 204.057 296.494 195.314 296.494 186.572C296.494 186.299 296.459 186.017 296.566 185.669L296.577 185.666Z" fill="white"/>
<path d="M202.514 199.558C202.541 197.297 203.034 195.147 204.078 193.132C204.671 191.986 205.424 190.949 206.327 190.012C207.49 188.807 208.819 187.834 210.311 187.087C211.487 186.5 212.727 186.061 214.022 185.793C215.141 185.563 216.268 185.4 217.415 185.4C218.407 185.4 219.397 185.389 220.378 185.552C221.657 185.764 222.906 186.077 224.117 186.546C225.393 187.041 226.571 187.703 227.66 188.517C229.052 189.557 230.206 190.815 231.116 192.297C232.003 193.738 232.599 195.289 232.906 196.947C233.004 197.469 233.111 197.996 233.098 198.538C233.092 198.706 233.127 198.878 233.144 199.049C233.16 199.218 233.192 199.389 233.187 199.558C233.114 202.37 232.48 205.025 230.91 207.406C229.548 209.474 227.758 211.076 225.557 212.227C223.961 213.063 222.266 213.601 220.478 213.85C219.518 213.984 218.555 214.108 217.587 214.073C214.747 213.971 212.04 213.358 209.564 211.917C208.633 211.376 207.754 210.757 206.983 209.996C206.262 209.286 205.553 208.571 204.987 207.727C203.846 206.032 203.067 204.197 202.748 202.172C202.611 201.304 202.492 200.439 202.516 199.555L202.514 199.558ZM217.757 191.699C217.468 191.734 216.973 191.769 216.487 191.857C215.074 192.115 213.814 192.712 212.779 193.7C210.545 195.827 209.769 198.436 210.357 201.428C210.672 203.04 211.452 204.438 212.662 205.582C214.502 207.315 216.681 208.038 219.184 207.62C221.139 207.296 222.709 206.289 223.882 204.695C225.293 202.78 225.73 200.619 225.393 198.307C225.139 196.569 224.384 195.047 223.092 193.807C221.66 192.431 219.944 191.756 217.757 191.699Z" fill="white"/>
<path d="M274.834 206.034C274.732 206.286 274.77 206.524 274.77 206.754C274.767 208.811 274.77 210.868 274.767 212.923C274.767 213.153 274.805 213.392 274.7 213.649C274.602 213.667 274.5 213.708 274.4 213.708C272.178 213.71 269.956 213.71 267.736 213.708C267.652 213.708 267.566 213.686 267.45 213.673C267.42 213.558 267.372 213.44 267.361 213.322C267.345 213.153 267.356 212.979 267.356 212.808C267.356 204.046 267.356 195.285 267.356 186.521C267.356 186.266 267.363 186.012 267.369 185.733C267.523 185.696 267.642 185.65 267.763 185.64C267.936 185.624 268.108 185.634 268.281 185.634C272.294 185.634 276.304 185.634 280.317 185.634C280.555 185.634 280.792 185.64 281.029 185.64C282.683 185.645 284.285 185.945 285.833 186.516C286.768 186.858 287.661 187.298 288.441 187.914C289.711 188.918 290.693 190.145 291.235 191.693C291.642 192.858 291.847 194.048 291.863 195.28C291.877 196.268 291.801 197.246 291.591 198.213C291.13 200.331 290.118 202.131 288.416 203.519C288.101 203.776 287.742 203.982 287.408 204.212C287.251 204.319 287.098 204.432 286.917 204.561C287.179 205.128 287.54 205.605 287.85 206.109C288.152 206.602 288.473 207.086 288.786 207.574C289.11 208.08 289.436 208.584 289.762 209.09C290.089 209.596 290.412 210.1 290.739 210.603C291.052 211.091 291.37 211.576 291.677 212.066C291.993 212.569 292.362 213.043 292.61 213.606C292.529 213.643 292.478 213.686 292.422 213.692C291.985 213.737 284.711 213.705 284.309 213.657C283.899 213.075 283.635 212.393 283.271 211.763C282.907 211.131 282.594 210.472 282.254 209.827C281.925 209.2 281.588 208.578 281.253 207.954C280.908 207.314 280.566 206.674 280.228 206.05C279.832 205.924 279.463 205.991 279.101 205.98C278.756 205.969 278.411 205.98 278.065 205.98C277.698 205.98 277.332 205.98 276.965 205.98C276.62 205.98 276.274 205.972 275.929 205.98C275.568 205.991 275.204 205.935 274.84 206.028L274.834 206.034ZM274.826 200.015C274.985 200.029 275.131 200.053 275.277 200.053C276.957 200.053 278.637 200.063 280.317 200.05C280.986 200.045 281.641 199.924 282.276 199.694C283.476 199.254 284.231 198.416 284.581 197.2C284.786 196.488 284.783 195.756 284.716 195.036C284.595 193.745 284.012 192.73 282.818 192.098C281.973 191.653 281.062 191.508 280.137 191.487C278.478 191.449 276.819 191.473 275.161 191.479C275.042 191.479 274.924 191.53 274.775 191.565C274.775 194.307 274.775 197.023 274.775 199.737C274.775 199.817 274.805 199.897 274.829 200.01L274.826 200.015Z" fill="white"/>
<path d="M335.69 191.564C335.666 191.671 335.633 191.751 335.633 191.834C335.631 193.417 335.633 195.003 335.633 196.616C335.776 196.65 335.895 196.693 336.013 196.704C336.186 196.717 336.359 196.709 336.531 196.709C340.437 196.709 344.342 196.709 348.244 196.709C348.498 196.709 348.757 196.674 349.043 196.779C349.137 197.248 349.078 197.716 349.088 198.18C349.1 198.651 349.088 199.123 349.088 199.594C349.088 200.065 349.088 200.537 349.088 201.008C349.088 201.477 349.08 201.946 349.078 202.372C348.881 202.581 348.676 202.53 348.49 202.532C347.475 202.54 346.462 202.532 345.447 202.543C342.387 202.57 339.325 202.599 336.264 202.631C336.075 202.631 335.876 202.589 335.693 202.723C335.676 202.773 335.638 202.832 335.638 202.891C335.633 204.413 335.633 205.934 335.633 207.455C335.633 207.536 335.66 207.619 335.681 207.734C335.816 207.753 335.938 207.78 336.062 207.785C336.256 207.793 336.451 207.788 336.644 207.788C341.132 207.788 345.617 207.788 350.105 207.788C350.995 207.788 351.009 207.758 351.006 208.663C351.001 210.099 351.006 211.535 351.003 212.97C351.003 213.182 350.987 213.391 350.979 213.632C350.828 213.664 350.709 213.702 350.588 213.71C350.437 213.723 350.286 213.715 350.135 213.715C343.123 213.715 336.113 213.715 329.101 213.715C328.845 213.715 328.588 213.707 328.308 213.704C328.273 213.554 328.227 213.437 328.219 213.316C328.206 213.145 328.214 212.973 328.214 212.802C328.214 204.062 328.214 195.319 328.214 186.579C328.214 186.303 328.176 186.025 328.273 185.719C328.392 185.695 328.51 185.658 328.631 185.647C328.783 185.634 328.934 185.642 329.085 185.642C335.968 185.642 342.848 185.642 349.731 185.642C349.986 185.642 350.248 185.599 350.526 185.711C350.55 185.819 350.602 185.942 350.604 186.062C350.61 187.734 350.61 189.405 350.604 191.076C350.604 191.178 350.574 191.283 350.553 191.414C350.413 191.438 350.292 191.47 350.167 191.476C349.995 191.486 349.822 191.478 349.649 191.478C345.27 191.478 340.892 191.478 336.512 191.478C336.256 191.478 335.995 191.433 335.69 191.561V191.564Z" fill="white"/>
<path d="M236.329 185.717C236.925 185.613 241.229 185.57 243.244 185.639C243.368 185.645 243.492 185.672 243.643 185.693C243.665 185.84 243.691 185.961 243.7 186.084C243.708 186.277 243.702 186.47 243.702 186.663C243.702 191.698 243.702 196.731 243.702 201.767C243.702 202.586 243.808 203.387 244.088 204.161C244.663 205.75 245.733 206.84 247.351 207.397C247.95 207.603 248.568 207.732 249.185 207.742C250.866 207.769 252.381 207.327 253.546 206.031C253.924 205.61 254.215 205.139 254.426 204.619C254.784 203.735 254.943 202.817 254.941 201.86C254.935 196.739 254.938 191.621 254.941 186.499C254.941 186.248 254.908 185.988 254.995 185.728C255.219 185.594 255.461 185.639 255.691 185.639C257.503 185.637 259.315 185.637 261.128 185.639C261.492 185.639 261.859 185.648 262.247 185.653C262.287 185.798 262.336 185.913 262.347 186.033C262.363 186.202 262.352 186.376 262.352 186.548C262.352 191.605 262.352 196.659 262.352 201.716C262.352 202.102 262.358 202.487 262.339 202.873C262.212 205.468 261.438 207.839 259.752 209.856C258.533 211.316 256.998 212.368 255.208 213.049C254.197 213.432 253.161 213.699 252.087 213.849C251.041 213.997 249.992 214.117 248.935 214.072C246.79 213.978 244.695 213.627 242.734 212.706C241.736 212.237 240.822 211.642 239.994 210.906C238.122 209.242 237.017 207.169 236.534 204.74C236.38 203.96 236.283 203.181 236.286 202.385C236.286 197.01 236.286 191.631 236.286 186.256C236.286 186.087 236.31 185.921 236.323 185.72L236.329 185.717Z" fill="white"/>
<path d="M153.305 185.709C153.858 185.61 157.153 185.575 160.163 185.642C160.308 185.645 160.454 185.674 160.622 185.693C160.649 185.813 160.689 185.915 160.694 186.017C160.705 186.231 160.7 186.445 160.7 186.66C160.7 193.278 160.7 199.897 160.7 206.518C160.7 206.773 160.708 207.03 160.71 207.308C160.859 207.343 160.978 207.386 161.099 207.397C161.293 207.41 161.487 207.402 161.681 207.402C165.047 207.402 168.41 207.402 171.776 207.402C172.03 207.402 172.291 207.367 172.572 207.469C172.591 207.573 172.628 207.673 172.628 207.774C172.631 209.639 172.628 211.503 172.628 213.364C172.628 213.447 172.602 213.53 172.583 213.643C172.458 213.667 172.337 213.702 172.216 213.715C172.086 213.729 171.957 213.721 171.827 213.721C165.897 213.721 159.963 213.721 154.033 213.721C153.798 213.721 153.564 213.712 153.305 213.707C153.267 213.557 153.226 213.439 153.213 213.319C153.197 213.171 153.207 213.019 153.207 212.869C153.207 204.086 153.207 195.303 153.21 186.52C153.21 186.25 153.137 185.963 153.305 185.717V185.709Z" fill="white"/>
<path d="M147.724 213.646C147.134 213.737 142.811 213.775 140.828 213.71C140.704 213.708 140.58 213.681 140.426 213.662C140.407 213.512 140.383 213.389 140.375 213.266C140.367 213.094 140.372 212.923 140.372 212.752C140.372 204.033 140.372 195.317 140.372 186.599C140.372 186.323 140.378 186.047 140.381 185.744C140.529 185.704 140.645 185.645 140.764 185.643C141.152 185.629 141.541 185.637 141.929 185.637C143.612 185.637 145.292 185.637 146.975 185.637C147.207 185.637 147.441 185.651 147.7 185.659C147.733 185.817 147.771 185.934 147.781 186.055C147.794 186.205 147.786 186.355 147.786 186.505C147.786 195.288 147.786 204.068 147.786 212.851C147.786 213.105 147.822 213.362 147.724 213.643V213.646Z" fill="white"/>
</g>
</svg>
