<svg width="400" height="400" viewBox="0 0 400 400" fill="none" xmlns="http://www.w3.org/2000/svg">
<path d="M102.4 178.257C96.9283 186.596 91.4567 194.931 85.8118 203.535C80.2566 195.068 74.8407 186.82 69.1803 178.195V216.793C67.1049 216.793 65.2181 216.793 63.3282 216.793C61.3703 216.793 59.4124 216.759 57.4576 216.809C56.5297 216.833 56.1801 216.535 56.2142 215.567C56.2822 213.706 56.2358 211.843 56.2358 209.982C56.2358 192.912 56.2358 175.845 56.2358 158.776C56.2358 158.268 56.2358 157.758 56.2358 157.102C56.8513 157.064 57.34 157.005 57.8287 157.005C61.4322 156.999 65.0387 157.067 68.6421 156.968C69.9628 156.931 70.6496 157.41 71.3146 158.505C75.88 165.991 80.5165 173.434 85.1314 180.889C85.3757 181.281 85.6324 181.664 85.985 182.205C86.9655 180.637 87.8903 179.165 88.8028 177.691C92.8207 171.197 96.8541 164.716 100.826 158.197C101.382 157.282 101.986 156.962 103.037 156.977C107.194 157.036 111.354 157.002 115.614 157.002V216.656H102.802V178.397C102.669 178.35 102.533 178.304 102.4 178.257Z" fill="white"/>
<path d="M151.632 216.781C147.28 216.781 143.222 216.793 139.167 216.75C138.907 216.75 138.644 216.292 138.403 216.031C138.35 215.975 138.391 215.832 138.391 215.729C138.4 196.338 138.409 176.95 138.422 157.559C138.422 157.463 138.483 157.366 138.573 157.114C138.944 157.083 139.38 157.012 139.82 157.012C148.623 157.009 157.429 156.965 166.231 157.033C171.023 157.071 175.678 157.936 179.786 160.59C186.587 164.98 188.585 171.608 187.908 179.259C187.206 187.203 182.82 192.439 175.335 195.442C180.134 202.505 184.889 209.5 189.767 216.678C189.148 216.731 188.765 216.793 188.378 216.793C184.208 216.799 180.036 216.759 175.869 216.821C174.858 216.837 174.301 216.485 173.763 215.664C170.048 210.019 166.266 204.422 162.557 198.774C162.013 197.947 161.459 197.589 160.45 197.614C157.574 197.685 154.694 197.639 151.641 197.639V216.787L151.632 216.781ZM151.617 185.827C156.949 185.827 162.096 186.002 167.224 185.759C170.101 185.622 172.513 184.138 173.894 181.387C176.747 175.693 173.237 169.489 166.723 169.1C161.849 168.811 156.946 168.963 152.056 168.929C151.92 168.929 151.784 169.041 151.614 169.112V185.827H151.617Z" fill="white"/>
<path d="M280.599 186.929C280.612 169.451 294.382 156.003 312.251 156.016C330.28 156.028 343.819 169.296 343.788 186.925C343.757 204.425 329.918 217.817 311.91 217.776C294.141 217.736 280.584 204.378 280.596 186.929H280.599ZM294.06 186.86C294.472 188.976 294.695 191.148 295.329 193.195C299.238 205.819 315.422 209.913 324.676 200.613C329.263 196.005 330.627 190.298 329.894 183.951C328.891 175.257 321.425 168.331 312.799 168.144C302.127 167.914 294.342 175.78 294.06 186.86Z" fill="white"/>
<path d="M260.035 164.184C257.224 167.591 254.564 170.811 251.818 174.14C250.846 173.422 249.924 172.712 248.972 172.043C243.989 168.543 238.434 167.186 232.553 168.624C225.619 170.319 221.387 175.136 219.819 182C218.077 189.626 219.668 196.509 225.764 201.833C232.334 207.574 243.11 206.466 248.786 202.657C249.138 202.421 249.473 201.864 249.482 201.447C249.546 198.97 249.513 196.487 249.513 193.765H236.37V182.482H262.065C262.102 182.921 262.163 183.316 262.166 183.715C262.172 191.475 262.188 199.232 262.139 206.992C262.135 207.62 261.861 208.482 261.402 208.84C249.741 217.954 236.877 220.645 223.045 214.923C212.279 210.467 206.76 201.68 205.68 190.168C204.71 179.803 207.92 170.867 215.684 163.838C222.856 157.341 231.483 155.381 240.917 156.162C247.787 156.731 253.914 159.09 259.228 163.527C259.463 163.723 259.704 163.916 260.035 164.184Z" fill="white"/>
<path d="M129.109 242.22C128.549 242.846 128.075 243.375 127.516 244C126.671 243.082 125.845 243.091 124.695 243.521C121.116 244.856 117.42 242.759 116.569 239.106C115.787 235.742 118.113 232.285 121.496 231.778C125.465 231.184 128.697 233.639 128.941 237.5C128.988 238.25 128.88 239.093 128.567 239.762C128.106 240.755 127.927 241.558 129.105 242.22H129.109ZM125.777 239.23C126.578 237.556 126.105 235.717 124.679 234.709C123.272 233.716 121.422 233.884 120.188 235.117C118.911 236.392 118.768 238.567 119.866 240.073C120.856 241.43 122.452 241.813 124.002 241.038C123.479 240.546 122.966 240.064 122.369 239.501C122.922 238.875 123.414 238.318 123.937 237.727C124.593 238.262 125.174 238.738 125.774 239.227L125.777 239.23Z" fill="white"/>
<path d="M294.456 243.876C290.933 243.851 288.214 241.138 288.286 237.731C288.359 234.208 291.085 231.676 294.747 231.725C298.208 231.772 300.837 234.383 300.837 237.774C300.837 241.256 298.069 243.907 294.452 243.879L294.456 243.876ZM294.675 241.48C296.677 241.449 298.159 239.806 298.1 237.687C298.044 235.63 296.387 233.975 294.45 234.047C292.498 234.118 290.927 235.864 290.992 237.892C291.056 239.974 292.641 241.514 294.673 241.483L294.675 241.48Z" fill="white"/>
<path d="M98.6763 239.554C99.5486 240.88 100.381 242.146 101.281 243.515C99.4341 243.904 98.0793 243.764 97.204 241.941C96.6101 240.709 95.9297 239.187 93.8727 240.108V243.543H91.4199V231.959C93.5078 231.959 95.6018 231.847 97.6773 231.993C99.4124 232.115 100.625 233.079 101.002 234.915C101.37 236.698 100.829 238.042 99.2237 239.168C99.066 239.28 98.9052 239.392 98.6763 239.554ZM93.8821 237.597C95.0079 237.597 96.0379 237.802 96.9195 237.525C97.5381 237.329 98.3361 236.483 98.3453 235.917C98.3547 235.375 97.5319 234.52 96.9195 234.342C95.9915 234.075 94.9275 234.271 93.8821 234.271V237.597Z" fill="white"/>
<path d="M214.471 231.828C216.827 231.828 219.08 231.828 221.328 231.828C221.935 231.828 222.541 231.828 223.221 231.828V234.134H217.177V236.611H222.487V238.82H217.186V241.346H223.218V243.549H214.471V231.828Z" fill="white"/>
<path d="M152.205 231.915H154.908C154.744 234.924 154.84 237.97 154.327 240.907C153.943 243.104 151.704 244.075 149.019 243.863C146.702 243.68 145.013 242.488 144.806 240.288C144.553 237.584 144.744 234.837 144.744 231.968H147.176C147.176 234.246 147.145 236.501 147.185 238.754C147.216 240.428 147.983 241.315 149.362 241.43C151.119 241.576 152.155 240.649 152.192 238.779C152.236 236.52 152.202 234.258 152.202 231.915H152.205Z" fill="white"/>
<path d="M76.0586 243.518C74.3822 243.866 73.1171 243.91 72.6903 241.971C72.6067 241.589 71.8737 241.225 71.3788 241.094C70.8004 240.942 70.1447 241.116 69.5354 241.044C68.0569 240.87 67.0918 241.209 66.5381 242.843C66.3402 243.425 64.9731 243.605 64.141 243.969L63.8008 243.484C64.2307 242.413 64.6483 241.34 65.0968 240.279C66.1577 237.762 67.1877 235.232 68.3445 232.758C68.5548 232.307 69.2941 231.887 69.8106 231.859C70.3365 231.831 71.1932 232.167 71.3788 232.581C72.9841 236.147 74.4719 239.765 76.0586 243.521V243.518ZM68.3847 238.589H71.3541C70.8437 237.36 70.4015 236.296 69.857 234.989C69.3158 236.312 68.8765 237.385 68.3847 238.589Z" fill="white"/>
<path d="M324.48 233.249C324.069 233.85 323.67 234.432 323.28 235.001C322.309 234.649 321.424 234.155 320.496 234.055C319.924 233.993 319.287 234.538 318.681 234.811C319.095 235.291 319.42 235.95 319.942 236.215C320.846 236.672 321.897 236.834 322.844 237.22C324.214 237.78 324.988 238.828 324.901 240.353C324.808 241.965 323.966 243.088 322.427 243.561C319.911 244.329 317.697 243.654 315.585 241.993C316.095 241.358 316.54 240.81 316.921 240.334C318.059 240.761 319.077 241.336 320.147 241.473C320.793 241.554 321.527 240.957 322.223 240.667C321.746 240.172 321.347 239.535 320.774 239.22C320.069 238.834 319.204 238.757 318.433 238.47C316.717 237.836 315.918 236.687 316.023 235.101C316.132 233.461 317.323 232.095 319.02 231.824C320.973 231.513 322.804 231.837 324.483 233.252L324.48 233.249Z" fill="white"/>
<path d="M249.317 233.586C248.831 234.143 248.336 234.712 247.86 235.263C245.003 233.719 243.375 233.766 242.129 235.378C241.025 236.803 241.089 239.046 242.275 240.394C243.564 241.859 245.411 241.812 247.963 240.154C248.432 240.639 248.927 241.147 249.41 241.644C247.236 244.392 243.18 244.669 240.585 242.345C238.139 240.151 237.988 235.994 240.267 233.558C242.605 231.059 246.895 231.025 249.321 233.589L249.317 233.586Z" fill="white"/>
<path d="M273.897 231.906V234.227H270.497V243.543H267.794V234.318H264.349V231.906H273.897Z" fill="white"/>
<path d="M189.176 234.317V231.965H198.749V234.221H195.377V243.543H192.686V234.32H189.176V234.317Z" fill="white"/>
<path d="M171.098 231.872H173.414V243.581H171.098V231.872Z" fill="white"/>
</svg>
