<svg width="400" height="400" viewBox="0 0 400 400" fill="none" xmlns="http://www.w3.org/2000/svg">
<path fill-rule="evenodd" clip-rule="evenodd" d="M64.7298 176.857V180.714H68.5946H72.4595V176.857V173H68.5946H64.7298V176.857ZM103.379 180.714V188.429H95.6487H87.9191V192.286V196.143H84.0541H80.1892V207.714V219.286H84.0541H87.9191V223.143V227H99.5136H111.108V200V173H107.243H103.379V180.714ZM196.136 176.857V180.714H200.001H203.865V203.857V227H207.73H211.595V200V173H203.865H196.136V176.857ZM227.055 176.857V180.714H230.919H234.784V176.857V173H230.919H227.055V176.857ZM288.894 180.714V188.429H285.027H281.163V192.286V196.143H285.027H288.894V207.714V219.286H292.758H296.622V223.143V227H300.487H304.353V223.143V219.286H300.487H296.622V207.714V196.143H300.487H304.353V192.286V188.429H300.487H296.622V180.714V173H292.758H288.894V180.714ZM57 192.286V196.143H60.8649H64.7298V211.571V227H68.5946H72.4595V207.714V188.429H64.7298H57V192.286ZM126.568 192.286V196.143H122.703H118.838V207.714V219.286H122.703H126.568V223.143V227H134.297H142.027V223.143V219.286H134.297H126.568V215.428V211.571H138.162H149.757V203.857V196.143H145.892H142.027V192.286V188.429H134.297H126.568V192.286ZM165.217 192.286V196.143H172.946H180.676V200V203.857H172.946H165.217V207.714V211.571H161.352H157.487V215.428V219.286H161.352H165.217V223.143V227H176.811H188.406V211.571V196.143H184.541H180.676V192.286V188.429H172.946H165.217V192.286ZM219.325 192.286V196.143H223.19H227.055V211.571V227H230.919H234.784V207.714V188.429H227.055H219.325V192.286ZM250.244 192.286V196.143H246.379H242.514V200V203.857H246.379H250.244V207.714V211.571H257.974H265.703V215.428V219.286H254.109H242.514V223.143V227H254.109H265.703V223.143V219.286H269.568H273.433V215.428V211.571H269.568H265.703V207.714V203.857H257.974H250.244V200V196.143H261.839H273.433V192.286V188.429H261.839H250.244V192.286ZM319.812 192.286V196.143H327.541H335.272V200V203.857H327.541H319.812V207.714V211.571H315.946H312.082V215.428V219.286H315.946H319.812V223.143V227H331.407H343V211.571V196.143H339.136H335.272V192.286V188.429H327.541H319.812V192.286ZM103.379 207.714V219.286H95.6487H87.9191V207.714V196.143H95.6487H103.379V207.714ZM142.027 200V203.857H134.297H126.568V200V196.143H134.297H142.027V200ZM180.676 215.428V219.286H172.946H165.217V215.428V211.571H172.946H180.676V215.428ZM335.272 215.428V219.286H327.541H319.812V215.428V211.571H327.541H335.272V215.428Z" fill="white"/>
</svg>
