<svg width="588" height="182" viewBox="0 0 588 182" fill="none" xmlns="http://www.w3.org/2000/svg">
<path fill-rule="evenodd" clip-rule="evenodd" d="M214.893 1.723C206.819 6.112 206.25 18.799 213.898 23.941C219.737 27.867 230.229 26.404 232.97 21.281C233.537 20.223 234 17.753 234 15.792V12.226H228C222.667 12.226 222 12.448 222 14.226C222 15.899 222.667 16.226 226.073 16.226C229.409 16.226 230.088 16.543 229.823 17.976C229.645 18.939 227.847 20.534 225.827 21.522C222.508 23.144 221.817 23.176 218.657 21.856C214.524 20.129 213 17.675 213 12.746C213 5.38699 222.225 1.27 227.535 6.259C229.531 8.134 229.807 8.164 231.067 6.645C232.258 5.211 232.076 4.688 229.662 2.611C226.425 -0.172 219.182 -0.608001 214.893 1.723ZM249 13.113C249 25.559 249.102 26.226 251 26.226C252.733 26.226 253 25.559 253 21.226C253 16.57 253.171 16.226 255.481 16.226C257.293 16.226 258.967 17.573 261.694 21.226C264.32 24.744 266.122 26.226 267.772 26.226C270.354 26.226 270.314 26.096 265.794 19.811C262.981 15.899 262.98 15.894 264.989 14.022C266.323 12.779 267 10.867 267 8.342C267 2.719 264.427 0.871998 255.927 0.391998L249 0V13.113ZM283 8.758C283 22.179 285.551 26.226 294.011 26.226C297.257 26.226 298.787 25.593 301.077 23.303C303.921 20.459 304 20.107 304 10.303C304 0.893002 303.868 0.225998 302 0.225998C300.143 0.225998 300 0.892999 300 9.571C300 20.381 298.725 22.611 292.866 22.046C288.32 21.608 287.033 18.624 287.015 8.476C287.001 0.897998 286.837 0.225998 285 0.225998C283.156 0.225998 283 0.892996 283 8.758ZM321 13.113C321 25.559 321.102 26.226 323 26.226C324.733 26.226 325 25.559 325 21.226V16.226H329.545C337.555 16.226 341.793 8.897 337.12 3.126C335.546 1.182 334.086 0.74 328.12 0.403L321 0V13.113ZM358.567 2.172C354.563 4.812 353.077 7.857 353.035 13.511C352.976 21.535 357.759 26.226 366 26.226C374.333 26.226 379 21.355 379 12.658C379 8.57 378.518 7.509 375.118 4.108C371.668 0.659002 370.693 0.227002 366.368 0.233002C363.243 0.237002 360.45 0.931997 358.567 2.172ZM262.393 6.476C264.176 9.32 261.951 11.677 257.148 12.033L253 12.341V8.226V4.111L257.148 4.419C259.762 4.612 261.702 5.373 262.393 6.476ZM334 6.226C335.821 9.628 333.64 12.226 328.965 12.226C325.006 12.226 325 12.22 325 8.226C325 4.232 325.006 4.226 328.965 4.226C331.906 4.226 333.206 4.742 334 6.226ZM372.411 7.303C377.831 13.744 374.056 22.124 365.705 22.194C360.393 22.239 357 18.743 357 13.226C357 7.656 360.379 4.226 365.866 4.226C369.056 4.226 370.323 4.822 372.411 7.303ZM117.718 80.476C111.87 93.814 104.166 111.363 100.596 119.476L94.107 134.226H102.563H111.019L113.273 129.476L115.527 124.726L130.815 124.45L146.104 124.173L148.302 129.176L150.5 134.179L159.132 134.202L167.765 134.226L150.695 95.226C134.43 58.065 133.5 56.226 130.987 56.226C128.502 56.226 127.736 57.626 117.718 80.476ZM545.19 58.976C544.637 60.488 536.992 78.039 528.201 97.976L512.218 134.226L520.859 134.202L529.5 134.179L531.698 129.176L533.896 124.173L549.185 124.45L564.473 124.726L566.727 129.476L568.981 134.226H577.426H585.871L578.106 116.476C549.341 50.715 552.007 56.226 548.968 56.226C546.854 56.226 545.957 56.879 545.19 58.976ZM209 65.226V73.226H294H379V65.226V57.226H294H209V65.226ZM15 96.226V134.226H39.5H64V127.226V120.226H47.5H31V89.226V58.226H23H15V96.226ZM433 96.226V134.226H457.5H482V127.226V120.226H465.5H449V89.226V58.226H441H433V96.226ZM136.332 99.976L140.834 111.226H130.992H121.151L125.192 100.976C127.414 95.339 129.465 89.909 129.75 88.91C130.526 86.188 131.409 87.672 136.332 99.976ZM554.134 99.226L558.769 111.226H549H539.23L543.865 99.252C546.414 92.666 548.725 87.266 549 87.252C549.275 87.238 551.585 92.627 554.134 99.226ZM326.718 127.476C320.87 140.814 313.166 158.363 309.596 166.476L303.107 181.226H311.639H320.172L322.284 176.226L324.397 171.226H340H355.603L357.716 176.226L359.828 181.226H368.349H376.871L369.106 163.476C340.451 97.965 342.988 103.226 340.045 103.226C337.484 103.226 336.819 104.436 326.718 127.476ZM224 143.226V181.226H248.5H273V174.226V167.226H256.5H240V136.226V105.226H232H224V143.226ZM345.134 146.226L349.769 158.226H339.96H330.151L334.192 147.976C336.414 142.339 338.458 136.939 338.733 135.976C339.008 135.013 339.518 134.226 339.867 134.226C340.215 134.227 342.585 139.627 345.134 146.226ZM0 173.726V181.226H85H170V173.726V166.226H85H0V173.726ZM418 173.726V181.226H503H588V173.726V166.226H503H418V173.726Z" fill="white"/>
</svg>
