<svg width="160" height="51" viewBox="0 0 90 51" fill="none" xmlns="http://www.w3.org/2000/svg">
<path fill-rule="evenodd" clip-rule="evenodd" d="M74.2546 0.429843C72.6229 0.637622 71.528 1.20045 70.5163 2.35131C69.3904 3.63213 68.8421 5.52825 68.9519 7.76119C68.9802 8.33654 69.0566 9.03329 69.1217 9.30952C69.1869 9.58576 69.2717 9.95743 69.3102 10.1355C69.4196 10.6413 69.9806 11.6917 70.4483 12.266C71.5706 13.6443 72.8756 14.2312 74.9886 14.3082C77.3271 14.3933 78.8351 13.7869 80.1007 12.2525C81.1463 10.9849 81.6767 9.02316 81.5648 6.83689C81.5376 6.30566 81.4622 5.64501 81.3971 5.36877C81.332 5.09253 81.2593 4.7622 81.2356 4.63471C81.1491 4.17109 80.5051 2.9418 80.0688 2.40748C79.121 1.24712 77.9339 0.641176 76.1883 0.426675C75.4506 0.336038 74.9848 0.336811 74.2546 0.429843ZM21.6701 0.496682C21.3287 0.528517 20.9746 0.59466 20.8832 0.643572C20.7917 0.692561 20.6331 0.732586 20.5307 0.732586C20.4283 0.732586 19.9921 0.915174 19.5611 1.13825C17.872 2.01279 16.846 3.43285 16.3422 5.5937C16.1548 6.39777 16.1548 8.5896 16.3422 9.39367C16.5333 10.2128 16.6443 10.5319 16.9737 11.2069C17.3768 12.0332 18.4567 13.1689 19.2315 13.5815C20.8143 14.4241 22.7202 14.5589 24.3623 13.9445C24.7998 13.7809 25.7455 13.0997 25.9588 12.7947C26.0213 12.7053 26.1152 12.6321 26.1676 12.6321C26.2818 12.6321 26.4236 13.1042 26.4242 13.486C26.4249 13.9118 26.5058 13.9457 27.5219 13.9457H28.4336V10.4382C28.4336 7.3111 28.4204 6.9256 28.3114 6.8838C28.2442 6.85799 27.0341 6.83689 25.6224 6.83689C23.7291 6.83689 23.0313 6.86123 22.9629 6.92962C22.9007 6.9919 22.8702 7.3417 22.8702 7.99594C22.8702 8.65018 22.9007 8.99998 22.9629 9.06226C23.0281 9.1274 23.4644 9.15499 24.4311 9.15499H25.8065V9.34986C25.8065 9.63607 25.4078 10.4665 25.1042 10.8125C24.5063 11.4941 23.6528 11.8594 22.6585 11.8594C21.87 11.8594 21.3848 11.7154 20.702 11.2786C19.6008 10.574 19.0842 9.36547 19.0842 7.49369C19.0842 5.07205 20.0313 3.45912 21.7619 2.93408C22.7891 2.62245 24.0947 2.92535 24.838 3.64774C25.1509 3.95187 25.4974 4.52769 25.4974 4.74366C25.4974 4.78701 25.5646 4.8584 25.6468 4.90245C25.8316 5.00127 28.1197 5.00761 28.2745 4.90963C28.5138 4.75826 28.1124 3.47103 27.5889 2.71069C27.0187 1.88267 26.211 1.27394 25.0724 0.814261C24.3914 0.539335 22.803 0.391054 21.6701 0.496682ZM31.1124 0.784125C31.084 0.812406 31.0608 3.78536 31.0608 7.39069V13.9457H32.413C33.7632 13.9457 33.7653 13.9455 33.7674 13.7719C33.7687 13.6762 33.7677 12.5889 33.7653 11.3555C33.7621 9.61798 33.784 9.08158 33.8628 8.97387C33.9567 8.84552 34.096 8.83718 35.6614 8.86538C37.5131 8.89884 37.7983 8.95014 38.1637 9.31547C38.4976 9.64936 38.5597 9.94569 38.6397 11.589C38.6791 12.3964 38.7554 13.2483 38.8093 13.4821L38.9072 13.9071L40.4702 13.928L42.0331 13.9489V13.749C42.0331 13.639 41.951 13.4384 41.8506 13.3031C41.5799 12.9384 41.5604 12.8153 41.4925 11.0481C41.4178 9.10221 41.3505 8.84869 40.7496 8.24768C40.5261 8.02422 40.2888 7.8414 40.2223 7.8414C40.0101 7.8414 40.0924 7.60712 40.3525 7.47074C40.8931 7.18747 41.387 6.5204 41.7293 5.61147C41.8584 5.26855 41.8552 3.87236 41.7243 3.47566C41.5158 2.84375 41.2096 2.33562 40.7805 1.90979C40.096 1.23051 39.5171 0.974595 38.2993 0.812869C37.6411 0.725477 31.1967 0.69967 31.1124 0.784125ZM44.1726 0.782347C44.0825 0.872598 44.11 9.94592 44.2018 10.4047C44.4292 11.5405 44.5537 11.857 45.0437 12.5447C45.959 13.829 48.0038 14.5021 50.2692 14.2649C52.2292 14.0597 53.5271 13.2969 54.2019 11.9536C54.7052 10.9516 54.7785 10.0527 54.7808 4.86265C54.7822 1.89565 54.7597 0.895084 54.6899 0.825309C54.5921 0.727486 52.2086 0.687383 51.9686 0.779488C51.8591 0.821523 51.8464 1.28924 51.8464 5.2694C51.8464 10.4166 51.8366 10.5139 51.2561 11.1597C50.8005 11.6663 50.2775 11.8609 49.3862 11.8551C48.0933 11.8468 47.3959 11.3182 47.1087 10.1286C47.0657 9.95063 47.0119 7.8312 46.986 5.2915L46.9397 0.771221L45.5828 0.750203C44.8365 0.738613 44.2019 0.753062 44.1726 0.782347ZM57.4237 0.8318C57.3537 0.916024 57.3364 2.49897 57.3514 7.42484L57.3712 13.9071L58.7427 13.9282L60.1142 13.9493L60.117 13.7736C60.1186 13.677 60.1203 12.6896 60.1207 11.5794C60.1213 10.118 60.1475 9.52526 60.2155 9.43231C60.2974 9.3205 60.5464 9.29956 62.1372 9.2712C64.6256 9.22685 65.3343 9.0584 66.2674 8.28972C67.0548 7.64096 67.3751 6.82329 67.4347 5.3095C67.4804 4.14914 67.3677 3.47442 67.0065 2.74685C66.5688 1.86528 65.6304 1.18655 64.4693 0.911697C63.7086 0.731658 57.5646 0.661961 57.4237 0.8318ZM76.1744 2.94536C77.214 3.24648 77.9251 3.97088 78.4393 5.25286C78.7073 5.92117 78.8286 7.81822 78.6528 8.5937C78.2428 10.4023 77.5715 11.3001 76.3078 11.7299C75.8028 11.9017 74.7194 11.9025 74.2104 11.7315C72.6631 11.2118 71.782 9.63313 71.782 7.38103C71.782 5.06672 72.6059 3.59543 74.2542 2.96645C74.7092 2.79283 75.6133 2.78286 76.1744 2.94536ZM63.7296 3.40975C64.2641 3.67564 64.5209 4.09428 64.5769 4.79087C64.6276 5.42324 64.4974 5.89366 64.1636 6.28364C63.7301 6.79007 63.4558 6.86023 61.7632 6.89763C60.3285 6.92931 60.2802 6.92537 60.1973 6.77044C60.072 6.53632 60.0976 3.52581 60.2267 3.32112C60.3193 3.17408 60.3966 3.16751 61.8225 3.18652C63.2658 3.20568 63.3359 3.21387 63.7296 3.40975ZM38.0329 3.35087C38.3881 3.50309 38.7498 3.86873 38.8784 4.2054C38.9199 4.31404 38.9572 4.61863 38.9614 4.88228C38.9742 5.69492 38.6627 6.15615 37.9252 6.41639C37.6833 6.5017 37.1702 6.52781 35.7342 6.52781C34.0956 6.52781 33.8531 6.51236 33.8122 6.40557C33.7863 6.33835 33.7653 5.64578 33.7653 4.86652C33.7653 4.08725 33.7863 3.39468 33.8122 3.32746C33.8532 3.22052 34.0993 3.20522 35.7761 3.20522C37.4825 3.20522 37.7306 3.22121 38.0329 3.35087ZM119.341 7.7785C119.319 7.83437 119.294 17.3726 119.283 28.9747L119.264 50.0693L98.1696 50.1079L77.0749 50.1466V50.417V50.6875L98.1978 50.7069L119.321 50.7264L119.621 50.4169L119.921 50.1075L119.902 28.9165L119.882 7.7255L119.631 7.70123C119.475 7.68624 119.364 7.71568 119.341 7.7785ZM78.6802 16.6695C78.4162 16.956 77.1158 19.0639 77.1595 19.1346C77.1817 19.1706 77.6242 19.2 78.1428 19.2H79.0856L80.3818 17.9021C81.0948 17.1883 81.6536 16.5798 81.6238 16.5499C81.5939 16.52 80.9554 16.4956 80.205 16.4956C78.8889 16.4956 78.8348 16.5018 78.6802 16.6695ZM77.5772 20.2485C77.131 20.3057 76.686 20.3887 76.5884 20.433C76.4908 20.4774 76.3479 20.5136 76.2709 20.5136C76.0564 20.5136 75.1117 21.0312 74.6796 21.3855C73.7802 22.1231 73.0913 23.1129 72.7589 24.1453C72.3863 25.3024 72.3611 25.4998 72.3694 27.1975C72.3766 28.6771 72.3947 28.8848 72.5738 29.5542C73.1842 31.8341 74.644 33.4001 76.6417 33.9178C77.3995 34.1142 78.5929 34.1929 79.469 34.1044C81.1097 33.9386 82.0659 33.5092 83.0702 32.4877C83.9087 31.6347 84.4016 30.7242 84.7211 29.4383C84.9142 28.6609 84.9321 28.463 84.931 27.1202C84.9299 25.7767 84.912 25.5832 84.7202 24.8407C84.5994 24.3732 84.3539 23.716 84.1409 23.2898C83.837 22.6817 83.6477 22.4248 83.0777 21.8461C82.0363 20.7886 81.3224 20.4646 79.5476 20.2439C78.4918 20.1127 78.6413 20.1123 77.5772 20.2485ZM63.7459 20.4448C62.2322 20.8464 61.3538 21.3761 60.5602 22.3661C60.1512 22.8763 59.6062 23.8901 59.4791 24.3771C59.157 25.6112 59.1097 25.9904 59.1097 27.3383C59.1097 28.6202 59.1336 28.8163 59.4357 30.0178C59.7662 31.3319 60.8345 32.724 62.0283 33.3966C63.3383 34.1346 65.4462 34.3516 66.9888 33.9073C68.8207 33.3796 70.2954 31.7364 70.7102 29.7604C70.79 29.3806 70.7875 29.2988 70.6945 29.24C70.6339 29.2016 70.02 29.1697 69.3304 29.169C68.1143 29.1678 68.0732 29.1731 67.9641 29.3417C67.9022 29.4373 67.8271 29.6155 67.797 29.7376C67.7669 29.8597 67.6613 30.1031 67.5623 30.2784C67.0432 31.1973 66.2624 31.6405 65.1624 31.6405C63.7195 31.6405 62.5614 30.6109 62.1576 28.9693C61.9576 28.1559 61.9272 26.9378 62.0849 26.052C62.1619 25.6195 62.2541 25.2327 62.29 25.1923C62.3258 25.152 62.3551 25.0625 62.3551 24.9936C62.3551 24.7683 62.8073 24.0268 63.184 23.6342C63.7249 23.0707 64.1725 22.8773 65.015 22.8432C65.7366 22.814 66.1171 22.886 66.6573 23.1539C67.1123 23.3795 67.3284 23.6324 67.7053 24.3806L68.0344 25.0339L69.2321 25.056C69.8908 25.0682 70.5041 25.0598 70.5951 25.0374C70.8383 24.9774 70.8695 24.8049 70.7335 24.2735C70.4124 23.0189 69.5558 21.8458 68.4981 21.2122C68.1581 21.0084 67.7407 20.7978 67.5708 20.7441C67.4008 20.6905 67.1747 20.6176 67.0685 20.582C66.4377 20.3711 64.3487 20.2848 63.7459 20.4448ZM0.577911 20.5702C0.492915 20.5914 0.397797 20.6482 0.36658 20.6965C0.335363 20.7447 0.309323 23.6745 0.308627 27.2074C0.3077 32.5333 0.325471 33.6455 0.412709 33.7179C0.488974 33.7812 1.86229 33.7997 5.41592 33.7853L10.3139 33.7654V32.5677V31.37L6.79812 31.3314C4.86445 31.3101 3.23893 31.2646 3.18576 31.2302C3.11429 31.184 3.08918 30.7992 3.08918 29.7491C3.08918 28.9689 3.11027 28.2755 3.13608 28.2083C3.17773 28.0997 3.52459 28.0861 6.25005 28.0861C8.53252 28.0861 9.34084 28.0623 9.40984 27.9933C9.50743 27.8958 9.54622 26.0489 9.45566 25.8129C9.41401 25.7043 9.06715 25.6907 6.34169 25.6907C4.05922 25.6907 3.2509 25.667 3.1819 25.598C3.04992 25.466 3.05332 23.296 3.18576 23.1172C3.27339 22.9989 3.59313 22.985 6.64358 22.9672L10.0048 22.9476L10.0263 21.8377C10.0409 21.0852 10.0192 20.6934 9.95892 20.6207C9.88482 20.5315 9.10972 20.5151 5.30125 20.5226C2.78837 20.5275 0.662908 20.5489 0.577911 20.5702ZM12.5934 20.5673C12.5296 20.593 12.4533 20.6513 12.4237 20.6968C12.3253 20.8484 12.3472 33.5779 12.4462 33.697C12.52 33.7859 13.3035 33.804 17.0864 33.804H21.6378L21.6943 33.6302C21.7254 33.5346 21.7333 32.9869 21.7117 32.4132L21.6725 31.37L18.5045 31.3314L15.3364 31.2928L15.2978 25.9869C15.2765 23.0686 15.2303 20.652 15.1949 20.6166C15.1206 20.5421 12.7664 20.4974 12.5934 20.5673ZM28.5645 20.5694C28.4877 20.5884 28.3921 20.6902 28.352 20.7956C28.2479 21.0694 28.2547 33.4596 28.3591 33.6546C28.4332 33.7929 28.5324 33.804 29.6958 33.804C30.5703 33.804 30.9808 33.7758 31.0454 33.7113C31.1136 33.6431 31.1381 32.9714 31.1381 31.1697C31.1381 29.0079 31.1524 28.7153 31.2603 28.6739C31.5066 28.5794 34.1068 28.6256 34.6233 28.7337C35.2664 28.8683 35.4715 29.0033 35.6865 29.4337C35.8369 29.7352 35.8682 29.9787 35.9414 31.4236C36.0006 32.5908 36.0622 33.1712 36.153 33.4177L36.2812 33.7654L37.737 33.7865C38.7585 33.8012 39.2251 33.7807 39.3011 33.7176C39.4289 33.6115 39.3738 33.3709 39.1704 33.1472C38.9003 32.8501 38.8471 32.5332 38.7877 30.8678C38.723 29.0552 38.6635 28.7666 38.2449 28.2381C38.1153 28.0744 37.8801 27.8629 37.7224 27.768C37.5646 27.6732 37.4261 27.5892 37.4144 27.5814C37.3365 27.5293 37.5241 27.3114 37.715 27.2324C38.0991 27.0733 38.6767 26.3518 38.8981 25.7547C39.4202 24.3458 39.1482 22.8441 38.1825 21.8052C37.4377 21.004 36.7544 20.7227 35.2382 20.5931C34.3278 20.5153 28.8618 20.4959 28.5645 20.5694ZM41.3044 20.5823C41.2474 20.6745 41.2449 33.6391 41.3019 33.7314C41.3711 33.8434 43.8361 33.8246 43.9494 33.7113C44.02 33.6407 44.0421 32.0772 44.0421 27.1461C44.0421 20.826 44.0386 20.6717 43.8927 20.5936C43.7099 20.4958 41.3643 20.4854 41.3044 20.5823ZM46.5727 20.5971C46.4456 20.6711 46.4375 21.0677 46.4375 27.1931C46.4375 33.0646 46.4496 33.7149 46.5597 33.7571C46.627 33.7829 47.1964 33.804 47.8252 33.804C48.7072 33.804 48.9889 33.7795 49.0576 33.6965C49.1228 33.618 49.1448 32.4452 49.1393 29.3316C49.1352 26.99 49.155 25.0367 49.1832 24.991C49.2114 24.9454 49.469 25.3188 49.7555 25.8209C50.0421 26.323 50.456 27.0431 50.6751 27.421C50.8943 27.799 51.0737 28.12 51.0737 28.1343C51.0737 28.1486 51.1954 28.3506 51.3441 28.5831C51.4929 28.8156 51.6146 29.0205 51.6146 29.0384C51.6146 29.0563 51.9135 29.5883 52.2789 30.2205C52.6443 30.8527 53.0219 31.5091 53.1179 31.6791C53.7525 32.8021 54.1991 33.5525 54.3029 33.6705C54.411 33.7934 54.5623 33.8053 55.7813 33.7864L57.1393 33.7654L57.1591 27.2445C57.1735 22.491 57.1553 20.6952 57.0917 20.6186C56.9554 20.4544 54.7612 20.4688 54.5949 20.635C54.4875 20.7425 54.4735 21.2442 54.4735 24.9879C54.4735 27.3152 54.4497 29.2432 54.4207 29.2722C54.3916 29.3013 54.2765 29.142 54.1649 28.9181C54.0533 28.6942 53.4862 27.6838 52.9047 26.6726C52.3232 25.6616 51.7394 24.6401 51.6075 24.4029C51.4754 24.1657 51.27 23.8063 51.1509 23.6044C51.0319 23.4025 50.8299 23.0504 50.702 22.822C49.7503 21.1215 49.435 20.6259 49.2753 20.5793C48.9912 20.4963 46.7201 20.5112 46.5727 20.5971ZM87.062 20.5971C86.9349 20.6711 86.9268 21.0677 86.9268 27.1931C86.9268 33.0646 86.939 33.7149 87.0491 33.7571C87.287 33.8485 89.3636 33.809 89.4613 33.7113C89.5312 33.6414 89.554 32.5574 89.554 29.3069C89.554 25.8622 89.5739 24.9953 89.6526 24.9953C89.7068 24.9953 90.3558 26.0471 91.0948 27.3327C91.8338 28.6183 92.9748 30.6003 93.6304 31.7371L94.8224 33.804H96.1521C97.0833 33.804 97.5097 33.7762 97.5746 33.7113C97.709 33.5769 97.709 20.7407 97.5746 20.6064C97.5109 20.5427 97.1268 20.5136 96.3477 20.5136C95.3869 20.5136 95.1974 20.5332 95.1075 20.6414C95.0209 20.7459 94.9992 21.5336 94.9889 24.947C94.9807 27.7039 94.9496 29.1336 94.8977 29.1509C94.8543 29.1654 94.6315 28.8534 94.4025 28.4578C94.0105 27.7805 92.8462 25.7444 92.5109 25.1498C91.1804 22.79 90.037 20.8256 89.9139 20.6875C89.7647 20.5202 89.7103 20.5137 88.4781 20.516C87.7526 20.5173 87.1386 20.5525 87.062 20.5971ZM79.393 22.7051C80.1997 22.9209 80.8561 23.3928 81.3429 24.1068C81.9033 24.9286 82.2117 26.5523 82.0615 27.8905C81.9068 29.2695 81.5937 30.0443 80.8978 30.7701C79.6856 32.0342 77.4447 31.9771 76.2633 30.6521C75.6124 29.9221 75.3133 29.1371 75.1898 27.8349C75.0238 26.0838 75.4511 24.5075 76.3375 23.6016C77.165 22.7559 78.3182 22.4176 79.393 22.7051ZM35.2559 23.1087C35.6295 23.2359 36.0296 23.6152 36.175 23.98C36.2196 24.0921 36.256 24.4398 36.2559 24.7525C36.2555 25.2527 36.2288 25.3594 36.0332 25.6411C35.8923 25.844 35.6713 26.0279 35.4296 26.1437C35.0735 26.314 34.9323 26.3289 33.2978 26.3674C32.335 26.3901 31.4552 26.3855 31.3427 26.3572L31.1381 26.3059V24.6976C31.1381 23.8131 31.1613 23.0661 31.1896 23.0378C31.2179 23.0094 32.0636 22.9863 33.069 22.9863C34.5339 22.9863 34.968 23.0105 35.2559 23.1087Z" fill="white"/>
</svg>
