<svg width="133" height="41" viewBox="0 0 133 41" fill="none" xmlns="http://www.w3.org/2000/svg">
<path fill-rule="evenodd" clip-rule="evenodd" d="M48.6998 0.520896C46.8812 1.50946 46.753 4.36705 48.4757 5.52522C49.7908 6.4095 52.154 6.07998 52.7714 4.92608C52.8991 4.68778 53.0034 4.13145 53.0034 3.68976V2.88656H51.652C50.4508 2.88656 50.3005 2.93657 50.3005 3.33704C50.3005 3.71386 50.4508 3.78751 51.2179 3.78751C51.9693 3.78751 52.1222 3.85891 52.0626 4.18168C52.0225 4.39858 51.6175 4.75784 51.1625 4.98037C50.415 5.3457 50.2593 5.35291 49.5476 5.0556C48.6167 4.66661 48.2734 4.11388 48.2734 3.00369C48.2734 1.34616 50.3512 0.418863 51.5472 1.54257C51.9968 1.96489 52.059 1.97165 52.3428 1.62951C52.611 1.30652 52.57 1.18872 52.0263 0.720907C51.2972 0.0940717 49.6658 -0.00413188 48.6998 0.520896ZM56.3819 3.08635C56.3819 5.88965 56.4049 6.03988 56.8324 6.03988C57.2227 6.03988 57.2829 5.88965 57.2829 4.9137C57.2829 3.86499 57.3214 3.78751 57.8417 3.78751C58.2498 3.78751 58.6269 4.09091 59.2411 4.9137C59.8326 5.70608 60.2385 6.03988 60.6101 6.03988C61.1917 6.03988 61.1826 6.01061 60.1646 4.59499C59.531 3.71386 59.5308 3.71273 59.9833 3.29109C60.2837 3.01112 60.4362 2.58046 60.4362 2.01174C60.4362 0.745232 59.8567 0.329219 57.9422 0.221105L56.3819 0.132812V3.08635ZM64.04 2.10544C64.04 5.12835 64.6146 6.03988 66.5201 6.03988C67.2512 6.03988 67.5958 5.89731 68.1116 5.38152C68.7522 4.74094 68.77 4.66166 68.77 2.45343C68.77 0.33395 68.7403 0.183716 68.3195 0.183716C67.9012 0.183716 67.869 0.333949 67.869 2.28856C67.869 4.72337 67.5819 5.22565 66.2622 5.09839C65.2383 4.99974 64.9484 4.32763 64.9443 2.04192C64.9412 0.335075 64.9042 0.183716 64.4905 0.183716C64.0751 0.183716 64.04 0.333948 64.04 2.10544ZM72.599 3.08635C72.599 5.88965 72.622 6.03988 73.0495 6.03988C73.4398 6.03988 73.5 5.88965 73.5 4.9137V3.78751H74.5237C76.3278 3.78751 77.2824 2.13675 76.2298 0.836904C75.8753 0.399043 75.5465 0.299488 74.2027 0.223583L72.599 0.132812V3.08635ZM81.0605 0.622027C80.1587 1.21665 79.824 1.9025 79.8145 3.17599C79.8012 4.9833 80.8785 6.03988 82.7347 6.03988C84.6116 6.03988 85.6628 4.94275 85.6628 2.98387C85.6628 2.0631 85.5542 1.82412 84.7884 1.05809C84.0113 0.281244 83.7917 0.183942 82.8176 0.185293C82.1137 0.186194 81.4846 0.342733 81.0605 0.622027ZM59.3985 1.59145C59.8001 2.23202 59.299 2.76291 58.2172 2.84309L57.2829 2.91246V1.98561V1.05876L58.2172 1.12814C58.8059 1.17161 59.2429 1.34301 59.3985 1.59145ZM75.5271 1.53514C75.9373 2.3014 75.446 2.88656 74.393 2.88656C73.5013 2.88656 73.5 2.88521 73.5 1.98561C73.5 1.08602 73.5013 1.08466 74.393 1.08466C75.0555 1.08466 75.3483 1.20089 75.5271 1.53514ZM84.1787 1.77772C85.3995 3.22847 84.5492 5.11596 82.6683 5.13173C81.4718 5.14186 80.7076 4.35443 80.7076 3.1118C80.7076 1.85723 81.4686 1.08466 82.7045 1.08466C83.423 1.08466 83.7084 1.21891 84.1787 1.77772ZM26.8123 18.259C25.4951 21.2632 23.7599 25.2159 22.9558 27.0433L21.4943 30.3655H23.3989H25.3035L25.8112 29.2956L26.3188 28.2258L29.7623 28.1636L33.2059 28.1012L33.701 29.2281L34.1961 30.3549L36.1403 30.3601L38.0848 30.3655L34.24 21.5813C30.5765 13.2112 30.367 12.797 29.801 12.797C29.2413 12.797 29.0688 13.1123 26.8123 18.259ZM123.095 13.4164C122.97 13.757 121.248 17.7101 119.268 22.2007L115.668 30.3655L117.615 30.3601L119.561 30.3549L120.056 29.2281L120.551 28.1012L123.995 28.1636L127.438 28.2258L127.946 29.2956L128.454 30.3655H130.356H132.258L130.509 26.3675C124.03 11.5557 124.63 12.797 123.946 12.797C123.47 12.797 123.268 12.9441 123.095 13.4164ZM47.3724 14.8241V16.626H66.5176H85.6628V14.8241V13.0222H66.5176H47.3724V14.8241ZM3.67641 21.8065V30.3655H9.19472H14.713V28.7889V27.2122H10.9966H7.28021V20.2298V13.2475H5.47831H3.67641V21.8065ZM97.8256 21.8065V30.3655H103.344H108.862V28.7889V27.2122H105.146H101.429V20.2298V13.2475H99.6275H97.8256V21.8065ZM31.0049 22.6511L32.0189 25.1851H29.8021H27.5856L28.4958 22.8764C28.9962 21.6067 29.4582 20.3837 29.5224 20.1587C29.6972 19.5456 29.8961 19.8798 31.0049 22.6511ZM125.109 22.4822L126.153 25.1851H123.953H121.753L122.797 22.4881C123.371 21.0047 123.891 19.7884 123.953 19.7852C124.015 19.7821 124.535 20.9959 125.109 22.4822ZM73.8869 28.8452C72.5697 31.8494 70.8345 35.8021 70.0304 37.6294L68.5689 40.9517H70.4906H72.4125L72.8882 39.8255L73.3642 38.6993H76.8785H80.3929L80.8688 39.8255L81.3445 40.9517H83.2638H85.1833L83.4343 36.9537C76.9801 22.1982 77.5515 23.3832 76.8887 23.3832C76.3118 23.3832 76.162 23.6557 73.8869 28.8452ZM50.751 32.3926V40.9517H56.2693H61.7876V39.375V37.7983H58.0712H54.3548V30.816V23.8336H52.5529H50.751V32.3926ZM78.0349 33.0684L79.0789 35.7712H76.8695H74.6602L75.5704 33.4625C76.0708 32.1929 76.5312 30.9766 76.5932 30.7597C76.6551 30.5428 76.77 30.3655 76.8486 30.3655C76.927 30.3657 77.4608 31.582 78.0349 33.0684ZM0.297852 39.2624V40.9517H19.443H38.5882V39.2624V37.5731H19.443H0.297852V39.2624ZM94.447 39.2624V40.9517H113.592H132.737V39.2624V37.5731H113.592H94.447V39.2624Z" fill="white"/>
</svg>
