<svg width="1548" height="652" viewBox="0 0 1548 652" fill="none" xmlns="http://www.w3.org/2000/svg">
<path fill-rule="evenodd" clip-rule="evenodd" d="M956.985 0.911978C935.868 3.60098 921.698 10.885 908.605 25.779C894.034 42.355 886.938 66.894 888.359 95.792C888.725 103.238 889.714 112.255 890.557 115.83C891.4 119.405 892.498 124.215 892.996 126.52C894.412 133.066 901.673 146.659 907.725 154.092C922.25 171.929 939.138 179.525 966.485 180.521C996.748 181.622 1016.26 173.775 1032.64 153.917C1046.18 137.512 1053.04 112.124 1051.59 83.83C1051.24 76.955 1050.26 68.405 1049.42 64.83C1048.58 61.255 1047.64 56.98 1047.33 55.33C1046.21 49.33 1037.88 33.421 1032.23 26.506C1019.97 11.489 1004.6 3.64698 982.011 0.870977C972.464 -0.302023 966.435 -0.292022 956.985 0.911978ZM276.453 1.77698C272.035 2.18898 267.452 3.04498 266.269 3.67798C265.085 4.31198 263.033 4.82998 261.708 4.82998C260.383 4.82998 254.737 7.19298 249.16 10.08C227.299 21.398 214.022 39.776 207.502 67.741C205.076 78.147 205.076 106.513 207.502 116.919C209.974 127.52 211.411 131.649 215.674 140.385C220.891 151.079 234.867 165.777 244.894 171.116C265.378 182.021 290.044 183.766 311.295 175.815C316.957 173.697 329.196 164.881 331.956 160.934C332.765 159.777 333.981 158.83 334.659 158.83C336.136 158.83 337.972 164.94 337.979 169.88C337.988 175.391 339.036 175.83 352.185 175.83H363.985V130.437C363.985 89.967 363.813 84.978 362.403 84.437C361.533 84.103 345.873 83.83 327.603 83.83C303.1 83.83 294.07 84.145 293.185 85.03C292.379 85.836 291.985 90.363 291.985 98.83C291.985 107.297 292.379 111.824 293.185 112.63C294.028 113.473 299.674 113.83 312.185 113.83H329.985V116.352C329.985 120.056 324.825 130.803 320.897 135.281C313.159 144.102 302.113 148.83 289.245 148.83C279.041 148.83 272.761 146.966 263.925 141.313C249.673 132.195 242.987 116.554 242.987 92.33C242.987 60.99 255.245 40.116 277.641 33.321C290.935 29.288 307.832 33.208 317.451 42.557C321.501 46.493 325.985 53.945 325.985 56.74C325.985 57.301 326.855 58.225 327.919 58.795C330.31 60.074 359.922 60.156 361.925 58.888C365.022 56.929 359.827 40.27 353.052 30.43C345.673 19.714 335.22 11.836 320.485 5.88698C311.671 2.32898 291.115 0.409983 276.453 1.77698ZM398.652 5.49698C398.285 5.86298 397.985 44.338 397.985 90.997V175.83H415.485C432.958 175.83 432.985 175.827 433.013 173.58C433.029 172.342 433.017 158.27 432.986 142.308C432.944 119.822 433.228 112.88 434.248 111.486C435.462 109.825 437.266 109.717 457.524 110.082C481.488 110.515 485.18 111.179 489.908 115.907C494.23 120.228 495.033 124.063 496.069 145.33C496.579 155.78 497.566 166.805 498.263 169.83L499.53 175.33L519.758 175.601L539.985 175.871V173.284C539.985 171.861 538.922 169.264 537.623 167.513C534.12 162.794 533.867 161.2 532.989 138.33C532.022 113.147 531.151 109.866 523.374 102.088C520.482 99.196 517.411 96.83 516.55 96.83C513.804 96.83 514.869 93.798 518.235 92.033C525.231 88.367 531.623 79.734 536.053 67.971C537.724 63.533 537.682 45.464 535.988 40.33C533.29 32.152 529.327 25.576 523.774 20.065C514.915 11.274 507.424 7.96198 491.663 5.86898C483.145 4.73798 399.744 4.40398 398.652 5.49698ZM567.674 5.47397C566.507 6.64197 566.863 124.066 568.051 130.004C570.994 144.703 572.606 148.799 578.947 157.698C590.792 174.319 617.256 183.031 646.574 179.961C671.94 177.305 688.737 167.433 697.469 150.049C703.983 137.081 704.932 125.448 704.962 58.28C704.979 19.882 704.688 6.93297 703.785 6.02997C702.519 4.76397 671.673 4.24497 668.567 5.43697C667.15 5.98097 666.985 12.034 666.985 63.544C666.985 130.157 666.859 131.417 659.346 139.774C653.45 146.331 646.681 148.849 635.146 148.774C618.414 148.666 609.389 141.825 605.672 126.43C605.115 124.127 604.419 96.698 604.083 63.83L603.485 5.32998L585.924 5.05797C576.265 4.90797 568.053 5.09497 567.674 5.47397ZM739.165 6.11397C738.259 7.20397 738.035 27.69 738.229 91.439L738.485 175.33L756.235 175.603L773.985 175.876L774.021 173.603C774.041 172.353 774.063 159.574 774.069 145.206C774.077 126.293 774.416 118.622 775.296 117.419C776.355 115.972 779.578 115.701 800.166 115.334C832.37 114.76 841.542 112.58 853.617 102.632C863.808 94.236 867.953 83.654 868.724 64.063C869.316 49.046 867.857 40.314 863.182 30.898C857.518 19.489 845.373 10.705 830.347 7.14797C820.502 4.81797 740.989 3.91597 739.165 6.11397ZM981.831 33.467C995.285 37.364 1004.49 46.739 1011.14 63.33C1014.61 71.979 1016.18 96.53 1013.91 106.566C1008.6 129.973 999.911 141.591 983.557 147.154C977.022 149.377 963 149.387 956.413 147.175C936.389 140.449 924.985 120.018 924.985 90.872C924.985 60.921 935.648 41.88 956.98 33.74C962.868 31.493 974.569 31.364 981.831 33.467ZM820.774 39.477C827.691 42.918 831.015 48.336 831.739 57.351C832.396 65.535 830.71 71.623 826.39 76.67C820.78 83.224 817.23 84.132 795.326 84.616C776.758 85.026 776.133 84.975 775.06 82.97C773.438 79.94 773.77 40.979 775.44 38.33C776.639 36.427 777.639 36.342 796.093 36.588C814.772 36.836 815.679 36.942 820.774 39.477ZM488.216 38.715C492.812 40.685 497.494 45.417 499.158 49.774C499.695 51.18 500.178 55.122 500.232 58.534C500.398 69.051 496.366 75.02 486.822 78.388C483.691 79.492 477.051 79.83 458.466 79.83C437.26 79.83 434.122 79.63 433.592 78.248C433.258 77.378 432.985 68.415 432.985 58.33C432.985 48.245 433.258 39.282 433.592 38.412C434.123 37.028 437.308 36.83 459.009 36.83C481.092 36.83 484.303 37.037 488.216 38.715ZM1540.47 96.016C1540.2 96.739 1539.87 220.18 1539.73 370.33L1539.49 643.33L1266.49 643.83L993.485 644.33V647.83V651.33L1266.85 651.582L1540.22 651.834L1544.1 647.829L1547.99 643.824L1547.74 369.577L1547.49 95.33L1544.23 95.016C1542.21 94.822 1540.78 95.203 1540.47 96.016ZM1014.26 211.08C1010.84 214.788 994.014 242.068 994.579 242.983C994.867 243.449 1000.59 243.83 1007.31 243.83H1019.51L1036.28 227.033C1045.51 217.795 1052.74 209.92 1052.36 209.533C1051.97 209.146 1043.71 208.83 1033.99 208.83C1016.96 208.83 1016.26 208.91 1014.26 211.08ZM999.985 257.399C994.21 258.139 988.451 259.213 987.188 259.787C985.925 260.361 984.076 260.83 983.08 260.83C980.303 260.83 968.078 267.528 962.485 272.114C950.845 281.659 941.93 294.469 937.628 307.83C932.806 322.805 932.48 325.359 932.588 347.33C932.681 366.479 932.915 369.167 935.233 377.83C943.132 407.336 962.025 427.603 987.878 434.302C997.685 436.844 1013.13 437.863 1024.47 436.717C1045.7 434.571 1058.08 429.015 1071.07 415.794C1081.93 404.755 1088.3 392.972 1092.44 376.33C1094.94 366.269 1095.17 363.708 1095.16 346.33C1095.14 328.943 1094.91 326.439 1092.43 316.83C1090.86 310.779 1087.69 302.274 1084.93 296.758C1081 288.889 1078.55 285.564 1071.17 278.074C1057.69 264.389 1048.45 260.195 1025.49 257.339C1011.82 255.641 1013.76 255.636 999.985 257.399ZM820.985 259.939C801.395 265.136 790.027 271.992 779.757 284.804C774.464 291.407 767.41 304.527 765.765 310.83C761.597 326.801 760.985 331.709 760.985 349.153C760.985 365.742 761.294 368.28 765.204 383.83C769.481 400.836 783.306 418.853 798.756 427.557C815.71 437.108 842.99 439.916 862.954 434.166C886.662 427.337 905.747 406.071 911.115 380.499C912.147 375.584 912.115 374.525 910.912 373.764C910.127 373.267 902.183 372.854 893.258 372.845C877.52 372.83 876.987 372.898 875.576 375.08C874.775 376.317 873.802 378.623 873.413 380.203C873.024 381.784 871.657 384.934 870.375 387.203C863.658 399.094 853.552 404.83 839.317 404.83C820.643 404.83 805.655 391.506 800.43 370.261C797.841 359.734 797.448 343.969 799.489 332.506C800.485 326.909 801.679 321.903 802.143 321.38C802.606 320.858 802.985 319.7 802.985 318.808C802.985 315.893 808.838 306.296 813.713 301.216C820.713 293.923 826.506 291.42 837.409 290.979C846.748 290.601 851.672 291.532 858.663 294.999C864.552 297.919 867.348 301.192 872.226 310.875L876.485 319.33L891.985 319.616C900.51 319.774 908.448 319.665 909.625 319.375C912.772 318.599 913.176 316.366 911.416 309.489C907.26 293.252 896.175 278.071 882.487 269.87C878.086 267.233 872.685 264.508 870.485 263.813C868.285 263.119 865.36 262.175 863.985 261.715C855.821 258.986 828.786 257.869 820.985 259.939ZM3.48542 261.562C2.38542 261.837 1.15444 262.572 0.750437 263.196C0.346437 263.82 0.00943677 301.737 0.000436767 347.458C-0.0115632 416.385 0.218422 430.778 1.34742 431.715C2.33442 432.535 20.1074 432.774 66.0974 432.588L129.485 432.33V416.83V401.33L83.9854 400.83C58.9604 400.555 37.9234 399.966 37.2354 399.521C36.3104 398.922 35.9854 393.942 35.9854 380.353C35.9854 370.255 36.2584 361.282 36.5924 360.412C37.1314 359.006 41.6204 358.83 76.8924 358.83C106.431 358.83 116.892 358.523 117.785 357.63C119.048 356.367 119.55 332.466 118.378 329.412C117.839 328.006 113.35 327.83 78.0784 327.83C48.5394 327.83 38.0784 327.523 37.1854 326.63C35.4774 324.922 35.5214 296.839 37.2354 294.524C38.3694 292.993 42.5074 292.813 81.9854 292.583L125.485 292.33L125.763 277.966C125.952 268.227 125.671 263.156 124.891 262.216C123.932 261.061 113.901 260.849 64.6134 260.946C32.0924 261.01 4.58542 261.287 3.48542 261.562ZM158.985 261.524C158.16 261.857 157.172 262.611 156.79 263.2C155.516 265.162 155.8 429.903 157.081 431.445C158.036 432.596 168.175 432.83 217.132 432.83H276.035L276.767 430.58C277.169 429.343 277.271 422.255 276.992 414.83L276.485 401.33L235.485 400.83L194.485 400.33L193.985 331.663C193.71 293.896 193.111 262.621 192.654 262.163C191.692 261.198 161.225 260.62 158.985 261.524ZM365.678 261.552C364.684 261.797 363.447 263.115 362.928 264.479C361.581 268.023 361.669 428.372 363.02 430.896C363.979 432.686 365.263 432.83 380.32 432.83C391.637 432.83 396.95 432.465 397.785 431.63C398.668 430.747 398.985 422.054 398.985 398.737C398.985 370.76 399.17 366.973 400.567 366.437C403.754 365.214 437.405 365.813 444.09 367.212C452.412 368.953 455.067 370.701 457.849 376.271C459.796 380.172 460.2 383.324 461.148 402.023C461.914 417.129 462.711 424.64 463.887 427.83L465.546 432.33L484.386 432.603C497.606 432.794 503.644 432.528 504.628 431.711C506.282 430.339 505.569 427.225 502.937 424.33C499.441 420.485 498.752 416.383 497.984 394.83C497.147 371.372 496.376 367.637 490.959 360.798C489.282 358.679 486.238 355.942 484.197 354.714C482.155 353.487 480.362 352.4 480.211 352.299C479.203 351.624 481.631 348.805 484.101 347.782C489.072 345.723 496.547 336.386 499.412 328.658C506.17 310.425 502.649 290.99 490.151 277.545C480.512 267.176 471.67 263.536 452.047 261.859C440.265 260.852 369.526 260.6 365.678 261.552ZM530.554 261.718C529.816 262.912 529.784 430.696 530.522 431.89C531.417 433.339 563.319 433.096 564.785 431.63C565.699 430.716 565.985 410.482 565.985 346.665C565.985 264.873 565.939 262.876 564.051 261.865C561.685 260.599 531.329 260.465 530.554 261.718ZM598.735 261.91C597.09 262.868 596.985 268.001 596.985 347.273C596.985 423.26 597.142 431.676 598.567 432.223C599.437 432.557 606.807 432.83 614.944 432.83C626.359 432.83 630.004 432.512 630.894 431.439C631.738 430.422 632.022 415.244 631.951 374.949C631.898 344.645 632.154 319.366 632.519 318.775C632.884 318.184 636.218 323.017 639.926 329.515C643.635 336.013 648.991 345.332 651.827 350.223C654.664 355.115 656.985 359.269 656.985 359.454C656.985 359.639 658.56 362.253 660.485 365.263C662.41 368.272 663.985 370.923 663.985 371.155C663.985 371.386 667.854 378.271 672.583 386.453C677.311 394.635 682.198 403.13 683.441 405.33C691.654 419.863 697.433 429.575 698.777 431.102C700.176 432.693 702.134 432.847 717.91 432.602L735.485 432.33L735.741 347.939C735.927 286.421 735.691 263.18 734.868 262.189C733.104 260.064 704.708 260.25 702.556 262.401C701.166 263.792 700.985 270.285 700.985 318.735C700.985 348.854 700.677 373.805 700.301 374.181C699.924 374.557 698.435 372.495 696.991 369.598C695.546 366.7 688.207 353.624 680.682 340.538C673.156 327.453 665.601 314.234 663.893 311.164C662.184 308.094 659.526 303.443 657.985 300.83C656.444 298.217 653.83 293.66 652.175 290.704C639.858 268.697 635.778 262.283 633.711 261.68C630.034 260.606 600.642 260.799 598.735 261.91ZM1122.74 261.91C1121.09 262.868 1120.99 268.001 1120.99 347.273C1120.99 423.26 1121.14 431.676 1122.57 432.223C1125.65 433.405 1152.52 432.894 1153.79 431.63C1154.69 430.725 1154.99 416.697 1154.99 374.63C1154.99 330.05 1155.24 318.83 1156.26 318.83C1156.96 318.83 1165.36 332.442 1174.93 349.08C1184.49 365.718 1199.26 391.368 1207.74 406.08L1223.17 432.83H1240.38C1252.43 432.83 1257.95 432.47 1258.79 431.63C1260.52 429.891 1260.52 263.769 1258.79 262.03C1257.96 261.206 1252.99 260.83 1242.91 260.83C1230.47 260.83 1228.02 261.083 1226.86 262.484C1225.74 263.836 1225.46 274.03 1225.32 318.205C1225.22 353.884 1224.81 372.387 1224.14 372.611C1223.58 372.798 1220.7 368.761 1217.73 363.641C1212.66 354.876 1197.59 328.525 1193.25 320.83C1176.03 290.29 1161.24 264.867 1159.64 263.08C1157.71 260.915 1157.01 260.831 1141.06 260.86C1131.67 260.878 1123.73 261.333 1122.74 261.91ZM1023.49 289.191C1033.93 291.984 1042.42 298.091 1048.72 307.331C1055.97 317.967 1059.96 338.981 1058.02 356.299C1056.02 374.146 1051.97 384.173 1042.96 393.566C1027.27 409.925 998.271 409.187 982.981 392.039C974.557 382.591 970.686 372.432 969.088 355.58C966.94 332.917 972.47 312.517 983.941 300.794C994.65 289.849 1009.58 285.47 1023.49 289.191ZM452.277 294.414C457.112 296.061 462.289 300.969 464.171 305.691C464.749 307.142 465.22 311.641 465.218 315.688C465.213 322.162 464.867 323.543 462.336 327.188C460.512 329.814 457.653 332.194 454.524 333.692C449.916 335.897 448.089 336.089 426.935 336.587C414.475 336.881 403.089 336.822 401.633 336.456L398.985 335.792V314.978C398.985 303.53 399.285 293.863 399.652 293.497C400.018 293.13 410.963 292.83 423.974 292.83C442.933 292.83 448.551 293.144 452.277 294.414Z" fill="white"/>
</svg>
