<svg width="62" height="61" viewBox="0 0 62 61" fill="none" xmlns="http://www.w3.org/2000/svg">
<path fill-rule="evenodd" clip-rule="evenodd" d="M15.7224 15.5124L0.694336 30.5424L15.7224 45.5724C23.9878 53.8389 30.829 60.6024 30.9249 60.6024C31.0205 60.6024 37.9064 53.8391 46.2265 45.5729L61.354 30.5432L46.2298 15.5129C37.9116 7.24619 31.0257 0.482422 30.9282 0.482422C30.8304 0.482422 23.9878 7.24591 15.7224 15.5124ZM45.4639 16.3256L59.7291 30.5443L45.4596 44.7608C37.6115 52.5799 31.0912 58.9775 30.9704 58.9775C30.8494 58.9775 24.3534 52.5796 16.5349 44.7599L2.3192 30.5424L16.5349 16.3248C24.3534 8.50518 30.8513 2.10728 30.9747 2.10728C31.098 2.10728 37.618 8.50545 45.4639 16.3256ZM21.1386 17.1186L11.2541 26.9826L21.078 36.9032L30.9016 46.8238L36.1627 41.7298L41.4237 36.6356L38.3944 33.589C35.8772 31.0575 35.2275 30.5424 34.5527 30.5424C33.782 30.5424 33.8965 30.6992 36.7855 33.5963L39.8308 36.6502L35.3291 40.9578L30.8277 45.265L21.801 36.0759L12.7744 26.8864L21.8988 17.9123L31.0232 8.93821L40.1409 17.98C47.7969 25.5725 49.3812 27.0219 50.0241 27.0219C50.6976 27.0219 49.6035 25.8354 40.9078 17.1373C35.4729 11.7007 31.0254 7.25323 31.0246 7.25377C31.0238 7.25431 26.5752 11.6934 21.1386 17.1186ZM19.27 42.1195C25.6953 48.4868 30.9932 53.6967 31.0427 53.6967C31.0923 53.6967 36.3598 48.4868 42.7482 42.1195C52.9299 31.9709 54.2688 30.5424 53.5977 30.5424C52.9524 30.5424 51.1171 32.2404 41.9277 41.3407L31.0232 52.1393L20.0554 41.3499C11.0109 32.4524 8.95595 30.5589 8.33769 30.5513C7.69316 30.5437 9.22784 32.1675 19.27 42.1195Z" fill="white"/>
</svg>
