<svg width="224" height="222" viewBox="0 0 224 222" fill="none" xmlns="http://www.w3.org/2000/svg">
<path fill-rule="evenodd" clip-rule="evenodd" d="M55.493 55.5L0 111L55.493 166.5C86.014 197.025 111.276 222 111.63 222C111.983 222 137.41 197.026 168.133 166.502L223.993 111.003L168.145 55.502C137.429 24.976 112.002 0 111.642 0C111.281 0 86.014 24.975 55.493 55.5ZM165.317 58.503L217.993 111.007L165.301 163.503C136.321 192.376 112.244 216 111.798 216C111.351 216 87.364 192.375 58.493 163.5L6 111L58.493 58.5C87.364 29.625 111.358 6 111.814 6C112.269 6 136.345 29.626 165.317 58.503ZM75.493 61.431L38.993 97.855L75.269 134.488L111.544 171.121L130.971 152.311L150.398 133.5L139.212 122.25C129.917 112.902 127.518 111 125.026 111C122.18 111 122.603 111.579 133.271 122.277L144.516 133.554L127.893 149.46L111.271 165.365L77.939 131.433L44.607 97.5L78.3 64.362L111.993 31.224L145.661 64.612C173.932 92.648 179.782 98 182.156 98C184.643 98 180.603 93.619 148.493 61.5C128.424 41.425 112.001 25.002 111.998 25.004C111.995 25.006 95.568 41.398 75.493 61.431ZM68.593 153.75C92.319 177.262 111.882 196.5 112.065 196.5C112.248 196.5 131.699 177.262 155.289 153.75C192.886 116.275 197.83 111 195.352 111C192.969 111 186.192 117.27 152.259 150.874L111.993 190.749L71.493 150.908C38.095 118.053 30.507 111.061 28.224 111.033C25.844 111.005 31.511 117.001 68.593 153.75Z" fill="white"/>
</svg>
