<svg width="555" height="105" viewBox="0 0 555 105" fill="none" xmlns="http://www.w3.org/2000/svg">
<path fill-rule="evenodd" clip-rule="evenodd" d="M15 7.5V15H22.5H30V7.5V0H22.5H15V7.5ZM90 15V30H75H60V37.5V45H52.5H45V67.5V90H52.5H60V97.5V105H82.5H105V52.5V0H97.5H90V15ZM270 7.5V15H277.5H285V60V105H292.5H300V52.5V0H285H270V7.5ZM330 7.5V15H337.5H345V7.5V0H337.5H330V7.5ZM450 15V30H442.5H435V37.5V45H442.5H450V67.5V90H457.5H465V97.5V105H472.5H480V97.5V90H472.5H465V67.5V45H472.5H480V37.5V30H472.5H465V15V0H457.5H450V15ZM0 37.5V45H7.5H15V75V105H22.5H30V67.5V30H15H0V37.5ZM135 37.5V45H127.5H120V67.5V90H127.5H135V97.5V105H150H165V97.5V90H150H135V82.5V75H157.5H180V60V45H172.5H165V37.5V30H150H135V37.5ZM210 37.5V45H225H240V52.5V60H225H210V67.5V75H202.5H195V82.5V90H202.5H210V97.5V105H232.5H255V75V45H247.5H240V37.5V30H225H210V37.5ZM315 37.5V45H322.5H330V75V105H337.5H345V67.5V30H330H315V37.5ZM375 37.5V45H367.5H360V52.5V60H367.5H375V67.5V75H390H405V82.5V90H382.5H360V97.5V105H382.5H405V97.5V90H412.5H420V82.5V75H412.5H405V67.5V60H390H375V52.5V45H397.5H420V37.5V30H397.5H375V37.5ZM510 37.5V45H525H540V52.5V60H525H510V67.5V75H502.5H495V82.5V90H502.5H510V97.5V105H532.5H555V75V45H547.5H540V37.5V30H525H510V37.5ZM90 67.5V90H75H60V67.5V45H75H90V67.5ZM165 52.5V60H150H135V52.5V45H150H165V52.5ZM240 82.5V90H225H210V82.5V75H225H240V82.5ZM540 82.5V90H525H510V82.5V75H525H540V82.5Z" fill="white"/>
</svg>
