<svg width="130" height="25" viewBox="0 0 130 25" fill="none" xmlns="http://www.w3.org/2000/svg">
<path fill-rule="evenodd" clip-rule="evenodd" d="M4.09731 2.40803V4.09731H5.78659H7.47587V2.40803V0.71875H5.78659H4.09731V2.40803ZM20.9901 4.09731V7.47587H17.6115H14.233V9.16515V10.8544H12.5437H10.8544V15.9223V20.9901H12.5437H14.233V22.6794V24.3687H19.3008H24.3687V12.5437V0.71875H22.6794H20.9901V4.09731ZM61.5328 2.40803V4.09731H63.2221H64.9114V14.233V24.3687H66.6007H68.2899V12.5437V0.71875H64.9114H61.5328V2.40803ZM75.0471 2.40803V4.09731H76.7363H78.4256V2.40803V0.71875H76.7363H75.0471V2.40803ZM102.076 4.09731V7.47587H100.386H98.697V9.16515V10.8544H100.386H102.076V15.9223V20.9901H103.765H105.454V22.6794V24.3687H107.143H108.833V22.6794V20.9901H107.143H105.454V15.9223V10.8544H107.143H108.833V9.16515V7.47587H107.143H105.454V4.09731V0.71875H103.765H102.076V4.09731ZM0.71875 9.16515V10.8544H2.40803H4.09731V17.6115V24.3687H5.78659H7.47587V15.9223V7.47587H4.09731H0.71875V9.16515ZM31.1258 9.16515V10.8544H29.4365H27.7472V15.9223V20.9901H29.4365H31.1258V22.6794V24.3687H34.5043H37.8829V22.6794V20.9901H34.5043H31.1258V19.3008V17.6115H36.1936H41.2615V14.233V10.8544H39.5722H37.8829V9.16515V7.47587H34.5043H31.1258V9.16515ZM48.0186 9.16515V10.8544H51.3971H54.7757V12.5437V14.233H51.3971H48.0186V15.9223V17.6115H46.3293H44.64V19.3008V20.9901H46.3293H48.0186V22.6794V24.3687H53.0864H58.1543V17.6115V10.8544H56.465H54.7757V9.16515V7.47587H51.3971H48.0186V9.16515ZM71.6685 9.16515V10.8544H73.3578H75.0471V17.6115V24.3687H76.7363H78.4256V15.9223V7.47587H75.0471H71.6685V9.16515ZM85.1827 9.16515V10.8544H83.4935H81.8042V12.5437V14.233H83.4935H85.1827V15.9223V17.6115H88.5613H91.9398V19.3008V20.9901H86.872H81.8042V22.6794V24.3687H86.872H91.9398V22.6794V20.9901H93.6291H95.3184V19.3008V17.6115H93.6291H91.9398V15.9223V14.233H88.5613H85.1827V12.5437V10.8544H90.2506H95.3184V9.16515V7.47587H90.2506H85.1827V9.16515ZM115.59 9.16515V10.8544H118.968H122.347V12.5437V14.233H118.968H115.59V15.9223V17.6115H113.9H112.211V19.3008V20.9901H113.9H115.59V22.6794V24.3687H120.658H125.725V17.6115V10.8544H124.036H122.347V9.16515V7.47587H118.968H115.59V9.16515ZM20.9901 15.9223V20.9901H17.6115H14.233V15.9223V10.8544H17.6115H20.9901V15.9223ZM37.8829 12.5437V14.233H34.5043H31.1258V12.5437V10.8544H34.5043H37.8829V12.5437ZM54.7757 19.3008V20.9901H51.3971H48.0186V19.3008V17.6115H51.3971H54.7757V19.3008ZM122.347 19.3008V20.9901H118.968H115.59V19.3008V17.6115H118.968H122.347V19.3008Z" fill="white"/>
</svg>
