<svg width="569" height="71" viewBox="0 0 569 71" fill="none" xmlns="http://www.w3.org/2000/svg">
<g clip-path="url(#clip0_1307_32)">
<path d="M0.0812568 4.41567C0.609727 4.61248 1.07722 4.73865 1.50914 4.94556C3.96856 6.11131 6.52453 7.04492 9.10082 7.90284C11.4434 8.68506 13.8367 9.33102 16.2352 9.93156C18.156 10.416 20.1123 10.7895 22.0687 11.1276C23.5423 11.3799 25.0413 11.4859 26.5251 11.6827C28.8168 11.9906 31.1238 12.0864 33.4308 12.1924C34.8485 12.258 36.2612 12.3741 37.684 12.364C37.9279 12.364 38.1819 12.3993 38.4157 12.3489C39.7013 12.0662 41.0072 12.2126 42.2979 12.1268C43.5073 12.0461 44.7116 11.8896 45.921 11.7483C46.7239 11.6575 47.5267 11.5364 48.3296 11.4253C51.1091 11.0418 53.8379 10.4413 56.4701 9.46223C57.9538 8.91215 59.4173 8.31666 60.8757 7.69593C63.9754 6.37878 67.0446 4.99602 70.1544 3.70915C73.4573 2.34153 76.867 1.2969 80.3783 0.590379C83.1731 0.0251648 86.0085 -0.0858595 88.8541 0.0503976C89.5808 0.0857235 90.3074 0.206841 91.0188 0.348144C93.2953 0.812428 95.4854 1.52904 97.6044 2.48284C98.5648 2.91684 99.5404 3.32561 100.48 3.79494C102.696 4.90518 104.79 6.21729 106.72 7.77668C106.878 7.90284 107.061 7.99872 107.218 8.12489C107.793 8.58412 108.286 9.09887 108.667 9.73979C109.47 11.0973 110.267 12.4548 110.979 13.8578C112.656 17.1481 113.951 20.5697 114.841 24.1477C114.897 24.3698 114.841 24.6473 115.217 24.7482C115.359 24.3698 115.288 23.9761 115.288 23.5926C115.288 19.0305 115.288 14.4684 115.293 9.90632C115.293 9.47232 115.222 9.02318 115.435 8.53871C115.664 8.50338 115.892 8.43777 116.126 8.43777C120.232 8.43273 124.338 8.43273 128.444 8.43777C128.642 8.43777 128.84 8.48319 129.094 8.51852C129.15 8.75571 129.236 8.97776 129.252 9.20485C129.277 9.5682 129.262 9.93156 129.262 10.2949C129.262 16.4315 129.262 22.5681 129.262 28.7047C129.262 29.1438 129.262 29.5879 129.262 29.9967C129.567 30.1834 129.678 29.9664 129.795 29.8352C130.7 28.8511 131.599 27.862 132.489 26.8678C133.49 25.7525 134.47 24.6271 135.471 23.5118C137.387 21.3721 139.303 19.2324 141.224 17.0977C142.143 16.0732 143.083 15.0689 144.003 14.0445C145.167 12.7526 146.315 11.4455 147.489 10.1586C148.007 9.59344 148.571 9.07364 149.115 8.52861C149.842 8.49329 150.568 8.42768 151.295 8.42768C155.401 8.41759 159.507 8.42264 163.612 8.42768C164.049 8.42768 164.502 8.35198 164.928 8.51347C165.025 8.9172 164.746 9.12915 164.542 9.36129C163.902 10.093 163.252 10.8097 162.596 11.5313C161.559 12.6668 160.513 13.7922 159.481 14.9327C158.45 16.0732 157.438 17.2289 156.412 18.3744C155.604 19.2778 154.791 20.1811 153.973 21.0794C152.936 22.2149 151.889 23.3403 150.858 24.4808C149.359 26.126 147.87 27.7762 146.381 29.4314C146.142 29.6989 145.944 30.0068 145.685 30.355C147.372 32.9741 149.191 35.4924 150.909 38.0762C152.611 40.6348 154.339 43.1783 156.061 45.7217C157.804 48.3005 159.557 50.8743 161.3 53.4531C163.018 55.9915 164.73 58.54 166.458 61.1036C166.077 61.4165 165.706 61.3105 165.365 61.3105C161.26 61.3206 157.154 61.3156 153.048 61.3156C152.357 61.3156 151.666 61.3156 150.975 61.3156C149.603 61.3156 149.826 61.3105 149.201 60.3971C147.423 57.7931 145.649 55.184 143.886 52.5699C141.645 49.2543 139.409 45.9286 137.169 42.6131C136.828 42.1134 136.472 41.6239 136.142 41.1596C135.827 41.0739 135.761 41.3211 135.634 41.4523C133.688 43.5669 131.762 45.6965 129.795 47.7959C129.363 48.2551 129.252 48.7345 129.257 49.33C129.272 52.8021 129.262 56.2741 129.262 59.7461C129.262 60.1852 129.262 60.6293 129.262 60.9522C128.987 61.3459 128.688 61.3105 128.408 61.3105C127.107 61.3156 125.806 61.3105 124.506 61.3105C121.904 61.3105 119.302 61.3105 116.7 61.3105C116.299 61.3105 115.903 61.2853 115.557 61.2702C115.181 60.8614 115.298 60.4425 115.298 60.054C115.288 57.0664 115.293 54.0788 115.293 51.0913C115.293 50.6926 115.293 50.2939 115.293 49.8902C114.942 49.8751 114.917 50.087 114.866 50.2737C114.272 52.4589 113.514 54.5885 112.437 56.592C111.573 58.1968 110.532 59.6654 109.368 61.0835C107.854 62.9355 105.989 64.3435 103.971 65.5446C101.771 66.8567 99.4032 67.8408 96.9235 68.512C95.4397 68.9157 93.9457 69.2992 92.4365 69.602C91.0493 69.8796 89.6367 70.0411 88.2342 70.243C87.1925 70.3944 86.1508 70.5205 85.104 70.6618C85.0634 70.6669 85.0227 70.677 84.9821 70.677C83.6456 70.7678 82.3143 70.9192 80.9779 70.9444C78.6201 70.9898 76.2623 70.9697 73.9045 70.9646C72.934 70.9646 71.9634 70.9646 70.9928 70.7728C70.1646 70.6164 69.3058 70.6265 68.4572 70.5155C65.5963 70.142 62.7914 69.5263 60.0118 68.7643C55.5148 67.5279 51.3734 65.4941 47.3184 63.2585C45.3214 62.1584 43.426 60.9321 41.6221 59.5493C40.9412 59.0245 40.3568 58.4138 39.9046 57.6871C39.7978 57.5155 39.6962 57.3389 39.62 57.1522C39.4066 56.6425 39.6302 56.2388 40.1789 56.2135C40.7887 56.1883 41.4087 56.158 42.0032 56.2489C43.4057 56.4659 44.798 56.7384 46.1852 57.026C49.3611 57.6821 52.5269 58.3735 55.7028 59.0144C56.5717 59.191 57.466 59.2566 58.3502 59.3575C59.7578 59.514 61.1653 59.6805 62.578 59.7915C63.3859 59.8571 64.204 59.8168 65.0171 59.8319C66.9683 59.8723 68.8942 59.6351 70.8302 59.408C73.5488 59.0901 76.1658 58.3987 78.7217 57.46C81.2878 56.5113 83.666 55.2244 85.8815 53.6246C87.5584 52.4135 89.1488 51.0913 90.5869 49.6126C92.5636 47.5789 94.337 45.3786 95.5464 42.7745C95.9732 41.851 96.2883 40.9023 96.5322 39.9232C96.7253 39.141 96.9031 38.3538 97.0962 37.5715C97.3401 36.5925 97.6044 35.6185 98.0973 34.7253C98.1532 34.6294 98.1583 34.5083 98.2141 34.3064C97.8127 34.3569 97.645 34.6698 97.396 34.8212C97.1572 34.9675 96.9387 35.1542 96.7253 35.341C93.7425 37.9702 90.5412 40.3068 87.1264 42.3506C85.5613 43.2893 83.9861 44.2078 82.3702 45.0505C78.1424 47.2508 73.6809 48.8456 69.0212 49.8902C67.0446 50.3343 65.0475 50.6522 63.0353 50.9045C61.7395 51.066 60.4336 50.9802 59.1531 51.1569C57.527 51.384 55.9111 51.3032 54.2901 51.3184C53.7667 51.3184 53.2433 51.2275 52.72 51.1771C52.5167 51.1569 52.3185 51.1266 52.1153 51.1165C48.5735 50.95 45.1232 50.2788 41.7186 49.3098C38.5072 48.3964 35.4176 47.1701 32.4501 45.6561C29.8839 44.344 27.4347 42.8351 25.1328 41.0991C23.2882 39.7113 21.525 38.2326 19.8532 36.6329C18.6539 35.4873 17.5462 34.261 16.3775 33.0902C15.7575 32.4695 15.2341 31.7478 14.6548 31.0564C14.9851 30.8092 15.2341 31.0262 15.473 31.112C16.6925 31.5561 17.9019 32.0203 19.1214 32.4796C22.1246 33.605 25.2141 34.4629 28.3341 35.1896C30.387 35.669 32.4501 36.0727 34.5385 36.3604C36.1799 36.5875 37.8262 36.8247 39.4675 37.0417C39.7877 37.082 40.118 37.0518 40.4432 37.077C41.0072 37.1224 41.5713 37.1931 42.1353 37.2435C42.5418 37.2788 42.9433 37.3041 43.3498 37.3041C45.7889 37.3091 48.228 37.3142 50.6671 37.3041C51.4394 37.3041 52.2118 37.3495 52.9639 37.1174C53.0757 37.082 53.2078 37.082 53.3247 37.082C55.2353 37.0921 57.1154 36.7288 59.0057 36.537C60.4946 36.3856 61.9682 36.0778 63.4316 35.775C64.1837 35.6236 64.9103 35.3511 65.637 35.0987C67.0191 34.6193 68.4013 34.15 69.7631 33.6201C71.9583 32.7723 74.1383 31.8891 76.3182 31.006C77.3345 30.5972 78.3406 30.1632 79.3366 29.709C81.3387 28.7956 83.2239 27.7156 84.794 26.131C86.1457 24.7634 86.9791 23.1687 87.4364 21.3115C87.6905 20.277 87.1366 19.298 86.2982 18.8892C85.8307 18.6621 85.3124 18.4956 84.8042 18.4047C83.605 18.1978 82.421 18.1574 81.1862 18.329C79.5348 18.5612 77.9087 18.8589 76.2928 19.2525C73.2083 19.9994 70.2357 21.0844 67.2986 22.2653C64.138 23.5421 60.9671 24.7937 57.7099 25.7979C54.844 26.6811 51.9425 27.4482 48.9597 27.862C47.354 28.084 45.7533 28.3162 44.1476 28.5281C43.8274 28.5685 43.4971 28.5584 43.1719 28.5584C40.8548 28.5634 38.5376 28.5584 36.2205 28.5786C34.1473 28.5937 32.0944 28.4221 30.0415 28.1193C28.5577 27.9023 27.0587 27.8115 25.585 27.5592C22.6276 27.0545 19.6652 26.5751 16.8246 25.5607C13.852 24.501 11.0673 23.093 8.67906 21.0491C6.27046 18.9901 4.15658 16.6536 2.73377 13.7619C1.72256 11.7231 0.833311 9.60858 0.370899 7.33763C0.228619 6.67148 0.101583 5.99524 0.0101165 5.319C-0.0254536 5.05658 0.0507681 4.77902 0.0812568 4.41062V4.41567Z" fill="white"/>
<path d="M238.386 8.52872C238.747 8.49339 239.021 8.44293 239.301 8.44293C248.239 8.44293 257.182 8.42274 266.12 8.4833C269.444 8.50349 272.64 9.27561 275.674 10.6281C277.279 11.3397 278.758 12.2884 279.998 13.5248C282.137 15.6645 283.347 18.2383 283.433 21.3016C283.484 23.189 283.194 25.0007 282.401 26.7165C281.08 29.5628 278.87 31.4905 275.999 32.7118C275.668 32.8531 275.328 32.9742 275.003 33.1004C275.023 33.4385 275.272 33.4032 275.45 33.4587C277.726 34.1753 279.8 35.2401 281.477 36.9711C283.209 38.7626 284.327 40.8721 284.861 43.2995C285.247 45.0557 285.293 46.8422 285.069 48.5984C284.734 51.2125 283.641 53.539 281.817 55.497C280.186 57.2482 278.199 58.4745 275.994 59.3778C273.687 60.3215 271.293 60.8565 268.814 61.134C267.472 61.2854 266.141 61.3308 264.804 61.3308C256.476 61.3409 248.142 61.3308 239.814 61.3308C239.372 61.3308 238.93 61.3157 238.442 61.3056C238.376 61.023 238.299 60.7959 238.279 60.5688C238.254 60.2458 238.269 59.9228 238.269 59.5999C238.269 43.133 238.269 26.666 238.269 10.1991C238.269 9.67933 238.213 9.15449 238.386 8.52367V8.52872ZM252.507 39.6105C252.461 39.8577 252.401 40.0445 252.401 40.2362C252.395 43.461 252.395 46.6857 252.401 49.9105C252.401 50.0972 252.477 50.2839 252.528 50.5211C252.939 50.5463 253.295 50.5867 253.651 50.5867C256.613 50.5918 259.575 50.6069 262.538 50.5766C263.468 50.5665 264.403 50.4706 265.318 50.3243C266.156 50.188 266.979 49.9559 267.741 49.5572C269.215 48.7851 270.252 47.6496 270.592 45.9994C270.866 44.657 270.775 43.3348 269.881 42.2044C269.139 41.2708 268.219 40.5794 267.06 40.1858C265.856 39.7719 264.616 39.5701 263.366 39.5499C260.038 39.5045 256.71 39.5348 253.386 39.5398C253.112 39.5398 252.838 39.5852 252.512 39.6105H252.507ZM252.517 29.2549C252.771 29.2953 252.965 29.3458 253.163 29.3458C256.694 29.3458 260.226 29.3559 263.758 29.3155C264.393 29.3104 265.058 29.1843 265.663 28.9774C266.634 28.6544 267.487 28.1295 268.112 27.2716C269.124 25.8838 269.225 24.3446 268.849 22.7701C268.473 21.1905 267.33 20.2418 265.846 19.6917C264.845 19.3233 263.783 19.2375 262.736 19.2224C259.611 19.187 256.486 19.2072 253.361 19.2123C253.087 19.2123 252.817 19.2779 252.512 19.3183C252.472 19.5605 252.421 19.7523 252.411 19.944C252.309 22.2957 252.38 28.2254 252.528 29.2448L252.517 29.2549Z" fill="white"/>
<path d="M466.461 8.49338C466.893 8.47319 467.254 8.44291 467.615 8.44291C470.948 8.44291 474.282 8.44291 477.615 8.44291C477.697 8.44291 477.778 8.45301 477.859 8.44291C478.499 8.36217 478.936 8.66496 479.297 9.15952C479.795 9.84586 480.319 10.517 480.832 11.1933C485.766 17.7033 490.705 24.2084 495.639 30.7184C497.763 33.5193 499.887 36.3251 502.016 39.126C502.159 39.3127 502.255 39.56 502.631 39.565C502.646 39.1764 502.672 38.7879 502.672 38.3993C502.672 34.1198 502.672 29.8403 502.672 25.5608C502.672 20.3528 502.672 15.1447 502.672 9.9367C502.672 9.49764 502.621 9.05355 502.799 8.56403C503.033 8.52366 503.266 8.45301 503.495 8.45301C507.316 8.44796 511.138 8.44796 514.959 8.45301C515.193 8.45301 515.421 8.51861 515.675 8.55898C515.726 8.7558 515.792 8.90215 515.802 9.05859C515.823 9.42195 515.818 9.7853 515.818 10.1487C515.818 26.661 515.818 43.1733 515.818 59.6856C515.818 60.1651 515.797 60.6445 515.787 61.1744C515.497 61.24 515.269 61.3359 515.045 61.3359C511.427 61.346 507.809 61.3359 504.191 61.351C503.637 61.351 503.287 61.129 502.972 60.7101C499.989 56.7788 497.001 52.8577 494.008 48.9314C490.995 44.9749 487.976 41.0235 484.958 37.067C483.291 34.8818 481.619 32.6967 479.953 30.5065C479.882 30.4106 479.816 30.3147 479.775 30.2592C479.429 30.2693 479.5 30.4812 479.49 30.6124C479.47 30.9758 479.48 31.3391 479.48 31.7025C479.48 41.0285 479.48 50.3546 479.48 59.6806C479.48 60.16 479.465 60.6394 479.455 61.0432C479.043 61.4519 478.611 61.3258 478.22 61.3308C475.13 61.3409 472.041 61.3359 468.951 61.3359C468.382 61.3359 467.813 61.3409 467.244 61.3359C467.005 61.3359 466.766 61.2955 466.472 61.2703C466.416 61.0331 466.334 60.811 466.314 60.5839C466.289 60.261 466.304 59.938 466.304 59.615C466.304 43.143 466.304 26.6711 466.304 10.1991C466.304 9.68437 466.238 9.15448 466.441 8.49843L466.461 8.49338Z" fill="white"/>
<path d="M289.236 34.6649C289.287 30.4056 290.217 26.3532 292.183 22.5582C293.301 20.3983 294.719 18.4453 296.421 16.679C298.611 14.408 301.116 12.5761 303.926 11.1681C306.142 10.0629 308.479 9.2353 310.918 8.73064C313.027 8.29664 315.151 7.9888 317.311 7.9888C319.181 7.9888 321.046 7.96861 322.895 8.27645C325.304 8.67513 327.657 9.26558 329.938 10.1487C332.342 11.0823 334.562 12.3288 336.615 13.863C339.237 15.8211 341.412 18.1929 343.125 20.9837C344.796 23.6987 345.919 26.6207 346.499 29.7445C346.682 30.7286 346.885 31.7227 346.859 32.7422C346.849 33.0601 346.915 33.3831 346.946 33.706C346.976 34.024 347.037 34.347 347.027 34.6649C346.89 39.9638 345.696 44.9649 342.738 49.4513C340.172 53.3472 336.798 56.3651 332.652 58.5351C329.644 60.1096 326.452 61.124 323.083 61.5933C321.274 61.8456 319.46 62.0778 317.636 62.0122C312.285 61.8204 307.184 60.6648 302.519 57.9497C300.766 56.9303 299.109 55.7645 297.656 54.3313C296.299 52.994 294.963 51.6466 293.896 50.0569C291.746 46.8624 290.278 43.4055 289.678 39.5903C289.419 37.9552 289.195 36.3252 289.241 34.6598L289.236 34.6649ZM317.956 19.8583C317.412 19.9239 316.478 19.9895 315.563 20.156C312.9 20.6405 310.527 21.7659 308.576 23.6281C304.368 27.635 302.905 32.5504 304.013 38.1874C304.607 41.2254 306.076 43.8597 308.357 46.0146C311.823 49.2797 315.929 50.6423 320.644 49.855C324.328 49.2444 327.286 47.3469 329.496 44.3442C332.154 40.7359 332.977 36.6633 332.342 32.3081C331.864 29.0329 330.441 26.1665 328.007 23.8299C325.309 21.236 322.077 19.9643 317.956 19.8583Z" fill="white"/>
<path d="M425.495 46.8674C425.302 47.3418 425.373 47.791 425.373 48.225C425.368 52.1007 425.373 55.9765 425.368 59.8472C425.368 60.2812 425.439 60.7303 425.241 61.2148C425.058 61.2501 424.865 61.3258 424.677 61.3258C420.49 61.3309 416.303 61.3309 412.121 61.3258C411.963 61.3258 411.8 61.2854 411.582 61.2602C411.526 61.0432 411.435 60.8212 411.414 60.5991C411.384 60.2812 411.404 59.9532 411.404 59.6302C411.404 43.1229 411.404 26.6156 411.404 10.1033C411.404 9.62385 411.419 9.14443 411.429 8.61958C411.719 8.54893 411.943 8.46314 412.171 8.44295C412.497 8.41267 412.822 8.43286 413.147 8.43286C420.708 8.43286 428.264 8.43286 435.825 8.43286C436.273 8.43286 436.72 8.44295 437.167 8.44295C440.282 8.45305 443.3 9.01826 446.217 10.0932C447.98 10.7391 449.662 11.5668 451.131 12.7275C453.524 14.6199 455.374 16.9313 456.395 19.8482C457.162 22.0434 457.549 24.2841 457.579 26.6055C457.605 28.4677 457.462 30.3097 457.066 32.1315C456.197 36.1233 454.291 39.5146 451.085 42.1287C450.491 42.6132 449.815 43.0018 449.185 43.4358C448.89 43.6376 448.6 43.8496 448.26 44.0918C448.753 45.1617 449.434 46.06 450.018 47.0087C450.587 47.9373 451.192 48.8507 451.781 49.7692C452.391 50.723 453.006 51.6718 453.621 52.6256C454.236 53.5794 454.845 54.5281 455.46 55.4769C456.05 56.3953 456.649 57.3088 457.229 58.2323C457.823 59.181 458.519 60.0743 458.987 61.134C458.834 61.2047 458.738 61.2854 458.631 61.2955C457.808 61.3813 444.103 61.3208 443.346 61.2299C442.574 60.1348 442.076 58.848 441.39 57.662C440.704 56.471 440.114 55.2296 439.474 54.0134C438.854 52.8325 438.219 51.6617 437.589 50.4858C436.938 49.2797 436.293 48.0736 435.658 46.8977C434.911 46.6605 434.215 46.7867 433.534 46.7665C432.883 46.7463 432.233 46.7665 431.582 46.7665C430.891 46.7665 430.2 46.7665 429.509 46.7665C428.859 46.7665 428.208 46.7514 427.558 46.7665C426.877 46.7867 426.191 46.6807 425.505 46.8573L425.495 46.8674ZM425.48 35.5278C425.779 35.5531 426.054 35.5985 426.328 35.5985C429.494 35.5985 432.66 35.6187 435.825 35.5934C437.086 35.5833 438.32 35.3562 439.515 34.9222C441.776 34.0946 443.199 32.515 443.859 30.2239C444.245 28.8815 444.24 27.5038 444.113 26.1463C443.885 23.7138 442.787 21.8012 440.536 20.6102C438.945 19.7725 437.228 19.5 435.485 19.4596C432.36 19.3889 429.235 19.4344 426.11 19.4444C425.886 19.4444 425.663 19.5403 425.383 19.6059C425.383 24.7736 425.383 29.8908 425.383 35.003C425.383 35.1544 425.439 35.3058 425.485 35.5177L425.48 35.5278Z" fill="white"/>
<path d="M540.153 19.6059C540.107 19.8078 540.046 19.9592 540.046 20.1156C540.041 23.0981 540.046 26.0857 540.046 29.1237C540.315 29.1893 540.539 29.2701 540.762 29.2902C541.088 29.3155 541.413 29.3003 541.738 29.3003C549.096 29.3003 556.454 29.3003 563.807 29.3003C564.284 29.3003 564.772 29.2347 565.311 29.4315C565.489 30.3147 565.377 31.1978 565.397 32.0709C565.418 32.9591 565.397 33.8473 565.397 34.7355C565.397 35.6237 565.397 36.5119 565.397 37.4001C565.397 38.2832 565.382 39.1663 565.377 39.9687C565.006 40.3624 564.62 40.2665 564.269 40.2715C562.358 40.2867 560.448 40.2715 558.537 40.2917C552.77 40.3422 547.002 40.3977 541.235 40.4583C540.879 40.4583 540.503 40.3775 540.158 40.6298C540.127 40.7257 540.056 40.8368 540.056 40.9478C540.046 43.8142 540.046 46.6807 540.046 49.5471C540.046 49.6985 540.097 49.855 540.137 50.072C540.391 50.1073 540.62 50.1577 540.854 50.1678C541.22 50.183 541.586 50.1729 541.951 50.1729C550.407 50.1729 558.857 50.1729 567.313 50.1729C568.99 50.1729 569.015 50.1174 569.01 51.8231C569 54.5281 569.01 57.233 569.005 59.938C569.005 60.3366 568.975 60.7303 568.959 61.1845C568.675 61.245 568.451 61.3157 568.222 61.3308C567.938 61.3561 567.653 61.3409 567.369 61.3409C554.157 61.3409 540.95 61.3409 527.739 61.3409C527.256 61.3409 526.773 61.3258 526.245 61.3207C526.179 61.0381 526.092 60.8161 526.077 60.589C526.052 60.266 526.067 59.943 526.067 59.62C526.067 43.1531 526.067 26.6812 526.067 10.2143C526.067 9.69446 525.996 9.16962 526.179 8.59431C526.402 8.54889 526.626 8.47824 526.854 8.45805C527.139 8.43282 527.424 8.44796 527.708 8.44796C540.676 8.44796 553.639 8.44796 566.607 8.44796C567.089 8.44796 567.582 8.36722 568.106 8.57917C568.151 8.78103 568.248 9.01317 568.253 9.24027C568.263 12.3893 568.263 15.5384 568.253 18.6874C568.253 18.8792 568.197 19.076 568.156 19.3233C567.892 19.3687 567.664 19.4293 567.43 19.4394C567.105 19.4595 566.779 19.4444 566.454 19.4444C558.202 19.4444 549.955 19.4444 541.702 19.4444C541.22 19.4444 540.727 19.3586 540.153 19.6008V19.6059Z" fill="white"/>
<path d="M352.947 8.58912C354.07 8.39231 362.18 8.31156 365.976 8.44277C366.21 8.45287 366.443 8.50333 366.728 8.5437C366.769 8.82127 366.819 9.04836 366.835 9.2805C366.85 9.64385 366.84 10.0072 366.84 10.3706C366.84 19.8581 366.84 29.3406 366.84 38.8281C366.84 40.3723 367.038 41.8813 367.566 43.3397C368.649 46.3323 370.666 48.3863 373.715 49.4359C374.843 49.8245 376.007 50.0668 377.17 50.087C380.336 50.1374 383.192 49.3047 385.387 46.8622C386.098 46.0699 386.647 45.1817 387.044 44.2027C387.719 42.5373 388.019 40.8063 388.014 39.0047C388.004 29.3557 388.009 19.7117 388.014 10.0627C388.014 9.58834 387.953 9.09883 388.116 8.60931C388.538 8.35698 388.995 8.44277 389.427 8.44277C392.842 8.43773 396.256 8.43773 399.671 8.44277C400.357 8.44277 401.048 8.45791 401.78 8.46801C401.856 8.74052 401.948 8.95752 401.968 9.18462C401.998 9.50255 401.978 9.83058 401.978 10.1536C401.978 19.6815 401.978 29.2043 401.978 38.7322C401.978 39.4589 401.988 40.1856 401.953 40.9123C401.714 45.8024 400.255 50.2686 397.079 54.0687C394.783 56.8191 391.891 58.8024 388.517 60.0842C386.612 60.8058 384.66 61.3105 382.638 61.5931C380.666 61.8707 378.69 62.0978 376.698 62.012C372.658 61.8353 368.71 61.1742 365.016 59.4382C363.135 58.5551 361.413 57.4347 359.853 56.0469C356.326 52.913 354.243 49.007 353.333 44.4298C353.044 42.9612 352.861 41.4927 352.866 39.9938C352.866 29.8654 352.866 19.7319 352.866 9.60348C352.866 9.28555 352.912 8.97266 352.937 8.59417L352.947 8.58912Z" fill="white"/>
<path d="M196.52 8.574C197.562 8.38728 203.771 8.32168 209.442 8.44784C209.716 8.45289 209.991 8.5084 210.306 8.54372C210.357 8.77082 210.433 8.96259 210.443 9.15436C210.463 9.55808 210.453 9.96181 210.453 10.3655C210.453 22.8356 210.453 35.3056 210.453 47.7807C210.453 48.2601 210.468 48.7446 210.473 49.2694C210.753 49.335 210.977 49.4158 211.205 49.436C211.571 49.4612 211.937 49.4461 212.303 49.4461C218.644 49.4461 224.981 49.4461 231.323 49.4461C231.8 49.4461 232.293 49.3805 232.822 49.5722C232.857 49.769 232.928 49.9558 232.928 50.1475C232.933 53.6599 232.928 57.1723 232.928 60.6797C232.928 60.8361 232.878 60.9926 232.842 61.2045C232.608 61.25 232.38 61.3156 232.151 61.3408C231.907 61.366 231.663 61.3509 231.419 61.3509C220.245 61.3509 209.066 61.3509 197.892 61.3509C197.45 61.3509 197.008 61.3357 196.52 61.3257C196.449 61.043 196.372 60.821 196.347 60.5939C196.317 60.3163 196.337 60.0287 196.337 59.7461C196.337 43.1984 196.337 26.6508 196.342 10.1031C196.342 9.59341 196.205 9.05343 196.52 8.58914V8.574Z" fill="white"/>
<path d="M186.006 61.2097C184.894 61.3813 176.748 61.4519 173.013 61.3308C172.779 61.3258 172.546 61.2753 172.256 61.24C172.22 60.9574 172.175 60.7252 172.159 60.4931C172.144 60.1701 172.154 59.8471 172.154 59.5241C172.154 43.0976 172.154 26.6761 172.154 10.2496C172.154 9.72977 172.164 9.20998 172.17 8.63972C172.449 8.56402 172.668 8.45299 172.891 8.44795C173.623 8.42271 174.355 8.43785 175.086 8.43785C178.257 8.43785 181.423 8.43785 184.594 8.43785C185.031 8.43785 185.473 8.46309 185.961 8.47823C186.022 8.77597 186.093 8.99802 186.113 9.22512C186.138 9.50772 186.123 9.79033 186.123 10.0729C186.123 26.6206 186.123 43.1632 186.123 59.7109C186.123 60.1903 186.189 60.6748 186.006 61.2046V61.2097Z" fill="white"/>
</g>
<defs>
<clipPath id="clip0_1307_32">
<rect width="569" height="71" fill="white"/>
</clipPath>
</defs>
</svg>
