<svg width="170" height="140" viewBox="0 0 170 140" fill="none" xmlns="http://www.w3.org/2000/svg">
<g clip-path="url(#clip0_1308_328)">
<path d="M66.5977 61.4467L38.1335 32.7933V17.0163C38.1335 16.0074 37.7425 15.0615 37.0237 14.3427L23.7816 1.10058C22.7096 0.0412146 21.0575 -0.299296 19.6576 0.280833C18.2451 0.873574 17.3245 2.23562 17.3245 3.77422V17.319H3.77972C2.24112 17.319 0.866464 18.2396 0.286335 19.6521C-0.293795 21.0646 0.0214932 22.6915 1.10608 23.7761L14.3482 37.0182C15.067 37.737 16.0129 38.128 17.0218 38.128H32.7736L60.8594 66.403C60.6198 67.1345 60.4937 67.8785 60.4937 68.61C60.4937 72.6205 63.7475 75.8742 67.7579 75.8742C71.7684 75.8742 75.0221 72.6205 75.0221 68.61C75.0221 64.2212 71.0873 60.7026 66.585 61.4467H66.5977ZM30.5666 18.5927V30.5737H18.5856L12.9105 24.8985H21.1079C23.1888 24.8985 24.8914 23.1959 24.8914 21.115V12.9176L30.5666 18.5927Z" fill="white"/>
<path d="M70.4442 17.1684H51.5899C47.9957 17.1684 44.5275 17.7611 41.2863 18.8457V26.9675C44.4392 25.5424 47.92 24.7353 51.5899 24.7353H70.4442C94.7087 24.7353 114.446 44.4723 114.446 68.7495C114.446 93.0266 94.7087 112.751 70.4442 112.751H31.9412C28.9018 112.751 26.4426 110.279 26.4426 107.252V49.8827C26.4426 46.7676 27.0353 43.8039 28.0695 41.0546H20.0864C19.2919 43.867 18.8631 46.8181 18.8631 49.8827V107.252C18.8631 114.454 24.7274 120.318 31.9286 120.318H70.4315C98.8705 120.318 122 97.1884 122 68.7495C122 40.3105 98.8831 17.1684 70.4442 17.1684Z" fill="white"/>
<path d="M56.5718 36.3751C53.545 36.3751 50.6822 37.1192 48.1599 38.4182L53.9738 44.2699C54.8062 44.0681 55.6764 43.942 56.5718 43.942H70.4444C84.1153 43.942 95.2387 55.0654 95.2387 68.7362C95.2387 82.4071 84.1153 93.5305 70.4444 93.5305H45.6502V55.5698L39.067 48.9488C38.4364 50.8153 38.0833 52.7953 38.0833 54.8636V97.0491C38.0833 99.2813 39.8994 101.097 42.1316 101.097H70.4571C88.3023 101.097 102.818 86.5815 102.818 68.7362C102.818 50.8909 88.3023 36.3751 70.4571 36.3751H56.5718Z" fill="white"/>
</g>
<defs>
<clipPath id="clip0_1308_328">
<rect width="170" height="140" fill="white"/>
</clipPath>
</defs>
</svg>
