<svg width="350" height="170" viewBox="0 0 350 170" fill="none" xmlns="http://www.w3.org/2000/svg">
<g clip-path="url(#clip0_1307_30)">
<path d="M33.8195 142.035C33.8694 138.074 34.5104 133.38 36.0112 128.821C36.1647 128.352 36.2491 127.868 36.3336 127.388C36.395 127.05 36.3796 126.727 36.0342 126.55C35.7003 126.381 35.5007 126.631 35.2781 126.827C32.4722 129.324 29.3977 131.387 25.6899 132.243C21.7365 133.154 17.7638 133.115 13.8756 131.894C9.10071 130.392 5.77288 127.127 3.3509 122.859C1.73881 120.02 1.01336 116.889 0.391556 113.716C-1.3165 105.004 2.79051 94.229 8.75909 88.5438C11.5726 85.8625 14.6509 83.55 18.3971 82.3592C23.7209 80.6651 28.6915 81.5794 33.1593 84.8791C35.4086 86.5424 36.5716 88.9855 37.1703 91.6784C38.2604 96.5915 37.4045 101.128 34.2417 105.085C31.6969 108.269 28.3652 110.259 24.3081 110.881C22.4696 111.166 20.6349 111.035 18.8846 110.309C17.6525 109.798 16.7121 108.941 16.002 107.827C15.8446 107.582 15.7256 107.317 15.6642 107.028C15.5414 106.452 15.7448 105.999 16.2592 105.715C16.5432 105.557 16.8541 105.48 17.1727 105.415C19.5947 104.897 21.7979 102.603 22.1049 100.156C22.3314 98.3508 21.6405 96.8027 20.4122 95.512C18.2397 93.2341 15.0693 92.7078 11.9794 94.0523C9.02778 95.3353 7.04337 97.5672 5.7345 100.452C3.49676 105.384 3.48908 110.313 5.81894 115.214C7.31589 118.361 9.90675 120.135 13.2077 120.992C17.925 122.213 22.2892 121.295 26.3923 118.814C29.2864 117.066 31.8274 114.873 34.2379 112.518C38.7556 108.104 42.5747 103.103 46.3017 98.0281C50.2437 92.6579 53.8977 87.0918 57.5787 81.541C59.8894 78.0568 62.3344 74.6841 65.2131 71.6379C69.5427 67.0551 74.4865 63.3021 80.0597 60.3635C80.7238 60.0139 81.3993 59.6835 82.0442 59.2994C82.8847 58.8 82.8886 57.9549 82.0173 57.5132C80.8428 56.9178 79.626 56.403 78.3786 55.9805C77.6186 55.7231 76.9392 56.0765 76.3212 56.5259C75.377 57.2097 74.4212 57.8743 73.4003 58.4428C71.8304 59.3109 70.1876 59.9678 68.3836 60.133C63.221 60.6016 60.4651 56.4645 60.9104 52.8651C61.0255 51.9201 61.3748 51.0558 61.774 50.2107C62.4572 48.7625 62.2154 48.1902 60.7069 47.7138C56.55 46.3962 52.3624 46.2311 48.1633 47.4757C44.4977 48.5628 41.5038 52.2467 41.1085 56.0611C40.9741 57.3672 40.8782 58.6925 41.427 59.9179C42.3367 61.9461 44.0525 62.9103 46.1789 63.0063C48.2631 63.1024 49.737 61.9692 50.758 60.2098C51.0305 59.745 51.1917 59.2303 51.3414 58.7117C51.4489 58.3429 51.5564 57.978 51.6869 57.6169C51.8289 57.2212 52.0707 56.9254 52.5236 56.8525C53.0034 56.7756 53.3066 57.0215 53.5561 57.3864C54.1895 58.3122 54.5886 59.3378 54.7844 60.4365C55.1606 62.5377 55.4868 64.6428 55.222 66.7939C54.5234 72.4676 50.1707 77.7188 43.8605 78.5255C38.7556 79.1785 34.7177 77.3616 31.8312 73.0899C29.5897 69.7748 28.3652 66.1332 28.5303 62.0921C28.6531 59.0267 29.5666 56.1841 31.0751 53.5297C33.286 49.6422 36.1762 46.4001 40.1182 44.1951C43.1888 42.4742 46.509 41.656 50.0134 41.5523C54.7038 41.4101 59.21 42.4166 63.6586 43.7572C67.0478 44.779 70.2298 46.2887 73.3427 47.9558C74.8818 48.7817 75.519 48.5359 76.0948 46.8764C77.1887 43.7111 77.8834 40.4383 78.6933 37.2C79.6836 33.228 80.647 29.2522 82.0365 25.3954C83.7445 20.659 86.3316 16.4143 89.2717 12.3694C91.6092 9.15028 94.2846 6.24236 97.4742 3.83766C100.096 1.8632 102.994 0.541763 106.275 0.146101C109.956 -0.295657 113.376 0.318963 116.282 2.79665C118.481 4.67124 119.694 7.12588 120.101 9.94545C120.654 13.7599 120.554 17.5629 119.51 21.3082C118.347 25.48 116.171 29.0409 113.008 31.9719C109.78 34.9643 106.302 37.6302 102.391 39.6892C100.503 40.6841 98.5528 41.5331 96.4532 41.9863C96.2306 42.0363 96.0041 42.0939 95.7777 42.0977C95.2902 42.1054 94.9755 41.8404 94.7989 41.4025C94.6262 40.9722 94.8181 40.6419 95.1405 40.396C95.6625 39.9927 96.2076 39.6239 96.7526 39.2474C101.351 36.0706 105.086 32.1217 107.638 27.1087C109.296 23.8512 110.317 20.3978 110.835 16.7869C111.058 15.235 111.242 13.6831 111.204 12.112C111.165 10.4832 110.87 8.91212 110.183 7.4255C108.797 4.42155 105.692 3.43048 102.844 5.10916C100.53 6.47668 98.9558 8.49341 97.8465 10.9096C96.7411 13.322 96.1039 15.8842 95.555 18.4618C94.5648 23.1098 93.5438 27.7464 91.97 32.2485C89.8244 38.3908 87.057 44.2143 83.2686 49.5231C82.9308 49.9994 82.5585 50.4489 82.2361 50.9329C81.5836 51.9163 81.7179 52.4848 82.7466 53.0841C84.6312 54.1827 86.6808 54.7628 88.8341 55.024C89.763 55.1354 90.6996 55.1699 91.6131 55.385C91.9432 55.4619 92.2541 55.5925 92.5381 55.7807C93.6781 56.5298 93.8623 57.9549 92.945 58.9614C91.9509 60.0523 90.6727 60.6631 89.2986 61.1049C84.351 62.6913 79.7757 64.9962 75.638 68.1576C70.7365 71.9068 66.8214 76.528 63.5703 81.7446C60.9295 85.9816 58.7494 90.4645 56.5001 94.9089C54.5196 98.8195 52.6004 102.765 50.6812 106.706C50.5085 107.059 50.3166 107.413 50.6697 107.758C51.0382 108.116 51.4374 107.997 51.8097 107.774C53.2683 106.898 54.7537 106.068 56.3082 105.365C60.135 103.637 64.1115 102.542 68.349 102.561C68.6561 102.561 68.9632 102.584 69.2702 102.553C70.2375 102.457 70.6098 101.82 70.2106 100.936C69.8882 100.225 69.5773 99.5071 69.3086 98.7734C67.969 95.1049 68.2108 91.4325 69.37 87.7947C71.4504 81.2644 75.8337 76.9044 82.1823 74.4536C83.2993 74.0234 84.4124 73.5701 85.633 73.5547C88.0166 73.524 89.7285 74.7187 91.0489 76.5933C91.8357 77.7111 92.3692 78.9404 92.6187 80.2887C92.684 80.6344 92.7799 80.9763 92.9335 81.2951C93.2559 81.9597 93.7395 82.1709 94.4458 81.9635C94.8027 81.8598 95.1251 81.6869 95.4437 81.4987C98.6065 79.6472 101.075 77.0773 103.109 74.0618C104.686 71.7224 106.037 69.2716 106.713 66.5058C107.204 64.493 107.458 62.4609 106.959 60.4057C106.678 59.261 106.107 58.2738 105.235 57.4748C104.272 56.5874 103.159 56.2417 101.884 56.6796C101.19 56.9178 100.48 56.9408 99.758 56.9754C98.4223 57.0445 97.8887 55.4657 98.4606 54.6014C98.8138 54.0713 99.2897 53.6987 99.854 53.4375C101.892 52.504 103.857 51.44 105.696 50.1454C109.223 47.66 112.198 44.5985 114.965 41.3064C117.172 38.6789 119.011 35.7902 120.953 32.9745C122.239 31.1153 123.713 29.4404 125.732 28.3379C127.075 27.6042 128.496 27.1433 130.05 27.3238C132.349 27.5889 133.762 29.0025 134.656 31.0231C135.278 32.429 135.6 33.9348 136.061 35.3984C136.556 36.9657 137.124 38.4984 138.003 39.9043C140.195 43.4038 143.96 44.7829 147.81 43.3116C152.051 41.6906 155.467 39.0131 157.636 34.9297C159.022 32.3214 159.682 29.5134 159.713 26.5709C159.732 24.923 159.287 23.3826 158.342 22.015C157.356 20.5861 156.024 19.6987 154.235 19.8485C152.37 20.006 151.049 21.0585 150.255 22.7257C149.514 24.2738 149.614 25.8218 150.493 27.3046C150.719 27.6887 150.98 28.0498 151.226 28.4186C151.414 28.699 151.591 28.9871 151.698 29.3098C151.998 30.2202 151.671 30.9193 150.769 31.2612C149.956 31.5685 149.092 31.6262 148.236 31.653C142.751 31.8298 138.694 28.5569 137.539 23.0599C136.955 20.2941 137.024 17.5744 138.045 14.9123C139.35 11.5166 141.83 9.26552 145.081 7.82885C150.359 5.49713 155.191 6.55351 159.597 9.98386C162.415 12.1811 164.046 15.1659 164.791 18.6462C165.447 21.7 165.673 24.7731 165.27 27.8847C164.798 31.5685 163.474 34.9144 161.294 37.9106C158.933 41.1528 156.093 43.884 152.462 45.6741C149.123 47.322 145.58 47.9443 141.876 47.4603C139.803 47.1876 137.98 46.3194 136.376 44.9749C135.846 44.5332 135.324 44.0799 134.775 43.6612C134.003 43.0773 133.566 43.1503 133.029 43.9608C132.188 45.2246 131.416 46.5384 130.411 47.6831C128.868 49.4386 127.052 50.7639 124.719 51.2825C122.135 51.8587 119.525 50.81 118.074 48.5935C117.79 48.1556 117.514 47.71 117.195 47.299C116.72 46.6805 116.336 46.6344 115.706 47.0992C114.866 47.7215 114.136 48.4706 113.353 49.1582C111.415 50.8638 109.392 52.4579 107.193 53.8139C107.074 53.8869 106.959 53.9599 106.855 54.0521C106.709 54.1865 106.728 54.321 106.893 54.4286C106.97 54.4785 107.055 54.5169 107.139 54.5476C109.135 55.3005 110.455 56.7449 111.361 58.631C113.004 62.0498 112.781 65.4648 111.334 68.8721C110.59 70.6199 109.615 72.2602 108.951 74.0464C108.314 75.7635 107.719 77.4883 107.611 79.3322C107.481 81.5832 108.939 82.5397 110.962 81.5448C112.332 80.8687 113.492 79.9007 114.424 78.706C116.781 75.6906 118.942 72.5483 120.562 69.0603C121.015 68.0846 121.387 67.082 121.706 66.0564C122.408 63.8015 124.227 62.6452 126.484 62.2957C127.298 62.1689 127.908 62.7643 127.97 63.621C128.02 64.3124 127.801 64.9578 127.62 65.6031C126.814 68.5072 125.624 71.2691 124.511 74.058C120.312 84.568 115.645 94.8705 110.828 105.108C107.93 111.266 104.997 117.404 102.08 123.554C102.026 123.665 101.977 123.777 101.93 123.888C101.547 124.826 101.666 125.363 102.456 125.993C103.166 126.558 103.9 127.084 104.625 127.626C107.542 129.796 110.467 131.967 113.714 133.63C118.765 136.215 124.078 137.928 129.797 138.074C135.996 138.236 141.711 136.692 146.67 132.85C150.593 129.808 153.042 125.728 154.573 121.065C155.997 116.728 156.185 112.337 154.93 107.927C154.251 105.534 153.045 103.429 151.245 101.704C148.723 99.2843 145.676 98.5467 142.313 99.2497C138.698 100.01 136.03 102.15 134.276 105.373C133.508 106.779 133.251 108.319 133.75 109.913C134.36 111.872 136.211 113.271 138.187 113.236C140.114 113.205 141.93 111.803 142.448 109.944C142.532 109.633 142.574 109.31 142.67 109.007C142.92 108.208 143.764 107.997 144.378 108.573C144.501 108.688 144.616 108.819 144.701 108.961C145.914 111.073 146.647 113.34 146.628 115.787C146.601 119.11 145.35 121.975 143.123 124.411C140.721 127.038 137.688 128.352 134.165 128.494C130.68 128.632 127.517 127.726 124.895 125.313C122.953 123.527 121.878 121.253 121.291 118.714C120.001 113.125 120.876 107.927 124.151 103.187C125.939 100.598 128.361 98.758 131.159 97.3751C135.151 95.4006 139.354 94.2982 143.822 94.2905C146.167 94.2905 148.459 94.6861 150.731 95.2316C150.969 95.2892 151.215 95.3161 151.456 95.32C151.775 95.3277 152.017 95.1586 152.159 94.8821C152.301 94.6016 152.212 94.3443 152.032 94.1099C151.798 93.8065 151.552 93.5107 151.322 93.2034C149.472 90.7295 148.278 87.9676 147.679 84.9406C147.672 84.9098 147.672 84.8791 147.668 84.8484C147.376 83.4693 146.513 83.1505 145.419 84.0455C143.703 85.4438 141.933 86.7614 139.926 87.7217C138.322 88.49 136.667 89.0816 134.848 88.9625C132.318 88.8012 130.53 87.4605 129.248 85.3593C127.663 82.7625 127.202 79.9622 128.069 77.0466C129.524 72.1373 132.303 68.1922 136.832 65.6338C138.629 64.6197 140.513 63.886 142.628 63.936C143.734 63.9628 144.782 64.2125 145.799 64.6236C146.083 64.7388 146.371 64.8464 146.666 64.9155C147.464 65.1037 148.021 64.7542 148.129 63.9513C148.382 62.0422 147.814 60.471 146.179 59.357C145.772 59.0805 145.327 58.8692 144.95 58.5465C143.929 57.6707 143.987 56.3454 145.096 55.581C146.175 54.8396 147.319 54.9971 148.439 55.4427C149.898 56.0266 150.815 57.1867 151.533 58.5273C152.497 60.3327 152.758 62.2995 152.83 64.3086C152.926 66.9437 152.554 69.5444 152.232 72.1488C151.798 75.6445 151.51 79.1439 152.005 82.655C152.473 85.9931 153.502 89.1277 155.809 91.6745C158.446 94.5863 161.827 96.0076 165.681 95.4544C174.813 94.1368 181.368 89.2967 184.861 80.6075C186.136 77.4345 186.731 74.1233 186.519 70.7006C186.354 68.0347 185.901 65.4072 184.566 63.0524C183.027 60.3327 180.589 58.9614 177.484 58.8C176.597 58.7539 175.741 58.9883 174.974 59.4415C172.141 61.1087 170.184 63.4366 169.635 66.767C169.328 68.6455 169.389 70.474 170.567 72.1027C171.354 73.1898 172.414 73.8813 173.696 74.2424C174.605 74.4997 175.457 74.323 176.26 73.8505C176.897 73.4741 177.472 73.0208 177.952 72.4446C178.24 72.0989 178.566 71.83 179.065 72.0451C179.541 72.2525 179.783 72.6328 179.695 73.1975C179.319 75.5945 178.728 77.9339 177.292 79.9391C174.908 83.2734 171.581 84.9022 167.535 84.9329C164.219 84.9598 161.198 82.5051 160.2 79.094C158.868 74.5497 159.275 70.086 161.217 65.8029C163.631 60.4787 167.585 56.8102 173.262 55.1738C176.985 54.102 180.754 53.8946 184.508 55.0355C190.22 56.7756 193.758 60.5978 195.163 66.3906C195.896 69.4061 196.2 72.4638 195.939 75.5676C195.539 80.2964 193.843 84.5142 190.872 88.1827C185.924 94.2943 179.564 98.1011 171.845 99.6146C169.324 100.11 166.775 100.352 164.207 100.241C163.213 100.199 162.223 100.049 161.233 99.945C160.856 99.9066 160.53 99.9604 160.315 100.314C160.089 100.69 160.277 100.986 160.492 101.278C162.591 104.147 164.315 107.213 165.144 110.701C166.583 116.736 165.9 122.582 163.271 128.156C160.219 134.629 155.126 139.012 148.612 141.778C144.233 143.637 139.619 144.505 134.867 144.612C130.134 144.72 125.571 143.81 121.118 142.273C118.374 141.324 115.576 140.713 112.659 140.713C108.099 140.713 104.537 143.652 103.654 148.127C103.355 149.637 103.328 151.112 104.011 152.537C105.017 154.646 107.623 156.044 109.78 155.63C112.225 155.153 113.929 152.264 113.146 149.902C112.946 149.307 112.693 148.73 112.463 148.147C112.405 148.004 112.344 147.862 112.298 147.716C111.933 146.579 112.605 145.715 113.787 145.838C115.48 146.015 116.854 146.829 118.032 148.02C123.479 153.521 122.588 163.205 116.198 167.519C113.227 169.524 109.88 170.2 106.337 169.939C103.527 169.731 101.063 168.732 99.094 166.658C97.6393 165.129 96.7027 163.297 95.9888 161.33C94.9179 158.368 94.4496 155.338 94.8757 152.195C95.3209 148.903 96.6835 145.999 98.6487 143.368C100.556 140.817 102.748 138.566 105.512 136.911C106.778 136.15 106.786 135.386 105.562 134.537C103.961 133.423 102.334 132.355 100.652 131.371C99.3089 130.588 98.737 130.726 97.954 132.07C94.3153 138.324 90.12 144.178 85.3451 149.61C80.6854 154.915 75.5305 159.663 69.4967 163.393C65.7198 165.729 61.6703 167.407 57.264 168.099C51.2915 169.036 45.8872 167.811 41.3081 163.7C38.6519 161.315 36.9439 158.315 35.7924 154.965C34.4413 151.035 33.8387 146.99 33.8502 142.023L33.8195 142.035ZM40.4483 138.593C40.406 140.598 40.5135 142.588 41.0125 144.532C42.2983 149.537 45.2347 153.113 50.1362 154.938C53.1416 156.056 56.2583 155.968 59.3635 155.576C62.96 155.126 66.3185 153.893 69.5082 152.184C73.8762 149.841 77.6339 146.698 81.1383 143.233C84.6542 139.757 87.6865 135.881 90.427 131.771C91.2945 130.469 92.1658 129.166 92.8989 127.783C93.3979 126.838 93.2482 126.243 92.4268 125.559C92.2848 125.44 92.1389 125.333 91.9854 125.229C90.6804 124.342 89.337 123.508 87.9245 122.797C86.5542 122.11 85.1532 121.484 83.6562 121.115C82.428 120.815 81.7102 121.276 81.4032 122.502C81.3724 122.621 81.3494 122.74 81.3302 122.863C80.7737 126.573 79.7603 130.146 78.0254 133.484C75.8299 137.706 72.9281 141.332 68.8941 143.936C65.6468 146.034 62.1463 147.397 58.189 147.044C54.7038 146.733 51.8634 145.212 50.0249 142.162C47.8447 138.547 47.2651 134.625 48.3629 130.557C49.7485 125.409 52.8384 121.395 57.1949 118.426C62.3612 114.899 68.1609 113.517 74.3867 113.862C74.8128 113.885 75.2388 113.966 75.6725 113.893C76.3749 113.774 76.7396 113.294 76.6513 112.587C76.6091 112.249 76.4709 111.942 76.3251 111.634C75.3386 109.571 73.6651 108.338 71.5195 107.72C67.9805 106.702 64.4838 106.99 61.0255 108.139C57.8666 109.187 55.1298 110.989 52.5121 112.983C49.4031 115.349 46.7239 118.122 44.893 121.606C42.1026 126.915 40.5941 132.574 40.4559 138.585L40.4483 138.593ZM99.0287 87.618C99.0287 87.2953 99.0441 86.9727 99.0287 86.6538C98.9673 85.6512 98.1958 85.2133 97.3053 85.6512C96.3035 86.1468 95.3363 86.7345 94.2615 87.0533C92.849 87.4682 91.9509 88.3786 91.4442 89.7269C90.0662 93.4262 87.9475 96.6299 85.0611 99.3342C82.7504 101.501 80.1595 103.103 76.9661 103.575C76.7741 103.602 76.5861 103.698 76.4172 103.794C75.899 104.101 75.8376 104.482 76.2444 104.92C76.4939 105.188 76.7703 105.434 77.0428 105.68C78.9927 107.42 80.3822 109.522 81.0308 112.061C81.4646 113.755 82.4779 114.884 84.0708 115.556C87.3257 116.928 90.4309 118.591 93.4555 120.404C94.0082 120.735 94.5302 121.119 95.129 121.364C95.7969 121.645 96.2536 121.545 96.7449 121.019C97.0904 120.646 97.3552 120.212 97.597 119.766C100.268 114.884 102.936 110.002 105.611 105.123C107.154 102.311 108.548 99.4302 109.684 96.4263C109.86 95.9576 109.933 95.5082 109.496 95.1202C109.062 94.7322 108.617 94.7899 108.133 95.0165C107.73 95.2047 107.316 95.3699 106.893 95.5044C104.042 96.4071 101.685 95.4583 100.242 92.8384C99.3473 91.2135 99.0249 89.4465 99.0249 87.6142L99.0287 87.618ZM66.5834 134.375C67.1361 134.375 68.0496 134.237 68.8826 133.811C74.1794 131.087 76.7204 126.57 77.2616 120.788C77.3691 119.644 76.7012 118.964 75.542 118.914C74.2101 118.856 72.8744 118.871 71.5463 119.033C66.1228 119.686 61.9122 123.685 61.014 129.028C60.6954 130.914 61.4784 132.585 63.1327 133.553C64.0808 134.106 65.1133 134.36 66.5834 134.375ZM146.305 71.83C146.248 70.424 145.737 69.2332 144.613 68.3535C143.81 67.7312 142.905 67.4585 141.895 67.7428C138.479 68.6993 136.901 73.3473 139.02 76.1938C139.968 77.4691 141.603 77.9301 143.035 77.2962C145.089 76.3858 146.371 74.2116 146.305 71.8338V71.83ZM123.329 37.8914C123.329 37.999 123.329 38.1066 123.329 38.2141C123.391 40.8531 125.878 42.2552 128.146 40.9184C129.747 39.9735 130.825 38.6175 131.367 36.8274C131.773 35.4867 131.747 34.1922 131.006 32.9706C130.146 31.5493 128.68 31.0692 127.206 31.8182C124.738 33.0705 123.506 35.1564 123.329 37.8953V37.8914ZM81.9635 91.8551C83.0076 91.8013 84.0209 91.4517 84.9037 90.7564C85.3681 90.3915 85.7558 89.9613 85.9592 89.3927C86.1895 88.7359 86.0206 88.1174 85.4065 87.8101C83.9633 87.0879 82.7389 86.0738 81.4838 85.0866C80.8197 84.5641 80.3361 84.6217 79.7642 85.2556C79.0426 86.0546 78.7893 87.038 78.6319 88.0675C78.3325 90.0266 79.9216 91.8858 81.9635 91.8589V91.8551ZM69.8575 51.6397C68.6024 51.6282 67.6773 52.2428 66.9212 53.1801C66.7523 53.3875 66.6755 53.6372 66.7293 53.9138C66.8789 54.6514 67.6735 55.4312 68.4335 55.4504C69.8882 55.4811 71.1241 54.9279 72.0645 53.8178C72.5136 53.2877 72.41 52.7268 71.8649 52.2966C71.2777 51.8318 70.5906 51.6512 69.8536 51.6436L69.8575 51.6397ZM88.7958 81.7522C88.7958 80.838 88.0818 79.5089 87.3142 79.0095C86.9418 78.7675 86.5734 78.7598 86.2087 79.0364C85.8786 79.2861 85.6637 79.6088 85.5677 80.0121C85.3259 81.0224 85.9938 82.2593 87.0033 82.8509C87.863 83.3541 88.8533 82.4667 88.7996 81.7522H88.7958Z" fill="white"/>
</g>
<defs>
<clipPath id="clip0_1307_30">
<rect width="196" height="170" fill="white"/>
</clipPath>
</defs>
</svg>
