<svg width="454" height="96" viewBox="0 0 454 96" fill="none" xmlns="http://www.w3.org/2000/svg">
<g clip-path="url(#clip0_1307_6)">
<mask id="mask0_1307_6" style="mask-type:luminance" maskUnits="userSpaceOnUse" x="0" y="0" width="454" height="96">
<path d="M454 0H0V95.6697H454V0Z" fill="white"/>
</mask>
<g mask="url(#mask0_1307_6)">
<path fill-rule="evenodd" clip-rule="evenodd" d="M60.3763 24.5308H69.8593L73.6218 94.8231H64.1428L60.3763 24.5308ZM2.92789 24.5308H13.2472L44.0638 86.4942L39.4608 95.6696H38.2061L2.92789 24.5308ZM0 94.8231C3.48758 86.3529 5.9952 79.7197 8.08657 73.6512H9.3414L8.36739 94.8231H0Z" fill="white"/>
<path fill-rule="evenodd" clip-rule="evenodd" d="M103.845 25.0099C110.544 21.842 116.323 18.8079 124.729 14.7185L126.96 20.3928C117.504 22.8992 113.565 23.4269 104.109 25.9334L103.845 25.0099ZM102.4 57.9932L126.172 56.6736C126.172 46.5142 122.628 38.995 116.979 38.0716V37.0144C128.932 38.0716 134.448 47.174 134.448 59.0483H102.4V57.9932ZM88.3457 64.0612C88.3457 48.0973 101.087 38.0716 111.989 37.0144V38.0716C101.48 40.84 97.1468 51.5271 97.1468 61.423C97.1468 78.8361 106.471 86.489 117.898 86.489C125.648 86.489 131.164 83.5868 134.973 80.023V81.3443C132.215 86.6208 125.123 93.2169 114.221 93.2169C98.7244 93.2169 88.3457 81.4761 88.3457 64.0612Z" fill="white"/>
<path fill-rule="evenodd" clip-rule="evenodd" d="M146.683 78.3517V39.1754H137.427V36.1927H146.683V20.294L155.797 17.1714V36.1927H174.448V39.1754H155.797V77.074C155.797 84.3128 157.2 90.8439 165.613 90.8439C170.1 90.8439 174.589 89.5666 176.692 88.4308V89.7085C174.869 91.8375 168.98 95.6696 160.705 95.6696C150.469 95.6696 146.683 89.2826 146.683 78.3517Z" fill="white"/>
<mask id="mask1_1307_6" style="mask-type:alpha" maskUnits="userSpaceOnUse" x="179" y="36" width="60" height="60">
<path d="M179.146 36.7961H238.043V95.6698H179.146V36.7961Z" fill="black"/>
</mask>
<g mask="url(#mask1_1307_6)">
<path fill-rule="evenodd" clip-rule="evenodd" d="M211.561 94.5679C214.457 94.0164 216.94 93.0494 218.735 91.5348C226.044 86.1562 228.525 76.6412 228.525 66.3012C228.525 56.0994 226.044 46.4466 218.735 40.9321C216.94 39.6913 214.457 38.5884 211.561 37.8991V36.7961C226.872 38.3127 238.043 51.2741 238.043 66.3012C238.043 81.193 226.872 94.1543 211.561 95.6706V94.5679ZM205.628 95.6706C190.044 94.1543 179.146 81.193 179.146 66.3012C179.146 51.2741 190.044 38.3127 205.628 36.7961V37.8991C202.734 38.5884 200.387 39.5515 198.319 40.9321C191.007 46.3087 188.664 56.2373 188.664 66.3012C188.664 76.6412 191.007 86.1562 198.319 91.5348C200.387 93.0494 202.734 94.0164 205.628 94.5679V95.6706Z" fill="white"/>
</g>
<path fill-rule="evenodd" clip-rule="evenodd" d="M288.261 41.7873C285.994 40.0005 283.99 39.0384 279.584 38.0743V36.9767C283.189 37.389 285.593 37.662 288.261 38.2137V1.50994L296.94 0V94.2951L288.261 95.2573V41.7873ZM245.405 67.2166C245.405 49.4841 259.691 37.662 273.842 36.9767V38.0743C262.628 39.1759 254.351 49.7612 254.351 64.0556C254.351 81.7876 262.361 90.5865 273.577 90.5865C278.383 90.5865 282.387 87.9727 284.924 85.6364V86.7377C282.921 90.5865 277.849 95.6697 269.305 95.6697C255.553 95.6697 245.405 85.224 245.405 67.2166Z" fill="white"/>
<mask id="mask2_1307_6" style="mask-type:alpha" maskUnits="userSpaceOnUse" x="306" y="36" width="60" height="60">
<path d="M306.757 36.7961H365.654V95.6698H306.757V36.7961Z" fill="black"/>
</mask>
<g mask="url(#mask2_1307_6)">
<path fill-rule="evenodd" clip-rule="evenodd" d="M339.171 94.5679C342.069 94.0164 344.55 93.0494 346.345 91.5348C353.657 86.1562 356.137 76.6412 356.137 66.3012C356.137 56.0994 353.657 46.4466 346.345 40.9321C344.55 39.6913 342.069 38.5884 339.171 37.8991V36.7961C354.482 38.3127 365.654 51.2741 365.654 66.3012C365.654 81.193 354.482 94.1543 339.171 95.6706V94.5679ZM333.24 95.6706C317.653 94.1543 306.757 81.193 306.757 66.3012C306.757 51.2741 317.653 38.3127 333.24 36.7961V37.8991C330.343 38.5884 327.999 39.5515 325.928 40.9321C318.618 46.3087 316.273 56.2373 316.273 66.3012C316.273 76.6412 318.618 86.1562 325.928 91.5348C327.999 93.0494 330.343 94.0164 333.24 94.5679V95.6706Z" fill="white"/>
</g>
<mask id="mask3_1307_6" style="mask-type:alpha" maskUnits="userSpaceOnUse" x="407" y="24" width="47" height="70">
<path d="M407.373 24.5308H454V93.2168H407.373V24.5308Z" fill="black"/>
</mask>
<g mask="url(#mask3_1307_6)">
<path fill-rule="evenodd" clip-rule="evenodd" d="M444.728 93.2168C437.001 81.7684 429.914 71.8372 422.186 60.2531C432.361 58.1843 439.703 52.3902 439.703 42.3229C439.703 31.702 434.68 27.0131 421.927 25.7739V24.5308C434.68 24.9445 448.591 27.7026 448.591 42.5987C448.591 52.8039 439.961 57.9085 431.202 60.5288L454 92.5252V93.2168H444.728ZM407.373 93.2168H416.131V24.5308H407.373V93.2168Z" fill="white"/>
</g>
</g>
</g>
<defs>
<clipPath id="clip0_1307_6">
<rect width="454" height="96" fill="white"/>
</clipPath>
</defs>
</svg>
