<svg width="90" height="92" viewBox="0 0 90 92" fill="none" xmlns="http://www.w3.org/2000/svg">
<g clip-path="url(#clip0_1307_42)">
<mask id="path-1-inside-1_1307_42" fill="white">
<path d="M40.9765 58.769C37.566 56.6175 34.7785 53.5925 32.8964 50.0007C31.0143 46.4088 30.1046 42.3777 30.2593 38.3158C30.4141 34.2539 31.6279 30.3055 33.7777 26.8708C35.9275 23.436 38.9369 20.6369 42.501 18.7571C46.0652 16.8773 50.0573 15.9835 54.0731 16.1664C58.0888 16.3493 61.9853 17.6024 65.3679 19.7986C68.7505 21.9948 71.4989 25.0561 73.3346 28.6724C75.1704 32.2887 76.0282 36.3314 75.8212 40.391L72.3574 40.2104C72.5329 36.7683 71.8055 33.3404 70.249 30.2742C68.6925 27.2079 66.3621 24.6122 63.494 22.75C60.6259 20.8878 57.3219 19.8253 53.917 19.6702C50.512 19.5152 47.1271 20.273 44.105 21.8669C41.083 23.4608 38.5312 25.8342 36.7084 28.7465C34.8856 31.6589 33.8564 35.0067 33.7252 38.4508C33.594 41.895 34.3653 45.313 35.9612 48.3585C37.557 51.4041 39.9205 53.9689 42.8124 55.7933L40.9765 58.769Z"/>
</mask>
<path d="M40.9765 58.769L34.0997 69.804L45.1421 76.7702L52.0001 65.6539L40.9765 58.769ZM75.8212 40.391L75.1761 53.4066L88.1081 54.0808L88.7707 41.0846L75.8212 40.391ZM72.3574 40.2104L59.408 39.5168L58.7435 52.5499L71.7123 53.226L72.3574 40.2104ZM42.8124 55.7933L53.836 62.6781L60.6322 51.6618L49.6892 44.7583L42.8124 55.7933ZM47.8533 47.7341C46.3898 46.8108 45.1842 45.5067 44.3662 43.9458L21.4266 56.0556C24.3728 61.6783 28.7421 66.4241 34.0997 69.804L47.8533 47.7341ZM44.3662 43.9458C43.548 42.3841 43.1484 40.6231 43.2163 38.8412L17.3024 37.7904C17.0608 44.1323 18.4807 50.4335 21.4266 56.0556L44.3662 43.9458ZM43.2163 38.8412C43.2842 37.0592 43.817 35.3288 44.7569 33.8271L22.7985 19.9144C19.4388 25.2822 17.544 31.4486 17.3024 37.7904L43.2163 38.8412ZM44.7569 33.8271C45.6965 32.3258 47.0059 31.1119 48.5443 30.3005L36.4578 7.21361C30.8679 10.1619 26.1584 14.5462 22.7985 19.9144L44.7569 33.8271ZM48.5443 30.3005C50.082 29.4895 51.7959 29.108 53.5126 29.1862L54.6335 3.14666C48.3188 2.85905 42.0484 4.265 36.4578 7.21361L48.5443 30.3005ZM53.5126 29.1862C55.2291 29.2644 56.8968 29.7997 58.3481 30.7421L72.3877 8.8551C67.0739 5.40501 60.9484 3.43428 54.6335 3.14666L53.5126 29.1862ZM58.3481 30.7421C59.8 31.6847 60.9892 33.0049 61.7873 34.5771L84.882 22.7678C82.0085 17.1073 77.7009 12.3049 72.3877 8.8551L58.3481 30.7421ZM61.7873 34.5771C62.5857 36.1498 62.9626 37.9164 62.8718 39.6974L88.7707 41.0846C89.0938 34.7465 87.7551 28.4276 84.882 22.7678L61.7873 34.5771ZM76.4664 27.3754L73.0026 27.1948L71.7123 53.226L75.1761 53.4066L76.4664 27.3754ZM85.3069 40.904C85.5985 35.1834 84.3902 29.4793 81.7963 24.3695L58.7017 36.1788C59.2208 37.2015 59.4673 38.3532 59.408 39.5168L85.3069 40.904ZM81.7963 24.3695C79.2021 19.2591 75.3125 14.9222 70.5137 11.8065L56.4742 33.6935C57.4116 34.3021 58.1828 35.1567 58.7017 36.1788L81.7963 24.3695ZM70.5137 11.8065C65.7144 8.69042 60.1816 6.91028 54.4774 6.65048L53.3565 32.69C54.4623 32.7404 55.5373 33.0851 56.4742 33.6935L70.5137 11.8065ZM54.4774 6.65048C48.7735 6.39068 43.1102 7.6607 38.0618 10.3234L50.1482 33.4103C51.1439 32.8852 52.2506 32.6396 53.3565 32.69L54.4774 6.65048ZM38.0618 10.3234C33.014 12.9857 28.7622 16.9443 25.7292 21.7902L47.6876 35.7028C48.3003 34.724 49.152 33.9358 50.1482 33.4103L38.0618 10.3234ZM25.7292 21.7902C22.6965 26.6356 20.9863 32.2014 20.7682 37.9254L46.6821 38.9763C46.7265 37.812 47.0747 36.6822 47.6876 35.7028L25.7292 21.7902ZM20.7682 37.9254C20.5501 43.6496 21.8317 49.3376 24.4913 54.4134L47.431 42.3036C46.899 41.2883 46.6378 40.1403 46.6821 38.9763L20.7682 37.9254ZM24.4913 54.4134C27.1513 59.4898 31.0967 63.7756 35.9355 66.8282L49.6892 44.7583C48.7444 44.1623 47.9627 43.3183 47.431 42.3036L24.4913 54.4134ZM31.7887 48.9084L29.9529 51.8842L52.0001 65.6539L53.836 62.6781L31.7887 48.9084Z" fill="url(#paint0_linear_1307_42)" mask="url(#path-1-inside-1_1307_42)"/>
<mask id="path-3-inside-2_1307_42" fill="white">
<path d="M52.8794 32.7023C56.4116 34.6428 59.3738 37.4929 61.4659 40.9639C63.558 44.4349 64.7057 48.4034 64.7925 52.4674C64.8794 56.5314 63.9025 60.5464 61.9606 64.1056C60.0188 67.6647 57.1812 70.6417 53.7352 72.7346C50.2892 74.8276 46.3573 75.9623 42.338 76.0238C38.3187 76.0852 34.3547 75.0712 30.8477 73.0845C27.3408 71.0978 24.4154 68.209 22.3681 64.7108C20.3208 61.2126 19.2243 57.2293 19.1896 53.1645L22.6579 53.1343C22.6873 56.5808 23.6171 59.9583 25.353 62.9244C27.0889 65.8906 29.5693 68.34 32.5429 70.0246C35.5165 71.7091 38.8776 72.5689 42.2856 72.5168C45.6936 72.4647 49.0274 71.5026 51.9493 69.7279C54.8712 67.9533 57.2773 65.4291 58.9237 62.4113C60.5702 59.3934 61.3986 55.9891 61.3249 52.5432C61.2513 49.0973 60.2782 45.7324 58.5043 42.7893C56.7303 39.8462 54.2186 37.4296 51.2237 35.7843L52.8794 32.7023Z"/>
</mask>
<path d="M52.8794 32.7023L59.0851 21.2653L47.6546 14.9859L41.4707 26.4969L52.8794 32.7023ZM19.1896 53.1645L19.0616 40.1301L6.11458 40.2429L6.22549 53.2604L19.1896 53.1645ZM22.6579 53.1343L35.6221 53.0384L35.5109 39.9868L22.5299 40.0999L22.6579 53.1343ZM51.2237 35.7843L39.815 29.5788L33.6824 40.9941L45.0179 47.2213L51.2237 35.7843ZM46.6736 44.1393C48.1904 44.9726 49.4715 46.2015 50.3805 47.7096L72.5513 34.2182C69.2761 28.7843 64.6327 24.3129 59.0851 21.2653L46.6736 44.1393ZM50.3805 47.7096C51.2898 49.2182 51.7928 50.9507 51.8309 52.7318L77.7542 52.2031C77.6185 45.8562 75.8262 39.6516 72.5513 34.2182L50.3805 47.7096ZM51.8309 52.7318C51.869 54.513 51.4404 56.271 50.592 57.826L73.3292 70.3851C76.3645 64.8217 77.8899 58.5498 77.7542 52.2031L51.8309 52.7318ZM50.592 57.826C49.7439 59.3806 48.5095 60.6717 47.0217 61.5754L60.4487 83.8939C65.8529 80.6116 70.2937 75.9489 73.3292 70.3851L50.592 57.826ZM47.0217 61.5754C45.5345 62.4786 43.8452 62.9641 42.1252 62.9904L42.5508 89.0572C48.8695 88.9606 55.0439 87.1767 60.4487 83.8939L47.0217 61.5754ZM42.1252 62.9904C40.4054 63.0167 38.7074 62.5832 37.2016 61.7301L24.4939 84.4389C30.002 87.5593 36.2319 89.1538 42.5508 89.0572L42.1252 62.9904ZM37.2016 61.7301C35.6952 60.8768 34.4296 59.6308 33.5398 58.1104L11.1964 71.3111C14.4012 76.7872 18.9863 81.3188 24.4939 84.4389L37.2016 61.7301ZM33.5398 58.1104C32.6497 56.5895 32.169 54.8502 32.1538 53.0686L6.22549 53.2604C6.27957 59.6084 7.99188 65.8357 11.1964 71.3111L33.5398 58.1104ZM19.3177 66.1989L22.786 66.1687L22.5299 40.0999L19.0616 40.1301L19.3177 66.1989ZM9.69378 53.2302C9.7426 58.9599 11.2881 64.5814 14.1813 69.5248L36.5247 56.3241C35.946 55.3352 35.632 54.2017 35.6221 53.0384L9.69378 53.2302ZM14.1813 69.5248C17.0747 74.4688 21.2149 78.5611 26.1891 81.379L38.8967 58.6702C37.9238 58.119 37.1031 57.3124 36.5247 56.3241L14.1813 69.5248ZM26.1891 81.379C31.1638 84.1972 36.7908 85.6374 42.4984 85.5502L42.0728 59.4834C40.9643 59.5004 39.8692 59.2211 38.8967 58.6702L26.1891 81.379ZM42.4984 85.5502C48.2057 85.463 53.7821 83.8516 58.6628 80.8872L45.2358 58.5687C44.2728 59.1536 43.1815 59.4665 42.0728 59.4834L42.4984 85.5502ZM58.6628 80.8872C63.5429 77.9232 67.5522 73.7133 70.2923 68.6908L47.5552 56.1318C47.0024 57.145 46.1995 57.9834 45.2358 58.5687L58.6628 80.8872ZM70.2923 68.6908C73.0322 63.6688 74.409 58.0075 74.2866 52.2789L48.3633 52.8076C48.3882 53.9707 48.1082 55.1181 47.5552 56.1318L70.2923 68.6908ZM74.2866 52.2789C74.1641 46.5501 72.5464 40.9491 69.5897 36.0436L47.4188 49.535C48.01 50.5157 48.3384 51.6446 48.3633 52.8076L74.2866 52.2789ZM69.5897 36.0436C66.6326 31.1376 62.4398 27.0998 57.4294 24.3473L45.0179 47.2213C45.9975 47.7594 46.8281 48.5548 47.4188 49.535L69.5897 36.0436ZM62.6324 41.9897L64.2881 38.9078L41.4707 26.4969L39.815 29.5788L62.6324 41.9897Z" fill="url(#paint1_linear_1307_42)" mask="url(#path-3-inside-2_1307_42)"/>
<mask id="path-5-inside-3_1307_42" fill="white">
<path d="M44.1854 62.5106C39.2703 63.5543 34.152 62.9281 29.625 60.7291C25.0979 58.5302 21.4153 54.8815 19.1488 50.3495C16.8822 45.8175 16.1586 40.6556 17.0901 35.6651C18.0216 30.6746 20.5562 26.1346 24.3004 22.7498L26.612 25.3647C23.4372 28.2346 21.2881 32.0841 20.4983 36.3156C19.7085 40.5471 20.3221 44.9239 22.2439 48.7666C24.1657 52.6094 27.2882 55.7031 31.1267 57.5676C34.9653 59.4321 39.3051 59.9631 43.4726 59.0781L44.1854 62.5106Z"/>
</mask>
<path d="M44.1854 62.5106C39.2703 63.5543 34.152 62.9281 29.625 60.7291C25.0979 58.5302 21.4153 54.8815 19.1488 50.3495C16.8822 45.8175 16.1586 40.6556 17.0901 35.6651C18.0216 30.6746 20.5562 26.1346 24.3004 22.7498L26.612 25.3647C23.4372 28.2346 21.2881 32.0841 20.4983 36.3156C19.7085 40.5471 20.3221 44.9239 22.2439 48.7666C24.1657 52.6094 27.2882 55.7031 31.1267 57.5676C34.9653 59.4321 39.3051 59.9631 43.4726 59.0781L44.1854 62.5106Z" stroke="white" stroke-width="26" mask="url(#path-5-inside-3_1307_42)"/>
<mask id="path-6-inside-4_1307_42" fill="white">
<path d="M59.1166 51.6261C57.0734 55.1267 54.1514 58.0191 50.6468 60.01C47.1422 62.0009 43.1794 63.0197 39.16 62.963C35.1406 62.9064 31.2074 61.7764 27.7589 59.6876C24.3105 57.5987 21.4694 54.6252 19.5234 51.0684C17.5774 47.5115 16.5957 43.4977 16.6778 39.4336C16.7599 35.3695 17.9029 31.3996 19.9909 27.9261C22.079 24.4526 25.0379 21.5989 28.5678 19.6543C32.0977 17.7096 36.0733 16.743 40.0916 16.8524L39.9982 20.3585C36.5911 20.2657 33.2202 21.0853 30.2271 22.7342C27.2341 24.3831 24.7252 26.8028 22.9547 29.748C21.1843 32.6932 20.2151 36.0593 20.1455 39.5053C20.0759 42.9512 20.9083 46.3546 22.5583 49.3704C24.2083 52.3863 26.6173 54.9076 29.5413 56.6787C32.4652 58.4499 35.8002 59.408 39.2083 59.456C42.6164 59.504 45.9764 58.6402 48.948 56.9521C51.9196 55.264 54.3972 52.8116 56.1296 49.8433L59.1166 51.6261Z"/>
</mask>
<path d="M59.1166 51.6261C57.0734 55.1267 54.1514 58.0191 50.6468 60.01C47.1422 62.0009 43.1794 63.0197 39.16 62.963C35.1406 62.9064 31.2074 61.7764 27.7589 59.6876C24.3105 57.5987 21.4694 54.6252 19.5234 51.0684C17.5774 47.5115 16.5957 43.4977 16.6778 39.4336C16.7599 35.3695 17.9029 31.3996 19.9909 27.9261C22.079 24.4526 25.0379 21.5989 28.5678 19.6543C32.0977 17.7096 36.0733 16.743 40.0916 16.8524L39.9982 20.3585C36.5911 20.2657 33.2202 21.0853 30.2271 22.7342C27.2341 24.3831 24.7252 26.8028 22.9547 29.748C21.1843 32.6932 20.2151 36.0593 20.1455 39.5053C20.0759 42.9512 20.9083 46.3546 22.5583 49.3704C24.2083 52.3863 26.6173 54.9076 29.5413 56.6787C32.4652 58.4499 35.8002 59.408 39.2083 59.456C42.6164 59.504 45.9764 58.6402 48.948 56.9521C51.9196 55.264 54.3972 52.8116 56.1296 49.8433L59.1166 51.6261Z" stroke="url(#paint2_linear_1307_42)" stroke-width="26" mask="url(#path-6-inside-4_1307_42)"/>
<mask id="path-7-inside-5_1307_42" fill="white">
<path d="M45.0153 31.6542C49.4957 29.3597 54.5999 28.625 59.5355 29.5642C64.4712 30.5033 68.9621 33.0639 72.3114 36.8483C75.6606 40.6326 77.6808 45.4292 78.0584 50.4935C78.4359 55.5578 77.1497 60.6064 74.3993 64.8558L71.4972 62.935C73.8293 59.332 74.9199 55.0512 74.5998 50.7572C74.2796 46.4631 72.5667 42.3961 69.7269 39.1873C66.887 35.9784 63.0791 33.8074 58.8941 33.011C54.7092 32.2147 50.3813 32.8377 46.5823 34.7832L45.0153 31.6542Z"/>
</mask>
<path d="M45.0153 31.6542C49.4957 29.3597 54.5999 28.625 59.5355 29.5642C64.4712 30.5033 68.9621 33.0639 72.3114 36.8483C75.6606 40.6326 77.6808 45.4292 78.0584 50.4935C78.4359 55.5578 77.1497 60.6064 74.3993 64.8558L71.4972 62.935C73.8293 59.332 74.9199 55.0512 74.5998 50.7572C74.2796 46.4631 72.5667 42.3961 69.7269 39.1873C66.887 35.9784 63.0791 33.8074 58.8941 33.011C54.7092 32.2147 50.3813 32.8377 46.5823 34.7832L45.0153 31.6542Z" stroke="white" stroke-width="26" mask="url(#path-7-inside-5_1307_42)"/>
<mask id="path-8-inside-6_1307_42" fill="white">
<path d="M34.0828 43.929C35.5347 40.1385 37.9516 36.8034 41.0886 34.2616C44.2256 31.7199 47.9713 30.0618 51.9461 29.4554C55.9209 28.849 59.9836 29.3158 63.7225 30.8086C67.4614 32.3013 70.7437 34.767 73.2368 37.9556C75.7299 41.1443 77.3452 44.9428 77.919 48.966C78.4928 52.9893 78.0048 57.0945 76.5044 60.8657C75.0039 64.6368 72.5444 67.9398 69.3749 70.4402C66.2055 72.9405 62.4389 74.5492 58.4566 75.1033L57.9838 71.6286C61.3604 71.1588 64.5542 69.7948 67.2415 67.6748C69.9289 65.5547 72.0144 62.754 73.2866 59.5565C74.5589 56.3589 74.9727 52.8781 74.4861 49.4667C73.9996 46.0553 72.63 42.8346 70.516 40.1309C68.4021 37.4272 65.619 35.3366 62.4488 34.0709C59.2785 32.8052 55.8337 32.4093 52.4635 32.9235C49.0932 33.4377 45.9172 34.8436 43.2573 36.9988C40.5975 39.1539 38.5482 41.9818 37.3171 45.1958L34.0828 43.929Z"/>
</mask>
<path d="M34.0828 43.929C35.5347 40.1385 37.9516 36.8034 41.0886 34.2616C44.2256 31.7199 47.9713 30.0618 51.9461 29.4554C55.9209 28.849 59.9836 29.3158 63.7225 30.8086C67.4614 32.3013 70.7437 34.767 73.2368 37.9556C75.7299 41.1443 77.3452 44.9428 77.919 48.966C78.4928 52.9893 78.0048 57.0945 76.5044 60.8657C75.0039 64.6368 72.5444 67.9398 69.3749 70.4402C66.2055 72.9405 62.4389 74.5492 58.4566 75.1033L57.9838 71.6286C61.3604 71.1588 64.5542 69.7948 67.2415 67.6748C69.9289 65.5547 72.0144 62.754 73.2866 59.5565C74.5589 56.3589 74.9727 52.8781 74.4861 49.4667C73.9996 46.0553 72.63 42.8346 70.516 40.1309C68.4021 37.4272 65.619 35.3366 62.4488 34.0709C59.2785 32.8052 55.8337 32.4093 52.4635 32.9235C49.0932 33.4377 45.9172 34.8436 43.2573 36.9988C40.5975 39.1539 38.5482 41.9818 37.3171 45.1958L34.0828 43.929Z" stroke="url(#paint3_linear_1307_42)" stroke-width="26" mask="url(#path-8-inside-6_1307_42)"/>
</g>
<defs>
<linearGradient id="paint0_linear_1307_42" x1="40.3765" y1="43.3796" x2="45.4125" y2="51.5624" gradientUnits="userSpaceOnUse">
<stop stop-color="white"/>
<stop offset="0.521548" stop-color="#FFFEFE" stop-opacity="0.478452"/>
<stop offset="1" stop-color="#FFFDFD" stop-opacity="0"/>
</linearGradient>
<linearGradient id="paint1_linear_1307_42" x1="55.9632" y1="51.2899" x2="48.1155" y2="40.3725" gradientUnits="userSpaceOnUse">
<stop stop-color="white"/>
<stop offset="0.451436" stop-color="#FFFEFE" stop-opacity="0.478452"/>
<stop offset="1" stop-color="#FFFDFD" stop-opacity="0"/>
</linearGradient>
<linearGradient id="paint2_linear_1307_42" x1="37.9413" y1="42.2744" x2="46.783" y2="37.3327" gradientUnits="userSpaceOnUse">
<stop stop-color="white"/>
<stop offset="0.521548" stop-color="#FFFEFE" stop-opacity="0.478452"/>
<stop offset="1" stop-color="#FFFDFD" stop-opacity="0"/>
</linearGradient>
<linearGradient id="paint3_linear_1307_42" x1="56.482" y1="49.6667" x2="48.546" y2="55.9883" gradientUnits="userSpaceOnUse">
<stop stop-color="white"/>
<stop offset="0.521548" stop-color="#FFFEFE" stop-opacity="0.478452"/>
<stop offset="1" stop-color="#FFFDFD" stop-opacity="0"/>
</linearGradient>
<clipPath id="clip0_1307_42">
<rect width="89.4607" height="91.5361" fill="white"/>
</clipPath>
</defs>
</svg>
