<svg width="158" height="97" viewBox="0 0 158 97" fill="none" xmlns="http://www.w3.org/2000/svg">
<g clip-path="url(#clip0_1308_332)">
<path d="M9.92035 94.8147H5.14916L4.30691 97.0001H0L5.48979 84.4609H9.65204L15.1418 97.0001H10.7649L9.92268 94.8147H9.92035ZM8.7538 91.7696L7.53359 88.6173L6.31337 91.7696H8.7538Z" fill="white"/>
<path d="M23.786 84.4609H28.0206V93.722H33.69V97.0001H23.7883V84.4609H23.786Z" fill="white"/>
<path d="M47.0517 87.6506V89.801H52.2895V92.9905H47.0517V97.0025H42.8171V84.4634H53.0245V87.6529H47.0517V87.6506Z" fill="white"/>
<path d="M70.4434 94.8147H65.6722L64.83 97.0001H60.5254L66.0152 84.4609H70.1774L75.6672 97.0001H71.2903L70.4481 94.8147H70.4434ZM69.2769 91.7696L68.0566 88.6173L66.8364 91.7696H69.2769Z" fill="white"/>
<path d="M89.6914 93.8478H88.5435V97.0001H84.309V84.4609H90.354C93.8513 84.4609 96.0771 86.2875 96.0771 89.1905C96.0771 91.0008 95.2162 92.3614 93.709 93.1326L96.3454 97.0024H91.8239L89.6891 93.8501L89.6914 93.8478ZM90.0857 87.7204H88.5435V90.6583H90.0857C91.2523 90.6583 91.8076 90.1038 91.8076 89.1905C91.8076 88.2772 91.2523 87.7227 90.0857 87.7227V87.7204Z" fill="white"/>
<path d="M116.079 93.813V97.0025H105.638V84.4634H115.846V87.6529H109.8V89.1207H115.111V92.1658H109.8V93.813H116.079Z" fill="white"/>
<path d="M134.23 94.8147H129.459L128.617 97.0001H124.312L129.802 84.4609H133.964L139.454 97.0001H135.077L134.235 94.8147H134.23ZM133.064 91.7696L131.844 88.6173L130.623 91.7696H133.064Z" fill="white"/>
<path d="M148.098 84.4609H152.333V93.722H158.002V97.0001H148.101V84.4609H148.098Z" fill="white"/>
<path d="M111.704 29.6772L111.945 16.9867C111.952 16.6325 111.763 16.304 111.452 16.1293L102.68 11.218C102.652 11.2017 102.624 11.1877 102.594 11.1761C102.566 11.1644 102.535 11.1504 102.51 11.1341L83.2544 0.328398C83.2055 0.30044 83.1541 0.286461 83.1028 0.267822V14.1792L101.698 23.7618C102.024 23.9295 102.225 24.265 102.218 24.6331L102.111 31.2056C102.106 31.5388 101.931 31.8416 101.644 32.014C101.495 32.1049 101.322 32.1515 101.147 32.1515C100.995 32.1515 100.846 32.1142 100.711 32.0467L83.2148 23.163C83.1775 23.1444 83.1378 23.1351 83.1005 23.1211V57.0597L88.9822 59.9673C89.1175 60.0349 89.2645 60.0675 89.4092 60.0675C89.5842 60.0675 89.7591 60.0186 89.9155 59.9254C90.1978 59.7506 90.3704 59.4431 90.3727 59.1123L90.4707 42.8827C90.4707 42.5472 90.6457 42.242 90.9304 42.0672C91.082 41.9741 91.2547 41.9251 91.432 41.9251C91.5813 41.9251 91.7306 41.9601 91.8659 42.0276L101.821 47.0368C102.146 47.1999 102.349 47.5284 102.351 47.8918L102.44 65.7453C102.44 66.1087 102.65 66.4419 102.976 66.6026L110.307 70.2255C110.442 70.2931 110.589 70.3257 110.734 70.3257C110.911 70.3257 111.086 70.2768 111.24 70.1813C111.522 70.0065 111.695 69.699 111.697 69.3658L111.772 48.3741C111.777 47.2837 111.394 46.2213 110.692 45.3849L109.131 43.5187C109.087 43.4651 109.047 43.4092 109.026 43.3789L108.977 43.3044C108.947 43.2531 108.879 43.1343 108.879 43.132C108.853 43.0807 108.83 43.0295 108.814 42.9922C108.814 42.9922 108.758 42.8291 108.748 42.7988L108.727 42.7219C108.72 42.6893 108.713 42.659 108.699 42.5915L108.69 42.5379C108.683 42.4936 108.678 42.4493 108.674 42.3934V42.3538C108.674 42.3282 108.671 42.214 108.674 42.1721V42.1208C108.681 42.0742 108.695 41.9554 108.695 41.9554L108.702 41.9111C108.711 41.8599 108.723 41.811 108.725 41.7993L108.748 41.7154C108.76 41.6782 108.772 41.6386 108.797 41.5617L108.809 41.5314C108.828 41.4848 108.846 41.4382 108.872 41.3846L108.895 41.3333L108.928 41.2728C108.954 41.2238 108.984 41.1749 109.031 41.1143C109.049 41.0887 109.101 41.0212 109.108 41.0118C109.185 40.914 109.271 40.8254 109.355 40.7555C109.371 40.7416 109.427 40.6973 109.441 40.6857L109.581 40.5855C110.955 39.6652 111.777 38.2067 111.777 36.6807V30.2271C111.777 30.1362 111.763 30.0453 111.739 29.9591C111.711 29.8659 111.7 29.7704 111.702 29.6726L111.704 29.6772Z" fill="white"/>
<path d="M82.9535 0.0605755L54.7066 15.9104C54.4033 16.0805 54.2166 16.3996 54.2143 16.7468L54.1606 70.1511C54.1606 70.4866 54.3356 70.7988 54.6249 70.9735C54.7789 71.0667 54.9516 71.1133 55.1242 71.1133C55.2759 71.1133 55.4299 71.076 55.5698 71.0038L62.6228 67.3297C62.9401 67.1642 63.1408 66.8357 63.1408 66.4769V46.6478C63.1408 46.2867 63.3391 45.9605 63.6587 45.7951L74.3396 40.2547C74.4773 40.1849 74.6289 40.1476 74.7829 40.1476C74.9579 40.1476 75.1306 40.1942 75.2799 40.285C75.5645 40.4551 75.7442 40.7696 75.7465 41.1005L75.9005 59.6436C75.9028 59.9814 76.0825 60.2936 76.3764 60.4637C76.5258 60.5522 76.6961 60.5965 76.8641 60.5965C77.0227 60.5965 77.1814 60.5569 77.326 60.48L83.1028 57.3324V0C83.0514 0.0186386 83.0001 0.0326176 82.9511 0.0605755H82.9535ZM74.9719 27.4593L64.2443 33.3422C64.102 33.419 63.9433 33.461 63.78 33.461C63.6097 33.461 63.4441 33.4167 63.2971 33.3305C63.0078 33.1628 62.8235 32.8506 62.8188 32.5151L62.7091 25.7003C62.7045 25.3415 62.8958 25.0107 63.2131 24.8383L73.8264 19.1046C73.9663 19.03 74.125 18.9881 74.2837 18.9881C74.4516 18.9881 74.6173 19.0324 74.7619 19.1162C75.0536 19.284 75.2332 19.5822 75.2449 19.9177L75.4712 26.581C75.4829 26.9444 75.2915 27.2799 74.9719 27.457V27.4593Z" fill="white"/>
</g>
<defs>
<clipPath id="clip0_1308_332">
<rect width="158" height="97" fill="white"/>
</clipPath>
</defs>
</svg>
