<svg width="230" height="120" viewBox="0 0 192 25" fill="none" xmlns="http://www.w3.org/2000/svg">
<path fill-rule="evenodd" clip-rule="evenodd" d="M3.79328 0.639874C3.77406 0.689943 3.75835 0.850798 3.75835 0.997323C3.75835 1.14385 3.70638 1.69208 3.64284 2.21556C3.57931 2.73911 3.46185 3.72421 3.38191 4.40475C3.14324 6.43526 2.87891 8.51038 2.63058 10.3037C2.21293 13.319 2.13299 13.8768 1.8884 15.4833C1.80645 16.0214 1.68668 16.8113 1.62228 17.2386C1.47213 18.2347 1.3107 19.2809 1.13391 20.4039C1.05667 20.8946 0.940764 21.6327 0.876422 22.0441C0.812023 22.4556 0.71194 23.0642 0.653986 23.3966C0.59609 23.729 0.560811 24.0138 0.57566 24.0297C0.59045 24.0455 1.11842 24.0676 1.74884 24.0788L2.89508 24.0992L2.89491 23.9637C2.89359 23.0256 3.11734 19.8842 3.3883 17.0372C3.63536 14.4411 4.10256 10.2664 4.39302 8.05924C4.45552 7.58444 4.50663 7.11897 4.50657 7.02488C4.50651 6.86356 4.51094 6.86028 4.58438 6.96732C4.69948 7.13509 5.1409 7.97786 6.06062 9.78577C7.14839 11.9241 8.52783 14.6256 9.29303 16.1164C9.88097 17.2617 11.6961 20.8944 12.7438 23.0225C13.1681 23.8843 13.2433 24.003 13.375 24.0183C13.5139 24.0344 13.5443 23.9913 13.8018 23.414C14.6538 21.5032 16.4127 17.8716 17.2805 16.2315C17.448 15.915 17.7145 15.4099 17.8727 15.1092C18.5433 13.8355 18.7509 13.4473 18.9656 13.0662C19.0904 12.8446 19.2295 12.5856 19.2746 12.4907C19.3197 12.3957 19.3953 12.2533 19.4424 12.1741C19.5149 12.0523 19.9149 11.32 20.9358 9.44047C21.2025 8.94938 21.3782 8.63205 21.9079 7.68516L22.3748 6.85067L22.4447 7.22475C22.4832 7.43049 22.5156 7.68947 22.5169 7.80026C22.5181 7.91105 22.5699 8.40311 22.6319 8.89373C22.8756 10.82 23.0992 13.0288 23.3806 16.289C23.4435 17.0171 23.5601 18.3508 23.6397 19.2529C23.7194 20.155 23.8371 21.4888 23.9014 22.2168C23.9657 22.9448 24.0178 23.6635 24.0173 23.8138L24.0163 24.0872H25.6168H27.2173L27.1178 23.4685C27.0631 23.1282 26.9629 22.3966 26.895 21.8427C26.8272 21.2888 26.7104 20.3435 26.6355 19.7421C26.476 18.4619 26.3115 17.0918 26.1484 15.6848C26.0841 15.1308 25.9677 14.1338 25.8897 13.469C25.7416 12.2068 25.5966 10.9208 25.3997 9.12393C25.3356 8.53835 25.2197 7.48948 25.142 6.79312C25.0644 6.09675 24.9462 5.02198 24.8794 4.40475C24.8125 3.78751 24.7089 2.88108 24.6492 2.39046C24.5895 1.89984 24.5241 1.31512 24.5039 1.09113C24.4582 0.586524 24.4279 0.535476 24.1868 0.558957C24.0177 0.575416 23.974 0.618062 23.8139 0.92291C23.6106 1.30971 23.4138 1.67217 22.704 2.96597C22.4349 3.45659 22.1118 4.05225 21.9861 4.28965C21.8605 4.52704 21.686 4.85077 21.5986 5.00903C21.5112 5.1673 21.3157 5.52987 21.1643 5.81475C20.6039 6.86885 20.4838 7.09066 20.2385 7.52488C20.1006 7.76912 19.9877 7.97959 19.9877 7.99271C19.9877 8.00577 19.8753 8.22032 19.7379 8.46946C19.6005 8.71866 19.358 9.16854 19.1989 9.46924C19.0398 9.76994 18.8323 10.1584 18.7378 10.3325C18.6433 10.5066 18.4424 10.8821 18.2914 11.167C18.1403 11.4519 17.9452 11.8144 17.8578 11.9727C17.7704 12.131 17.5749 12.4935 17.4234 12.7784C16.8631 13.8325 16.743 14.0543 16.4977 14.4886C16.3598 14.7328 16.2469 14.9426 16.2469 14.9549C16.2469 14.9671 15.975 15.4757 15.6426 16.0849C15.3103 16.6941 15.0384 17.2039 15.0384 17.2176C15.0384 17.2314 14.9224 17.447 14.7807 17.6967C14.639 17.9464 14.4462 18.3016 14.3522 18.486C14.2582 18.6704 14.1454 18.8699 14.1017 18.9294C14.0131 19.0495 14.002 19.0345 13.5106 18.1307C13.3901 17.9091 13.1148 17.4077 12.8988 17.0165C12.6828 16.6253 12.5061 16.2951 12.5061 16.2828C12.5061 16.2706 12.3805 16.0339 12.2269 15.7568C11.9456 15.2492 11.586 14.5812 11.1658 13.7856C11.0405 13.5482 10.8609 13.2115 10.7668 13.0374C10.6726 12.8633 10.4788 12.5007 10.3358 12.2317C10.1929 11.9626 9.97824 11.5612 9.85882 11.3396C9.7394 11.1181 9.4925 10.6519 9.31018 10.3037C9.12786 9.95555 8.87573 9.47643 8.74992 9.23904C7.93627 7.7034 4.66811 1.20825 4.48591 0.764645C4.40033 0.55631 4.38744 0.548828 4.11275 0.548828C3.90637 0.548828 3.8186 0.573863 3.79328 0.639874ZM50.5319 0.879747C49.9627 2.1739 49.1064 4.1346 48.8795 4.66373C48.6624 5.1696 47.8651 6.98091 47.6128 7.54128C47.5843 7.60459 47.5109 7.77292 47.4497 7.91536C47.2306 8.42492 45.4663 12.3838 45.2751 12.795C45.1678 13.0257 45.08 13.227 45.08 13.2422C45.08 13.2575 44.9998 13.4443 44.9016 13.6573C44.8036 13.8703 44.6764 14.1481 44.6191 14.2748C44.489 14.5622 44.3385 14.8931 44.0695 15.4833C43.9541 15.7365 43.523 16.6948 43.1116 17.6127C42.0991 19.8718 42.0342 20.0151 41.9713 20.1283C41.9412 20.1824 41.686 20.7392 41.4042 21.3656C41.1224 21.992 40.7502 22.8024 40.5772 23.1664C40.4042 23.5304 40.2441 23.8865 40.2215 23.9577L40.1804 24.0872H41.4141H42.6477L42.7405 23.7563C42.8601 23.3305 43.233 22.2047 43.4984 21.4686C43.6126 21.1521 43.7284 20.8154 43.7557 20.7205C43.8027 20.5575 44.1415 19.6264 44.384 18.9939C44.4446 18.8357 44.5624 18.5249 44.6457 18.3033C44.7289 18.0818 44.8477 17.7774 44.9097 17.6271C45.1223 17.1116 45.2449 16.806 45.5161 16.1164C45.7592 15.4978 46.0596 14.766 46.4138 13.9294C46.4809 13.7712 46.5676 13.564 46.6066 13.469C46.6456 13.3741 46.7444 13.141 46.8262 12.9511C46.9079 12.7612 47.1289 12.2432 47.3175 11.8001C47.506 11.3569 47.8793 10.4893 48.1472 9.8721C48.6091 8.80781 48.6799 8.64281 48.8516 8.23189C48.9858 7.91059 49.5191 6.68204 49.8447 5.94424C50.0228 5.54069 50.1847 5.21046 50.2046 5.21046C50.2245 5.21046 50.3066 5.34646 50.3871 5.51261C50.5353 5.81866 50.5619 5.8784 50.8927 6.64924C51.1779 7.31395 51.1926 7.34774 51.7574 8.63475C52.3638 10.0167 52.4616 10.2382 52.6144 10.5771C52.7404 10.8568 53.0492 11.5443 53.1637 11.8001C53.2985 12.1015 53.7778 13.2288 53.8854 13.4978C53.9795 13.7328 54.0464 13.8972 54.4066 14.7783C54.4681 14.9287 54.573 15.1877 54.6399 15.3538C54.7067 15.52 54.7974 15.7412 54.8415 15.8454C54.8855 15.9495 55.002 16.2474 55.1002 16.5072C55.1984 16.7671 55.364 17.1998 55.4681 17.4688C55.6439 17.9227 55.8536 18.477 56.1431 19.2529C56.208 19.427 56.3199 19.7248 56.3918 19.9148C56.4637 20.1047 56.5784 20.4155 56.6467 20.6054C56.715 20.7953 56.8183 21.0802 56.8763 21.2384C56.9343 21.3967 57.1031 21.8758 57.2514 22.3031C57.4927 22.9985 57.6252 23.3695 57.8116 23.8714L57.8703 24.0297H59.6186C60.5802 24.0297 61.3669 24.0202 61.3669 24.0086C61.3669 23.997 61.2784 23.8093 61.1701 23.5913C60.8292 22.9051 60.2735 21.7255 60.2735 21.6882C60.2735 21.6685 60.2064 21.5075 60.1244 21.3303C60.0425 21.1531 59.9243 20.8917 59.8619 20.7492C59.7994 20.6068 59.7129 20.4126 59.6695 20.3176C59.5963 20.1575 58.8026 18.3479 58.6345 17.958C58.5936 17.8631 58.4259 17.4746 58.2618 17.0948C58.0976 16.7149 57.8475 16.1322 57.7059 15.7999C57.5643 15.4675 57.414 15.1179 57.3718 15.0229C57.2032 14.6431 56.9347 14.015 56.7077 13.469C56.5761 13.1525 56.4341 12.8158 56.3923 12.7209C56.2639 12.4291 56.0423 11.9071 55.5252 10.6778C55.2521 10.0289 54.9666 9.35558 54.8906 9.18149C54.8146 9.00739 54.6471 8.60597 54.5184 8.28944C54.3896 7.97291 54.2222 7.57149 54.1463 7.3974C54.0146 7.09543 53.4005 5.62667 53.0996 4.89393C53.0216 4.70401 52.9094 4.43209 52.8503 4.28965C52.7912 4.14721 52.647 3.79758 52.5301 3.51271C52.4132 3.22783 52.2467 2.82641 52.1602 2.62067C52.0736 2.41492 51.8919 1.97466 51.7562 1.6423C51.6206 1.30994 51.4629 0.927974 51.4058 0.79342L51.302 0.548828H50.9897H50.6775L50.5319 0.879747ZM85.2219 0.586754C84.7167 0.627443 83.3634 0.792039 83.0925 0.845734C82.3349 0.995769 81.9667 1.08077 81.5961 1.19116C79.5876 1.7894 78.2611 2.48623 76.9636 3.62464C75.0494 5.30427 73.9066 7.4389 73.3879 10.3037C73.2787 10.9069 73.263 11.1985 73.2641 12.6058C73.2651 13.9799 73.2837 14.3316 73.3905 14.9941C73.816 17.6356 74.7152 19.5198 76.3478 21.1914C77.4336 22.3032 78.4495 22.9464 80.1286 23.5851C81.9859 24.2917 84.3286 24.5939 87.1118 24.486C88.0815 24.4485 88.4876 24.4005 90.5166 24.0842C92.0553 23.8443 93.2868 23.5471 94.4949 23.1242L94.7323 23.0411L94.7678 18.514C94.7874 16.0242 94.8195 13.8741 94.8392 13.7362L94.8749 13.4854L94.6237 13.5348C94.3011 13.5982 92.5767 13.5989 92.1343 13.5358L91.7952 13.4875L91.8295 13.9099C91.9705 15.6506 92.0225 21.828 91.8988 22.1392C91.878 22.1915 91.8175 22.2477 91.7643 22.2641C91.7111 22.2806 91.4839 22.371 91.2593 22.4651C90.7251 22.6891 89.8346 22.9166 88.9051 23.0668C88.2841 23.1671 87.8929 23.1883 86.6031 23.1914C85.2125 23.1948 84.9766 23.1813 84.3586 23.0632C82.053 22.6227 80.203 21.6093 78.9104 20.079C78.3163 19.3754 78.0421 18.9531 77.6513 18.1393C77.1363 17.0669 76.8849 16.2188 76.6657 14.8146C76.5598 14.1362 76.5361 13.7431 76.5341 12.6345C76.5307 10.7517 76.7068 9.4971 77.1763 8.05924C77.4768 7.13934 78.2056 5.76272 78.7045 5.17311C79.2269 4.55559 79.4489 4.31923 79.7257 4.08574C79.8998 3.93893 80.1037 3.7668 80.1787 3.70326C80.6509 3.30345 81.7337 2.72058 82.4912 2.45855C83.9046 1.96965 84.674 1.84683 86.3153 1.84827C87.3877 1.84925 87.6739 1.86853 88.1857 1.97431C89.3277 2.21039 90.0594 2.46269 90.9886 2.94088C91.8115 3.36434 92.3406 3.74573 93.108 4.46875C93.7472 5.0709 94.0005 5.23141 94.1209 5.11096C94.152 5.07988 94.1993 4.90176 94.226 4.71518C94.2876 4.2847 94.5389 3.41205 94.7455 2.91101C94.9335 2.45515 94.9911 2.52525 94.0989 2.12412C92.001 1.18091 90.527 0.823001 87.8404 0.604538C87.2239 0.554411 85.7475 0.544339 85.2219 0.586754ZM121.047 0.581805C118.238 0.904148 117.055 1.23835 115.072 2.26868C114.987 2.31254 114.685 2.50441 114.4 2.69514C112.11 4.22864 110.513 6.62869 109.893 9.46924C109.31 12.1387 109.512 15.2106 110.419 17.4976C110.882 18.6632 111.668 19.9752 112.33 20.6856C112.495 20.863 112.692 21.0768 112.767 21.1607C113.044 21.4692 113.754 22.076 114.187 22.3741C115.59 23.3408 117.02 23.888 119.292 24.3277C119.94 24.453 120.118 24.4613 122.17 24.4613C124.212 24.4613 124.402 24.4525 125.047 24.3292C128.357 23.6957 130.417 22.5681 132.219 20.4039C132.471 20.1013 132.918 19.4676 133.052 19.2241C133.943 17.5984 134.312 16.5489 134.587 14.8503C134.769 13.724 134.768 11.5515 134.584 10.3901C134.225 8.12416 133.39 6.20374 132.093 4.66373C129.868 2.02041 126.643 0.670261 122.342 0.581345C121.741 0.568914 121.158 0.569086 121.047 0.581805ZM150.543 1.34016C150.605 2.47863 150.587 12.384 150.519 14.5625C150.444 16.9735 150.201 21.226 150.029 23.1664C149.988 23.6254 149.966 24.0138 149.98 24.0297C150.013 24.068 152.222 24.0669 152.26 24.0285C152.277 24.012 152.267 23.274 152.238 22.3883C152.1 18.1176 152.059 15.2227 152.077 10.9309C152.087 8.35966 152.116 6.23602 152.14 6.21174C152.199 6.15269 152.439 6.38853 153.87 7.91536C154.537 8.62756 155.346 9.48219 155.668 9.81455C156.705 10.887 161.641 16.1959 163.213 17.9292C163.801 18.5781 164.443 19.2774 164.639 19.4831C164.983 19.8443 166.564 21.6295 167.749 22.9942C168.065 23.3579 168.431 23.7721 168.563 23.9146C168.694 24.057 168.863 24.2424 168.938 24.3264C169.04 24.4409 169.144 24.4864 169.355 24.5073L169.635 24.5352L169.6 23.9803C169.58 23.6751 169.548 20.486 169.528 16.8933C169.497 11.2136 169.505 10.1435 169.588 8.6923C169.641 7.77436 169.708 6.42767 169.737 5.69965C169.767 4.97163 169.844 3.63995 169.909 2.74032C169.974 1.84073 170.007 1.08636 169.982 1.06397C169.957 1.04152 169.712 1.06132 169.438 1.10794C168.998 1.18258 168.875 1.18252 168.402 1.1073C168.107 1.0604 167.846 1.03968 167.822 1.06132C167.799 1.08296 167.804 1.37141 167.835 1.70238C167.948 2.92862 168.007 5.92502 168.041 12.2317L168.076 18.7062L166.674 17.2962C165.903 16.5207 164.523 15.0833 163.607 14.1021C162.691 13.1209 161.731 12.0979 161.473 11.8288C161.215 11.5598 160.529 10.8217 159.949 10.1886C159.368 9.55557 158.682 8.81748 158.423 8.54842C157.921 8.02575 155.856 5.78724 154.636 4.44348C153.952 3.69025 152.256 1.86358 151.382 0.939197C151.033 0.570698 150.998 0.548828 150.756 0.548828H150.5L150.543 1.34016ZM186.797 1.33411C187.137 4.76841 187.137 20.7799 186.797 23.7851L186.762 24.0872H188.442H190.121L190.086 23.8982C190.067 23.7942 190.026 22.9202 189.995 21.9559C189.965 20.9915 189.91 19.3747 189.874 18.363C189.798 16.2423 189.836 6.81533 189.927 5.06659C189.959 4.46518 190.002 3.3057 190.024 2.48997L190.063 1.00682L189.726 1.05119C189.273 1.11081 187.579 1.10765 187.127 1.04636L186.764 0.997093L186.797 1.33411ZM124.04 1.98076C125.781 2.28555 127.16 2.93564 128.324 3.99924C129.866 5.40832 130.859 7.43366 131.274 10.016C131.404 10.8274 131.423 14.1276 131.301 14.9941C130.695 19.3273 128.374 22.1789 124.702 23.1001C122.51 23.6499 119.725 23.4047 117.882 22.4997C116.826 21.9811 115.831 21.1946 115.16 20.3464C114.997 20.1406 114.848 19.9594 114.83 19.9435C114.811 19.9277 114.676 19.7205 114.53 19.4831C113.649 18.0588 113.058 16.0867 112.934 14.1651C112.778 11.746 112.948 9.80016 113.455 8.17434C113.717 7.3345 113.781 7.17301 114.141 6.44781C115.351 4.00788 117.519 2.43639 120.328 1.96251C120.613 1.91446 120.898 1.86283 120.961 1.8477C121.259 1.77679 123.405 1.86945 124.04 1.98076Z" fill="white"/>
</svg>
