<svg width="856" height="109" viewBox="0 0 856 109" fill="none" xmlns="http://www.w3.org/2000/svg">
<path fill-rule="evenodd" clip-rule="evenodd" d="M14.546 0.411161C14.4592 0.637273 14.3883 1.36369 14.3883 2.02539C14.3883 2.6871 14.1536 5.1629 13.8667 7.52694C13.5797 9.89125 13.0493 14.3399 12.6883 17.4133C11.6105 26.583 10.4168 35.9542 9.29529 44.0529C7.4092 57.6698 7.0482 60.1888 5.94363 67.4439C5.57353 69.8739 5.03268 73.441 4.74186 75.3708C4.06378 79.8689 3.33476 84.5936 2.53635 89.6652C2.18757 91.8809 1.66413 95.2141 1.37356 97.0724C1.08274 98.9307 0.630767 101.679 0.369048 103.18C0.107589 104.681 -0.0517269 105.967 0.0153272 106.039C0.0821213 106.11 2.46644 106.21 5.31338 106.261L10.4898 106.353L10.489 105.741C10.483 101.504 11.4935 87.3181 12.7171 74.4611C13.8329 62.7371 15.9427 43.8843 17.2544 33.9169C17.5367 31.7727 17.7675 29.6706 17.7672 29.2457C17.767 28.5172 17.787 28.5024 18.1186 28.9858C18.6384 29.7434 20.6318 33.5494 24.7853 41.7138C29.6976 51.3706 35.9272 63.5706 39.3828 70.3027C42.0379 75.4747 50.2349 91.8801 54.9666 101.491C56.8826 105.382 57.2223 105.918 57.8169 105.987C58.4443 106.06 58.5815 105.866 59.7443 103.258C63.5919 94.6296 71.5349 78.2294 75.4539 70.8225C76.2102 69.3931 77.4138 67.1125 78.1286 65.7545C81.1567 60.0024 82.0944 58.2491 83.0638 56.5281C83.6275 55.5275 84.2554 54.3579 84.4595 53.9291C84.6632 53.5003 85.0042 52.857 85.2171 52.4997C85.5445 51.9494 87.3511 48.6425 91.9612 40.1544C93.1656 37.9367 93.9593 36.5036 96.3514 32.2275L98.4597 28.459L98.7755 30.1483C98.9491 31.0775 99.0957 32.247 99.1014 32.7473C99.1069 33.2476 99.3408 35.4698 99.6209 37.6854C100.721 46.3845 101.731 56.3592 103.002 71.0824C103.286 74.3702 103.812 80.3933 104.172 84.4673C104.532 88.5412 105.063 94.5643 105.354 97.8521C105.644 101.14 105.88 104.385 105.877 105.064L105.873 106.299H113.101H120.328L119.879 103.505C119.632 101.968 119.179 98.6643 118.873 96.1627C118.567 93.6612 118.039 89.3923 117.701 86.6764C116.981 80.8949 116.238 74.7075 115.501 68.3535C115.211 65.852 114.685 61.3492 114.333 58.3474C113.664 52.647 113.009 46.8396 112.12 38.725C111.831 36.0805 111.307 31.3439 110.956 28.1991C110.606 25.0543 110.072 20.2007 109.77 17.4133C109.468 14.6258 109 10.5324 108.731 8.31678C108.461 6.10114 108.166 3.46056 108.075 2.44903C107.869 0.170235 107.731 -0.060298 106.643 0.0457409C105.879 0.120072 105.682 0.312659 104.958 1.68935C104.041 3.43613 103.152 5.07297 99.9466 10.9158C98.7313 13.1314 97.2722 15.8214 96.7046 16.8935C96.137 17.9655 95.3492 19.4275 94.9544 20.1422C94.5597 20.8569 93.677 22.4943 92.993 23.7808C90.4623 28.5411 89.9199 29.5427 88.8125 31.5037C88.1895 32.6067 87.6799 33.5572 87.6799 33.6164C87.6799 33.6754 87.1723 34.6443 86.5516 35.7694C85.9313 36.8948 84.8358 38.9264 84.1174 40.2844C83.3988 41.6424 82.4619 43.3967 82.0351 44.1829C81.6084 44.9691 80.7013 46.6649 80.0191 47.9514C79.3368 49.2379 78.4558 50.8753 78.061 51.59C77.6662 52.3047 76.7836 53.9421 76.0995 55.2286C73.5689 59.9889 73.0265 60.9906 71.919 62.9515C71.2961 64.0545 70.7864 65.0021 70.7864 65.0575C70.7864 65.1128 69.5584 67.4093 68.0575 70.1606C66.5566 72.9119 65.3285 75.2138 65.3285 75.2759C65.3285 75.338 64.8048 76.3116 64.165 77.4393C63.5251 78.567 62.6542 80.1711 62.2298 81.0038C61.8053 81.8366 61.2962 82.7376 61.0984 83.0061C60.6987 83.5485 60.6485 83.4809 58.4292 79.3992C57.8853 78.3986 56.6419 76.1344 55.6665 74.3676C54.6911 72.6008 53.893 71.11 53.893 71.0544C53.893 70.999 53.3256 69.9301 52.6322 68.6789C51.3615 66.3866 49.7377 63.3699 47.8402 59.7768C47.2741 58.7047 46.4632 57.1843 46.0383 56.3981C45.6131 55.6119 44.7375 53.9746 44.0919 52.7595C43.4466 51.5445 42.4772 49.7317 41.9379 48.7311C41.3986 47.7305 40.2836 45.6253 39.4602 44.0529C38.6369 42.4805 37.4983 40.3169 36.9301 39.2448C33.2557 32.3099 18.4968 2.97793 17.6739 0.974622C17.2875 0.0337869 17.2292 0 15.9887 0C15.0567 0 14.6604 0.113056 14.546 0.411161ZM225.617 1.49442C223.046 7.33878 219.179 16.1933 218.154 18.5828C217.174 20.8673 213.574 29.0471 212.434 31.5778C212.305 31.8636 211.974 32.6239 211.697 33.2671C210.708 35.5683 202.741 53.4465 201.877 55.3034C201.392 56.3454 200.996 57.2542 200.996 57.3231C200.996 57.3923 200.634 58.2356 200.191 59.1975C199.748 60.1594 199.174 61.4142 198.915 61.986C198.327 63.2842 197.647 64.7783 196.432 67.4439C195.911 68.5874 193.965 72.9147 192.107 77.0601C187.534 87.262 187.241 87.9094 186.957 88.4203C186.821 88.6646 185.669 91.1792 184.396 94.0082C183.123 96.8369 181.443 100.497 180.661 102.14C179.88 103.784 179.157 105.393 179.055 105.714L178.869 106.299H184.441H190.012L190.431 104.804C190.971 102.882 192.655 97.7972 193.854 94.4734C194.369 93.0439 194.892 91.5235 195.016 91.0947C195.228 90.3587 196.758 86.154 197.853 83.2977C198.127 82.583 198.658 81.1795 199.034 80.1789C199.41 79.1783 199.947 77.804 200.227 77.1251C201.187 74.7969 201.741 73.4169 202.965 70.3027C204.063 67.5091 205.42 64.2042 207.019 60.4266C207.322 59.7119 207.714 58.7762 207.89 58.3474C208.066 57.9185 208.512 56.866 208.882 56.0083C209.251 55.1506 210.249 52.8115 211.1 50.8103C211.951 48.8091 213.638 44.8911 214.848 42.1037C216.933 37.2974 217.253 36.5522 218.028 34.6966C218.634 33.2455 221.043 27.6975 222.513 24.3656C223.317 22.5431 224.049 21.0518 224.139 21.0518C224.228 21.0518 224.599 21.666 224.963 22.4163C225.632 23.7985 225.752 24.0682 227.246 27.5493C228.534 30.5512 228.6 30.7037 231.151 36.5158C233.89 42.7565 234.331 43.7572 235.021 45.2874C235.59 46.5506 236.985 49.6553 237.502 50.8103C238.111 52.1714 240.275 57.2623 240.761 58.4773C241.186 59.5385 241.488 60.281 243.115 64.2601C243.392 64.9392 243.866 66.1088 244.168 66.8591C244.47 67.6094 244.88 68.6085 245.079 69.0789C245.278 69.5493 245.803 70.8943 246.247 72.0677C246.69 73.2412 247.438 75.1954 247.909 76.4104C248.702 78.4602 249.649 80.9633 250.957 84.4673C251.25 85.2535 251.755 86.5984 252.08 87.4561C252.405 88.3138 252.923 89.7172 253.231 90.5749C253.539 91.4326 254.006 92.7191 254.268 93.4338C254.53 94.1485 255.292 96.3122 255.962 98.2419C257.051 101.382 257.65 103.058 258.491 105.324L258.757 106.039H266.652C270.995 106.039 274.547 105.996 274.547 105.944C274.547 105.892 274.147 105.044 273.659 104.059C272.119 100.96 269.609 95.6333 269.609 95.4649C269.609 95.376 269.307 94.6488 268.936 93.8486C268.566 93.0486 268.033 91.8679 267.751 91.2246C267.469 90.5814 267.078 89.7042 266.882 89.2754C266.551 88.5524 262.967 80.3803 262.208 78.6195C262.023 78.1907 261.266 76.4364 260.525 74.721C259.783 73.0057 258.654 70.3742 258.014 68.8733C257.375 67.3724 256.696 65.7935 256.505 65.3647C255.744 63.6493 254.532 60.8128 253.506 58.3474C252.912 56.9179 252.271 55.3975 252.082 54.9687C251.502 53.651 250.502 51.2937 248.166 45.7423C246.933 42.8119 245.644 39.7711 245.3 38.9849C244.957 38.1987 244.201 36.3859 243.619 34.9565C243.038 33.527 242.282 31.7142 241.939 30.928C241.344 29.5643 238.571 22.9314 237.212 19.6224C236.86 18.7647 236.353 17.5367 236.086 16.8935C235.819 16.2502 235.169 14.6713 234.64 13.3848C234.112 12.0983 233.36 10.2855 232.97 9.35637C232.579 8.42723 231.758 6.439 231.146 4.93809C230.533 3.43717 229.821 1.71222 229.563 1.10457L229.094 0H227.684H226.274L225.617 1.49442ZM382.276 0.171273C379.995 0.355022 373.883 1.09833 372.659 1.34082C369.238 2.01838 367.576 2.40225 365.902 2.90073C356.831 5.60239 350.841 8.74925 344.982 13.8903C336.337 21.4755 331.176 31.1154 328.834 44.0529C328.341 46.7767 328.27 48.0936 328.275 54.4489C328.279 60.6545 328.363 62.2428 328.845 65.2347C330.767 77.1633 334.828 85.6727 342.201 93.2214C347.104 98.2422 351.692 101.147 359.275 104.031C367.662 107.222 378.242 108.587 390.811 108.1C395.19 107.93 397.024 107.714 406.186 106.285C413.135 105.202 418.697 103.86 424.152 101.95L425.225 101.575L425.385 81.1304C425.474 69.8864 425.618 60.1768 425.707 59.5541L425.869 58.4215L424.734 58.6444C423.277 58.9306 415.49 58.9337 413.492 58.6489L411.961 58.4308L412.115 60.3382C412.752 68.1994 412.987 96.0965 412.429 97.5015C412.335 97.7377 412.061 97.9916 411.821 98.0657C411.581 98.14 410.555 98.5483 409.541 98.9735C407.128 99.9848 403.107 101.012 398.909 101.691C396.105 102.144 394.338 102.239 388.513 102.253C382.234 102.269 381.168 102.208 378.377 101.674C367.965 99.6851 359.611 95.1088 353.773 88.1976C351.09 85.0206 349.852 83.1135 348.087 79.4382C345.761 74.5953 344.626 70.7654 343.636 64.4238C343.158 61.3604 343.051 59.585 343.042 54.5788C343.026 46.0757 343.822 40.4102 345.942 33.9169C347.299 29.7626 350.591 23.5458 352.843 20.8832C355.202 18.0944 356.205 17.027 357.455 15.9726C358.241 15.3096 359.162 14.5323 359.501 14.2453C361.633 12.4398 366.523 9.80756 369.944 8.62424C376.327 6.4164 379.802 5.86177 387.214 5.86826C392.056 5.87268 393.349 5.95975 395.66 6.43745C400.817 7.50355 404.122 8.64295 408.318 10.8025C412.034 12.7148 414.424 14.4371 417.889 17.7023C420.776 20.4216 421.92 21.1464 422.464 20.6025C422.604 20.4621 422.818 19.6577 422.938 18.8152C423.216 16.8711 424.351 12.9303 425.284 10.6676C426.133 8.60891 426.393 8.92546 422.364 7.11396C412.89 2.85448 406.233 1.23816 394.101 0.251583C391.317 0.0252108 384.65 -0.020273 382.276 0.171273ZM544.063 0.148922C531.378 1.60462 526.032 3.11385 517.076 7.76683C516.695 7.96487 515.331 8.83138 514.045 9.69268C503.7 16.618 496.489 27.4565 493.69 40.2844C491.059 52.3398 491.969 66.2125 496.066 76.5403C498.155 81.8041 501.705 87.729 504.693 90.9372C505.44 91.7385 506.329 92.704 506.669 93.0829C507.919 94.4757 511.126 97.2164 513.08 98.5626C519.417 102.928 525.876 105.399 536.136 107.385C539.061 107.951 539.867 107.988 549.131 107.988C558.353 107.988 559.214 107.949 562.126 107.391C577.075 104.531 586.378 99.4388 594.513 89.6652C595.651 88.2984 597.67 85.4369 598.273 84.3373C602.3 76.9954 603.964 72.2559 605.205 64.585C606.029 59.499 606.023 49.6878 605.193 44.4428C603.574 34.21 599.803 25.5374 593.947 18.5828C583.896 6.64562 569.332 0.548388 549.911 0.146844C547.195 0.0907055 544.563 0.091484 544.063 0.148922ZM677.264 3.57361C677.545 8.71494 677.465 53.4472 677.157 63.2855C676.816 74.1734 675.722 93.3776 674.943 102.14C674.759 104.213 674.659 105.967 674.722 106.039C674.873 106.212 684.846 106.207 685.02 106.034C685.094 105.959 685.05 102.626 684.92 98.6266C684.296 79.3402 684.112 66.267 684.192 46.8853C684.239 35.2735 684.369 25.6832 684.478 25.5736C684.745 25.3069 685.826 26.372 692.289 33.2671C695.303 36.4834 698.957 40.3429 700.408 41.8438C705.092 46.6867 727.384 70.6617 734.482 78.4896C737.139 81.4199 740.037 84.5777 740.921 85.5069C742.474 87.1377 749.615 95.2001 754.965 101.363C756.392 103.005 758.046 104.876 758.641 105.519C759.236 106.162 759.999 106.999 760.336 107.379C760.795 107.896 761.268 108.102 762.218 108.196L763.486 108.322L763.324 105.816C763.235 104.438 763.089 90.0356 763.001 73.8114C762.861 48.1619 762.897 43.3294 763.272 36.7757C763.509 32.6304 763.812 26.5487 763.945 23.261C764.078 19.9733 764.426 13.9595 764.719 9.89671C765.012 5.83422 765.161 2.42746 765.05 2.32636C764.939 2.225 763.833 2.3144 762.593 2.52492C760.605 2.86201 760.051 2.86175 757.914 2.52206C756.582 2.31024 755.404 2.21668 755.298 2.3144C755.191 2.41212 755.217 3.71474 755.355 5.20942C755.865 10.7471 756.13 24.2787 756.285 52.7595L756.445 81.9982L750.113 75.6307C746.63 72.1285 740.397 65.6376 736.261 61.2063C732.125 56.775 727.788 52.1553 726.624 50.9403C725.459 49.7252 722.361 46.392 719.74 43.5331C717.118 40.6742 714.019 37.341 712.852 36.126C710.584 33.7656 701.258 23.6566 695.749 17.5882C692.661 14.1866 685 5.9374 681.052 1.7629C679.479 0.098763 679.32 0 678.227 0H677.069L677.264 3.57361ZM840.987 3.54633C842.522 19.0556 842.521 91.3629 840.985 104.934L840.831 106.299H848.415H856L855.84 105.445C855.752 104.976 855.567 101.029 855.43 96.6737C855.293 92.3188 855.047 85.0172 854.883 80.4482C854.539 70.8714 854.709 28.2994 855.123 20.4021C855.266 17.6861 855.462 12.45 855.559 8.76614L855.736 2.06828L854.215 2.26866C852.17 2.53792 844.519 2.52362 842.476 2.24683L840.836 2.02436L840.987 3.54633ZM557.578 6.46656C565.438 7.84298 571.669 10.7788 576.924 15.582C583.887 21.9454 588.371 31.0917 590.246 42.7534C590.835 46.4177 590.917 61.3214 590.369 65.2347C587.633 84.8033 577.149 97.6811 560.567 101.841C550.67 104.324 538.093 103.216 529.769 99.1295C524.999 96.7875 520.508 93.2357 517.474 89.4053C516.738 88.4762 516.068 87.6575 515.985 87.5861C515.901 87.5146 515.291 86.5789 514.628 85.5069C510.653 79.0746 507.981 70.1689 507.423 61.4909C506.721 50.5663 507.485 41.7788 509.776 34.4367C510.96 30.6439 511.25 29.9147 512.874 26.6397C518.34 15.621 528.129 8.52417 540.814 6.38416C542.101 6.16715 543.387 5.93402 543.673 5.86567C545.017 5.54547 554.709 5.96391 557.578 6.46656Z" fill="white"/>
</svg>
