<svg width="93" height="47" viewBox="0 0 93 47" fill="none" xmlns="http://www.w3.org/2000/svg">
<path fill-rule="evenodd" clip-rule="evenodd" d="M28.7138 39.0617L19.3988 19.8062L10.0838 0.550781H6.36968C4.32659 0.550781 2.65554 0.660369 2.65554 0.79369C2.65554 1.10989 24.3701 46.1898 24.6856 46.5283C24.8175 46.67 25.778 45.0478 26.8201 42.9238L28.7138 39.0617ZM47.6747 24.6323C47.1135 13.499 46.6493 3.52642 46.6424 2.47032C46.6312 0.633845 46.4797 0.550781 43.1404 0.550781H39.6503V3.44615C39.6503 7.80386 41.0205 36.5705 41.4659 41.5592L41.8554 45.9218H45.2903C47.1791 45.9218 48.7176 45.6858 48.7092 45.3983C48.7008 45.1107 48.2352 35.7656 47.6747 24.6323ZM64.7789 45.9218V23.2363V0.550781H61.2888H57.7987V23.2363V45.9218H61.2888H64.7789ZM86.7664 12.4226C86.7664 7.45136 85.2963 5.09067 80.79 2.82631C78.9402 1.89656 75.8424 1.12315 73.1481 0.918636L68.618 0.575214L71.8498 1.62712C76.056 2.99593 78.4579 5.291 79.419 8.85995C80.9477 14.5355 78.6771 19.6848 73.5913 22.0748C71.8239 22.9054 70.0489 23.5853 69.6468 23.5853C68.8783 23.5853 71.5782 27.788 79.6222 39.1161L84.4552 45.9218H88.228C90.3032 45.9218 92.0015 45.7822 92.0015 45.6118C92.0015 45.4408 88.5247 40.5107 84.2744 34.6551L76.5474 24.009L79.5628 22.465C81.2213 21.6162 83.5206 19.9298 84.6723 18.7173C86.5102 16.7831 86.7664 16.0132 86.7664 12.4226ZM3.23768 45.9218C4.79146 45.9218 6.16027 45.6858 6.27894 45.3983C6.3976 45.1107 6.33129 42.2048 6.13096 38.9416C5.87129 34.7054 5.59209 33.4077 5.15513 34.4045C4.81799 35.1723 3.77864 37.6852 2.8454 39.9886C1.91145 42.2921 0.982396 44.5697 0.779972 45.0492C0.521008 45.6642 1.24625 45.9218 3.23768 45.9218Z" fill="white"/>
</svg>
