<svg width="131" height="66" viewBox="0 0 131 66" fill="none" xmlns="http://www.w3.org/2000/svg">
<path fill-rule="evenodd" clip-rule="evenodd" d="M40.0913 55.172L26.7463 27.586L13.4013 0H8.08032C5.15332 0 2.75932 0.156998 2.75932 0.348C2.75932 0.801003 33.8683 65.384 34.3203 65.869C34.5093 66.072 35.8853 63.748 37.3783 60.705L40.0913 55.172ZM67.2553 34.5C66.4513 18.55 65.7863 4.263 65.7763 2.75C65.7603 0.119003 65.5433 0 60.7593 0H55.7593V4.148C55.7593 10.391 57.7223 51.603 58.3603 58.75L58.9183 65H63.8393C66.5453 65 68.7493 64.662 68.7373 64.25C68.7253 63.838 68.0583 50.45 67.2553 34.5ZM91.7593 65V32.5V0H86.7593H81.7593V32.5V65H86.7593H91.7593ZM123.259 17.008C123.259 9.886 121.153 6.50401 114.697 3.26C112.047 1.928 107.609 0.82 103.749 0.527L97.2593 0.0350037L101.889 1.542C107.915 3.503 111.356 6.791 112.733 11.904C114.923 20.035 111.67 27.412 104.384 30.836C101.852 32.026 99.3093 33 98.7333 33C97.6323 33 101.5 39.021 113.024 55.25L119.948 65H125.353C128.326 65 130.759 64.8 130.759 64.556C130.759 64.311 125.778 57.248 119.689 48.859L108.619 33.607L112.939 31.395C115.315 30.179 118.609 27.763 120.259 26.026C122.892 23.255 123.259 22.152 123.259 17.008ZM3.59332 65C5.81932 65 7.78032 64.662 7.95032 64.25C8.12032 63.838 8.02532 59.675 7.73832 55C7.36632 48.931 6.96632 47.072 6.34032 48.5C5.85732 49.6 4.36832 53.2 3.03132 56.5C1.69332 59.8 0.362319 63.063 0.072318 63.75C-0.29868 64.631 0.740317 65 3.59332 65Z" fill="white"/>
</svg>
