<svg width="3500" height="710" viewBox="0 0 3500 750" fill="none" xmlns="http://www.w3.org/2000/svg">
<g clip-path="url(#clip0_1_91)">
<path d="M400.23 191.738C352.814 263.566 305.399 335.367 256.482 409.473C208.343 336.546 161.411 265.496 112.36 191.202V523.675C94.375 523.675 78.0249 523.675 61.648 523.675C44.6814 523.675 27.7148 523.38 10.775 523.809C2.73396 524.023 -0.294837 521.45 1.12524e-06 513.115C0.589678 497.087 0.187625 481.033 0.187625 465.006C0.187625 317.973 0.187625 170.967 0.187625 23.9338C0.187625 19.5652 0.187625 15.1697 0.187625 9.51459C5.52152 9.19297 9.75647 8.68374 13.9914 8.68374C45.2175 8.63014 76.4703 9.21977 107.696 8.36212C119.141 8.04051 125.092 12.1679 130.855 21.6021C170.417 86.0865 210.595 150.196 250.586 214.412C252.703 217.789 254.928 221.086 257.983 225.749C266.48 212.241 274.494 199.564 282.401 186.86C317.219 130.925 352.171 75.0979 386.587 18.9487C391.411 11.0691 396.638 8.30852 405.751 8.44253C441.775 8.95176 477.826 8.65694 514.734 8.65694V522.495H403.714V192.944C402.561 192.542 401.382 192.14 400.23 191.738Z" fill="white"/>
<path d="M826.861 523.567C789.148 523.567 753.982 523.675 718.843 523.299C716.591 523.299 714.313 519.359 712.222 517.108C711.766 516.626 712.115 515.393 712.115 514.508C712.195 347.481 712.276 180.481 712.383 13.4544C712.383 12.6235 712.919 11.7927 713.696 9.62178C716.913 9.35377 720.692 8.73733 724.498 8.73733C800.781 8.71053 877.09 8.33531 953.373 8.92494C994.892 9.24656 1035.23 16.6974 1070.83 39.5591C1129.77 77.376 1147.08 134.463 1141.21 200.368C1135.13 268.792 1097.12 313.899 1032.26 339.763C1073.85 400.602 1115.05 460.852 1157.32 522.683C1151.96 523.139 1148.64 523.675 1145.29 523.675C1109.15 523.728 1073 523.38 1036.89 523.916C1028.13 524.05 1023.3 521.021 1018.64 513.946C986.449 465.328 953.668 417.112 921.53 368.467C916.813 361.338 912.015 358.256 903.277 358.47C878.35 359.087 853.396 358.685 826.941 358.685V523.621L826.861 523.567ZM826.727 256.946C872.936 256.946 917.537 258.447 961.977 256.356C986.904 255.177 1007.81 242.393 1019.77 218.7C1044.5 169.654 1014.08 116.211 957.635 112.861C915.392 110.369 872.909 111.682 830.533 111.387C829.353 111.387 828.174 112.352 826.7 112.968V256.946H826.727Z" fill="white"/>
<path d="M1944.43 266.434C1944.54 115.89 2063.87 0.053635 2218.71 0.160841C2374.95 0.268047 2492.27 114.55 2492 266.407C2491.73 417.139 2371.81 532.492 2215.76 532.144C2061.78 531.795 1944.3 416.737 1944.4 266.434H1944.43ZM2061.08 265.844C2064.65 284.069 2066.58 302.777 2072.07 320.412C2105.95 429.146 2246.19 464.416 2326.38 384.307C2366.13 344.614 2377.95 295.46 2371.6 240.785C2362.91 165.901 2298.21 106.241 2223.46 104.633C2130.98 102.65 2063.52 170.404 2061.08 265.844Z" fill="white"/>
<path d="M1766.24 70.5148C1741.88 99.8624 1718.83 127.602 1695.03 156.28C1686.61 150.088 1678.62 143.978 1670.37 138.215C1627.19 108.064 1579.05 96.3782 1528.09 108.761C1468 123.367 1431.33 164.856 1417.74 223.98C1402.65 289.671 1416.43 348.956 1469.26 394.813C1526.19 444.262 1619.57 434.72 1668.76 401.915C1671.81 399.878 1674.71 395.081 1674.79 391.49C1675.35 370.156 1675.06 348.768 1675.06 325.317H1561.17V228.134H1783.83C1784.15 231.913 1784.68 235.317 1784.71 238.748C1784.76 305.591 1784.9 372.407 1784.47 439.25C1784.44 444.664 1782.06 452.088 1778.09 455.17C1677.04 533.671 1565.56 556.855 1445.7 507.567C1352.4 469.187 1304.58 393.5 1295.22 294.334C1286.81 205.058 1314.63 128.084 1381.91 67.5398C1444.06 11.5783 1518.82 -5.30667 1600.57 1.42051C1660.1 6.32518 1713.2 26.6407 1759.25 64.8597C1761.28 66.5482 1763.37 68.2098 1766.24 70.5148Z" fill="white"/>
<path d="M631.678 742.696C626.826 748.083 622.725 752.64 617.874 758.027C610.556 750.12 603.4 750.201 593.429 753.899C562.417 765.397 530.387 747.333 523.016 715.868C516.235 686.896 536.391 657.119 565.714 652.75C600.103 647.631 628.113 668.778 630.23 702.038C630.632 708.498 629.694 715.761 626.987 721.523C622.993 730.073 621.439 736.988 631.651 742.696H631.678ZM602.81 716.94C609.752 702.521 605.651 686.681 593.295 677.997C581.099 669.448 565.071 670.895 554.376 681.508C543.307 692.497 542.074 711.231 551.589 724.203C560.166 735.889 573.997 739.185 587.425 732.512C582.895 728.277 578.446 724.123 573.273 719.272C578.071 713.885 582.332 709.087 586.862 703.995C592.545 708.605 597.584 712.705 602.783 716.913L602.81 716.94Z" fill="white"/>
<path d="M2064.51 756.955C2033.98 756.74 2010.42 733.369 2011.04 704.022C2011.68 673.682 2035.3 651.866 2067.03 652.295C2097.02 652.697 2119.81 675.183 2119.81 704.397C2119.81 734.388 2095.82 757.223 2064.48 756.981L2064.51 756.955ZM2066.41 736.317C2083.76 736.049 2096.6 721.898 2096.09 703.646C2095.6 685.931 2081.24 671.672 2064.46 672.289C2047.54 672.905 2033.93 687.941 2034.49 705.415C2035.05 723.346 2048.78 736.612 2066.39 736.344L2066.41 736.317Z" fill="white"/>
<path d="M367.958 719.727C375.517 731.145 382.727 742.053 390.527 753.846C374.525 757.196 362.785 755.99 355.2 740.284C350.053 729.671 344.157 716.565 326.332 724.498V754.087H305.077V654.305C323.17 654.305 341.316 653.34 359.301 654.6C374.337 655.645 384.844 663.953 388.114 679.766C391.304 695.124 386.613 706.702 372.702 716.404C371.335 717.369 369.942 718.334 367.958 719.727ZM326.413 702.869C336.169 702.869 345.095 704.638 352.734 702.253C358.095 700.564 365.01 693.274 365.09 688.396C365.171 683.733 358.041 676.362 352.734 674.835C344.693 672.53 335.472 674.218 326.413 674.218V702.869Z" fill="white"/>
<path d="M1371.4 653.179C1391.82 653.179 1411.34 653.179 1430.82 653.179C1436.08 653.179 1441.33 653.179 1447.23 653.179V673.039H1394.85V694.373H1440.87V713.402H1394.93V735.165H1447.2V754.14H1371.4V653.179Z" fill="white"/>
<path d="M831.819 653.93H855.245C853.825 679.847 854.656 706.085 850.206 731.386C846.883 750.308 827.477 758.67 804.212 756.847C784.136 755.266 769.501 745.001 767.705 726.052C765.507 702.762 767.169 679.096 767.169 654.385H788.237C788.237 674.004 787.969 693.435 788.317 712.839C788.585 727.259 795.232 734.897 807.187 735.889C822.411 737.148 831.39 729.161 831.712 713.054C832.087 693.596 831.792 674.111 831.792 653.93H831.819Z" fill="white"/>
<path d="M171.971 753.873C157.444 756.874 146.481 757.25 142.782 740.552C142.058 737.256 135.706 734.12 131.417 732.994C126.405 731.681 120.723 733.182 115.443 732.565C102.631 731.065 94.2679 733.986 89.47 748.057C87.7546 753.069 75.9075 754.623 68.6973 757.759L65.749 753.578C69.4746 744.358 73.0931 735.112 76.9796 725.972C86.1732 704.29 95.0988 682.5 105.123 661.193C106.946 657.307 113.352 653.689 117.828 653.447C122.385 653.206 129.809 656.101 131.417 659.665C145.328 690.38 158.221 721.55 171.971 753.899V753.873ZM105.472 711.419H131.203C126.78 700.832 122.948 691.666 118.23 680.41C113.54 691.8 109.733 701.047 105.472 711.419Z" fill="white"/>
<path d="M2324.69 665.428C2321.13 670.6 2317.67 675.612 2314.29 680.517C2305.88 677.488 2298.21 673.227 2290.17 672.369C2285.21 671.833 2279.69 676.524 2274.44 678.882C2278.03 683.01 2280.84 688.691 2285.37 690.97C2293.2 694.909 2302.31 696.303 2310.51 699.626C2322.39 704.451 2329.09 713.483 2328.34 726.616C2327.53 740.499 2320.24 750.174 2306.9 754.248C2285.1 760.868 2265.91 755.052 2247.61 740.74C2252.03 735.272 2255.89 730.555 2259.19 726.455C2269.05 730.127 2277.87 735.085 2287.14 736.264C2292.74 736.961 2299.1 731.815 2305.13 729.322C2301 725.061 2297.54 719.567 2292.58 716.86C2286.47 713.536 2278.97 712.866 2272.29 710.401C2257.42 704.933 2250.5 695.043 2251.41 681.375C2252.35 667.25 2262.67 655.484 2277.38 653.153C2294.3 650.472 2310.17 653.26 2324.72 665.455L2324.69 665.428Z" fill="white"/>
<path d="M1673.37 668.322C1669.16 673.12 1664.87 678.024 1660.74 682.768C1635.98 669.475 1621.88 669.877 1611.08 683.76C1601.51 696.035 1602.07 715.359 1612.34 726.964C1623.51 739.587 1639.52 739.185 1661.63 724.9C1665.7 729.081 1669.99 733.45 1674.17 737.738C1655.33 761.404 1620.19 763.789 1597.7 743.769C1576.5 724.873 1575.19 689.067 1594.94 668.081C1615.2 646.559 1652.38 646.265 1673.4 668.349L1673.37 668.322Z" fill="white"/>
<path d="M1886.35 653.849V673.843H1856.89V754.087H1833.47V674.621H1803.61V653.849H1886.35Z" fill="white"/>
<path d="M1152.2 674.621V654.359H1235.16V673.79H1205.94V754.087H1182.62V674.647H1152.2V674.621Z" fill="white"/>
<path d="M995.535 653.555H1015.61V754.409H995.535V653.555Z" fill="white"/>
</g>
<defs>
<clipPath id="clip0_1_91">
<rect width="3500" height="750" fill="white"/>
</clipPath>
</defs>
</svg>
