<svg width="433" height="502" viewBox="0 0 433 502" fill="none" xmlns="http://www.w3.org/2000/svg">
<path fill-rule="evenodd" clip-rule="evenodd" d="M211.794 0.75C211.86 1.163 211.86 3.638 211.794 6.25L211.676 11H206.676H201.676V15.5V20H206.676C211.57 20 211.676 20.064 211.676 23.014C211.676 25.148 210.733 26.87 208.449 28.912C205.552 31.5 205.017 31.652 203.226 30.398C199.832 28.02 193.266 28.632 189.667 31.661C187.927 33.125 186.117 35.339 185.645 36.582C185.031 38.196 184.218 38.693 182.797 38.321C181.703 38.035 179.184 38.337 177.198 38.993C173.859 40.095 173.395 39.991 171.02 37.616C168.125 34.722 163.307 33.483 158.796 34.474C155.744 35.144 149.676 41.011 149.676 43.292C149.676 44.111 148.272 44.415 145.426 44.214C139.918 43.826 135.299 46.636 133.565 51.431C132.659 53.937 131.664 55.002 130.225 55.007C127.517 55.015 122.633 58.299 121.029 61.19C120.324 62.46 119.731 64.911 119.711 66.635C119.686 68.879 118.942 70.251 117.092 71.463C113.814 73.611 111.762 78.557 112.406 82.759C112.681 84.552 112.385 86.646 111.749 87.412C109.341 90.313 108.686 95.088 110.199 98.709C111.217 101.145 111.355 102.731 110.663 104.025C108.903 107.312 109.529 112.67 112.024 115.673C113.315 117.228 114.677 119.749 115.049 121.275C115.422 122.802 116.568 124.892 117.596 125.92C119.521 127.845 127.513 130 132.725 130C135.118 130 135.677 130.426 135.68 132.25C135.685 135.157 138.99 140.562 141.625 141.972C143.635 143.049 143.604 143.186 140.178 148.273C138.252 151.133 136.676 154.01 136.676 154.665C136.676 157.259 139.868 159 144.625 159H149.43L148.931 163.434C148.539 166.908 148.962 168.817 150.885 172.257L153.338 176.648L147.257 180.441L141.176 184.235L133.676 176.263C122.146 164.006 90.4917 130.721 79.2207 119C33.7227 71.689 33.6757 71.634 33.6757 66.706C33.6757 58.037 26.4477 53.254 17.4287 55.956C14.8817 56.719 11.4707 59.09 8.2507 62.335C-3.0183 73.692 -2.6813 89.342 8.8787 91.51L12.2987 92.152L8.9647 104.326C-0.376299 138.443 -2.2213 171.086 3.5827 199.552C6.3377 213.058 7.9247 231.722 7.1507 241.5C6.8017 245.9 5.1537 255.35 3.4877 262.5C-0.0603046 277.731 -0.604299 291.676 1.9647 301.567C2.8317 304.903 6.4777 313.453 10.0687 320.567C13.6587 327.68 17.5387 337.1 18.6907 341.5C19.9417 346.278 21.8837 350.871 23.5127 352.904C25.0127 354.776 31.9067 360.401 38.8317 365.404C61.0037 381.421 68.8897 389.466 77.1557 404.5C82.5437 414.299 93.1327 428.271 101.245 436.285C106.888 441.86 110.256 444.12 120.144 448.964C126.762 452.206 136.434 457.673 141.637 461.113C150.762 467.145 154.057 470.119 167.302 484.272C174.129 491.567 181.2 496.088 190.181 498.902C223.358 509.297 280.346 489.802 340.3 447.547L349.425 441.116L356.314 448.308C360.103 452.264 371.051 463.745 380.641 473.823C390.232 483.9 398.912 492.591 399.93 493.136C402.813 494.679 409.002 494.4 412.547 492.567C418.524 489.476 421.36 481.607 418.391 476.35C417.723 475.167 407.135 463.606 394.863 450.659C382.591 437.712 372.511 426.755 372.464 426.31C372.416 425.864 376.832 422.932 382.277 419.794C392.623 413.83 409.899 406.605 422.676 402.899C431.111 400.452 432.676 399.526 432.676 396.983C432.676 396.009 425.584 388.076 416.917 379.356C408.249 370.635 394.861 356.933 387.167 348.906C378.991 340.378 369.964 332.065 365.449 328.906L357.723 323.5L358.449 318.5C359.851 308.858 359.194 283.02 357.319 274C353.255 254.457 344.608 234.219 333.837 219.042C324.082 205.295 307.243 189.545 293.176 181.011C289.326 178.675 286.03 176.634 285.852 176.475C285.674 176.316 286.292 174.71 287.224 172.907C288.479 170.48 288.784 168.131 288.398 163.87L287.876 158.112L290.912 157.806C292.583 157.638 294.542 156.6 295.268 155.5C296.419 153.754 296.223 152.917 293.732 148.915L290.877 144.329L294.346 143.075C298.197 141.682 301.666 136.902 301.672 132.979C301.676 130.679 302.226 130.354 307.926 129.276C312.788 128.358 314.787 127.415 316.926 125.032C318.438 123.347 319.676 121.316 319.676 120.519C319.676 119.722 320.571 118.591 321.666 118.006C324.829 116.313 326.954 111.263 326.247 107.118C325.508 102.777 325.51 101.878 326.282 95.731C326.738 92.095 326.457 90.315 325.1 88.243C323.885 86.389 323.4 83.993 323.575 80.704C323.807 76.319 323.506 75.576 320.253 72.508C317.921 70.309 316.676 68.223 316.676 66.517C316.676 61.002 310.839 55 305.476 55C304.707 55 303.497 53.394 302.787 51.431C301.157 46.922 296.514 44.009 290.952 44.004C287.257 44 286.53 43.618 285.153 40.956C283.16 37.101 278.143 34.009 273.876 34.004C270.08 33.999 265.192 36.256 263.867 38.624C263.081 40.028 262.455 40.082 259.251 39.025C257.212 38.352 254.649 38.035 253.555 38.321C252.134 38.693 251.321 38.196 250.707 36.582C248.268 30.166 239.696 27.176 233.302 30.511C230.527 31.958 230.296 31.889 226.55 28.505C224.416 26.577 222.222 25 221.673 25C221.125 25 220.676 23.875 220.676 22.5C220.676 20.136 220.976 20 226.176 20H231.676V15.552V11.105L226.426 10.802L221.176 10.5L221.315 5.25L221.454 0H216.565C213.876 0 211.729 0.337 211.794 0.75ZM220.557 30.108C226.917 32.325 228.288 40.8 222.964 44.988C219.257 47.904 215.092 47.57 211.599 44.077C207.074 39.552 207.893 33.575 213.451 30.559C216.796 28.744 216.666 28.752 220.557 30.108ZM200.604 34.463C203.677 36.052 204.676 37.81 204.676 41.627C204.676 44.928 200.456 49 197.036 49C190.18 49 186.899 39.33 192.311 35.073C195.436 32.614 196.831 32.512 200.604 34.463ZM244.221 35.455C251.345 42.578 242.216 53.146 234.311 46.927C230.085 43.603 231.076 35.988 235.991 34.007C239.647 32.534 241.654 32.887 244.221 35.455ZM168.426 41.593C174.366 48.241 167.21 57.946 158.935 54.467C152.569 51.79 152.032 43.605 157.98 39.93C161.853 37.538 165.292 38.086 168.426 41.593ZM277.036 39.377C281.442 41.218 283.422 45.784 281.66 50.038C280.142 53.703 277.96 55 273.314 55C267.05 55 263.532 47.506 267.283 42.151C268.568 40.316 271.207 38.569 273.458 38.063C273.613 38.029 275.223 38.62 277.036 39.377ZM185.637 43.979C188.101 45.298 189.823 50.484 188.741 53.329C185.555 61.709 173.676 59.846 173.676 50.966C173.676 44.557 179.911 40.915 185.637 43.979ZM260.362 45.174C264.802 49.346 262.607 57.197 256.634 58.509C251.337 59.673 245.853 54.414 247.116 49.381C248.657 43.243 255.868 40.953 260.362 45.174ZM236.128 52.859C238.161 53.421 240.36 53.675 241.014 53.424C241.668 53.173 243.074 54.584 244.139 56.561C245.203 58.537 247.357 60.818 248.926 61.629C251.016 62.71 251.619 63.605 251.183 64.979C250.43 67.352 253.133 73.931 255.56 75.631C256.832 76.522 257.403 78.17 257.403 80.944C257.403 83.157 257.981 85.662 258.686 86.513C259.759 87.804 259.575 88.478 257.573 90.61C255.794 92.503 255.176 94.295 255.176 97.557V101.952L250.848 102.601C245.547 103.396 239.414 102.624 234.403 100.53C230.996 99.107 230.741 98.748 231.768 96.827C232.401 95.646 232.662 92.877 232.356 90.6C231.987 87.855 232.279 85.859 233.24 84.559C235.25 81.841 235.028 76.656 232.782 73.883C230.924 71.589 230.924 71.5 232.782 69.138C235.669 65.468 235.242 60.413 231.753 56.923C230.145 55.315 227.881 54 226.722 54C223.522 54 222.946 51.059 225.734 48.957C228.039 47.217 228.162 47.232 230.267 49.504C231.457 50.788 234.094 52.298 236.128 52.859ZM149.836 50.692C152.335 52.882 152.908 56.651 151.234 59.887C148.73 64.729 143.087 65.502 139.131 61.545C136.005 58.419 135.917 54.039 138.926 51.302C142.832 47.748 146.26 47.556 149.836 50.692ZM208.283 49.582C207.949 50.452 207.676 51.571 207.676 52.068C207.676 52.566 206.214 53.592 204.426 54.349C197.57 57.25 195.323 63.759 199.156 69.61C200.733 72.016 200.727 72.287 199.058 74.131C196.875 76.542 196.886 82.146 199.08 85.493C199.96 86.837 200.602 89.413 200.507 91.218C200.411 93.023 200.663 95.653 201.066 97.062C201.67 99.175 201.373 99.817 199.367 100.731C195.566 102.463 188.116 103.293 183.112 102.543C178.678 101.878 178.567 101.775 179.197 98.905C179.657 96.812 179.236 94.92 177.753 92.406C175.853 89.186 175.799 88.662 177.168 86.707C177.998 85.524 178.676 82.925 178.676 80.932C178.676 78.521 179.379 76.674 180.778 75.407C183.834 72.642 185.928 68.099 185.406 65.368C185.052 63.515 185.672 62.547 188.226 60.969C190.026 59.857 191.983 57.558 192.575 55.861C193.332 53.689 194.109 52.952 195.199 53.371C197.292 54.174 204.822 51.49 205.905 49.555C207.047 47.515 209.067 47.538 208.283 49.582ZM297.426 51.637C298.664 52.998 299.676 55.232 299.676 56.601C299.676 60.112 295.472 64 291.676 64C287.953 64 283.676 60.133 283.676 56.768C283.676 53.836 286.242 50.115 289.033 49.001C291.974 47.827 294.757 48.701 297.426 51.637ZM219.676 54.335C219.676 58.572 215.24 60.589 212.687 57.513C211.074 55.57 212.182 51.259 214.427 50.748C217.158 50.126 219.676 51.847 219.676 54.335ZM161.793 60C163.477 60 163.589 60.294 162.605 62.133C161.961 63.337 161.725 65.906 162.065 68.028C162.521 70.886 162.296 71.932 161.126 72.381C159.122 73.15 156.425 79.635 157.154 81.932C157.479 82.954 157.022 84.298 156.086 85.074C153.549 87.181 146.676 98.192 146.676 100.152C146.676 101.117 147.192 103.039 147.823 104.423C149.264 107.585 147.81 109.584 142.261 112.072C138.494 113.761 138.212 113.755 134.802 111.927C130.126 109.422 128.091 103.479 130.355 98.942C131.342 96.964 131.627 94.671 131.201 92.149C130.734 89.381 130.966 88.004 132.053 87.102C132.875 86.42 133.852 84.477 134.223 82.785C134.595 81.092 136.649 78.043 138.788 76.009C140.926 73.974 142.676 71.658 142.676 70.862C142.676 69.991 144.472 68.935 147.184 68.209C150.635 67.286 152.336 66.072 154.434 63.036C155.98 60.799 157.757 59.271 158.508 59.534C159.24 59.79 160.719 60 161.793 60ZM178.041 61.073C181.496 63.79 181.562 68.205 178.198 71.569C173.903 75.864 166.661 72.733 166.691 66.595C166.709 63.026 167.39 61.775 170.176 60.195C173.113 58.529 175.088 58.75 178.041 61.073ZM210.626 60.44C214.407 64.995 208.075 71.481 203.706 67.527C201.441 65.477 201.05 62.026 202.876 60.2C204.528 58.548 209.175 58.692 210.626 60.44ZM229.105 60.571C231.155 62.621 231.088 64.269 228.845 67.04C225.16 71.59 217.827 66.324 220.608 61.126C221.983 58.558 226.778 58.245 229.105 60.571ZM267.041 61.073C270.073 63.458 270.508 67.368 268.119 70.777C266.965 72.426 265.559 73 262.676 73C258.242 73 255.676 70.379 255.676 65.85C255.676 62.912 259.674 59 262.676 59C263.628 59 265.592 59.933 267.041 61.073ZM279.676 59.923C279.676 62.193 285.132 67.046 288.793 68.031C291.445 68.746 293.056 69.869 293.644 71.415C294.127 72.687 296.08 75.027 297.983 76.614C299.991 78.289 301.728 80.834 302.123 82.681C302.498 84.43 303.448 86.395 304.233 87.048C305.239 87.882 305.482 89.359 305.055 92.034C304.649 94.572 304.976 96.894 306.039 99.025C307.169 101.292 307.347 102.745 306.653 104.042C306.116 105.047 305.676 106.798 305.676 107.934C305.676 109.07 305.107 110 304.411 110C303.716 110 301.458 110.905 299.394 112.011C295.669 114.008 295.612 114.008 291.842 112.084C286.185 109.199 285.277 107.74 286.613 103.691C287.944 99.659 287.513 98.297 282.504 90.679C279.916 86.744 278.676 83.732 278.676 81.38C278.676 77.535 276.235 72 274.539 72C273.847 72 273.683 70.774 274.087 68.623C274.435 66.766 274.282 64.094 273.746 62.685C272.865 60.366 273.028 60.085 275.474 59.712C276.96 59.485 278.513 59.232 278.926 59.15C279.339 59.067 279.676 59.415 279.676 59.923ZM28.2267 62.438C29.2117 63.941 29.6997 66.405 29.4997 68.861C29.1777 72.817 29.3487 73.029 52.6757 97.658C65.6007 111.304 89.9557 136.893 106.799 154.523L137.421 186.575L130.691 192.205L123.961 197.834L109.165 182.167C101.027 173.55 90.4817 162.45 85.7327 157.5C80.9827 152.55 63.7547 134.501 47.4467 117.391L17.7967 86.282L12.8727 86.755C8.5597 87.17 7.7457 86.938 6.3127 84.892C3.8217 81.336 4.3137 76.164 7.7037 70.253C11.4267 63.761 16.6497 60.139 22.4027 60.059C25.8157 60.011 26.9377 60.469 28.2267 62.438ZM136.676 62C137.787 63.111 138.676 65.333 138.676 67C138.676 73.9 130.666 76.658 125.926 71.389C123.13 68.282 123.084 66.022 125.749 62.635C128.346 59.333 133.698 59.022 136.676 62ZM310.603 62.635C313.284 66.043 313.22 68.256 310.343 71.601C305.78 76.905 297.676 73.891 297.676 66.889C297.676 60.304 306.488 57.404 310.603 62.635ZM218.63 68.445C219.29 69.24 219.682 70.927 219.503 72.195C218.904 76.422 211.676 75.39 211.676 71.078C211.676 67.399 216.307 65.646 218.63 68.445ZM127.453 75.557C129.006 76.644 129.676 78.134 129.676 80.5C129.676 86.342 122.822 89.146 118.676 85C112.892 79.216 120.694 70.822 127.453 75.557ZM172.926 77.198C176.407 81.224 173.768 87 168.448 87C161.862 87 159.25 80.053 164.333 76.055C167.352 73.68 170.214 74.061 172.926 77.198ZM209.453 75.557C213.253 78.218 211.443 85 206.933 85C204.514 85 201.676 81.978 201.676 79.402C201.676 77.459 204.878 74 206.676 74C206.981 74 208.231 74.701 209.453 75.557ZM229.779 77.772C231.982 83.566 224.489 87.697 221.116 82.549C219.164 79.57 220.009 76.182 222.977 75.084C226.114 73.924 228.705 74.947 229.779 77.772ZM272.041 76.073C276.893 79.889 274.378 87 268.176 87C262.079 87 259.724 80.861 264.131 76.455C267.125 73.46 268.627 73.387 272.041 76.073ZM317.637 76.189C320.225 78.966 320.24 82.436 317.676 85C313.647 89.029 306.676 86.35 306.676 80.772C306.676 74.491 313.426 71.669 317.637 76.189ZM218.171 81.636C219.083 81.986 220.234 83.336 220.728 84.636C221.259 86.035 222.444 87 223.628 87C226.554 87 229.119 91.303 227.735 93.89C227.139 95.003 225.869 96.387 224.914 96.965C223.352 97.91 223.525 98.318 226.619 100.992C231.844 105.508 238.337 107.272 247.986 106.797C252.692 106.565 257.85 105.66 260.111 104.67C264.017 102.96 264.03 102.936 261.861 101.417C257.351 98.258 259.819 92 265.575 92C266.692 92 268.087 91.1 268.676 90C270.729 86.163 277.676 87.943 277.676 92.306C277.676 93.354 278.801 95.097 280.176 96.179C282.974 98.379 283.451 102.112 281.176 104C279.026 105.785 279.3 107.143 282.525 110.673C285.768 114.224 290.593 116.959 295.624 118.098C298.43 118.733 299.319 118.527 300.394 116.992C301.486 115.433 302.676 115.174 307.215 115.505C313.892 115.991 314.676 116.422 314.676 119.61C314.676 122.998 309.678 125 301.219 125C289.803 125 280.497 120.071 274.619 110.911L271.452 105.975L268.138 108.023C266.316 109.15 262.447 110.88 259.54 111.867L254.256 113.664L263.716 115.952C268.919 117.211 277.676 119.855 283.176 121.827C297.153 126.841 300.248 130.461 295.603 136.365C294.099 138.278 292.61 139 290.171 139C287.76 139 286.642 139.531 286.214 140.881C285.587 142.857 281.863 144 276.051 144C274.195 144 272.676 144.244 272.676 144.543C272.676 144.842 274.41 147.429 276.53 150.293C278.649 153.157 280.692 156.175 281.069 157C281.446 157.825 282.405 159.625 283.2 161C285.238 164.523 285.021 168.292 282.603 171.365C280.004 174.67 277.474 174.685 270.138 171.441C266.955 170.033 259.136 167.502 252.763 165.815C242.658 163.142 238.994 162.686 224.121 162.254C203.118 161.643 191.151 163.302 174.676 169.108C158.842 174.689 158.406 174.743 155.821 171.457C153.511 168.521 152.993 163.144 154.711 159.934C155.577 158.316 155.413 158 153.711 158C150.92 158 151.092 157.475 155.676 152C157.876 149.372 159.676 146.775 159.676 146.228C159.676 144.915 156.179 144.031 150.926 144.014C146.563 144 146.046 143.543 147.605 141.081C148.269 140.032 147.678 139.25 145.341 138.081C140.941 135.881 139.012 131.662 141.011 128.611C142.85 125.804 157.233 120.146 170.915 116.848C176.271 115.557 180.658 114.213 180.665 113.861C180.671 113.51 179.138 112.934 177.257 112.581C175.377 112.228 171.229 110.623 168.039 109.014C163.845 106.899 162.054 106.423 161.571 107.294C154.463 120.124 144.754 125.609 130.6 124.789C121.901 124.286 119.424 122.969 119.875 119.087C120.148 116.74 120.725 116.426 126.153 115.673C131.501 114.93 132.301 115.054 133.755 116.849C135.081 118.487 136.005 118.715 138.778 118.087C143.941 116.918 148.049 114.479 151.528 110.516C155.098 106.449 155.277 105.744 153.176 104C151.059 102.243 151.314 98.29 153.676 96.268C154.776 95.326 155.676 93.903 155.676 93.106C155.676 90.795 158.777 88 161.341 88C162.636 88 164.466 88.9 165.408 90C166.35 91.1 168.113 92 169.327 92C174.287 92 176.561 98.566 172.569 101.362C170.487 102.821 170.502 102.859 173.819 104.601C178.869 107.254 193.372 107.757 199.458 105.49C205.412 103.273 211.621 98.8 209.608 98.18C204.147 96.498 203.047 90.834 207.67 88.203C209.316 87.267 210.666 86.085 210.67 85.579C210.679 84.156 213.836 81 215.249 81C215.944 81 217.259 81.286 218.171 81.636ZM124.847 89.655C128.837 93.265 125.652 101 120.176 101C118.801 101 116.776 100.1 115.676 99C109.846 93.17 118.729 84.118 124.847 89.655ZM319.276 88.765C321.867 90.495 322.883 94.087 321.633 97.103C319.159 103.076 310.484 101.619 309.856 95.125C309.652 93.021 310.165 91.118 311.261 89.906C312.992 87.994 317.219 87.392 319.276 88.765ZM214.926 90.703C212.86 91.469 213.428 95 215.617 95C216.685 95 217.863 94.507 218.235 93.904C219.095 92.514 216.586 90.088 214.926 90.703ZM161.343 96.667C159.878 98.132 160.721 101 162.617 101C165.17 101 166.152 99.279 164.64 97.456C163.319 95.865 162.371 95.638 161.343 96.667ZM269.343 96.667C267.9 98.11 268.718 101 270.569 101C272.855 101 273.952 98.676 272.398 97.122C271.114 95.838 270.294 95.716 269.343 96.667ZM65.6597 143.011C89.4837 168.13 103.193 182.493 113.068 192.683L120.999 200.866L115.806 206.549C112.949 209.674 108.524 215.216 105.971 218.865C103.418 222.514 100.961 225.925 100.509 226.443C97.7717 229.592 67.2927 189.66 52.4657 163.5C46.1357 152.331 41.6367 143.219 36.1527 130.466C31.9517 120.693 25.6407 103.552 25.6967 102.062C25.7227 101.367 41.3207 117.349 65.6597 143.011ZM212.606 105.277C210.643 107.05 208.168 109.036 207.106 109.691C205.546 110.654 207.478 110.882 217.176 110.882C226.868 110.882 228.807 110.653 227.255 109.691C226.199 109.036 223.669 107.037 221.634 105.25C219.599 103.463 217.538 102.012 217.055 102.027C216.571 102.042 214.57 103.504 212.606 105.277ZM125.03 105.75C126.711 109.039 125.752 112.354 122.639 114.02C119.466 115.718 116.105 114.45 114.684 111.019C112.878 106.659 115.382 103 120.173 103C122.931 103 123.907 103.553 125.03 105.75ZM321.528 106.365C322.748 108.921 322.685 109.513 320.937 111.865C318.178 115.577 314.446 115.794 311.775 112.398C308.184 107.834 310.859 102.719 316.583 103.199C319.388 103.435 320.457 104.119 321.528 106.365ZM197.176 117.056C184.04 118.413 172.507 120.677 161.176 124.122C146.997 128.434 144.849 130.119 148.012 134.445C149.297 136.202 149.658 136.172 157.262 133.681C180.313 126.129 198.75 123.568 224.676 124.317C247.227 124.969 260.066 127.135 279.961 133.641C284.242 135.042 288.405 135.934 289.211 135.625C290.035 135.309 290.676 133.785 290.676 132.14C290.676 129.668 290.065 128.973 286.716 127.633C279.647 124.804 260.424 120.057 249.671 118.485C236.586 116.571 209.108 115.823 197.176 117.056ZM211.429 132.358C209.368 133.536 207.68 134.806 207.679 135.18C207.677 135.554 209.63 136.836 212.019 138.029L216.362 140.198L221.193 137.743L226.023 135.288L221.512 132.644C216.256 129.564 216.316 129.565 211.429 132.358ZM180.176 136.03C168.423 138.498 166.676 139.337 166.676 142.51C166.676 143.94 167.388 145.336 168.294 145.684C169.902 146.301 188.579 142.432 191.926 140.789C193.944 139.798 194.224 136.948 192.476 135.2C191.004 133.728 191.205 133.715 180.176 136.03ZM240.33 135.489C236.628 139.191 238.893 140.783 251.999 143.693C261.476 145.797 263.92 146.042 265.157 145.016C266.833 143.624 267.053 142.142 265.861 140.266C265.43 139.587 261.5 138.154 257.127 137.081C243.756 133.8 242.169 133.65 240.33 135.489ZM289.498 149.974C290.696 151.594 291.676 153.162 291.676 153.46C291.676 153.757 289.961 154 287.864 154C284.8 154 283.623 153.42 281.864 151.04C280.661 149.413 279.676 147.912 279.676 147.704C279.676 147.497 281.396 147.26 283.498 147.178C286.66 147.054 287.697 147.537 289.498 149.974ZM151.676 151C149.914 153.475 148.842 154 145.551 154H141.563L143.335 151C144.872 148.398 145.684 148 149.46 148H153.812L151.676 151ZM205.176 150.087C193.375 151.017 183.016 153.083 172.676 156.571C160.861 160.556 158.223 162.103 157.859 165.259C157.375 169.465 159.581 169.542 170.389 165.699C203.374 153.969 239.441 154.382 270.777 166.848C274.846 168.467 278.513 169.587 278.926 169.337C280.149 168.595 279.779 163.33 278.426 162.211C276.485 160.605 267.076 157.206 257.176 154.534C241.623 150.336 222.631 148.712 205.176 150.087ZM47.2437 165.75C50.9307 172.213 55.0597 179.431 56.4197 181.791C58.7037 185.755 58.8017 186.441 57.7047 190.791C55.2257 200.62 55.3407 211.624 58.0847 227.311C61.0817 244.445 61.4237 259.067 59.1877 274.5C55.6887 298.65 57.9547 313.609 69.1257 340.113L73.5027 350.5L78.5327 351.63C81.2997 352.251 86.5427 352.95 90.1837 353.181C95.8307 353.541 96.7317 353.375 96.3057 352.052C96.0317 351.198 94.6627 347.469 93.2637 343.765C89.8537 334.736 86.7007 318.821 85.9987 307.09C85.2737 294.986 87.1607 276.929 89.6627 272.025C95.7217 260.148 112.418 247.214 124.148 245.311L127.357 244.79L126.89 252.866C126.494 259.703 126.842 262.287 129.154 269.705C134.555 287.025 144.831 303.855 158.916 318.446C163.723 323.426 167.653 327.725 167.649 328C167.646 328.275 163.713 330.853 158.909 333.73C131.356 350.229 113.595 355.533 86.1757 355.453C71.9577 355.411 69.0767 355.104 60.3067 352.695C41.6777 347.578 33.7777 341.781 19.1187 322.476C10.1797 310.704 10.3757 310.573 21.2567 321.055C33.9397 333.272 44.8387 340.817 55.7797 344.955L61.1757 346.995L57.6757 344.28C37.9007 328.941 33.6617 309.07 41.8267 270C44.8047 255.751 45.0667 253.007 45.0647 236L45.0637 217.5L40.8897 201.89C35.6017 182.113 34.8927 174.972 37.1227 163.964C38.7497 155.937 39.3407 154 40.1667 154C40.3717 154 43.5557 159.287 47.2437 165.75ZM222.176 168.254C211.254 176.228 200.741 189.466 195.164 202.268C192.48 208.428 191.938 209.042 188.705 209.582C177.967 211.376 161.154 216.592 152.676 220.758C145.216 224.424 141.698 226.923 136.294 232.396C130.7 238.061 128.736 239.43 125.794 239.713C117.292 240.531 107.543 245.365 98.2897 253.353C91.1407 259.524 91.2177 258.857 99.6647 241.5C121.753 196.114 167.559 166.746 217.176 166.158L225.176 166.063L222.176 168.254ZM252.426 170.184C256.964 171.318 260.674 172.528 260.672 172.873C260.67 173.218 257.633 175.064 253.922 176.975C246.073 181.019 232.752 193.663 227.93 201.646L224.822 206.792L234.999 213.534C248.297 222.344 269.386 238.182 278.074 245.885C281.868 249.248 285.339 252 285.788 252C286.236 252 289.926 248.199 293.988 243.553C304.668 231.336 311.628 217.042 311.664 207.25C311.671 205.463 312.035 204 312.473 204C313.521 204 319.256 210.064 325.037 217.284L329.667 223.067L326.043 230.284C320.428 241.465 310.962 254.666 302.168 263.577L294.161 271.692L284.168 272.904C273.268 274.226 256.773 277.858 246.921 281.105L240.667 283.166L236.421 280.052C224.169 271.064 209.354 253.452 203.282 240.656C195.235 223.697 194.818 215.407 201.336 201.901C208.171 187.738 216.555 178.162 229.247 170.022C234.879 166.409 237.396 166.427 252.426 170.184ZM278.699 180.012C286.088 183.727 286.586 184.171 285.437 186.012C283.935 188.416 282.827 188.495 279.852 186.411C275.142 183.112 272.711 187.309 277.26 190.887C279.88 192.949 279.831 193.799 276.896 197.22C275.516 198.829 275.141 198.74 271.131 195.86C268.772 194.166 266.354 193.081 265.759 193.449C263.638 194.759 264.729 197.778 268.169 200.121C272.407 203.007 272.494 204.053 268.839 208.144L266.001 211.32L261.408 208.16C256.155 204.545 253.676 204.147 253.676 206.916C253.676 208.43 257.301 211.998 262.535 215.635C262.733 215.773 261.866 217.373 260.609 219.192C259.352 221.012 258.239 222.627 258.135 222.782C258.031 222.936 253.257 219.786 247.525 215.782C241.794 211.777 236 207.773 234.649 206.884C232.322 205.352 232.272 205.121 233.685 202.426C234.505 200.862 238.402 196.345 242.346 192.388C247.842 186.872 251.658 184.121 258.697 180.597C263.747 178.068 268.519 176 269.3 176C270.081 176 274.311 177.805 278.699 180.012ZM299.471 192.625L306.945 198.25L306.421 205.875C305.598 217.868 299.586 230.05 288.714 241.759L285.688 245.018L274.432 235.946C268.241 230.956 263.066 226.565 262.931 226.187C262.797 225.809 263.745 224.177 265.039 222.56L267.391 219.62L272.553 223.41C275.462 225.545 278.361 226.951 279.196 226.631C281.578 225.717 280.902 222.571 277.926 220.726C276.414 219.788 274.127 218.127 272.844 217.034L270.512 215.047L273.344 211.045C274.902 208.844 276.517 207.033 276.935 207.021C277.352 207.01 279.556 208.35 281.833 209.999C285.014 212.303 286.286 212.738 287.325 211.877C289.493 210.077 288.892 208.683 284.655 205.685C280.117 202.475 279.989 202.07 282.526 198.937L284.376 196.652L288.052 198.923C294.614 202.979 297.304 199.242 291.183 194.573C287.794 191.988 287.738 191.836 289.298 189.454C290.182 188.104 291.152 187 291.452 187C291.752 187 295.361 189.531 299.471 192.625ZM191.676 219.818C191.676 229.27 198.02 244.605 207.351 257.706C212.391 264.784 224.429 277.512 231.021 282.735L234.866 285.781L223.021 291.931C216.506 295.314 202.717 303.913 192.377 311.041C182.038 318.168 173.178 324 172.688 324C170.894 324 155.698 307.835 150.388 300.278C140.161 285.723 132.966 268.995 131.988 257.5C130.753 242.989 140.302 231.338 160.226 223.044C168.134 219.752 184.528 215.201 188.926 215.077C191.556 215.003 191.676 215.21 191.676 219.818ZM339.118 239.5C349.422 259.604 354.305 282.116 353.399 305.325C353.101 312.929 352.63 319.38 352.35 319.659C351.005 321.005 315.124 294.339 304.246 283.908L296.315 276.305L303.579 269.453C312.196 261.324 321.804 248.801 328.287 237.251C330.865 232.657 333.319 229.259 333.74 229.699C334.161 230.14 336.581 234.55 339.118 239.5ZM325.36 306.25L333.176 312.5L319.676 313.139C297.541 314.186 282.012 317.568 262.228 325.651C244.683 332.819 235.12 338.53 213.676 354.646C206.251 360.226 196.395 367.136 191.774 370.001C182.906 375.499 164.163 385 162.185 385C161.543 385 157.453 382.961 153.097 380.47C148.74 377.978 144.163 375.679 142.926 375.361C141.688 375.043 140.682 374.494 140.688 374.142C140.695 373.789 143.958 372.203 147.938 370.618C155.598 367.567 169.518 360.114 178.676 354.159C183.827 350.809 190.872 345.676 205.176 334.851C230.824 315.441 266.875 302.948 302.676 301.065C310.651 300.646 317.259 300.235 317.36 300.151C317.462 300.068 321.062 302.813 325.36 306.25ZM374.848 342.708L381.913 348.417L368.32 350.123C331.576 354.733 315.431 361.078 269.949 388.781C243.226 405.058 209.781 420.36 194.155 423.459C191.258 424.034 191.001 423.789 187.905 417.51C186.129 413.909 184.676 410.746 184.676 410.481C184.676 410.216 185.54 410 186.596 410C189.194 410 204.991 404.373 211.176 401.244C220.054 396.753 230.726 389.998 252.676 374.973C276.686 358.538 286.532 352.706 298.933 347.572C316.388 340.347 332.681 337.246 353.979 337.097L367.783 337L374.848 342.708ZM407.682 376.928C411.068 380.738 413.814 384.201 413.784 384.624C413.725 385.445 412.987 385.554 402.176 386.347C373.508 388.449 338.804 403.208 310.176 425.475C282.197 447.237 252.632 462.667 225.961 469.428C216.421 471.846 195.982 474.639 195.001 473.658C194.759 473.416 195.149 469.061 195.868 463.98L197.176 454.742L210.176 451.449C243.473 443.016 267.347 432.14 299.402 410.801C337.391 385.513 355.138 376.666 377.176 372.033C382.126 370.992 389.629 370.109 393.85 370.07L401.525 370L407.682 376.928ZM123.529 374.46C165.955 383.438 195.203 421.933 190.591 462.723C189.723 470.395 185.849 484.695 183.765 487.921C182.327 490.146 178.714 487.348 165.176 473.529C151.704 459.777 143.858 454.185 124.702 444.686C115.486 440.115 110.573 436.953 105.888 432.575C97.9647 425.172 88.4567 412.579 81.5097 400.287C78.5757 395.097 73.9837 388.389 71.3047 385.379C68.6257 382.37 66.6817 379.661 66.9837 379.358C68.0747 378.268 84.3177 373.932 90.6757 373.035C99.1297 371.841 114.255 372.497 123.529 374.46ZM123.476 378.2C125.479 380.203 124.845 381 121.247 381C117.514 381 114.676 383.121 114.676 385.912C114.676 390.16 120.897 399.876 128.07 406.831C136.332 414.843 142.618 418.218 152.676 420.045C162.796 421.883 167.218 423.783 172.57 428.594C178.536 433.959 183.108 442.324 181.607 445.129C179.399 449.254 171.181 446.148 158.919 436.553C154.95 433.448 151.942 431.49 152.235 432.203C152.527 432.917 159.083 439.8 166.803 447.5C176.432 457.104 180.32 460.451 179.185 458.16C177.167 454.085 177.806 452 181.073 452C196.368 452 175.172 416.974 153.797 406.927C151.375 405.788 145.857 404.235 141.534 403.475C131.639 401.735 127.49 399.769 123.243 394.807C119.26 390.154 118.443 387.701 120.115 385.414C121.18 383.958 121.833 383.897 125.038 384.955C127.071 385.625 131.041 387.727 133.862 389.625C141.862 395.008 141.753 394.721 132.332 385.581C127.468 380.861 123.216 377 122.882 377C122.549 377 122.816 377.54 123.476 378.2ZM95.7587 378.5C95.7477 379.05 96.3997 380.374 97.2077 381.441C99.3837 384.318 99.0317 385 95.3667 385C90.1587 385 88.2457 386.964 88.9897 391.546C89.8797 397.033 95.4957 404.635 106.262 414.928C116.226 424.453 123.449 429.058 135.964 433.864C140.247 435.508 145.697 437.995 148.076 439.389C153.316 442.46 158.676 448.348 158.676 451.035C158.676 455.405 150.131 452.345 139.462 444.154C135.77 441.319 132.409 439 131.995 439C131.58 439 135.231 442.712 140.108 447.25C148.539 455.095 151.799 457.626 150.256 455.13C149.423 453.781 149.953 453.764 155.176 454.975C160.541 456.219 164.167 454.092 163.207 450.266C161.647 444.051 150.419 431.843 140.676 425.769C137.651 423.883 130.451 420.639 124.676 418.56C112.214 414.073 106.5 410.658 100.219 403.943C95.6707 399.08 92.3867 393.277 93.3237 391.76C93.5827 391.342 94.9647 391 96.3967 391C100.185 391 106.852 395.104 121.365 406.368C127.152 410.86 123.573 406.419 110.17 392.474C102.254 384.238 95.7687 377.95 95.7587 378.5ZM394.886 457.211C405.176 467.907 414.073 477.914 414.657 479.45C416.806 485.103 410.015 491.316 403.493 489.663C401.236 489.091 353.676 439.892 353.676 438.129C353.676 437.643 356.714 435.135 360.426 432.555L367.176 427.865L371.676 432.815C374.151 435.537 384.595 446.516 394.886 457.211Z" fill="white"/>
</svg>
