<svg width="76" height="61" viewBox="0 0 55 61" fill="none" xmlns="http://www.w3.org/2000/svg">
<path fill-rule="evenodd" clip-rule="evenodd" d="M25.3582 0.601517C25.3661 0.650966 25.3661 0.947299 25.3582 1.26004L25.3441 1.82876H24.7454H24.1468V2.36755V2.90633H24.7454C25.3314 2.90633 25.3441 2.914 25.3441 3.2672C25.3441 3.52271 25.2312 3.72888 24.9577 3.97337C24.6109 4.28324 24.5468 4.30144 24.3324 4.15129C23.926 3.86657 23.1398 3.93985 22.7089 4.30251C22.5006 4.4778 22.2839 4.74288 22.2274 4.89171C22.1539 5.08495 22.0565 5.14446 21.8864 5.09992C21.7554 5.06568 21.4538 5.10184 21.216 5.18038C20.8162 5.31232 20.7607 5.29987 20.4763 5.01551C20.1297 4.66901 19.5528 4.52066 19.0127 4.63932C18.6473 4.71954 17.9208 5.422 17.9208 5.6951C17.9208 5.79316 17.7527 5.82956 17.4119 5.80549C16.7524 5.75904 16.1994 6.09548 15.9918 6.66959C15.8833 6.96963 15.7642 7.09715 15.5919 7.09775C15.2677 7.09871 14.6829 7.4919 14.4909 7.83804C14.4064 7.9901 14.3354 8.28356 14.3331 8.48998C14.3301 8.75865 14.241 8.92292 14.0195 9.06804C13.627 9.32522 13.3813 9.91741 13.4584 10.4205C13.4913 10.6352 13.4559 10.8859 13.3798 10.9776C13.0914 11.325 13.013 11.8967 13.1942 12.3302C13.3161 12.6219 13.3326 12.8118 13.2497 12.9667C13.039 13.3603 13.114 14.0018 13.4127 14.3613C13.5673 14.5475 13.7303 14.8494 13.7749 15.0321C13.8195 15.2149 13.9567 15.4651 14.0798 15.5882C14.3103 15.8187 15.2672 16.0767 15.8912 16.0767C16.1777 16.0767 16.2447 16.1277 16.245 16.3461C16.2456 16.6942 16.6413 17.3413 16.9568 17.5101C17.1975 17.6391 17.1938 17.6555 16.7836 18.2646C16.553 18.607 16.3643 18.9514 16.3643 19.0299C16.3643 19.3405 16.7465 19.5489 17.316 19.5489H17.8913L17.8316 20.0798C17.7846 20.4957 17.8353 20.7243 18.0655 21.1362L18.3592 21.6619L17.6312 22.116L16.9031 22.5703L16.0051 21.6158C14.6246 20.1483 10.8346 16.163 9.48515 14.7597C4.03764 9.09509 4.03202 9.08851 4.03202 8.49848C4.03202 7.46053 3.1666 6.88786 2.08675 7.21137C1.7818 7.30273 1.37339 7.58661 0.987862 7.97513C-0.361384 9.33492 -0.321034 11.2087 1.06305 11.4683L1.47253 11.5451L1.07335 13.0027C-0.0450545 17.0876 -0.265958 20.996 0.428959 24.4042C0.758817 26.0213 0.94883 28.256 0.856158 29.4267C0.814372 29.9535 0.617056 31.085 0.417584 31.941C-0.00722032 33.7647 -0.0723532 35.4343 0.235235 36.6186C0.339042 37.018 0.775579 38.0417 1.20553 38.8934C1.63537 39.7451 2.09992 40.8729 2.23785 41.3998C2.38763 41.9718 2.62015 42.5218 2.81519 42.7652C2.99479 42.9893 3.82021 43.6628 4.64935 44.2618C7.30402 46.1795 8.24821 47.1428 9.23791 48.9428C9.88302 50.116 11.1508 51.7889 12.1221 52.7484C12.7977 53.4159 13.201 53.6865 14.3849 54.2665C15.1773 54.6547 16.3353 55.3092 16.9583 55.7211C18.0508 56.4433 18.4453 56.7994 20.0312 58.494C20.8486 59.3674 21.6952 59.9087 22.7705 60.2456C26.7428 61.4902 33.566 59.1561 40.7443 54.0968L41.8369 53.3269L42.6617 54.188C43.1154 54.6616 44.4262 56.0362 45.5744 57.2429C46.7227 58.4494 47.762 59.49 47.8839 59.5552C48.2291 59.74 48.9701 59.7066 49.3945 59.4871C50.1101 59.117 50.4497 58.1749 50.0942 57.5454C50.0142 57.4038 48.7465 56.0196 47.2772 54.4694C45.8079 52.9193 44.601 51.6074 44.5954 51.5541C44.5896 51.5007 45.1183 51.1497 45.7703 50.774C47.009 50.0599 49.0775 49.1948 50.6073 48.7511C51.6172 48.4581 51.8046 48.3473 51.8046 48.0428C51.8046 47.9262 50.9554 46.9763 49.9177 45.9323C48.8799 44.8881 47.277 43.2476 46.3558 42.2865C45.3768 41.2654 44.296 40.2701 43.7554 39.8919L42.8304 39.2446L42.9173 38.646C43.0852 37.4915 43.0065 34.3979 42.782 33.3179C42.2954 30.978 41.2601 28.5549 39.9705 26.7378C38.8025 25.0918 36.7864 23.2061 35.1021 22.1843C34.6412 21.9046 34.2465 21.6602 34.2252 21.6412C34.2039 21.6222 34.2779 21.4299 34.3895 21.214C34.5398 20.9234 34.5763 20.6422 34.5301 20.132L34.4676 19.4426L34.8311 19.4059C35.0311 19.3858 35.2657 19.2616 35.3526 19.1298C35.4904 18.9208 35.467 18.8206 35.1687 18.3414L34.8269 17.7923L35.2422 17.6422C35.7033 17.4754 36.1187 16.9031 36.1194 16.4334C36.1199 16.158 36.1857 16.1191 36.8682 15.99C37.4503 15.8801 37.6896 15.7672 37.9457 15.4819C38.1268 15.2801 38.275 15.037 38.275 14.9415C38.275 14.8461 38.3822 14.7107 38.5133 14.6407C38.892 14.438 39.1464 13.8333 39.0618 13.337C38.9733 12.8173 38.9735 12.7096 39.0659 11.9737C39.1205 11.5383 39.0869 11.3252 38.9244 11.0771C38.779 10.8551 38.7209 10.5683 38.7418 10.1745C38.7696 9.64945 38.7336 9.56049 38.3441 9.19315C38.0649 8.92987 37.9158 8.68011 37.9158 8.47585C37.9158 7.81553 37.2169 7.09691 36.5748 7.09691C36.4828 7.09691 36.3379 6.90462 36.2529 6.66959C36.0577 6.12972 35.5018 5.78095 34.8359 5.78035C34.3935 5.77987 34.3064 5.73413 34.1415 5.41541C33.9029 4.95385 33.3022 4.58364 32.7913 4.58304C32.3368 4.58244 31.7516 4.85268 31.593 5.1362C31.4988 5.3043 31.4239 5.31077 31.0403 5.18421C30.7961 5.10363 30.4893 5.06568 30.3583 5.09992C30.1882 5.14446 30.0908 5.08495 30.0173 4.89171C29.7253 4.12352 28.6989 3.76552 27.9334 4.16482C27.6011 4.33807 27.5735 4.32981 27.125 3.92464C26.8695 3.6938 26.6068 3.50499 26.541 3.50499C26.4754 3.50499 26.4217 3.37029 26.4217 3.20566C26.4217 2.92262 26.4576 2.90633 27.0802 2.90633H27.7387V2.37377V1.84133L27.1101 1.80505L26.4815 1.76889L26.4982 1.14031L26.5148 0.511719H25.9295C25.6075 0.511719 25.3504 0.552068 25.3582 0.601517ZM26.4074 4.11657C27.1689 4.38201 27.3331 5.39673 26.6956 5.89816C26.2518 6.2473 25.7531 6.20731 25.3349 5.78909C24.7931 5.24731 24.8911 4.53168 25.5566 4.17057C25.9571 3.95326 25.9415 3.95422 26.4074 4.11657ZM24.0184 4.638C24.3864 4.82825 24.506 5.03874 24.506 5.49575C24.506 5.89098 24.0007 6.37852 23.5912 6.37852C22.7704 6.37852 22.3775 5.22073 23.0255 4.71103C23.3997 4.41662 23.5667 4.4044 24.0184 4.638ZM29.2407 4.75677C30.0937 5.60961 29.0007 6.87493 28.0542 6.13032C27.5482 5.73234 27.6669 4.82059 28.2553 4.5834C28.6931 4.40704 28.9334 4.4493 29.2407 4.75677ZM20.1657 5.49168C20.8769 6.28765 20.0201 7.44964 19.0294 7.03309C18.2672 6.71257 18.2029 5.73258 18.915 5.29257C19.3787 5.00617 19.7905 5.07178 20.1657 5.49168ZM33.1697 5.22636C33.6972 5.44678 33.9343 5.99347 33.7233 6.50281C33.5416 6.94162 33.2803 7.09691 32.724 7.09691C31.9741 7.09691 31.5528 6.19965 32.002 5.55849C32.1558 5.33878 32.4718 5.12961 32.7413 5.06903C32.7598 5.06496 32.9526 5.13572 33.1697 5.22636ZM22.2264 5.77736C22.5214 5.93528 22.7276 6.5562 22.5981 6.89684C22.2166 7.90018 20.7943 7.67712 20.7943 6.61392C20.7943 5.84656 21.5408 5.4105 22.2264 5.77736ZM31.1733 5.92043C31.7049 6.41995 31.4421 7.35996 30.7269 7.51704C30.0927 7.65641 29.4361 7.02675 29.5873 6.42414C29.7718 5.68923 30.6352 5.41505 31.1733 5.92043ZM28.2717 6.84057C28.5152 6.90785 28.7784 6.93827 28.8567 6.90821C28.9351 6.87816 29.1034 7.0471 29.2309 7.28381C29.3583 7.5204 29.6162 7.7935 29.8041 7.8906C30.0543 8.02003 30.1265 8.12719 30.0743 8.2917C29.9841 8.57582 30.3078 9.36353 30.5984 9.56707C30.7506 9.67375 30.819 9.87107 30.819 10.2032C30.819 10.4682 30.8882 10.7681 30.9726 10.87C31.1011 11.0246 31.0791 11.1053 30.8394 11.3605C30.6264 11.5872 30.5524 11.8017 30.5524 12.1923V12.7185L30.0342 12.7962C29.3995 12.8914 28.6652 12.799 28.0652 12.5482C27.6573 12.3779 27.6268 12.3349 27.7497 12.1049C27.8255 11.9635 27.8568 11.632 27.8201 11.3593C27.7759 11.0307 27.8109 10.7917 27.926 10.636C28.1666 10.3106 28.14 9.6898 27.8711 9.35778C27.6487 9.08312 27.6487 9.07247 27.8711 8.78966C28.2168 8.35025 28.1657 7.74501 27.7479 7.32715C27.5554 7.13462 27.2843 6.97718 27.1456 6.97718C26.7624 6.97718 26.6935 6.62505 27.0273 6.37338C27.3032 6.16504 27.318 6.16684 27.57 6.43887C27.7125 6.5926 28.0282 6.7734 28.2717 6.84057ZM17.9399 6.58111C18.2391 6.84332 18.3078 7.29458 18.1073 7.68203C17.8075 8.26177 17.1319 8.35432 16.6582 7.88055C16.2839 7.50627 16.2734 6.98185 16.6337 6.65414C17.1013 6.22862 17.5118 6.20563 17.9399 6.58111ZM24.9378 6.44821C24.8979 6.55237 24.8652 6.68635 24.8652 6.74586C24.8652 6.80548 24.6901 6.92833 24.476 7.01896C23.6552 7.3663 23.3861 8.14563 23.8451 8.84617C24.0339 9.13425 24.0332 9.16669 23.8333 9.38748C23.572 9.67615 23.5733 10.3471 23.836 10.7479C23.9413 10.9088 24.0182 11.2172 24.0068 11.4333C23.9953 11.6494 24.0255 11.9643 24.0737 12.133C24.1461 12.386 24.1105 12.4629 23.8703 12.5723C23.4152 12.7797 22.5232 12.8791 21.9241 12.7893C21.3932 12.7096 21.3799 12.6973 21.4554 12.3537C21.5104 12.1031 21.46 11.8766 21.2825 11.5756C21.055 11.19 21.0485 11.1273 21.2124 10.8932C21.3118 10.7516 21.393 10.4404 21.393 10.2018C21.393 9.9131 21.4771 9.69195 21.6446 9.54025C22.0105 9.2092 22.2613 8.66526 22.1988 8.33828C22.1564 8.11642 22.2306 8.00052 22.5364 7.81158C22.7519 7.67844 22.9862 7.40318 23.0571 7.2C23.1477 6.93994 23.2408 6.8517 23.3713 6.90187C23.6219 6.99801 24.5235 6.67665 24.6531 6.44497C24.7899 6.20072 25.0317 6.20348 24.9378 6.44821ZM35.611 6.69425C35.7592 6.85721 35.8804 7.12469 35.8804 7.2886C35.8804 7.70897 35.377 8.17449 34.9225 8.17449C34.4768 8.17449 33.9647 7.71149 33.9647 7.30859C33.9647 6.95754 34.2719 6.51202 34.6061 6.37864C34.9582 6.23808 35.2914 6.34272 35.611 6.69425ZM26.3019 7.01729C26.3019 7.52459 25.7708 7.76608 25.4651 7.39779C25.272 7.16516 25.4047 6.649 25.6735 6.58781C26.0005 6.51334 26.3019 6.7194 26.3019 7.01729ZM19.3716 7.69556C19.5732 7.69556 19.5866 7.73076 19.4688 7.95095C19.3917 8.0951 19.3634 8.40269 19.4041 8.65676C19.4587 8.99895 19.4318 9.12419 19.2917 9.17795C19.0518 9.27002 18.7288 10.0465 18.8161 10.3215C18.855 10.4439 18.8003 10.6048 18.6883 10.6977C18.3845 10.95 17.5616 12.2683 17.5616 12.503C17.5616 12.6185 17.6234 12.8487 17.6989 13.0144C17.8715 13.3929 17.6974 13.6323 17.033 13.9302C16.582 14.1324 16.5482 14.1317 16.1399 13.9128C15.58 13.6129 15.3364 12.9013 15.6075 12.3581C15.7256 12.1213 15.7598 11.8467 15.7088 11.5448C15.6528 11.2134 15.6806 11.0485 15.8108 10.9405C15.9092 10.8588 16.0262 10.6262 16.0706 10.4236C16.1151 10.2209 16.361 9.85586 16.6172 9.61233C16.8731 9.36868 17.0827 9.09138 17.0827 8.99608C17.0827 8.89179 17.2977 8.76536 17.6224 8.67843C18.0356 8.56792 18.2393 8.42257 18.4905 8.05907C18.6756 7.79123 18.8883 7.60828 18.9782 7.63977C19.0659 7.67042 19.243 7.69556 19.3716 7.69556ZM21.3169 7.82403C21.7306 8.14934 21.7385 8.67795 21.3357 9.08073C20.8215 9.59497 19.9544 9.22009 19.958 8.48519C19.9602 8.05787 20.0417 7.90808 20.3753 7.71891C20.7269 7.51944 20.9634 7.5459 21.3169 7.82403ZM25.2184 7.74824C25.6711 8.29362 24.9129 9.07019 24.3898 8.59678C24.1186 8.35133 24.0718 7.93814 24.2905 7.71951C24.4883 7.52171 25.0446 7.53895 25.2184 7.74824ZM27.4309 7.76393C27.6763 8.00938 27.6683 8.20669 27.3997 8.53847C26.9585 9.08324 26.0806 8.45274 26.4135 7.83038C26.5782 7.52291 27.1523 7.48543 27.4309 7.76393ZM31.973 7.82403C32.336 8.10959 32.3881 8.57774 32.102 8.9859C31.9639 9.18334 31.7955 9.25206 31.4504 9.25206C30.9195 9.25206 30.6122 8.93825 30.6122 8.39599C30.6122 8.04422 31.0909 7.57583 31.4504 7.57583C31.5643 7.57583 31.7995 7.68754 31.973 7.82403ZM33.4858 7.68634C33.4858 7.95813 34.139 8.53918 34.5774 8.65712C34.8949 8.74273 35.0878 8.87718 35.1582 9.06229C35.216 9.21459 35.4498 9.49476 35.6777 9.68477C35.9181 9.88532 36.1261 10.19 36.1734 10.4112C36.2183 10.6206 36.332 10.8559 36.426 10.934C36.5465 11.0339 36.5755 11.2107 36.5244 11.531C36.4758 11.8349 36.515 12.1129 36.6422 12.3681C36.7775 12.6395 36.7988 12.8135 36.7158 12.9687C36.6515 13.0891 36.5988 13.2987 36.5988 13.4347C36.5988 13.5707 36.5306 13.6821 36.4473 13.6821C36.3641 13.6821 36.0937 13.7905 35.8466 13.9229C35.4006 14.162 35.3938 14.162 34.9424 13.9316C34.2651 13.5862 34.1564 13.4115 34.3163 12.9267C34.4757 12.444 34.4241 12.2809 33.8244 11.3688C33.5145 10.8976 33.366 10.537 33.366 10.2554C33.366 9.79504 33.0738 9.13233 32.8707 9.13233C32.7879 9.13233 32.7682 8.98554 32.8166 8.728C32.8583 8.50566 32.8399 8.18574 32.7758 8.01704C32.6703 7.73938 32.6898 7.70574 32.9827 7.66108C33.1606 7.6339 33.3465 7.60361 33.396 7.59379C33.4454 7.58385 33.4858 7.62552 33.4858 7.68634ZM3.3796 7.98747C3.49754 8.16742 3.55597 8.46244 3.53202 8.7565C3.49347 9.23015 3.51394 9.25553 6.3069 12.2044C7.85442 13.8382 10.7705 16.902 12.7871 19.0129L16.4535 22.8505L15.6477 23.5246L14.8419 24.1985L13.0704 22.3227C12.096 21.291 10.8334 19.962 10.2648 19.3693C9.69612 18.7766 7.6334 16.6156 5.68083 14.567L2.13081 10.8423L1.54126 10.899C1.02486 10.9486 0.927398 10.9209 0.755824 10.6759C0.457575 10.2501 0.516482 9.63089 0.92237 8.92316C1.36813 8.14587 1.99348 7.7122 2.68229 7.70263C3.09093 7.69688 3.22527 7.75172 3.3796 7.98747ZM16.3643 7.93502C16.4973 8.06804 16.6037 8.33409 16.6037 8.53368C16.6037 9.35982 15.6447 9.69004 15.0772 9.05918C14.7424 8.68717 14.7369 8.41658 15.056 8.01105C15.3669 7.6157 16.0077 7.57847 16.3643 7.93502ZM37.1887 8.01105C37.5097 8.4191 37.502 8.68406 37.1576 9.08456C36.6112 9.71961 35.6409 9.35874 35.6409 8.52039C35.6409 7.73196 36.696 7.38474 37.1887 8.01105ZM26.1767 8.70669C26.2557 8.80187 26.3027 9.00386 26.2812 9.15568C26.2095 9.66178 25.3441 9.53822 25.3441 9.02194C25.3441 8.58145 25.8986 8.37156 26.1767 8.70669ZM15.26 9.55821C15.4459 9.68836 15.5262 9.86676 15.5262 10.15C15.5262 10.8495 14.7055 11.1852 14.2091 10.6888C13.5166 9.99631 14.4507 8.99129 15.26 9.55821ZM20.7045 9.75469C21.1213 10.2367 20.8053 10.9283 20.1684 10.9283C19.3798 10.9283 19.0671 10.0965 19.6757 9.61784C20.0371 9.33348 20.3798 9.3791 20.7045 9.75469ZM25.0779 9.55821C25.5329 9.87682 25.3162 10.6888 24.7762 10.6888C24.4866 10.6888 24.1468 10.327 24.1468 10.0186C24.1468 9.78594 24.5302 9.37179 24.7454 9.37179C24.782 9.37179 24.9316 9.45572 25.0779 9.55821ZM27.5116 9.82342C27.7753 10.5171 26.8782 11.0117 26.4743 10.3954C26.2406 10.0387 26.3418 9.63304 26.6972 9.50158C27.0728 9.36269 27.383 9.48518 27.5116 9.82342ZM32.5716 9.61999C33.1526 10.0769 32.8514 10.9283 32.1089 10.9283C31.3789 10.9283 31.0969 10.1933 31.6246 9.66573C31.983 9.30714 32.1629 9.2984 32.5716 9.61999ZM38.0309 9.63388C38.3407 9.96638 38.3425 10.3818 38.0355 10.6888C37.5531 11.1712 36.7185 10.8505 36.7185 10.1826C36.7185 9.43058 37.5267 9.0927 38.0309 9.63388ZM26.1217 10.2861C26.2309 10.328 26.3687 10.4896 26.4279 10.6452C26.4915 10.8128 26.6333 10.9283 26.7751 10.9283C27.1254 10.9283 27.4325 11.4435 27.2668 11.7532C27.1955 11.8865 27.0434 12.0522 26.9291 12.1214C26.7421 12.2346 26.7628 12.2834 27.1332 12.6036C27.7588 13.1443 28.5362 13.3555 29.6915 13.2986C30.255 13.2708 30.8725 13.1625 31.1432 13.0439C31.6109 12.8392 31.6125 12.8363 31.3528 12.6545C30.8128 12.2762 31.1083 11.5269 31.7975 11.5269C31.9312 11.5269 32.0982 11.4192 32.1687 11.2875C32.4145 10.8281 33.2463 11.0412 33.2463 11.5636C33.2463 11.6891 33.381 11.8978 33.5456 12.0273C33.8806 12.2907 33.9378 12.7377 33.6654 12.9637C33.408 13.1774 33.4408 13.34 33.8269 13.7627C34.2152 14.1878 34.7929 14.5153 35.3952 14.6517C35.7312 14.7277 35.8376 14.703 35.9664 14.5193C36.0971 14.3326 36.2396 14.3016 36.783 14.3412C37.5825 14.3994 37.6764 14.451 37.6764 14.8327C37.6764 15.2384 37.0779 15.4781 36.0651 15.4781C34.6983 15.4781 33.5841 14.8879 32.8803 13.7912L32.5011 13.2002L32.1043 13.4454C31.8862 13.5803 31.4229 13.7875 31.0749 13.9056L30.4422 14.1208L31.5749 14.3947C32.1978 14.5455 33.2463 14.862 33.9048 15.0982C35.5783 15.6985 35.9489 16.1319 35.3927 16.8388C35.2127 17.0678 35.0344 17.1543 34.7423 17.1543C34.4537 17.1543 34.3198 17.2179 34.2686 17.3795C34.1935 17.6161 33.7476 17.7529 33.0518 17.7529C32.8295 17.7529 32.6477 17.7822 32.6477 17.818C32.6477 17.8538 32.8553 18.1635 33.1091 18.5064C33.3628 18.8493 33.6074 19.2107 33.6526 19.3094C33.6977 19.4082 33.8125 19.6237 33.9077 19.7884C34.1517 20.2102 34.1257 20.6614 33.8362 21.0294C33.525 21.4251 33.2221 21.4269 32.3438 21.0385C31.9627 20.8699 31.0265 20.5669 30.2635 20.3649C29.0536 20.0448 28.6149 19.9902 26.8341 19.9385C24.3194 19.8654 22.8866 20.064 20.9141 20.7591C19.0182 21.4274 18.966 21.4338 18.6565 21.0404C18.3799 20.6889 18.3179 20.0451 18.5236 19.6607C18.6273 19.467 18.6077 19.4292 18.4039 19.4292C18.0697 19.4292 18.0903 19.3663 18.6392 18.7108C18.9026 18.3961 19.1181 18.0852 19.1181 18.0197C19.1181 17.8625 18.6994 17.7567 18.0704 17.7546C17.5481 17.7529 17.4862 17.6982 17.6728 17.4034C17.7523 17.2779 17.6816 17.1842 17.4017 17.0443C16.8749 16.7808 16.644 16.2757 16.8833 15.9104C17.1035 15.5743 18.8256 14.8969 20.4637 14.502C21.105 14.3474 21.6303 14.1865 21.6311 14.1444C21.6318 14.1024 21.4483 14.0334 21.2231 13.9911C20.998 13.9489 20.5013 13.7567 20.1194 13.564C19.6172 13.3108 19.4028 13.2538 19.345 13.3581C18.4939 14.8943 17.3315 15.551 15.6368 15.4528C14.5953 15.3926 14.2987 15.2349 14.3527 14.7701C14.3854 14.4891 14.4545 14.4515 15.1044 14.3613C15.7447 14.2724 15.8405 14.2872 16.0145 14.5021C16.1733 14.6983 16.2839 14.7256 16.616 14.6504C17.2341 14.5104 17.726 14.2184 18.1425 13.7439C18.57 13.2569 18.5914 13.1725 18.3398 12.9637C18.0864 12.7533 18.1169 12.2801 18.3997 12.038C18.5314 11.9252 18.6392 11.7548 18.6392 11.6594C18.6392 11.3827 19.0105 11.048 19.3174 11.048C19.4725 11.048 19.6916 11.1558 19.8044 11.2875C19.9172 11.4192 20.1283 11.5269 20.2736 11.5269C20.8675 11.5269 21.1397 12.3131 20.6618 12.6479C20.4125 12.8226 20.4143 12.8271 20.8114 13.0357C21.4161 13.3533 23.1525 13.4135 23.8812 13.1421C24.5941 12.8767 25.3375 12.3411 25.0965 12.2669C24.4426 12.0655 24.3109 11.3873 24.8644 11.0723C25.0615 10.9603 25.2232 10.8187 25.2236 10.7582C25.2247 10.5878 25.6027 10.2099 25.7719 10.2099C25.8551 10.2099 26.0125 10.2442 26.1217 10.2861ZM14.948 11.2462C15.4257 11.6784 15.0444 12.6045 14.3887 12.6045C14.2241 12.6045 13.9816 12.4968 13.8499 12.3651C13.1519 11.667 14.2155 10.5832 14.948 11.2462ZM38.2271 11.1396C38.5373 11.3468 38.659 11.7768 38.5093 12.1379C38.2131 12.8531 37.1744 12.6786 37.0992 11.9011C37.0748 11.6492 37.1362 11.4213 37.2675 11.2762C37.4747 11.0473 37.9808 10.9752 38.2271 11.1396ZM25.7332 11.3717C25.4858 11.4634 25.5539 11.8861 25.8159 11.8861C25.9438 11.8861 26.0849 11.8271 26.1294 11.7549C26.2324 11.5885 25.932 11.298 25.7332 11.3717ZM19.3177 12.0857C19.1423 12.2611 19.2432 12.6045 19.4702 12.6045C19.7759 12.6045 19.8935 12.3985 19.7124 12.1802C19.5543 11.9897 19.4408 11.9625 19.3177 12.0857ZM32.2486 12.0857C32.0758 12.2585 32.1738 12.6045 32.3954 12.6045C32.6691 12.6045 32.8004 12.3263 32.6144 12.1402C32.4606 11.9865 32.3625 11.9719 32.2486 12.0857ZM7.86148 17.6345C10.7139 20.642 12.3553 22.3617 13.5377 23.5818L14.4873 24.5616L13.8655 25.242C13.5234 25.6161 12.9936 26.2797 12.6879 26.7166C12.3823 27.1535 12.0881 27.5619 12.034 27.6239C11.7063 28.0009 8.057 23.2198 6.28176 20.0877C5.52386 18.7504 4.98519 17.6594 4.32859 16.1325C3.8256 14.9624 3.06998 12.9101 3.07669 12.7317C3.0798 12.6485 4.94736 14.562 7.86148 17.6345ZM25.4554 13.1166C25.2204 13.3289 24.9241 13.5667 24.7969 13.6451C24.6101 13.7604 24.8415 13.7877 26.0026 13.7877C27.163 13.7877 27.3952 13.7603 27.2094 13.6451C27.0829 13.5667 26.78 13.3273 26.5364 13.1134C26.2927 12.8994 26.0459 12.7257 25.9881 12.7275C25.9302 12.7293 25.6906 12.9043 25.4554 13.1166ZM14.9699 13.1732C15.1712 13.567 15.0563 13.9639 14.6836 14.1634C14.3037 14.3667 13.9013 14.2149 13.7312 13.8041C13.5149 13.2821 13.8147 12.844 14.3884 12.844C14.7186 12.844 14.8354 12.9102 14.9699 13.1732ZM38.4967 13.2469C38.6428 13.5529 38.6353 13.6238 38.426 13.9054C38.0956 14.3498 37.6488 14.3758 37.329 13.9692C36.8991 13.4228 37.2193 12.8103 37.9047 12.8678C38.2405 12.8961 38.3685 12.978 38.4967 13.2469ZM23.608 14.5269C22.0352 14.6894 20.6544 14.9605 19.2977 15.3729C17.6 15.8892 17.3428 16.091 17.7215 16.6089C17.8754 16.8193 17.9186 16.8157 18.8291 16.5174C21.589 15.6132 23.7964 15.3066 26.9006 15.3963C29.6006 15.4743 31.1379 15.7337 33.5199 16.5127C34.0325 16.6804 34.5309 16.7872 34.6274 16.7502C34.7261 16.7124 34.8028 16.5299 34.8028 16.3329C34.8028 16.037 34.7297 15.9537 34.3287 15.7933C33.4823 15.4546 31.1807 14.8862 29.8933 14.698C28.3266 14.4688 25.0366 14.3793 23.608 14.5269ZM25.3145 16.359C25.0677 16.5001 24.8656 16.6521 24.8655 16.6969C24.8653 16.7417 25.0991 16.8952 25.3852 17.038L25.9051 17.2977L26.4836 17.0038L27.0619 16.7098L26.5218 16.3933C25.8925 16.0245 25.8996 16.0246 25.3145 16.359ZM21.5726 16.7987C20.1654 17.0942 19.9562 17.1946 19.9562 17.5745C19.9562 17.7458 20.0415 17.9129 20.1499 17.9546C20.3425 18.0284 22.5787 17.5652 22.9794 17.3685C23.221 17.2498 23.2545 16.9086 23.0453 16.6993C22.869 16.5231 22.8931 16.5215 21.5726 16.7987ZM28.7749 16.7339C28.3316 17.1772 28.6028 17.3678 30.172 17.7162C31.3067 17.9681 31.5993 17.9974 31.7474 17.8746C31.9481 17.7079 31.9744 17.5305 31.8317 17.3059C31.7801 17.2246 31.3095 17.053 30.786 16.9245C29.185 16.5317 28.995 16.5137 28.7749 16.7339ZM34.6618 18.4682C34.8052 18.6622 34.9225 18.8499 34.9225 18.8856C34.9225 18.9212 34.7172 18.9503 34.4661 18.9503C34.0993 18.9503 33.9584 18.8808 33.7477 18.5958C33.6037 18.401 33.4858 18.2213 33.4858 18.1964C33.4858 18.1716 33.6917 18.1433 33.9434 18.1334C34.322 18.1186 34.4461 18.1764 34.6618 18.4682ZM18.1602 18.5911C17.9493 18.8874 17.8209 18.9503 17.4269 18.9503H16.9494L17.1616 18.5911C17.3456 18.2795 17.4428 18.2319 17.8949 18.2319H18.416L18.1602 18.5911ZM24.5658 18.4817C23.1529 18.5931 21.9126 18.8405 20.6746 19.2581C19.26 19.7352 18.9441 19.9204 18.9005 20.2983C18.8426 20.8019 19.1067 20.8111 20.4008 20.351C24.3501 18.9465 28.6684 18.996 32.4203 20.4886C32.9075 20.6824 33.3465 20.8165 33.396 20.7866C33.5424 20.6977 33.4981 20.0673 33.3361 19.9334C33.1037 19.7411 31.9772 19.3341 30.7918 19.0142C28.9297 18.5116 26.6557 18.3171 24.5658 18.4817ZM5.65652 20.3571C6.09797 21.1309 6.59234 21.9951 6.75517 22.2777C7.02864 22.7523 7.04037 22.8344 6.90903 23.3553C6.61221 24.5321 6.62598 25.8496 6.95452 27.7278C7.31336 29.7793 7.3543 31.53 7.08659 33.3778C6.66765 36.2693 6.93896 38.0604 8.27647 41.2337L8.80053 42.4773L9.40278 42.6126C9.73407 42.687 10.3618 42.7707 10.7978 42.7983C11.4739 42.8414 11.5818 42.8216 11.5308 42.6632C11.4979 42.5609 11.334 42.1144 11.1665 41.671C10.7582 40.5899 10.3807 38.6844 10.2967 37.2798C10.2099 35.8306 10.4358 33.6686 10.7354 33.0815C11.4608 31.6594 13.4599 30.1108 14.8643 29.883L15.2485 29.8206L15.1926 30.7875C15.1452 31.6061 15.1868 31.9155 15.4637 32.8037C16.1103 34.8774 17.3407 36.8925 19.0271 38.6395C19.6026 39.2358 20.0732 39.7505 20.0727 39.7834C20.0723 39.8163 19.6014 40.125 19.0263 40.4695C15.7273 42.4449 13.6008 43.0799 10.3179 43.0704C8.61555 43.0653 8.2706 43.0286 7.22056 42.7401C4.9901 42.1275 4.04423 41.4334 2.2891 39.122C1.21882 37.7125 1.24229 37.6968 2.54508 38.9519C4.06363 40.4146 5.36857 41.318 6.67854 41.8134L7.32461 42.0577L6.90555 41.7326C4.53788 39.8961 4.03034 37.5169 5.00794 32.839C5.3645 31.133 5.39587 30.8044 5.39563 28.7682L5.39551 26.5532L4.89575 24.6842C4.26262 22.3162 4.17773 21.4612 4.44473 20.1432C4.63953 19.1822 4.71029 18.9503 4.80919 18.9503C4.83373 18.9503 5.21495 19.5833 5.65652 20.3571ZM26.6013 20.6569C25.2936 21.6116 24.0348 23.1966 23.3671 24.7294C23.0457 25.467 22.9808 25.5405 22.5938 25.6051C21.3081 25.8199 19.2951 26.4444 18.28 26.9432C17.3868 27.3822 16.9656 27.6814 16.3185 28.3367C15.6488 29.0149 15.4136 29.1788 15.0614 29.2127C14.0434 29.3107 12.8762 29.8894 11.7683 30.8459C10.9123 31.5847 10.9216 31.5049 11.9329 29.4267C14.5775 23.9926 20.0619 20.4763 26.0026 20.4059L26.9605 20.3946L26.6013 20.6569ZM30.2231 20.888C30.7665 21.0237 31.2107 21.1686 31.2104 21.2099C31.2102 21.2512 30.8466 21.4723 30.4022 21.7011C29.4625 22.1853 27.8675 23.6991 27.2902 24.6549L26.9181 25.2711L28.1366 26.0783C29.7287 27.1331 32.2537 29.0294 33.294 29.9517C33.7482 30.3544 34.1638 30.6839 34.2176 30.6839C34.2712 30.6839 34.713 30.2288 35.1994 29.6725C36.4781 28.2097 37.3114 26.4983 37.3157 25.3259C37.3166 25.112 37.3601 24.9368 37.4126 24.9368C37.5381 24.9368 38.2247 25.6628 38.9169 26.5273L39.4712 27.2197L39.0373 28.0838C38.365 29.4225 37.2317 31.0031 36.1788 32.07L35.2201 33.0416L34.0236 33.1867C32.7185 33.345 30.7436 33.7799 29.564 34.1686L28.8152 34.4154L28.3068 34.0425C26.8399 32.9664 25.0661 30.8577 24.3391 29.3256C23.3756 27.2951 23.3257 26.3026 24.1061 24.6855C24.9244 22.9897 25.9283 21.8432 27.4479 20.8686C28.1222 20.436 28.4236 20.4381 30.2231 20.888ZM33.3688 22.0647C34.2535 22.5095 34.3131 22.5626 34.1755 22.7831C33.9957 23.0709 33.863 23.0804 33.5068 22.8308C32.9429 22.4359 32.6519 22.9384 33.1965 23.3668C33.5102 23.6136 33.5043 23.7154 33.1529 24.125C32.9877 24.3177 32.9428 24.307 32.4627 23.9622C32.1802 23.7594 31.8907 23.6294 31.8195 23.6735C31.5655 23.8304 31.6962 24.1918 32.108 24.4724C32.6155 24.8179 32.6259 24.9431 32.1883 25.433L31.8485 25.8132L31.2985 25.4349C30.6696 25.002 30.3728 24.9544 30.3728 25.2859C30.3728 25.4672 30.8068 25.8944 31.4335 26.3299C31.4572 26.3464 31.3534 26.5379 31.2029 26.7557C31.0524 26.9736 30.9191 27.167 30.9067 27.1856C30.8942 27.204 30.3226 26.8269 29.6363 26.3475C28.9501 25.8679 28.2564 25.3885 28.0947 25.2821C27.816 25.0987 27.8101 25.071 27.9792 24.7483C28.0774 24.5611 28.544 24.0202 29.0162 23.5465C29.6743 22.886 30.1312 22.5567 30.9739 22.1347C31.5786 21.8319 32.1499 21.5843 32.2434 21.5843C32.337 21.5843 32.8434 21.8004 33.3688 22.0647ZM35.8558 23.5748L36.7507 24.2483L36.688 25.1613C36.5894 26.5972 35.8696 28.0558 34.5679 29.4577L34.2056 29.8479L32.8579 28.7617C32.1167 28.1643 31.497 27.6385 31.4809 27.5933C31.4648 27.548 31.5783 27.3526 31.7333 27.159L32.0149 26.807L32.6329 27.2608C32.9812 27.5164 33.3283 27.6847 33.4283 27.6464C33.7135 27.537 33.6326 27.1603 33.2762 26.9394C33.0952 26.8271 32.8214 26.6282 32.6678 26.4974L32.3886 26.2595L32.7276 25.7803C32.9142 25.5168 33.1075 25.2999 33.1576 25.2985C33.2075 25.2972 33.4714 25.4576 33.744 25.6551C34.1249 25.9309 34.2772 25.983 34.4016 25.8799C34.6612 25.6644 34.5892 25.4975 34.0819 25.1385C33.5386 24.7542 33.5233 24.7057 33.827 24.3306L34.0485 24.057L34.4886 24.3289C35.2743 24.8145 35.5964 24.3671 34.8635 23.8081C34.4577 23.4986 34.451 23.4804 34.6378 23.1952C34.7437 23.0335 34.8598 22.9014 34.8957 22.9014C34.9316 22.9014 35.3638 23.2044 35.8558 23.5748ZM22.9495 26.8307C22.9495 27.9624 23.709 29.7985 24.8263 31.367C25.4297 32.2145 26.871 33.7384 27.6603 34.3638L28.1206 34.7285L26.7024 35.4648C25.9224 35.8699 24.2714 36.8994 23.0334 37.7529C21.7955 38.6062 20.7347 39.3045 20.676 39.3045C20.4612 39.3045 18.6418 37.369 18.006 36.4642C16.7815 34.7215 15.9201 32.7187 15.803 31.3424C15.6551 29.605 16.7984 28.21 19.1839 27.2169C20.1308 26.8228 22.0936 26.2779 22.6202 26.263C22.9351 26.2542 22.9495 26.279 22.9495 26.8307ZM40.6028 29.1872C41.8365 31.5943 42.4212 34.2897 42.3127 37.0685C42.277 37.9789 42.2206 38.7513 42.1871 38.7847C42.0261 38.9459 37.73 35.7531 36.4276 34.5042L35.478 33.5939L36.3477 32.7735C37.3794 31.8002 38.5298 30.3008 39.306 28.918C39.6147 28.3679 39.9085 27.9611 39.9589 28.0137C40.0093 28.0665 40.2991 28.5946 40.6028 29.1872ZM38.9556 37.1793L39.8914 37.9276L38.275 38.0041C35.6248 38.1294 33.7655 38.5344 31.3967 39.5021C29.296 40.3604 28.1511 41.0442 25.5835 42.9737C24.6945 43.6418 23.5145 44.4692 22.9612 44.8122C21.8994 45.4705 19.6553 46.608 19.4185 46.608C19.3416 46.608 18.8519 46.3639 18.3304 46.0657C17.8087 45.7673 17.2607 45.492 17.1126 45.454C16.9644 45.4159 16.8439 45.3502 16.8446 45.308C16.8455 45.2657 17.2362 45.0759 17.7127 44.8861C18.6298 44.5208 20.2965 43.6284 21.393 42.9154C22.0097 42.5143 22.8532 41.8998 24.5658 40.6037C27.6367 38.2797 31.9531 36.7839 36.2396 36.5585C37.1944 36.5083 37.9856 36.4591 37.9977 36.449C38.0099 36.4391 38.441 36.7677 38.9556 37.1793ZM44.8808 41.5444L45.7267 42.2279L44.0992 42.4322C39.6998 42.9842 37.7667 43.7439 32.3212 47.0608C29.1216 49.0096 25.1172 50.8417 23.2463 51.2128C22.8994 51.2816 22.8687 51.2523 22.498 50.5005C22.2853 50.0693 22.1114 49.6906 22.1114 49.6589C22.1114 49.6272 22.2148 49.6013 22.3412 49.6013C22.6523 49.6013 24.5437 48.9276 25.2842 48.553C26.3472 48.0152 27.625 47.2065 30.253 45.4075C33.1278 43.4397 34.3066 42.7415 35.7914 42.1268C37.8813 41.2617 39.8321 40.8904 42.3821 40.8726L44.0349 40.861L44.8808 41.5444ZM48.812 45.6416C49.2174 46.0978 49.5462 46.5124 49.5426 46.563C49.5356 46.6613 49.4472 46.6744 48.1528 46.7693C44.7203 47.021 40.5652 48.7881 37.1376 51.4542C33.7876 54.0597 30.2478 55.9072 27.0544 56.7167C25.9122 57.0062 23.465 57.3406 23.3476 57.2231C23.3186 57.1942 23.3653 56.6727 23.4514 56.0644L23.608 54.9583L25.1645 54.564C29.1512 53.5543 32.0096 52.2522 35.8476 49.6972C40.396 46.6695 42.5209 45.6102 45.1595 45.0555C45.7522 44.9309 46.6505 44.8251 47.1559 44.8205L48.0748 44.8121L48.812 45.6416ZM14.7902 45.3461C19.8699 46.421 23.3718 51.0301 22.8196 55.9139C22.7156 56.8325 22.2518 58.5446 22.0023 58.9309C21.8301 59.1973 21.3975 58.8622 19.7766 57.2077C18.1636 55.5612 17.2242 54.8916 14.9306 53.7543C13.8272 53.207 13.239 52.8284 12.678 52.3042C11.7294 51.4179 10.591 49.9101 9.75922 48.4384C9.40793 47.817 8.85812 47.0138 8.53736 46.6534C8.2166 46.2932 7.98385 45.9688 8.02001 45.9325C8.15063 45.802 10.0954 45.2829 10.8567 45.1755C11.8689 45.0325 13.6798 45.1111 14.7902 45.3461ZM14.7838 45.7939C15.0237 46.0337 14.9477 46.1291 14.517 46.1291C14.07 46.1291 13.7302 46.3831 13.7302 46.7172C13.7302 47.2259 14.4751 48.3892 15.3339 49.2219C16.3231 50.1812 17.0757 50.5853 18.28 50.804C19.4916 51.0241 20.0211 51.2516 20.6619 51.8276C21.3762 52.4699 21.9236 53.4715 21.7439 53.8073C21.4795 54.3012 20.4956 53.9293 19.0275 52.7805C18.5522 52.4088 18.1921 52.1743 18.2272 52.2597C18.2621 52.3452 19.0471 53.1693 19.9714 54.0912C21.1243 55.2411 21.5898 55.6419 21.4539 55.3675C21.2123 54.8796 21.2888 54.63 21.68 54.63C23.5112 54.63 20.9734 50.4363 18.4142 49.2334C18.1242 49.097 17.4635 48.9111 16.9459 48.8201C15.7612 48.6117 15.2644 48.3764 14.7559 47.7822C14.2791 47.2251 14.1812 46.9314 14.3814 46.6576C14.5089 46.4833 14.5871 46.476 14.9709 46.6027C15.2143 46.6829 15.6896 46.9346 16.0274 47.1618C16.9852 47.8063 16.9722 47.7719 15.8442 46.6776C15.2618 46.1125 14.7527 45.6502 14.7127 45.6502C14.6728 45.6502 14.7048 45.7149 14.7838 45.7939ZM11.4653 45.8298C11.4639 45.8957 11.542 46.0542 11.6387 46.1819C11.8993 46.5264 11.8571 46.608 11.4183 46.608C10.7948 46.608 10.5657 46.8432 10.6548 47.3918C10.7614 48.0488 11.4338 48.959 12.7228 50.1914C13.9158 51.3318 14.7806 51.8831 16.279 52.4586C16.7918 52.6554 17.4444 52.9532 17.7292 53.1201C18.3566 53.4878 18.9984 54.1928 18.9984 54.5145C18.9984 55.0377 17.9753 54.6713 16.6979 53.6906C16.2558 53.3512 15.8534 53.0735 15.8038 53.0735C15.7541 53.0735 16.1913 53.5179 16.7752 54.0613C17.7846 55.0006 18.175 55.3036 17.9902 55.0048C17.8905 54.8432 17.9539 54.8412 18.5793 54.9862C19.2217 55.1352 19.6558 54.8805 19.5409 54.4224C19.3541 53.6783 18.0097 52.2166 16.8432 51.4894C16.481 51.2635 15.619 50.8751 14.9275 50.6262C13.4354 50.089 12.7513 49.6801 11.9993 48.8761C11.4547 48.2939 11.0615 47.5991 11.1737 47.4174C11.2047 47.3674 11.3702 47.3264 11.5416 47.3264C11.9952 47.3264 12.7934 47.8178 14.5311 49.1665C15.224 49.7043 14.7955 49.1726 13.1907 47.5029C12.2429 46.5168 11.4665 45.7639 11.4653 45.8298ZM47.28 55.2539C48.512 56.5346 49.5772 57.7327 49.6471 57.9166C49.9044 58.5935 49.0914 59.3373 48.3105 59.1394C48.0402 59.0709 42.3458 53.1803 42.3458 52.9692C42.3458 52.911 42.7096 52.6107 43.154 52.3018L43.9622 51.7403L44.501 52.333C44.7973 52.6589 46.0478 53.9734 47.28 55.2539Z" fill="white"/>
</svg>
