<svg width="200" height="242" viewBox="0 0 200 242" fill="none" xmlns="http://www.w3.org/2000/svg">
<path fill-rule="evenodd" clip-rule="evenodd" d="M96.0118 3.07022C91.0808 7.34022 75.8068 14.5792 67.5118 16.5792C58.2158 18.8202 37.9578 18.8612 28.8898 16.6572C20.9128 14.7182 12.4728 11.0872 6.37181 6.96922C3.89481 5.29822 1.38981 4.22522 0.804808 4.58722C-1.01819 5.71422 0.507811 52.1912 2.86881 67.4592C7.72381 98.8512 15.8768 124.059 30.3608 152.459C38.5638 168.543 54.8428 193.481 67.5698 209.459C78.5588 223.256 97.3228 241.959 100.177 241.959C103.079 241.959 123.438 221.245 134.561 206.974C174.763 155.395 194.624 106.684 198.987 48.9592C200.097 34.2692 200.163 18.7392 199.153 9.74622L198.512 4.03222L194.012 7.12222C187.096 11.8712 178.197 15.6332 169.758 17.3762C159.894 19.4142 143.899 19.4032 134.709 17.3532C125.815 15.3692 112.359 9.21622 105.362 3.93322C102.467 1.74722 99.9658 -0.0227784 99.8048 0.000221642C99.6438 0.0222216 97.9368 1.40422 96.0118 3.07022ZM109.721 14.5252C112.586 16.2602 119.336 19.1602 124.721 20.9692C133.355 23.8712 136.107 24.3142 148.012 24.7182C163.419 25.2422 173.65 23.4102 185.61 17.9872C189.283 16.3222 192.451 14.9592 192.65 14.9592C193.406 14.9592 192.973 41.8652 192.21 42.3372C191.768 42.6102 188.592 40.8732 185.151 38.4792C163.404 23.3442 132.519 21.7912 106.8 34.5392L100.089 37.8652L91.7998 33.9942C78.7278 27.8872 72.4818 26.5412 57.0118 26.4972C38.5398 26.4452 25.7658 30.2012 12.8448 39.4842C10.1838 41.3952 7.85281 42.9592 7.66381 42.9592C7.08081 42.9592 5.96281 16.8472 6.50781 15.9662C6.78881 15.5102 10.8408 16.6952 15.5118 18.6002C27.0648 23.3102 35.4798 24.9212 48.6338 24.9422C57.1158 24.9552 61.9958 24.3912 69.1968 22.5642C78.5328 20.1962 92.1678 14.1052 97.0118 10.1402C99.3668 8.21222 99.6568 8.18822 102.012 9.73222C103.387 10.6332 106.856 12.7902 109.721 14.5252ZM75.0118 34.6482C78.5868 35.4732 85.2338 37.9242 89.7828 40.0932L98.0548 44.0372L97.7828 63.0922L97.5118 82.1472L93.5698 83.5012C86.4408 85.9502 82.0038 90.3882 79.5538 97.5172L78.1988 101.459L48.0858 101.724L17.9738 101.988L17.0798 99.6372C15.5078 95.5022 11.1718 74.8242 9.49381 63.4592L7.86981 52.4592L12.6438 48.2262C27.9388 34.6662 52.2078 29.3822 75.0118 34.6482ZM161.512 34.4312C170.438 36.8392 181.107 42.4662 186.792 47.7652L191.828 52.4592L189.833 65.7982C188.736 73.1352 186.626 84.1602 185.144 90.2982L182.45 101.459H152.138H121.826L120.471 97.5172C118.02 90.3882 113.583 85.9512 106.454 83.5002L102.512 82.1452V62.8342V43.5232L106.512 41.2472C112.202 38.0102 120.467 34.9902 128.012 33.3922C136.136 31.6712 153.249 32.2022 161.512 34.4312ZM143.512 38.3622C136.882 41.2882 134.944 47.1072 138.335 53.9042C139.173 55.5842 139.478 56.9592 139.012 56.9592C137 56.9592 131.551 62.7472 129.768 66.7782C125.604 76.1922 131.628 86.7112 142.443 88.9092C144.603 89.3482 145.607 90.1892 145.832 91.7462C146.097 93.5832 145.671 93.9592 143.325 93.9592C141.771 93.9592 139.045 93.5422 137.269 93.0332C132.565 91.6842 132.078 93.6712 136.645 95.5792C142.028 97.8282 153.942 97.1482 157.649 94.3802C162.524 90.7412 164.356 87.3492 164.806 81.1332C165.357 73.5152 163.625 70.2102 155.968 64.2632C152.692 61.7202 150.012 59.2402 150.012 58.7532C150.012 58.2672 151.7 58.1422 153.762 58.4762C157.285 59.0462 157.395 58.9892 155.571 57.5212C154.503 56.6622 152.816 55.9592 151.821 55.9592C150.558 55.9592 150.012 55.2042 150.012 53.4592C150.012 51.3592 150.483 50.9592 152.953 50.9592C154.571 50.9592 156.172 50.5092 156.512 49.9592C156.896 49.3382 155.022 48.9592 151.571 48.9592C146.061 48.9592 146.012 48.9852 146.012 51.9592C146.012 55.8962 143.562 55.9232 141.538 52.0092C139.384 47.8442 139.636 45.2442 142.467 42.4142C145.357 39.5232 150.405 39.1452 153.854 41.5612C156.264 43.2492 157.711 42.8992 156.49 40.9232C155.678 39.6102 149.76 36.9382 147.794 36.9982C147.089 37.0202 145.162 37.6332 143.512 38.3622ZM42.0768 41.3812C41.1658 42.4782 41.1928 43.2762 42.1948 44.8812C42.9088 46.0242 43.8348 46.9592 44.2528 46.9592C44.6698 46.9592 45.0298 51.5722 45.0518 57.2092C45.0898 66.8692 45.1778 67.3012 46.5838 64.7092C47.4048 63.1972 48.5228 61.9592 49.0688 61.9592C50.8328 61.9592 52.2888 56.6592 51.0658 54.6862C50.2078 53.3032 50.3008 52.8092 51.4888 52.4362C52.3268 52.1742 53.6918 51.7462 54.5228 51.4862C55.3538 51.2262 57.3298 51.2732 58.9138 51.5892C61.5878 52.1242 61.7578 52.4322 61.2958 55.8782C60.8688 59.0602 61.2538 60.0472 63.9818 62.7752C65.7328 64.5262 67.3558 65.9592 67.5888 65.9592C67.8218 65.9592 68.0118 61.7842 68.0118 56.6822C68.0118 49.8222 68.4258 46.8132 69.6008 45.1352C72.7898 40.5832 71.2308 39.9592 56.6658 39.9592C46.2948 39.9592 42.9898 40.2812 42.0768 41.3812ZM34.0548 45.9122C32.6088 46.8262 32.8708 51.5182 35.5388 72.4592L36.0478 76.4592L34.5268 72.5502C33.6908 70.4002 31.8118 67.0752 30.3528 65.1622C28.3228 62.5002 27.7178 60.5992 27.7778 57.0712C27.8358 53.6942 27.2948 51.8562 25.7598 50.2092C23.1058 47.3612 22.4318 47.3882 20.4448 50.4212C19.1248 52.4352 19.0348 53.4982 19.9478 56.2652C20.9128 59.1892 20.7288 60.3722 18.5858 64.9972C14.7818 73.2082 14.3928 79.3602 17.0098 89.9502L19.2358 98.9592H47.4528H75.6698L77.9918 94.0012C80.8618 87.8742 84.1138 84.6852 90.2618 81.9662L95.0118 79.8652V73.2802C95.0118 68.5232 94.4768 65.8292 93.0838 63.5762C91.4068 60.8622 91.3038 59.9042 92.2938 56.1962C93.3278 52.3222 93.2338 51.7362 91.2568 49.7602C89.1388 47.6412 89.0298 47.6332 87.0468 49.4272C85.5258 50.8032 85.0118 52.5112 85.0118 56.1812C85.0118 59.9172 84.3958 61.9002 82.4368 64.4682C81.0208 66.3252 78.9958 70.0072 77.9358 72.6512C75.7638 78.0752 75.7028 79.4742 78.4968 59.6512C80.2318 47.3382 79.6838 44.9592 75.1128 44.9592C72.0188 44.9592 71.5498 46.8012 73.7138 50.4592L74.8958 52.4592L76.4218 50.4592C77.2618 49.3592 77.9618 48.9092 77.9788 49.4592C78.0988 53.3782 74.6698 77.6662 73.8598 78.6432C73.3028 79.3142 73.0948 80.6722 73.3988 81.6612C73.7028 82.6502 73.5518 85.7092 73.0628 88.4592C72.3058 92.7232 72.2038 91.9872 72.3728 83.4592C72.4818 77.9592 72.9318 72.6992 73.3748 71.7712C73.9298 70.6052 73.5498 69.5442 72.1468 68.3422C71.0288 67.3852 70.3428 66.2332 70.6218 65.7812C70.9018 65.3292 70.7018 64.9592 70.1778 64.9592C69.6538 64.9592 68.9668 65.6342 68.6498 66.4592C67.8098 68.6502 66.4868 68.2962 65.2328 65.5462C64.6288 64.2182 63.2548 62.8542 62.1818 62.5132C59.9318 61.7992 58.8638 57.0142 60.3398 54.2612C60.8718 53.2702 60.9558 52.7812 60.5278 53.1742C60.0998 53.5672 58.9808 53.4782 58.0418 52.9752C57.1028 52.4732 55.4278 52.2992 54.3198 52.5892C52.6708 53.0202 52.3538 53.8192 52.5788 56.9742C52.8038 60.1392 52.4098 61.1232 50.3868 62.4492C49.0308 63.3382 47.4108 65.1842 46.7878 66.5512C44.8058 70.9012 42.6318 69.0732 41.3138 61.9452L40.1128 55.4592L40.6568 62.3422C41.0628 67.4872 40.8598 69.4402 39.8558 70.0772C38.8568 70.7102 38.8328 70.9322 39.7618 70.9442C40.6978 70.9552 40.9888 74.0352 40.9218 83.2092C40.8298 95.6582 39.7348 96.0122 38.6068 83.9592C38.3238 80.9342 37.4218 73.7342 36.6038 67.9592C33.7238 47.6402 33.7578 48.4192 35.8228 50.2882C38.0208 52.2772 40.0118 50.8382 40.0118 47.2592C40.0118 45.5362 39.4478 44.9632 37.7618 44.9742C36.5238 44.9832 34.8558 45.4042 34.0548 45.9122ZM77.0118 46.3522C77.0118 46.5682 76.3138 47.0132 75.4598 47.3412C74.5698 47.6822 74.1688 47.5142 74.5188 46.9482C75.1058 45.9972 77.0118 45.5422 77.0118 46.3522ZM146.012 73.4942C146.012 81.3962 145.634 85.9592 144.98 85.9592C144.412 85.9592 142.397 85.3112 140.502 84.5192C133.068 81.4132 130.435 70.1752 135.68 63.9412C138.838 60.1892 141.846 58.8462 144.262 60.1122C145.786 60.9112 146.012 62.6392 146.012 73.4942ZM158.211 72.4852C164.205 80.1042 161.697 89.4822 152.762 92.8682C150.226 93.8292 150.012 93.7192 150.012 91.4532C150.012 89.6782 150.694 88.8262 152.471 88.3802C153.823 88.0402 155.484 87.0962 156.161 86.2802C157.224 84.9982 156.891 84.8912 153.702 85.4892L150.012 86.1822V80.0702C150.012 74.6262 150.23 73.9592 152.012 73.9592C153.123 73.9592 154.012 73.2922 154.012 72.4592C154.012 71.6262 153.123 70.9592 152.012 70.9592C150.444 70.9592 150.012 70.2922 150.012 67.8702V64.7812L153.176 67.4432C154.915 68.9072 157.182 71.1762 158.211 72.4852ZM105.956 87.5862C106.926 87.8942 106.269 88.7192 103.956 90.1002C102.062 91.2302 98.8558 93.7462 96.8328 95.6912C94.5098 97.9232 92.5738 99.0052 91.5828 98.6242C88.9048 97.5972 89.8308 94.8762 94.4218 90.2862C98.9228 85.7852 99.7148 85.6002 105.956 87.5862ZM92.8208 88.7092C91.1818 92.1472 88.2958 95.9482 87.3208 95.9532C84.4948 95.9682 84.8518 93.4562 88.0558 90.7822C91.2698 88.0982 93.5938 87.0872 92.8208 88.7092ZM112.909 92.3502L115.155 94.7402L107.494 98.9692C100.903 102.607 99.4958 103.045 97.4218 102.1C94.2708 100.664 94.3748 99.9482 98.2618 96.3062C105.666 89.3692 109.21 88.4122 112.909 92.3502ZM98.9898 107.709C99.0018 109.496 98.5778 110.959 98.0468 110.959C95.9338 110.959 87.3518 107.609 84.7618 105.773C81.7918 103.667 81.4908 102.46 82.9668 98.5772L83.9218 96.0652L91.4448 100.262C98.3898 104.136 98.9708 104.709 98.9898 107.709ZM117.967 104.209C118.032 108.15 116.828 107.536 114.397 102.388C112.482 98.3332 112.435 97.8202 113.897 96.9822C115.147 96.2652 115.784 96.6662 116.717 98.7572C117.38 100.243 117.942 102.697 117.967 104.209ZM115.051 107.103C116.325 111.834 115.797 113.873 112.495 116.975L110.012 119.308V114.259C110.012 111.482 109.36 107.363 108.564 105.105C107.247 101.372 107.269 100.911 108.814 100.009C111.015 98.7232 113.58 101.64 115.051 107.103ZM107.793 107.536C109.552 114.298 108.609 120.565 105.716 121.341C101.13 122.57 101.012 122.37 101.012 113.319C101.012 106.263 101.333 104.436 102.762 103.353C105.416 101.341 106.392 102.153 107.793 107.536ZM34.9878 126.709L34.9648 147.459L31.0838 138.808C27.8528 131.602 19.0118 107.865 19.0118 106.393C19.0118 106.154 22.6118 105.959 27.0118 105.959H35.0118L34.9878 126.709ZM64.0118 150.459C64.0118 174.934 63.8128 194.959 63.5688 194.959C63.3248 194.959 59.9498 190.21 56.0688 184.406L49.0118 173.852V139.906V105.959H56.5118H64.0118V150.459ZM95.1928 111.604C98.3728 112.113 99.0118 112.611 99.0118 114.587C99.0118 116.672 98.5468 116.959 95.1608 116.959C88.8708 116.959 84.9678 115.099 83.4038 111.356C81.2468 106.191 81.6628 105.83 86.6928 108.504C89.2678 109.873 93.0928 111.268 95.1928 111.604ZM150.012 140.304V174.649L146.162 180.605C144.045 183.881 140.895 188.518 139.162 190.91L136.012 195.259V150.609V105.959H143.012H150.012V140.304ZM177.034 117.273C173.652 127.081 166.503 144.639 165.388 145.876C165.181 146.105 165.012 137.217 165.012 126.126V105.959H172.974H180.935L177.034 117.273ZM84.1708 119.623C85.8778 121.384 88.5648 123.36 90.1428 124.013L93.0118 125.202V176.805V228.409L85.5118 220.959L78.0118 213.509L78.0818 160.984C78.1458 113.776 78.2998 108.862 79.6098 112.44C80.4108 114.629 82.4638 117.862 84.1708 119.623ZM122.012 160.883V212.808L114.553 220.633L107.093 228.459L107.053 176.83L107.012 125.202L110.001 123.963C114.011 122.303 119.643 115.916 120.487 112.071C120.863 110.36 121.36 108.959 121.591 108.959C121.823 108.959 122.012 132.325 122.012 160.883ZM99.0118 120.13C99.0118 121.307 98.2818 121.959 96.9618 121.959C94.9908 121.959 89.0118 119.35 89.0118 118.49C89.0118 118.26 91.2618 118.124 94.0118 118.186C98.1478 118.28 99.0118 118.616 99.0118 120.13Z" fill="white"/>
</svg>
