<svg width="46" height="55" viewBox="0 0 46 55" fill="none" xmlns="http://www.w3.org/2000/svg">
<path fill-rule="evenodd" clip-rule="evenodd" d="M22.0024 0.984497C20.8917 1.94626 17.4515 3.57675 15.5831 4.02723C13.4893 4.53198 8.92647 4.54122 6.88402 4.0448C5.0873 3.60806 3.18629 2.79022 1.81212 1.8627C1.25421 1.48633 0.68999 1.24465 0.558226 1.32618C0.147618 1.58002 0.491331 12.0484 1.02312 15.4873C2.11664 22.5579 3.953 28.2357 7.21534 34.6325C9.06296 38.2552 12.7296 43.8722 15.5962 47.471C18.0713 50.5786 22.2977 54.7912 22.9405 54.7912C23.5941 54.7912 28.1798 50.1256 30.6851 46.9113C39.7401 35.2938 44.2135 24.3222 45.1962 11.3204C45.4462 8.01167 45.4611 4.51374 45.2336 2.48818L45.0892 1.20117L44.0756 1.89716C42.5179 2.96681 40.5135 3.81415 38.6127 4.20674C36.391 4.66578 32.7883 4.6633 30.7184 4.20156C28.7151 3.75469 25.6843 2.36881 24.1084 1.17888C23.4563 0.686508 22.893 0.287838 22.8567 0.293019C22.8205 0.297974 22.436 0.609252 22.0024 0.984497ZM25.0902 3.56459C25.7355 3.95538 27.2558 4.60857 28.4687 5.01602C30.4134 5.66966 31.0333 5.76944 33.7147 5.86043C37.185 5.97846 39.4894 5.56582 42.1832 4.34436C43.0105 3.96934 43.7241 3.66234 43.7689 3.66234C43.9392 3.66234 43.8416 9.72258 43.6698 9.82889C43.5702 9.89038 42.8549 9.49914 42.0798 8.95992C37.1816 5.55096 30.2251 5.20116 24.4323 8.07249L22.9207 8.82163L21.0537 7.94974C18.1094 6.57421 16.7026 6.27104 13.2181 6.26113C9.05756 6.24942 6.18037 7.09541 3.27008 9.18629C2.67073 9.61672 2.1457 9.96899 2.10313 9.96899C1.97182 9.96899 1.72 4.08759 1.84275 3.88916C1.90605 3.78645 2.81871 4.05335 3.87079 4.48243C6.47296 5.5433 8.36833 5.90616 11.3311 5.91089C13.2416 5.91382 14.3407 5.78678 15.9627 5.37527C18.0655 4.84191 21.1366 3.46999 22.2276 2.57692C22.7581 2.14267 22.8234 2.13726 23.3538 2.48503C23.6635 2.68797 24.4449 3.1738 25.0902 3.56459ZM17.2724 8.09704C18.0776 8.28286 19.5748 8.83492 20.5994 9.32346L22.4626 10.2118L22.4013 14.5037L22.3402 18.7956L21.4524 19.1006C19.8466 19.6522 18.8473 20.6518 18.2954 22.2575L17.9902 23.1454L11.2077 23.2051L4.42532 23.2645L4.22396 22.735C3.86989 21.8036 2.89326 17.1462 2.51531 14.5864L2.14953 12.1087L3.22481 11.1553C6.66982 8.10109 12.1361 6.91094 17.2724 8.09704ZM36.7554 8.04816C38.7659 8.59053 41.169 9.85794 42.4494 11.0515L43.5837 12.1087L43.1344 15.1132C42.8873 16.7657 42.412 19.249 42.0782 20.6315L41.4715 23.1454H34.6441H27.8167L27.5115 22.2575C26.9594 20.6518 25.96 19.6524 24.3543 19.1003L23.4664 18.7951V14.4456V10.096L24.3674 9.58338C25.649 8.85429 27.5106 8.17407 29.21 7.81414C31.0398 7.42651 34.8943 7.54611 36.7554 8.04816ZM32.7012 8.93357C31.2078 9.59262 30.7713 10.9033 31.5351 12.4342C31.7239 12.8126 31.7926 13.1223 31.6876 13.1223C31.2344 13.1223 30.0071 14.426 29.6055 15.3339C28.6676 17.4543 30.0244 19.8236 32.4604 20.3186C32.9469 20.4175 33.173 20.6069 33.2237 20.9576C33.2834 21.3714 33.1875 21.4561 32.659 21.4561C32.309 21.4561 31.695 21.3622 31.295 21.2475C30.2355 20.9437 30.1258 21.3912 31.1545 21.821C32.3669 22.3275 35.0504 22.1744 35.8853 21.5509C36.9834 20.7313 37.396 19.9673 37.4974 18.5672C37.6215 16.8513 37.2314 16.1069 35.5067 14.7674C34.7688 14.1947 34.1652 13.6361 34.1652 13.5264C34.1652 13.4169 34.5454 13.3888 35.0098 13.464C35.8034 13.5924 35.8281 13.5795 35.4173 13.2489C35.1767 13.0554 34.7968 12.8971 34.5727 12.8971C34.2882 12.8971 34.1652 12.727 34.1652 12.334C34.1652 11.861 34.2713 11.7709 34.8276 11.7709C35.1921 11.7709 35.5527 11.6695 35.6292 11.5456C35.7157 11.4058 35.2936 11.3204 34.5164 11.3204C33.2753 11.3204 33.2643 11.3263 33.2643 11.9961C33.2643 12.8829 32.7124 12.889 32.2565 12.0074C31.7714 11.0693 31.8281 10.4837 32.4658 9.84623C33.1167 9.19507 34.2537 9.10993 35.0306 9.6541C35.5734 10.0343 35.8993 9.95547 35.6243 9.5104C35.4414 9.21467 34.1084 8.61283 33.6656 8.62635C33.5068 8.6313 33.0728 8.76937 32.7012 8.93357ZM9.85422 9.61356C9.64903 9.86065 9.65511 10.0404 9.8808 10.4019C10.0416 10.6593 10.2502 10.8699 10.3443 10.8699C10.4383 10.8699 10.5193 11.909 10.5243 13.1786C10.5329 15.3544 10.5527 15.4517 10.8694 14.8679C11.0543 14.5273 11.3061 14.2485 11.4291 14.2485C11.8264 14.2485 12.1543 13.0547 11.8789 12.6103C11.6856 12.2988 11.7066 12.1876 11.9742 12.1036C12.1629 12.0445 12.4704 11.9481 12.6575 11.8896C12.8447 11.831 13.2898 11.8416 13.6465 11.9128C14.2488 12.0333 14.2871 12.1027 14.1831 12.8788C14.0869 13.5955 14.1736 13.8178 14.788 14.4323C15.1824 14.8267 15.548 15.1494 15.6005 15.1494C15.653 15.1494 15.6957 14.2091 15.6957 13.0599C15.6957 11.5148 15.789 10.8371 16.0537 10.4591C16.7719 9.43382 16.4208 9.29327 13.1402 9.29327C10.8043 9.29327 10.0599 9.3658 9.85422 9.61356ZM8.04737 10.6341C7.72167 10.84 7.78068 11.8968 8.38162 16.6135L8.49626 17.5144L8.15368 16.634C7.96538 16.1497 7.54216 15.4008 7.21354 14.9699C6.75631 14.3703 6.62004 13.9422 6.63355 13.1475C6.64662 12.3869 6.52476 11.9729 6.17902 11.602C5.58124 10.9605 5.42943 10.9666 4.98189 11.6497C4.68457 12.1033 4.6643 12.3428 4.86994 12.966C5.0873 13.6246 5.04585 13.891 4.56317 14.9328C3.70637 16.7822 3.61875 18.1678 4.2082 20.5531L4.70957 22.5823H11.0651H17.4206L17.9436 21.4655C18.59 20.0855 19.3225 19.3672 20.7073 18.7548L21.7772 18.2816V16.7984C21.7772 15.727 21.6567 15.1202 21.3429 14.6127C20.9652 14.0014 20.942 13.7856 21.165 12.9505C21.3979 12.0779 21.3767 11.9459 20.9314 11.5008C20.4543 11.0235 20.4298 11.0217 19.9831 11.4258C19.6406 11.7357 19.5248 12.1205 19.5248 12.9471C19.5248 13.7886 19.386 14.2352 18.9448 14.8136C18.6259 15.2319 18.1698 16.0612 17.931 16.6567C17.4418 17.8784 17.428 18.1935 18.0574 13.7286C18.4481 10.9553 18.3247 10.4195 17.2952 10.4195C16.5983 10.4195 16.4926 10.8343 16.9801 11.6583L17.2463 12.1087L17.59 11.6583C17.7792 11.4105 17.9369 11.3091 17.9407 11.433C17.9677 12.3157 17.1954 17.7863 17.0129 18.0064C16.8875 18.1575 16.8406 18.4634 16.9091 18.6861C16.9776 18.9089 16.9436 19.5979 16.8334 20.2173C16.6629 21.1777 16.6399 21.0119 16.678 19.0911C16.7026 17.8523 16.8039 16.6675 16.9037 16.4585C17.0287 16.1959 16.9431 15.9569 16.6271 15.6862C16.3753 15.4706 16.2208 15.2112 16.2836 15.1094C16.3467 15.0075 16.3016 14.9242 16.1836 14.9242C16.0656 14.9242 15.9109 15.0762 15.8395 15.2621C15.6503 15.7556 15.3523 15.6758 15.0698 15.0564C14.9338 14.7573 14.6243 14.4501 14.3826 14.3733C13.8758 14.2125 13.6353 13.1347 13.9677 12.5146C14.0876 12.2914 14.1065 12.1813 14.0101 12.2698C13.9137 12.3583 13.6616 12.3383 13.4501 12.225C13.2386 12.1119 12.8614 12.0727 12.6118 12.138C12.2404 12.2351 12.169 12.4151 12.2197 13.1257C12.2703 13.8386 12.1816 14.0602 11.7259 14.3589C11.4205 14.5591 11.0556 14.9749 10.9153 15.2828C10.4689 16.2626 9.97923 15.8508 9.68236 14.2453L9.41185 12.7845L9.53438 14.3348C9.62583 15.4936 9.5801 15.9335 9.35397 16.077C9.12895 16.2195 9.12355 16.2695 9.3328 16.2723C9.54362 16.2747 9.60916 16.9685 9.59407 19.0348C9.57335 21.8388 9.32671 21.9185 9.07265 19.2037C9.0089 18.5224 8.80574 16.9007 8.6215 15.5999C7.97281 11.0233 7.98047 11.1988 8.44559 11.6197C8.94066 12.0677 9.38911 11.7436 9.38911 10.9375C9.38911 10.5494 9.26207 10.4204 8.88232 10.4228C8.60348 10.4249 8.22778 10.5197 8.04737 10.6341ZM17.7229 10.7332C17.7229 10.7819 17.5657 10.8821 17.3733 10.956C17.1729 11.0328 17.0825 10.9949 17.1614 10.8675C17.2936 10.6533 17.7229 10.5508 17.7229 10.7332ZM33.2643 16.8466C33.2643 18.6264 33.1791 19.6542 33.0318 19.6542C32.9039 19.6542 32.45 19.5082 32.0232 19.3298C30.3488 18.6303 29.7557 16.099 30.9371 14.6949C31.6484 13.8498 32.3259 13.5473 32.8701 13.8325C33.2134 14.0124 33.2643 14.4017 33.2643 16.8466ZM36.0119 16.6193C37.362 18.3354 36.7971 20.4477 34.7846 21.2104C34.2134 21.4268 34.1652 21.402 34.1652 20.8916C34.1652 20.4918 34.3188 20.2999 34.7191 20.1995C35.0236 20.1229 35.3977 19.9103 35.5502 19.7265C35.7896 19.4377 35.7146 19.4136 34.9963 19.5483L34.1652 19.7044V18.3278C34.1652 17.1016 34.2143 16.9513 34.6157 16.9513C34.8659 16.9513 35.0662 16.8011 35.0662 16.6135C35.0662 16.4259 34.8659 16.2756 34.6157 16.2756C34.2625 16.2756 34.1652 16.1254 34.1652 15.5799V14.8841L34.8779 15.4837C35.2695 15.8134 35.7802 16.3245 36.0119 16.6193ZM24.2422 20.0207C24.4606 20.09 24.3127 20.2758 23.7917 20.5869C23.3651 20.8414 22.643 21.4081 22.1873 21.8462C21.6641 22.3489 21.228 22.5926 21.0048 22.5068C20.4016 22.2755 20.6102 21.6626 21.6443 20.6288C22.6581 19.615 22.8364 19.5733 24.2422 20.0207ZM21.2837 20.2736C20.9145 21.048 20.2645 21.9041 20.0449 21.9052C19.4083 21.9086 19.4887 21.3428 20.2104 20.7405C20.9343 20.136 21.4578 19.9083 21.2837 20.2736ZM25.8082 21.0937L26.3141 21.632L24.5886 22.5845C23.104 23.4039 22.7871 23.5026 22.32 23.2897C21.6103 22.9663 21.6337 22.805 22.5092 21.9847C24.1768 20.4222 24.9751 20.2067 25.8082 21.0937ZM22.6731 24.5531C22.6759 24.9556 22.5804 25.2851 22.4608 25.2851C21.9848 25.2851 20.0518 24.5306 19.4685 24.117C18.7995 23.6427 18.7317 23.3708 19.0642 22.4962L19.2793 21.9304L20.9737 22.8758C22.538 23.7483 22.6689 23.8774 22.6731 24.5531ZM26.9475 23.7648C26.9621 24.6524 26.6909 24.5141 26.1434 23.3546C25.7121 22.4413 25.7015 22.3257 26.0308 22.137C26.3123 21.9755 26.4558 22.0658 26.6659 22.5368C26.8153 22.8715 26.9418 23.4242 26.9475 23.7648ZM26.2907 24.4166C26.5776 25.4822 26.4587 25.9415 25.715 26.6402L25.1557 27.1656V26.0284C25.1557 25.4029 25.0089 24.4752 24.8296 23.9666C24.5329 23.1258 24.5379 23.0219 24.8859 22.8188C25.3816 22.5291 25.9594 23.1861 26.2907 24.4166ZM24.6559 24.5141C25.0521 26.0372 24.8397 27.4488 24.1881 27.6235C23.1552 27.9004 23.1286 27.8553 23.1286 25.8167C23.1286 24.2274 23.2009 23.8159 23.5227 23.572C24.1205 23.1188 24.3404 23.3017 24.6559 24.5141ZM8.25751 28.8326L8.25233 33.5063L7.37819 31.5578C6.65045 29.9347 4.65912 24.5882 4.65912 24.2567C4.65912 24.2029 5.46998 24.1589 6.46102 24.1589H8.26292L8.25751 28.8326ZM14.7948 34.182C14.7948 39.6947 14.75 44.2051 14.695 44.2051C14.6401 44.2051 13.8799 43.1354 13.0057 41.8281L11.4162 39.451V31.8051V24.1589H13.1055H14.7948V34.182ZM21.8179 25.4304C22.5342 25.545 22.6781 25.6572 22.6781 26.1023C22.6781 26.5719 22.5734 26.6365 21.8107 26.6365C20.394 26.6365 19.5149 26.2176 19.1626 25.3745C18.6768 24.2112 18.7705 24.1299 19.9034 24.7322C20.4834 25.0405 21.3449 25.3547 21.8179 25.4304ZM34.1652 31.8947V39.6305L33.298 40.972C32.8212 41.7099 32.1117 42.7543 31.7214 43.2931L31.0119 44.2726V34.2158V24.1589H32.5885H34.1652V31.8947ZM40.2516 26.7073C39.4898 28.9164 37.8796 32.8711 37.6285 33.1497C37.5818 33.2013 37.5438 31.1994 37.5438 28.7013V24.1589H39.3371H41.1302L40.2516 26.7073ZM19.3354 27.2366C19.7198 27.6332 20.3251 28.0783 20.6805 28.2254L21.3267 28.4932V40.1161V51.7392L19.6374 50.0612L17.9481 48.3832L17.9639 36.5526C17.9783 25.9196 18.013 24.8128 18.3081 25.6187C18.4885 26.1117 18.9509 26.8399 19.3354 27.2366ZM27.8586 36.5299V48.2253L26.1785 49.9878L24.4982 51.7505L24.4892 40.1217L24.48 28.4932L25.1532 28.2141C26.0564 27.8402 27.325 26.4016 27.5151 25.5356C27.5998 25.1502 27.7117 24.8346 27.7637 24.8346C27.816 24.8346 27.8586 30.0975 27.8586 36.5299ZM22.6781 27.3508C22.6781 27.6159 22.5137 27.7627 22.2164 27.7627C21.7724 27.7627 20.4257 27.1751 20.4257 26.9814C20.4257 26.9296 20.9325 26.8989 21.5519 26.9129C22.4835 26.9341 22.6781 27.0098 22.6781 27.3508Z" fill="white"/>
</svg>
