<svg width="114" height="55" viewBox="0 0 114 55" fill="none" xmlns="http://www.w3.org/2000/svg">
<path fill-rule="evenodd" clip-rule="evenodd" d="M50.3165 0.679846C46.7508 0.833023 46.1883 1.00846 47.1084 1.68115C47.6898 2.10635 47.8423 3.10615 48.1531 8.52958C48.4916 14.4416 48.4701 14.9143 47.8408 15.3746C47.4688 15.6466 47.2473 15.9515 47.348 16.0522C47.4488 16.1533 49.7283 16.0749 52.4138 15.8787C55.0993 15.6821 57.678 15.5165 58.1451 15.5104C58.8808 15.501 58.9879 15.3105 58.9495 14.0847C58.9249 13.3067 58.7816 12.1605 58.6314 11.538C58.3892 10.536 58.3258 10.493 58.0794 11.1608C57.9263 11.5758 57.6516 12.2903 57.4694 12.7487C57.0446 13.8168 54.4945 15.1222 52.8326 15.1222H51.5457L51.2797 12.07C51.1329 10.3911 51.1088 8.92233 51.2254 8.80538C51.8169 8.21418 53.955 8.72653 54.7495 9.65011L55.5984 10.6371V8.16362C55.5984 5.79391 55.1408 4.91522 54.6733 6.38737C54.4353 7.13817 52.9703 7.95385 51.8603 7.95385C51.3167 7.95385 51.1273 7.54714 50.9382 5.97312C50.8073 4.8839 50.6987 3.33214 50.6972 2.52513L50.6938 1.05751L52.5598 1.27859C54.9322 1.55967 56.5586 2.40063 57.2717 3.71433C57.8229 4.72997 57.8323 4.71149 57.847 2.57758L57.8621 0.408203L55.5041 0.483282C54.2074 0.524406 51.8728 0.61269 50.3165 0.679846ZM63.8986 0.614199C63.8986 0.766244 64.1782 1.09523 64.5197 1.345C65.0946 1.76567 65.081 2.25538 64.3382 7.91952C63.8964 11.286 63.4372 14.1986 63.3173 14.3926C63.1977 14.5865 62.8551 14.7449 62.5559 14.7449C62.2567 14.7449 62.0122 14.9026 62.0122 15.0951C62.0122 15.2875 62.9886 15.5561 64.1816 15.6919C65.3746 15.8277 66.6479 16.0209 67.0112 16.1216C67.8152 16.345 67.8993 15.6678 67.1055 15.3629C66.4906 15.1271 66.4004 13.9798 66.7796 11.2136C66.998 9.62068 67.1116 9.46298 68.0416 9.46298C69.5198 9.46298 70.1996 10.4484 70.6984 13.3135C70.9406 14.7053 71.3594 16.0269 71.6288 16.2507C71.8985 16.4744 73.0281 16.7532 74.1396 16.8705L76.1603 17.0837L75.1496 16.1971C74.4403 15.575 74.014 14.6804 73.7197 13.1962C73.4888 12.033 72.9704 10.7276 72.5678 10.2953C71.8668 9.54334 71.865 9.49995 72.5233 9.29094C73.9547 8.83669 74.9542 7.29398 74.9923 5.47926C75.0424 3.06842 73.6186 1.79057 70.2645 1.23672C66.0424 0.53912 63.8986 0.329728 63.8986 0.614199ZM70.1861 1.9411C70.7659 2.16143 71.3685 2.54324 71.525 2.78999C72.0147 3.56002 71.848 6.43114 71.2458 7.59543C70.7346 8.58391 70.4754 8.70842 68.9301 8.70842H67.1901L67.4425 6.24514C67.9495 1.29595 68.0548 1.1307 70.1861 1.9411ZM39.0731 2.28933C37.4964 2.66284 37.2704 2.89751 37.8337 3.57624C38.5649 4.45682 39.7401 9.87309 39.2361 10.0376C34.9279 11.4407 34.7 11.363 33.9688 8.23681C33.6168 6.73221 33.3312 5.10122 33.3339 4.61188C33.338 3.83959 33.2079 3.7547 32.3514 3.96975C31.8085 4.10595 30.8747 4.31534 30.2764 4.43494C29.157 4.65904 28.7574 5.31287 29.7399 5.31287C30.3284 5.31287 30.3507 5.38079 32.2477 13.003C33.2158 16.8936 33.3697 18.0043 33.0177 18.5679C32.4835 19.4232 32.9419 19.4783 35.4176 18.8547C36.9973 18.457 37.0512 18.3989 36.5525 17.6285C36.0892 16.9124 34.7766 12.0496 34.9894 11.8365C35.035 11.7908 36.1359 11.5056 37.4353 11.2023C39.2078 10.7888 39.8352 10.762 39.948 11.0947C40.6218 13.0875 41.2179 16.3061 41.0123 16.8419C40.7976 17.4021 40.915 17.4599 41.8095 17.2354C42.3868 17.0905 43.3485 16.8743 43.9468 16.7547C45.1786 16.5084 45.2722 16.3265 44.475 15.7296C43.6839 15.1373 40.8803 3.43552 41.324 2.57758C41.708 1.83546 41.2421 1.77585 39.0731 2.28933ZM82.3855 3.72301C82.3855 3.93051 82.6401 4.198 82.9514 4.3176C83.7795 4.63527 83.6652 5.57659 82.1765 10.6978C80.3953 16.8238 80.1573 17.3859 79.3438 17.3859C78.9662 17.3859 78.5681 17.53 78.4591 17.7062C78.2607 18.0277 83.9127 19.7575 84.2055 19.4647C84.2915 19.3787 84.087 19.0335 83.7509 18.6973C83.4151 18.3616 83.14 18.0296 83.14 17.9594C83.14 17.5353 86.3024 6.89142 86.5895 6.3504C86.782 5.98745 87.2732 5.69016 87.6806 5.69016C89.2347 5.69016 88.3205 5.02048 85.8753 4.36778C84.4745 3.99352 83.1167 3.61058 82.8571 3.51663C82.5979 3.42269 82.3855 3.5155 82.3855 3.72301ZM93.9277 7.85953C94.0797 8.62994 93.5097 10.2089 91.7142 13.9904C89.2471 19.1855 88.8046 19.8247 87.4788 20.1054C86.9329 20.2212 87.4433 20.5977 89.3229 21.4666C92.0737 22.738 93.038 22.9829 92.2703 22.2151C91.4591 21.404 91.8096 20.294 94.5691 14.9336C96.9275 10.3522 97.4009 9.66369 98.137 9.74141C99.636 9.90025 99.05 9.27924 96.5264 8.03497C95.1738 7.36793 93.9896 6.822 93.8949 6.822C93.8002 6.822 93.8149 7.28908 93.9277 7.85953ZM20.3225 8.39754C18.1984 9.11852 13.3428 11.4675 13.3428 11.7742C13.3428 11.9425 13.5658 11.9945 13.8382 11.89C14.6346 11.5844 15.4148 12.7627 17.6038 17.5746C20.158 23.1904 20.315 23.6926 19.734 24.3928C18.8602 25.4454 19.6517 25.3213 22.5311 23.954C25.5415 22.5245 26.1542 21.9356 24.3568 22.1993C23.1239 22.3804 22.7262 21.988 21.6879 19.5655L20.9349 17.8088L22.9982 16.6446C25.0386 15.4931 26.5435 13.6806 26.5462 12.3718C26.5488 11.1792 25.1299 8.87102 24.1078 8.40546C22.939 7.87274 21.8751 7.87047 20.3225 8.39754ZM22.6647 11.1608C23.1337 11.9908 23.52 13.309 23.5234 14.0903C23.5283 15.2909 23.3397 15.6263 22.3033 16.2582C21.6287 16.6691 20.9281 16.9566 20.7458 16.8966C20.5636 16.837 19.7623 15.352 18.9651 13.5969C17.6204 10.6367 17.5627 10.3707 18.1645 9.91798C18.5214 9.64936 19.4884 9.47958 20.3131 9.5407C21.6215 9.63728 21.9211 9.84404 22.6647 11.1608ZM101.432 11.3422C102.392 12.4031 101.755 13.04 97.9484 14.8283C96.2366 15.6323 94.8358 16.3669 94.8358 16.4608C94.8358 17.7138 96.1627 23.8246 96.5736 24.4634C96.875 24.9323 98.5173 26.0038 100.223 26.8448C101.929 27.6857 103.486 28.5327 103.683 28.7278C103.88 28.9224 104.292 29.0817 104.598 29.0817C105.004 29.0817 104.923 28.8357 104.294 28.1664C103.392 27.2058 103.448 26.8685 104.753 25.4183L105.503 24.5841L106.233 25.5126C107.489 27.1089 109.173 26.5097 109.173 24.4667C109.173 23.7258 108.93 23.3081 108.38 23.1051C107.631 22.8278 107.663 22.7463 108.986 21.5847C109.755 20.9097 110.465 20.4389 110.564 20.5377C110.663 20.637 110.472 22.4724 110.14 24.6169C109.225 30.5195 109.204 30.5908 108.366 30.5908C107.955 30.5908 107.714 30.7443 107.83 30.9322C108.212 31.5498 112.244 33.6547 112.694 33.4713C113.008 33.3427 112.999 33.2827 112.662 33.2616C111.987 33.2189 112.065 31.6857 113.134 24.02C113.653 20.3023 114.007 17.1897 113.92 17.1029C113.833 17.0162 111.42 18.8467 108.558 21.1712C105.695 23.4956 102.79 25.6658 102.103 25.9936C100.921 26.5573 100.811 26.5475 100.079 25.8155C99.5473 25.2832 99.0817 23.8748 98.5894 21.3078C98.1959 19.2546 97.785 17.2082 97.6767 16.7604C97.5043 16.0469 97.8427 15.7934 100.402 14.7174C102.284 13.9262 103.963 13.4848 105.117 13.4784C106.103 13.4727 106.909 13.418 106.909 13.3565C106.909 13.143 101.642 10.5948 101.201 10.5948C100.936 10.5948 101.03 10.8985 101.432 11.3422ZM5.6006 16.3891C0.948707 18.5551 -0.434787 22.1261 2.52499 24.3272C3.46141 25.0236 4.11184 25.1202 7.8609 25.1202C11.5296 25.1202 12.2419 25.2213 12.9252 25.8389C14.2438 27.0311 13.9065 28.7708 12.1838 29.6615C10.5792 30.4912 8.79995 30.3403 7.17575 29.2367C6.38535 28.6995 5.65719 28.3414 5.55759 28.4407C5.45836 28.5403 5.93487 29.4129 6.61662 30.3799C7.67678 31.8845 7.99332 32.1052 8.80712 31.9083C12.2268 31.0816 15.6065 28.1237 15.6065 25.9578C15.6065 23.0293 13.5273 21.9133 8.07293 21.9133C4.79095 21.9133 4.18768 21.8129 3.53347 21.1587C2.63101 20.2563 2.59026 19.7096 3.34596 18.6306C4.60344 16.8355 7.78657 16.7151 9.63978 18.3921C10.1408 18.8456 10.3246 18.8792 10.3246 18.5174C10.3246 17.8213 8.49284 15.4987 7.94729 15.5033C7.69867 15.5052 6.64265 15.9039 5.6006 16.3891ZM56.8453 23.127C56.0395 24.1664 56.0259 24.9731 56.7918 26.2717L57.5837 27.6133L58.0855 26.744C59.0728 25.0334 59.1132 24.801 58.5854 23.865C57.9417 22.7241 57.352 22.4736 56.8453 23.127ZM54.542 26.1389C53.9146 26.7663 53.9754 28.1403 54.6552 28.7044C55.1189 29.0892 55.2212 29.0632 55.2212 28.5618C55.2212 28.2252 55.4645 27.9498 55.7618 27.9498C56.4364 27.9498 57.0046 29.5563 56.4005 29.7574C55.6256 30.0158 56.3737 30.5908 57.4848 30.5908C58.5548 30.5908 59.352 30.0215 58.6288 29.774C57.9474 29.5412 58.6688 27.9498 59.4558 27.9498C59.9681 27.9498 60.1375 28.1294 59.9892 28.5157C59.6629 29.3661 60.4152 29.1964 60.8879 28.3128C61.4252 27.3092 61.0419 26.1656 60.0643 25.8551C58.9872 25.5133 58.2243 26.3962 57.9723 28.275C57.7233 30.1313 57.1076 30.3622 57.1076 28.5999C57.1076 26.4596 55.6347 25.0463 54.542 26.1389ZM50.4466 31.1729C50.3236 31.4933 50.3074 31.8396 50.4104 31.9426C50.5138 32.0456 50.6885 31.7834 50.799 31.3605C51.0345 30.4614 50.773 30.3225 50.4466 31.1729ZM55.4769 31.4057C55.1034 31.6147 54.5703 31.6985 54.2923 31.5917C54.004 31.4812 53.7045 31.7109 53.5958 32.126C53.3706 32.9869 52.2727 33.0978 51.9629 32.2908C51.8437 31.9807 51.5864 31.826 51.3906 31.9471C51.1789 32.0777 51.2201 32.3908 51.4921 32.7183C51.8562 33.1574 51.8252 33.3936 51.3404 33.8784C50.8258 34.393 50.6368 34.4089 50.1207 33.9803C49.7845 33.7015 49.5929 33.1544 49.6947 32.7651C49.8449 32.1897 49.7796 32.1399 49.3457 32.5002C49.0518 32.7439 48.4708 32.8545 48.0543 32.7455C47.6378 32.6368 47.3922 32.7017 47.5087 32.8896C47.6249 33.0778 47.5601 33.2318 47.3646 33.2318C47.1688 33.2318 46.9206 32.893 46.8123 32.4791C46.4173 30.9696 44.2434 31.2533 44.3037 32.8062C44.3196 33.2088 44.449 33.1182 44.6795 32.5436C45.084 31.534 46.2762 31.5548 46.4723 32.5749C46.5565 33.0107 46.2426 33.3585 45.5337 33.6158C43.4911 34.3564 42.5746 34.9322 41.4968 36.1531C40.8995 36.8288 40.2204 37.3792 39.9876 37.3762C39.6798 37.3721 39.6813 37.2947 39.9937 37.0933C40.3053 36.8922 40.2793 36.682 39.8997 36.3296C39.4655 35.9267 39.3934 35.9591 39.4806 36.5183C39.5383 36.8895 39.7145 37.3992 39.8714 37.6513C40.0378 37.9172 39.8356 38.4307 39.3889 38.8774C38.9663 39.3 38.7905 39.6456 38.998 39.6456C39.2055 39.6456 39.3753 40.1606 39.3753 40.7895C39.3753 41.6131 39.1376 42.0387 38.5264 42.3092L37.6775 42.685L38.5264 42.5212C39.0821 42.4137 39.3753 42.5405 39.3753 42.8879C39.3753 43.1796 39.0859 43.4184 38.732 43.4184C38.3072 43.4184 38.7879 44.0847 40.1468 45.3788C42.2977 47.4274 43.7299 48.0522 43.3205 46.763C43.1674 46.2805 43.2832 46.0594 43.6888 46.0594C44.014 46.0594 44.28 46.2631 44.28 46.5121C44.28 46.8592 44.3837 46.8611 44.7236 46.5212C45.322 45.9228 44.0962 44.5502 42.964 44.5502C41.7631 44.5502 41.6016 44.8924 42.2298 46.1073C42.5381 46.7034 42.6939 47.1912 42.5758 47.1912C42.131 47.1912 40.1306 42.428 40.1302 41.3682C40.1299 39.6659 41.5126 37.1947 43.0693 36.1161C44.6501 35.0205 46.844 34.1606 47.1858 34.5028C47.3103 34.6273 47.6231 34.441 47.8804 34.089C48.2758 33.5479 48.4425 33.5268 48.9552 33.9524C49.2888 34.2293 49.5619 34.6952 49.5619 34.9876C49.5619 35.7086 48.5368 36.0538 47.9189 35.5411C47.2133 34.9556 46.8787 35.4381 47.4054 36.2813C48.0094 37.2487 47.2047 38.1229 46.2588 37.526C45.7506 37.2057 45.4782 37.2981 44.9485 37.9716C44.169 38.9627 44.1121 39.941 44.7169 41.9598C45.1749 43.4882 45.6608 43.8142 46.0336 42.8427C46.2139 42.3737 46.3599 42.3548 46.8266 42.7419C47.3231 43.1539 47.2801 43.2445 46.5014 43.4282C45.4031 43.6878 45.1636 44.6253 45.9857 45.4478C46.6387 46.1005 47.4884 46.2948 47.1258 45.7081C46.658 44.9517 47.6929 44.9449 48.4478 45.6998C49.6393 46.8913 49.7049 46.3767 48.5753 44.7034C47.8989 43.7014 47.8121 43.4373 48.3044 43.8779C48.9983 44.4989 49.0466 44.4778 49.4646 43.3701C49.8539 42.339 49.803 42.116 48.9941 41.3071C48.032 40.3451 46.5474 40.0817 46.538 40.8717C46.5338 41.1887 46.4414 41.2105 46.255 40.9385C46.1026 40.7159 45.6687 40.4194 45.2911 40.2802C44.3324 39.9259 44.5859 38.3251 45.6005 38.3251C46.0958 38.3251 46.3965 38.6167 46.4757 39.174C46.6576 40.456 47.5612 40.1919 48.0486 38.7148C48.6651 36.8473 54.2187 32.0479 55.907 31.9234C56.2632 31.8969 56.7714 31.7415 57.0363 31.5781C57.3034 31.4129 57.7667 31.4868 58.076 31.7434C58.536 32.1252 58.5922 32.098 58.3964 31.5872C58.1194 30.8662 56.7329 30.7436 56.7246 31.4397C56.7201 31.7913 56.6469 31.7985 56.4371 31.4687C56.2398 31.1582 55.9531 31.1394 55.4769 31.4057ZM58.994 31.491C58.994 31.5789 59.7418 32.089 60.6555 32.6247C63.1633 34.0942 66.4487 37.2653 66.9765 38.7258C67.2346 39.4392 67.6605 40.0229 67.9227 40.0229C68.5619 40.0229 69.2029 41.2849 69.0863 42.3145C69.0342 42.7721 69.1847 43.2154 69.4206 43.2995C69.8771 43.4625 70.6897 41.5399 70.6897 40.2975C70.6897 39.6788 70.5943 39.6324 70.1238 40.0229C69.6722 40.3975 69.4436 40.3975 68.992 40.0229C68.1951 39.3615 68.2887 38.479 69.1806 38.2459C69.9955 38.0327 70.1627 37.5667 69.5579 37.1932C69.3504 37.065 69.1806 37.14 69.1806 37.3596C69.1806 37.978 67.6752 37.8308 67.4289 37.1883C67.3081 36.8744 67.4066 36.3802 67.6477 36.0901C67.9473 35.729 67.9608 35.4857 67.69 35.3181C67.4723 35.1838 67.2942 35.2536 67.2942 35.4732C67.2942 36.1244 65.8869 35.9278 65.6228 35.2397C65.2821 34.3519 66.3717 33.2902 66.9897 33.9082C67.2402 34.1588 67.7933 34.3651 68.2185 34.367C69.4164 34.3727 72.7897 36.4692 73.734 37.7954C75.0224 39.6052 75.0986 42.0334 73.9476 44.6099C73.4228 45.784 72.7723 46.8811 72.5018 47.0475C72.2192 47.2218 72.2977 46.9113 72.6863 46.3171C73.4665 45.1237 73.2647 44.5502 72.0634 44.5502C71.0157 44.5502 70.3124 45.2169 70.3124 46.2103C70.3124 46.7973 70.4132 46.8641 70.7652 46.5121C71.433 45.8443 71.9351 45.9617 71.7322 46.7377C71.376 48.0997 72.861 47.4972 74.867 45.4659C76.1867 44.1296 76.6731 43.4184 76.2671 43.4184C75.5344 43.4184 75.4276 41.309 76.1158 40.422C76.438 40.0066 76.4259 39.9451 76.066 40.1613C75.8068 40.3171 75.5944 40.2647 75.5944 40.0451C75.5944 39.8255 75.7966 39.6456 76.0437 39.6456C76.2909 39.6456 76.1905 39.4245 75.8208 39.154C75.3314 38.7963 75.2001 38.333 75.339 37.4539C75.4484 36.7579 75.3805 36.3376 75.1783 36.4624C74.9855 36.582 74.9251 36.8375 75.0447 37.0306C75.4971 37.7629 74.7376 37.3377 73.6499 36.25C72.6218 35.2219 72.5727 34.9299 73.4529 35.0827C73.6242 35.1125 73.6665 34.979 73.5469 34.7858C73.4277 34.5926 72.9908 34.5232 72.5765 34.6315C72.1619 34.7398 71.4232 34.5666 70.9342 34.2463C70.4452 33.926 69.4281 33.5479 68.6732 33.4065C67.9182 33.265 67.3844 33.0137 67.4866 32.8485C67.5888 32.6828 67.3319 32.6368 66.9154 32.7455C66.4989 32.8545 65.9277 32.7522 65.6462 32.5183C65.2342 32.1765 65.1674 32.2682 65.3048 32.9865C65.4191 33.586 65.267 33.9595 64.8415 34.1229C63.9168 34.4779 63.4259 34.0252 63.6221 32.999C63.8205 31.9603 63.7756 31.9384 62.7389 32.5715C62.0975 32.9631 61.89 32.9416 61.5176 32.4455C61.1124 31.9056 58.994 31.1043 58.994 31.491ZM68.6366 31.6876C68.52 31.8754 68.7648 31.9407 69.1802 31.8321C70.0612 31.6015 70.1725 31.3454 69.3915 31.3454C69.0923 31.3454 68.7528 31.4993 68.6366 31.6876ZM42.3936 32.6217C42.3936 32.7013 42.7335 32.8552 43.1485 32.9639C43.5639 33.0726 43.8087 33.0073 43.6922 32.8194C43.4892 32.4908 42.3936 32.324 42.3936 32.6217ZM55.852 34.6436C54.9454 37.5298 54.8031 38.4786 55.0661 39.8802L55.314 41.2019L56.0836 39.9519C56.7114 38.9325 57.0789 36.9457 56.7159 36.533C56.4545 36.2357 56.5243 34.1063 56.808 33.737C57.008 33.4766 56.9963 33.2076 56.7801 33.0737C56.5794 32.9499 56.1617 33.6562 55.852 34.6436ZM58.3866 33.7034C58.5322 34.3206 58.4741 34.7409 58.2436 34.7409C58.0051 34.7409 58.0391 35.051 58.3307 35.5449C58.7144 36.1946 58.7118 36.3825 58.3179 36.5247C57.9436 36.6598 57.9327 36.8235 58.27 37.2298C58.5593 37.5788 58.5842 37.9199 58.3432 38.2308C58.0915 38.5548 58.2417 39.0849 58.8234 39.9259C59.4882 40.8868 59.7187 41.0219 59.8979 40.5552C60.2903 39.5324 60.1488 37.5973 59.5256 35.4698C58.888 33.2925 57.9451 31.8305 58.3866 33.7034ZM41.4745 34.6304C41.27 35.168 41.313 35.2114 41.6858 34.8416C41.9438 34.5855 42.0597 34.281 41.9435 34.1652C41.8273 34.049 41.6164 34.2584 41.4745 34.6304ZM88.8895 38.7903C87.4033 39.3102 87.6539 41.9093 89.1898 41.9093C89.5976 41.9093 89.9311 42.0904 89.9311 42.3118C89.9311 42.5371 89.6123 42.6137 89.2083 42.4854C88.0956 42.1322 87.878 42.9811 88.9555 43.4723C90.4533 44.1548 91.1241 43.352 90.9864 41.0408C90.8981 39.5629 90.7136 39.1049 90.1198 38.8933C89.7048 38.745 89.1509 38.6986 88.8895 38.7903ZM93.7941 38.765C92.3114 39.3622 92.5548 41.9093 94.0944 41.9093C94.5023 41.9093 94.8358 42.0772 94.8358 42.282C94.8358 42.4873 94.5389 42.6144 94.1756 42.565C93.2467 42.4386 93.0094 43.0664 93.7983 43.564C94.9403 44.2843 95.7628 43.4037 95.8975 41.3173C95.988 39.9089 95.8616 39.3694 95.3538 38.9978C94.6487 38.4824 94.537 38.4658 93.7941 38.765ZM16.8146 41.249C16.9255 43.5769 16.941 43.607 18.0275 43.607C18.6327 43.607 19.1986 43.395 19.285 43.1354C19.3771 42.8589 19.1175 42.6638 18.6561 42.6638C18.209 42.6638 17.8702 42.4197 17.8702 42.0979C17.8702 41.7866 18.1249 41.532 18.4361 41.532C18.7474 41.532 19.002 41.3622 19.002 41.1547C19.002 40.9472 18.7474 40.7774 18.4361 40.7774C18.1249 40.7774 17.8702 40.5228 17.8702 40.2115C17.8702 39.8972 18.2056 39.6456 18.6248 39.6456C19.0398 39.6456 19.3793 39.4758 19.3793 39.2683C19.3793 39.0608 18.7772 38.891 18.0407 38.891H16.7025L16.8146 41.249ZM21.1371 39.4369C20.8077 40.2949 21.1842 40.9966 22.2297 41.4728C23.4611 42.0338 23.4453 42.8193 22.2089 42.5088C21.517 42.3352 21.2657 42.4227 21.2657 42.8381C21.2657 43.1494 21.6924 43.5112 22.2139 43.6421C24.3161 44.1696 25.1551 41.6071 23.1522 40.7774C21.8241 40.2273 21.6472 39.5694 22.8692 39.7256C23.3359 39.7852 23.803 39.6644 23.9067 39.4569C24.0108 39.2487 23.4827 39.0283 22.7285 38.9653C21.7645 38.885 21.2955 39.0238 21.1371 39.4369ZM25.4158 39.2683C25.4158 39.4758 25.6705 39.6456 25.9818 39.6456C26.4164 39.6456 26.5477 40.1277 26.5477 41.7206C26.5477 42.8619 26.7175 43.7957 26.925 43.7957C27.1325 43.7957 27.3023 42.8619 27.3023 41.7206C27.3023 40.1277 27.4336 39.6456 27.8682 39.6456C28.1794 39.6456 28.4341 39.4758 28.4341 39.2683C28.4341 39.0608 27.755 38.891 26.925 38.891C26.095 38.891 25.4158 39.0608 25.4158 39.2683ZM56.5941 39.807C55.7909 41.0328 55.8127 41.3418 56.7944 42.6699L57.6131 43.7772L58.1002 42.9377C59.0702 41.2652 59.1117 41.0211 58.5854 40.0881C57.8463 38.7774 57.3177 38.7027 56.5941 39.807ZM84.9008 39.1427C84.5005 39.5426 84.6096 40.4692 85.0265 40.2115C85.2589 40.0677 85.4037 40.7106 85.4037 41.887C85.4037 42.9366 85.5735 43.7957 85.781 43.7957C85.9938 43.7957 86.1583 42.7268 86.1583 41.3433C86.1583 39.5513 86.0229 38.891 85.6554 38.891C85.3785 38.891 85.0389 39.0042 84.9008 39.1427ZM97.4768 39.2683C97.4768 39.4758 97.8163 39.6456 98.2313 39.6456C99.1353 39.6456 99.1587 39.8946 98.42 41.6625C97.7601 43.2418 97.7099 43.7957 98.2264 43.7957C98.6384 43.7957 99.6718 41.5437 100.001 39.9285C100.2 38.9487 100.136 38.891 98.8444 38.891C98.0921 38.891 97.4768 39.0608 97.4768 39.2683ZM90.1401 40.0557C90.5287 40.685 89.6546 41.4063 89.1339 40.8857C88.6985 40.4503 88.9709 39.6456 89.5538 39.6456C89.7368 39.6456 90.0005 39.8301 90.1401 40.0557ZM95.0448 40.0557C95.4334 40.685 94.5592 41.4063 94.0386 40.8857C93.6032 40.4503 93.8756 39.6456 94.4585 39.6456C94.6415 39.6456 94.9052 39.8301 95.0448 40.0557ZM38.1729 40.2805C38.4449 40.3896 38.7705 40.376 38.8958 40.2507C39.021 40.1255 38.7984 40.0364 38.4008 40.0527C37.9612 40.0708 37.8718 40.1602 38.1729 40.2805ZM66.1714 41.0713C65.4836 41.6286 65.3859 41.9753 65.5983 43.1064L65.8541 44.4699L67.1191 43.661C68.5536 42.7442 68.9188 42.1126 68.5977 41.1015C68.3166 40.2153 67.2451 40.2021 66.1714 41.0713ZM37.1414 41.3747C37.1595 41.8142 37.2489 41.9036 37.3693 41.6029C37.4783 41.3305 37.4647 41.0049 37.3395 40.8797C37.2142 40.7544 37.1252 40.977 37.1414 41.3747ZM30.1115 42.6967C29.7229 43.326 30.5971 44.0473 31.1177 43.5267C31.5531 43.0913 31.2807 42.2865 30.6978 42.2865C30.5148 42.2865 30.2511 42.471 30.1115 42.6967ZM54.0908 42.8506C53.712 43.3071 53.7547 43.6131 54.3145 44.454C54.8857 45.312 55.0302 45.378 55.1415 44.8332C55.3309 43.9074 56.1595 44.0111 56.6473 45.0218C57.0468 45.8504 57.057 45.8455 57.0819 44.8083C57.0962 44.2243 56.9317 43.4176 56.7171 43.0162C56.253 42.1492 54.7514 42.0545 54.0908 42.8506ZM58.23 43.2543C58.0278 43.7866 57.8712 44.5929 57.8817 45.0464L57.9017 45.8707L58.4937 45.0218C59.1747 44.0454 59.7485 43.916 59.7485 44.7389C59.7485 45.5527 60.4065 45.4357 60.8879 44.5359C61.5425 43.3131 61.0068 42.2865 59.7138 42.2865C58.8631 42.2865 58.5107 42.5167 58.23 43.2543ZM50.0147 43.1166C49.5204 43.6108 49.4329 44.5291 49.7909 45.4625C50.0184 46.0556 50.7345 46.3174 50.6492 45.7764C50.5263 44.9981 50.7492 44.5502 51.2597 44.5502C51.5709 44.5502 51.8256 44.8151 51.8256 45.1384C51.8256 45.4618 51.9954 45.6217 52.2029 45.4934C52.8122 45.1169 52.6462 43.1471 51.9833 42.8928C51.0876 42.5491 50.5172 42.614 50.0147 43.1166ZM62.7868 43.2056C62.4955 43.5565 62.4039 44.179 62.5548 44.7804C62.7857 45.6994 62.8415 45.724 63.2942 45.1048C63.5636 44.7366 63.9798 44.5559 64.2186 44.7034C64.8818 45.1131 64.7381 46.2529 63.8986 47.2437L63.1441 48.1344L62.3895 47.2437C61.9745 46.754 61.6342 46.0748 61.6334 45.7345C61.6327 45.372 61.3124 45.641 60.8585 46.3853C60.1771 47.5025 59.9459 47.627 58.9272 47.4232C57.9293 47.2237 57.8346 47.2693 58.2398 47.7575C58.6416 48.2416 58.5261 48.3189 57.4366 48.2933C56.7371 48.277 56.3768 48.1778 56.636 48.0733C57.5622 47.6994 57.0872 47.2142 56.0067 47.4304C55.0435 47.6228 54.8227 47.4915 54.244 46.3835L53.5822 45.1162L53.2695 46.302C52.8722 47.8085 52.0214 48.1416 51.0503 47.1705C50.4776 46.5978 50.1339 46.5049 49.6442 46.7905C49.0567 47.1327 49.0673 47.1693 49.754 47.1799C50.1712 47.1859 50.7243 47.5308 50.9835 47.9458C51.4095 48.6283 51.3604 48.7003 50.4678 48.7003C49.7558 48.7003 49.5404 48.5464 49.6936 48.1473C49.8615 47.7096 49.6691 47.6413 48.7742 47.8205C47.906 47.9941 47.4133 47.8375 46.6557 47.1475C45.8276 46.3933 45.7095 46.3623 45.9238 46.9562C46.2358 47.8205 45.5571 48.7324 44.8142 48.4472C44.4346 48.3016 44.3415 48.4219 44.5048 48.8471C44.6331 49.1814 44.5501 49.4549 44.3203 49.4549C44.0906 49.4549 43.9027 49.2851 43.9027 49.0776C43.9027 48.8701 43.7559 48.7003 43.5771 48.7003C43.3979 48.7003 43.2704 49.0822 43.2941 49.5492C43.3319 50.3015 44.4867 51.1719 46.355 51.8556C46.5625 51.9314 46.2656 52.3683 45.6948 52.8267C45.1239 53.2847 44.6572 53.9042 44.6572 54.2034C44.6572 54.6678 46.5316 54.7323 57.5479 54.6475C71.1236 54.5429 72.1453 54.3984 69.5915 52.9452C68.9531 52.5818 68.4298 52.1804 68.4283 52.0529C68.4272 51.9254 69.187 51.5303 70.1174 51.1753C71.5062 50.6449 71.7952 50.371 71.7348 49.642C71.6944 49.1542 71.5277 48.8373 71.3643 48.9384C71.2009 49.0395 71.067 48.9546 71.067 48.7502C71.067 48.5457 71.2794 48.3053 71.5386 48.2163C71.7982 48.1269 71.6707 48.1254 71.2557 48.2129C69.5375 48.574 69.3689 48.5087 69.2462 47.4353L69.1229 46.3593L68.2249 47.2029C67.5262 47.8594 67.0622 47.9937 66.1325 47.8077C65.101 47.6013 65.0022 47.6458 65.4082 48.1348C65.8088 48.6177 65.6971 48.7003 64.6408 48.7003C63.4282 48.7003 63.4176 48.6856 64.0873 47.9458C64.4627 47.5308 65.0411 47.1886 65.3719 47.1856C65.7522 47.1818 65.8217 47.0777 65.5606 46.9026C65.3334 46.7502 65.1637 45.7764 65.1833 44.7389C65.2169 42.98 65.1531 42.8449 64.2435 42.7389C63.7036 42.6763 63.0532 42.8845 62.7868 43.2056ZM66.7113 44.3446C66.202 44.854 65.7851 45.5648 65.7851 45.9247C65.7851 46.4872 65.8941 46.4619 66.5623 45.7447C67.3078 44.9445 68.3162 44.9441 67.8216 45.7443C67.6839 45.9673 67.8643 46.0763 68.2464 46.0013C69.1199 45.8296 69.7386 44.8109 69.4413 44.0356C69.0946 43.1324 67.7737 43.2822 66.7113 44.3446ZM56.7303 46.4367C56.7303 46.6442 57.0698 46.8139 57.4848 46.8139C57.8999 46.8139 58.2394 46.6442 58.2394 46.4367C58.2394 46.2291 57.8999 46.0594 57.4848 46.0594C57.0698 46.0594 56.7303 46.2291 56.7303 46.4367ZM54.7345 48.3985C54.4836 48.5581 55.6886 48.6913 57.4128 48.6947C59.1411 48.6977 60.4548 48.5502 60.3409 48.3657C60.2273 48.182 60.3922 47.8171 60.7076 47.5553C61.18 47.1633 61.3731 47.2048 61.8021 47.7915C62.0884 48.1831 62.2428 48.6324 62.145 48.7905C61.8111 49.3312 66.7015 49.0739 67.444 48.5117C67.8379 48.2137 68.3046 48.0593 68.4815 48.1688C69.0689 48.5317 68.815 49.0229 67.9544 49.1886C67.4874 49.2787 67.8695 49.3779 68.8033 49.4093C70.486 49.4659 71.8238 49.9559 71.2017 50.2876C71.024 50.3823 69.605 50.3438 68.0488 50.2023C63.9458 49.8292 51.4434 49.8043 47.4869 50.1612C45.6193 50.3295 43.9329 50.38 43.7389 50.2732C43.2032 49.9782 44.661 49.5157 46.355 49.444C47.4887 49.3957 47.6559 49.3187 47.0266 49.1342C46.4656 48.9701 46.2886 48.729 46.4908 48.4046C46.8085 47.8945 48.0528 48.1623 48.0528 48.7407C48.0528 48.926 49.1846 49.0776 50.5681 49.0776C51.9512 49.0776 52.9695 48.9641 52.8307 48.8252C52.6922 48.6864 52.8511 48.2718 53.1846 47.9035C53.6728 47.3636 53.9263 47.3187 54.4907 47.6711C54.9997 47.9892 55.0665 48.1876 54.7345 48.3985ZM43.0776 48.2035C43.3496 48.3125 43.6752 48.2989 43.8004 48.1737C43.9257 48.0484 43.7031 47.9594 43.3054 47.9756C42.8659 47.9937 42.7765 48.0831 43.0776 48.2035ZM50.3123 51.1478C51.0816 52.0744 50.4817 52.8505 48.996 52.8505C47.6027 52.8505 47.0243 52.2215 47.4348 51.1527C47.7163 50.4185 49.7045 50.4151 50.3123 51.1478ZM54.1142 50.9772C55.772 51.8646 53.9969 53.2164 52.1686 52.4588C50.8892 51.9291 50.8428 51.7861 51.7313 51.1119C52.5372 50.5004 53.157 50.4653 54.1142 50.9772ZM59.3018 51.6243C59.1951 52.5532 59.0143 52.6739 57.5758 52.778C56.3926 52.8637 55.9093 52.7392 55.7433 52.3064C55.2868 51.1168 55.8859 50.5868 57.6867 50.5868C59.3565 50.5868 59.4169 50.6256 59.3018 51.6243ZM63.169 50.9772C64.1461 51.5002 64.088 51.8884 62.9554 52.4045C62.2499 52.7259 61.7745 52.7259 61.069 52.4045C59.904 51.8737 59.8832 51.5737 60.9747 51.047C62.0756 50.5162 62.2944 50.5094 63.169 50.9772ZM67.6715 51.1527C68.3668 51.9906 67.4949 52.8505 65.9499 52.8505C64.4759 52.8505 64.0862 52.4007 64.6491 51.3492C65.1388 50.4343 66.9761 50.3151 67.6715 51.1527ZM48.5244 51.2557C47.1084 51.4862 47.491 52.4732 48.996 52.4732C49.7223 52.4732 50.3165 52.3241 50.3165 52.1419C50.3165 51.5643 49.4035 51.1127 48.5244 51.2557ZM52.2795 51.2862C51.5894 51.7235 52.6405 52.5713 53.4755 52.2506C54.2546 51.9518 54.2617 51.4881 53.4924 51.1931C52.7718 50.9165 52.8745 50.9086 52.2795 51.2862ZM56.1644 51.3413C55.7482 52.0148 56.3685 52.4732 57.6957 52.4732C58.7423 52.4732 58.994 52.3272 58.994 51.7186C58.994 51.1101 58.7423 50.964 57.6957 50.964C56.9816 50.964 56.2926 51.1338 56.1644 51.3413ZM61.4463 51.3413C61.195 51.748 61.5146 52.4769 61.9402 52.4675C62.0835 52.4641 62.4555 52.2943 62.7668 52.0902C63.2697 51.7597 63.2697 51.6775 62.7668 51.347C62.0443 50.8727 61.7368 50.8712 61.4463 51.3413ZM65.2938 51.204C64.657 51.8408 65.0897 52.4732 66.1623 52.4732C66.9169 52.4732 67.2942 52.2845 67.2942 51.9072C67.2942 51.596 67.1384 51.3413 66.9478 51.3413C66.7573 51.3413 66.3664 51.2512 66.0793 51.141C65.7918 51.0308 65.4387 51.0591 65.2938 51.204ZM44.28 52.0959C44.28 52.3034 44.6195 52.4732 45.0345 52.4732C45.4495 52.4732 45.7891 52.3034 45.7891 52.0959C45.7891 51.8884 45.4495 51.7186 45.0345 51.7186C44.6195 51.7186 44.28 51.8884 44.28 52.0959ZM69.1806 52.0959C69.1806 52.3034 69.5202 52.4732 69.9352 52.4732C70.3502 52.4732 70.6897 52.3034 70.6897 52.0959C70.6897 51.8884 70.3502 51.7186 69.9352 51.7186C69.5202 51.7186 69.1806 51.8884 69.1806 52.0959ZM69.9352 53.9823C69.9352 54.226 65.5334 54.3596 57.4848 54.3596C49.4363 54.3596 45.0345 54.226 45.0345 53.9823C45.0345 53.7386 49.4363 53.605 57.4848 53.605C65.5334 53.605 69.9352 53.7386 69.9352 53.9823Z" fill="white"/>
</svg>
