<svg width="662" height="319" viewBox="0 0 662 319" fill="none" xmlns="http://www.w3.org/2000/svg">
<path fill-rule="evenodd" clip-rule="evenodd" d="M289.197 1.59187C268.302 2.48951 265.005 3.5176 270.398 7.4597C273.805 9.95142 274.698 15.8104 276.52 47.5926C278.503 82.238 278.377 85.0083 274.689 87.7056C272.509 89.2997 271.211 91.0861 271.801 91.6764C272.392 92.269 285.75 91.8091 301.488 90.6594C317.225 89.5075 332.337 88.5369 335.074 88.5015C339.385 88.4463 340.013 87.3297 339.788 80.1464C339.644 75.5875 338.804 68.8706 337.924 65.2226C336.504 59.3504 336.133 59.0983 334.689 63.0117C333.792 65.4437 332.182 69.6312 331.114 72.3175C328.625 78.5767 313.681 86.2265 303.942 86.2265H296.4L294.842 68.34C293.982 58.5014 293.84 49.8942 294.523 49.2088C297.99 45.7443 310.519 48.7467 315.176 54.1591L320.15 59.9429V45.448C320.15 31.5611 317.468 26.4118 314.729 35.0389C313.334 39.4387 304.749 44.2187 298.244 44.2187C295.058 44.2187 293.948 41.8353 292.841 32.6113C292.074 26.2283 291.437 17.1348 291.428 12.4056L291.408 3.80502L302.343 5.10063C316.246 6.74778 325.777 11.6759 329.956 19.3744C333.186 25.3263 333.241 25.2179 333.327 12.7129L333.416 0L319.597 0.439976C311.998 0.680968 298.317 1.19833 289.197 1.59187ZM368.791 1.20717C368.791 2.09818 370.429 4.02611 372.43 5.48975C375.799 7.95495 375.72 10.8247 371.366 44.0175C368.777 63.7457 366.087 80.8141 365.384 81.9505C364.683 83.087 362.675 84.0156 360.922 84.0156C359.169 84.0156 357.736 84.9397 357.736 86.0673C357.736 87.1949 363.458 88.7691 370.449 89.565C377.44 90.3609 384.902 91.4929 387.031 92.0833C391.742 93.3921 392.236 89.4235 387.584 87.6371C383.98 86.2552 383.451 79.5318 385.673 63.3212C386.954 53.9866 387.619 53.0625 393.069 53.0625C401.732 53.0625 405.716 58.8374 408.638 75.6273C410.058 83.7834 412.512 91.5283 414.091 92.8394C415.671 94.1505 422.291 95.7844 428.804 96.472L440.646 97.7211L434.723 92.5254C430.567 88.8796 428.068 83.6375 426.344 74.9397C424.991 68.1233 421.953 60.4735 419.594 57.9398C415.486 53.5334 415.475 53.2791 419.333 52.0543C427.721 49.3923 433.578 40.3518 433.801 29.7172C434.095 15.5893 425.751 8.10087 406.096 4.85521C381.353 0.767195 368.791 -0.459875 368.791 1.20717ZM405.636 8.98303C409.034 10.2742 412.565 12.5117 413.483 13.9576C416.352 18.4702 415.375 35.2954 411.847 42.1183C408.851 47.911 407.332 48.6406 398.276 48.6406H388.079L389.558 34.2054C392.53 5.20233 393.146 4.23394 405.636 8.98303ZM223.309 11.0237C214.07 13.2126 212.745 14.5878 216.046 18.5652C220.331 23.7256 227.218 55.4657 224.264 56.4297C199.017 64.6522 197.682 64.1967 193.397 45.8769C191.334 37.0597 189.661 27.5018 189.676 24.6342C189.701 20.1085 188.938 19.611 183.919 20.8712C180.737 21.6694 175.265 22.8964 171.759 23.5973C165.199 24.9106 162.858 28.7422 168.615 28.7422C172.064 28.7422 172.194 29.1401 183.311 73.8077C188.984 96.6068 189.886 103.116 187.824 106.419C184.693 111.431 187.379 111.754 201.887 108.099C211.144 105.769 211.461 105.428 208.538 100.914C205.823 96.7174 198.131 68.2206 199.378 66.9715C199.645 66.7039 206.097 65.0325 213.711 63.2549C224.098 60.8317 227.775 60.6747 228.436 62.6248C232.385 74.3029 235.878 93.1644 234.673 96.3039C233.415 99.5872 234.103 99.9254 239.345 98.6099C242.728 97.7609 248.363 96.4941 251.87 95.7932C259.089 94.3495 259.637 93.2838 254.965 89.7861C250.329 86.3149 233.899 17.7405 236.499 12.7129C238.75 8.36397 236.02 8.01464 223.309 11.0237ZM477.127 19.4253C477.127 20.6413 478.619 22.2088 480.443 22.9097C485.296 24.7713 484.626 30.2876 475.902 60.2988C465.464 96.1978 464.069 99.4921 459.302 99.4921C457.089 99.4921 454.756 100.337 454.117 101.369C452.954 103.253 486.076 113.39 487.792 111.674C488.296 111.17 487.098 109.147 485.128 107.177C483.16 105.21 481.548 103.264 481.548 102.853C481.548 100.368 500.081 37.9927 501.763 34.8222C502.891 32.6953 505.769 30.9531 508.157 30.9531C517.264 30.9531 511.907 27.0287 497.578 23.2038C489.369 21.0105 481.411 18.7664 479.89 18.2159C478.371 17.6654 477.127 18.2093 477.127 19.4253ZM544.766 43.666C545.657 48.1807 542.316 57.4335 531.794 79.5937C517.337 110.038 514.743 113.784 506.974 115.429C503.775 116.107 506.766 118.314 517.781 123.406C533.901 130.856 539.552 132.291 535.053 127.792C530.3 123.039 532.354 116.534 548.524 85.121C562.345 58.2736 565.12 54.2387 569.433 54.6941C578.217 55.6249 574.784 51.9857 559.995 44.6941C552.068 40.7851 545.128 37.5859 544.573 37.5859C544.018 37.5859 544.105 40.323 544.766 43.666ZM113.428 46.8188C100.98 51.0439 72.5254 64.8092 72.5254 66.6066C72.5254 67.5927 73.8321 67.8978 75.4284 67.2854C80.0957 65.4945 84.6679 72.3993 97.4957 100.598C112.464 133.507 113.384 136.45 109.979 140.554C104.858 146.722 109.497 145.995 126.371 137.982C144.012 129.605 147.602 126.154 137.069 127.699C129.844 128.76 127.514 126.461 121.429 112.265L117.016 101.971L129.108 95.1476C141.064 88.3998 149.884 77.7785 149.899 70.1088C149.915 63.12 141.599 49.5935 135.61 46.8652C128.761 43.7434 122.526 43.7301 113.428 46.8188ZM127.153 63.0117C129.901 67.8757 132.165 75.6007 132.185 80.1796C132.214 87.2148 131.109 89.1803 125.035 92.8836C121.082 95.2913 116.976 96.9761 115.908 96.6245C114.841 96.2752 110.144 87.5729 105.473 77.2877C97.593 59.9407 97.2547 58.382 100.781 55.7288C102.873 54.1547 108.539 53.1597 113.372 53.5179C121.04 54.0839 122.795 55.2955 127.153 63.0117ZM588.741 64.0751C594.366 70.2923 590.636 74.0243 568.328 84.5042C558.297 89.2157 550.087 93.5204 550.087 94.0709C550.087 101.413 557.863 137.224 560.271 140.967C562.038 143.715 571.662 149.994 581.657 154.922C591.655 159.851 600.78 164.814 601.934 165.957C603.09 167.098 605.5 168.031 607.293 168.031C609.677 168.031 609.199 166.59 605.516 162.667C600.227 157.038 600.556 155.062 608.204 146.563L612.599 141.675L616.88 147.116C624.238 156.47 634.103 152.959 634.103 140.987C634.103 136.645 632.679 134.197 629.46 133.008C625.067 131.383 625.257 130.905 633.009 124.098C637.514 120.142 641.675 117.383 642.255 117.962C642.836 118.544 641.717 129.3 639.772 141.867C634.413 176.457 634.289 176.875 629.376 176.875C626.968 176.875 625.556 177.775 626.234 178.876C628.472 182.495 652.102 194.83 654.738 193.755C656.582 193.001 656.528 192.65 654.554 192.526C650.594 192.276 651.052 183.291 657.32 138.369C660.36 116.583 662.432 98.3424 661.923 97.8339C661.415 97.3254 647.274 108.053 630.499 121.674C613.723 135.296 596.703 148.013 592.674 149.935C585.75 153.238 585.104 153.18 580.815 148.891C577.698 145.771 574.969 137.518 572.084 122.475C569.778 110.443 567.37 98.4507 566.736 95.8264C565.725 91.6455 567.709 90.1597 582.708 83.8542C593.734 79.2178 603.574 76.631 610.335 76.5934C616.113 76.5603 620.837 76.2397 620.837 75.8793C620.837 74.6279 589.973 59.6953 587.386 59.6953C585.838 59.6953 586.389 61.4751 588.741 64.0751ZM27.1548 93.6508C-0.106008 106.344 -8.21351 127.27 9.13128 140.169C14.6188 144.25 18.4305 144.816 40.4005 144.816C61.8997 144.816 66.0739 145.409 70.0779 149.028C77.8051 156.015 75.8286 166.209 65.7334 171.429C56.3303 176.291 45.9036 175.407 36.3855 168.94C31.7536 165.791 27.4865 163.693 26.9028 164.275C26.3213 164.858 29.1137 169.972 33.1089 175.639C39.3216 184.456 41.1766 185.75 45.9456 184.595C65.9855 179.751 85.791 162.418 85.791 149.725C85.791 132.563 73.6066 126.023 41.6431 126.023C22.4102 126.023 18.8749 125.435 15.0411 121.601C9.75255 116.313 9.51377 113.109 13.9423 106.786C21.3113 96.2663 39.965 95.5611 50.8251 105.389C53.7612 108.046 54.8379 108.243 54.8379 106.123C54.8379 102.044 44.1039 88.433 40.9068 88.4595C39.4498 88.4706 33.2614 90.8076 27.1548 93.6508ZM327.457 133.136C322.735 139.227 322.655 143.954 327.143 151.564L331.784 159.426L334.725 154.332C340.511 144.308 340.747 142.946 337.654 137.46C333.882 130.775 330.427 129.307 327.457 133.136ZM313.96 150.786C310.283 154.463 310.639 162.515 314.623 165.82C317.34 168.075 317.939 167.923 317.939 164.984C317.939 163.012 319.365 161.398 321.108 161.398C325.061 161.398 328.39 170.812 324.851 171.991C320.309 173.505 324.694 176.875 331.205 176.875C337.475 176.875 342.147 173.539 337.908 172.088C333.915 170.724 338.143 161.398 342.755 161.398C345.757 161.398 346.75 162.451 345.881 164.715C343.969 169.698 348.377 168.703 351.148 163.525C354.296 157.644 352.05 150.943 346.321 149.123C340.009 147.12 335.538 152.294 334.061 163.304C332.602 174.182 328.994 175.535 328.994 165.208C328.994 152.665 320.362 144.383 313.96 150.786ZM289.96 180.286C289.239 182.163 289.144 184.193 289.748 184.797C290.353 185.4 291.377 183.864 292.025 181.385C293.405 176.116 291.872 175.303 289.96 180.286ZM319.438 181.65C317.249 182.875 314.125 183.366 312.496 182.74C310.807 182.093 309.051 183.439 308.415 185.871C307.095 190.917 300.661 191.567 298.846 186.837C298.147 185.02 296.639 184.113 295.492 184.823C294.251 185.588 294.492 187.423 296.086 189.342C298.22 191.916 298.039 193.3 295.198 196.141C292.182 199.157 291.074 199.25 288.05 196.738C286.08 195.104 284.957 191.898 285.553 189.616C286.433 186.245 286.051 185.953 283.508 188.064C281.786 189.493 278.381 190.14 275.94 189.501C273.499 188.865 272.06 189.245 272.743 190.346C273.424 191.449 273.044 192.351 271.899 192.351C270.751 192.351 269.296 190.366 268.662 187.941C266.347 179.095 253.608 180.757 253.961 189.857C254.054 192.217 254.813 191.686 256.164 188.319C258.534 182.402 265.52 182.524 266.67 188.502C267.163 191.056 265.323 193.094 261.169 194.602C249.199 198.942 243.829 202.316 237.512 209.471C234.012 213.43 230.032 216.656 228.668 216.639C226.864 216.614 226.873 216.161 228.704 214.98C230.53 213.802 230.377 212.57 228.153 210.505C225.608 208.144 225.186 208.334 225.697 211.611C226.035 213.786 227.068 216.773 227.987 218.25C228.962 219.809 227.777 222.818 225.16 225.436C222.683 227.912 221.653 229.937 222.869 229.937C224.085 229.937 225.08 232.955 225.08 236.641C225.08 241.467 223.687 243.961 220.105 245.547L215.131 247.749L220.105 246.789C223.362 246.159 225.08 246.902 225.08 248.938C225.08 250.647 223.384 252.047 221.31 252.047C218.821 252.047 221.638 255.951 229.601 263.535C242.206 275.54 250.599 279.201 248.2 271.647C247.302 268.819 247.981 267.523 250.358 267.523C252.263 267.523 253.822 268.717 253.822 270.176C253.822 272.21 254.43 272.221 256.422 270.229C259.929 266.723 252.745 258.679 246.11 258.679C239.073 258.679 238.127 260.685 241.808 267.804C243.614 271.297 244.527 274.156 243.835 274.156C241.229 274.156 229.506 246.243 229.504 240.032C229.502 230.057 237.605 215.575 246.727 209.254C255.991 202.833 268.848 197.795 270.851 199.8C271.58 200.53 273.413 199.437 274.921 197.375C277.238 194.204 278.215 194.08 281.22 196.574C283.175 198.197 284.775 200.928 284.775 202.641C284.775 206.866 278.768 208.889 275.147 205.885C271.012 202.453 269.051 205.281 272.138 210.222C275.677 215.891 270.961 221.014 265.418 217.516C262.44 215.639 260.844 216.181 257.74 220.127C253.172 225.936 252.838 231.668 256.382 243.499C259.066 252.456 261.914 254.366 264.099 248.673C265.155 245.925 266.011 245.814 268.746 248.082C271.656 250.497 271.403 251.027 266.84 252.104C260.404 253.625 259 259.119 263.818 263.939C267.645 267.764 272.624 268.903 270.499 265.465C267.758 261.032 273.822 260.992 278.246 265.416C285.228 272.398 285.613 269.383 278.994 259.577C275.029 253.705 274.521 252.157 277.406 254.74C281.472 258.379 281.755 258.255 284.205 251.764C286.487 245.721 286.188 244.415 281.448 239.674C275.81 234.036 267.11 232.493 267.055 237.123C267.03 238.98 266.489 239.108 265.396 237.514C264.503 236.21 261.961 234.472 259.747 233.656C254.129 231.58 255.615 222.199 261.56 222.199C264.463 222.199 266.225 223.908 266.69 227.174C267.755 234.686 273.051 233.139 275.907 224.483C279.52 213.539 312.065 185.413 321.959 184.684C324.046 184.529 327.024 183.618 328.576 182.661C330.141 181.692 332.856 182.126 334.669 183.629C337.365 185.867 337.694 185.708 336.546 182.714C334.924 178.489 326.798 177.77 326.75 181.849C326.723 183.91 326.294 183.952 325.065 182.02C323.909 180.2 322.228 180.09 319.438 181.65ZM340.049 182.15C340.049 182.665 344.431 185.654 349.786 188.794C364.482 197.406 383.734 215.989 386.828 224.547C388.34 228.728 390.836 232.148 392.373 232.148C396.118 232.148 399.874 239.544 399.191 245.577C398.886 248.259 399.768 250.857 401.15 251.35C403.825 252.305 408.588 241.038 408.588 233.758C408.588 230.132 408.028 229.86 405.271 232.148C402.625 234.344 401.285 234.344 398.638 232.148C393.969 228.272 394.517 223.101 399.744 221.735C404.519 220.486 405.499 217.755 401.955 215.566C400.739 214.815 399.744 215.254 399.744 216.541C399.744 220.165 390.922 219.303 389.478 215.537C388.771 213.698 389.348 210.802 390.761 209.101C392.516 206.986 392.596 205.56 391.008 204.578C389.733 203.791 388.689 204.2 388.689 205.487C388.689 209.303 380.442 208.151 378.895 204.118C376.898 198.916 383.283 192.694 386.905 196.316C388.373 197.784 391.614 198.993 394.106 199.004C401.126 199.037 420.894 211.323 426.428 219.095C433.978 229.701 434.425 243.93 427.679 259.029C424.604 265.909 420.792 272.339 419.207 273.314C417.551 274.335 418.011 272.515 420.288 269.033C424.86 262.04 423.677 258.679 416.638 258.679C410.498 258.679 406.377 262.586 406.377 268.408C406.377 271.848 406.967 272.239 409.03 270.176C412.943 266.263 415.886 266.951 414.696 271.498C412.609 279.48 421.312 275.949 433.067 264.045C440.801 256.214 443.651 252.047 441.272 252.047C436.978 252.047 436.353 239.685 440.385 234.487C442.273 232.053 442.203 231.693 440.093 232.96C438.575 233.873 437.33 233.565 437.33 232.279C437.33 230.992 438.515 229.937 439.963 229.937C441.411 229.937 440.823 228.642 438.656 227.056C435.789 224.96 435.019 222.245 435.833 217.094C436.474 213.015 436.076 210.552 434.891 211.284C433.761 211.985 433.408 213.481 434.108 214.613C436.759 218.905 432.309 216.413 425.935 210.039C419.91 204.014 419.622 202.303 424.781 203.198C425.784 203.373 426.032 202.59 425.331 201.458C424.632 200.326 422.072 199.919 419.645 200.554C417.215 201.189 412.886 200.174 410.02 198.297C407.155 196.42 401.194 194.204 396.77 193.375C392.346 192.546 389.218 191.073 389.817 190.105C390.416 189.134 388.91 188.865 386.469 189.501C384.029 190.14 380.681 189.541 379.032 188.171C376.617 186.167 376.226 186.705 377.031 190.914C377.701 194.427 376.81 196.616 374.316 197.574C368.897 199.654 366.02 197.001 367.17 190.987C368.333 184.901 368.07 184.772 361.994 188.482C358.236 190.777 357.02 190.651 354.838 187.744C352.463 184.58 340.049 179.884 340.049 182.15ZM396.556 183.302C395.873 184.403 397.307 184.786 399.742 184.149C404.904 182.798 405.556 181.297 400.98 181.297C399.227 181.297 397.237 182.199 396.556 183.302ZM242.767 188.776C242.767 189.243 244.76 190.145 247.192 190.782C249.626 191.418 251.061 191.036 250.377 189.935C249.188 188.009 242.767 187.032 242.767 188.776ZM321.636 200.625C316.323 217.538 315.49 223.099 317.031 231.313L318.483 239.057L322.993 231.733C326.672 225.759 328.826 214.116 326.699 211.697C325.167 209.955 325.576 197.476 327.238 195.312C328.41 193.786 328.342 192.21 327.075 191.425C325.899 190.7 323.451 194.839 321.636 200.625ZM336.489 195.115C337.342 198.732 337.002 201.195 335.651 201.195C334.254 201.195 334.453 203.013 336.162 205.907C338.41 209.714 338.395 210.815 336.087 211.648C333.893 212.44 333.829 213.4 335.806 215.781C337.502 217.826 337.648 219.824 336.235 221.646C334.76 223.545 335.64 226.652 339.049 231.58C342.945 237.211 344.296 238.003 345.346 235.268C347.645 229.274 346.816 217.934 343.164 205.467C339.427 192.707 333.902 184.14 336.489 195.115ZM237.382 200.547C236.183 203.698 236.435 203.952 238.62 201.785C240.132 200.284 240.811 198.5 240.13 197.821C239.449 197.14 238.213 198.367 237.382 200.547ZM515.241 224.925C506.532 227.972 508 243.203 517.001 243.203C519.391 243.203 521.345 244.264 521.345 245.562C521.345 246.882 519.477 247.331 517.109 246.579C510.589 244.51 509.313 249.484 515.628 252.363C524.405 256.362 528.336 251.658 527.529 238.113C527.012 229.453 525.931 226.769 522.451 225.529C520.019 224.66 516.773 224.388 515.241 224.925ZM543.983 224.777C535.294 228.277 536.72 243.203 545.743 243.203C548.133 243.203 550.087 244.187 550.087 245.387C550.087 246.59 548.347 247.335 546.218 247.046C540.775 246.305 539.384 249.984 544.007 252.9C550.7 257.121 555.52 251.96 556.309 239.734C556.84 231.481 556.099 228.319 553.123 226.141C548.991 223.121 548.336 223.024 543.983 224.777ZM92.8705 239.334C93.5205 252.975 93.6111 253.152 99.9786 253.152C103.525 253.152 106.841 251.91 107.348 250.388C107.887 248.768 106.366 247.625 103.662 247.625C101.042 247.625 99.0567 246.194 99.0567 244.308C99.0567 242.484 100.549 240.992 102.373 240.992C104.197 240.992 105.689 239.997 105.689 238.781C105.689 237.565 104.197 236.57 102.373 236.57C100.549 236.57 99.0567 235.078 99.0567 233.254C99.0567 231.412 101.022 229.937 103.479 229.937C105.911 229.937 107.9 228.942 107.9 227.726C107.9 226.51 104.372 225.515 100.056 225.515H92.2138L92.8705 239.334ZM118.201 228.715C116.271 233.742 118.478 237.855 124.604 240.645C131.821 243.933 131.728 248.536 124.482 246.716C120.428 245.699 118.955 246.212 118.955 248.646C118.955 250.47 121.456 252.591 124.511 253.358C136.83 256.449 141.748 241.432 130.01 236.57C122.227 233.347 121.19 229.491 128.352 230.406C131.086 230.755 133.824 230.048 134.432 228.832C135.042 227.611 131.947 226.32 127.527 225.951C121.878 225.48 119.13 226.294 118.201 228.715ZM143.275 227.726C143.275 228.942 144.768 229.937 146.592 229.937C149.139 229.937 149.908 232.763 149.908 242.097C149.908 248.786 150.903 254.258 152.119 254.258C153.335 254.258 154.33 248.786 154.33 242.097C154.33 232.763 155.099 229.937 157.646 229.937C159.47 229.937 160.963 228.942 160.963 227.726C160.963 226.51 156.983 225.515 152.119 225.515C147.255 225.515 143.275 226.51 143.275 227.726ZM325.985 230.884C321.278 238.067 321.406 239.878 327.159 247.66L331.957 254.149L334.811 249.23C340.495 239.429 340.738 237.998 337.654 232.531C333.323 224.85 330.225 224.412 325.985 230.884ZM491.867 226.99C489.521 229.334 490.16 234.764 492.603 233.254C493.965 232.411 494.814 236.179 494.814 243.072C494.814 249.223 495.809 254.258 497.025 254.258C498.272 254.258 499.236 247.994 499.236 239.887C499.236 229.385 498.442 225.515 496.289 225.515C494.666 225.515 492.676 226.179 491.867 226.99ZM565.564 227.726C565.564 228.942 567.554 229.937 569.986 229.937C575.283 229.937 575.42 231.397 571.091 241.757C567.224 251.012 566.93 254.258 569.957 254.258C572.371 254.258 578.427 241.061 580.355 231.596C581.525 225.854 581.149 225.515 573.579 225.515C569.17 225.515 565.564 226.51 565.564 227.726ZM522.57 232.341C524.847 236.028 519.725 240.256 516.674 237.205C514.122 234.653 515.718 229.937 519.134 229.937C520.207 229.937 521.752 231.018 522.57 232.341ZM551.312 232.341C553.59 236.028 548.467 240.256 545.416 237.205C542.864 234.653 544.461 229.937 547.877 229.937C548.949 229.937 550.494 231.018 551.312 232.341ZM218.034 233.658C219.628 234.297 221.536 234.218 222.27 233.484C223.004 232.75 221.699 232.228 219.369 232.323C216.793 232.429 216.269 232.953 218.034 233.658ZM382.109 238.292C378.079 241.558 377.506 243.59 378.751 250.218L380.25 258.209L387.663 253.468C396.069 248.096 398.209 244.395 396.328 238.469C394.681 233.276 388.402 233.198 382.109 238.292ZM211.989 240.07C212.095 242.646 212.619 243.17 213.324 241.408C213.963 239.811 213.884 237.903 213.15 237.169C212.416 236.435 211.894 237.74 211.989 240.07ZM170.793 247.817C168.515 251.505 173.638 255.732 176.689 252.681C179.241 250.13 177.644 245.414 174.228 245.414C173.156 245.414 171.611 246.495 170.793 247.817ZM311.315 248.719C309.096 251.394 309.345 253.188 312.626 258.116C315.974 263.143 316.821 263.53 317.473 260.338C318.583 254.912 323.438 255.52 326.297 261.443C328.638 266.298 328.698 266.27 328.844 260.192C328.928 256.769 327.964 252.042 326.706 249.69C323.986 244.609 315.187 244.054 311.315 248.719ZM335.571 251.085C334.386 254.205 333.469 258.929 333.531 261.587L333.648 266.418L337.117 261.443C341.108 255.721 344.47 254.963 344.47 259.785C344.47 264.554 348.326 263.869 351.148 258.595C354.983 251.43 351.844 245.414 344.267 245.414C339.281 245.414 337.216 246.763 335.571 251.085ZM287.428 250.278C284.532 253.174 284.019 258.556 286.117 264.026C287.45 267.501 291.647 269.035 291.147 265.865C290.426 261.304 291.733 258.679 294.724 258.679C296.548 258.679 298.041 260.232 298.041 262.126C298.041 264.021 299.036 264.959 300.252 264.207C303.822 262 302.85 250.457 298.965 248.967C293.716 246.953 290.373 247.333 287.428 250.278ZM362.275 250.8C360.568 252.856 360.031 256.504 360.915 260.028C362.269 265.414 362.596 265.558 365.249 261.93C366.827 259.772 369.266 258.713 370.666 259.577C374.552 261.978 373.71 268.657 368.791 274.463L364.369 279.683L359.947 274.463C357.515 271.594 355.521 267.614 355.516 265.62C355.512 263.495 353.635 265.071 350.975 269.433C346.982 275.98 345.627 276.71 339.657 275.516C333.809 274.346 333.254 274.614 335.629 277.475C337.984 280.311 337.307 280.765 330.922 280.614C326.823 280.519 324.711 279.938 326.23 279.325C331.658 277.134 328.875 274.291 322.542 275.558C316.898 276.685 315.605 275.916 312.213 269.422L308.335 261.996L306.502 268.945C304.174 277.773 299.188 279.725 293.497 274.034C290.141 270.678 288.127 270.134 285.257 271.808C281.815 273.813 281.877 274.028 285.901 274.09C288.346 274.125 291.587 276.146 293.106 278.578C295.602 282.577 295.315 283 290.084 283C285.912 283 284.649 282.098 285.547 279.759C286.531 277.194 285.403 276.794 280.159 277.844C275.071 278.861 272.184 277.943 267.744 273.9C262.891 269.48 262.199 269.299 263.455 272.779C265.284 277.844 261.306 283.188 256.953 281.516C254.729 280.663 254.183 281.368 255.14 283.86C255.892 285.819 255.405 287.422 254.059 287.422C252.712 287.422 251.611 286.427 251.611 285.211C251.611 283.995 250.751 283 249.703 283C248.653 283 247.906 285.237 248.045 287.974C248.266 292.383 255.034 297.484 265.982 301.49C267.198 301.934 265.458 304.494 262.113 307.181C258.768 309.865 256.033 313.495 256.033 315.248C256.033 317.97 267.017 318.348 331.574 317.851C411.13 317.238 417.117 316.392 402.152 307.875C398.411 305.746 395.344 303.393 395.335 302.646C395.329 301.899 399.781 299.584 405.234 297.503C413.372 294.395 415.066 292.79 414.712 288.518C414.475 285.66 413.498 283.802 412.541 284.395C411.583 284.987 410.799 284.49 410.799 283.292C410.799 282.093 412.043 280.685 413.562 280.163C415.083 279.639 414.336 279.63 411.904 280.143C401.835 282.259 400.847 281.877 400.129 275.586L399.406 269.281L394.144 274.225C390.049 278.072 387.329 278.859 381.882 277.769C375.837 276.559 375.258 276.82 377.637 279.686C379.985 282.516 379.33 283 373.14 283C366.034 283 365.972 282.914 369.896 278.578C372.096 276.146 375.485 274.141 377.424 274.123C379.653 274.101 380.06 273.491 378.53 272.465C377.199 271.571 376.204 265.865 376.319 259.785C376.516 249.478 376.142 248.686 370.812 248.065C367.648 247.698 363.836 248.918 362.275 250.8ZM385.273 257.475C382.289 260.459 379.845 264.625 379.845 266.734C379.845 270.03 380.484 269.882 384.4 265.679C388.769 260.99 394.679 260.988 391.78 265.677C390.973 266.984 392.03 267.623 394.27 267.183C399.388 266.177 403.014 260.207 401.272 255.664C399.24 250.371 391.499 251.249 385.273 257.475ZM326.783 269.734C326.783 270.95 328.773 271.945 331.205 271.945C333.637 271.945 335.627 270.95 335.627 269.734C335.627 268.518 333.637 267.523 331.205 267.523C328.773 267.523 326.783 268.518 326.783 269.734ZM315.087 281.231C313.617 282.166 320.679 282.947 330.783 282.967C340.911 282.984 348.609 282.12 347.942 281.039C347.276 279.962 348.242 277.824 350.091 276.29C352.859 273.992 353.991 274.236 356.505 277.674C358.183 279.969 359.087 282.602 358.514 283.528C356.558 286.696 385.216 285.189 389.567 281.894C391.875 280.148 394.61 279.243 395.647 279.885C399.089 282.011 397.601 284.89 392.558 285.861C389.821 286.389 392.061 286.971 397.533 287.154C407.394 287.486 415.234 290.358 411.588 292.301C410.546 292.856 402.231 292.631 393.111 291.801C369.067 289.615 295.801 289.469 272.615 291.56C261.671 292.547 251.788 292.843 250.652 292.217C247.512 290.488 256.055 287.778 265.982 287.357C272.626 287.074 273.606 286.623 269.918 285.542C266.63 284.581 265.593 283.168 266.778 281.266C268.64 278.277 275.931 279.847 275.931 283.236C275.931 284.322 282.564 285.211 290.672 285.211C298.777 285.211 304.744 284.545 303.931 283.732C303.119 282.918 304.05 280.488 306.005 278.33C308.866 275.166 310.351 274.903 313.659 276.968C316.641 278.832 317.033 279.995 315.087 281.231ZM246.776 280.088C248.37 280.727 250.278 280.647 251.012 279.913C251.746 279.179 250.442 278.657 248.111 278.753C245.536 278.859 245.012 279.383 246.776 280.088ZM289.173 297.342C293.681 302.772 290.165 307.32 281.459 307.32C273.294 307.32 269.904 303.634 272.31 297.371C273.959 293.068 285.611 293.048 289.173 297.342ZM311.452 296.343C321.167 301.543 310.765 309.465 300.051 305.025C292.553 301.921 292.281 301.083 297.488 297.132C302.211 293.548 305.843 293.343 311.452 296.343ZM341.853 300.135C341.227 305.578 340.168 306.285 331.738 306.896C324.804 307.397 321.972 306.668 320.999 304.132C318.324 297.161 321.835 294.054 332.388 294.054C342.173 294.054 342.527 294.282 341.853 300.135ZM364.515 296.343C370.241 299.407 369.901 301.682 363.263 304.707C359.129 306.59 356.343 306.59 352.209 304.707C345.381 301.596 345.26 299.838 351.656 296.752C358.108 293.641 359.39 293.601 364.515 296.343ZM390.9 297.371C394.975 302.281 389.865 307.32 380.812 307.32C372.173 307.32 369.89 304.685 373.188 298.523C376.058 293.161 386.825 292.463 390.9 297.371ZM278.695 297.974C270.398 299.325 272.639 305.109 281.459 305.109C285.715 305.109 289.197 304.236 289.197 303.168C289.197 299.783 283.847 297.136 278.695 297.974ZM300.701 298.154C296.657 300.716 302.816 305.684 307.709 303.805C312.275 302.054 312.317 299.336 307.809 297.607C303.586 295.987 304.187 295.94 300.701 298.154ZM323.467 298.476C321.028 302.423 324.663 305.109 332.441 305.109C338.574 305.109 340.049 304.253 340.049 300.687C340.049 297.121 338.574 296.265 332.441 296.265C328.255 296.265 324.218 297.26 323.467 298.476ZM354.42 298.476C352.947 300.86 354.82 305.131 357.314 305.076C358.154 305.056 360.334 304.061 362.158 302.865C365.105 300.928 365.105 300.446 362.158 298.509C357.924 295.73 356.122 295.721 354.42 298.476ZM376.967 297.672C373.235 301.404 375.771 305.109 382.056 305.109C386.478 305.109 388.689 304.004 388.689 301.793C388.689 299.969 387.776 298.476 386.66 298.476C385.543 298.476 383.252 297.948 381.57 297.302C379.885 296.657 377.816 296.823 376.967 297.672ZM253.822 302.898C253.822 304.114 255.812 305.109 258.244 305.109C260.676 305.109 262.666 304.114 262.666 302.898C262.666 301.682 260.676 300.687 258.244 300.687C255.812 300.687 253.822 301.682 253.822 302.898ZM399.744 302.898C399.744 304.114 401.734 305.109 404.166 305.109C406.598 305.109 408.588 304.114 408.588 302.898C408.588 301.682 406.598 300.687 404.166 300.687C401.734 300.687 399.744 301.682 399.744 302.898ZM404.166 313.953C404.166 315.381 378.371 316.164 331.205 316.164C284.039 316.164 258.244 315.381 258.244 313.953C258.244 312.525 284.039 311.742 331.205 311.742C378.371 311.742 404.166 312.525 404.166 313.953Z" fill="white"/>
</svg>
