<svg width="303" height="259" viewBox="0 0 303 259" fill="none" xmlns="http://www.w3.org/2000/svg">
<path fill-rule="evenodd" clip-rule="evenodd" d="M136.553 0.318037C134.477 1.08479 73.7163 37.9123 72.2245 39.3077C71.2789 40.193 70.0036 41.8445 69.3904 42.9781C68.2815 45.03 68.2763 45.1861 68.2763 78.2757V111.512H80.3857H92.4951L92.6481 83.171L92.8012 54.8298L116.485 40.6593C129.511 32.8655 140.456 26.5645 140.808 26.6572C141.16 26.75 151.932 33.1267 164.746 40.8278L188.044 54.8298L188.063 84.3304L188.082 113.831H170.304H152.527V102.752C152.527 96.6588 152.7 91.6743 152.913 91.6764C153.126 91.6779 155.227 93.2166 157.584 95.0959C159.997 97.021 162.055 98.3134 162.297 98.0557C164.199 96.0322 176.915 79.2965 176.685 79.1187C176.576 79.0347 173.705 76.7648 170.304 74.0745C152.78 60.2111 146.448 55.3874 144.943 54.7541C142.547 53.7467 137.65 53.8668 135.502 54.9865C132.617 56.4896 102.273 78.8404 102.416 79.3573C102.686 80.3368 116.05 98.3721 116.506 98.3721C116.768 98.3721 119.199 96.736 121.906 94.7357C124.614 92.7358 127.152 90.9761 127.545 90.8251C128.147 90.5943 128.286 93.6639 128.414 110.049C128.561 128.979 128.599 129.609 129.695 131.657C131.144 134.366 133.948 136.82 136.415 137.537C137.759 137.929 148.515 138.055 171.376 137.947L204.395 137.792L206.908 136.238C208.737 135.107 209.813 133.935 210.861 131.928L212.301 129.172L212.289 87.1057C212.279 47.4751 212.223 44.9192 211.336 42.9663C210.818 41.8259 209.722 40.2641 208.9 39.4947C207.051 37.7654 146.747 1.40273 144.331 0.56074C142.554 -0.058642 137.96 -0.201894 136.553 0.318037ZM231.109 156.053C226.955 157.069 223.121 160.174 221.145 164.124C219.131 168.149 218.959 171.478 219.111 203.492L219.257 234.152L227.373 234.293L235.489 234.436V215.356V196.278H244.948H254.408L261.516 213.154C265.425 222.435 268.604 230.377 268.578 230.802C268.554 231.227 266.315 237.462 263.605 244.656C260.895 251.85 258.677 257.821 258.677 257.925C258.677 258.028 262.343 258.113 266.825 258.113H274.973L288.99 220.883C296.7 200.406 303.004 183.363 303 183.009C302.994 182.521 301.007 182.365 294.803 182.365C287.482 182.365 286.576 182.461 286.257 183.267C286.06 183.762 283.944 189.734 281.553 196.535C279.163 203.337 277.067 209.25 276.896 209.675C276.495 210.671 275.914 209.327 270.27 194.345L265.756 182.365H250.622H235.489V178.226C235.489 169.814 237.643 168.299 246.072 170.782C247.026 171.063 247.231 170.641 248.309 166.17C248.962 163.463 249.609 160.813 249.749 160.279C250.266 158.303 242.285 155.551 236.262 155.628C234.278 155.654 231.959 155.845 231.109 156.053ZM0 169.483V177.212H9.79057H19.5811V205.553V233.894H28.5988H37.6164V205.553V177.212H47.407H57.1975V169.483V161.753H28.5988H0V169.483ZM68.1145 181.893C59.4591 183.388 51.8101 191.036 49.5449 200.459C47.7821 207.791 48.606 215.966 51.7488 222.324C56.1597 231.249 65.9225 236.268 76.1433 234.864C79.906 234.348 82.7133 233.036 85.5618 230.462L87.5998 228.621V231.516V234.409H95.3292H103.059V208.387V182.365H94.8139H86.5692V184.941C86.5692 186.358 86.3806 187.518 86.1503 187.518C85.9199 187.518 85.0857 186.844 84.2957 186.019C81.1133 182.697 73.9832 180.879 68.1145 181.893ZM126.754 181.879C122.692 182.477 119.399 184.042 116.507 186.747C113.298 189.748 111.789 193.162 111.755 197.487C111.689 206.132 115.662 210.735 126.547 214.624C133.401 217.072 134.91 217.835 135.292 219.037C135.902 220.96 134.195 222.042 130.553 222.042C126.717 222.042 122.826 220.718 120.007 218.452C118.937 217.592 117.859 216.889 117.61 216.889C117.361 216.889 115.477 219.235 113.423 222.102L109.689 227.314L110.813 228.51C111.431 229.168 113.475 230.513 115.356 231.499C121.207 234.566 128.477 235.851 134.86 234.945C145.255 233.471 150.814 228.329 151.382 219.661C151.954 210.948 148.12 206.572 136.152 202.274C128.151 199.4 126.013 197.616 128.087 195.541C129.948 193.681 135.858 194.924 140.158 198.08L142.623 199.889L146.287 194.198C148.302 191.067 149.95 188.332 149.95 188.121C149.95 187.538 144.738 184.5 141.87 183.41C139.503 182.511 132.394 181.256 130.461 181.397C129.985 181.432 128.317 181.649 126.754 181.879ZM175.506 181.851C161.579 184.336 153.039 200.501 157.153 216.588C159.034 223.944 163.092 229.358 168.935 232.307C172.948 234.333 175.676 234.993 180.106 235.011C185.477 235.031 188.966 233.874 192.146 231.015L194.781 228.646V231.527V234.409H202.51H210.24V208.374V182.339L202.124 182.481L194.008 182.622L193.852 185.042L193.696 187.461L191.018 185.43C186.732 182.179 181.035 180.865 175.506 181.851ZM80.6799 197.253C84.7889 199.12 87.0845 203.276 87.0845 208.85C87.0845 219.618 75.0658 224.579 68.1269 216.676C66.2826 214.576 65.4489 212.018 65.4453 208.447C65.437 201.422 69.9989 196.3 76.2634 196.3C77.5387 196.3 79.5262 196.729 80.6799 197.253ZM189.482 197.98C196.583 202.901 196.049 215.38 188.568 219.336C184.793 221.332 179.398 220.641 176.316 217.766C173.376 215.025 171.902 209.084 173.08 204.731C173.897 201.708 176.279 198.682 178.88 197.361C182.053 195.75 186.651 196.019 189.482 197.98Z" fill="white"/>
</svg>
