<svg width="80" height="55" viewBox="0 0 60 55" fill="none" xmlns="http://www.w3.org/2000/svg">
<path fill-rule="evenodd" clip-rule="evenodd" d="M29.1908 0.498449C28.7548 0.659518 15.9911 8.39569 15.6777 8.68882C15.4791 8.87478 15.2112 9.22171 15.0824 9.45985C14.8494 9.89088 14.8483 9.92368 14.8483 16.8746V23.8565H17.3921H19.9359L19.968 17.903L20.0002 11.9495L24.9752 8.97274C27.7115 7.33554 30.0108 6.01192 30.0847 6.0314C30.1586 6.05088 32.4215 7.39042 35.1132 9.00814L40.0073 11.9495L40.0113 18.1465L40.0153 24.3436H36.2809H32.5464V22.0163C32.5464 20.7363 32.5829 19.6892 32.6276 19.6897C32.6723 19.69 33.1137 20.0132 33.6087 20.408C34.1158 20.8124 34.548 21.0839 34.5987 21.0297C34.9984 20.6047 37.6696 17.0891 37.6213 17.0517C37.5984 17.0341 36.9953 16.5573 36.2809 15.9921C32.5997 13.0799 31.2696 12.0666 30.9533 11.9336C30.4499 11.722 29.4214 11.7472 28.9701 11.9824C28.364 12.2981 21.9899 16.9933 22.0199 17.1018C22.0766 17.3076 24.884 21.0962 24.9797 21.0962C25.0349 21.0962 25.5453 20.7525 26.1142 20.3323C26.6829 19.9122 27.216 19.5426 27.2987 19.5108C27.4251 19.4623 27.4542 20.1072 27.4811 23.549C27.512 27.5257 27.52 27.6579 27.7502 28.0883C28.0547 28.6572 28.6438 29.1727 29.1619 29.3235C29.4442 29.4056 31.7036 29.4322 36.5059 29.4095L43.4422 29.377L43.9701 29.0506C44.3543 28.813 44.5802 28.5666 44.8004 28.1451L45.1029 27.5662L45.1005 18.7295C45.0982 10.4045 45.0866 9.86761 44.9002 9.45736C44.7914 9.21781 44.5612 8.88972 44.3884 8.72811C44.0002 8.36484 31.3322 0.726305 30.8248 0.549433C30.4516 0.419322 29.4865 0.38923 29.1908 0.498449ZM49.0538 33.2129C48.1811 33.4264 47.3759 34.0786 46.9607 34.9085C46.5376 35.7539 46.5015 36.4533 46.5335 43.1782L46.5642 49.6188L48.269 49.6486L49.9739 49.6784V45.6705V41.6628H51.9609H53.9481L55.4412 45.2078C56.2625 47.1575 56.9302 48.8259 56.9249 48.9152C56.9197 49.0045 56.4494 50.3141 55.8801 51.8254C55.3108 53.3366 54.8449 54.5909 54.8449 54.6127C54.8449 54.6344 55.6151 54.6522 56.5565 54.6522H58.2681L61.2127 46.8315C62.8321 42.53 64.1565 38.9499 64.1556 38.8755C64.1544 38.773 63.7369 38.7402 62.4337 38.7402C60.8959 38.7402 60.7054 38.7603 60.6384 38.9296C60.5972 39.0337 60.1526 40.2881 59.6505 41.7169C59.1483 43.1457 58.708 44.3878 58.6721 44.4771C58.5879 44.6864 58.4658 44.404 57.2801 41.2569L56.3319 38.7402H53.1528H49.9739V37.8707C49.9739 36.1037 50.4265 35.7854 52.197 36.307C52.3975 36.3661 52.4406 36.2774 52.6669 35.3382C52.8041 34.7696 52.9401 34.2128 52.9695 34.1008C53.078 33.6855 51.4015 33.1074 50.1363 33.1237C49.7195 33.1292 49.2324 33.1693 49.0538 33.2129ZM0.505859 36.034V37.6577H2.56252H4.61917V43.6112V49.5647H6.51346H8.40775V43.6112V37.6577H10.4644H12.5211V36.034V34.4103H6.51346H0.505859V36.034ZM14.8144 38.641C12.9962 38.9551 11.3894 40.5616 10.9135 42.5412C10.5432 44.0813 10.7163 45.7986 11.3765 47.1342C12.3031 49.009 14.3539 50.0632 16.5009 49.7685C17.2913 49.66 17.881 49.3844 18.4794 48.8438L18.9075 48.457V49.065V49.6729H20.5312H22.1549V44.2065V38.7402H20.423H18.691V39.2814C18.691 39.5791 18.6514 39.8226 18.603 39.8226C18.5547 39.8226 18.3794 39.681 18.2135 39.5078C17.5449 38.81 16.0472 38.428 14.8144 38.641ZM27.1325 38.6381C26.2792 38.7638 25.5874 39.0924 24.98 39.6608C24.3059 40.2911 23.9888 41.0082 23.9817 41.9168C23.9678 43.7327 24.8025 44.6998 27.0889 45.5166C28.5287 46.031 28.8457 46.1911 28.9259 46.4437C29.0541 46.8476 28.6955 47.075 27.9304 47.075C27.1246 47.075 26.3074 46.7967 25.7151 46.3208C25.4905 46.1402 25.2639 45.9926 25.2116 45.9926C25.1593 45.9926 24.7635 46.4853 24.3321 47.0875L23.5477 48.1824L23.7838 48.4336C23.9137 48.5718 24.3431 48.8544 24.738 49.0614C25.9673 49.7058 27.4944 49.9757 28.8352 49.7855C31.019 49.4758 32.1866 48.3957 32.306 46.5748C32.4261 44.7445 31.6208 43.8252 29.1067 42.9224C27.4259 42.3187 26.9768 41.9439 27.4125 41.5081C27.8034 41.1172 29.0449 41.3783 29.9482 42.0414L30.4661 42.4215L31.2356 41.2258C31.6589 40.5682 32.0052 39.9937 32.0052 39.9493C32.0052 39.8269 30.9103 39.1887 30.3078 38.9598C29.8105 38.7708 28.3173 38.5073 27.9111 38.5369C27.8112 38.5441 27.4608 38.5897 27.1325 38.6381ZM37.3735 38.6322C34.448 39.1543 32.654 42.5498 33.5182 45.9293C33.9134 47.4746 34.7659 48.6118 35.9932 49.2313C36.8363 49.6569 37.4092 49.7956 38.3398 49.7992C39.468 49.8036 40.2011 49.5603 40.869 48.9599L41.4225 48.4622V49.0675V49.6729H43.0462H44.6699V44.2038V38.7346L42.965 38.7645L41.2602 38.7943L41.2274 39.3025L41.1947 39.8107L40.632 39.384C39.7317 38.7012 38.535 38.4251 37.3735 38.6322ZM17.4539 41.8677C18.3171 42.2597 18.7993 43.1329 18.7993 44.3037C18.7993 46.5657 16.2746 47.6079 14.817 45.9478C14.4295 45.5066 14.2544 44.9692 14.2536 44.2191C14.2519 42.7435 15.2102 41.6675 16.5261 41.6675C16.794 41.6675 17.2115 41.7576 17.4539 41.8677ZM40.3095 42.0204C41.8012 43.0542 41.6889 45.6755 40.1175 46.5065C39.3245 46.9259 38.1911 46.7807 37.5437 46.1768C36.9262 45.6009 36.6164 44.3529 36.8639 43.4384C37.0357 42.8035 37.536 42.1678 38.0823 41.8904C38.7489 41.5519 39.7148 41.6083 40.3095 42.0204Z" fill="white"/>
</svg>
