<svg width="1500" height="457" viewBox="0 0 1050 457" fill="none" xmlns="http://www.w3.org/2000/svg">
<g clip-path="url(#clip0_1_2)">
<mask id="mask0_1_2" style="mask-type:luminance" maskUnits="userSpaceOnUse" x="0" y="0" width="1046" height="457">
<path d="M1046 0H0V457H1046V0Z" fill="white"/>
</mask>
<g mask="url(#mask0_1_2)">
<path d="M385.817 79.6509H339.308V71.6998C339.308 71.0566 339.287 70.4133 339.225 69.6655C338.83 31.2416 307.228 0 268.701 0H202.835C163.228 0 131.023 32.155 131.023 71.6998V73.6511H109.441C86.0727 73.6511 67.0694 91.4623 67.0694 113.342V157.038H53.8255C24.1358 157.038 -0.0234375 181.16 -0.0234375 210.803V264.879C-0.0234375 286.759 18.9796 304.57 42.3488 304.57H222.691V296.266H42.3696C23.5952 296.266 8.31379 282.192 8.31379 264.879V210.803C8.31379 185.727 28.7515 165.342 53.8463 165.342H75.4069V113.342C75.4069 96.0289 90.6882 81.9546 109.462 81.9546H139.36V71.6998C139.36 36.7427 167.844 8.30341 202.856 8.30341H268.722C302.737 8.30341 330.638 35.9331 330.929 69.8732V70.1225C330.971 70.7034 331.013 71.202 331.013 71.6998V87.9538H385.838C407.856 87.9538 425.778 105.848 425.778 127.831V256.244C425.778 278.289 407.815 296.245 385.714 296.245H247.64V304.549H385.693C412.368 304.549 434.074 282.877 434.074 256.244V127.831C434.074 101.26 412.43 79.6509 385.817 79.6509Z" fill="white"/>
<path d="M305.276 342.848C305.858 343.098 306.066 343.595 305.9 344.363L304.008 353.975C303.925 354.826 303.425 355.075 302.49 354.722C301.222 354.307 299.829 354.1 298.311 354.1C297.209 354.1 296.419 354.141 295.899 354.224C292.614 354.473 289.87 355.968 287.666 358.708C285.462 361.448 284.381 364.707 284.381 368.506V405.02C284.381 405.871 283.965 406.286 283.113 406.286H273.486C272.634 406.286 272.218 405.871 272.218 405.02V343.243C272.218 342.391 272.634 341.977 273.486 341.977H283.113C283.944 341.977 284.381 342.391 284.381 343.243V351.339C284.381 351.587 284.443 351.733 284.568 351.774C284.693 351.816 284.797 351.774 284.88 351.587C287.915 344.758 292.552 341.353 298.81 341.353C301.346 341.353 303.488 341.852 305.255 342.869L305.276 342.848Z" fill="white"/>
<path d="M357.731 394.725C359.707 393.334 361.204 391.424 362.222 388.974C362.472 388.227 362.971 387.915 363.74 388.082L372.348 389.971C373.18 390.22 373.491 390.718 373.242 391.486C371.641 396.468 368.855 400.329 364.884 403.111C360.913 405.893 356.068 407.283 350.33 407.283C343.739 407.283 338.438 405.644 334.383 402.364C330.329 399.084 327.751 394.579 326.67 388.85C326.254 386.484 325.963 383.992 325.838 381.335C325.713 378.678 325.651 375.17 325.651 370.79C325.651 366.409 325.859 363.089 326.295 360.556C327.044 354.66 329.539 349.928 333.759 346.336C337.98 342.766 343.303 340.96 349.706 340.96C356.713 340.96 362.368 342.932 366.672 346.897C370.975 350.862 373.387 356.072 373.886 362.569C374.136 365.434 374.261 370.707 374.261 378.367C374.261 379.218 373.845 379.633 372.993 379.633H338.312C337.98 379.633 337.814 379.799 337.814 380.131C337.814 382.498 337.938 384.553 338.188 386.317C338.604 389.431 339.914 391.963 342.118 393.894C344.301 395.825 347.086 396.801 350.476 396.801C353.345 396.801 355.756 396.115 357.753 394.725H357.731ZM341.91 354.349C339.852 356.279 338.604 358.812 338.188 361.926C337.938 364.21 337.814 366.679 337.814 369.379C337.814 369.71 337.98 369.876 338.312 369.876H361.599C361.931 369.876 362.098 369.71 362.098 369.379C361.931 366.015 361.765 363.566 361.599 362.051C361.183 358.937 359.915 356.383 357.794 354.411C355.673 352.439 353.033 351.443 349.81 351.443C346.588 351.443 343.968 352.418 341.91 354.349Z" fill="white"/>
<path d="M430.895 394.725C432.871 393.334 434.368 391.424 435.386 388.974C435.636 388.227 436.135 387.915 436.904 388.082L445.511 389.971C446.343 390.22 446.655 390.718 446.406 391.486C444.805 396.468 442.019 400.329 438.048 403.111C434.077 405.893 429.232 407.283 423.494 407.283C416.903 407.283 411.601 405.644 407.547 402.364C403.493 399.084 400.914 394.579 399.834 388.85C399.418 386.484 399.127 383.992 399.002 381.335C398.877 378.678 398.815 375.17 398.815 370.79C398.815 366.409 399.023 363.089 399.459 360.556C400.208 354.66 402.703 349.928 406.923 346.336C411.144 342.766 416.467 340.96 422.87 340.96C429.877 340.96 435.532 342.932 439.835 346.897C444.139 350.862 446.551 356.072 447.05 362.569C447.299 365.434 447.424 370.707 447.424 378.367C447.424 379.218 447.008 379.633 446.156 379.633H411.476C411.144 379.633 410.978 379.799 410.978 380.131C410.978 382.498 411.102 384.553 411.352 386.317C411.768 389.431 413.077 391.963 415.281 393.894C417.464 395.825 420.25 396.801 423.64 396.801C426.508 396.801 428.92 396.115 430.916 394.725H430.895ZM415.074 354.349C413.015 356.279 411.768 358.812 411.352 361.926C411.102 364.21 410.978 366.679 410.978 369.379C410.978 369.71 411.144 369.876 411.476 369.876H434.763C435.095 369.876 435.261 369.71 435.261 369.379C435.095 366.015 434.929 363.566 434.763 362.051C434.347 358.937 433.079 356.383 430.958 354.411C428.837 352.439 426.197 351.443 422.974 351.443C419.751 351.443 417.132 352.418 415.074 354.349Z" fill="white"/>
<path d="M476.574 402.238C472.395 399.041 470.316 394.91 470.316 389.845V388.579C470.316 387.728 470.732 387.312 471.584 387.312H480.566C481.418 387.312 481.834 387.728 481.834 388.579V389.326C481.834 391.61 482.936 393.582 485.119 395.263C487.323 396.945 490.005 397.796 493.228 397.796C496.45 397.796 499.029 397.007 501.004 395.387C502.978 393.789 503.977 391.817 503.977 389.451C503.977 387.603 503.415 386.087 502.272 384.904C501.128 383.721 499.735 382.787 498.093 382.06C496.45 381.355 494.018 380.441 490.816 379.341C486.844 378.075 483.497 376.746 480.753 375.356C478.008 373.965 475.659 371.992 473.726 369.419C471.792 366.844 470.815 363.585 470.815 359.62C470.815 353.974 472.811 349.511 476.824 346.232C480.836 342.952 486.159 341.311 492.832 341.311C499.507 341.311 504.996 342.993 509.091 346.355C513.187 349.719 515.224 354.14 515.224 359.62V359.87C515.224 360.721 514.809 361.136 513.956 361.136H505.1C504.247 361.136 503.831 360.721 503.831 359.87V359.372C503.831 356.922 502.812 354.908 500.796 353.31C498.779 351.711 496.118 350.902 492.811 350.902C489.693 350.902 487.178 351.67 485.285 353.186C483.393 354.701 482.437 356.631 482.437 358.998C482.437 360.762 482.978 362.215 484.08 363.357C485.181 364.499 486.554 365.433 488.196 366.201C489.838 366.969 492.271 367.882 495.473 368.983C499.694 370.415 503.166 371.806 505.91 373.155C508.655 374.505 511.025 376.435 513.062 378.967C515.079 381.5 516.098 384.739 516.098 388.703C516.098 394.349 514.04 398.813 509.902 402.093C505.765 405.372 500.192 407.013 493.207 407.013C486.221 407.013 480.732 405.414 476.574 402.217V402.238Z" fill="white"/>
<path d="M590.717 404.064C586.621 401.906 583.461 398.875 581.215 394.972C578.991 391.049 577.868 386.524 577.868 381.396V342.598C577.868 334.773 580.342 328.503 585.27 323.832C590.197 319.162 596.726 316.816 604.834 316.816C612.943 316.816 619.429 319.141 624.315 323.771C629.201 328.399 631.655 334.544 631.655 342.224V343.242C631.655 343.657 631.53 343.989 631.28 344.259C631.031 344.508 630.74 344.633 630.386 344.633L620.76 345.131C619.907 345.131 619.492 344.716 619.492 343.865V341.976C619.492 337.596 618.14 334.066 615.437 331.368C612.735 328.67 609.2 327.32 604.813 327.32C600.426 327.32 596.85 328.67 594.127 331.368C591.382 334.066 590.01 337.596 590.01 341.976V382.164C590.01 386.544 591.382 390.094 594.127 392.772C596.871 395.47 600.426 396.82 604.813 396.82C609.2 396.82 612.735 395.47 615.437 392.772C618.14 390.073 619.492 386.544 619.492 382.164V380.4C619.492 379.549 619.907 379.133 620.76 379.133L630.386 379.632C631.218 379.632 631.655 380.047 631.655 380.898V381.79C631.655 386.835 630.532 391.319 628.307 395.18C626.062 399.061 622.922 402.051 618.868 404.147C614.814 406.244 610.136 407.303 604.834 407.303C599.533 407.303 594.812 406.223 590.717 404.085V404.064Z" fill="white"/>
<path d="M664.816 402.176C660.595 398.771 658.059 394.1 657.227 388.205C656.541 383.991 656.208 379.279 656.208 374.048C656.208 368.816 656.541 364.063 657.227 360.015C658.079 354.203 660.595 349.573 664.816 346.107C669.037 342.661 674.442 340.938 681.013 340.938C687.582 340.938 692.861 342.661 697.086 346.107C701.305 349.552 703.84 354.161 704.671 359.89C705.357 363.523 705.69 368.235 705.69 374.048C705.69 379.86 705.357 384.572 704.671 388.205C703.819 394.1 701.326 398.751 697.149 402.176C692.965 405.58 687.582 407.303 681.013 407.303C674.442 407.303 669.037 405.601 664.816 402.176ZM688.934 393.893C691.076 391.963 692.406 389.388 692.923 386.191C693.339 382.393 693.547 378.366 693.547 374.068C693.547 369.771 693.339 365.682 692.923 362.07C692.426 358.873 691.096 356.299 688.934 354.369C686.772 352.438 684.11 351.462 680.888 351.462C677.665 351.462 675.129 352.438 672.987 354.369C670.825 356.299 669.515 358.873 668.995 362.07C668.663 365.018 668.496 369.024 668.496 374.068C668.496 379.113 668.663 383.244 668.995 386.191C669.494 389.388 670.825 391.963 672.987 393.893C675.149 395.824 677.811 396.799 681.033 396.799C684.256 396.799 686.793 395.824 688.934 393.893Z" fill="white"/>
<path d="M732.158 405.02V319.1C732.158 318.249 732.574 317.834 733.426 317.834H743.034C743.886 317.834 744.302 318.249 744.302 319.1V405.02C744.302 405.871 743.886 406.286 743.034 406.286H733.426C732.574 406.286 732.158 405.871 732.158 405.02Z" fill="white"/>
<path d="M773.285 329.584C771.768 328.068 771.02 326.137 771.02 323.771C771.02 321.405 771.768 319.37 773.285 317.896C774.802 316.423 776.735 315.675 779.104 315.675C781.473 315.675 783.405 316.423 784.929 317.958C786.447 319.474 787.195 321.405 787.195 323.771C787.195 326.137 786.426 328.068 784.846 329.584C783.26 331.099 781.369 331.866 779.083 331.866C776.797 331.866 774.781 331.119 773.264 329.584H773.285ZM772.911 405.02V343.242C772.911 342.391 773.327 341.977 774.179 341.977H783.8C784.632 341.977 785.075 342.391 785.075 343.242V405.02C785.075 405.871 784.652 406.286 783.8 406.286H774.179C773.327 406.286 772.911 405.871 772.911 405.02Z" fill="white"/>
<path d="M827.816 405.269L809.604 343.346L809.479 342.973C809.479 342.308 809.895 341.956 810.747 341.956H821.373C822.205 341.956 822.683 342.329 822.766 343.097L834.41 388.455C834.493 388.621 834.576 388.704 834.66 388.704C834.743 388.704 834.826 388.621 834.909 388.455L846.429 343.097C846.595 342.35 847.052 341.956 847.821 341.956L858.44 342.08C858.863 342.08 859.196 342.204 859.403 342.454C859.611 342.703 859.673 343.035 859.59 343.471L841.497 405.248C841.247 405.934 840.769 406.265 840.104 406.265H829.236C828.543 406.265 828.086 405.934 827.836 405.248L827.816 405.269Z" fill="white"/>
<path d="M884.39 329.584C882.872 328.068 882.124 326.137 882.124 323.771C882.124 321.405 882.872 319.37 884.39 317.896C885.907 316.423 887.839 315.675 890.215 315.675C892.584 315.675 894.517 316.423 896.034 317.958C897.551 319.474 898.299 321.405 898.299 323.771C898.299 326.137 897.53 328.068 895.951 329.584C894.372 331.099 892.48 331.866 890.194 331.866C887.902 331.866 885.886 331.119 884.369 329.584H884.39ZM884.015 405.02V343.242C884.015 342.391 884.431 341.977 885.283 341.977H894.912C895.743 341.977 896.18 342.391 896.18 343.242V405.02C896.18 405.871 895.764 406.286 894.912 406.286H885.283C884.431 406.286 884.015 405.871 884.015 405.02Z" fill="white"/>
<path d="M966.83 346.772C970.238 350.571 971.963 355.781 971.963 362.445V405.021C971.963 405.872 971.547 406.287 970.695 406.287H961.066C960.214 406.287 959.799 405.872 959.799 405.021V364.21C959.799 360.328 958.801 357.256 956.827 354.993C954.853 352.709 952.172 351.588 948.784 351.588C945.39 351.588 942.564 352.751 940.486 355.055C938.408 357.38 937.389 360.473 937.389 364.334V405.021C937.389 405.872 936.974 406.287 936.122 406.287H926.493C925.641 406.287 925.225 405.872 925.225 405.021V343.243C925.225 342.392 925.641 341.977 926.493 341.977H936.122C936.953 341.977 937.389 342.392 937.389 343.243V347.167C937.389 347.416 937.452 347.561 937.576 347.602C937.701 347.644 937.846 347.54 938.013 347.291C941.296 343.16 946.117 341.105 952.442 341.105C958.76 341.105 963.394 342.994 966.809 346.793L966.83 346.772Z" fill="white"/>
<path d="M1035.1 341.977H1044.73C1045.58 341.977 1046 342.392 1046 343.243V403.775C1046 422.478 1035.96 431.82 1015.87 431.82C1014.11 431.82 1012.76 431.778 1011.82 431.695C1010.97 431.612 1010.55 431.156 1010.55 430.305L1010.8 421.835C1010.8 421.42 1010.93 421.088 1011.18 420.88C1011.43 420.673 1011.72 420.61 1012.07 420.693C1019.99 421.026 1025.61 419.801 1028.91 417.019C1032.19 414.237 1033.84 409.525 1033.84 402.862V400.454C1033.84 400.288 1033.77 400.163 1033.65 400.08C1033.52 399.997 1033.38 400.038 1033.21 400.205C1029.93 404.252 1025.32 406.266 1019.41 406.266C1013.92 406.266 1009.31 404.647 1005.56 401.409C1001.8 398.17 999.512 393.645 998.66 387.832C998.161 385.134 997.891 380.547 997.891 374.049C997.891 367.053 998.182 362.175 998.785 359.393C999.533 353.747 1001.71 349.263 1005.29 345.942C1008.87 342.621 1013.42 340.96 1018.89 340.96C1024.96 340.96 1029.72 342.932 1033.19 346.897C1033.36 347.063 1033.5 347.104 1033.63 347.022C1033.75 346.938 1033.82 346.814 1033.82 346.648V343.243C1033.82 342.392 1034.23 341.977 1035.08 341.977H1035.1ZM1033.84 373.945C1033.84 369.233 1033.71 365.227 1033.46 361.947C1033.13 358.916 1031.94 356.404 1029.93 354.432C1027.91 352.46 1025.34 351.463 1022.21 351.463C1019.09 351.463 1016.62 352.46 1014.56 354.432C1012.51 356.404 1011.26 358.916 1010.84 361.947C1010.35 365.227 1010.08 369.233 1010.08 373.945C1010.08 378.325 1010.28 382.207 1010.72 385.57C1011.14 388.684 1012.4 391.216 1014.52 393.147C1016.62 395.077 1019.24 396.053 1022.36 396.053C1025.48 396.053 1028.06 395.077 1030.07 393.147C1032.09 391.216 1033.27 388.726 1033.61 385.695C1033.77 381.315 1033.86 377.391 1033.86 373.945H1033.84Z" fill="white"/>
<path d="M408.94 444.544H241.406V252.091H378.065C381.516 252.091 384.302 249.309 384.302 245.864C384.302 242.418 381.516 239.636 378.065 239.636H342.554V208.146H346.193C350.808 208.146 352.575 201.461 348.708 198.679L334.238 188.258L309.143 170.199C307.604 169.098 305.65 169.098 304.112 170.199L279.017 188.258L264.546 198.679C260.679 201.461 262.446 208.146 267.062 208.146H270.7V239.636H241.427V112.573C241.427 109.127 238.64 106.345 235.189 106.345C231.737 106.345 228.951 109.127 228.951 112.573V174.454H124.102C120.651 174.454 117.865 177.236 117.865 180.682C117.865 184.127 120.651 186.91 124.102 186.91H228.931V456.999H408.94C412.391 456.999 415.177 454.217 415.177 450.772C415.177 447.326 412.391 444.544 408.94 444.544Z" fill="white"/>
<path d="M222.693 193.137H124.102C117.22 193.137 111.628 187.553 111.628 180.683C111.628 173.811 117.22 168.227 124.102 168.227H222.693V112.574C222.693 105.702 228.286 100.118 235.168 100.118C242.05 100.118 247.643 105.702 247.643 112.574V233.409H264.442V214.062C260.866 213.17 257.997 210.471 256.77 206.672C255.19 201.794 256.853 196.542 260.887 193.636L300.452 165.155C304.132 162.519 309.081 162.498 312.76 165.155L352.326 193.636C356.381 196.542 358.023 201.794 356.443 206.672C355.216 210.471 352.326 213.17 348.77 214.062V233.409H378.045C384.927 233.409 390.519 238.993 390.519 245.864C390.519 252.736 384.927 258.319 378.045 258.319H247.622V285.7H270.887H385.675C401.954 285.7 415.157 272.518 415.157 256.264V127.831C415.157 111.64 402.017 98.5202 385.799 98.5202H320.411V71.6998C320.411 71.2636 320.37 70.8489 320.328 70.4126C320.328 41.9527 297.209 18.8693 268.704 18.8693H202.838C173.606 18.8693 149.924 42.534 149.924 71.6998V92.5203H109.465C96.4918 92.5203 85.9923 101.841 85.9923 113.342V175.887H53.8698C34.5549 175.887 18.8992 191.518 18.8992 210.803V264.879C18.8992 276.379 29.4195 285.7 42.3723 285.7H222.693V193.158V193.137Z" fill="white"/>
</g>
</g>
<defs>
<clipPath id="clip0_1_2">
<rect width="1500" height="457" fill="white"/>
</clipPath>
</defs>
</svg>
