<svg width="3337" height="490" viewBox="0 0 3337 490" fill="none" xmlns="http://www.w3.org/2000/svg">
<path d="M0 5.8999H96.1L257.76 331.02L421.61 5.8999H465.4L240.68 453.09H222.63L0 5.8999Z" fill="white"/>
<path d="M232.7 234.98L253.44 278.57L391.52 4.38977L347.21 3.50977L232.7 234.98Z" fill="white"/>
<path d="M657.87 5.8999H591.49V453.09H657.87V5.8999Z" fill="white"/>
<path d="M678.29 5.8999H702.46L700.29 453.09H678.29V5.8999Z" fill="white"/>
<path d="M835.57 450.5L868.07 452.1L1084.76 5.8999H1054.12L835.57 450.5Z" fill="white"/>
<path d="M893.78 450.5H955.06L990.8 375.92H1146.04L1109.69 311.2H1025.53L1084.76 193.11L1205.27 450.5L1304.51 450.7L1094.97 38.8999L893.78 450.5Z" fill="white"/>
<path d="M1430.97 450.5L1519.83 448.94V209.81L1430.97 140.12V450.5Z" fill="white"/>
<path d="M1783.89 450.5L1810.21 450.52L1808.76 5.8999H1783.89V450.5Z" fill="white"/>
<path d="M1761.87 388.4V5.8999H1694.46V229L1430.97 5.8999V107.33L1761.87 388.4Z" fill="white"/>
<path d="M1955.91 5.8999H2021.27V388.39C2209.87 413.75 2438.5 313.83 2314.38 85.8699C2439.21 217.41 2344.39 455.74 2155.05 450.48C2155.06 450.5 1955.91 451.43 1955.91 451.43V5.8999Z" fill="white"/>
<path d="M2044.23 4.38993V364.54C2409.16 422.16 2423.26 -43.6501 2044.23 4.38993ZM2190.91 325.72C2178.66 331.9 2165.55 336.09 2151.52 338.16C2127.31 341.73 2102.83 339.84 2078.47 340.11V120.59C2078.47 118.16 2135.96 120.72 2141.1 121.27C2161.8 123.49 2182.66 128.26 2201.05 138.31C2208.56 142.41 2215.59 147.39 2221.82 153.25C2228.05 159.11 2235.09 166.93 2238.53 174.81C2242.89 184.8 2245.3 196.52 2247.19 207.26C2248.88 216.83 2249.85 226.56 2249.69 236.29C2249.41 253.74 2245.28 271.09 2236 286C2230.96 294.1 2224.29 302.53 2216.95 308.58C2208.74 315.38 2200.07 321.11 2190.91 325.72Z" fill="white"/>
<path d="M2661.1 4.39014H2691.82L2467.32 451.44H2434.38L2661.1 4.39014Z" fill="white"/>
<path d="M2702.46 36.0898L2495.54 450.38L2560 451.44L2594.57 376.94L2754.55 379.24L2717.25 308.77H2628.17L2687.15 195.41L2812.76 453.14H2914.63L2702.46 36.0898Z" fill="white"/>
<path d="M3265.27 36.09C3154.78 -57.29 2960.31 43.1 3017.28 193.88C3059.46 288.97 3202.95 245.8 3214.13 308.76C3204.63 344.27 3175.44 349.01 3132.16 331.75C3225.9 452.92 3422.16 247.13 3227.9 199.24C3008.13 183.54 3075.81 -57.15 3265.27 36.09Z" fill="white"/>
<path d="M3211.06 157.88L3296.85 137.97C3293.8 -8.38997 3046.18 11.01 3119.02 157.89C3119.03 157.88 3129.09 165.14 3129.09 165.14C3114.37 92.2 3206.7 102.81 3211.06 157.88Z" fill="white"/>
<path d="M3296.85 235.24C3388.75 298.26 3303.75 445.78 3201.97 453.13C3102.17 473.98 2988.44 390.15 2998.13 296.51L3091.58 294.98C3117.6 465.99 3405.21 383.2 3296.85 235.24Z" fill="white"/>
</svg>
