<svg width="75" height="64" viewBox="0 0 54 64" fill="none" xmlns="http://www.w3.org/2000/svg">
<path fill-rule="evenodd" clip-rule="evenodd" d="M20.6814 2.05527C21.5691 4.93219 21.7752 5.1072 24.2763 5.1072C25.5006 5.1072 26.5128 4.97165 26.7812 4.77167C27.1624 4.48769 28.5807 0.907242 28.5807 0.228678C28.5807 -0.19274 27.3199 0.00911225 26.8741 0.50193C26.6279 0.773839 26.1459 1.83087 25.8026 2.8506C25.3071 4.32261 25.0558 4.72255 24.5831 4.79234C23.6904 4.92387 23.3398 4.47883 22.818 2.5505C22.3244 0.727669 21.7051 0.00723269 20.6317 0.00723269H20.0495L20.6814 2.05527ZM16.3722 2.14573C15.9776 2.90885 16.0015 3.02453 16.9442 4.92977C18.4828 8.03914 17.8093 8.71744 14.748 7.14208C12.8476 6.16423 12.7772 6.14974 11.9658 6.56955C11.5082 6.80629 11.1356 7.08733 11.138 7.19443C11.1458 7.52458 14.8368 9.40191 15.4783 9.40191C16.33 9.40191 19.186 6.53868 19.186 5.68457C19.186 4.99822 17.3369 1.34933 16.989 1.34933C16.8763 1.34933 16.5987 1.70767 16.3722 2.14573ZM31.2209 1.92106C30.1754 3.51816 29.3529 5.47601 29.493 6.03432C29.6997 6.85729 32.4513 9.40191 33.1344 9.40191C33.9703 9.40191 37.4919 7.55035 37.3698 7.17483C37.3121 6.99714 36.9492 6.69812 36.5638 6.50996C35.9335 6.20262 35.6576 6.26972 33.8315 7.17322L31.8007 8.17818L31.2421 7.6196L30.6835 7.06102L31.6452 5.15122C32.7476 2.96226 32.7855 2.70297 32.1222 1.88375L31.6372 1.28491L31.2209 1.92106ZM9.79135 10.9C9.79135 11.8577 10.624 12.5276 12.4516 13.0403C14.2573 13.5471 14.7061 13.9186 14.5765 14.799C14.5064 15.2733 14.1067 15.5219 12.6097 16.0211C11.5763 16.3658 10.5196 16.9032 10.2611 17.2151C9.77712 17.7997 9.62063 18.7966 10.0128 18.7966C10.4672 18.7966 14.169 17.4513 14.523 17.1573C15.0086 16.7544 15.0349 12.6423 14.5558 12.0241C14.3714 11.786 13.2239 11.2894 12.0058 10.9209L9.79135 10.2506V10.9ZM36.6333 10.9249C34.0406 11.7127 33.6807 12.1481 33.6807 14.4954C33.6807 16.8637 34.1458 17.4813 36.407 18.1159C37.3279 18.3744 38.2387 18.646 38.4309 18.7198C38.9143 18.9053 38.8963 17.3479 38.4105 16.9448C38.207 16.7757 37.2106 16.3685 36.196 16.0394C34.3995 15.4569 34.3517 15.418 34.3517 14.5373C34.3517 13.658 34.399 13.6193 36.0964 13.1058C38.1246 12.4928 38.8603 11.8969 38.735 10.9695L38.6464 10.3132L36.6333 10.9249ZM13.0288 20.716L11.0322 21.8233L11.6493 22.3231C12.4882 23.0022 12.7389 22.9673 14.9251 21.8665C16.7337 20.9555 16.8489 20.9319 17.3342 21.371C18.0125 21.9849 17.9862 22.1966 17.0051 24.0079C16.5437 24.8596 16.1663 25.8469 16.1663 26.202C16.1663 26.8655 16.6562 27.6544 17.0682 27.6544C17.4198 27.6544 19.186 24.0007 19.186 23.273C19.186 22.5123 16.2713 19.6 15.5151 19.6053C15.2459 19.6072 14.1271 20.1073 13.0288 20.716ZM31.2523 21.112C30.3815 21.9425 29.5999 22.8403 29.5151 23.1071C29.3943 23.4883 30.9052 27.0596 31.4289 27.6305C31.6576 27.8796 32.6064 26.7241 32.6008 26.2036C32.5976 25.8944 32.1823 24.8763 31.6785 23.9411C30.7323 22.1854 30.7076 21.6542 31.5516 21.2027C31.9298 21.0003 32.4392 21.1571 33.7566 21.8813C34.699 22.399 35.7129 22.8229 36.01 22.8229C36.5157 22.8229 37.656 21.8665 37.4146 21.6448C37.1323 21.3857 33.3913 19.6018 33.1307 19.6018C32.9683 19.6018 32.123 20.2815 31.2523 21.112ZM21.9572 24.2951C21.4622 24.6419 20.2597 27.7642 20.2597 28.7026C20.2597 29.171 21.4783 29.0427 21.9282 28.5268C22.1534 28.2683 22.607 27.2349 22.9361 26.2302C23.5197 24.4484 23.5554 24.4055 24.3799 24.4855C25.1696 24.5622 25.2649 24.6892 25.8235 26.4119C26.5525 28.6599 26.8134 28.9965 27.8264 28.9965C28.4553 28.9965 28.5874 28.9007 28.4723 28.5268C28.3925 28.2683 28.0761 27.2362 27.7685 26.2331C27.3283 24.7968 27.0663 24.3545 26.5356 24.1529C25.4762 23.75 22.6084 23.8394 21.9572 24.2951ZM0.314536 40.4714C0.251994 40.582 0.932437 45.7155 1.82681 51.8793L3.45289 63.0858H5.40913C7.21908 63.0858 7.3753 63.0407 7.49985 62.4818C7.67459 61.6972 10.5988 41.0461 10.5977 40.6056C10.5969 40.3823 10.1497 40.2701 9.25961 40.2701C8.08957 40.2701 7.90677 40.3455 7.79592 40.8741C7.7264 41.2064 7.2368 45.1621 6.70828 49.6648C6.17977 54.1675 5.65876 58.2641 5.55032 58.7685C5.40672 59.4352 5.03818 57.0952 4.1991 50.1917C3.56456 44.9701 2.98558 40.6016 2.9131 40.484C2.74534 40.2127 0.466998 40.2017 0.314536 40.4714ZM12.3985 40.4368C12.2933 40.542 12.2071 45.6809 12.2071 51.857V63.0858H13.6864H15.1656L15.0956 51.745L15.0255 40.4043L13.8077 40.3249C13.1377 40.2811 12.5037 40.3316 12.3985 40.4368ZM17.0387 40.8008C17.0387 41.3642 19.9091 61.4559 20.1362 62.4818C20.2597 63.0401 20.4165 63.0858 22.2108 63.0858L24.1518 63.0855L25.7344 52.0135C26.6046 45.9236 27.3293 40.8204 27.3449 40.6727C27.3916 40.2256 24.8419 40.1767 24.6712 40.6217C24.5906 40.8314 24.0076 45.1562 23.3758 50.2325C22.7128 55.5574 22.155 59.1781 22.057 58.791C21.9636 58.422 21.4558 54.4963 20.9281 50.0674C19.626 39.136 19.9242 40.2701 18.351 40.2701C17.2225 40.2701 17.0387 40.3445 17.0387 40.8008ZM29.1175 51.6779V63.0858H32.7552H36.393L36.3117 61.6766L36.2306 60.2674L34.0162 60.1895L31.8017 60.1114V50.1909V40.2701H30.4596H29.1175V51.6779ZM41.4648 40.3992C41.4648 40.4701 40.7401 45.5051 39.8543 51.5883C38.9685 57.6712 38.2438 62.7529 38.2438 62.8809C38.2438 63.009 38.8781 63.0774 39.653 63.0326L41.0622 62.9515L41.3005 60.7371L41.5389 58.5226H43.3625C45.4455 58.5226 45.3526 58.4107 45.6401 61.2739L45.8221 63.0858H47.2793H48.7366L48.583 62.2134C48.4985 61.7335 47.77 56.7124 46.9645 51.0549C46.1587 45.3977 45.4299 40.6569 45.3451 40.5195C45.1913 40.2704 41.4648 40.1547 41.4648 40.3992ZM44.1487 48.9937C44.458 51.6511 44.779 54.2177 44.8625 54.6977L45.0141 55.57H43.5078C42.4813 55.57 42.0019 55.4632 42.0027 55.2345C42.0033 55.0501 42.305 52.5436 42.6727 49.6648C43.0404 46.786 43.3515 44.2494 43.3639 44.028C43.4135 43.1288 43.6141 44.3973 44.1487 48.9937Z" fill="white"/>
</svg>
