<svg width="181" height="236" viewBox="0 0 181 236" fill="none" xmlns="http://www.w3.org/2000/svg">
<path fill-rule="evenodd" clip-rule="evenodd" d="M75.8919 7.65694C79.1989 18.3749 79.9669 19.0269 89.2849 19.0269C93.8459 19.0269 97.6169 18.5219 98.6169 17.7769C100.037 16.7189 105.321 3.37994 105.321 0.851942C105.321 -0.718058 100.624 0.0339478 98.9629 1.86995C98.0459 2.88295 96.2499 6.82095 94.9709 10.6199C93.1249 16.1039 92.1889 17.5939 90.4279 17.8539C87.1019 18.3439 85.7959 16.6859 83.8519 9.50194C82.0129 2.71094 79.7058 0.0269455 75.7068 0.0269455H73.5379L75.8919 7.65694ZM59.8379 7.99395C58.3679 10.8369 58.4569 11.2679 61.9689 18.3659C67.7009 29.9499 65.1919 32.4769 53.7869 26.6079C46.7069 22.9649 46.4449 22.9109 43.4219 24.4749C41.7169 25.3569 40.3289 26.4039 40.3379 26.8029C40.3669 28.0329 54.1179 35.0269 56.5079 35.0269C59.6809 35.0269 70.3209 24.3599 70.3209 21.1779C70.3209 18.6209 63.4319 5.02695 62.1359 5.02695C61.7159 5.02695 60.6819 6.36195 59.8379 7.99395ZM115.157 7.15694C111.262 13.1069 108.198 20.4009 108.72 22.4809C109.49 25.5469 119.741 35.0269 122.286 35.0269C125.4 35.0269 138.52 28.1289 138.065 26.7299C137.85 26.0679 136.498 24.9539 135.062 24.2529C132.714 23.1079 131.686 23.3579 124.883 26.7239L117.317 30.4679L115.236 28.3869L113.155 26.3059L116.738 19.1909C120.845 11.0359 120.986 10.0699 118.515 7.01794L116.708 4.78695L115.157 7.15694ZM35.3209 40.6079C35.3209 44.1759 38.4229 46.6719 45.2319 48.5819C51.9589 50.4699 53.6309 51.8539 53.1479 55.1339C52.8869 56.9009 51.3979 57.827 45.8209 59.687C41.9709 60.971 38.0339 62.9729 37.0709 64.1349C35.2679 66.3129 34.6849 70.0269 36.1459 70.0269C37.8389 70.0269 51.6298 65.015 52.9488 63.92C54.7578 62.419 54.8559 47.0989 53.0709 44.7959C52.3839 43.9089 48.1089 42.0589 43.5709 40.6859L35.3209 38.1889V40.6079ZM135.321 40.701C125.662 43.636 124.321 45.2579 124.321 54.0029C124.321 62.8259 126.054 65.127 134.478 67.491C137.909 68.454 141.302 69.466 142.018 69.741C143.819 70.432 143.752 64.6299 141.942 63.1279C141.184 62.4979 137.472 60.9809 133.692 59.7549C126.999 57.5849 126.821 57.44 126.821 54.159C126.821 50.883 126.997 50.7389 133.321 48.8259C140.877 46.5419 143.618 44.3219 143.151 40.8669L142.821 38.4219L135.321 40.701ZM47.3819 77.1779L39.9439 81.3029L42.2429 83.1649C45.3679 85.6949 46.3019 85.5649 54.4469 81.4639C61.1849 78.0699 61.6139 77.982 63.4219 79.618C65.9489 81.905 65.8509 82.6939 62.1959 89.4419C60.4769 92.6149 59.0709 96.293 59.0709 97.616C59.0709 100.088 60.8958 103.027 62.4308 103.027C63.7408 103.027 70.3209 89.4149 70.3209 86.7039C70.3209 83.8699 59.4619 73.0199 56.6449 73.0399C55.6419 73.0469 51.4739 74.9099 47.3819 77.1779ZM115.274 78.653C112.03 81.747 109.118 85.092 108.802 86.086C108.352 87.506 113.981 100.811 115.932 102.938C116.784 103.866 120.319 99.5609 120.298 97.6219C120.286 96.4699 118.739 92.6769 116.862 89.1929C113.337 82.6519 113.245 80.673 116.389 78.991C117.798 78.237 119.696 78.821 124.604 81.519C128.115 83.448 131.892 85.0269 132.999 85.0269C134.883 85.0269 139.131 81.4639 138.232 80.6379C137.18 79.6729 123.243 73.0269 122.272 73.0269C121.667 73.0269 118.518 75.559 115.274 78.653ZM80.6449 90.5119C78.8009 91.8039 74.3209 103.436 74.3209 106.932C74.3209 108.677 78.8609 108.199 80.5369 106.277C81.3759 105.314 83.0659 101.464 84.2919 97.7209C86.4659 91.0829 86.5989 90.9229 89.6709 91.2209C92.6129 91.5069 92.9679 91.9799 95.0489 98.3979C97.7649 106.773 98.7369 108.027 102.511 108.027C104.854 108.027 105.346 107.67 104.917 106.277C104.62 105.314 103.441 101.469 102.295 97.7319C100.655 92.3809 99.6789 90.7329 97.7019 89.9819C93.7549 88.4809 83.0709 88.8139 80.6449 90.5119ZM0.0148601 150.777C-0.21814 151.189 2.31686 170.314 5.64886 193.277L11.7069 235.027H18.9949C25.7379 235.027 26.3199 234.859 26.7839 232.777C27.4349 229.854 38.3289 152.918 38.3249 151.277C38.3219 150.445 36.6559 150.027 33.3399 150.027C28.9809 150.027 28.2999 150.308 27.8869 152.277C27.6279 153.515 25.8039 168.252 23.8349 185.027C21.8659 201.802 19.9249 217.064 19.5209 218.943C18.9859 221.427 17.6129 212.709 14.4869 186.99C12.1229 167.537 9.96586 151.262 9.69586 150.824C9.07086 149.813 0.58286 149.772 0.0148601 150.777ZM45.0339 150.648C44.6419 151.04 44.3209 170.185 44.3209 193.194V235.027H49.8318H55.3429L55.0818 192.777L54.8209 150.527L50.2839 150.231C47.7879 150.068 45.4259 150.256 45.0339 150.648ZM62.3209 152.004C62.3209 154.103 73.0149 228.955 73.8609 232.777C74.3209 234.857 74.9049 235.027 81.5899 235.027L88.8209 235.026L94.7169 193.777C97.9589 171.089 100.659 152.077 100.717 151.527C100.891 149.861 91.3919 149.679 90.7559 151.337C90.4559 152.118 88.2839 168.23 85.9299 187.142C83.4599 206.98 81.3819 220.469 81.0169 219.027C80.6689 217.652 78.7769 203.027 76.8109 186.527C71.9599 145.802 73.0709 150.027 67.2099 150.027C63.0059 150.027 62.3209 150.304 62.3209 152.004ZM107.321 192.527V235.027H120.873H134.426L134.123 229.777L133.821 224.527L125.571 224.237L117.321 223.946V186.987V150.027H112.321H107.321V192.527ZM153.321 150.508C153.321 150.772 150.621 169.53 147.321 192.193C144.021 214.855 141.321 233.787 141.321 234.264C141.321 234.741 143.684 234.996 146.571 234.829L151.821 234.527L152.709 226.277L153.597 218.027H160.391C168.151 218.027 167.805 217.61 168.876 228.277L169.554 235.027H174.983H180.412L179.84 231.777C179.525 229.989 176.811 211.283 173.81 190.206C170.808 169.13 168.093 151.468 167.777 150.956C167.204 150.028 153.321 149.597 153.321 150.508ZM163.32 182.527C164.472 192.427 165.668 201.989 165.979 203.777L166.544 207.027H160.932C157.108 207.027 155.322 206.629 155.325 205.777C155.327 205.09 156.451 195.752 157.821 185.027C159.191 174.302 160.35 164.852 160.396 164.027C160.581 160.677 161.328 165.403 163.32 182.527Z" fill="white"/>
</svg>
