<svg width="1973" height="873" viewBox="0 0 1973 873" fill="none" xmlns="http://www.w3.org/2000/svg">
<path d="M155.621 314.704C155.621 314.286 155.215 313.868 154.808 313.868C62.7362 312.993 41.8779 313.564 30.6918 322.421C19.5427 331.241 16.8108 345.268 11.1624 390.885C10.7563 391.303 9.94414 390.885 9.94414 390.467C14.0051 364.959 16.8477 339.072 18.4721 313.145C18.8782 312.309 19.2843 311.473 20.9087 311.473C55.4267 311.891 83.8163 312.309 106.964 312.309C130.111 312.309 152.815 312.195 178.399 311.473C178.805 311.473 179.211 311.891 179.211 312.309C115.233 419.13 62.6622 508.958 24.9696 574.383C24.0467 575.75 24.1574 576.892 25.7818 576.892C37.1524 576.472 73.1839 576.472 87.2127 576.472C142.737 576.472 159.903 573.393 170.092 564.383C180.282 555.451 185.34 538.647 188.145 491.207C188.551 490.787 189.363 491.207 189.363 492.042C186.779 516.069 185.561 543.552 184.49 577.307C184.49 578.146 184.084 578.561 183.272 578.561C157.282 578.029 125.311 577.727 91.1258 577.727C73.6639 577.727 39.589 578.146 1.82229 578.561C1.0101 578.561 0.604004 578.146 0.604004 577.727C50.5165 492.613 110.323 392.406 155.621 314.704Z" fill="white"/>
<path d="M414.782 577.307C430.214 577.307 444.427 577.614 446.455 575.638C448.487 573.661 455.647 555.983 459.859 543.02C464.031 530.057 475.291 495.351 489.503 452.318C502.496 413.428 520.367 360.36 539.413 308.546C539.565 308.242 539.785 308.128 540.045 308.128C540.3 308.128 540.525 308.204 540.672 308.546C565.551 388.376 575.742 421.867 598.041 493.599C620.373 565.296 624.139 574.115 626.872 575.521C629.605 576.892 634.439 577.727 657.55 577.307C658.363 578.146 657.55 578.562 656.741 578.562C634.698 578.146 621.333 577.727 610.26 577.727C594.793 577.727 574.856 577.839 561.456 578.562C561.456 578.146 562.269 577.307 563.078 577.307C587.041 577.307 601.4 577.307 601.4 575.106C601.4 573.28 600.254 567.614 595.161 549.975C590.028 532.337 583.201 512.189 571.237 473.72C571.237 473.3 570.424 472.881 570.022 472.881C563.93 473.3 544.472 473.413 526.308 473.413C508.148 473.413 494.19 472.729 485.145 472.729C484.738 472.729 483.67 473.149 483.67 473.984C473.924 504.512 451.773 569.859 451.773 574.76C451.773 576.853 456.759 577.688 487.618 577.273C488.837 577.273 489.65 577.688 489.244 578.527C481.53 578.107 460.3 577.688 447.713 577.688C435.122 577.688 419.691 578.107 414.412 578.527C413.6 578.527 414.006 577.688 414.818 577.273L414.782 577.307ZM486.991 471.514L569.136 471.626C569.542 471.626 570.351 471.211 570.351 470.792C558.058 430.648 545.986 390.581 530.407 339.984C530.147 339.034 529.741 338.881 529.339 339.87C511.875 390.429 495.777 436.388 484.816 470.679C484.816 471.514 485.218 471.514 486.956 471.514H486.991Z" fill="white"/>
<path d="M1081.66 496.947C1077.89 501.813 1076.9 520.779 1074.39 544.123C1073.98 545.793 1073.17 547.315 1071.65 548.838C1052.79 570.694 1020.23 583.998 984.568 583.998C960.977 583.998 940.231 578.146 921.807 565.867C886.07 542.337 865.545 499.494 865.545 448.936C865.545 367.126 919.407 306.075 991.655 306.075C1009.93 306.075 1026.02 309.953 1045.63 320.254C1051.72 323.486 1058.73 325.576 1062.91 325.576C1068.7 325.576 1072.25 321.699 1073.76 311.549H1074.17L1074.57 311.967C1070.62 337.437 1066.93 375.261 1068.89 391.988C1068.89 392.406 1068.07 392.824 1067.67 391.988C1068.11 339.794 1039.87 307.405 992.208 307.405C928.492 307.405 886.922 364.693 886.922 452.85C886.922 484.438 892.31 510.515 903.24 531.502C920.22 564.154 949.644 582.822 984.715 582.822C998.08 582.822 1012.88 580.196 1025.95 574.228C1049.03 563.778 1059.44 545.871 1059.44 511.125C1059.44 495.16 1056.22 492.877 1025.95 492.877C1023.85 492.877 1015.73 492.877 1014.51 493.296C1014.1 493.296 1013.29 492.461 1013.7 492.042C1035.29 491.622 1055.08 491.207 1070.14 490.787C1081 490.368 1097.54 489.953 1114.74 489.114C1115.14 489.533 1115.14 489.953 1114.33 490.368C1094.43 490.104 1085.39 492.154 1081.59 497.059L1081.66 496.947Z" fill="white"/>
<path d="M1310.62 577.307C1326.05 577.307 1340.27 577.614 1342.3 575.638C1344.33 573.661 1351.49 555.983 1355.7 543.02C1359.87 530.057 1371.13 495.351 1385.34 452.318C1398.34 413.428 1416.21 360.36 1435.26 308.546C1435.4 308.242 1435.62 308.128 1435.88 308.128C1436.14 308.128 1436.36 308.204 1436.51 308.546C1461.39 388.376 1471.58 421.867 1493.88 493.599C1516.22 565.296 1519.98 574.115 1522.72 575.521C1525.45 576.892 1530.28 577.727 1553.39 577.307C1554.21 578.146 1553.39 578.562 1552.58 578.562C1530.54 578.146 1517.18 577.727 1506.1 577.727C1490.63 577.727 1470.7 577.839 1457.3 578.562C1457.3 578.146 1458.11 577.307 1458.92 577.307C1482.88 577.307 1497.24 577.307 1497.24 575.106C1497.24 573.28 1496.1 567.614 1491 549.975C1485.87 532.337 1479.04 512.189 1467.08 473.72C1467.08 473.3 1466.27 472.881 1465.86 472.881C1459.77 473.3 1440.32 473.413 1422.15 473.413C1403.99 473.413 1390.03 472.729 1380.99 472.729C1380.58 472.729 1379.51 473.149 1379.51 473.984C1369.76 504.512 1347.62 569.859 1347.62 574.76C1347.62 576.853 1352.6 577.688 1383.46 577.273C1384.68 577.273 1385.49 577.688 1385.09 578.527C1377.37 578.107 1356.14 577.688 1343.55 577.688C1330.97 577.688 1315.53 578.107 1310.25 578.527C1309.44 578.527 1309.85 577.688 1310.66 577.273L1310.62 577.307ZM1382.83 471.514L1464.97 471.626C1465.38 471.626 1466.19 471.211 1466.19 470.792C1453.9 430.648 1441.83 390.581 1426.25 339.984C1425.99 339.034 1425.58 338.881 1425.18 339.87C1407.72 390.429 1391.62 436.388 1380.66 470.679C1380.66 471.514 1381.06 471.514 1382.8 471.514H1382.83Z" fill="white"/>
<path d="M1809.05 573.964C1812.11 570.733 1812.55 558.492 1812.96 542.069C1813.37 512.531 1814.18 434.338 1815.8 370.434C1817.02 324.816 1816.62 318.696 1814.58 315.921C1812.55 313.108 1805.25 312.69 1782.1 312.69C1781.69 312.271 1782.25 311.549 1783.46 311.435C1794.02 311.967 1811.96 312.271 1828.8 312.271C1845.63 312.271 1861.84 311.967 1874.8 311.435C1875.72 311.739 1875.61 312.271 1874.8 312.69C1848 312.69 1838.66 313.108 1837.03 315.617C1835.4 318.126 1836.22 332.343 1833.78 469.918C1833.38 488.659 1832.56 534.201 1831.75 573.925C1831.75 574.764 1832.16 575.599 1833.78 575.599C1841.9 576.018 1870.07 576.433 1890.08 576.433C1932.46 576.433 1942.65 574.344 1950.15 568.756C1964.99 558.224 1970.15 539.14 1971.22 495.083C1971.63 494.663 1972.44 495.083 1972.44 495.922C1970.41 522.683 1969.2 550.507 1969.6 577.273C1969.6 578.107 1968.79 578.527 1967.98 578.527C1943.21 577.688 1890.45 577.688 1857.15 577.688C1823.85 577.688 1793.03 577.688 1775.97 578.527C1775.56 578.107 1775.56 577.688 1776.78 577.273C1796.31 577.273 1805.87 577.156 1809.01 573.925L1809.05 573.964Z" fill="white"/>
<path d="M642.179 17.8219H657.455C663.66 17.8219 667.837 20.9827 667.837 27.6407C667.837 34.2987 663.66 37.4595 657.455 37.4595H642.179V17.8219ZM637.738 61.9393H642.179V41.3602H658.437C666.795 41.3602 672.277 36.3162 672.277 27.6407C672.277 18.9652 666.795 13.9213 658.437 13.9213H637.738V61.9393Z" fill="white"/>
<path d="M692.578 37.9303C692.578 27.4389 697.801 16.8131 710.141 16.8131C722.417 16.8131 727.64 27.4389 727.64 37.9303C727.64 48.4217 722.417 59.0474 710.141 59.0474C697.801 59.0474 692.578 48.4217 692.578 37.9303ZM688.137 37.9303C688.137 51.1117 695.449 62.9479 710.141 62.9479C724.765 62.9479 732.076 51.1117 732.076 37.9303C732.076 24.7489 724.765 12.9125 710.141 12.9125C695.449 12.9125 688.137 24.7489 688.137 37.9303Z" fill="white"/>
<path d="M750.764 61.9393H781.32V58.0387H755.204V13.9213H750.764V61.9393Z" fill="white"/>
<path d="M797.587 61.9393H828.144V58.0387H802.027V13.9213H797.587V61.9393Z" fill="white"/>
<path d="M846.369 37.9303C846.369 27.4389 851.592 16.8131 863.932 16.8131C876.208 16.8131 881.431 27.4389 881.431 37.9303C881.431 48.4217 876.208 59.0474 863.932 59.0474C851.592 59.0474 846.369 48.4217 846.369 37.9303ZM841.928 37.9303C841.928 51.1117 849.24 62.9479 863.932 62.9479C878.56 62.9479 885.872 51.1117 885.872 37.9303C885.872 24.7489 878.56 12.9125 863.932 12.9125C849.24 12.9125 841.928 24.7489 841.928 37.9303Z" fill="white"/>
<path d="M948.325 17.4856C951.72 17.4856 954.526 19.6377 954.526 23.6728C954.526 28.3805 950.608 31.2051 947.344 33.3572C945.255 30.8016 942.121 27.0354 942.121 23.6728C942.121 19.6377 944.931 17.4856 948.325 17.4856ZM965.106 61.9393H970.265L962.43 52.1878C964.583 48.0852 965.171 43.3775 965.171 40.6876H961.059C961.059 44.3866 960.795 46.404 959.684 48.7578L949.502 36.1145C954.137 33.0881 958.642 29.6583 958.642 23.6728C958.642 17.8219 954.007 13.9213 948.325 13.9213C942.644 13.9213 938.009 17.8219 938.009 23.6728C938.009 28.3132 941.208 31.8776 943.755 35.2402C938.532 38.1321 932.327 42.7054 932.327 49.4979C932.327 58.1732 938.402 62.9479 946.432 62.9479C951.914 62.9479 956.748 60.0565 960.143 55.6848L965.106 61.9393ZM957.596 52.5239C954.984 56.3574 951.261 59.3839 946.561 59.3839C941.338 59.3839 936.443 55.5503 936.443 49.901C936.443 44.1176 941.468 40.4859 945.973 37.9975L957.596 52.5239Z" fill="white"/>
<path d="M1054.6 28.4477C1053.36 18.4271 1044.74 12.9125 1035.86 12.9125C1021.17 12.9125 1013.86 24.7489 1013.86 37.9303C1013.86 51.1117 1021.17 62.9479 1035.86 62.9479C1046.76 62.9479 1054.01 55.4833 1055.25 43.6466H1050.81C1049.96 52.1878 1044.48 59.0474 1035.86 59.0474C1023.52 59.0474 1018.29 48.4217 1018.29 37.9303C1018.29 27.4389 1023.52 16.8131 1035.86 16.8131C1042.65 16.8131 1048.59 21.05 1050.16 28.4477H1054.6Z" fill="white"/>
<path d="M1089.73 18.4944L1098.74 43.1089H1080.4L1089.73 18.4944ZM1068.65 61.9393H1073.41L1079.02 47.0095H1100.24L1105.93 61.9393H1110.69L1092.41 13.9213H1087.45L1068.65 61.9393Z" fill="white"/>
<path d="M1131.12 17.8219H1147.71C1154.43 17.8219 1157.76 21.4535 1157.76 27.3717C1157.76 33.2226 1153.12 36.7198 1147.71 36.7198H1131.12V17.8219ZM1126.68 61.9393H1131.12V40.6204H1147.97C1156.32 40.2841 1156.98 47.7491 1157.3 54.4742C1157.5 56.4919 1157.5 60.1235 1158.54 61.9393H1163.44C1161.48 59.5854 1161.48 52.9274 1161.28 49.6324C1160.96 43.8486 1159.2 39.6788 1153.12 38.8046V38.67C1159.13 37.3923 1162.2 32.5501 1162.2 26.4302C1162.2 17.7546 1155.67 13.9213 1148.03 13.9213H1126.68V61.9393Z" fill="white"/>
<path d="M1186.42 17.8219H1201.7C1208.69 17.8219 1212.22 20.8482 1212.22 26.8337C1212.22 31.3396 1208.75 34.9712 1201.7 34.9712H1186.42V17.8219ZM1181.98 61.9393H1201.7C1216.85 61.9393 1218.42 52.8604 1218.42 48.2872C1218.42 42.0328 1214.56 37.3923 1208.56 36.5852V36.4508C1213.39 35.3747 1216.66 30.7343 1216.66 25.6904C1216.66 16.7458 1209.54 13.9213 1201.7 13.9213H1181.98V61.9393ZM1186.42 38.8718H1201.7C1209.54 38.8718 1213.97 41.9653 1213.97 48.1527C1213.97 55.9539 1208.3 58.0387 1201.7 58.0387H1186.42V38.8718Z" fill="white"/>
<path d="M1239.24 37.9303C1239.24 27.4389 1244.47 16.8131 1256.81 16.8131C1269.08 16.8131 1274.31 27.4389 1274.31 37.9303C1274.31 48.4217 1269.08 59.0473 1256.81 59.0473C1244.47 59.0473 1239.24 48.4217 1239.24 37.9303ZM1234.8 37.9303C1234.8 51.1116 1242.12 62.9479 1256.81 62.9479C1271.43 62.9479 1278.75 51.1116 1278.75 37.9303C1278.75 24.7488 1271.43 12.9124 1256.81 12.9124C1242.12 12.9124 1234.8 24.7488 1234.8 37.9303ZM1267.06 0H1261.97L1255.11 9.48257H1258.44L1267.06 0Z" fill="white"/>
<path d="M1297.37 61.9393H1301.81V21.319H1301.94L1329.1 61.9393H1334.06V13.9213H1329.63V54.5416H1329.49L1302.33 13.9213H1297.37V61.9393Z" fill="white"/>
<path d="M846.287 873H850.727V831.507H850.857L866.855 873H871.032L886.965 831.507H887.095V873H891.536V824.984H885.002L868.944 867.083L852.816 824.984H846.287V873Z" fill="white"/>
<path d="M926.858 829.556L935.868 854.172H917.522L926.858 829.556ZM905.77 873H910.535L916.152 858.073H937.369L943.05 873H947.815L929.534 824.984H924.575L905.77 873Z" fill="white"/>
<path d="M962.175 873H978.303C992.403 872.667 999.719 864.864 999.719 848.99C999.719 833.12 992.403 825.318 978.303 824.984H962.175V873ZM966.615 828.882H976.08C989.467 828.882 995.278 834.6 995.278 848.99C995.278 863.385 989.467 869.099 976.08 869.099H966.615V828.882Z" fill="white"/>
<path d="M1021.43 828.882H1038.02C1044.74 828.882 1048.07 832.515 1048.07 838.432C1048.07 844.284 1043.43 847.783 1038.02 847.783H1021.43V828.882ZM1016.99 873H1021.43V851.68H1038.27C1046.63 851.347 1047.29 858.813 1047.61 865.535C1047.81 867.554 1047.81 871.183 1048.86 873H1053.75C1051.79 870.647 1051.79 863.99 1051.6 860.694C1051.27 854.911 1049.51 850.742 1043.43 849.868V849.73C1049.44 848.454 1052.51 843.614 1052.51 837.493C1052.51 828.817 1045.98 824.984 1038.34 824.984H1016.99V873Z" fill="white"/>
<path d="M1070.99 873H1075.43V824.984H1070.99V873Z" fill="white"/>
<path d="M1095.25 873H1111.38C1125.49 872.667 1132.8 864.864 1132.8 848.99C1132.8 833.12 1125.49 825.318 1111.38 824.984H1095.25V873ZM1099.69 828.882H1109.16C1122.55 828.882 1128.36 834.6 1128.36 848.99C1128.36 863.385 1122.55 869.099 1109.16 869.099H1099.69V828.882Z" fill="white"/>
<path d="M1790.73 616.097H1802.82V651.067H1806.93V603.995H1803.6C1802.36 612.602 1797.92 612.87 1790.73 613.073V616.097Z" fill="white"/>
<path d="M1865.21 647.17H1839.81C1840.86 640.915 1849.09 636.612 1853.53 633.584C1859.53 629.613 1865.01 624.704 1865.01 616.836C1865.01 608.095 1858.81 603.588 1850.85 603.588C1840.92 603.588 1836.03 610.582 1836.22 620.266H1840.33C1840.14 613.341 1843.14 607.152 1850.65 607.152C1856.2 607.152 1860.9 610.651 1860.9 616.771C1860.9 620.535 1859.66 623.026 1857.11 625.647C1849.41 633.584 1835.37 637.079 1835.11 651.067H1865.21V647.17Z" fill="white"/>
<path d="M1899.27 603.588C1885.95 603.588 1883.34 616.836 1883.34 627.866C1883.34 638.831 1885.95 652.079 1899.27 652.079C1912.59 652.079 1915.21 638.831 1915.21 627.801C1915.21 616.836 1912.59 603.588 1899.27 603.588ZM1899.27 607.152C1909.72 607.152 1911.09 619.661 1911.09 627.801C1911.09 636.006 1909.72 648.515 1899.27 648.515C1888.83 648.515 1887.45 636.006 1887.45 627.801C1887.45 619.661 1888.83 607.152 1899.27 607.152Z" fill="white"/>
<path d="M1947.63 603.588C1934.31 603.588 1931.7 616.836 1931.7 627.866C1931.7 638.831 1934.31 652.079 1947.63 652.079C1960.95 652.079 1963.56 638.831 1963.56 627.801C1963.56 616.836 1960.95 603.588 1947.63 603.588ZM1947.63 607.152C1958.08 607.152 1959.45 619.661 1959.45 627.801C1959.45 636.006 1958.08 648.515 1947.63 648.515C1937.19 648.515 1935.81 636.006 1935.81 627.801C1935.81 619.661 1937.19 607.152 1947.63 607.152Z" fill="white"/>
</svg>
