<svg width="2400" height="1078" viewBox="0 0 1213 539" fill="none" xmlns="http://www.w3.org/2000/svg" preserveAspectRatio="xMidYMid meet">
<path d="M97.7151 194.423C97.7151 194.166 97.4659 193.91 97.2164 193.91C40.6964 193.373 27.8923 193.723 21.0255 199.16C14.1815 204.574 12.5045 213.185 9.03712 241.188C8.78783 241.445 8.28925 241.188 8.28925 240.931C10.7821 225.273 12.5271 209.381 13.5243 193.466C13.7735 192.953 14.0228 192.439 15.02 192.439C36.2094 192.696 53.6368 192.953 67.8461 192.953C82.0555 192.953 95.9928 192.883 111.698 192.439C111.947 192.439 112.196 192.696 112.196 192.953C72.9224 258.526 40.6511 313.669 17.5129 353.831C16.9463 354.67 17.0143 355.371 18.0114 355.371C24.9914 355.113 47.1099 355.113 55.7217 355.113C89.806 355.113 100.344 353.223 106.599 347.692C112.853 342.209 115.958 331.894 117.681 302.772C117.93 302.514 118.429 302.772 118.429 303.284C116.842 318.034 116.094 334.905 115.437 355.626C115.437 356.141 115.188 356.396 114.689 356.396C98.7349 356.069 79.1093 355.883 58.1238 355.883C47.4046 355.883 26.4872 356.141 3.30353 356.396C2.80495 356.396 2.55566 356.141 2.55566 355.883C33.1952 303.635 69.9082 242.121 97.7151 194.423Z" fill="white"/>
<path d="M256.805 355.626C266.279 355.626 275.003 355.814 276.248 354.601C277.496 353.388 281.891 342.536 284.476 334.578C287.038 326.621 293.949 305.316 302.674 278.899C310.65 255.026 321.62 222.449 333.312 190.642C333.405 190.456 333.54 190.386 333.7 190.386C333.856 190.386 333.994 190.432 334.085 190.642C349.357 239.648 355.613 260.207 369.301 304.24C383.011 348.252 385.323 353.666 387 354.529C388.677 355.371 391.645 355.883 405.832 355.626C406.331 356.141 405.832 356.396 405.336 356.396C391.804 356.141 383.6 355.883 376.802 355.883C367.308 355.883 355.069 355.952 346.844 356.396C346.844 356.141 347.343 355.626 347.839 355.626C362.549 355.626 371.364 355.626 371.364 354.274C371.364 353.154 370.66 349.676 367.534 338.848C364.383 328.02 360.192 315.652 352.848 292.037C352.848 291.78 352.349 291.522 352.102 291.522C348.362 291.78 336.418 291.849 325.267 291.849C314.119 291.849 305.551 291.429 299.998 291.429C299.749 291.429 299.093 291.687 299.093 292.199C293.111 310.939 279.513 351.054 279.513 354.062C279.513 355.347 282.573 355.859 301.517 355.605C302.265 355.605 302.764 355.859 302.515 356.375C297.779 356.117 284.747 355.859 277.02 355.859C269.291 355.859 259.819 356.117 256.578 356.375C256.08 356.375 256.329 355.859 256.828 355.605L256.805 355.626ZM301.132 290.683L351.558 290.752C351.807 290.752 352.303 290.497 352.303 290.24C344.757 265.597 337.347 241.001 327.783 209.941C327.624 209.358 327.375 209.264 327.128 209.871C316.407 240.908 306.525 269.12 299.797 290.171C299.797 290.683 300.044 290.683 301.111 290.683H301.132Z" fill="white"/>
<path d="M666.179 306.295C663.867 309.282 663.256 320.925 661.714 335.255C661.465 336.28 660.966 337.215 660.037 338.149C648.456 351.566 628.469 359.733 606.577 359.733C592.095 359.733 579.36 356.141 568.05 348.603C546.113 334.159 533.513 307.859 533.513 276.823C533.513 226.603 566.577 189.126 610.927 189.126C622.147 189.126 632.026 191.506 644.061 197.83C647.8 199.814 652.106 201.097 654.667 201.097C658.224 201.097 660.4 198.717 661.329 192.486H661.579L661.828 192.743C659.402 208.378 657.138 231.597 658.338 241.865C658.338 242.121 657.839 242.378 657.589 241.865C657.863 209.825 640.525 189.943 611.267 189.943C572.154 189.943 546.636 225.109 546.636 279.226C546.636 298.617 549.943 314.625 556.653 327.508C567.076 347.551 585.138 359.011 606.667 359.011C614.872 359.011 623.96 357.399 631.981 353.735C646.147 347.32 652.536 336.328 652.536 314.999C652.536 305.199 650.563 303.797 631.981 303.797C630.691 303.797 625.704 303.797 624.955 304.054C624.708 304.054 624.209 303.542 624.459 303.284C637.714 303.027 649.863 302.772 659.108 302.514C665.772 302.257 675.925 302.002 686.484 301.487C686.733 301.744 686.733 302.002 686.234 302.257C674.019 302.095 668.469 303.353 666.133 306.364L666.179 306.295Z" fill="white"/>
<path d="M806.73 355.626C816.203 355.626 824.928 355.814 826.175 354.601C827.423 353.388 831.818 342.536 834.401 334.578C836.962 326.621 843.874 305.316 852.598 278.899C860.577 255.026 871.545 222.449 883.239 190.642C883.33 190.456 883.465 190.386 883.624 190.386C883.783 190.386 883.919 190.432 884.009 190.642C899.284 239.648 905.538 260.207 919.226 304.24C932.938 348.252 935.25 353.666 936.927 354.529C938.605 355.371 941.572 355.883 955.759 355.626C956.258 356.141 955.759 356.396 955.26 356.396C941.731 356.141 933.527 355.883 926.729 355.883C917.232 355.883 904.994 355.952 896.768 356.396C896.768 356.141 897.267 355.626 897.766 355.626C912.473 355.626 921.288 355.626 921.288 354.274C921.288 353.154 920.587 349.676 917.461 338.848C914.31 328.02 910.116 315.652 902.775 292.037C902.775 291.78 902.276 291.522 902.026 291.522C898.286 291.78 886.345 291.849 875.194 291.849C864.044 291.849 855.478 291.429 849.926 291.429C849.676 291.429 849.018 291.687 849.018 292.199C843.035 310.939 829.44 351.054 829.44 354.062C829.44 355.347 832.498 355.859 851.444 355.605C852.192 355.605 852.691 355.859 852.442 356.375C847.704 356.117 834.674 355.859 826.945 355.859C819.218 355.859 809.745 356.117 806.504 356.375C806.005 356.375 806.255 355.859 806.754 355.605L806.73 355.626ZM851.059 290.683L901.482 290.752C901.732 290.752 902.231 290.497 902.231 290.24C894.684 265.597 887.274 241.001 877.71 209.941C877.551 209.358 877.302 209.264 877.052 209.871C866.334 240.908 856.452 269.12 849.721 290.171C849.721 290.683 849.971 290.683 851.035 290.683H851.059Z" fill="white"/>
<path d="M1112.7 353.573C1114.58 351.59 1114.85 344.076 1115.1 333.994C1115.35 315.862 1115.85 267.862 1116.84 228.633C1117.59 200.63 1117.34 196.873 1116.1 195.17C1114.85 193.443 1110.36 193.186 1096.15 193.186C1095.9 192.93 1096.24 192.486 1096.99 192.416C1103.47 192.743 1114.49 192.93 1124.82 192.93C1135.16 192.93 1145.1 192.743 1153.06 192.416C1153.62 192.603 1153.55 192.93 1153.06 193.186C1136.6 193.186 1130.87 193.443 1129.87 194.983C1128.88 196.523 1129.37 205.251 1127.88 289.703C1127.63 301.208 1127.13 329.164 1126.63 353.549C1126.63 354.065 1126.88 354.577 1127.88 354.577C1132.86 354.835 1150.16 355.089 1162.44 355.089C1188.46 355.089 1194.71 353.807 1199.31 350.377C1208.42 343.911 1211.59 332.197 1212.25 305.151C1212.5 304.893 1213 305.151 1213 305.666C1211.75 322.094 1211.01 339.174 1211.25 355.605C1211.25 356.117 1210.76 356.375 1210.26 356.375C1195.05 355.859 1162.67 355.859 1142.22 355.859C1121.78 355.859 1102.86 355.859 1092.39 356.375C1092.14 356.117 1092.14 355.859 1092.89 355.605C1104.88 355.605 1110.75 355.533 1112.67 353.549L1112.7 353.573Z" fill="white"/>
<path d="M396.396 12.1773H405.774C409.583 12.1773 412.147 14.1176 412.147 18.2047C412.147 22.2918 409.583 24.2321 405.774 24.2321H396.396V12.1773ZM393.67 39.2594H396.396V26.6266H406.376C411.507 26.6266 414.872 23.5303 414.872 18.2047C414.872 12.8791 411.507 9.7828 406.376 9.7828H393.67V39.2594Z" fill="white"/>
<path d="M427.334 24.5211C427.334 18.0808 430.541 11.558 438.116 11.558C445.651 11.558 448.858 18.0808 448.858 24.5211C448.858 30.9614 445.651 37.4841 438.116 37.4841C430.541 37.4841 427.334 30.9614 427.334 24.5211ZM424.608 24.5211C424.608 32.6127 429.097 39.8786 438.116 39.8786C447.093 39.8786 451.581 32.6127 451.581 24.5211C451.581 16.4295 447.093 9.16353 438.116 9.16353C429.097 9.16353 424.608 16.4295 424.608 24.5211Z" fill="white"/>
<path d="M463.053 39.2594H481.81V36.8649H465.779V9.7828H463.053V39.2594Z" fill="white"/>
<path d="M491.796 39.2594H510.554V36.8649H494.522V9.7828H491.796V39.2594Z" fill="white"/>
<path d="M521.741 24.5211C521.741 18.0808 524.948 11.558 532.523 11.558C540.058 11.558 543.265 18.0808 543.265 24.5211C543.265 30.9614 540.058 37.4841 532.523 37.4841C524.948 37.4841 521.741 30.9614 521.741 24.5211ZM519.015 24.5211C519.015 32.6127 523.504 39.8786 532.523 39.8786C541.502 39.8786 545.991 32.6127 545.991 24.5211C545.991 16.4295 541.502 9.16353 532.523 9.16353C523.504 9.16353 519.015 16.4295 519.015 24.5211Z" fill="white"/>
<path d="M584.329 11.9708C586.412 11.9708 588.135 13.2919 588.135 15.7689C588.135 18.6588 585.73 20.3927 583.726 21.7138C582.444 20.145 580.52 17.8331 580.52 15.7689C580.52 13.2919 582.245 11.9708 584.329 11.9708ZM594.63 39.2594H597.797L592.987 33.2733C594.309 30.7549 594.67 27.865 594.67 26.2138H592.146C592.146 28.4844 591.984 29.7228 591.302 31.1677L585.051 23.4064C587.896 21.5487 590.662 19.4432 590.662 15.7689C590.662 12.1773 587.817 9.7828 584.329 9.7828C580.841 9.7828 577.996 12.1773 577.996 15.7689C577.996 18.6175 579.96 20.8056 581.523 22.8697C578.317 24.645 574.508 27.4524 574.508 31.622C574.508 36.9475 578.237 39.8786 583.166 39.8786C586.532 39.8786 589.499 38.1036 591.583 35.42L594.63 39.2594ZM590.02 33.4796C588.416 35.8329 586.131 37.6907 583.246 37.6907C580.04 37.6907 577.035 35.3374 577.035 31.8695C577.035 28.3193 580.119 26.0899 582.885 24.5624L590.02 33.4796Z" fill="white"/>
<path d="M649.565 18.7001C648.804 12.5488 643.514 9.16353 638.062 9.16353C629.045 9.16353 624.557 16.4295 624.557 24.5211C624.557 32.6127 629.045 39.8786 638.062 39.8786C644.756 39.8786 649.204 35.2963 649.966 28.0301H647.243C646.72 33.2733 643.354 37.4841 638.062 37.4841C630.487 37.4841 627.28 30.9614 627.28 24.5211C627.28 18.0808 630.487 11.558 638.062 11.558C642.232 11.558 645.879 14.1589 646.842 18.7001H649.565Z" fill="white"/>
<path d="M671.134 12.5901L676.666 27.7001H665.404L671.134 12.5901ZM658.189 39.2594H661.114L664.559 30.0945H677.587L681.074 39.2594H683.999L672.777 9.7828H669.73L658.189 39.2594Z" fill="white"/>
<path d="M696.541 12.1773H706.722C710.85 12.1773 712.894 14.4066 712.894 18.0396C712.894 21.6312 710.048 23.778 706.722 23.778H696.541V12.1773ZM693.815 39.2594H696.541V26.1725H706.882C712.012 25.966 712.413 30.5486 712.612 34.6768C712.734 35.9155 712.734 38.1447 713.374 39.2594H716.381C715.179 37.8144 715.179 33.7273 715.057 31.7046C714.858 28.1541 713.775 25.5945 710.048 25.0578V24.9752C713.735 24.1908 715.619 21.2184 715.619 17.4616C715.619 12.136 711.612 9.7828 706.922 9.7828H693.815V39.2594Z" fill="white"/>
<path d="M730.489 12.1773H739.869C744.156 12.1773 746.322 14.035 746.322 17.7093C746.322 20.4753 744.196 22.7046 739.869 22.7046H730.489V12.1773ZM727.763 39.2594H739.869C749.167 39.2594 750.128 33.6862 750.128 30.8789C750.128 27.0395 747.763 24.1908 744.076 23.6954V23.6129C747.044 22.9523 749.047 20.1037 749.047 17.0074C749.047 11.5167 744.679 9.7828 739.869 9.7828H727.763V39.2594ZM730.489 25.0991H739.869C744.679 25.0991 747.402 26.9981 747.402 30.7963C747.402 35.5852 743.917 36.8649 739.869 36.8649H730.489V25.0991Z" fill="white"/>
<path d="M762.913 24.5211C762.913 18.0808 766.12 11.558 773.695 11.558C781.23 11.558 784.437 18.0808 784.437 24.5211C784.437 30.9614 781.23 37.4841 773.695 37.4841C766.12 37.4841 762.913 30.9614 762.913 24.5211ZM760.188 24.5211C760.188 32.6127 764.678 39.8786 773.695 39.8786C782.674 39.8786 787.163 32.6127 787.163 24.5211C787.163 16.4295 782.674 9.16353 773.695 9.16353C764.678 9.16353 760.188 16.4295 760.188 24.5211ZM779.988 1.23704H776.862L772.655 7.05806H774.698L779.988 1.23704Z" fill="white"/>
<path d="M798.595 39.2594H801.321V14.324H801.4L818.074 39.2594H821.119V9.7828H818.396V34.7182H818.313L801.642 9.7828H798.595V39.2594Z" fill="white"/>
<path d="M521.691 537.141H524.417V511.67H524.496L534.317 537.141H536.881L546.662 511.67H546.742V537.141H549.468V507.666H545.457L535.599 533.509L525.699 507.666H521.691V537.141Z" fill="white"/>
<path d="M571.15 510.473L576.682 525.583H565.42L571.15 510.473ZM558.206 537.141H561.131L564.578 527.978H577.603L581.091 537.141H584.016L572.793 507.666H569.749L558.206 537.141Z" fill="white"/>
<path d="M592.831 537.141H602.731C611.387 536.937 615.878 532.147 615.878 522.402C615.878 512.661 611.387 507.871 602.731 507.666H592.831V537.141ZM595.556 510.059H601.367C609.584 510.059 613.152 513.569 613.152 522.402C613.152 531.239 609.584 534.746 601.367 534.746H595.556V510.059Z" fill="white"/>
<path d="M629.207 510.059H639.386C643.514 510.059 645.56 512.289 645.56 515.921C645.56 519.514 642.712 521.662 639.386 521.662H629.207V510.059ZM626.481 537.141H629.207V524.054H639.546C644.676 523.85 645.077 528.432 645.279 532.559C645.398 533.799 645.398 536.026 646.041 537.141H649.045C647.843 535.697 647.843 531.611 647.724 529.587C647.522 526.037 646.442 523.478 642.712 522.942V522.857C646.402 522.073 648.284 519.102 648.284 515.345C648.284 510.019 644.276 507.666 639.588 507.666H626.481V537.141Z" fill="white"/>
<path d="M659.628 537.141H662.354V507.666H659.628V537.141Z" fill="white"/>
<path d="M674.523 537.141H684.424C693.082 536.937 697.57 532.147 697.57 522.402C697.57 512.661 693.082 507.871 684.424 507.666H674.523V537.141ZM677.249 510.059H683.062C691.277 510.059 694.844 513.569 694.844 522.402C694.844 531.239 691.277 534.746 683.062 534.746H677.249V510.059Z" fill="white"/>
<path d="M1101.45 379.437H1108.87V400.905H1111.39V372.008H1109.35C1108.59 377.292 1105.86 377.457 1101.45 377.581V379.437Z" fill="white"/>
<path d="M1147.17 398.512H1131.58C1132.22 394.673 1137.27 392.031 1140 390.172C1143.69 387.735 1147.05 384.721 1147.05 379.891C1147.05 374.525 1143.25 371.759 1138.36 371.759C1132.26 371.759 1129.26 376.052 1129.38 381.997H1131.9C1131.78 377.746 1133.63 373.947 1138.23 373.947C1141.64 373.947 1144.53 376.095 1144.53 379.852C1144.53 382.162 1143.77 383.691 1142.2 385.3C1137.47 390.172 1128.86 392.318 1128.7 400.905H1147.17V398.512Z" fill="white"/>
<path d="M1168.08 371.759C1159.91 371.759 1158.3 379.891 1158.3 386.662C1158.3 393.393 1159.91 401.526 1168.08 401.526C1176.26 401.526 1177.86 393.393 1177.86 386.622C1177.86 379.891 1176.26 371.759 1168.08 371.759ZM1168.08 373.947C1174.49 373.947 1175.34 381.625 1175.34 386.622C1175.34 391.659 1174.49 399.338 1168.08 399.338C1161.67 399.338 1160.83 391.659 1160.83 386.622C1160.83 381.625 1161.67 373.947 1168.08 373.947Z" fill="white"/>
<path d="M1197.77 371.759C1189.59 371.759 1187.99 379.891 1187.99 386.662C1187.99 393.393 1189.59 401.526 1197.77 401.526C1205.94 401.526 1207.55 393.393 1207.55 386.622C1207.55 379.891 1205.94 371.759 1197.77 371.759ZM1197.77 373.947C1204.18 373.947 1205.02 381.625 1205.02 386.622C1205.02 391.659 1204.18 399.338 1197.77 399.338C1191.36 399.338 1190.51 391.659 1190.51 386.622C1190.51 381.625 1191.36 373.947 1197.77 373.947Z" fill="white"/>
</svg>
