<svg width="148" height="24" viewBox="0 0 148 24" fill="none" xmlns="http://www.w3.org/2000/svg">
<g clip-path="url(#clip0_326_2439)">
<path d="M7.89078 0.554443L0 23.4459H4.17747L5.05802 20.5344H14.0683L14.9761 23.4459H19.1536L11.2628 0.554443H7.89078ZM6.08191 17.1688L9.55631 5.81655L13.0375 17.1688H6.08191Z" fill="white"/>
<path d="M43.6182 4.087H50.4031V23.4459H54.253V4.087H61.0721V0.554443H43.6182V4.087Z" fill="white"/>
<path d="M20.8262 4.087H27.6112V23.4459H31.4542V4.087H38.2733V0.554443H20.8262V4.087Z" fill="white"/>
<path d="M135.905 -0.0134277C128.315 -0.0134277 123.83 5.46237 123.83 12.0066C123.83 18.5508 128.342 24.0266 135.932 24.0266C143.523 24.0266 148.028 18.5642 148.028 12.0066C148.028 5.44901 143.489 -0.0134277 135.905 -0.0134277ZM135.905 20.621C130.717 20.621 127.81 16.7278 127.844 11.9866C127.878 7.24534 130.717 3.35218 135.905 3.35218C141.093 3.35218 143.994 7.24534 143.96 11.9866C143.926 16.7278 141.086 20.6343 135.905 20.6343V20.621Z" fill="white"/>
<path d="M77.0106 -0.0134277C69.427 -0.0134277 64.915 5.46237 64.915 12.0066C64.915 18.5508 69.427 24.0266 77.0106 24.0266C84.5942 24.0266 89.113 18.5642 89.113 12.0066C89.113 5.44901 84.601 -0.0134277 77.0106 -0.0134277Z" fill="white"/>
<path d="M106.491 18.0837L99.0034 0.554443H95.3242V23.4459H99.0034V8.14042L105.017 23.4459H107.932L113.945 8.30737V23.4459H117.625V0.554443H113.945L106.491 18.0837Z" fill="white"/>
</g>
<defs>
<clipPath id="clip0_326_2439">
<rect width="148" height="24" fill="white"/>
</clipPath>
</defs>
</svg>
