<svg width="221" height="139" viewBox="0 0 221 139" fill="none" xmlns="http://www.w3.org/2000/svg">
<g clip-path="url(#clip0_225_1976)">
<path d="M65.4537 0C72.0774 0 78.1158 0.583213 83.5706 1.75229C89.0253 2.92048 93.7002 4.83625 97.5961 7.49429C101.492 10.155 104.512 13.6923 106.654 18.1061C108.797 22.52 109.868 27.9695 109.868 34.4591C109.868 41.4682 108.277 47.3083 105.096 51.9793C101.913 56.6512 97.2062 60.4792 90.9733 63.4651C99.544 65.9314 105.94 70.2489 110.162 76.4106C114.38 82.5768 116.495 90.0083 116.495 98.7017C116.495 105.71 115.131 111.779 112.402 116.907C109.676 122.036 106.006 126.221 101.398 129.46C96.787 132.707 91.5268 135.106 85.6193 136.666C79.6738 138.227 73.5523 139.011 67.4052 139H0V0H65.4537ZM61.5578 56.2642C67.0126 56.2642 71.4921 54.9669 74.9998 52.3699C78.5057 49.7755 80.2591 45.556 80.2591 39.7159C80.2591 36.4729 79.6755 33.8105 78.5066 31.7339C77.3377 29.6582 75.7797 28.0331 73.8317 26.8676C71.8838 25.6985 69.6432 24.8908 67.1107 24.4331C64.5058 23.9736 61.8664 23.7456 59.2208 23.7527H30.5844V56.2659H61.5578V56.2642ZM63.3104 115.248C66.2955 115.248 69.1542 114.956 71.8811 114.372C74.6081 113.787 77.0096 112.814 79.0893 111.45C81.1646 110.09 82.8216 108.239 84.056 105.902C85.2886 103.567 85.9058 100.582 85.9058 96.9468C85.9058 89.8113 83.8915 84.717 79.8674 81.6657C75.8407 78.6154 70.5159 77.0893 63.8939 77.0893H30.5844V115.246L63.3104 115.247V115.248ZM154.982 112.329C159.138 116.355 165.112 118.363 172.904 118.363C178.487 118.363 183.293 116.97 187.318 114.178C191.344 111.391 193.812 108.436 194.721 105.32H219.071C215.177 117.389 209.199 126.023 201.149 131.211C193.095 136.404 183.354 138.999 171.927 138.999C164.006 138.999 156.861 137.734 150.499 135.202C144.135 132.672 138.743 129.07 134.332 124.398C129.915 119.727 126.507 114.149 124.103 107.657C121.699 101.169 120.501 94.029 120.501 86.2422C120.501 78.4554 121.732 71.7087 124.202 65.2182C126.667 58.7304 130.173 53.1166 134.723 48.3775C139.265 43.642 144.689 39.9103 150.989 37.1842C157.286 34.4582 164.267 33.0965 171.93 33.0965C180.502 33.0965 187.968 34.7507 194.334 38.06C200.695 41.3684 205.923 45.8185 210.015 51.3943C214.106 56.9764 217.058 63.3369 218.881 70.4716C220.698 77.6115 221.345 85.0722 220.828 92.8599H148.167C148.555 101.813 150.824 108.305 154.982 112.327V112.329ZM186.247 59.3764C182.937 55.7437 177.902 53.9251 171.152 53.9251C166.735 53.9251 163.067 54.6736 160.146 56.1643C157.224 57.6594 154.885 59.5045 153.131 61.7128C151.38 63.921 150.144 66.2574 149.432 68.7211C148.717 71.1873 148.294 73.3947 148.165 75.3405H193.164C191.866 68.3314 189.561 63.0118 186.248 59.3773L186.247 59.3764ZM143.44 7.05776H199.664V22.6366H143.44V7.05776Z" fill="#7CBBB7"/>
</g>
<defs>
<clipPath id="clip0_225_1976">
<rect width="221" height="139" fill="#7CBBB7"/>
</clipPath>
</defs>
</svg>
