<svg width="21" height="22" viewBox="0 0 21 22" fill="none" xmlns="http://www.w3.org/2000/svg">
<path d="M15.2935 6.24664H16.2474M4.32348 1.47705H15.7705C17.8778 1.47705 19.5862 3.18538 19.5862 5.29272V16.7397C19.5862 18.8471 17.8778 20.5554 15.7705 20.5554H4.32348C2.21615 20.5554 0.507812 18.8471 0.507812 16.7397V5.29272C0.507812 3.18538 2.21615 1.47705 4.32348 1.47705ZM10.047 14.8319C7.93965 14.8319 6.23131 13.1236 6.23131 11.0162C6.23131 8.90888 7.93965 7.20055 10.047 7.20055C12.1543 7.20055 13.8627 8.90888 13.8627 11.0162C13.8627 13.1236 12.1543 14.8319 10.047 14.8319Z" stroke="#283FD8"/>
</svg>
