<svg width="21" height="22" viewBox="0 0 21 22" fill="none" xmlns="http://www.w3.org/2000/svg">
<path d="M15.2935 6.24615H16.2474M4.32348 1.47656H15.7705C17.8778 1.47656 19.5862 3.1849 19.5862 5.29223V16.7392C19.5862 18.8466 17.8778 20.5549 15.7705 20.5549H4.32348C2.21615 20.5549 0.507812 18.8466 0.507812 16.7392V5.29223C0.507812 3.18489 2.21615 1.47656 4.32348 1.47656ZM10.047 14.8314C7.93965 14.8314 6.23131 13.1231 6.23131 11.0157C6.23131 8.9084 7.93965 7.20006 10.047 7.20006C12.1543 7.20006 13.8627 8.9084 13.8627 11.0157C13.8627 13.1231 12.1543 14.8314 10.047 14.8314Z" stroke="#7CBBB7"/>
</svg>
