<svg width="21" height="16" viewBox="0 0 21 16" fill="none" xmlns="http://www.w3.org/2000/svg">
<path d="M2.03125 0.5H18.0312C18.8551 0.5 19.5312 1.17614 19.5312 2V14C19.5312 14.8239 18.8551 15.5 18.0312 15.5H2.03125C1.20739 15.5 0.53125 14.8239 0.53125 14V2C0.53125 1.17614 1.20739 0.5 2.03125 0.5Z" stroke="#283FD8" strokeLinecap="round" strokeLinejoin="round"/>
<mask id="path-2-inside-1_310_5094" fill="white">
<path d="M20.0312 2L10.0312 9L0.03125 2"/>
</mask>
<path d="M20.6047 2.81923C21.0572 2.50252 21.1672 1.87899 20.8505 1.42654C20.5338 0.974088 19.9102 0.864054 19.4578 1.18077L20.6047 2.81923ZM10.0312 9L9.45779 9.81923C9.80211 10.0603 10.2604 10.0603 10.6047 9.81923L10.0312 9ZM0.604712 1.18077C0.152263 0.864054 -0.471267 0.974088 -0.787982 1.42654C-1.1047 1.87899 -0.994662 2.50252 -0.542212 2.81923L0.604712 1.18077ZM19.4578 1.18077L9.45779 8.18077L10.6047 9.81923L20.6047 2.81923L19.4578 1.18077ZM10.6047 8.18077L0.604712 1.18077L-0.542212 2.81923L9.45779 9.81923L10.6047 8.18077Z" fill="#283FD8" mask="url(#path-2-inside-1_310_5094)"/>
</svg>
