<svg width="21" height="20" viewBox="0 0 21 20" fill="none" xmlns="http://www.w3.org/2000/svg">
<g clip-path="url(#clip0_984_470)">
<path d="M2.03125 2.5H18.0312C18.8551 2.5 19.5312 3.17614 19.5312 4V16C19.5312 16.8239 18.8551 17.5 18.0312 17.5H2.03125C1.20739 17.5 0.53125 16.8239 0.53125 16V4C0.53125 3.17614 1.20739 2.5 2.03125 2.5Z" stroke="#7CBBB7" stroke-linecap="round" stroke-linejoin="round"/>
<mask id="path-2-inside-1_984_470" fill="white">
<path d="M20.0312 4L10.0312 11L0.03125 4"/>
</mask>
<path d="M20.6047 4.81923C21.0572 4.50252 21.1672 3.87899 20.8505 3.42654C20.5338 2.97409 19.9102 2.86405 19.4578 3.18077L20.6047 4.81923ZM10.0312 11L9.45779 11.8192C9.80211 12.0603 10.2604 12.0603 10.6047 11.8192L10.0312 11ZM0.604712 3.18077C0.152263 2.86405 -0.471267 2.97409 -0.787982 3.42654C-1.1047 3.87899 -0.994662 4.50252 -0.542212 4.81923L0.604712 3.18077ZM19.4578 3.18077L9.45779 10.1808L10.6047 11.8192L20.6047 4.81923L19.4578 3.18077ZM10.6047 10.1808L0.604712 3.18077L-0.542212 4.81923L9.45779 11.8192L10.6047 10.1808Z" fill="#7CBBB7" mask="url(#path-2-inside-1_984_470)"/>
</g>
<defs>
<clipPath id="clip0_984_470">
<rect width="20" height="20" fill="white" transform="translate(0.03125)"/>
</clipPath>
</defs>
</svg>
