<svg width="24" height="26" viewBox="0 0 24 26" fill="none" xmlns="http://www.w3.org/2000/svg">
<path d="M1.75 15C1.75 14.5858 1.41421 14.25 1 14.25C0.585786 14.25 0.25 14.5858 0.25 15H1.75ZM23.75 15C23.75 14.5858 23.4142 14.25 23 14.25C22.5858 14.25 22.25 14.5858 22.25 15H23.75ZM11.25 18C11.25 18.4142 11.5858 18.75 12 18.75C12.4142 18.75 12.75 18.4142 12.75 18H11.25ZM12.75 1.50001C12.75 1.08579 12.4142 0.750006 12 0.750006C11.5858 0.750006 11.25 1.08579 11.25 1.50001L12.75 1.50001ZM12 1L12.5303 0.46967C12.3897 0.329017 12.1989 0.25 12 0.25C11.8011 0.25 11.6103 0.329018 11.4697 0.46967L12 1ZM17.4697 7.53033C17.7626 7.82322 18.2374 7.82322 18.5303 7.53033C18.8232 7.23744 18.8232 6.76256 18.5303 6.46967L17.4697 7.53033ZM5.46967 6.46968C5.17678 6.76257 5.17678 7.23744 5.46967 7.53034C5.76256 7.82323 6.23744 7.82323 6.53033 7.53034L5.46967 6.46968ZM0.25 15V23H1.75V15H0.25ZM3 25.75H21V24.25H3V25.75ZM23.75 23V15H22.25V23H23.75ZM21 25.75C22.5188 25.75 23.75 24.5188 23.75 23H22.25C22.25 23.6904 21.6904 24.25 21 24.25V25.75ZM0.25 23C0.25 24.5188 1.48122 25.75 3 25.75V24.25C2.30964 24.25 1.75 23.6904 1.75 23H0.25ZM12.75 18L12.75 1.50001L11.25 1.50001L11.25 18H12.75ZM11.4697 1.53033L17.4697 7.53033L18.5303 6.46967L12.5303 0.46967L11.4697 1.53033ZM11.4697 0.46967L5.46967 6.46968L6.53033 7.53034L12.5303 1.53033L11.4697 0.46967Z" fill="#0F0C11"/>
</svg>
