<svg width="22" height="22" viewBox="0 0 22 22" fill="none" xmlns="http://www.w3.org/2000/svg">
<path d="M3.38412 16.7398L3.83134 16.9634L3.96966 16.6868L3.78388 16.4395L3.38412 16.7398ZM5.29168 18.6473L5.592 18.2476L5.34471 18.0618L5.06808 18.2001L5.29168 18.6473ZM1.47656 20.5549L1.02935 20.3313C0.933102 20.5238 0.970829 20.7563 1.12301 20.9085C1.27519 21.0606 1.50767 21.0984 1.70017 21.0021L1.47656 20.5549ZM7.20006 7.20008L6.90006 6.80008C6.77416 6.8945 6.70006 7.0427 6.70006 7.20008H7.20006ZM14.8314 14.8314V15.3314C14.9789 15.3314 15.1189 15.2663 15.2139 15.1535L14.8314 14.8314ZM7.79288 6.75546L7.49288 6.35546L7.79288 6.75546ZM9.31178 7.40028L8.81564 7.46229L9.31178 7.40028ZM9.52699 9.12192L10.0231 9.05991L9.52699 9.12192ZM9.25496 9.91476L8.90141 9.56121H8.90141L9.25496 9.91476ZM15.2543 14.3292L14.8718 14.0072L15.2543 14.3292ZM14.6627 12.7709L14.7351 12.2762L14.6627 12.7709ZM12.9206 12.516L12.993 12.0212L12.9206 12.516ZM12.1079 12.7853L12.4615 13.1389L12.1079 12.7853ZM0.976574 11.0157C0.976574 13.2754 1.72377 15.3621 2.98436 17.0401L3.78388 16.4395C2.64893 14.9287 1.97657 13.0514 1.97657 11.0157H0.976574ZM11.0157 0.976562C5.47126 0.976562 0.976574 5.47125 0.976574 11.0157H1.97657C1.97657 6.02354 6.02355 1.97656 11.0157 1.97656V0.976562ZM21.0549 11.0157C21.0549 5.47125 16.5602 0.976562 11.0157 0.976562V1.97656C16.0079 1.97656 20.0549 6.02354 20.0549 11.0157H21.0549ZM11.0157 21.0549C16.5602 21.0549 21.0549 16.5602 21.0549 11.0157H20.0549C20.0549 16.0079 16.0079 20.0549 11.0157 20.0549V21.0549ZM4.99136 19.0471C6.66938 20.3077 8.75602 21.0549 11.0157 21.0549V20.0549C8.98002 20.0549 7.10278 19.3826 5.592 18.2476L4.99136 19.0471ZM1.70017 21.0021L5.51529 19.0946L5.06808 18.2001L1.25296 20.1077L1.70017 21.0021ZM2.93691 16.5162L1.02935 20.3313L1.92378 20.7785L3.83134 16.9634L2.93691 16.5162ZM6.70006 7.20008V8.15399H7.70006V7.20008H6.70006ZM13.8775 15.3314H14.8314V14.3314H13.8775V15.3314ZM6.70006 8.15399C6.70006 12.118 9.9135 15.3314 13.8775 15.3314V14.3314C10.4658 14.3314 7.70006 11.5657 7.70006 8.15399H6.70006ZM7.50006 7.60008L8.09288 7.15546L7.49288 6.35546L6.90006 6.80008L7.50006 7.60008ZM8.81564 7.46229L9.03085 9.18394L10.0231 9.05991L9.80792 7.33826L8.81564 7.46229ZM8.90141 9.56121L7.80043 10.6622L8.50754 11.3693L9.60851 10.2683L8.90141 9.56121ZM9.03085 9.18394C9.04822 9.32293 9.00045 9.46216 8.90141 9.56121L9.60851 10.2683C9.92577 9.95107 10.0788 9.50511 10.0231 9.05991L9.03085 9.18394ZM8.09288 7.15546C8.3717 6.94635 8.77241 7.11646 8.81564 7.46229L9.80792 7.33826C9.66946 6.23053 8.38596 5.68565 7.49288 6.35546L8.09288 7.15546ZM15.2139 15.1535L15.6367 14.6513L14.8718 14.0072L14.4489 14.5093L15.2139 15.1535ZM14.7351 12.2762L12.993 12.0212L12.8482 13.0107L14.5903 13.2657L14.7351 12.2762ZM11.7544 12.4318L10.6622 13.5239L11.3693 14.231L12.4615 13.1389L11.7544 12.4318ZM12.993 12.0212C12.5384 11.9547 12.0792 12.1069 11.7544 12.4318L12.4615 13.1389C12.5629 13.0375 12.7062 12.9899 12.8482 13.0107L12.993 12.0212ZM15.6367 14.6513C16.3706 13.7798 15.8625 12.4412 14.7351 12.2762L14.5903 13.2657C14.9423 13.3172 15.1009 13.7351 14.8718 14.0072L15.6367 14.6513Z" 
fill="#ffffff"/>
</svg>
